<svg width="70" height="70" viewBox="0 0 70 70" fill="none" xmlns="http://www.w3.org/2000/svg">
<g clip-path="url(#clip0_868_25441)">
<path fill-rule="evenodd" clip-rule="evenodd" d="M37.6949 24.0392C37.6949 24.0392 37.6659 24.0216 37.6484 24.0039C37.6601 24.0039 37.6891 24.0216 37.6949 24.0392Z" fill="white"/>
<path fill-rule="evenodd" clip-rule="evenodd" d="M38.2297 22.797C38.2297 22.797 38.2006 22.7676 38.2239 22.7617C38.2297 22.7735 38.2239 22.7852 38.2297 22.797Z" fill="white"/>
<path fill-rule="evenodd" clip-rule="evenodd" d="M38.2342 22.7403C38.2342 22.7403 38.2226 22.7168 38.2168 22.7109C38.2284 22.7109 38.2342 22.7345 38.2342 22.7403Z" fill="white"/>
<path fill-rule="evenodd" clip-rule="evenodd" d="M38.0245 22.6506C38.0245 22.6506 38.0071 22.6211 38.0129 22.6094C38.0245 22.6094 38.0187 22.6388 38.0245 22.6506Z" fill="white"/>
<path fill-rule="evenodd" clip-rule="evenodd" d="M38.1932 22.551C38.1932 22.551 38.1758 22.5216 38.1758 22.4922C38.1874 22.4981 38.1874 22.5275 38.1932 22.551Z" fill="white"/>
<path fill-rule="evenodd" clip-rule="evenodd" d="M37.2695 22.3583C37.2695 22.2994 37.2695 22.1759 37.2928 22.1406C37.2753 22.2112 37.2812 22.2936 37.2695 22.3583Z" fill="white"/>
<path fill-rule="evenodd" clip-rule="evenodd" d="M37.6759 22.245C37.6526 22.1862 37.7049 22.0862 37.7049 22.0156C37.7224 22.0156 37.6817 22.1215 37.6933 22.145C37.6933 22.1627 37.6817 22.1744 37.6759 22.1862C37.6759 22.2039 37.6875 22.2274 37.6759 22.245Z" fill="white"/>
<path fill-rule="evenodd" clip-rule="evenodd" d="M37.9505 21.6232C37.9505 21.6232 37.9389 21.6114 37.9505 21.5938C37.9563 21.5938 37.9621 21.5938 37.9679 21.5938L37.9563 21.6173L37.9505 21.6232Z" fill="white"/>
<path fill-rule="evenodd" clip-rule="evenodd" d="M37.9785 21.3047C37.9901 21.2576 38.0483 21.1694 38.1006 21.1341C38.1006 21.1282 38.1006 21.1223 38.1064 21.1106C38.1238 21.0812 38.1819 21.0282 38.1354 21.0812C38.0889 21.1635 38.0308 21.2165 37.9843 21.3047H37.9785Z" fill="white"/>
<path fill-rule="evenodd" clip-rule="evenodd" d="M38.1699 21.3986C38.1699 21.3986 38.1815 21.3692 38.1932 21.3516C38.1932 21.3633 38.1815 21.3927 38.1699 21.3986Z" fill="white"/>
<path fill-rule="evenodd" clip-rule="evenodd" d="M37.7695 21.0119C37.7695 21.0119 37.7986 20.9708 37.8102 20.9531C37.8102 20.9708 37.787 21.0002 37.7695 21.0119Z" fill="white"/>
<path fill-rule="evenodd" clip-rule="evenodd" d="M38.1465 21.3108C38.1465 21.3108 38.1755 21.2579 38.1814 21.2344C38.2046 21.2344 38.1581 21.2814 38.1465 21.3108Z" fill="white"/>
<path fill-rule="evenodd" clip-rule="evenodd" d="M38.2109 21.3226C38.2109 21.3226 38.24 21.2755 38.2516 21.2461C38.2516 21.2696 38.2226 21.299 38.2109 21.3226Z" fill="white"/>
<path fill-rule="evenodd" clip-rule="evenodd" d="M37.7402 20.8869C37.7402 20.8869 37.7519 20.8517 37.7635 20.8281C37.7693 20.8399 37.746 20.8634 37.7402 20.8869Z" fill="white"/>
<path fill-rule="evenodd" clip-rule="evenodd" d="M37.8398 20.9224C37.8398 20.9224 37.9038 20.8224 37.9328 20.793C37.9038 20.84 37.8805 20.8753 37.8398 20.9224Z" fill="white"/>
<path fill-rule="evenodd" clip-rule="evenodd" d="M38.2637 21.2347C38.2695 21.1936 38.316 21.1583 38.3392 21.1406C38.3276 21.1759 38.2811 21.1994 38.2637 21.2347Z" fill="white"/>
<path fill-rule="evenodd" clip-rule="evenodd" d="M38.1758 21.0334C38.1758 21.0334 38.1932 20.9981 38.2048 20.9805C38.2223 20.9864 38.1932 21.0158 38.1758 21.0334Z" fill="white"/>
<path fill-rule="evenodd" clip-rule="evenodd" d="M38.2461 21.0119C38.2461 21.0119 38.2635 20.9825 38.281 20.9648C38.281 20.9766 38.2577 20.9943 38.2461 21.0119Z" fill="white"/>
<path fill-rule="evenodd" clip-rule="evenodd" d="M38.3281 20.994C38.3281 20.994 38.3572 20.9352 38.3688 20.9587C38.3572 20.9704 38.3572 20.9646 38.3514 20.9587C38.3397 20.9704 38.3514 20.9763 38.3281 20.9881V20.994Z" fill="white"/>
<path fill-rule="evenodd" clip-rule="evenodd" d="M38.1887 20.6641C38.1131 20.7347 38.177 20.7052 38.1887 20.6641V20.6641Z" fill="white"/>
<path fill-rule="evenodd" clip-rule="evenodd" d="M38.1309 20.4983C38.1483 20.4689 38.1657 20.4454 38.1948 20.4219C38.1832 20.4395 38.1425 20.4866 38.1309 20.4983Z" fill="white"/>
<path fill-rule="evenodd" clip-rule="evenodd" d="M38.1309 20.4631C38.1309 20.4631 38.1541 20.416 38.1541 20.4336L38.1309 20.4631Z" fill="white"/>
<path fill-rule="evenodd" clip-rule="evenodd" d="M38.0137 20.258C38.0137 20.258 38.0311 20.2227 38.0427 20.2109C38.0427 20.2227 38.0195 20.2521 38.0137 20.258Z" fill="white"/>
<path fill-rule="evenodd" clip-rule="evenodd" d="M38.1699 20.1144C38.199 20.0556 38.228 20.0556 38.1699 20.1144V20.1144Z" fill="white"/>
<path fill-rule="evenodd" clip-rule="evenodd" d="M37.0781 21.7292C37.0781 21.7292 37.0781 21.6881 37.0781 21.6704C37.1072 21.6469 37.113 21.5881 37.1362 21.5469C37.1362 21.6057 37.0897 21.641 37.0781 21.7233V21.7292Z" fill="white"/>
<path fill-rule="evenodd" clip-rule="evenodd" d="M37.8617 21.0165C37.8617 21.0165 37.8792 21.0106 37.8908 20.9871C37.8966 20.9871 37.8908 20.9989 37.8908 20.9989C37.9198 20.9694 37.9257 20.9459 37.9489 20.9224V20.9341C37.9605 20.8871 38.0186 20.8694 38.0709 20.793C38.0303 20.8753 37.8966 21.0165 37.8559 21.0812C37.8501 21.0636 37.9024 21.0165 37.8908 20.9989C37.8792 20.9871 37.8617 21.0341 37.8559 21.0106L37.8617 21.0165Z" fill="white"/>
<path fill-rule="evenodd" clip-rule="evenodd" d="M38.2235 21.1974C38.2177 21.1915 38.2409 21.168 38.2467 21.168C38.2467 21.1797 38.1886 21.2562 38.2293 21.1974H38.2235Z" fill="white"/>
<path fill-rule="evenodd" clip-rule="evenodd" d="M38.5425 20.7582L38.5542 20.7699C38.5832 20.7347 38.6355 20.6758 38.6646 20.6641C38.6355 20.7111 38.5367 20.7817 38.5309 20.8288C38.5135 20.8405 38.5135 20.8405 38.5018 20.8523C38.4379 20.9641 38.3217 21.0523 38.252 21.1699C38.252 21.0935 38.3856 21.0288 38.3972 20.9464C38.4089 20.9405 38.3972 20.9464 38.3972 20.9523C38.4379 20.9052 38.5135 20.8347 38.5425 20.7582Z" fill="white"/>
<path fill-rule="evenodd" clip-rule="evenodd" d="M38.1191 20.426C38.1191 20.426 38.1366 20.3966 38.1366 20.3789C38.1366 20.3789 38.1366 20.4201 38.1191 20.426Z" fill="white"/>
<path fill-rule="evenodd" clip-rule="evenodd" d="M39.6584 18.6455C39.6235 18.6631 39.6003 18.6984 39.5654 18.7219C39.4899 18.7749 39.4143 18.8102 39.3446 18.869C39.2807 18.9219 39.24 18.9867 39.176 19.0396C39.1296 19.0808 39.1179 19.0984 39.0889 19.1278C39.0075 19.2161 38.9261 19.2749 38.9203 19.3396C38.8738 19.4161 38.8099 19.4984 38.775 19.5631C38.775 19.5749 38.7518 19.5867 38.746 19.5925C38.6588 19.769 38.653 19.9219 38.5426 20.1043C38.5426 20.1337 38.5658 20.169 38.56 20.2161C38.56 20.2396 38.5426 20.269 38.5426 20.2867C38.5542 20.3514 38.6239 20.3749 38.6007 20.4572C38.6065 20.469 38.6181 20.4572 38.6298 20.4631C38.7053 20.5396 38.7867 20.5749 38.8332 20.6455C38.9029 20.6455 38.9378 20.6867 38.9959 20.6925C39.0308 20.6925 39.0831 20.6808 39.1237 20.6749C39.1702 20.6749 39.2109 20.6631 39.2574 20.6631C39.2807 20.6867 39.3155 20.6631 39.3388 20.6749C39.3911 20.6514 39.4376 20.6455 39.4899 20.6219C39.5015 20.6219 39.5131 20.6219 39.5247 20.6278C39.641 20.5867 39.7688 20.5631 39.8967 20.4808C39.9141 20.469 39.9374 20.4514 39.9432 20.4455C40.0245 20.369 40.164 20.2749 40.2337 20.2749C40.2512 20.2631 40.2454 20.2572 40.2628 20.2455C40.286 20.2514 40.35 20.2455 40.3907 20.2219C40.4023 20.2102 40.4139 20.1749 40.4371 20.1455C40.4778 20.1043 40.5418 20.1102 40.5766 20.0808C40.5941 20.069 40.5999 20.0337 40.6173 20.0161C40.658 19.969 40.7684 19.9161 40.8149 19.9043C40.8498 19.8925 40.873 19.9043 40.8963 19.8867C40.9195 19.869 40.9253 19.8396 40.9079 19.8161C40.9428 19.7219 41.1345 19.6867 41.2217 19.6396C41.3031 19.6396 41.3554 19.5808 41.4193 19.5749C41.4309 19.5749 41.4484 19.5749 41.46 19.5749C41.4832 19.569 41.5065 19.5514 41.5297 19.5455C41.5704 19.5396 41.6111 19.5337 41.6459 19.5219C41.6924 19.5749 41.7273 19.5337 41.768 19.5337C41.7854 19.5337 41.7912 19.5514 41.8087 19.5631C41.8203 19.5631 41.8377 19.5631 41.8494 19.5631C41.861 19.569 41.8726 19.5867 41.8842 19.5925C41.8958 19.5925 41.9075 19.5925 41.9133 19.5925C41.9249 19.5984 41.9249 19.6102 41.9365 19.6161C41.9481 19.6161 41.9656 19.6161 41.983 19.6161C42.0295 19.6396 42.0586 19.6867 42.1167 19.6984C42.1632 19.7867 42.2503 19.8337 42.2968 19.969C42.3201 19.9925 42.3375 20.0161 42.3433 20.0514C42.3491 20.0572 42.3608 20.0514 42.3608 20.0631C42.3782 20.1337 42.4421 20.1984 42.4538 20.2867C42.4538 20.2867 42.4654 20.2867 42.4712 20.2925C42.4886 20.4102 42.5177 20.5514 42.5467 20.6337C42.5293 20.6984 42.57 20.7749 42.5642 20.8514C42.5642 20.8867 42.5525 20.9278 42.5525 20.9631C42.5642 21.0337 42.5293 21.1219 42.5293 21.1867C42.5293 21.2043 42.5351 21.2278 42.5293 21.2514C42.5235 21.2867 42.5002 21.3219 42.4944 21.3631C42.477 21.5161 42.384 21.6749 42.3201 21.8043C42.2968 21.8455 42.291 21.8808 42.2678 21.9278C42.2329 22.0043 42.1632 22.0631 42.1167 22.1337C42.1051 22.1514 42.0992 22.1749 42.0876 22.1925C42.0586 22.2337 42.0237 22.269 41.9888 22.3102C41.9075 22.4161 41.8261 22.5278 41.7215 22.6043C41.6227 22.7396 41.4367 22.8925 41.2914 22.9984C41.2682 23.0455 41.2217 23.0514 41.1868 23.0808C41.0764 23.169 40.9428 23.2808 40.8091 23.3278C40.2977 23.6455 39.7107 23.7396 39.2225 23.6102C39.1819 23.5808 39.1354 23.5749 39.1005 23.569C39.1005 23.5572 39.0772 23.5455 39.0598 23.5337C38.9843 23.5337 38.9203 23.4631 38.839 23.4219C38.8041 23.4337 38.775 23.3867 38.7344 23.3808C38.7344 23.3572 38.7576 23.3808 38.7402 23.3631C38.6646 23.369 38.531 23.2278 38.4612 23.1808C38.4612 23.1808 38.4612 23.1925 38.4554 23.1808C38.4554 23.1572 38.4264 23.169 38.4147 23.1514C38.3101 23.0455 38.2113 22.9867 38.1358 22.8749C38.1358 22.8572 38.1358 22.8102 38.1125 22.8043C38.1183 22.8278 38.1358 22.8514 38.1125 22.8572C38.1009 22.8219 38.0777 22.7749 38.0544 22.7572C38.037 22.7102 38.037 22.6867 38.0137 22.6514C38.0137 22.6396 37.9963 22.669 37.9905 22.6455C37.9847 22.5749 37.9614 22.5455 37.9672 22.4867C37.944 22.469 37.9382 22.3984 37.9498 22.3749C37.944 22.3572 37.9324 22.3984 37.9266 22.3749C37.9149 22.3161 37.9207 22.2631 37.9382 22.2161C37.9324 22.2043 37.9208 22.1925 37.9208 22.169C37.9208 22.1514 37.9382 22.1749 37.9382 22.1514C37.9324 22.1278 37.9149 22.1631 37.9033 22.1514C37.9033 22.1219 37.8917 22.1219 37.8859 22.1043C37.9033 22.0631 37.8859 22.0337 37.8975 21.9925C37.8975 21.9514 37.9208 21.9102 37.9324 21.869C37.9382 21.8337 37.9324 21.8161 37.9498 21.7808C37.9614 21.7514 37.9905 21.7337 38.0021 21.6984C38.0021 21.6808 37.9847 21.6984 37.9963 21.6749C38.0544 21.5631 38.1125 21.4514 38.1474 21.3572C38.0893 21.4984 38.0079 21.569 37.9731 21.6984C37.9498 21.7043 37.9614 21.7514 37.9266 21.7631C37.9324 21.7749 37.9498 21.7514 37.9382 21.7749C37.9382 21.7808 37.9266 21.7867 37.9208 21.7984C37.9091 21.7749 37.8975 21.7984 37.8801 21.7984C37.8394 21.8984 37.822 21.9808 37.8045 22.0749C37.8045 22.0925 37.822 22.069 37.822 22.0867C37.822 22.1219 37.8103 22.1455 37.8103 22.1867C37.7929 22.1984 37.7813 22.2219 37.7638 22.2043C37.7813 22.0808 37.7929 21.9043 37.851 21.7572C37.8684 21.7161 37.9091 21.6808 37.8917 21.6396C37.8684 21.7043 37.8161 21.7455 37.7929 21.7984C37.758 21.869 37.758 21.9631 37.7348 22.0337C37.729 22.0572 37.7173 22.0631 37.7173 22.0808C37.7173 22.0984 37.7173 22.1219 37.7173 22.1396C37.7173 22.1572 37.7057 22.1572 37.7057 22.1749C37.7057 22.2102 37.7173 22.2337 37.7057 22.269C37.7057 22.3278 37.6883 22.3867 37.6941 22.4572C37.6883 22.469 37.6709 22.4631 37.665 22.4514C37.665 22.369 37.665 22.3572 37.665 22.2749C37.665 22.2867 37.6592 22.2867 37.6534 22.2867C37.6534 22.2631 37.665 22.2514 37.6534 22.2337C37.6534 22.2925 37.6186 22.2867 37.6011 22.2631C37.6127 22.1043 37.6534 21.9102 37.7115 21.7925C37.7115 21.7749 37.6999 21.7631 37.7115 21.7396C37.758 21.5984 37.8452 21.4572 37.9208 21.3219C37.8045 21.4572 37.7232 21.6337 37.665 21.8337C37.6592 21.8396 37.6476 21.8337 37.6476 21.8514C37.6302 21.9396 37.6011 22.0455 37.5953 22.1161L37.5314 22.2043C37.5256 22.4337 37.4733 22.6161 37.5314 22.8396C37.5198 22.8396 37.5198 22.8631 37.5139 22.869C37.4965 22.8572 37.4791 22.8455 37.4675 22.8278C37.4558 22.7925 37.4442 22.7514 37.4442 22.7161C37.3628 22.5278 37.3803 22.2219 37.4151 21.9749C37.4035 21.9396 37.3803 21.9572 37.357 21.9749C37.3163 22.0984 37.3338 22.2161 37.3047 22.3514C37.2582 22.3984 37.2176 22.3514 37.2234 22.2396C37.2234 22.0514 37.3105 21.7572 37.357 21.6572C37.5139 21.1749 37.8161 20.8219 38.0777 20.4867C37.9091 20.6572 37.7813 20.8572 37.636 21.0396C37.6418 21.0396 37.6418 21.0514 37.636 21.069C37.5023 21.2572 37.3745 21.4984 37.3163 21.7219C37.2582 21.8043 37.2466 21.9925 37.2001 22.0867C37.1536 22.0572 37.1536 21.969 37.1594 21.8572C37.142 21.9631 37.1013 22.0631 37.0897 22.1572C37.0781 22.2337 37.0897 22.369 37.0839 22.4102C37.0839 22.4219 37.0723 22.4043 37.0723 22.4219C37.0723 22.3925 37.0723 22.4808 37.0723 22.4867C37.0839 22.5278 37.0839 22.5219 37.0897 22.569C37.0897 22.6337 37.0897 22.6337 37.0897 22.6749C37.1188 22.8925 37.1943 23.1043 37.2873 23.2984C37.2989 23.3278 37.3105 23.3514 37.3163 23.3631C37.3222 23.3808 37.3047 23.369 37.3163 23.3984C37.3222 23.4102 37.328 23.3984 37.3396 23.4219C37.3803 23.4925 37.4268 23.5808 37.4733 23.6396C37.5953 23.8043 37.7522 23.9749 37.8684 24.0749C37.8917 24.0984 37.851 24.0808 37.8859 24.1102C38.0835 24.2925 38.3101 24.4514 38.5658 24.5808C38.5833 24.5925 38.5658 24.5984 38.5891 24.6102C38.6239 24.6278 38.6239 24.6102 38.6588 24.6219C38.6763 24.6337 38.7053 24.6572 38.7111 24.669C39.0308 24.8102 39.3969 24.8572 39.7398 24.8514C40.0652 24.8455 40.3732 24.7867 40.6522 24.6984C40.8672 24.6278 41.059 24.5337 41.2391 24.4572C41.4658 24.3278 41.6576 24.2161 41.8552 24.0808C41.9888 23.9867 42.1574 23.8808 42.262 23.7749C42.2794 23.7572 42.2968 23.7337 42.3201 23.7102C42.355 23.6808 42.3956 23.6631 42.4305 23.6337C42.5177 23.5514 42.5932 23.4572 42.6746 23.3749C42.7676 23.2808 42.8547 23.1867 42.9419 23.0867C42.9884 23.0278 43.0233 22.9631 43.0698 22.9043C43.0872 22.8808 43.1453 22.8102 43.1686 22.7867C43.2557 22.669 43.3139 22.5337 43.3894 22.4161C43.4824 22.2572 43.587 22.0867 43.6335 21.8925C43.7207 21.6984 43.7904 21.4337 43.8078 21.2161C43.866 21.0514 43.8369 20.8631 43.8369 20.6631C43.8369 20.6396 43.8369 20.6278 43.8369 20.6043C43.8485 20.2925 43.7265 19.9984 43.6742 19.7749C43.6277 19.6984 43.6219 19.6219 43.5928 19.5396C43.5638 19.4572 43.5173 19.3867 43.4708 19.3043C43.4591 19.2808 43.4533 19.2514 43.4359 19.2278C43.3952 19.1455 43.3371 19.0808 43.2732 18.9984C43.1802 18.8808 43.0988 18.7219 42.9419 18.6102C42.8489 18.4984 42.6688 18.3572 42.5119 18.2984C42.384 18.2278 42.2445 18.1749 42.1051 18.1337C41.9656 18.1161 41.8145 18.0867 41.675 18.0808C41.582 18.0808 41.4948 18.0572 41.4019 18.0808C41.2973 18.0572 41.1985 18.1043 41.0822 18.1161C40.966 18.1337 40.8614 18.1572 40.751 18.1867C40.5882 18.2219 40.4313 18.3219 40.3035 18.3278C40.2105 18.2631 40.1873 18.4337 40.0768 18.4749C40.0129 18.4867 40.0071 18.4572 39.9664 18.4455C39.9083 18.4572 39.8676 18.4925 39.8269 18.5278C39.7688 18.5514 39.7107 18.5396 39.6352 18.5867L39.6584 18.6455ZM37.8626 22.3925C37.8626 22.3925 37.8684 22.3925 37.8684 22.3867C37.8859 22.3984 37.8568 22.4278 37.8626 22.3925ZM37.8568 22.3808C37.8568 22.3278 37.8452 22.2514 37.8684 22.2102C37.8684 22.1984 37.8452 22.2102 37.8394 22.1984C37.8568 22.1749 37.8684 22.1514 37.8743 22.1102C37.9091 22.1102 37.8743 22.1867 37.9033 22.1984C37.8917 22.2278 37.8917 22.2396 37.9033 22.2572C37.8859 22.3161 37.9033 22.3337 37.8917 22.3749C37.8743 22.3631 37.8743 22.3808 37.8568 22.3749V22.3808Z" fill="white"/>
<path fill-rule="evenodd" clip-rule="evenodd" d="M54.7734 25.5395C54.7734 25.5395 54.8025 25.4748 54.8199 25.4336C54.8257 25.4454 54.8025 25.5042 54.7734 25.5395Z" fill="white"/>
<path fill-rule="evenodd" clip-rule="evenodd" d="M54.1923 23.6C54.1458 23.5824 53.9889 23.5118 54.0121 23.5C54.1051 23.5471 54.1341 23.5647 54.1923 23.6Z" fill="white"/>
<path fill-rule="evenodd" clip-rule="evenodd" d="M53.9417 23.4409C53.9417 23.4409 53.8023 23.3703 53.7441 23.3409C53.75 23.3292 53.9127 23.4174 53.9417 23.4409Z" fill="white"/>
<path fill-rule="evenodd" clip-rule="evenodd" d="M53.0647 23.2093C53.0182 23.1976 52.9078 23.1505 52.8613 23.1211C52.8788 23.1211 53.0008 23.1799 53.0647 23.2093Z" fill="white"/>
<path fill-rule="evenodd" clip-rule="evenodd" d="M52.7745 22.8736C52.699 22.8559 52.5827 22.8089 52.4316 22.7383C52.4898 22.75 52.6525 22.8265 52.7745 22.8736Z" fill="white"/>
<path fill-rule="evenodd" clip-rule="evenodd" d="M51.4146 23.2768C51.2344 23.1944 50.8741 23.0121 50.7637 22.918C50.9671 23.0533 51.217 23.165 51.4146 23.2768Z" fill="white"/>
<path fill-rule="evenodd" clip-rule="evenodd" d="M51.1408 22.6701C50.9199 22.5759 50.5771 22.323 50.3272 22.1642C50.3039 22.123 50.6933 22.4112 50.7747 22.4465C50.8212 22.4818 50.8735 22.5171 50.9258 22.5524C50.9955 22.5936 51.071 22.623 51.1408 22.6759V22.6701Z" fill="white"/>
<path fill-rule="evenodd" clip-rule="evenodd" d="M49.1601 20.7213C49.1601 20.7213 49.1484 20.7213 49.1484 20.7037C49.1484 20.6919 49.1484 20.6625 49.1484 20.6272C49.1542 20.6037 49.1601 20.5978 49.1659 20.6037L49.1543 20.7037V20.7213H49.1601Z" fill="white"/>
<path fill-rule="evenodd" clip-rule="evenodd" d="M49.6543 19.6396C49.7938 19.4926 50.1715 19.2514 50.3982 19.1573C50.4272 19.1396 50.4214 19.1338 50.4795 19.1043C50.6132 19.0338 50.9154 18.9043 50.6248 19.0396C50.2761 19.222 49.9972 19.3573 49.6601 19.6338L49.6543 19.6396Z" fill="white"/>
<path fill-rule="evenodd" clip-rule="evenodd" d="M49.8984 19.7232C49.9275 19.6938 49.9914 19.6467 50.067 19.5938C50.0553 19.6114 49.9275 19.7055 49.8984 19.7232Z" fill="white"/>
<path fill-rule="evenodd" clip-rule="evenodd" d="M49.8457 19.0943C49.8457 19.0943 50.0259 18.9826 50.1014 18.9414C50.0491 18.9767 49.9096 19.0649 49.8457 19.0943Z" fill="white"/>
<path fill-rule="evenodd" clip-rule="evenodd" d="M50.043 19.5319C50.1011 19.4849 50.2464 19.3966 50.3277 19.3437C50.4091 19.3143 50.136 19.4613 50.043 19.5319Z" fill="white"/>
<path fill-rule="evenodd" clip-rule="evenodd" d="M50.1934 19.5085C50.2399 19.4674 50.391 19.385 50.5072 19.3203C50.3677 19.4027 50.2922 19.4497 50.1934 19.5085Z" fill="white"/>
<path fill-rule="evenodd" clip-rule="evenodd" d="M50.0781 18.8384C50.0781 18.8384 50.2002 18.7619 50.2757 18.7148C50.2641 18.7325 50.1479 18.7913 50.0781 18.8384Z" fill="white"/>
<path fill-rule="evenodd" clip-rule="evenodd" d="M50.2461 18.8644C50.3275 18.8056 50.682 18.6409 50.8621 18.582C50.6413 18.6761 50.4669 18.7526 50.2461 18.8644Z" fill="white"/>
<path fill-rule="evenodd" clip-rule="evenodd" d="M50.5605 19.2938C50.6884 19.2056 50.9034 19.1291 51.0313 19.082C50.9034 19.1409 50.7 19.2056 50.5605 19.2938Z" fill="white"/>
<path fill-rule="evenodd" clip-rule="evenodd" d="M50.8574 18.9437C50.9097 18.9143 51.0085 18.8732 51.0957 18.8438C51.1189 18.8555 50.9562 18.8967 50.8574 18.9437Z" fill="white"/>
<path fill-rule="evenodd" clip-rule="evenodd" d="M51.1289 18.8929C51.1986 18.8576 51.2626 18.8458 51.3672 18.8164C51.3439 18.8341 51.1986 18.8635 51.1289 18.8929Z" fill="white"/>
<path fill-rule="evenodd" clip-rule="evenodd" d="M51.4023 18.8631C51.4314 18.8395 51.6581 18.7925 51.6116 18.8219C51.5476 18.8395 51.5534 18.8219 51.5534 18.8219C51.4779 18.8336 51.4895 18.8454 51.4023 18.8631Z" fill="white"/>
<path fill-rule="evenodd" clip-rule="evenodd" d="M52.0072 18.4297C51.5655 18.4767 51.8445 18.465 52.0072 18.4297V18.4297Z" fill="white"/>
<path fill-rule="evenodd" clip-rule="evenodd" d="M52.3613 18.251C52.5008 18.2392 52.6403 18.2392 52.7972 18.251C52.6635 18.251 52.4485 18.251 52.3613 18.251Z" fill="white"/>
<path fill-rule="evenodd" clip-rule="evenodd" d="M52.4663 18.2237C52.4198 18.2119 52.6929 18.2119 52.6348 18.2237H52.4663Z" fill="white"/>
<path fill-rule="evenodd" clip-rule="evenodd" d="M52.7969 17.9985C52.8492 17.9926 52.9596 17.9985 53.041 18.0044C53.0119 18.0103 52.8376 18.0044 52.7969 17.9985Z" fill="white"/>
<path fill-rule="evenodd" clip-rule="evenodd" d="M53.75 18.1328C54.0348 18.174 54.1278 18.2152 53.75 18.1328V18.1328Z" fill="white"/>
<path fill-rule="evenodd" clip-rule="evenodd" d="M49.66 22.5464C49.6135 22.517 49.5496 22.4758 49.5147 22.4582C49.4392 22.3817 49.2764 22.2758 49.166 22.1641C49.3229 22.2758 49.4566 22.4111 49.66 22.5464Z" fill="white"/>
<path fill-rule="evenodd" clip-rule="evenodd" d="M50.0727 19.0468C50.1425 19.0056 50.1367 19.0174 50.218 18.9703C50.2296 18.9703 50.1948 18.9938 50.1948 18.9997C50.3343 18.9233 50.4098 18.8821 50.5435 18.8174C50.526 18.8291 50.5144 18.8409 50.5144 18.8468C50.6771 18.7409 50.8922 18.688 51.2641 18.5703C50.8922 18.6703 50.1541 19.0174 49.8926 19.2056C49.9216 19.1644 50.1773 19.035 50.1948 19.0056C50.1948 18.988 50.0379 19.0938 50.0727 19.0468Z" fill="white"/>
<path fill-rule="evenodd" clip-rule="evenodd" d="M50.5492 19.2405C50.5608 19.2287 50.5783 19.2228 50.5492 19.2405C50.5492 19.2287 50.6712 19.1817 50.6887 19.1758C50.6596 19.1993 50.2935 19.3817 50.5492 19.2464V19.2405Z" fill="white"/>
<path fill-rule="evenodd" clip-rule="evenodd" d="M52.745 18.7266V18.7442C52.9368 18.7442 53.2506 18.7795 53.3784 18.8148C53.146 18.7854 52.6578 18.7266 52.4893 18.7619C52.4486 18.7619 52.3789 18.7619 52.3382 18.7619C51.8035 18.8089 51.2107 18.9089 50.7109 19.1619C50.9202 19.003 51.4839 18.8854 51.7628 18.8089C51.8093 18.8089 51.7628 18.8089 51.7338 18.8148C51.9779 18.7677 52.4253 18.7442 52.7508 18.7324L52.745 18.7266Z" fill="white"/>
<path fill-rule="evenodd" clip-rule="evenodd" d="M52.543 18.1875C52.5953 18.1758 52.6941 18.1817 52.7522 18.1758C52.7812 18.1758 52.6127 18.1993 52.543 18.1875Z" fill="white"/>
<path fill-rule="evenodd" clip-rule="evenodd" d="M19.3001 45.8913C19.2013 45.9619 19.0444 46.0854 18.9398 46.1619C18.655 46.3677 18.3935 46.5442 18.1145 46.7619C17.8995 46.9501 17.6205 47.1913 17.4055 47.3736C17.2195 47.5324 17.1672 47.5913 17.051 47.6972C16.7023 48.0207 16.4176 48.2795 16.2955 48.4501C16.0747 48.6971 15.7899 49.003 15.6097 49.2266C15.5574 49.2854 15.5226 49.3207 15.4993 49.3442C15.0402 49.9266 14.8194 50.3266 14.3138 51.0207C14.2847 51.0971 14.2789 51.156 14.215 51.2913C14.1859 51.3501 14.0987 51.4736 14.0813 51.5148C14.0174 51.6854 14.1627 51.603 13.9941 51.8854C13.9941 51.9089 14.0348 51.8619 14.0464 51.856C14.122 51.9266 14.2673 51.8795 14.2847 51.9913C14.4533 51.8501 14.4707 51.9207 14.6102 51.8148C14.6973 51.7501 14.8426 51.6089 14.9472 51.5207C15.0635 51.4207 15.1913 51.3148 15.2959 51.2383C15.3192 51.2619 15.447 51.1148 15.4935 51.103C15.6621 50.9383 15.8015 50.8207 15.9759 50.656C15.9991 50.6442 16.0398 50.6089 16.0572 50.6148C16.5047 50.2324 16.9987 49.8089 17.3416 49.5148C17.3881 49.4736 17.4869 49.3854 17.5392 49.3383C17.9053 48.9913 18.5097 48.503 18.7422 48.3677C18.8177 48.3148 18.8061 48.3089 18.8816 48.256C18.9398 48.2383 19.1722 48.0971 19.3582 47.9619C19.4221 47.9148 19.5151 47.8089 19.6546 47.703C19.858 47.5442 20.0846 47.4324 20.2706 47.2971C20.3578 47.2324 20.4391 47.1501 20.5321 47.0854C20.7704 46.9089 21.276 46.603 21.4968 46.4854C21.6654 46.3913 21.7409 46.3736 21.863 46.2971C21.9792 46.2266 22.0547 46.1619 22.0257 46.1383C22.3279 45.8854 23.2171 45.4854 23.7401 45.2324C24.1411 45.0795 24.5072 44.8972 24.8908 44.756C24.9605 44.7324 25.0767 44.6971 25.1465 44.6795C25.2569 44.6383 25.4661 44.5619 25.623 44.4971C25.931 44.3971 26.1461 44.3266 26.4308 44.2324C26.826 44.1619 27.0992 44.0324 27.4304 43.9383C27.535 43.9089 27.6978 43.8736 27.8198 43.8442C27.9244 43.8089 28.0639 43.7677 28.1743 43.7266C28.2847 43.6972 28.4591 43.656 28.5637 43.6266C28.645 43.5971 28.7322 43.5677 28.8019 43.5442C28.9007 43.5148 28.9647 43.503 29.0693 43.4736C29.1506 43.4442 29.3134 43.3795 29.3947 43.3501C29.7957 43.2148 30.2374 43.0854 30.6035 42.9266C31.2951 42.7148 31.8704 42.456 32.6841 42.1736C32.8816 42.0854 33.0269 42.0207 33.2478 41.9383C33.2943 41.9148 33.2885 41.903 33.364 41.8736C33.7941 41.6913 34.2357 41.4383 34.6716 41.1089C34.6832 41.0913 34.7007 41.0736 34.7239 41.0501C35.0203 40.8266 35.3457 40.4854 35.5491 40.0736C35.7584 39.6677 35.8281 39.2383 35.8339 38.9324C35.8862 38.4501 35.7874 37.9266 35.6305 37.4148C35.555 37.1736 35.4794 36.9383 35.3748 36.7148C35.2586 36.4913 35.1191 36.2442 34.9389 36.0207C34.7588 35.7913 34.5728 35.6148 34.4449 35.4854C34.3636 35.4089 34.2938 35.3501 34.2357 35.2795C34.1253 35.156 34.044 35.0089 33.9568 34.8501C33.7824 34.5266 33.6197 34.1324 33.5674 33.7972C33.5093 33.4501 33.5558 33.1501 33.6546 32.9148C33.7185 32.7677 33.7766 32.6383 33.8987 32.4795C34.1021 32.2207 34.4217 31.9971 34.7471 31.7971C34.8285 31.7442 34.9157 31.6913 34.997 31.6442C35.2179 31.5266 35.4213 31.4207 35.6479 31.2972C36.2175 31.0266 36.7986 30.7442 37.374 30.5619C38.083 30.2619 39.1697 29.9442 40.0473 29.7207C40.2391 29.6501 40.4308 29.6266 40.6342 29.5736C41.2619 29.4148 42.0697 29.2266 42.7438 29.1266C44.1502 28.856 45.6031 28.6677 47.0502 28.5442C48.4914 28.4501 50.0024 28.3854 51.4437 28.1383C51.6704 28.1266 52.0249 28.0501 52.2225 27.9972C52.2689 27.9972 52.4026 27.9736 52.5014 27.9501C52.8559 27.8442 53.3208 27.7619 53.7741 27.5854C53.8787 27.5266 54.1635 27.4324 54.3262 27.3383C54.4076 27.3207 54.2332 27.3913 54.3611 27.3442C54.4889 27.2677 54.5819 27.2089 54.6749 27.1501C54.7505 27.1089 54.8202 27.0619 54.8958 27.0207C54.9713 26.9619 55.0469 26.903 55.1282 26.8383C55.2909 26.7324 55.4304 26.5442 55.5641 26.3972C55.6745 26.256 55.7617 26.0972 55.8256 25.9736C55.8082 26.0089 55.7965 26.0148 55.8198 25.9736C55.8895 25.8501 55.8895 25.7913 55.9418 25.6266C56.0232 25.3324 56.0058 25.0383 55.907 24.7972C55.8082 24.5501 55.6164 24.3795 55.4072 24.256C55.0236 24.0501 54.7563 23.9795 54.4366 23.8324C54.3611 23.7913 54.1693 23.6736 54.0996 23.656C54.2042 23.7148 54.3437 23.7795 54.3262 23.7913C54.1519 23.6972 53.9136 23.5795 53.7741 23.5266C53.5417 23.4089 53.4254 23.3383 53.2046 23.256C53.1523 23.2324 53.2453 23.2972 53.1349 23.2442C52.8094 23.0795 52.6293 23.0266 52.3445 22.8913C52.2515 22.8736 51.9086 22.7266 51.8098 22.6677C51.7168 22.6324 51.9028 22.7324 51.8215 22.6972C51.5599 22.5795 51.3275 22.4619 51.1066 22.3148C51.0485 22.2913 51.002 22.2795 50.909 22.2207C50.8451 22.1854 50.9381 22.2207 50.8451 22.1619C50.7521 22.1148 50.8974 22.2207 50.8742 22.2207C50.7521 22.1501 50.7696 22.1736 50.7056 22.1442C50.5487 22.0266 50.4151 21.9619 50.264 21.8619C50.107 21.756 49.9443 21.6266 49.799 21.5207C49.6828 21.4266 49.6189 21.3913 49.5085 21.2677C49.4213 21.1677 49.369 21.0677 49.3167 20.9442C49.2876 20.8795 49.3167 20.9972 49.2818 20.8972C49.2586 20.8266 49.2469 20.756 49.2469 20.6854C49.2528 20.2677 49.6131 19.9324 49.863 19.7148C49.5026 20.0207 49.2353 20.3207 49.2295 20.6854C49.2295 20.7913 49.2586 20.903 49.3109 20.9972C49.3225 21.0736 49.4329 21.1854 49.4678 21.256C49.4968 21.2736 49.4271 21.1795 49.5026 21.2677C49.5259 21.2972 49.5375 21.3089 49.5782 21.356C49.5085 21.3148 49.5898 21.3972 49.6131 21.4383C49.9618 21.7501 50.2872 21.9442 50.6243 22.1795C50.6882 22.2148 50.5894 22.1383 50.6591 22.1795C50.7928 22.2619 50.8916 22.3324 51.0485 22.4207C51.0892 22.4619 51.188 22.5324 51.1241 22.5207C50.6533 22.2324 49.9908 21.8501 49.5085 21.3972C49.3632 21.256 49.2644 21.0795 49.2063 20.9854C49.3283 21.2501 49.491 21.4324 49.6828 21.6089C49.9385 21.8266 50.2465 22.0089 50.5139 22.1972C50.5778 22.2442 50.6301 22.2854 50.6882 22.3266C50.7405 22.3619 50.8451 22.4089 50.9032 22.4501C50.9672 22.4913 50.9672 22.503 51.0311 22.5383C51.1531 22.6089 51.2519 22.6501 51.3914 22.7207C51.618 22.8442 51.8447 22.9619 52.1062 23.0736C52.1527 23.103 52.1237 23.1089 52.0597 23.0854C51.7517 22.9442 51.6994 22.9266 51.3914 22.7677C51.4263 22.7854 51.4437 22.803 51.4379 22.8089C51.3449 22.7619 51.3158 22.7383 51.2461 22.7089C51.4728 22.8324 51.4379 22.8442 51.3507 22.8207C50.7812 22.5207 50.1303 22.0736 49.7177 21.7383C49.6654 21.7089 49.6305 21.6913 49.555 21.6324C49.3051 21.4207 49.0087 21.0972 49.0145 20.6736C49.0203 20.3501 49.1946 20.0619 49.3864 19.8501C49.183 20.0501 49.0029 20.3324 48.9912 20.6736C48.9912 20.9442 49.1191 21.2148 49.2934 21.403C49.4678 21.603 49.6712 21.756 49.8862 21.9148C49.9095 21.9383 49.8862 21.9324 49.9501 21.9795C50.2465 22.1795 50.5894 22.4207 50.8335 22.5677C50.9265 22.6442 51.0253 22.7207 51.1183 22.803C51.9144 23.2207 52.5014 23.4913 53.2395 23.856C53.2278 23.8677 53.286 23.8972 53.3034 23.9148C53.2453 23.8972 53.1755 23.8795 53.1232 23.8619C53.0012 23.803 52.8733 23.7501 52.7687 23.6913C52.1295 23.4442 51.1589 23.0383 50.3976 22.5207C50.293 22.4736 50.3569 22.5383 50.4092 22.5972C50.7696 22.856 51.1415 23.0324 51.5483 23.256C51.6762 23.3736 51.5076 23.3324 51.1764 23.1677C50.909 23.0324 50.5487 22.8207 50.2349 22.5972C49.9327 22.3913 49.6421 22.1795 49.4852 22.0442C49.3051 21.903 49.1249 21.7501 48.9506 21.5324C48.782 21.3266 48.6251 20.9854 48.6367 20.6677C48.6483 20.1442 48.9447 19.7442 49.2121 19.4913C49.491 19.2266 49.7932 19.0324 50.0896 18.8619C50.6824 18.5148 51.403 18.2854 52.112 18.2266C51.5832 18.2619 51.0776 18.3913 50.6127 18.5913C50.3744 18.6972 50.171 18.803 49.9676 18.9207C49.7584 19.0383 49.555 19.1736 49.3574 19.3324C49.369 19.3324 49.3399 19.3619 49.2818 19.4148C49.1307 19.5501 48.9796 19.7089 48.8518 19.9089C48.7239 20.1089 48.6251 20.3913 48.6251 20.6619C48.6135 21.0854 48.8634 21.4795 49.0668 21.6913C49.2818 21.9207 49.491 22.0736 49.6828 22.2148C49.9269 22.4324 50.4441 22.7501 50.7289 22.9501C50.6359 22.9501 50.3802 22.8207 50.1012 22.6383C50.386 22.8324 50.665 23.0266 50.9207 23.1736C51.1357 23.2972 51.5193 23.4677 51.6239 23.5266C51.6471 23.5383 51.5948 23.5266 51.6471 23.5501C51.5599 23.5089 51.804 23.6207 51.8215 23.6266C51.9435 23.6736 51.9203 23.6619 52.0539 23.7207C52.2283 23.7972 52.2225 23.7972 52.3271 23.856C52.6234 23.9913 52.9024 24.1148 53.1814 24.2501L53.5998 24.4677C53.7509 24.5442 53.902 24.6207 54.0647 24.703C54.1286 24.7324 54.2565 24.7913 54.2681 24.7972C54.3262 24.8266 54.2681 24.8089 54.3495 24.8442C54.3902 24.8619 54.3785 24.8442 54.4366 24.8736C54.5529 24.9266 54.6691 24.9795 54.7621 25.0324L54.8318 25.0677L54.8551 25.0795C54.8551 25.0795 54.8841 25.103 54.8958 25.1148C54.9597 25.1854 54.9713 25.2619 54.9132 25.3972C54.8783 25.4913 54.8202 25.5854 54.7447 25.6913C54.6749 25.7677 54.611 25.8383 54.5529 25.903C54.4831 25.9501 54.5645 25.8736 54.4715 25.9442C53.9485 26.3619 53.0419 26.6148 52.1643 26.803C52.0946 26.8148 52.1469 26.7854 52.0481 26.803C51.9261 26.8207 51.9551 26.8383 51.8447 26.856C51.775 26.8619 51.711 26.8677 51.6704 26.8677C50.6301 27.0324 49.5259 27.1442 48.4159 27.2148C47.9045 27.2501 47.364 27.2677 46.8293 27.3148C46.3005 27.356 45.7833 27.4148 45.2777 27.4736C44.4873 27.5677 43.7318 27.6913 43.0228 27.7972C42.0755 27.9677 41.2619 28.1266 40.3843 28.3324C39.7509 28.4795 39.0535 28.656 38.5305 28.8207C38.4491 28.8501 38.3154 28.8913 38.2283 28.9207C38.0888 28.9619 37.8912 29.0207 37.7459 29.0619C37.3158 29.1913 36.8858 29.3795 36.4674 29.5383C35.9908 29.7148 35.5491 29.9266 35.09 30.1383C34.8518 30.2736 34.5902 30.4148 34.352 30.5501C34.1892 30.6324 34.0033 30.7383 33.8289 30.856C33.3466 31.1854 32.87 31.6383 32.5794 32.2207C32.3819 32.603 32.2772 33.056 32.2831 33.4854C32.2831 33.9148 32.376 34.3266 32.5155 34.6854C32.5853 34.8913 32.6666 35.0854 32.7596 35.2854C32.8584 35.4972 32.9804 35.7148 33.1315 35.9148C33.4396 36.3324 33.7708 36.5854 33.9277 36.7913C34.0498 36.9795 34.1718 37.1677 34.2648 37.403C34.3636 37.6442 34.4566 37.9089 34.4973 38.1795C34.5031 38.2383 34.5089 38.2736 34.5147 38.3324C34.5612 38.7442 34.5263 39.1324 34.381 39.4324C34.2474 39.7383 33.9684 39.9913 33.6836 40.1677C33.486 40.3266 33.271 40.4148 33.0386 40.5207C32.7887 40.6324 32.5504 40.7501 32.2889 40.856C32.2133 40.8854 32.1145 40.9207 32.0332 40.9442C31.7716 41.0501 31.4985 41.156 31.2079 41.2677C30.7662 41.4383 30.2781 41.5736 29.7725 41.7677C29.3715 41.8913 28.7787 42.056 28.3254 42.2148C27.5408 42.4207 26.7621 42.6736 25.9369 42.8972C25.6579 42.9736 25.4022 43.0266 25.1232 43.1383C24.8269 43.2089 24.484 43.3383 24.1295 43.4736C23.7808 43.603 23.4205 43.7324 23.066 43.8854C22.5545 44.0971 21.9501 44.4266 21.5666 44.5795C21.3574 44.5795 21.1017 44.8854 20.7181 45.0913C20.5089 45.1913 20.5205 45.156 20.4159 45.1795C20.2299 45.2736 20.0672 45.3854 19.9045 45.503C19.7011 45.6207 19.5325 45.6795 19.271 45.856L19.3001 45.8913ZM51.7517 22.7677C51.7517 22.7677 51.7517 22.756 51.7285 22.7501C51.7982 22.7619 51.9086 22.8501 51.7517 22.7677ZM51.6936 22.7501C51.467 22.6442 51.1473 22.4854 51.002 22.3736C50.9613 22.3501 51.0253 22.4148 50.9555 22.3795C50.8684 22.3148 50.7638 22.2383 50.6127 22.1324C50.6243 22.0972 50.9149 22.3207 50.9497 22.2972C51.066 22.3736 51.1299 22.4089 51.188 22.4266C51.4321 22.5795 51.5018 22.5913 51.6936 22.6972C51.6355 22.6913 51.7227 22.7266 51.6936 22.7442V22.7501Z" fill="white"/>
</g>
<defs>
<clipPath id="clip0_868_25441">
<rect width="42" height="34" fill="white" transform="translate(14 18)"/>
</clipPath>
</defs>
</svg>
