<svg width="70" height="70" viewBox="0 0 70 70" fill="none" xmlns="http://www.w3.org/2000/svg">
<g clip-path="url(#clip0_868_23482)">
<path fill-rule="evenodd" clip-rule="evenodd" d="M23.9885 50.4951C23.9439 50.4572 23.8738 50.3814 23.791 50.293C23.8165 50.3056 23.9312 50.413 23.9885 50.4951Z" fill="white"/>
<path fill-rule="evenodd" clip-rule="evenodd" d="M22.7145 46.5041C22.6762 46.4346 22.5616 46.2262 22.5934 46.2388C22.6571 46.3588 22.6762 46.4157 22.7145 46.5041Z" fill="white"/>
<path fill-rule="evenodd" clip-rule="evenodd" d="M22.5615 46.1222C22.5615 46.1222 22.4723 45.9391 22.4277 45.8633C22.4405 45.8633 22.5424 46.0717 22.5615 46.1222Z" fill="white"/>
<path fill-rule="evenodd" clip-rule="evenodd" d="M21.9306 45.1021C21.9051 45.0452 21.8414 44.9 21.8223 44.8242C21.8414 44.8432 21.8987 45.02 21.9306 45.1021Z" fill="white"/>
<path fill-rule="evenodd" clip-rule="evenodd" d="M21.937 44.5292C21.8988 44.4345 21.8542 44.2703 21.7969 44.043C21.8287 44.1188 21.8861 44.3524 21.937 44.5292Z" fill="white"/>
<path fill-rule="evenodd" clip-rule="evenodd" d="M20.606 43.3097C20.5614 43.0382 20.4595 42.4887 20.4531 42.293C20.4913 42.6277 20.5678 43.0003 20.606 43.3097Z" fill="white"/>
<path fill-rule="evenodd" clip-rule="evenodd" d="M20.9307 42.5211C20.8351 42.199 20.8351 41.5991 20.7969 41.176C20.816 41.1128 20.8287 41.7949 20.8542 41.9212C20.8542 42.0222 20.8606 42.098 20.8733 42.1801C20.8924 42.2938 20.9243 42.4011 20.9307 42.5274V42.5211Z" fill="white"/>
<path fill-rule="evenodd" clip-rule="evenodd" d="M21.0261 38.4776C21.0261 38.4776 21.007 38.4524 21.0261 38.345C21.0324 38.3134 21.0452 38.3008 21.0516 38.3134L21.0197 38.4839L21.0261 38.4776Z" fill="white"/>
<path fill-rule="evenodd" clip-rule="evenodd" d="M21.248 36.7915C21.3054 36.5263 21.5029 35.939 21.643 35.6295C21.6558 35.5853 21.6494 35.579 21.6876 35.5032C21.7641 35.3138 21.9488 34.897 21.7768 35.3075C21.573 35.8127 21.4201 36.2169 21.248 36.7978V36.7915Z" fill="white"/>
<path fill-rule="evenodd" clip-rule="evenodd" d="M21.5293 36.6655C21.542 36.6023 21.5739 36.5013 21.6121 36.375C21.6121 36.4066 21.5484 36.6213 21.5293 36.6655Z" fill="white"/>
<path fill-rule="evenodd" clip-rule="evenodd" d="M21.0898 36.0859C21.0962 36.0354 21.1854 35.8207 21.23 35.707C21.2045 35.7954 21.1344 35.9975 21.0898 36.0859Z" fill="white"/>
<path fill-rule="evenodd" clip-rule="evenodd" d="M21.5547 36.3396C21.5738 36.2322 21.663 36.0112 21.7012 35.8849C21.7586 35.7775 21.6057 36.188 21.5547 36.3396Z" fill="white"/>
<path fill-rule="evenodd" clip-rule="evenodd" d="M21.6816 36.1684C21.7008 36.0863 21.7899 35.8526 21.8537 35.6758C21.8218 35.7831 21.739 36.0105 21.6816 36.1684Z" fill="white"/>
<path fill-rule="evenodd" clip-rule="evenodd" d="M21.1348 35.6376C21.1348 35.6376 21.1857 35.4481 21.2367 35.3281C21.2367 35.3597 21.1666 35.5239 21.1348 35.6376Z" fill="white"/>
<path fill-rule="evenodd" clip-rule="evenodd" d="M21.3066 35.4913C21.3576 35.3524 21.5424 34.8851 21.6634 34.6641C21.5232 34.9861 21.4404 35.1819 21.3066 35.4913Z" fill="white"/>
<path fill-rule="evenodd" clip-rule="evenodd" d="M21.8867 35.5976C21.9568 35.3829 22.0906 35.0924 22.1798 34.9219C22.097 35.1113 21.9632 35.3766 21.8867 35.5976Z" fill="white"/>
<path fill-rule="evenodd" clip-rule="evenodd" d="M21.918 34.9867C21.9498 34.9046 22.0072 34.772 22.0581 34.6646C22.0836 34.652 21.9817 34.8541 21.918 34.9867Z" fill="white"/>
<path fill-rule="evenodd" clip-rule="evenodd" d="M22.1211 34.6595C22.1529 34.5585 22.1975 34.4764 22.274 34.3438C22.2676 34.3816 22.1593 34.5585 22.1211 34.6595Z" fill="white"/>
<path fill-rule="evenodd" clip-rule="evenodd" d="M22.3438 34.3498C22.3565 34.2993 22.5094 34.0151 22.4966 34.0909C22.4521 34.173 22.4521 34.1604 22.4457 34.1604C22.3947 34.2488 22.4075 34.2488 22.3438 34.3561V34.3498Z" fill="white"/>
<path fill-rule="evenodd" clip-rule="evenodd" d="M22.4965 33.3711C22.1843 33.8826 22.4009 33.5732 22.4965 33.3711V33.3711Z" fill="white"/>
<path fill-rule="evenodd" clip-rule="evenodd" d="M22.625 32.8652C22.7142 32.701 22.8289 32.5557 22.9563 32.3789C22.8607 32.5178 22.6887 32.7704 22.625 32.8652Z" fill="white"/>
<path fill-rule="evenodd" clip-rule="evenodd" d="M22.676 32.7328C22.625 32.777 22.8352 32.4802 22.8034 32.5496C22.7588 32.6128 22.7142 32.6696 22.676 32.7328Z" fill="white"/>
<path fill-rule="evenodd" clip-rule="evenodd" d="M22.7266 32.2379C22.7584 32.1811 22.8412 32.0611 22.9113 31.9727C22.8986 32.0042 22.7648 32.2 22.7266 32.2379Z" fill="white"/>
<path fill-rule="evenodd" clip-rule="evenodd" d="M23.543 31.2498C23.7787 30.9467 23.887 30.8583 23.543 31.2498V31.2498Z" fill="white"/>
<path fill-rule="evenodd" clip-rule="evenodd" d="M20.0191 40.7257C20.0064 40.6499 20.0064 40.5426 20 40.4921C20.0255 40.3531 20.0064 40.0879 20.0255 39.8984C20.0382 40.1321 20 40.3847 20.0191 40.7257Z" fill="white"/>
<path fill-rule="evenodd" clip-rule="evenodd" d="M21.2668 35.8381C21.3051 35.737 21.3051 35.7497 21.3497 35.6297C21.3624 35.6234 21.3433 35.6739 21.3497 35.6802C21.4261 35.4718 21.4771 35.3581 21.5471 35.1813C21.5471 35.2066 21.5344 35.2318 21.5408 35.2318C21.6109 34.9919 21.7701 34.7393 21.9995 34.2656C21.7829 34.7203 21.3305 35.737 21.2031 36.1602C21.2031 36.0907 21.356 35.737 21.356 35.6865C21.3433 35.6739 21.2668 35.9202 21.2732 35.8381H21.2668Z" fill="white"/>
<path fill-rule="evenodd" clip-rule="evenodd" d="M21.8357 35.5615C21.8357 35.5362 21.8548 35.5173 21.8357 35.5615C21.8357 35.5425 21.9057 35.3846 21.9185 35.3594C21.9121 35.4099 21.6828 35.9404 21.8357 35.5615Z" fill="white"/>
<path fill-rule="evenodd" clip-rule="evenodd" d="M23.3509 32.7205L23.3636 32.7331C23.5229 32.5058 23.7969 32.1521 23.9243 32.0195C23.7204 32.2785 23.2808 32.8216 23.1725 33.0363C23.1279 33.0994 23.0897 33.1499 23.0451 33.2131C22.6501 33.8699 22.2233 34.5835 21.9238 35.3223C22.013 34.9687 22.4335 34.274 22.5991 33.9014C22.6374 33.8446 22.5991 33.9014 22.58 33.9393C22.7584 33.6362 23.0961 33.0994 23.3445 32.7205H23.3509Z" fill="white"/>
<path fill-rule="evenodd" clip-rule="evenodd" d="M22.7012 32.6238C22.7585 32.5354 22.7967 32.4722 22.8477 32.3901C22.8732 32.3586 22.7649 32.5543 22.7012 32.6238Z" fill="white"/>
<path fill-rule="evenodd" clip-rule="evenodd" d="M30.7414 19.6663C30.614 19.8368 30.4611 20.0073 30.34 20.2031C30.0534 20.6388 29.7476 21.0051 29.5373 21.4914C29.4481 21.6871 29.3462 21.9018 29.2443 22.1166C29.1551 22.3313 29.0977 22.5523 29.0149 22.7796C28.9002 23.1207 28.862 23.2343 28.7983 23.4617C28.6836 24.1563 28.5116 24.7121 28.5626 25.0215C28.5626 25.5015 28.518 26.1393 28.5626 26.5182C28.5626 26.6129 28.5626 26.7013 28.5626 26.7392C28.6327 27.7433 28.7537 28.3559 28.8047 29.5368C28.8302 29.6379 28.8684 29.7073 28.9066 29.9094C28.9193 29.9978 28.9321 30.1999 28.9448 30.2694C29.0022 30.5094 29.0722 30.301 29.1168 30.7493C29.1296 30.7746 29.136 30.6925 29.1423 30.6672C29.257 30.6799 29.3526 30.503 29.4418 30.6104C29.4927 30.301 29.5564 30.3704 29.601 30.1305C29.6329 29.9852 29.6584 29.6947 29.6902 29.5053C29.7221 29.2905 29.7476 29.0569 29.7858 28.8801C29.8176 28.8801 29.824 28.6022 29.8559 28.5517C29.8813 28.2485 29.9068 27.9138 29.9259 27.617C29.9387 27.5855 29.945 27.5034 29.9578 27.497C29.9896 27.1371 30.0215 26.7455 30.047 26.3793C30.0788 25.9877 30.1489 25.6151 30.1808 25.1604C30.1808 25.0784 30.2126 24.9078 30.2381 24.8131C30.3209 24.491 30.3655 24.0679 30.5057 23.708C30.6458 23.348 30.7669 23.0323 30.8497 22.8807C30.9007 22.7733 30.9007 22.7733 30.9516 22.666C31.009 22.6091 31.2001 22.3123 31.3403 22.0408C31.3912 21.9461 31.474 21.7819 31.5951 21.5861C31.6907 21.4408 31.7862 21.3019 31.8818 21.1756C31.9901 21.0493 32.1048 20.9356 32.2003 20.8156C32.2895 20.702 32.366 20.5694 32.4615 20.4494C32.7227 20.1526 33.2961 19.5905 33.5764 19.4011C33.7867 19.2369 33.8631 19.1863 34.0287 19.0664C34.1753 18.959 34.2708 18.858 34.2326 18.839C34.4174 18.6432 34.806 18.3843 35.2392 18.1191C35.4558 17.9991 35.6788 17.8728 35.889 17.7528C35.9273 17.7339 35.9718 17.7086 36.0037 17.6833C36.0356 17.6833 36.061 17.6644 36.1056 17.6455L36.1693 17.6076C36.1693 17.6076 36.1693 17.6265 36.1693 17.6391L36.1566 17.6707C36.1566 17.6707 36.1375 17.7149 36.1311 17.7339C36.1247 17.7591 36.1311 17.797 36.1311 17.8412C36.1184 18.0496 36.112 18.2328 36.0993 18.4096C36.0802 18.6306 36.0929 18.839 36.0993 19.0411C36.0738 19.3505 36.0929 19.6221 36.1311 19.8747C36.1693 20.1273 36.1948 20.3673 36.2458 20.6199C36.2713 20.7904 36.3095 21.0177 36.3414 21.2135C36.3796 21.3903 36.4433 21.5608 36.4943 21.7503C36.5516 21.9397 36.5771 22.1481 36.6472 22.3313C36.6981 22.4576 36.7427 22.5776 36.7809 22.6786C36.8255 22.8112 36.8638 22.9312 36.9147 23.0701C36.9784 23.228 37.074 23.3733 37.1505 23.5311C37.2842 23.8153 37.4244 24.1185 37.6028 24.39C37.7684 24.6679 37.9277 24.9521 38.1316 25.1731C38.724 26.0888 39.4376 26.7392 40.4314 27.5539C40.699 27.7307 40.8965 27.8633 41.1641 28.0591C41.2278 28.097 41.2342 28.0844 41.3361 28.1412C41.6228 28.3054 41.9286 28.4696 42.2344 28.6275C42.5147 28.779 42.7504 28.9179 42.9989 29.0695C43.018 29.0695 43.0435 29.0821 43.0753 29.1011C43.2537 29.1895 43.4002 29.3537 43.5722 29.4863C43.7379 29.6316 43.9099 29.7642 44.0692 29.9094C44.3495 30.2441 44.6553 30.5283 44.8528 30.7809C44.9866 30.9956 45.1395 31.2167 45.3051 31.444C45.4644 31.6777 45.6045 31.9555 45.7574 32.2208C45.9103 32.4734 45.9995 32.7512 46.1206 33.0038C46.3627 33.4901 46.5665 34.1784 46.7322 34.6773C46.7704 34.81 46.8277 34.9931 46.8723 35.1194C46.9552 35.3846 47.0125 35.6814 47.0762 35.9719C47.3565 37.0897 47.503 38.4222 47.5668 39.4326C47.5859 39.7421 47.6113 40.0136 47.6241 40.361C47.6241 40.9293 47.5731 41.5293 47.5285 42.0976C47.5094 42.2302 47.4903 42.3881 47.4776 42.5081C47.4202 42.8428 47.4011 43.1775 47.2928 43.5185C47.0953 44.3774 46.8341 45.2362 46.4646 45.9814C46.0887 46.9792 45.2032 48.2864 44.3813 49.2148C44.2093 49.4358 44.0182 49.6189 43.8207 49.8336C43.4894 50.1241 43.139 50.4967 42.7313 50.8125C42.3172 51.1156 41.9222 51.4566 41.5017 51.665C39.8453 52.7197 37.9022 53.408 35.9018 53.6227C33.895 53.8248 31.8627 53.5722 30.0151 52.9281C29.7348 52.8081 29.2825 52.6628 29.0404 52.5428C28.9958 52.5049 28.8302 52.4292 28.7091 52.366C28.2377 52.2018 27.7407 51.8355 27.1992 51.5324C27.0527 51.4756 26.766 51.223 26.5685 51.1093C26.4984 51.0398 26.6832 51.1788 26.5558 51.0714C26.3774 50.9767 26.0142 50.7241 25.683 50.402C25.511 50.2441 25.3326 50.0862 25.1669 49.941C25.0204 49.7831 24.8866 49.6442 24.7783 49.5242C24.8038 49.5558 24.8038 49.5684 24.7719 49.5242C24.6827 49.4042 24.6127 49.3726 24.5044 49.2527C24.1221 48.8548 23.8609 48.4569 23.5615 48.1096C23.2939 47.7433 23.0646 47.3707 22.8034 46.9792C22.7524 46.8718 22.6377 46.575 22.574 46.4866C22.6441 46.6445 22.7396 46.834 22.7142 46.834C22.5995 46.575 22.4211 46.2403 22.3255 46.0761C22.1599 45.7667 22.128 45.5836 22.0006 45.2931C21.9751 45.2236 22.0006 45.3688 21.9497 45.2173C21.8605 44.971 21.8031 44.8131 21.7394 44.6426C21.6821 44.4721 21.6439 44.3016 21.5929 44.0869C21.5419 43.9669 21.4018 43.4617 21.3763 43.3038C21.3381 43.1649 21.389 43.4617 21.3635 43.3417C21.2935 42.9438 21.2298 42.5776 21.1852 42.205C21.166 42.1166 21.1278 42.0597 21.1215 41.9082C21.1151 41.8071 21.1406 41.9334 21.1278 41.7819C21.1087 41.6366 21.1151 41.8955 21.096 41.864C21.0769 41.6619 21.0705 41.7061 21.0514 41.605C21.0514 41.3209 21.0132 41.1314 20.994 40.8725C20.9622 40.6072 20.994 40.3104 20.994 40.0578C20.994 39.8368 20.994 39.7421 21.0132 39.4958C21.0259 39.2937 21.0705 39.1295 21.0896 38.9022C21.1023 38.7822 21.0641 38.9779 21.0832 38.8074C21.1852 38.0244 21.3635 37.2602 21.5101 36.6919C21.2871 37.557 21.1215 38.1949 21.0514 38.9716C21.0195 39.0853 21.0195 39.319 20.9877 39.4389C20.994 39.4958 21.0195 39.3126 21.0004 39.4895C21.0004 39.5463 20.9877 39.5716 20.9813 39.66C20.9622 39.5463 20.9558 39.7105 20.9303 39.7736C20.9048 40.1083 20.9112 40.4052 20.9112 40.6893C20.9303 40.9798 20.9431 41.2514 20.9622 41.5356C20.9749 41.6429 20.9749 41.4598 20.9813 41.5798C21.0004 41.8008 20.9877 41.9713 21.045 42.2239C21.045 42.2997 21.0577 42.4765 21.0195 42.3881C20.9431 42.0029 20.9367 41.5419 20.8985 41.0619C20.8539 40.582 20.8603 40.0831 20.8985 39.6221C20.9112 39.3379 20.9686 39.0537 20.9622 38.8832C20.9176 39.3 20.8603 39.6347 20.8348 39.9947C20.8029 40.4683 20.8539 40.9672 20.8794 41.4282C20.8794 41.5419 20.8794 41.6303 20.8794 41.7313C20.8857 41.8197 20.8985 41.9776 20.9176 42.0787C20.9367 42.1923 20.924 42.1987 20.9431 42.2934C20.9749 42.4702 21.0132 42.6597 21.045 42.8491C21.0705 43.0259 21.096 43.2091 21.1215 43.3922C21.166 43.5754 21.2106 43.7522 21.2616 43.9479C21.2744 44.0237 21.2425 43.9922 21.217 43.9037C21.096 43.4427 21.0705 43.367 21.0004 42.887C21.0004 42.9438 21.0068 42.9754 21.0004 42.9691C20.9813 42.8175 20.9749 42.767 20.9494 42.666C21.0068 43.0259 20.9686 42.9944 20.9303 42.8744C20.8603 42.426 20.7774 41.9334 20.7711 41.4535C20.7392 40.9735 20.7137 40.5125 20.7456 40.1399C20.7456 40.0578 20.7201 40.0073 20.7265 39.8684C20.7583 39.0348 20.9048 38.1001 21.1215 37.2287C20.8348 38.2138 20.701 39.2874 20.6946 40.4746C20.6946 40.5188 20.6755 40.4809 20.6755 40.6009C20.7137 41.1061 20.7328 41.6998 20.7711 42.0913C20.7711 42.2618 20.7838 42.4323 20.7902 42.6028C20.8475 42.9123 20.8794 43.2028 20.9303 43.4806C20.9877 43.7395 21.0514 44.0048 21.1151 44.2763C21.2106 44.8068 21.4145 45.2994 21.612 45.8677C21.5993 45.8677 21.6247 45.9562 21.6311 45.994C21.5865 45.9056 21.5483 45.8488 21.5037 45.7478C21.4336 45.5646 21.3572 45.3752 21.3062 45.2047C21.0832 44.7373 20.9622 44.1311 20.7902 43.5059C20.7265 43.1901 20.6819 42.8554 20.6309 42.5334L20.5545 42.0471L20.5226 41.5671C20.4907 41.4156 20.478 41.5356 20.4653 41.6429C20.4653 41.9524 20.5099 42.2429 20.5608 42.5397C20.6118 42.8365 20.6564 43.1333 20.6946 43.4554C20.6946 43.6953 20.5927 43.468 20.5226 42.9628C20.4525 42.546 20.357 41.9839 20.3506 41.4472C20.3187 40.9104 20.306 40.4178 20.3315 40.1462C20.3824 37.6833 21.1215 35.252 22.453 33.0986C21.6885 34.2858 21.1979 35.5046 20.822 36.7108C20.8348 36.7108 20.822 36.755 20.7965 36.8497C20.4461 38.0433 20.2805 39.42 20.2996 40.4999C20.2805 40.9546 20.3442 41.8324 20.3761 42.2934C20.2932 42.186 20.2487 41.8071 20.2168 41.3335C20.2295 41.5735 20.2359 41.8071 20.2487 42.0408C20.2741 42.2681 20.306 42.4828 20.3315 42.6849C20.3824 43.0196 20.478 43.5943 20.529 43.7585C20.5353 43.7964 20.5035 43.7269 20.529 43.8027C20.4971 43.6701 20.5927 44.0427 20.599 44.0679C20.65 44.2448 20.6436 44.2132 20.701 44.4216C20.7711 44.6931 20.7647 44.6868 20.8029 44.8636C20.9749 45.3183 21.1342 45.7667 21.2998 46.2088C21.5101 46.6382 21.7139 47.055 21.9305 47.497C21.9815 47.5855 22.0834 47.756 22.0962 47.7686C22.1408 47.8507 22.0962 47.7875 22.1535 47.8886C22.1854 47.9454 22.179 47.9138 22.2363 48.0023C22.4275 48.3243 22.6441 48.6969 22.8862 48.9937C23.1729 49.3726 23.4723 49.7894 23.8163 50.1431C24.1412 50.5157 24.4661 50.8567 24.7656 51.103C24.893 51.223 24.7146 51.0777 24.8866 51.2356C25.3581 51.7029 25.9314 52.0945 26.4857 52.5176C27.0845 52.8775 27.677 53.2754 28.3332 53.5596C28.4288 53.6101 28.346 53.5911 28.4861 53.6543C28.6645 53.7427 28.6263 53.6985 28.7856 53.7806C28.8556 53.8185 28.9321 53.8564 29.0213 53.9069C30.5312 54.5574 32.2258 54.8984 33.9141 54.9615C35.4877 55.0184 37.0867 54.8668 38.5202 54.431C39.0936 54.2984 39.6223 54.0458 40.1511 53.8627C40.6544 53.6227 41.1577 53.4017 41.6228 53.1491C42.8523 52.4481 43.8143 51.684 44.77 50.7809C45.0885 50.4336 45.4325 50.0673 45.7574 49.7137C46.0441 49.3284 46.3181 48.9685 46.5602 48.6401C46.6239 48.5327 46.7194 48.3685 46.7895 48.2422C46.9106 48.0528 47.0635 47.8191 47.1845 47.6297C47.3629 47.3518 47.4776 47.0424 47.6241 46.7455C47.7642 46.4487 47.9108 46.1519 48.0127 45.8425C48.1401 45.5015 48.2612 45.1668 48.3822 44.8321C48.4714 44.491 48.5606 44.1437 48.6562 43.8027C48.7772 43.4175 48.7836 43.0196 48.8537 42.6281C48.8919 42.3692 48.962 42.0913 48.962 41.8197C48.9747 41.4408 48.9938 41.0556 49.0129 40.6704C49.0129 40.2852 48.9938 39.9126 48.9811 39.5589C48.9365 38.6053 48.8537 37.6328 48.6625 36.6792C48.4905 35.6246 48.1975 34.349 47.8152 33.3764C47.5731 32.5681 47.1718 31.7724 46.6939 30.9325C46.643 30.8441 46.6239 30.7809 46.5602 30.6925C46.3563 30.3831 46.1397 30.0673 45.9167 29.7579C45.6555 29.4737 45.3943 29.1895 45.1395 28.9053C44.5725 28.4001 44.0055 27.9391 43.4512 27.6423C43.2473 27.5413 43.0498 27.4213 42.8906 27.3265C42.7377 27.2381 42.572 27.1434 42.4255 27.055C42.0687 26.8718 41.7693 26.6761 41.4571 26.4551C41.3679 26.3856 41.2596 26.3098 41.1641 26.2403C40.8838 25.9814 40.578 25.7604 40.2849 25.4636C39.8453 25.0089 39.4503 24.4721 39.0553 23.8722C38.9215 23.6259 38.7368 23.3354 38.603 23.007C38.5266 22.8428 38.4501 22.6849 38.38 22.527C38.3163 22.3692 38.259 22.2176 38.1953 22.0534C37.864 21.0304 37.6219 19.9505 37.6283 18.858C37.6219 18.6748 37.6474 18.498 37.6601 18.3275C37.6665 18.2391 37.6729 18.1507 37.6792 18.0622C37.6792 18.037 37.6792 18.0244 37.6856 17.9865C37.6983 17.9423 37.7047 17.8981 37.7175 17.8475C37.7366 17.7654 37.7557 17.6707 37.7812 17.5697C37.8385 17.3676 37.8831 17.1908 37.9277 17.0266C37.9532 16.9318 37.9787 16.8308 38.0041 16.7361L38.1443 16.3887C38.3227 15.9341 38.5138 15.4604 38.7049 14.9805L38.5202 15.0184C38.4437 15.0373 38.4119 15.031 38.3036 15.0689L38.0041 15.1699C37.8066 15.2331 37.6092 15.3025 37.4117 15.372C37.0167 15.4983 36.5898 15.6688 36.1693 15.833C35.8635 15.9783 35.545 16.1298 35.2201 16.2877C34.9716 16.414 34.8251 16.5024 34.6276 16.6098C34.2581 16.8119 33.9268 17.0329 33.6592 17.1718C33.3853 17.2539 33.0222 17.6581 32.5316 18.0622C32.2577 18.2643 32.2768 18.2138 32.1366 18.2833C31.8881 18.4664 31.7034 18.6874 31.4995 18.9022C31.2383 19.1358 31.0408 19.3 30.7478 19.66L30.7414 19.6663ZM21.268 43.3038C21.268 43.3038 21.2744 43.2975 21.268 43.2596C21.2998 43.348 21.3189 43.5501 21.268 43.3038ZM21.2489 43.2154C21.1915 42.8617 21.096 42.3692 21.0705 42.1166C21.0577 42.0471 21.0514 42.1797 21.0323 42.0724C21.0323 41.9208 21.0323 41.7377 21.0195 41.4787C21.0577 41.4598 21.0577 41.9776 21.096 42.0029C21.1215 42.1987 21.1342 42.2997 21.166 42.3818C21.217 42.786 21.2552 42.8744 21.2871 43.1838C21.2552 43.108 21.2807 43.2407 21.2489 43.2217V43.2154Z" fill="white"/>
<path fill-rule="evenodd" clip-rule="evenodd" d="M28.8857 52.2675C28.8857 52.2675 28.8093 52.2107 28.752 52.1602C28.7711 52.1602 28.8475 52.2233 28.8857 52.2675Z" fill="white"/>
<path fill-rule="evenodd" clip-rule="evenodd" d="M28.3708 49.657C28.3454 49.6254 28.2625 49.5117 28.288 49.5117C28.3326 49.5749 28.3454 49.6064 28.3708 49.657Z" fill="white"/>
<path fill-rule="evenodd" clip-rule="evenodd" d="M28.2757 49.4499C28.2757 49.4499 28.2247 49.3489 28.1992 49.3047C28.212 49.3047 28.2693 49.4184 28.2757 49.4499Z" fill="white"/>
<path fill-rule="evenodd" clip-rule="evenodd" d="M27.8039 48.9274C27.8039 48.9274 27.7466 48.8137 27.7402 48.7695C27.753 48.7758 27.7785 48.8832 27.8039 48.9274Z" fill="white"/>
<path fill-rule="evenodd" clip-rule="evenodd" d="M27.8856 48.566C27.8538 48.5155 27.8156 48.4271 27.7773 48.3008C27.8092 48.3387 27.8474 48.4713 27.8856 48.566Z" fill="white"/>
<path fill-rule="evenodd" clip-rule="evenodd" d="M26.6692 48.0242C26.6183 47.8663 26.5354 47.538 26.5482 47.418C26.5609 47.6201 26.6246 47.8411 26.6692 48.0242Z" fill="white"/>
<path fill-rule="evenodd" clip-rule="evenodd" d="M27.0078 47.5098C26.9568 47.3203 26.9122 46.9793 26.8867 46.733C26.8995 46.6951 26.9186 47.093 26.9568 47.1624C26.9568 47.2066 26.9632 47.2572 26.9695 47.314C26.9823 47.3835 27.0078 47.4403 27.0014 47.5161L27.0078 47.5098Z" fill="white"/>
<path fill-rule="evenodd" clip-rule="evenodd" d="M27.001 45.162C27.001 45.162 26.9819 45.1494 26.9946 45.0799C26.9946 45.061 27.0074 45.0546 27.0137 45.061L27.001 45.162Z" fill="white"/>
<path fill-rule="evenodd" clip-rule="evenodd" d="M27.0391 44.1624C27.0582 44.0046 27.1601 43.6572 27.2493 43.4741C27.2557 43.4488 27.2493 43.4425 27.2684 43.3983C27.3066 43.2846 27.4213 43.0447 27.3194 43.2783C27.2174 43.5815 27.1155 43.8151 27.0391 44.1624Z" fill="white"/>
<path fill-rule="evenodd" clip-rule="evenodd" d="M27.2871 44.108C27.2871 44.0701 27.3062 44.0133 27.3317 43.9375C27.3317 43.9564 27.2999 44.0827 27.2871 44.108Z" fill="white"/>
<path fill-rule="evenodd" clip-rule="evenodd" d="M26.7832 43.7024C26.7832 43.6708 26.8342 43.5382 26.8597 43.4688C26.8469 43.5193 26.8151 43.6456 26.7832 43.7024Z" fill="white"/>
<path fill-rule="evenodd" clip-rule="evenodd" d="M27.2676 43.9053C27.2739 43.8422 27.3185 43.7096 27.3377 43.6338C27.3759 43.577 27.2931 43.8106 27.2676 43.9053Z" fill="white"/>
<path fill-rule="evenodd" clip-rule="evenodd" d="M27.3633 43.8178C27.3633 43.7673 27.4142 43.6284 27.4525 43.5273C27.4397 43.5905 27.3888 43.7231 27.3633 43.8178Z" fill="white"/>
<path fill-rule="evenodd" clip-rule="evenodd" d="M26.7656 43.4199C26.7656 43.4199 26.7911 43.3063 26.8166 43.2305C26.823 43.2494 26.7847 43.3505 26.7656 43.4199Z" fill="white"/>
<path fill-rule="evenodd" clip-rule="evenodd" d="M26.9121 43.3505C26.9249 43.262 27.0459 42.9842 27.1096 42.8516C27.0204 43.0789 26.9822 43.1736 26.9121 43.3505Z" fill="white"/>
<path fill-rule="evenodd" clip-rule="evenodd" d="M27.4727 43.4814C27.4981 43.3551 27.5873 43.1846 27.6319 43.0898C27.6001 43.2035 27.5045 43.3551 27.4727 43.4814Z" fill="white"/>
<path fill-rule="evenodd" clip-rule="evenodd" d="M27.4023 43.0903C27.4151 43.0398 27.4469 42.964 27.4788 42.8945C27.5043 42.8945 27.4342 43.0082 27.4023 43.0903Z" fill="white"/>
<path fill-rule="evenodd" clip-rule="evenodd" d="M27.5352 42.9082C27.5479 42.8514 27.5798 42.8008 27.618 42.7188C27.618 42.744 27.5543 42.8514 27.5352 42.9082Z" fill="white"/>
<path fill-rule="evenodd" clip-rule="evenodd" d="M27.6822 42.73C27.6822 42.73 27.7713 42.5279 27.7713 42.5784C27.7459 42.6289 27.7459 42.6163 27.7331 42.6163C27.7013 42.6668 27.714 42.6668 27.6758 42.73H27.6822Z" fill="white"/>
<path fill-rule="evenodd" clip-rule="evenodd" d="M27.6443 42.0859C27.4532 42.3891 27.5934 42.2059 27.6443 42.0859V42.0859Z" fill="white"/>
<path fill-rule="evenodd" clip-rule="evenodd" d="M27.6562 41.7514C27.7072 41.6504 27.7709 41.562 27.8537 41.4609C27.7837 41.562 27.7008 41.6883 27.6562 41.7514Z" fill="white"/>
<path fill-rule="evenodd" clip-rule="evenodd" d="M27.6831 41.6636C27.6512 41.6888 27.7723 41.5057 27.7595 41.5499L27.6831 41.6636Z" fill="white"/>
<path fill-rule="evenodd" clip-rule="evenodd" d="M27.625 41.3165C27.6377 41.2786 27.6887 41.2029 27.7333 41.1523C27.7333 41.1776 27.6441 41.2913 27.625 41.3165Z" fill="white"/>
<path fill-rule="evenodd" clip-rule="evenodd" d="M28.1289 40.7163C28.2691 40.5268 28.3391 40.4763 28.1289 40.7163V40.7163Z" fill="white"/>
<path fill-rule="evenodd" clip-rule="evenodd" d="M26.1151 46.5067C26.1087 46.4625 26.1024 46.393 26.0896 46.3678C26.1024 46.2794 26.0769 46.1215 26.0896 46.0078C26.1024 46.1531 26.0896 46.3046 26.1151 46.513V46.5067Z" fill="white"/>
<path fill-rule="evenodd" clip-rule="evenodd" d="M26.9184 43.5635C26.9375 43.5004 26.9439 43.513 26.9694 43.4436C26.9757 43.4436 26.9694 43.4688 26.9694 43.4751C27.0203 43.3551 27.0331 43.2794 27.0777 43.1783C27.0777 43.191 27.0777 43.2099 27.0777 43.2099C27.1159 43.0646 27.2114 42.9131 27.3389 42.6289C27.2178 42.9068 26.9566 43.513 26.8929 43.7656C26.8865 43.7214 26.9757 43.513 26.9694 43.4814C26.9566 43.4688 26.9184 43.6204 26.912 43.5699L26.9184 43.5635Z" fill="white"/>
<path fill-rule="evenodd" clip-rule="evenodd" d="M27.4218 43.452C27.4154 43.4394 27.46 43.3447 27.4664 43.332C27.4664 43.3636 27.3454 43.673 27.4218 43.452Z" fill="white"/>
<path fill-rule="evenodd" clip-rule="evenodd" d="M28.2626 41.7753L28.2754 41.7879C28.3646 41.6553 28.5238 41.4469 28.6067 41.3711C28.492 41.529 28.2244 41.8321 28.1798 41.9647C28.148 42.0089 28.1352 42.0216 28.1034 42.0658C27.8868 42.451 27.6319 42.8678 27.4727 43.3035C27.5045 43.0888 27.7657 42.6973 27.8422 42.4636C27.8613 42.432 27.8422 42.4636 27.8358 42.4889C27.925 42.3373 28.0205 42.1794 28.269 41.7689L28.2626 41.7753Z" fill="white"/>
<path fill-rule="evenodd" clip-rule="evenodd" d="M27.6816 41.5925C27.6944 41.5546 27.739 41.4851 27.7645 41.4472C27.7772 41.4283 27.7199 41.5546 27.6816 41.5925Z" fill="white"/>
<path fill-rule="evenodd" clip-rule="evenodd" d="M30.7283 37.1734C30.6965 37.306 30.7092 37.4513 30.6965 37.5902C30.671 37.9186 30.6328 38.2154 30.6519 38.4806C30.6646 38.6953 30.6774 39.0111 30.6901 39.2195C30.6965 39.3837 30.7028 39.4721 30.7092 39.5984C30.7283 39.971 30.7156 40.2804 30.7665 40.4383C30.7984 40.7478 30.8175 40.9751 30.843 41.2593C30.843 41.2972 30.843 41.3729 30.843 41.3856C30.8621 41.5056 30.8812 41.6382 30.9003 41.7771L30.9322 41.9603L30.9513 42.055L30.9704 42.2002L31.0214 42.3518L31.0596 42.4465C31.0851 42.516 31.1106 42.5791 31.1361 42.6423C31.187 42.7749 31.238 42.9265 31.289 43.097C31.3272 43.1475 31.3718 43.1791 31.4355 43.2864C31.461 43.337 31.4928 43.4506 31.5183 43.4822C31.6011 43.6085 31.6457 43.4696 31.7477 43.7159C31.7668 43.7285 31.7604 43.678 31.7668 43.6653C31.8814 43.6464 31.9515 43.5264 32.0535 43.5706C32.0662 43.3875 32.1363 43.4127 32.1554 43.2612C32.1681 43.1728 32.1554 42.9959 32.1681 42.8823C32.1681 42.7496 32.1681 42.617 32.1809 42.5034C32.2127 42.5034 32.1809 42.3392 32.2064 42.3013C32.1936 42.2002 32.1809 42.0739 32.1936 42.0613C32.1936 42.0424 32.2064 42.0424 32.2127 42.0045C32.2127 41.9603 32.2255 41.916 32.2255 41.8782C32.2382 41.8592 32.2446 41.8087 32.2573 41.8087C32.3147 41.3919 32.3911 40.9688 32.4102 40.3941C32.4102 40.3373 32.4102 40.2299 32.4102 40.1668C32.4102 39.7436 32.423 39.0869 32.4676 38.8595C32.4676 38.7837 32.4612 38.7837 32.4676 38.708C32.4867 38.6574 32.5313 38.4364 32.5313 38.2343C32.5313 38.1586 32.5058 38.0638 32.5122 37.9438C32.5249 37.7607 32.5504 37.5839 32.5886 37.4323C32.6013 37.3565 32.5886 37.2744 32.6013 37.1987C32.6013 36.9903 32.7797 36.605 32.8434 36.4472C32.9135 36.3272 32.9581 36.2956 32.9963 36.2009C33.0346 36.1188 33.0473 36.043 33.0091 36.0304C33.0792 35.7588 33.5315 35.2031 33.85 34.8936C34.0985 34.6915 34.3087 34.4579 34.5763 34.2811C34.6209 34.2495 34.7165 34.1927 34.7165 34.1927C34.7419 34.1737 34.7802 34.1358 34.8184 34.1042C34.863 34.0727 34.8885 34.0537 34.9331 34.0221C34.9522 34.0663 35.0414 33.959 35.0796 33.959C35.0732 33.9779 35.0414 34.0221 35.0414 34.0411C35.0414 34.0474 35.0414 34.0537 35.0414 34.06C35.0414 34.06 35.0414 34.0727 35.0414 34.079C35.0414 34.0979 35.0159 34.1358 35.0159 34.1484C35.0159 34.1611 35.0223 34.1674 35.0159 34.18C35.0159 34.199 35.0031 34.2116 35.0031 34.2242C35.0031 34.2495 35.0223 34.2242 35.0286 34.3126C35.0477 34.7042 35.0923 35.121 35.2006 35.4746C35.3281 36.1251 35.5701 36.6555 35.9333 37.3502C36.0416 37.5144 36.118 37.6344 36.2391 37.8049C36.2709 37.8428 36.2773 37.8302 36.3219 37.8933C36.4302 38.0638 36.5767 38.2217 36.7296 38.3733C36.8698 38.5311 37.0291 38.6764 37.1883 38.8153C37.2011 38.8153 37.2202 38.828 37.2393 38.8469C37.4432 39.0616 37.7235 39.2384 37.9783 39.4216C38.2395 39.5795 38.5326 39.7184 38.7046 39.8005C38.8129 39.8763 38.9276 39.9457 39.0614 40.0152C39.1888 40.0847 39.3035 40.1983 39.4309 40.2931C39.5583 40.3815 39.6347 40.5141 39.743 40.6151C39.845 40.7099 39.9533 40.8425 40.0361 40.9814C40.1317 41.1203 40.2272 41.253 40.2909 41.3793C40.3228 41.4298 40.3929 41.5371 40.4247 41.594C40.5075 41.7203 40.5521 41.8845 40.6286 42.0297C40.9089 42.5981 41.0873 43.3306 41.1956 43.8927C41.2274 44.0379 41.2657 44.2337 41.3039 44.4105C41.3549 44.7389 41.374 45.0799 41.3995 45.4146C41.4058 45.4841 41.4186 45.5915 41.4249 45.6546C41.4377 45.8567 41.4377 46.0335 41.4249 46.2356C41.4122 46.7345 41.3803 47.2334 41.2466 47.6818C41.1637 48.2754 40.8133 49.0837 40.4502 49.671C40.3865 49.8163 40.3037 49.9363 40.2017 50.0626C39.9214 50.473 39.5201 50.9783 39.106 51.3003C37.4814 52.8033 34.984 53.3969 32.8371 52.8791C32.6778 52.816 32.4102 52.7717 32.2637 52.7212C32.2382 52.696 32.1426 52.6644 32.0726 52.6328C31.7986 52.5823 31.4992 52.3992 31.1806 52.2539C31.0851 52.2413 30.9194 52.1087 30.7984 52.0581C30.7602 52.0139 30.8685 52.0834 30.7984 52.0266C30.5627 51.976 29.9638 51.4898 29.709 51.2561C29.7281 51.2751 29.7281 51.2814 29.7026 51.2561C29.6516 51.193 29.6007 51.1867 29.5306 51.1235C29.091 50.6814 28.7597 50.3657 28.4539 49.9236C28.4221 49.8605 28.352 49.6963 28.301 49.6521C28.352 49.7342 28.4157 49.8415 28.3902 49.8478C28.3138 49.7026 28.1864 49.5321 28.1227 49.4437C28.0335 49.2605 28.0016 49.1658 27.906 49.0079C27.8869 48.97 27.906 49.0585 27.8614 48.97C27.7595 48.7048 27.7022 48.5785 27.6194 48.3385C27.562 48.2817 27.4919 47.9912 27.4792 47.8965C27.4473 47.8207 27.4792 47.9912 27.4601 47.9217C27.39 47.7007 27.3327 47.4923 27.3199 47.2776C27.3008 47.2271 27.2817 47.1955 27.269 47.1071C27.2562 47.0502 27.2944 47.1197 27.269 47.0376C27.2435 46.9555 27.2562 47.1008 27.2371 47.0881C27.2116 46.9745 27.2053 46.9997 27.1798 46.9429C27.1607 46.7724 27.1415 46.6524 27.1288 46.5261C27.1161 46.3366 27.1097 46.2293 27.1033 46.0588C27.1033 45.9325 27.0842 45.8756 27.0906 45.7304C27.0969 45.6167 27.1224 45.5157 27.1288 45.3894C27.1288 45.3199 27.1033 45.4336 27.1161 45.3388C27.1543 44.8842 27.2435 44.4358 27.3072 44.1074C27.2053 44.6126 27.1033 44.9789 27.0969 45.4336C27.0715 45.503 27.0969 45.6357 27.0651 45.7051C27.0778 45.7367 27.0906 45.6357 27.0842 45.7304C27.0842 45.762 27.0778 45.7746 27.0778 45.8314C27.0524 45.7683 27.0524 45.863 27.0332 45.9009C27.0332 46.2861 27.0651 46.5892 27.0906 46.9239C27.1033 46.9871 27.0969 46.8797 27.1161 46.9492C27.1415 47.0818 27.1479 47.145 27.1798 47.3155C27.167 47.3597 27.1798 47.467 27.1415 47.4165C27.0587 46.9745 26.9759 46.3619 26.9886 45.8188C26.9886 45.6546 27.0269 45.4841 27.0014 45.3894C26.9886 45.6293 26.9504 45.8251 26.944 46.0398C26.944 46.3114 26.995 46.6082 27.0014 46.8734C27.0014 46.9303 27.0141 46.9997 27.0205 47.0502C27.0269 47.0881 27.0524 47.2081 27.0651 47.2523C27.0715 47.3155 27.0651 47.3218 27.0715 47.3786C27.0969 47.4923 27.1097 47.5744 27.1479 47.7007C27.1989 47.9091 27.2371 48.1112 27.3008 48.3385C27.3072 48.3827 27.2817 48.3701 27.2626 48.3196C27.1925 48.048 27.1798 48.0038 27.1097 47.7323C27.1097 47.7639 27.1161 47.7828 27.1097 47.7828C27.0906 47.6944 27.0842 47.6691 27.0651 47.6123C27.1161 47.8144 27.0778 47.8081 27.046 47.7386C26.9886 47.4797 26.9568 47.1892 26.9058 46.9113C26.8867 46.6271 26.874 46.3619 26.8676 46.1409C26.8549 46.0903 26.8485 46.0651 26.8421 45.983C26.8421 45.4904 26.9122 44.9473 27.0205 44.4295C26.8676 45.0105 26.7975 45.642 26.8421 46.3366C26.8421 46.3619 26.823 46.3366 26.8294 46.4124C26.8421 46.5829 26.8549 46.7282 26.8612 46.8734C26.8867 47.025 26.9058 47.1639 26.9249 47.2839C26.9249 47.3849 26.9186 47.486 26.9122 47.5933C27.0906 48.307 27.167 48.8501 27.4919 49.4942C27.4792 49.4942 27.4983 49.551 27.4983 49.57C27.4601 49.5258 27.4346 49.4942 27.3964 49.4374C27.3454 49.33 27.2817 49.229 27.2498 49.1279C26.9823 48.5785 26.7593 47.7449 26.6574 46.9934C26.6191 46.905 26.6128 46.9808 26.6064 47.0439C26.651 47.4102 26.7211 47.7323 26.8039 48.1175C26.7848 48.2691 26.7147 48.1364 26.6319 47.8396C26.5682 47.5933 26.5299 47.2523 26.479 46.9366C26.4662 46.6208 26.4535 46.3303 26.4471 46.1535C26.4025 44.6758 26.8166 43.2043 27.6002 41.8971C27.1479 42.617 26.8676 43.3559 26.6637 44.0821C26.6765 44.0821 26.6701 44.1074 26.6574 44.1642C26.4726 44.8842 26.3834 45.7114 26.4471 46.3619C26.4344 46.5008 26.4471 46.6966 26.4599 46.8987C26.4853 47.0944 26.5236 47.2965 26.5236 47.4355C26.4662 47.3786 26.3962 47.1513 26.3516 46.8671C26.3834 47.1387 26.4216 47.4481 26.4535 47.6818C26.4853 47.8838 26.6 48.2185 26.6128 48.3196C26.6128 48.3448 26.5937 48.3006 26.6064 48.3448C26.5873 48.2627 26.6446 48.4901 26.651 48.5027C26.6892 48.6101 26.6892 48.5848 26.7338 48.7111C26.7911 48.869 26.7911 48.869 26.8166 48.97C27.0078 49.5258 27.2881 50.0184 27.5939 50.5173C27.6257 50.5741 27.6894 50.6688 27.6958 50.6814C27.7277 50.7256 27.6958 50.6941 27.734 50.7509C27.7595 50.7825 27.7531 50.7635 27.7914 50.8141C27.9252 50.9972 28.0717 51.2119 28.2246 51.3824C28.6005 51.8118 29.0846 52.2918 29.4605 52.5634C29.5433 52.6265 29.4223 52.5633 29.537 52.6454C30.1677 53.1443 30.9258 53.5738 31.7477 53.8579C31.8114 53.8832 31.7477 53.8832 31.8432 53.9148C31.9579 53.959 31.9324 53.9274 32.0343 53.9653C32.098 53.9906 32.1554 54.0095 32.1872 54.0348C33.1429 54.3379 34.1877 54.4263 35.207 54.3316C36.1626 54.2495 37.1055 54.0032 37.9337 53.6306C38.5899 53.3338 39.1633 52.9612 39.673 52.576C40.3292 52.0266 40.8579 51.5024 41.3103 50.8456C41.6479 50.3783 41.9601 49.8226 42.1448 49.3805C42.1831 49.3047 42.2022 49.21 42.2404 49.1153C42.285 49.0016 42.3614 48.8185 42.406 48.7111C42.5335 48.3385 42.6163 47.9407 42.6864 47.5555C42.7182 47.3407 42.7501 47.126 42.7819 46.9113L42.8201 46.2735C42.8393 46.0335 42.8074 45.7935 42.801 45.5662C42.7883 45.4146 42.801 45.2504 42.7819 45.0926C42.7437 44.6442 42.6609 44.1958 42.5908 43.7727C42.4889 43.2107 42.3806 42.6297 42.1576 42.0802C41.9601 41.4614 41.6224 40.7225 41.2211 40.1983C40.9599 39.7373 40.5266 39.3458 40.0361 38.9606C39.9851 38.9164 39.9533 38.8848 39.8959 38.8532C39.6984 38.7269 39.4755 38.5943 39.278 38.4806L38.7938 38.2217C38.6473 38.1207 38.5007 38.0196 38.3669 37.9312C38.2395 37.8238 38.1248 37.7165 38.0229 37.6218C37.8509 37.4891 37.7553 37.3313 37.6279 37.1797C37.5132 36.9966 37.3603 36.864 37.2648 36.6808C37.2393 36.6366 37.2011 36.5545 37.1756 36.504C37.0737 36.3208 36.9781 36.1377 36.8825 35.9293C36.7551 35.6072 36.6787 35.2473 36.5958 34.8621C36.5704 34.7105 36.5704 34.521 36.5576 34.3316C36.5576 34.2747 36.5449 34.0537 36.5576 33.8516C36.5576 33.6559 36.6723 33.3969 36.7105 33.1949C36.7487 33.0749 36.7742 32.9738 36.8252 32.8412C36.8889 32.6833 36.9462 32.5381 37.0036 32.3928C37.1246 32.0834 37.2393 31.7929 37.3603 31.4961L37.0991 31.5529C37.0036 31.5782 37.01 31.5656 36.959 31.5719C36.9144 31.5782 36.9017 31.5719 36.8316 31.5908L36.564 31.6855C36.2136 31.8118 35.8823 31.9192 35.5256 32.0581C35.1879 32.1781 34.8439 32.336 34.4871 32.5444C34.3087 32.6391 34.1176 32.7528 33.9201 32.8728C33.7417 32.9865 33.6525 33.0686 33.506 33.1696C33.2512 33.3654 32.9708 33.5675 32.7288 33.8137C32.3593 34.1421 32.0025 34.6473 31.7604 34.9378C31.5629 35.0199 31.5438 35.3988 31.3463 35.7462C31.238 35.9356 31.2316 35.8977 31.1615 35.9735C31.0787 36.1503 31.0277 36.3272 30.9768 36.5103C30.9194 36.7187 30.843 36.8703 30.7793 37.1608L30.7283 37.1734ZM27.3263 47.9344C27.3263 47.9344 27.3327 47.928 27.3263 47.9091C27.3582 47.9533 27.3582 48.0733 27.3263 47.9344ZM27.3072 47.8902C27.2435 47.6944 27.1734 47.4165 27.1734 47.265C27.1734 47.2271 27.1543 47.3028 27.1352 47.2397C27.1352 47.1513 27.1288 47.0502 27.1033 46.8987C27.1415 46.8861 27.1607 47.1829 27.1989 47.1892C27.2116 47.3029 27.218 47.3597 27.2435 47.4102C27.2626 47.6439 27.3136 47.6881 27.339 47.8649C27.3072 47.827 27.3327 47.9028 27.3008 47.8902H27.3072Z" fill="white"/>
</g>
<defs>
<clipPath id="clip0_868_23482">
<rect width="29" height="40" fill="white" transform="translate(20 15)"/>
</clipPath>
</defs>
</svg>
