<svg width="36" height="36" viewBox="0 0 36 36" fill="none" xmlns="http://www.w3.org/2000/svg">
<path d="M4.55 24.77C4.87 24.13 5.27 23.54 5.76 23.02C6.25 22.49 6.8 22.01 7.41 21.56C8.02 21.11 8.64 20.68 9.27 20.26C9.89 19.84 10.5 19.42 11.1 19C11.7 18.57 12.24 18.12 12.71 17.64C13.18 17.16 13.56 16.63 13.85 16.05C14.13 15.47 14.28 14.82 14.28 14.09C14.28 13.51 14.16 12.98 13.93 12.5C13.7 12.02 13.38 11.62 12.99 11.27C12.6 10.93 12.15 10.67 11.64 10.48C11.13 10.3 10.59 10.21 10.03 10.21C9.25 10.21 8.56 10.35 7.98 10.62C7.4 10.89 6.91 11.27 6.53 11.75C6.15 12.23 5.86 12.78 5.67 13.43C5.48 14.07 5.38 14.77 5.38 15.52H4.43C4.53 13.42 5.03 11.87 5.94 10.88C6.85 9.88996 8.16 9.38995 9.88 9.38995C10.61 9.38995 11.3 9.48995 11.96 9.67995C12.61 9.86995 13.18 10.16 13.66 10.56C14.14 10.95 14.53 11.45 14.81 12.04C15.09 12.63 15.24 13.33 15.24 14.13C15.24 15.15 15 16.04 14.53 16.82C14.06 17.6 13.46 18.3 12.73 18.93C12 19.56 11.22 20.16 10.38 20.71C9.54 21.26 8.75 21.81 8 22.35C7.26 22.89 6.62 23.46 6.1 24.05C5.57 24.64 5.28 25.3 5.21 26.01H15.51V26.96H4C4.05 26.16 4.23 25.44 4.55 24.8V24.77Z" fill="black"/>
<path d="M18.3301 9.06995H24.1801C25.7801 9.06995 27.1101 9.31995 28.1701 9.81995C29.2301 10.3199 30.0801 10.9899 30.7101 11.8199C31.3401 12.6499 31.7901 13.6099 32.0501 14.6699C32.3101 15.7299 32.4401 16.8399 32.4401 17.9699C32.4401 19.2399 32.2801 20.4199 31.9501 21.5099C31.6201 22.5999 31.1201 23.5499 30.4401 24.3499C29.7601 25.1499 28.8901 25.7799 27.8501 26.2399C26.8101 26.6999 25.5701 26.9299 24.1401 26.9299H18.3401V9.06995H18.3301ZM24.2301 25.9799C25.0601 25.9799 25.9001 25.8499 26.7401 25.5899C27.5801 25.3299 28.3401 24.8999 29.0301 24.2899C29.7201 23.6799 30.2701 22.8599 30.7001 21.8399C31.1201 20.8199 31.3401 19.5299 31.3401 17.9799C31.3401 16.7599 31.2201 15.7199 30.9801 14.8499C30.7401 13.9799 30.4201 13.2499 30.0301 12.6599C29.6401 12.0699 29.1901 11.5999 28.6801 11.2599C28.1701 10.9199 27.6501 10.6599 27.1001 10.4699C26.5601 10.2899 26.0201 10.1699 25.4701 10.1099C24.9301 10.0499 24.4401 10.0199 24.0101 10.0199H19.4301V25.9799H24.2301V25.9799Z" fill="black"/>
</svg>
