<svg width="36" height="36" viewBox="0 0 36 36" fill="none" xmlns="http://www.w3.org/2000/svg">
<path d="M4.2498 21.03C4.2198 21.83 4.3098 22.55 4.5398 23.19C4.7598 23.83 5.0898 24.37 5.5298 24.82C5.9698 25.27 6.4998 25.6 7.1298 25.85C7.7698 26.09 8.4798 26.21 9.2798 26.21C9.9098 26.21 10.5298 26.12 11.1298 25.94C11.7298 25.76 12.2598 25.49 12.7198 25.13C13.1798 24.77 13.5398 24.33 13.8198 23.79C14.0998 23.26 14.2298 22.65 14.2298 21.96C14.2298 21.14 14.0598 20.46 13.7298 19.92C13.3998 19.38 12.9598 18.96 12.3998 18.66C11.8498 18.36 11.2298 18.16 10.5398 18.06C9.8498 17.96 9.1398 17.94 8.4298 17.98V17.16C9.0698 17.19 9.6998 17.16 10.3398 17.07C10.9798 16.98 11.5598 16.8 12.0798 16.52C12.5998 16.25 13.0198 15.87 13.3398 15.38C13.6698 14.9 13.8298 14.28 13.8298 13.53C13.8298 12.93 13.6898 12.4 13.4198 11.95C13.1498 11.5 12.7798 11.13 12.3398 10.85C11.8998 10.57 11.4098 10.35 10.8598 10.21C10.3198 10.07 9.7898 9.99999 9.2698 9.99999C8.5198 9.99999 7.8598 10.13 7.2898 10.38C6.7198 10.63 6.2498 10.97 5.8798 11.4C5.5098 11.84 5.2198 12.35 5.0198 12.95C4.8198 13.55 4.6998 14.21 4.6698 14.93H3.7198C3.7198 14.08 3.8498 13.3 4.1098 12.59C4.3698 11.88 4.7398 11.28 5.2198 10.78C5.6998 10.28 6.2898 9.88999 6.9698 9.60999C7.6498 9.32999 8.4198 9.17999 9.2698 9.17999C9.9698 9.17999 10.6498 9.25999 11.3098 9.42999C11.9698 9.59999 12.5498 9.86 13.0598 10.21C13.5698 10.56 13.9798 11.01 14.2998 11.56C14.6198 12.11 14.7798 12.77 14.7798 13.54C14.7798 14.06 14.6998 14.54 14.5398 14.99C14.3798 15.44 14.1498 15.84 13.8498 16.19C13.5498 16.54 13.1898 16.83 12.7798 17.05C12.3598 17.28 11.8998 17.42 11.3998 17.49V17.54C11.9798 17.61 12.5098 17.77 12.9798 18.01C13.4498 18.26 13.8398 18.58 14.1698 18.97C14.4898 19.36 14.7398 19.81 14.9198 20.32C15.0998 20.83 15.1798 21.37 15.1798 21.96C15.1798 22.81 15.0198 23.55 14.7098 24.19C14.3898 24.82 13.9698 25.35 13.4298 25.78C12.8898 26.21 12.2698 26.52 11.5498 26.73C10.8298 26.94 10.0698 27.04 9.2698 27.04C8.3198 27.04 7.4598 26.91 6.7098 26.64C5.9498 26.37 5.3098 25.98 4.7798 25.48C4.2498 24.97 3.8598 24.35 3.5998 23.61C3.3398 22.87 3.2398 22.01 3.2898 21.05H4.2398L4.2498 21.03Z" fill="black"/>
<path d="M17.8799 8.88H23.7299C25.3299 8.88 26.6599 9.13 27.7199 9.63C28.7799 10.13 29.6299 10.8 30.2599 11.63C30.8899 12.46 31.3399 13.42 31.5999 14.48C31.8599 15.54 31.9899 16.65 31.9899 17.78C31.9899 19.05 31.8299 20.23 31.4999 21.32C31.1699 22.41 30.6699 23.36 29.9899 24.16C29.3099 24.96 28.4399 25.59 27.3999 26.05C26.3599 26.51 25.1199 26.74 23.6899 26.74H17.8899V8.88H17.8799ZM23.7799 25.79C24.6099 25.79 25.4499 25.66 26.2899 25.4C27.1299 25.14 27.8899 24.71 28.5799 24.1C29.2699 23.49 29.8199 22.67 30.2499 21.65C30.6699 20.63 30.8899 19.34 30.8899 17.79C30.8899 16.57 30.7699 15.53 30.5299 14.66C30.2899 13.79 29.9699 13.06 29.5799 12.47C29.1899 11.88 28.7399 11.41 28.2299 11.07C27.7199 10.73 27.1999 10.47 26.6499 10.28C26.1099 10.1 25.5699 9.98001 25.0199 9.92001C24.4799 9.86001 23.9899 9.83001 23.5599 9.83001H18.9799V25.79H23.7799V25.79Z" fill="black"/>
</svg>
