<svg width="24" height="24" viewBox="0 0 24 24" fill="none" xmlns="http://www.w3.org/2000/svg">
<path fill-rule="evenodd" clip-rule="evenodd" d="M12.202 12.0654C12.0734 12.0068 11.9266 12.0068 11.798 12.0654L5.29094 15.0314C4.89685 15.211 4.89672 15.7849 5.29072 15.9647L11.7978 18.9345C11.9265 18.9933 12.0735 18.9933 12.2022 18.9345L18.7093 15.9647C19.1033 15.7849 19.1031 15.211 18.7091 15.0314L12.202 12.0654ZM11.394 11.1319C11.7798 10.956 12.2202 10.956 12.606 11.1319L19.1131 14.0979C20.2953 14.6368 20.2957 16.3585 19.1137 16.898L12.6067 19.8678C12.2205 20.0441 11.7795 20.0441 11.3933 19.8678L4.88628 16.898C3.70426 16.3585 3.70467 14.6368 4.88693 14.0979L11.394 11.1319Z" fill="white"/>
<path fill-rule="evenodd" clip-rule="evenodd" d="M12.1885 7.9973C12.0685 7.94243 11.9315 7.94243 11.8115 7.9973L6.2045 10.5614C5.8368 10.7296 5.83668 11.2668 6.2043 11.4352L11.8113 14.0026C11.9314 14.0576 12.0686 14.0576 12.1887 14.0026L17.7957 11.4352C18.1633 11.2668 18.1632 10.7296 17.7955 10.5614L12.1885 7.9973ZM11.4346 7.12347C11.7946 6.95884 12.2054 6.95884 12.5654 7.12347L18.1725 9.68761C19.2756 10.1921 19.2759 11.8038 18.1731 12.3088L12.566 14.8762C12.2057 15.0413 11.7943 15.0413 11.434 14.8762L5.82694 12.3088C4.72407 11.8038 4.72444 10.1921 5.82754 9.68761L11.4346 7.12347Z" fill="white"/>
<path fill-rule="evenodd" clip-rule="evenodd" d="M12.173 4.78994C12.0629 4.74647 11.9371 4.74647 11.827 4.78994L7.10578 6.65274C6.76822 6.78592 6.7681 7.21147 7.10559 7.3448L11.8268 9.20999C11.9371 9.25355 12.0629 9.25355 12.1732 9.20999L16.8944 7.3448C17.2319 7.21147 17.2318 6.78592 16.8942 6.65273L12.173 4.78994ZM11.4809 4.0978C11.8114 3.9674 12.1886 3.9674 12.5191 4.0978L17.2403 5.9606C18.253 6.36016 18.2533 7.6368 17.2408 8.03679L12.5197 9.90198C12.1888 10.0327 11.8112 10.0327 11.4803 9.90198L6.75916 8.03679C5.74668 7.6368 5.74702 6.36016 6.75971 5.9606L11.4809 4.0978Z" fill="white"/>
</svg>
