<svg width="90" height="90" viewBox="0 0 90 90" fill="none" xmlns="http://www.w3.org/2000/svg">
<g clip-path="url(#clip0_868_110)">
<path d="M13 80.97V17.8526C13 17.8526 42.4231 -8.81577 76 17.8526V81.4824C76 82.9584 74.1109 83.6268 73.1493 82.4906L62.0367 63.4417L62.0993 54.0733C62.0993 54.0733 61.9342 48.9713 59.1575 47.9854C55.8687 46.8213 53.6723 48.1692 53.6723 48.1692C53.6723 48.1692 49.7121 50.659 49.5527 53.9173C49.3934 57.1757 49.3934 63.3749 49.3934 63.3749L19.8736 82.7301C15.1053 84.7854 13 84.4233 13 80.9644L13 80.97Z" fill="#686059"/>
</g>
<defs>
<clipPath id="clip0_868_110">
<rect width="63" height="78" fill="white" transform="translate(13 6)"/>
</clipPath>
</defs>
</svg>
