<svg width="94" height="94" viewBox="0 0 94 94" fill="none" xmlns="http://www.w3.org/2000/svg">
<path d="M35.3224 45.4V41.64H44.2991C46.1526 41.64 47.8209 41.32 49.3037 40.68C50.7866 40.04 51.9517 39.1067 52.7991 37.88C53.6464 36.6533 54.0701 35.16 54.0701 33.4C54.0701 30.7333 53.1433 28.68 51.2897 27.24C49.4361 25.7467 47.1059 25 44.2991 25H36.7523V69H45.0935C47.4766 69 49.5685 68.5733 51.3692 67.72C53.2227 66.8667 54.6526 65.64 55.6589 64.04C56.7181 62.44 57.2477 60.4933 57.2477 58.2C57.2477 56.4933 56.9564 54.9733 56.3738 53.64C55.7913 52.3067 54.9439 51.1867 53.8318 50.28C52.7726 49.3733 51.5016 48.7067 50.0187 48.28C48.5358 47.8 46.8941 47.56 45.0935 47.56H35.3224V43.8H45.0935C47.7944 43.8 50.2835 44.0933 52.5608 44.68C54.838 45.2667 56.824 46.1733 58.5187 47.4C60.2664 48.5733 61.6168 50.0933 62.5701 51.96C63.5234 53.8267 64 56.04 64 58.6C64 62.28 63.1527 65.3467 61.4579 67.8C59.8162 70.2 57.5654 72.0133 54.7056 73.24C51.8988 74.4133 48.6947 75 45.0935 75H30V19H44.2991C47.6355 19 50.5218 19.5067 52.9579 20.52C55.447 21.5333 57.3801 23.08 58.757 25.16C60.134 27.1867 60.8224 29.8 60.8224 33C60.8224 35.6133 60.134 37.8533 58.757 39.72C57.3801 41.5867 55.447 43 52.9579 43.96C50.5218 44.92 47.6355 45.4 44.2991 45.4H35.3224Z" fill="black"/>
</svg>
