<svg width="36" height="36" viewBox="0 0 36 36" fill="none" xmlns="http://www.w3.org/2000/svg">
<path d="M14.3184 30.868H4.50432C4.2219 30.868 4 30.6532 4 30.38V22.0746C4 21.8014 4.2219 21.5867 4.50432 21.5867H14.3184C14.6009 21.5867 14.8228 21.8014 14.8228 22.0746V30.38C14.8228 30.6532 14.6009 30.868 14.3184 30.868ZM5.00865 29.892H13.8141V22.5626H5.00865V29.892Z" fill="black"/>
<path d="M10.4856 22.5625C10.2032 22.5625 9.98126 22.3478 9.98126 22.0746V18.3562C10.0014 18.161 10.0115 17.7316 9.82996 17.5266C9.77953 17.4681 9.66858 17.39 9.41642 17.39C9.16426 17.39 9.06339 17.4681 9.00287 17.5266C8.82131 17.7316 8.8314 18.1513 8.85157 18.2879C8.89192 18.5514 8.70028 18.8051 8.42794 18.8442C8.15561 18.8832 7.89336 18.6978 7.85302 18.4343C7.83284 18.3367 7.7219 17.4779 8.23631 16.8923C8.42795 16.6776 8.79106 16.4141 9.41642 16.4141C10.0418 16.4141 10.4049 16.6776 10.5965 16.8923C11.1109 17.4681 11.0101 18.3269 10.9899 18.4245V22.0746C10.9899 22.3478 10.768 22.5625 10.4856 22.5625Z" fill="black"/>
<path d="M23.7693 14.0718H14.5301C14.3486 14.0718 14.1872 13.984 14.0964 13.8376C14.0056 13.6912 14.0056 13.5058 14.0964 13.3594L15.9321 10.0899V4.48797C15.9321 4.21471 16.154 4 16.4365 4H21.7218C22.0042 4 22.2261 4.21471 22.2261 4.48797V10.0802L24.2232 13.3398C24.314 13.4862 24.314 13.6814 24.2232 13.8278C24.1324 13.984 23.971 14.0718 23.7895 14.0718H23.7693ZM15.3774 13.0959H22.8918L21.278 10.451C21.2275 10.373 21.2074 10.2851 21.2074 10.207V4.97595H16.9307V10.207C16.9307 10.2851 16.9105 10.373 16.8702 10.4413L15.3774 13.0959Z" fill="black"/>
<path d="M31.496 30.8582H14.3188C14.0364 30.8582 13.8145 30.6435 13.8145 30.3702V22.0649C13.8145 21.7916 14.0364 21.5769 14.3188 21.5769H18.9686C19.2511 21.5769 19.473 21.7916 19.473 22.0649C19.473 22.3381 19.2511 22.5529 18.9686 22.5529H14.8231V29.8822H30.9917V22.5529H29.4787C29.1963 22.5529 28.9744 22.3381 28.9744 22.0649C28.9744 21.7916 29.1963 21.5769 29.4787 21.5769H31.496C31.7784 21.5769 32.0003 21.7916 32.0003 22.0649V30.3702C32.0003 30.6435 31.7784 30.8582 31.496 30.8582Z" fill="black"/>
<path d="M26.1896 22.5626H22.1752C21.8928 22.5626 21.6709 22.3479 21.6709 22.0746C21.6709 21.8014 21.8928 21.5867 22.1752 21.5867H26.1896C26.472 21.5867 26.6939 21.8014 26.6939 22.0746C26.6939 22.3479 26.472 22.5626 26.1896 22.5626Z" fill="black"/>
<path d="M22.1457 26.5835H18.9887C18.2927 26.5835 17.7178 26.037 17.7178 25.3538C17.7178 24.6218 18.2826 24.0753 18.9887 24.0753H22.1457C22.8417 24.0753 23.4166 24.6218 23.4166 25.305C23.4166 26.037 22.8518 26.5835 22.1457 26.5835ZM18.9887 25.0513C18.8475 25.0513 18.7264 25.1684 18.7264 25.305C18.7264 25.5002 18.8374 25.6076 18.9887 25.6076H22.1457C22.2869 25.6076 22.408 25.4904 22.408 25.3538C22.408 25.1586 22.297 25.0513 22.1457 25.0513H18.9887Z" fill="black"/>
<path d="M20.5727 31.0436C20.2903 31.0436 20.0684 30.8289 20.0684 30.5556V26.0955C20.0684 25.8223 20.2903 25.6075 20.5727 25.6075C20.8551 25.6075 21.077 25.8223 21.077 26.0955V30.5556C21.077 30.8289 20.8551 31.0436 20.5727 31.0436Z" fill="black"/>
<path d="M21.5511 32C21.4199 32 21.2888 31.9512 21.198 31.8536L20.2197 30.8972C20.0179 30.702 20.0179 30.3994 20.2197 30.2043C20.4214 30.0091 20.7341 30.0091 20.9358 30.2043L21.9142 31.1607C22.1159 31.3559 22.1159 31.6584 21.9142 31.8536C21.8133 31.9512 21.6822 32 21.5612 32H21.5511Z" fill="black"/>
<path d="M19.4019 32C19.2607 32 19.1195 31.9414 19.0186 31.8243C18.8371 31.6193 18.8673 31.307 19.0791 31.1411L20.2492 30.1847C20.461 30.009 20.7838 30.0383 20.9653 30.2432C21.1469 30.4482 21.1166 30.7605 20.9048 30.9264L19.7348 31.8828C19.644 31.9609 19.5229 32 19.412 32H19.4019Z" fill="black"/>
<path d="M29.4485 26.5835H26.2914C25.5954 26.5835 25.0205 26.037 25.0205 25.3538C25.0205 24.6218 25.5853 24.0753 26.2914 24.0753H29.4485C30.1444 24.0753 30.7193 24.6218 30.7193 25.305C30.7193 26.037 30.1545 26.5835 29.4485 26.5835ZM26.2914 25.0513C26.1502 25.0513 26.0292 25.1684 26.0292 25.305C26.0292 25.5002 26.1401 25.6076 26.2914 25.6076H29.4485C29.5897 25.6076 29.7107 25.4904 29.7107 25.3538C29.7107 25.1586 29.5998 25.0513 29.4485 25.0513H26.2914Z" fill="black"/>
<path d="M27.8647 31.0436C27.5823 31.0436 27.3604 30.8289 27.3604 30.5556V26.0955C27.3604 25.8223 27.5823 25.6075 27.8647 25.6075C28.1471 25.6075 28.369 25.8223 28.369 26.0955V30.5556C28.369 30.8289 28.1471 31.0436 27.8647 31.0436Z" fill="black"/>
<path d="M28.8538 32C28.7227 32 28.5916 31.9512 28.5008 31.8536L27.5224 30.8972C27.3207 30.702 27.3207 30.3994 27.5224 30.2043C27.7241 30.0091 28.0368 30.0091 28.2385 30.2043L29.2169 31.1607C29.4186 31.3559 29.4186 31.6584 29.2169 31.8536C29.1161 31.9512 28.9849 32 28.8639 32H28.8538Z" fill="black"/>
<path d="M26.7046 32C26.5634 32 26.4222 31.9414 26.3214 31.8243C26.1398 31.6193 26.1701 31.307 26.3819 31.1411L27.5519 30.1847C27.7637 30.009 28.0865 30.0383 28.258 30.2432C28.4395 30.4482 28.4093 30.7605 28.1974 30.9264L27.0274 31.8828C26.9366 31.9609 26.8156 32 26.7046 32Z" fill="black"/>
<path d="M14.8623 18.9417C13.6721 18.9417 12.7139 18.0048 12.7139 16.863C12.7139 15.7211 13.6822 14.7842 14.8623 14.7842C16.0424 14.7842 17.0107 15.7211 17.0107 16.863C17.0107 18.0048 16.0424 18.9417 14.8623 18.9417ZM14.8623 15.7601C14.2369 15.7601 13.7225 16.2579 13.7225 16.863C13.7225 17.468 14.2369 17.9658 14.8623 17.9658C15.4876 17.9658 16.0021 17.468 16.0021 16.863C16.0021 16.2579 15.4876 15.7601 14.8623 15.7601Z" fill="black"/>
<path d="M12.8764 22.3576C12.594 22.3576 12.3721 22.1331 12.3822 21.8598C12.4023 20.4154 12.9571 17.9658 14.8634 17.9658C16.8807 17.9658 17.4254 20.4155 17.4254 21.8696C17.4254 22.1429 17.2035 22.3576 16.9211 22.3576C16.6387 22.3576 16.4167 22.1429 16.4167 21.8696C16.4167 21.8403 16.3663 18.9418 14.8634 18.9418C13.4715 18.9418 13.3908 21.8501 13.3908 21.8794C13.3908 22.1429 13.1588 22.3576 12.8865 22.3576H12.8764Z" fill="black"/>
<path d="M20.5312 21.2743C19.341 21.2743 18.3828 20.3373 18.3828 19.1955C18.3828 18.0536 19.3511 17.1167 20.5312 17.1167C21.7113 17.1167 22.6796 18.0536 22.6796 19.1955C22.6796 20.3373 21.7113 21.2743 20.5312 21.2743ZM20.5312 18.0926C19.9059 18.0926 19.3915 18.5904 19.3915 19.1955C19.3915 19.8006 19.9059 20.2983 20.5312 20.2983C21.1566 20.2983 21.671 19.8006 21.671 19.1955C21.671 18.5904 21.1566 18.0926 20.5312 18.0926Z" fill="black"/>
<path d="M18.5444 24.6901C18.2619 24.6901 18.04 24.4656 18.0501 24.1924C18.0703 22.748 18.6251 20.2983 20.5314 20.2983C22.5487 20.2983 23.0934 22.748 23.0934 24.2021C23.0934 24.4754 22.8715 24.6901 22.589 24.6901C22.3066 24.6901 22.0847 24.4754 22.0847 24.2021C22.0847 24.1729 22.0343 21.2743 20.5314 21.2743C19.1395 21.2743 19.0588 24.1826 19.0588 24.2119C19.0588 24.4754 18.8268 24.6901 18.5545 24.6901H18.5444Z" fill="black"/>
<path d="M27.834 21.2743C26.6438 21.2743 25.6855 20.3373 25.6855 19.1955C25.6855 18.0536 26.6538 17.1167 27.834 17.1167C29.0141 17.1167 29.9824 18.0536 29.9824 19.1955C29.9824 20.3373 29.0141 21.2743 27.834 21.2743ZM27.834 18.0926C27.2086 18.0926 26.6942 18.5904 26.6942 19.1955C26.6942 19.8006 27.2086 20.2983 27.834 20.2983C28.4593 20.2983 28.9737 19.8006 28.9737 19.1955C28.9737 18.5904 28.4593 18.0926 27.834 18.0926Z" fill="black"/>
<path d="M25.8471 24.6901C25.5647 24.6901 25.3428 24.4656 25.3529 24.1924C25.373 22.748 25.9278 20.2983 27.8341 20.2983C29.8514 20.2983 30.3961 22.748 30.3961 24.2021C30.3961 24.4754 30.1742 24.6901 29.8918 24.6901C29.6094 24.6901 29.3875 24.4754 29.3875 24.2021C29.3875 24.1729 29.337 21.2743 27.8341 21.2743C26.4523 21.2743 26.3615 24.1826 26.3615 24.2119C26.3615 24.4754 26.1295 24.6901 25.8572 24.6901H25.8471Z" fill="black"/>
</svg>
