<svg width="36" height="36" viewBox="0 0 36 36" fill="none" xmlns="http://www.w3.org/2000/svg">
<path d="M29.6234 24.2738H25.0511C24.7769 24.2738 24.5615 24.0613 24.5615 23.7909C24.5615 23.7233 24.6399 16.9436 31.5033 16.9436C31.7774 16.9436 31.9928 17.1561 31.9928 17.4265V21.1447C31.9928 21.1447 32.1201 22.6899 31.2683 23.6074C30.8571 24.0517 30.299 24.2738 29.6234 24.2738ZM25.57 23.308H29.6234C30.0249 23.308 30.3284 23.1921 30.5438 22.9507C31.0137 22.4485 31.0431 21.502 31.0137 21.1833V17.919C26.5099 18.1701 25.7071 21.9366 25.57 23.308Z" fill="black"/>
<path d="M26.3641 32C26.3641 32 26.2858 32 26.2466 31.9904C25.9823 31.9227 25.8256 31.662 25.8844 31.4109L27.8034 23.6944C27.8719 23.4337 28.1363 23.2791 28.3909 23.3371C28.6552 23.4047 28.8119 23.6654 28.7531 23.9165L26.8341 31.633C26.7754 31.8552 26.5795 32 26.3543 32H26.3641Z" fill="black"/>
<path d="M30.6232 31.9999C30.398 31.9999 30.2022 31.8551 30.1435 31.6329L28.2244 23.9165C28.1559 23.6557 28.3223 23.395 28.5867 23.337C28.8511 23.2694 29.1154 23.4336 29.1742 23.6943L31.0932 31.4108C31.1617 31.6716 30.9953 31.9323 30.7309 31.9903C30.6917 31.9903 30.6526 31.9999 30.6134 31.9999H30.6232Z" fill="black"/>
<path d="M10.9525 23.9648H6.38018C5.7046 23.9648 5.14652 23.7427 4.7353 23.2984C3.88349 22.381 4.00098 20.8647 4.01077 20.7971V17.1175C4.01077 16.8471 4.22617 16.6346 4.50032 16.6346C11.3638 16.6346 11.4421 23.4143 11.4421 23.4819C11.4421 23.7523 11.2267 23.9648 10.9525 23.9648ZM4.98987 17.6101V20.8357C4.96049 21.2027 4.98987 22.1492 5.45983 22.6514C5.68502 22.8928 5.98854 23.0087 6.38018 23.0087H10.4336C10.2966 21.6373 9.4937 17.8805 4.98987 17.6197V17.6101Z" fill="black"/>
<path d="M9.63981 31.6909C9.41462 31.6909 9.2188 31.5461 9.16006 31.3239L7.24103 23.6075C7.1725 23.3467 7.33894 23.086 7.6033 23.028C7.86765 22.9701 8.13201 23.1246 8.19075 23.3853L10.1098 31.1018C10.1783 31.3626 10.0119 31.6233 9.74751 31.6813C9.70835 31.6813 9.66918 31.6909 9.63002 31.6909H9.63981Z" fill="black"/>
<path d="M5.38171 31.6909C5.38171 31.6909 5.30338 31.6909 5.26422 31.6813C4.99986 31.6137 4.84321 31.3529 4.90195 31.1018L6.82098 23.3853C6.88951 23.1246 7.15387 22.9701 7.40843 23.028C7.67279 23.0956 7.82944 23.3564 7.7707 23.6075L5.85167 31.3239C5.79293 31.5461 5.59711 31.6909 5.37192 31.6909H5.38171Z" fill="black"/>
<path d="M26.9613 19.3774H9.16142C8.88728 19.3774 8.67188 19.1649 8.67188 18.8945C8.67188 18.6241 8.88728 18.4116 9.16142 18.4116H26.9613C27.2355 18.4116 27.4509 18.6241 27.4509 18.8945C27.4509 19.1649 27.2355 19.3774 26.9613 19.3774Z" fill="black"/>
<path d="M25.7176 21.4056H10.4046C10.1304 21.4056 9.91504 21.1931 9.91504 20.9227C9.91504 20.6523 10.1304 20.4398 10.4046 20.4398H25.7176C25.9918 20.4398 26.2072 20.6523 26.2072 20.9227C26.2072 21.1931 25.9918 21.4056 25.7176 21.4056Z" fill="black"/>
<path d="M18.0608 19.3775C17.7867 19.3775 17.5713 19.165 17.5713 18.8946V10.8884C17.5713 10.618 17.7867 10.4055 18.0608 10.4055C18.335 10.4055 18.5504 10.618 18.5504 10.8884V18.8946C18.5504 19.165 18.335 19.3775 18.0608 19.3775Z" fill="black"/>
<path d="M30.6225 11.3809H5.38145C5.15626 11.3809 4.96044 11.2263 4.90169 11.0139C4.84295 10.8014 4.95065 10.5696 5.15626 10.473L17.8355 4.0507C17.9726 3.9831 18.139 3.9831 18.2859 4.0507L30.8477 10.473C31.0435 10.5793 31.1512 10.8014 31.1022 11.0139C31.0533 11.2263 30.8477 11.3809 30.6225 11.3809ZM7.40817 10.4151H28.6153L18.0607 5.01647L7.40817 10.4151Z" fill="black"/>
<path d="M24.0229 31.691H12.2542C11.98 31.691 11.7646 31.4785 11.7646 31.2081C11.7646 30.9377 11.98 30.7252 12.2542 30.7252C12.4304 30.7252 16.621 30.6383 16.621 26.727V23.2695H15.681C15.4069 23.2695 15.1915 23.057 15.1915 22.7866V20.9227C15.1915 20.6523 15.4069 20.4398 15.681 20.4398C15.9552 20.4398 16.1706 20.6523 16.1706 20.9227V22.3037H16.9734C17.2672 22.2265 17.5903 22.4583 17.5903 22.7673V26.727C17.5903 28.7261 16.6699 29.9816 15.5244 30.7252H20.3611C20.1163 30.5514 19.8813 30.3582 19.6757 30.1458C18.2658 28.6971 18.3148 26.7849 18.3246 26.7076V22.7963C18.3246 22.5259 18.54 22.3134 18.8141 22.3134H19.9792V20.9227C19.9792 20.6523 20.1946 20.4398 20.4688 20.4398C20.7429 20.4398 20.9583 20.6523 20.9583 20.9227V22.7963C20.9583 23.0667 20.7429 23.2792 20.4688 23.2792H19.3037V26.727C19.3037 26.727 19.2645 28.3398 20.3905 29.4891C21.1933 30.31 22.4172 30.7252 24.0131 30.7252C24.2873 30.7252 24.5027 30.9377 24.5027 31.2081C24.5027 31.4785 24.2873 31.691 24.0131 31.691H24.0229Z" fill="black"/>
</svg>
