<svg width="36" height="36" viewBox="0 0 36 36" fill="none" xmlns="http://www.w3.org/2000/svg">
<path d="M7.99972 28.6001C7.84972 28.6001 7.68973 28.5401 7.57973 28.4201C7.34973 28.1901 7.34973 27.8101 7.57973 27.5701L27.5797 7.57008C27.8097 7.34008 28.1897 7.34008 28.4297 7.57008C28.6697 7.80008 28.6597 8.18008 28.4297 8.42008L8.42972 28.4201C8.30972 28.5401 8.15972 28.6001 8.00972 28.6001H7.99972Z" fill="white"/>
<path d="M27.9997 28.6001C27.8497 28.6001 27.6897 28.5401 27.5797 28.4201L7.57973 8.42007C7.34973 8.19007 7.34973 7.81007 7.57973 7.57007C7.80973 7.33007 8.18972 7.34007 8.42972 7.57007L28.4297 27.5701C28.6597 27.8001 28.6597 28.1801 28.4297 28.4201C28.3097 28.5401 28.1597 28.6001 28.0097 28.6001H27.9997Z" fill="white"/>
</svg>
