<svg width="36" height="36" viewBox="0 0 36 36" fill="none" xmlns="http://www.w3.org/2000/svg">
<path d="M27.012 32.0001H13.6285C13.4618 32.0001 13.3148 31.92 13.2167 31.7798C13.1285 31.6397 13.1089 31.4695 13.1677 31.3093C13.8246 29.6575 15.8738 29.5875 15.962 29.5875H18.7172V19.3165L10.7361 9.31575C10.6185 9.16559 10.589 8.95537 10.6773 8.78518C10.7655 8.615 10.9322 8.49487 11.1185 8.49487H29.5122C29.6984 8.49487 29.8749 8.60499 29.9534 8.78518C30.0318 8.96538 30.0122 9.16559 29.8945 9.31575L21.9135 19.3165V29.5875H24.6686C24.7569 29.5875 26.8061 29.6575 27.463 31.3093C27.5218 31.4595 27.5022 31.6397 27.4139 31.7798C27.3257 31.92 27.1688 32.0001 27.0021 32.0001H27.012ZM14.6678 30.999H25.9825C25.4236 30.6286 24.7177 30.5885 24.6588 30.5885H21.4331C21.1585 30.5885 20.9428 30.3683 20.9428 30.088V19.1363C20.9428 19.0161 20.9821 18.906 21.0507 18.8159L28.4925 9.49595H12.1676L19.6094 18.8159C19.678 18.906 19.7172 19.0161 19.7172 19.1363V30.088C19.7172 30.3683 19.5015 30.5885 19.227 30.5885H15.9914C15.9914 30.5885 15.2561 30.6186 14.6776 30.999H14.6678Z" fill="black"/>
<path d="M22.2465 12.2789H13.334C13.0595 12.2789 12.8438 12.0587 12.8438 11.7784C12.8438 11.4981 13.0595 11.2778 13.334 11.2778H22.2465C22.521 11.2778 22.7367 11.4981 22.7367 11.7784C22.7367 12.0587 22.521 12.2789 22.2465 12.2789Z" fill="black"/>
<path d="M27.2963 12.2789H23.7568C23.4823 12.2789 23.2666 12.0587 23.2666 11.7784C23.2666 11.4981 23.4823 11.2778 23.7568 11.2778H27.2963C27.5709 11.2778 27.7866 11.4981 27.7866 11.7784C27.7866 12.0587 27.5709 12.2789 27.2963 12.2789Z" fill="black"/>
<path d="M10.9808 14.1709C8.23547 14.1709 6 11.8885 6 9.08545C6 6.28245 8.23547 4 10.9808 4C13.7261 4 15.893 6.22238 15.9616 8.96532C15.9616 9.24562 15.7557 9.46586 15.4812 9.47587C15.1674 9.46586 14.9909 9.26564 14.9811 8.98534C14.9321 6.78298 13.1378 5.00107 10.9808 5.00107C8.82375 5.00107 6.98047 6.83304 6.98047 9.08545C6.98047 11.3379 8.77473 13.1698 10.9808 13.1698C11.9515 13.1698 12.8927 12.8094 13.6183 12.1587C13.8242 11.9785 14.1281 11.9986 14.3144 12.2088C14.4909 12.419 14.4713 12.7294 14.2654 12.9196C13.3535 13.7304 12.1868 14.1809 10.9808 14.1809V14.1709Z" fill="black"/>
<path d="M10.4711 12.7094C10.4711 12.7094 10.4025 12.7094 10.3731 12.6993C10.1083 12.6393 9.93184 12.379 9.99067 12.1087L10.3436 10.3368L9.08863 11.438C8.88273 11.6182 8.57879 11.5982 8.3925 11.3879C8.21601 11.1777 8.23562 10.8574 8.44152 10.6772L10.7849 8.62499C10.9417 8.48484 11.177 8.46481 11.3535 8.57493C11.53 8.68505 11.6281 8.89528 11.5888 9.1055L10.9417 12.3189C10.8927 12.5592 10.6868 12.7194 10.4613 12.7194L10.4711 12.7094Z" fill="black"/>
<path d="M17.5995 14.0007H16.4033C16.1288 14.0007 15.9131 13.7805 15.9131 13.5002C15.9131 13.2199 16.1288 12.9996 16.4033 12.9996H17.5995C17.874 12.9996 18.0897 13.2199 18.0897 13.5002C18.0897 13.7805 17.874 14.0007 17.5995 14.0007Z" fill="black"/>
<path d="M19.4809 14.0007H19.1182C18.8436 14.0007 18.6279 13.7805 18.6279 13.5002C18.6279 13.2199 18.8436 12.9996 19.1182 12.9996H19.4809C19.7555 12.9996 19.9712 13.2199 19.9712 13.5002C19.9712 13.7805 19.7555 14.0007 19.4809 14.0007Z" fill="black"/>
</svg>
