<svg width="36" height="36" viewBox="0 0 36 36" fill="none" xmlns="http://www.w3.org/2000/svg">
<path d="M20.0195 28.3414H14.3135C11.2357 28.3414 8.72754 25.8454 8.72754 22.768V15.0095C8.72754 14.7288 8.94738 14.5083 9.22718 14.5083H25.1058C25.3856 14.5083 25.6055 14.7288 25.6055 15.0095V22.768C25.6055 25.8454 23.0973 28.3414 20.0195 28.3414ZM9.72682 15.5107V22.768C9.72682 25.284 11.7853 27.339 14.3135 27.339H20.0195C22.5476 27.339 24.6062 25.284 24.6062 22.768V15.5107H9.72682Z" fill="black"/>
<path d="M25.5844 22.2567C25.2846 22.2567 25.0847 22.2367 25.0647 22.2367C24.7949 22.2066 24.5951 21.956 24.625 21.6854C24.655 21.4047 24.9048 21.2042 25.1746 21.2443C25.1946 21.2443 27.1532 21.4448 28.2824 20.4223C28.8121 19.9512 29.0719 19.2596 29.0719 18.3674C29.0719 17.4753 28.8021 16.7937 28.2824 16.3225C27.1632 15.3101 25.1946 15.5106 25.1746 15.5106C24.9048 15.5407 24.655 15.3402 24.625 15.0695C24.5951 14.7989 24.7949 14.5483 25.0647 14.5182C25.1647 14.5082 27.483 14.2676 28.942 15.5808C29.6914 16.2524 30.0711 17.1946 30.0711 18.3774C30.0711 19.5603 29.6914 20.5025 28.942 21.1741C27.8827 22.1264 26.3738 22.2667 25.5944 22.2667L25.5844 22.2567Z" fill="black"/>
<path d="M31.5004 32H4.49964C4.21984 32 4 31.7794 4 31.4988C4 31.2181 4.21984 30.9976 4.49964 30.9976H31.5004C31.7802 30.9976 32 31.2181 32 31.4988C32 31.7794 31.7802 32 31.5004 32Z" fill="black"/>
<path d="M19.9784 12.4032C19.6986 12.4032 19.4788 12.1827 19.4788 11.902C19.4788 10.2079 17.5302 9.19552 15.4217 8.35351C13.4831 7.58167 13.2332 5.45659 13.3731 4.43414C13.4131 4.1635 13.6629 3.97305 13.9327 4.00312C14.2025 4.04322 14.3924 4.29381 14.3624 4.56446C14.3525 4.65468 14.1026 6.73965 15.7914 7.41126C17.4302 8.06281 20.4781 9.28574 20.4781 11.892C20.4781 12.1726 20.2582 12.3932 19.9784 12.3932V12.4032Z" fill="black"/>
</svg>
