<svg width="94" height="94" viewBox="0 0 94 94" fill="none" xmlns="http://www.w3.org/2000/svg">
<path fill-rule="evenodd" clip-rule="evenodd" d="M40 54.6253V66H54V54.6253L57.0222 52.8976C62.5196 49.755 66 43.823 66 36.7059C66 26.4417 57.5606 18 47 18C36.4394 18 28 26.4417 28 36.7059C28 43.823 31.4804 49.755 36.9778 52.8976L40 54.6253ZM60 72H34V58.1066C26.5275 53.8348 22 45.8505 22 36.7059C22 23.0612 33.1929 12 47 12C60.8071 12 72 23.0612 72 36.7059C72 45.8505 67.4725 53.8348 60 58.1066V72Z" fill="black"/>
<path d="M34 76H60V82H34V76Z" fill="black"/>
</svg>
