<svg width="94" height="94" viewBox="0 0 94 94" fill="none" xmlns="http://www.w3.org/2000/svg">
<path d="M30.3565 47.5C30.3565 51.925 31.3374 55.831 33.2991 59.2181C35.3154 62.6051 37.931 65.2546 41.1461 67.1667C44.3612 69.0787 47.8487 70.0347 51.6087 70.0347C54.3333 70.0347 56.8128 69.6796 59.047 68.9694C61.3357 68.2593 63.4064 67.2759 65.2591 66.0194C67.1119 64.7083 68.6922 63.206 70 61.5125V70.6903C67.6023 72.8208 64.9867 74.4051 62.153 75.4431C59.3194 76.481 55.8046 77 51.6087 77C47.6307 77 43.898 76.2898 40.4104 74.8694C36.9774 73.3944 33.953 71.3458 31.3374 68.7236C28.7217 66.0468 26.6783 62.9056 25.207 59.3C23.7357 55.6944 23 51.7611 23 47.5C23 43.2389 23.7357 39.3056 25.207 35.7C26.6783 32.0944 28.7217 28.9806 31.3374 26.3583C33.953 23.6815 36.9774 21.6329 40.4104 20.2125C43.898 18.7375 47.6307 18 51.6087 18C55.8046 18 59.3194 18.519 62.153 19.5569C64.9867 20.5949 67.6023 22.1792 70 24.3097V33.4875C68.6922 31.794 67.1119 30.319 65.2591 29.0625C63.4064 27.7514 61.3357 26.7407 59.047 26.0306C56.8128 25.3204 54.3333 24.9653 51.6087 24.9653C47.8487 24.9653 44.3612 25.9213 41.1461 27.8333C37.931 29.7454 35.3154 32.3949 33.2991 35.7819C31.3374 39.1144 30.3565 43.0204 30.3565 47.5Z" fill="white"/>
</svg>
