<svg width="36" height="36" viewBox="0 0 36 36" fill="none" xmlns="http://www.w3.org/2000/svg">
<path d="M18.6721 15.3885H6.49231C5.63952 15.3885 4.94727 14.7038 4.94727 13.8605V5.64505C4.94727 4.80168 5.63952 4.11707 6.49231 4.11707H18.6721C19.5249 4.11707 20.2172 4.80168 20.2172 5.64505V13.8605C20.2172 14.7038 19.5249 15.3885 18.6721 15.3885ZM6.49231 5.09934C6.19133 5.09934 5.95055 5.33747 5.95055 5.63513V13.8605C5.95055 14.1581 6.19133 14.3963 6.49231 14.3963H18.6721C18.9731 14.3963 19.2139 14.1581 19.2139 13.8605V5.64505C19.2139 5.34739 18.9731 5.10926 18.6721 5.10926H6.49231V5.09934Z" fill="black"/>
<path d="M19.7139 13.2454H5.43719C5.15627 13.2454 4.93555 13.0271 4.93555 12.7493C4.93555 12.4715 5.15627 12.2532 5.43719 12.2532H19.7139C19.9948 12.2532 20.2155 12.4715 20.2155 12.7493C20.2155 13.0271 19.9948 13.2454 19.7139 13.2454Z" fill="black"/>
<path d="M14.7583 18.0674H10.4341C10.2736 18.0674 10.1231 17.988 10.0228 17.859C9.92244 17.73 9.90238 17.5614 9.96257 17.4125L10.9057 14.7336C10.9759 14.5351 11.1665 14.3962 11.3772 14.3962H13.8252C14.0359 14.3962 14.2265 14.5351 14.2967 14.7336L15.2298 17.4125C15.28 17.5614 15.2599 17.73 15.1596 17.859C15.0592 17.988 14.9087 18.0674 14.7482 18.0674H14.7583ZM11.1364 17.0752H14.056L13.464 15.3884H11.7283L11.1364 17.0752Z" fill="black"/>
<path d="M29.3761 24.3876H21.6208C21.3399 24.3876 21.1191 24.1693 21.1191 23.8915V13.2849C21.1191 13.0071 21.3399 12.7888 21.6208 12.7888H29.3761C29.6571 12.7888 29.8778 13.0071 29.8778 13.2849V23.8915C29.8778 24.1693 29.6571 24.3876 29.3761 24.3876ZM22.1224 23.3954H28.8745V13.781H22.1224V23.3954Z" fill="black"/>
<path d="M29.3755 26.2629H18.821C18.5401 26.2629 18.3193 26.0446 18.3193 25.7668V23.9015C18.3193 23.6237 18.5401 23.4054 18.821 23.4054H29.3755C29.6564 23.4054 29.8771 23.6237 29.8771 23.9015V25.7668C29.8771 26.0446 29.6564 26.2629 29.3755 26.2629ZM19.3226 25.2707H28.8738V24.3976H19.3226V25.2707Z" fill="black"/>
<path d="M25.5036 33C25.2227 33 25.002 32.7817 25.002 32.5039V25.757C25.002 25.4791 25.2227 25.2609 25.5036 25.2609C25.7845 25.2609 26.0052 25.4791 26.0052 25.757V32.5039C26.0052 32.7817 25.7845 33 25.5036 33Z" fill="black"/>
<path d="M29.3762 31.214C29.3762 31.214 29.2859 31.214 29.2458 31.1941L25.4835 30.192L20.1059 31.2041C19.835 31.2537 19.5742 31.0751 19.524 30.8072C19.4738 30.5393 19.6544 30.2813 19.9253 30.2317L25.4132 29.1998C25.4835 29.1899 25.5637 29.1899 25.634 29.1998L29.5066 30.2317C29.7775 30.3012 29.928 30.579 29.8578 30.837C29.7976 31.0552 29.5969 31.2041 29.3762 31.2041V31.214Z" fill="black"/>
<path d="M21.6209 18.0674H3.50164C3.22072 18.0674 3 17.8491 3 17.5713C3 17.2935 3.22072 17.0752 3.50164 17.0752H21.6209C21.9018 17.0752 22.1225 17.2935 22.1225 17.5713C22.1225 17.8491 21.9018 18.0674 21.6209 18.0674Z" fill="black"/>
<path d="M7.68523 31.214C7.40432 31.214 7.18359 30.9958 7.18359 30.7179V17.5713C7.18359 17.2935 7.40432 17.0752 7.68523 17.0752C7.96615 17.0752 8.18687 17.2935 8.18687 17.5713V30.7179C8.18687 30.9958 7.96615 31.214 7.68523 31.214Z" fill="black"/>
<path d="M26.2558 9.35589C25.7943 9.35589 25.3529 9.16737 24.9817 8.80026L22.9851 6.82578C22.5939 6.43882 22.4032 5.98241 22.4233 5.49623C22.4634 4.57349 23.246 3.88887 23.3363 3.8095C23.9884 3.2241 24.7008 2.9562 25.4632 3.00581C26.7675 3.09511 27.6705 4.14684 27.7006 4.19645C27.7106 4.19645 28.744 5.07951 28.8343 6.34953C28.8844 7.09368 28.6136 7.80806 28.0216 8.46291C27.9213 8.57205 27.2391 9.3162 26.3261 9.35589C26.306 9.35589 26.2859 9.35589 26.2558 9.35589ZM25.2726 3.99801C24.8312 3.99801 24.3998 4.18653 23.9884 4.55364C23.8279 4.69255 23.4366 5.1192 23.4165 5.53592C23.4165 5.74428 23.4968 5.9328 23.6874 6.12132L25.684 8.0958C25.8746 8.28431 26.0752 8.38353 26.2759 8.36369C26.6973 8.35377 27.1287 7.95689 27.2591 7.80806C27.6604 7.36157 27.8511 6.89524 27.821 6.4289C27.7608 5.56569 26.9882 4.90091 26.9782 4.90091C26.908 4.83146 26.2458 4.05754 25.3629 4.00794C25.3328 4.00794 25.2927 4.00794 25.2626 4.00794L25.2726 3.99801Z" fill="black"/>
<path d="M29.3758 13.7811C29.2655 13.7811 29.1551 13.7414 29.0648 13.6719C28.8541 13.5033 28.814 13.1857 28.9946 12.9774L31.8038 9.56422L28.1318 6.03199C27.9512 5.86332 27.9311 5.5855 28.0716 5.38706C28.1418 5.28784 28.4629 4.78182 28.0415 4.45439C27.6903 4.1865 27.1686 4.52385 27.1686 4.53377C26.9379 4.6826 26.6269 4.62307 26.4764 4.39486C26.3259 4.16666 26.376 3.85907 26.6068 3.71024C27.0181 3.42251 27.9211 3.105 28.6635 3.67056C29.3759 4.21627 29.3558 5.01003 29.115 5.5855L32.8472 9.17726C33.0378 9.35586 33.0478 9.6436 32.8873 9.84204L29.7972 13.6025C29.6969 13.7215 29.5564 13.7811 29.4059 13.7811H29.3758Z" fill="black"/>
</svg>
