<svg width="36" height="36" viewBox="0 0 36 36" fill="none" xmlns="http://www.w3.org/2000/svg">
<path d="M30.8668 28.9897C30.4423 28.9897 30.0683 28.8464 29.765 28.5596C29.0676 27.9041 29.017 26.757 29.017 26.6341L29.108 21.7281C29.108 21.554 29.199 21.3901 29.3506 21.2979C29.3506 21.2979 30.1592 20.7654 30.0885 19.9767C30.0177 19.1676 29.2091 18.7784 29.2091 18.7681C29.0474 18.6657 28.5218 18.2765 28.5016 17.1909C28.4915 16.3203 28.6128 12.1108 28.6229 11.9264C28.6229 11.8445 28.6936 10.0214 29.664 8.87429C30.5939 7.76814 32.2313 7.07168 32.3021 7.04095C32.4638 6.9795 32.6356 6.98974 32.7771 7.09216C32.9186 7.18434 32.9995 7.34822 32.9995 7.52233L32.7468 26.6238C32.7771 27.4022 32.4335 28.9283 30.9679 29C30.9375 29 30.9072 29 30.8769 29L30.8668 28.9897ZM30.1087 21.9944L30.0278 26.6238C30.0278 26.8287 30.1289 27.5046 30.4524 27.8119C30.5736 27.9246 30.7252 27.9758 30.9072 27.9655C31.7461 27.9246 31.7259 26.675 31.7259 26.6238L31.9685 8.3417C31.4833 8.61824 30.8466 9.02792 30.422 9.54002C29.8055 10.2775 29.6336 11.5372 29.6235 11.9674C29.6235 12.0084 29.4921 16.3305 29.5022 17.1806C29.5022 17.7132 29.6943 17.8873 29.7044 17.8976C29.7044 17.8976 30.9679 18.5121 31.0891 19.8948C31.1801 20.9599 30.4928 21.6871 30.1188 22.0046L30.1087 21.9944Z" fill="black"/>
<path d="M5.41525 28.9897C4.9503 28.9897 4.54596 28.8156 4.25284 28.4981C3.61605 27.8017 3.6767 26.6545 3.68681 26.5316L3.72725 22.0866C3.72725 21.81 3.95973 21.5745 4.23264 21.5745H6.93141C7.06281 21.5745 7.19419 21.6359 7.28516 21.7383C7.37613 21.8305 7.43679 21.9637 7.42668 22.0968L7.40645 26.675C7.40645 26.7774 7.40645 27.8017 6.74945 28.4571C6.40579 28.8054 5.95094 28.9897 5.42534 28.9897H5.41525ZM4.71782 22.5987L4.6875 26.5624C4.67739 26.8082 4.69759 27.4841 4.99072 27.7914C5.06147 27.8631 5.19286 27.986 5.42534 27.9655C5.68814 27.9655 5.88019 27.8938 6.03181 27.7402C6.33504 27.4329 6.39567 26.8696 6.39567 26.675L6.41591 22.5987H4.72791H4.71782Z" fill="black"/>
<path d="M4.87022 22.5987C4.58721 22.5987 4.36484 22.3733 4.36484 22.0866V15.419C4.36484 15.2244 4.30418 14.6918 4.00094 14.4562C3.24287 13.8622 2.99018 12.8892 3.00029 12.1825C3.0104 11.5475 3.07105 7.60425 3.07105 7.60425H4.08182C4.08182 7.60425 4.03128 11.5679 4.01106 12.2029C4.01106 12.6434 4.15258 13.2886 4.61753 13.6471C5.37561 14.2309 5.37561 15.3063 5.37561 15.4292V22.0866C5.37561 22.3733 5.15324 22.5987 4.87022 22.5987Z" fill="black"/>
<path d="M6.22511 22.5987C5.9421 22.5987 5.71973 22.3734 5.71973 22.0866V15.419C5.71973 15.3063 5.71973 14.2309 6.47781 13.6471C6.94276 13.2886 7.09438 12.6434 7.08428 12.203C7.07417 11.568 7.01351 7.62476 7.01351 7.62476H8.02429C8.02429 7.62476 8.08494 11.5577 8.09505 12.1927C8.10515 12.8994 7.85244 13.8724 7.09436 14.4665C6.79113 14.702 6.7305 15.2449 6.7305 15.4292V22.0968C6.7305 22.3836 6.50813 22.6089 6.22511 22.6089V22.5987Z" fill="black"/>
<path d="M5.53761 13.135C5.2546 13.135 5.03223 12.9097 5.03223 12.6229V7.5121C5.03223 7.22533 5.2546 7 5.53761 7C5.82063 7 6.043 7.22533 6.043 7.5121V12.6229C6.043 12.9097 5.82063 13.135 5.53761 13.135Z" fill="black"/>
<path d="M18.0803 25.0055C14.1787 25.0055 11.0049 21.7895 11.0049 17.8361C11.0049 13.8826 14.1787 10.6666 18.0803 10.6666C21.9819 10.6666 25.1557 13.8826 25.1557 17.8361C25.1557 21.7895 21.9819 25.0055 18.0803 25.0055ZM18.0803 11.7011C14.7346 11.7011 12.0157 14.4562 12.0157 17.8463C12.0157 21.2365 14.7346 23.9916 18.0803 23.9916C21.4259 23.9916 24.1449 21.2365 24.1449 17.8463C24.1449 14.4562 21.4259 11.7011 18.0803 11.7011Z" fill="black"/>
<path d="M18.081 27.4227C12.8654 27.4227 8.62012 23.121 8.62012 17.8361C8.62012 12.5512 12.8654 8.24951 18.081 8.24951C23.2965 8.24951 27.5418 12.5512 27.5418 17.8361C27.5418 23.121 23.2965 27.4227 18.081 27.4227ZM18.081 9.28396C13.4213 9.28396 9.63089 13.1247 9.63089 17.8463C9.63089 22.5679 13.4213 26.4087 18.081 26.4087C22.7406 26.4087 26.531 22.5679 26.531 17.8463C26.531 13.1247 22.7406 9.28396 18.081 9.28396Z" fill="black"/>
</svg>
