<svg width="36" height="36" viewBox="0 0 36 36" fill="none" xmlns="http://www.w3.org/2000/svg">
<path d="M26.8185 32C25.4393 32 24.1717 30.8759 24.121 30.8258L18.5941 25.3462C18.4724 25.2258 18.4217 25.0552 18.4521 24.8845C18.4521 24.8645 18.7969 23.1885 17.651 22.2853C16.4949 21.362 15.0245 21.9139 14.9636 21.934C14.8014 21.9842 13.8582 22.1749 12.6819 21.0709C11.6779 20.1376 6.97247 15.3706 6.77979 15.1699C6.69866 15.0795 4.75159 13.0724 4.51835 10.8043C4.29524 8.58634 5.30934 5.99709 5.36005 5.8867C5.42089 5.72613 5.56287 5.61573 5.72512 5.57559C5.89752 5.53545 6.06992 5.59566 6.19161 5.70605L27.863 26.9519C28.7149 27.7147 29.9825 29.6014 28.583 31.1871C28.1469 31.6888 27.5993 31.9498 26.9706 31.9899C26.9199 31.9899 26.8793 31.9899 26.8286 31.9899L26.8185 32ZM19.4865 24.8143L24.8207 30.1032C25.1046 30.3541 26.068 31.0466 26.8996 30.9964C27.2545 30.9763 27.5486 30.8258 27.8021 30.5347C28.9075 29.2802 27.2241 27.7548 27.1531 27.6845L6.0395 6.99064C5.76569 7.8738 5.39047 9.38921 5.52231 10.7039C5.71499 12.6207 7.47952 14.4573 7.49981 14.4774C7.55051 14.5276 12.3776 19.425 13.3715 20.3483C14.132 21.0609 14.6492 20.9906 14.6695 20.9806C14.6695 20.9806 16.6572 20.2179 18.2797 21.5025C19.5879 22.5462 19.5575 24.162 19.4865 24.8143Z" fill="black"/>
<path d="M6.38376 31.9999C6.38376 31.9999 6.29249 31.9999 6.24179 31.9999C5.61304 31.9598 5.06543 31.6989 4.62937 31.1971C3.21977 29.6114 4.49753 27.7146 5.35952 26.9419L10.3489 22.0444C10.5517 21.8537 10.8661 21.8537 11.0689 22.0444C11.2616 22.2451 11.2616 22.5562 11.0689 22.7569L6.05925 27.6644C5.96798 27.7447 4.29471 29.2802 5.38995 30.5247C5.64347 30.8157 5.93756 30.9662 6.2925 30.9863C7.11392 31.0265 8.08746 30.344 8.39169 30.073L13.8881 24.6236C14.0909 24.4229 14.4053 24.4329 14.6081 24.6236C14.811 24.8243 14.811 25.1354 14.6081 25.3361L9.09142 30.7956C9.02043 30.8659 7.7528 31.9899 6.37362 31.9899L6.38376 31.9999Z" fill="black"/>
<path d="M21.3922 17.1971C21.2908 17.1971 21.1894 17.167 21.0981 17.1068C20.875 16.9463 20.8142 16.6351 20.9764 16.4043C21.017 16.3441 22.021 14.9792 23.4711 15.1498C24.465 15.2703 25.3168 14.9491 26.0977 14.1764C26.8177 13.4638 31.2899 9.06812 31.2899 9.06812L31.9997 9.78066C31.9997 9.78066 27.5275 14.1764 26.8075 14.8789C25.8137 15.8624 24.6475 16.2939 23.3494 16.1333C22.5077 16.033 21.808 16.9663 21.7979 16.9764C21.6964 17.1169 21.5443 17.1871 21.3821 17.1871L21.3922 17.1971Z" fill="black"/>
<path d="M19.527 14.9993C19.3647 14.9993 19.2126 14.929 19.1112 14.7885C18.9489 14.5577 19.0098 14.2466 19.2329 14.086C19.2329 14.086 20.2064 13.3935 20.0847 12.5706C19.8718 11.1656 20.6019 9.881 21.3524 9.13835C22.1028 8.3957 26.504 4 26.504 4L27.224 4.70251C27.224 4.70251 22.7823 9.12832 22.0622 9.84086C21.5146 10.3828 20.9265 11.3864 21.0786 12.4201C21.2915 13.8552 19.8718 14.8588 19.8109 14.8989C19.7197 14.9591 19.6182 14.9892 19.5168 14.9892L19.527 14.9993Z" fill="black"/>
<path d="M23.5835 12.8617C23.4517 12.8617 23.3199 12.8115 23.2185 12.7112C23.0258 12.5105 23.0258 12.1893 23.2286 11.9986L28.9988 6.48895C29.2017 6.29827 29.5262 6.29827 29.7189 6.49898C29.9115 6.6997 29.9115 7.02085 29.7087 7.21153L23.9385 12.7212C23.8371 12.8115 23.7154 12.8617 23.5835 12.8617Z" fill="black"/>
</svg>
