<svg width="36" height="36" viewBox="0 0 36 36" fill="none" xmlns="http://www.w3.org/2000/svg">
<path d="M29 3V33H7V3H29ZM30 2H6V34H30V2Z" fill="black"/>
<path d="M26 10V33H10V10H26ZM27 9H9V34H27V9Z" fill="black"/>
<path d="M12 7C12.2761 7 12.5 6.77614 12.5 6.5C12.5 6.22386 12.2761 6 12 6C11.7239 6 11.5 6.22386 11.5 6.5C11.5 6.77614 11.7239 7 12 7Z" fill="black"/>
<path d="M14 7C14.2761 7 14.5 6.77614 14.5 6.5C14.5 6.22386 14.2761 6 14 6C13.7239 6 13.5 6.22386 13.5 6.5C13.5 6.77614 13.7239 7 14 7Z" fill="black"/>
<path d="M16 7C16.2761 7 16.5 6.77614 16.5 6.5C16.5 6.22386 16.2761 6 16 6C15.7239 6 15.5 6.22386 15.5 6.5C15.5 6.77614 15.7239 7 16 7Z" fill="black"/>
<path d="M18 7C18.2761 7 18.5 6.77614 18.5 6.5C18.5 6.22386 18.2761 6 18 6C17.7239 6 17.5 6.22386 17.5 6.5C17.5 6.77614 17.7239 7 18 7Z" fill="black"/>
<path d="M22 7C22.2761 7 22.5 6.77614 22.5 6.5C22.5 6.22386 22.2761 6 22 6C21.7239 6 21.5 6.22386 21.5 6.5C21.5 6.77614 21.7239 7 22 7Z" fill="black"/>
<path d="M24 7C24.2761 7 24.5 6.77614 24.5 6.5C24.5 6.22386 24.2761 6 24 6C23.7239 6 23.5 6.22386 23.5 6.5C23.5 6.77614 23.7239 7 24 7Z" fill="black"/>
<path d="M20 7C20.2761 7 20.5 6.77614 20.5 6.5C20.5 6.22386 20.2761 6 20 6C19.7239 6 19.5 6.22386 19.5 6.5C19.5 6.77614 19.7239 7 20 7Z" fill="black"/>
<path d="M18 33.5C17.72 33.5 17.5 33.28 17.5 33V10C17.5 9.72 17.72 9.5 18 9.5C18.28 9.5 18.5 9.72 18.5 10V33C18.5 33.28 18.28 33.5 18 33.5Z" fill="black"/>
</svg>
