<svg width="36" height="36" viewBox="0 0 36 36" fill="none" xmlns="http://www.w3.org/2000/svg">
<path d="M25.5864 17.4344C22.2572 17.4344 19.541 14.4212 19.541 10.7172C19.541 7.01323 22.2572 4 25.5864 4C28.9157 4 31.6318 7.01323 31.6318 10.7172C31.6318 14.4212 28.9157 17.4344 25.5864 17.4344ZM25.5864 5.00107C22.7759 5.00107 20.4841 7.56382 20.4841 10.7172C20.4841 13.8706 22.7759 16.4333 25.5864 16.4333C28.3969 16.4333 30.6887 13.8706 30.6887 10.7172C30.6887 7.56382 28.3969 5.00107 25.5864 5.00107Z" fill="black"/>
<path d="M20.8526 10.0264C20.5319 10.0264 20.2396 9.98637 20.0132 9.9263C19.7586 9.85623 19.6077 9.58594 19.6737 9.31565C19.7397 9.04536 19.9944 8.88519 20.249 8.95526C20.3245 8.97528 22.1352 9.42577 22.9746 7.76399C23.0406 7.63385 23.1538 7.54375 23.2859 7.51372C23.4179 7.48369 23.5594 7.51372 23.6725 7.60381C23.7385 7.65387 25.3513 8.88519 27.5865 7.56377C27.794 7.44364 28.0486 7.5037 28.1901 7.69391C28.2278 7.75397 29.2558 9.11543 31.0477 9.02533C31.3024 9.02533 31.5287 9.23556 31.5382 9.50585C31.5476 9.78615 31.3401 10.0164 31.0855 10.0264C29.3596 10.0765 28.2184 9.13546 27.7185 8.6149C25.804 9.58594 24.2667 9.05537 23.5499 8.67496C22.8143 9.7361 21.7203 10.0364 20.862 10.0364L20.8526 10.0264Z" fill="black"/>
<path d="M27.6239 11.9185C27.3598 11.9185 27.1523 11.6983 27.1523 11.418V10.507C27.1523 10.2267 27.3598 10.0065 27.6239 10.0065C27.888 10.0065 28.0955 10.2267 28.0955 10.507V11.418C28.0955 11.6983 27.888 11.9185 27.6239 11.9185Z" fill="black"/>
<path d="M23.578 11.9185C23.3139 11.9185 23.1064 11.6983 23.1064 11.418V10.507C23.1064 10.2267 23.3139 10.0065 23.578 10.0065C23.8421 10.0065 24.0496 10.2267 24.0496 10.507V11.418C24.0496 11.6983 23.8421 11.9185 23.578 11.9185Z" fill="black"/>
<path d="M25.6432 14.7515H25.5961C24.2285 14.7215 23.2666 13.6303 23.2288 13.5803C23.0497 13.3801 23.0685 13.0597 23.2571 12.8795C23.4458 12.6893 23.7476 12.6993 23.9267 12.9096C23.9267 12.9096 24.6624 13.7405 25.6244 13.7505C26.1808 13.7305 26.7561 13.4702 27.2937 12.8996C27.4729 12.6993 27.7747 12.6993 27.9633 12.8996C28.1519 13.0898 28.1519 13.4101 27.9633 13.6103C27.256 14.3711 26.4732 14.7616 25.6527 14.7616L25.6432 14.7515Z" fill="black"/>
<path d="M29.0761 31.98H23.2193C22.9553 31.98 22.7478 31.7598 22.7478 31.4795C22.7478 31.1992 22.9553 30.9789 23.2193 30.9789H29.0761C29.7175 30.9789 30.189 30.7887 30.5191 30.4083C31.1604 29.6675 31.0473 28.4062 31.0473 28.3962V22.3997C31.0473 22.3497 31.1416 20.4376 29.8966 19.0261C28.963 17.975 27.5105 17.4344 25.5771 17.4344C23.6437 17.4344 22.2102 17.965 21.3142 19.0261C20.107 20.4477 20.2674 22.3297 20.2674 22.3497C20.2957 22.63 20.107 22.8702 19.843 22.9003C19.5883 22.9403 19.3525 22.7301 19.3243 22.4498C19.3243 22.3497 19.1262 20.0973 20.6069 18.3554C21.6915 17.084 23.3608 16.4333 25.5677 16.4333C27.7746 16.4333 29.4628 17.074 30.5851 18.3554C32.113 20.0873 31.981 22.3397 31.981 22.4398V28.3561C31.981 28.3561 32.1318 30.0079 31.217 31.079C30.7077 31.6797 29.9815 31.99 29.0667 31.99L29.0761 31.98Z" fill="black"/>
<path d="M28.4638 28.6864H22.3524C22.0883 28.6864 21.8809 28.4662 21.8809 28.1859C21.8809 27.9056 22.0883 27.6854 22.3524 27.6854H27.9923V21.3185C27.9923 21.0382 28.1998 20.818 28.4638 20.818C28.7279 20.818 28.9354 21.0382 28.9354 21.3185V28.1859C28.9354 28.4662 28.7279 28.6864 28.4638 28.6864Z" fill="black"/>
<path d="M31.5279 24.7022H28.4628C28.1987 24.7022 27.9912 24.482 27.9912 24.2017C27.9912 23.9214 28.1987 23.7012 28.4628 23.7012H31.5279C31.792 23.7012 31.9995 23.9214 31.9995 24.2017C31.9995 24.482 31.792 24.7022 31.5279 24.7022Z" fill="black"/>
<path d="M25.521 20.0672C24.9457 20.0672 24.4647 19.857 24.078 19.4566C23.2764 18.6057 23.2764 17.1741 23.2764 17.1141C23.2764 16.8338 23.4839 16.6135 23.7479 16.6135C24.012 16.6135 24.2195 16.8338 24.2195 17.1141C24.2195 17.1941 24.2384 19.0661 25.521 19.0661C26.8036 19.0661 26.8319 17.1941 26.8319 17.1141C26.8319 16.8338 27.0394 16.6135 27.3035 16.6135C27.5676 16.6135 27.7751 16.8338 27.7751 17.1141C27.7751 18.1352 27.3035 20.0672 25.521 20.0672Z" fill="black"/>
<path d="M10.5251 31.9901C10.2233 31.9901 9.16702 31.8499 8.39366 30.1581C7.6203 28.4663 4.34766 20.778 4.20619 20.4477C4.1779 20.3876 3.78178 19.5567 4.16846 18.876C4.43254 18.4155 4.94183 18.1853 5.69633 18.1853H16.9006C16.9006 18.1853 18.5228 17.945 19.447 20.2475C20.2204 22.1795 23.361 29.4173 23.3893 29.4974C23.4365 29.5875 23.8891 30.5585 23.4553 31.3093C23.1912 31.7698 22.7008 32.0001 21.9935 32.0001H10.61C10.61 32.0001 10.5817 32.0001 10.5251 32.0001V31.9901ZM17.0232 19.1763H16.9666H5.70575C5.3285 19.1763 5.06443 19.2564 4.98898 19.3865C4.89467 19.5467 5.00784 19.8771 5.06443 20.0072C5.11158 20.1173 8.47853 28.0358 9.25189 29.7176C9.85549 31.029 10.5345 30.989 10.5628 30.989H22.0029C22.3424 30.989 22.5782 30.9089 22.6537 30.7788C22.7668 30.5886 22.6537 30.1581 22.5405 29.9178C22.5028 29.8277 19.3622 22.58 18.5794 20.6279C18.0324 19.2664 17.2401 19.1763 17.0232 19.1763Z" fill="black"/>
<path d="M14.0052 27.435C12.0813 27.435 10.5723 26.3939 10.5723 25.0725C10.5723 23.7511 12.0813 22.71 14.0052 22.71C15.9292 22.71 17.4382 23.7511 17.4382 25.0725C17.4382 26.3939 15.9292 27.435 14.0052 27.435ZM14.0052 23.721C12.5434 23.721 11.5154 24.4418 11.5154 25.0825C11.5154 25.7232 12.534 26.444 14.0052 26.444C15.4765 26.444 16.4951 25.7232 16.4951 25.0825C16.4951 24.4418 15.4765 23.721 14.0052 23.721Z" fill="black"/>
</svg>
