<svg width="36" height="36" viewBox="0 0 36 36" fill="none" xmlns="http://www.w3.org/2000/svg">
<path d="M24.0666 32.9711H11.9401C11.656 32.9711 11.4327 32.7591 11.4327 32.4893V26.6208H6.04432C5.13103 26.6208 4.41054 26.3317 3.88286 25.7728C2.79706 24.6068 3.02031 22.6892 3.03046 22.6025V12.2917C3.03046 12.1279 3.11164 11.9737 3.26385 11.887L17.7243 3.0795C17.8867 2.9735 18.1099 2.9735 18.2723 3.0795L32.7429 11.887C32.885 11.9737 32.9763 12.1279 32.9763 12.2917V22.6411C33.0067 22.9012 33.1488 24.6839 32.1137 25.7825C31.586 26.3414 30.8554 26.6305 29.9523 26.6305H24.5639V32.4989C24.5639 32.7687 24.3406 32.9807 24.0565 32.9807L24.0666 32.9711ZM12.4475 32.0075H23.5592V26.139C23.5592 25.8692 23.7825 25.6572 24.0666 25.6572H29.9624C30.5814 25.6572 31.0381 25.4837 31.3729 25.1272C32.0325 24.4238 32.0326 23.1421 31.9818 22.7085C31.9818 22.6892 31.9818 22.67 31.9818 22.6507V12.5519L18.0186 4.06239L4.05537 12.5519V22.6603C4.05537 22.7278 3.87271 24.2985 4.65408 25.1368C4.98895 25.4934 5.4456 25.6572 6.05447 25.6572H11.9503C12.2344 25.6572 12.4577 25.8692 12.4577 26.139V32.0075H12.4475Z" fill="black"/>
<path d="M32.4889 28.5962H24.0562C23.7721 28.5962 23.5488 28.3842 23.5488 28.1144C23.5488 27.8446 23.7721 27.6326 24.0562 27.6326H32.4889C32.7731 27.6326 32.9963 27.8446 32.9963 28.1144C32.9963 28.3842 32.7731 28.5962 32.4889 28.5962Z" fill="black"/>
<path d="M11.9401 28.5962H3.50738C3.22325 28.5962 3 28.3842 3 28.1144C3 27.8446 3.22325 27.6326 3.50738 27.6326H11.9401C12.2242 27.6326 12.4475 27.8446 12.4475 28.1144C12.4475 28.3842 12.2242 28.5962 11.9401 28.5962Z" fill="black"/>
<path d="M22.7981 23.4313H13.2086C12.9244 23.4313 12.7012 23.2193 12.7012 22.9495C12.7012 22.6796 12.9244 22.4677 13.2086 22.4677H22.7981C23.0823 22.4677 23.3055 22.6796 23.3055 22.9495C23.3055 23.2193 23.0823 23.4313 22.7981 23.4313Z" fill="black"/>
<path d="M22.1991 22.6892H18.0081C17.8153 22.6892 17.6327 22.5832 17.5515 22.4194L15.6031 18.6324C15.4813 18.3915 15.5828 18.1024 15.8365 17.9868C16.0902 17.8711 16.3946 17.9675 16.5164 18.2084L18.3227 21.7256H22.1991C22.4833 21.7256 22.7065 21.9376 22.7065 22.2074C22.7065 22.4772 22.4833 22.6892 22.1991 22.6892Z" fill="black"/>
<path d="M17.9983 12.0219C16.5168 12.0219 15.3193 10.8848 15.3193 9.47793C15.3193 8.07104 16.5168 6.93396 17.9983 6.93396C19.4799 6.93396 20.6773 8.07104 20.6773 9.47793C20.6773 10.8848 19.4799 12.0219 17.9983 12.0219ZM17.9983 7.89758C17.085 7.89758 16.3341 8.61066 16.3341 9.47793C16.3341 10.3452 17.085 11.0583 17.9983 11.0583C18.9116 11.0583 19.6625 10.3452 19.6625 9.47793C19.6625 8.61066 18.9116 7.89758 17.9983 7.89758Z" fill="black"/>
<path d="M25.8825 17.3989C24.5329 17.3989 23.4268 16.3582 23.4268 15.067C23.4268 13.7757 24.5227 12.735 25.8825 12.735C27.2423 12.735 28.3382 13.7757 28.3382 15.067C28.3382 16.3582 27.2423 17.3989 25.8825 17.3989ZM25.8825 13.6986C25.091 13.6986 24.4415 14.3153 24.4415 15.067C24.4415 15.8186 25.091 16.4353 25.8825 16.4353C26.674 16.4353 27.3235 15.8186 27.3235 15.067C27.3235 14.3153 26.674 13.6986 25.8825 13.6986Z" fill="black"/>
<path d="M17.9986 7.89765C17.7145 7.89765 17.4912 7.68565 17.4912 7.41584V3.48425C17.4912 3.21444 17.7145 3.00244 17.9986 3.00244C18.2827 3.00244 18.506 3.21444 18.506 3.48425V7.41584C18.506 7.68565 18.2827 7.89765 17.9986 7.89765Z" fill="black"/>
<path d="M32.4892 32.9711H3.50738C3.22325 32.9711 3 32.7591 3 32.4893C3 32.2194 3.22325 32.0074 3.50738 32.0074H32.4892C32.7733 32.0074 32.9966 32.2194 32.9966 32.4893C32.9966 32.7591 32.7733 32.9711 32.4892 32.9711Z" fill="black"/>
<path d="M21.0631 32.9807C20.9819 32.9807 20.9008 32.9807 20.8196 32.9614C20.3223 32.8939 19.9164 32.6627 19.6627 32.2869C19.0234 31.3618 19.4395 29.8778 19.4902 29.7044L20.434 25.4355C20.4441 25.3584 20.9008 22.9397 25.9036 23.1324C26.1877 23.1421 26.4008 23.3637 26.3907 23.6335C26.3805 23.9033 26.1471 24.1153 25.863 24.0961C21.8445 23.9515 21.4386 25.609 21.4284 25.6282L20.4745 29.9453C20.3731 30.2922 20.1803 31.2943 20.5151 31.7665C20.6166 31.9111 20.7485 31.9881 20.9616 32.0074C21.6111 32.0941 21.8546 31.2172 21.8648 31.2076L22.6259 28.0566C23.0115 26.4666 23.4783 25.6764 24.0465 25.6571H26.7154C28.0853 25.6571 28.1361 23.9515 28.1361 23.8841V19.6441C28.1665 18.2083 27.9839 17.476 26.9082 17.4085C25.4672 17.3218 25.0106 18.4492 24.97 18.5745L24.0465 20.6656C23.9654 20.8487 23.7827 20.9643 23.5798 20.9643H20.4441C20.2919 20.9643 20.0382 21.0125 20.0382 21.3497C20.0382 21.687 20.4441 21.7448 20.4644 21.7545H23.9248C24.4423 21.7545 24.767 21.3787 24.8584 21.2534L25.5281 19.037C25.6093 18.7865 25.8934 18.6323 26.1573 18.7094C26.4312 18.7865 26.5835 19.0467 26.5023 19.3069L25.8122 21.5907C25.8122 21.5907 25.7818 21.6677 25.7615 21.6966C25.7412 21.7352 25.1323 22.7085 23.9248 22.7085H20.3731C19.8454 22.6217 19.0234 22.2459 19.0234 21.3497C19.0234 20.3572 19.8758 20.0007 20.4441 20.0007H23.2449L24.0262 18.2469C24.2393 17.6012 25.1425 16.3293 26.9792 16.4545C29.2117 16.5991 29.1711 18.6709 29.1508 19.673V19.9332V23.913C29.1305 24.8573 28.6029 26.64 26.7154 26.64H24.219C24.1176 26.7653 23.874 27.17 23.6 28.2878L22.8288 31.4485C22.6868 32.0074 22.1388 32.9999 21.053 32.9999L21.0631 32.9807Z" fill="black"/>
</svg>
