<svg width="36" height="36" viewBox="0 0 36 36" fill="none" xmlns="http://www.w3.org/2000/svg">
<path d="M18.1479 15.142C15.3407 15.142 13.0625 12.9233 13.0625 10.1896C13.0625 10.0906 13.0625 9.97174 13.0727 9.84298C13.093 9.56565 13.3676 9.37747 13.6219 9.38737C13.9067 9.40718 14.1101 9.64489 14.0898 9.92222C14.0898 10.0213 14.0898 10.1104 14.0898 10.1698C14.0898 12.3687 15.9103 14.1515 18.158 14.1515C20.4058 14.1515 22.2263 12.3786 22.2263 10.1896C22.2263 10.0906 22.2263 9.96184 22.206 9.80337C22.1755 9.53594 22.3687 9.28833 22.6433 9.24871C22.9179 9.20909 23.1722 9.40717 23.2129 9.6746C23.2434 9.8925 23.2434 10.0609 23.2434 10.1698C23.2434 12.9134 20.9652 15.142 18.158 15.142H18.1479Z" fill="black"/>
<path d="M9.42179 23.967C9.15735 23.967 8.94377 23.7689 8.91326 23.5114C8.91326 23.452 8.78104 21.9564 8.91326 19.6486C9.06582 17.0536 11.5678 16.1324 11.6797 16.1027L16.4091 14.0524C16.6633 13.9435 16.9685 14.0524 17.0803 14.3001C17.1922 14.5477 17.0803 14.8448 16.8261 14.9538L12.0662 17.0238C11.9543 17.0635 10.0524 17.7766 9.94048 19.708C9.80826 21.9465 9.94048 23.4223 9.94048 23.4322C9.96082 23.7095 9.75741 23.9472 9.47263 23.967C9.46246 23.967 9.44211 23.967 9.43194 23.967H9.42179Z" fill="black"/>
<path d="M16.3581 19.3317C16.3581 19.3317 16.3072 19.3317 16.2767 19.3317C16.1343 19.3118 16.0021 19.2227 15.9207 19.1038L13.8053 15.7957C13.6527 15.5679 13.7341 15.2608 13.968 15.1123C14.2019 14.9736 14.5172 15.0429 14.6698 15.2707L16.47 18.0936L17.365 17.3507L15.0461 15.4193C14.8325 15.241 14.8121 14.9241 14.9952 14.7161C15.1783 14.5081 15.5038 14.4883 15.7174 14.6666L18.4939 16.9743C18.6058 17.0635 18.6669 17.2021 18.6669 17.3507C18.6669 17.4993 18.6058 17.638 18.4838 17.7271L16.6937 19.2227C16.6022 19.3019 16.4801 19.3416 16.3683 19.3416L16.3581 19.3317Z" fill="black"/>
<path d="M15.9613 23.9671C15.9613 23.9671 15.8901 23.9671 15.8596 23.9572C15.585 23.8977 15.4121 23.6402 15.463 23.3728L16.6021 18.1134C16.6631 17.846 16.9377 17.6776 17.2021 17.7271C17.4768 17.7866 17.6497 18.0441 17.5988 18.3115L16.4597 23.5709C16.4088 23.8086 16.1952 23.9671 15.9613 23.9671Z" fill="black"/>
<path d="M26.8143 23.9669C26.8143 23.9669 26.7837 23.9669 26.7736 23.9669C26.4888 23.9471 26.2854 23.6995 26.3057 23.432C26.3057 23.4221 26.4379 21.9463 26.3057 19.7079C26.1938 17.7666 24.2919 17.0633 24.2106 17.0336L19.4201 14.9536C19.1659 14.8447 19.0438 14.5475 19.1659 14.2999C19.2777 14.0523 19.5829 13.9334 19.8371 14.0523L24.597 16.1224C24.6682 16.1521 27.1804 17.0633 27.3329 19.6584C27.4652 21.9661 27.3329 23.4617 27.3329 23.5212C27.3126 23.7787 27.0888 23.9768 26.8244 23.9768L26.8143 23.9669Z" fill="black"/>
<path d="M19.867 19.3315C19.7449 19.3315 19.633 19.2919 19.5415 19.2127L17.7515 17.7171C17.6396 17.6279 17.5684 17.4893 17.5684 17.3407C17.5684 17.1921 17.6294 17.0535 17.7413 16.9643L20.5179 14.6565C20.7315 14.4783 21.0569 14.4981 21.24 14.7061C21.4231 14.9141 21.4028 15.231 21.1892 15.4093L18.8702 17.3407L19.7652 18.0836L21.5655 15.2607C21.718 15.0329 22.0333 14.9636 22.2673 15.1022C22.5114 15.2508 22.5826 15.548 22.43 15.7857L20.3145 19.0938C20.2331 19.2127 20.111 19.3018 19.9585 19.3217C19.928 19.3217 19.9076 19.3217 19.8771 19.3217L19.867 19.3315Z" fill="black"/>
<path d="M20.2733 23.9669C20.0393 23.9669 19.8258 23.8084 19.7749 23.5707L18.6358 18.3113C18.5748 18.0438 18.7578 17.7764 19.0324 17.7269C19.307 17.6774 19.5817 17.8358 19.6325 18.1132L20.7716 23.3726C20.8327 23.64 20.6496 23.9074 20.375 23.9569C20.3343 23.9569 20.3038 23.9669 20.2733 23.9669Z" fill="black"/>
<path d="M29.0719 23.957C28.7871 23.957 28.5634 23.7391 28.5634 23.4618V15.8748C28.5634 15.0725 28.3599 14.4981 27.9734 14.1613C27.4649 13.7255 26.7631 13.7948 26.7631 13.7948H21.4744C21.1896 13.7948 20.9658 13.5769 20.9658 13.2996C20.9658 13.0223 21.1896 12.8044 21.4744 12.8044H26.7021C26.7021 12.8044 27.7802 12.6756 28.6345 13.4085C29.2651 13.9434 29.5804 14.7754 29.5804 15.8748V23.4618C29.5804 23.7391 29.3567 23.957 29.0719 23.957Z" fill="black"/>
<path d="M7.2351 23.9669C6.95032 23.9669 6.72656 23.749 6.72656 23.4717V15.8847C6.72656 14.7853 7.04185 13.9533 7.67243 13.4184C8.52677 12.6855 9.62521 12.8043 9.67607 12.8142H14.8835C15.1683 12.8142 15.392 13.0321 15.392 13.3095C15.392 13.5868 15.1683 13.8047 14.8835 13.8047H9.61504C9.55402 13.8047 8.85224 13.7255 8.3437 14.1712C7.94705 14.5178 7.75378 15.0923 7.75378 15.8847V23.4717C7.75378 23.749 7.53003 23.9669 7.24525 23.9669H7.2351Z" fill="black"/>
<path d="M31.4915 27.5524H4.50854C4.22376 27.5524 4 27.3345 4 27.0571V24.7692C4 24.4918 4.22376 24.2739 4.50854 24.2739H31.4915C31.7762 24.2739 32 24.4918 32 24.7692V27.0571C32 27.3345 31.7762 27.5524 31.4915 27.5524ZM5.01707 26.5619H30.9829V25.2644H5.01707V26.5619Z" fill="black"/>
<path d="M8.52611 33.0001C8.24133 33.0001 8.01758 32.7822 8.01758 32.5048V27.0572C8.01758 26.7799 8.24133 26.562 8.52611 26.562C8.81089 26.562 9.03465 26.7799 9.03465 27.0572V32.5048C9.03465 32.7822 8.81089 33.0001 8.52611 33.0001Z" fill="black"/>
<path d="M27.7703 33.0001C27.4855 33.0001 27.2617 32.7822 27.2617 32.5048V27.0572C27.2617 26.7799 27.4855 26.562 27.7703 26.562C28.055 26.562 28.2788 26.7799 28.2788 27.0572V32.5048C28.2788 32.7822 28.055 33.0001 27.7703 33.0001Z" fill="black"/>
<path d="M13.5812 10.4965C13.5201 10.4965 13.4693 10.4965 13.4083 10.4668C13.1438 10.3777 13.0116 10.1004 13.1031 9.84283C13.1235 9.7735 13.7134 8.21846 16.2357 8.21846C18.3411 8.21846 18.9005 7.79257 19.409 6.604C19.4904 6.40591 19.6938 6.28706 19.9277 6.29696C20.1514 6.31677 20.3345 6.47525 20.3752 6.69315C20.3752 6.70305 20.6193 7.76285 21.3821 8.05999C22.5822 8.52551 23.162 9.58532 23.1823 9.63484C23.3146 9.87256 23.223 10.1796 22.9688 10.2985C22.7247 10.4272 22.4094 10.3381 22.2873 10.0904C22.2873 10.0904 21.85 9.30798 21.0058 8.98113C20.4464 8.76323 20.0701 8.34724 19.8158 7.95105C19.114 8.88209 18.0766 9.22875 16.2357 9.22875C14.3948 9.22875 14.0795 10.1598 14.0694 10.1994C13.988 10.3975 13.7948 10.5164 13.5913 10.5164L13.5812 10.4965Z" fill="black"/>
<path d="M13.1024 13.6462C13.1024 13.6462 13.0515 13.6462 13.0312 13.6462C12.543 13.6264 11.8616 13.4283 11.353 12.5864C10.6411 11.4177 11.1598 10.4767 11.6988 9.9716C11.1903 8.43637 11.2412 7.05962 11.8718 5.89087C12.7973 4.15755 14.628 3.45431 15.6349 3.19679C18.1878 2.53318 19.9778 3.72174 20.5575 4.19717C21.0559 4.14764 22.073 4.22688 23.2324 5.30649C24.4529 6.44553 24.8191 7.98076 24.3512 10.0013C24.9615 10.3678 25.5209 11.0908 25.1852 12.1011C24.9106 12.9529 24.3919 13.2897 24.0156 13.4283C23.3952 13.6462 22.6629 13.4977 21.8899 13.0123C21.656 12.8638 21.5848 12.5567 21.7373 12.3289C21.8899 12.1011 22.2052 12.0417 22.4391 12.1803C22.9273 12.4874 23.3545 12.6062 23.6596 12.4973C23.8935 12.4181 24.0766 12.1804 24.1987 11.804C24.4326 11.1007 23.7817 10.8135 23.5681 10.7442C23.3138 10.655 23.1714 10.3975 23.2426 10.1499C23.7512 8.30761 23.5071 6.96057 22.5103 6.02953C21.3915 4.97964 20.5779 5.19754 20.5474 5.20745C20.3643 5.25697 20.1609 5.20745 20.0287 5.08859C19.9676 5.02916 18.381 3.52365 15.879 4.16745C14.4348 4.54383 13.2956 5.33621 12.7566 6.3663C12.2277 7.36667 12.2277 8.58495 12.7566 9.99141C12.838 10.2093 12.7566 10.4569 12.5532 10.5758C12.4006 10.6748 11.6683 11.2097 12.2176 12.1011C12.4413 12.4775 12.7159 12.6657 13.0516 12.6756C13.4482 12.6756 13.794 12.4676 13.8652 12.3784C14.0279 12.1506 14.3432 12.1011 14.5772 12.2596C14.8009 12.4181 14.8619 12.7251 14.6992 12.943C14.4449 13.2996 13.8042 13.666 13.0922 13.666L13.1024 13.6462Z" fill="black"/>
</svg>
