<svg width="36" height="36" viewBox="0 0 36 36" fill="none" xmlns="http://www.w3.org/2000/svg">
<path d="M17.642 13.9893C14.9352 13.9893 12.7383 11.7517 12.7383 8.99465C12.7383 6.2376 14.9352 4 17.642 4C20.3489 4 22.5458 6.2376 22.5458 8.99465C22.5458 11.7517 20.3489 13.9893 17.642 13.9893ZM17.642 4.99893C15.4844 4.99893 13.719 6.78701 13.719 8.99465C13.719 11.2023 15.4746 12.9904 17.642 12.9904C19.8095 12.9904 21.565 11.2023 21.565 8.99465C21.565 6.78701 19.8095 4.99893 17.642 4.99893Z" fill="black"/>
<path d="M9.2277 22.8897C8.97271 22.8897 8.75694 22.69 8.73733 22.4302C8.73733 22.3703 8.60983 20.8619 8.73733 18.5344C8.88444 15.9172 11.2971 14.9882 11.405 14.9582L15.9654 12.8904C16.2106 12.7806 16.5049 12.8904 16.6127 13.1402C16.7206 13.3899 16.6127 13.6896 16.3675 13.7995L11.7777 15.8872C11.6698 15.9272 9.83577 16.6464 9.71808 18.5943C9.59058 20.8519 9.71808 22.3403 9.71808 22.3503C9.73769 22.63 9.54154 22.8698 9.26693 22.8897C9.25712 22.8897 9.23751 22.8897 9.2277 22.8897Z" fill="black"/>
<path d="M15.9155 18.2147C15.9155 18.2147 15.8665 18.2147 15.8371 18.2147C15.6998 18.1947 15.5723 18.1048 15.4938 17.985L13.4538 14.6485C13.3067 14.4188 13.3852 14.1091 13.6108 13.9593C13.8461 13.8094 14.1404 13.8893 14.2875 14.1191L16.0234 16.966L16.8865 16.2168L14.6504 14.2689C14.4444 14.0891 14.4248 13.7695 14.6013 13.5597C14.7779 13.3499 15.0917 13.3299 15.2977 13.5098L17.9751 15.8372C18.083 15.9271 18.1418 16.067 18.1418 16.2168C18.1418 16.3667 18.083 16.5065 17.9653 16.5964L16.2392 18.1048C16.1509 18.1847 16.0332 18.2247 15.9253 18.2247L15.9155 18.2147Z" fill="black"/>
<path d="M15.534 22.8897C15.534 22.8897 15.4654 22.8897 15.436 22.8797C15.1712 22.8198 15.0044 22.5601 15.0535 22.2904L16.1519 16.986C16.2107 16.7163 16.4755 16.5465 16.7305 16.5965C16.9953 16.6564 17.1621 16.9161 17.113 17.1858L16.0146 22.4901C15.9656 22.7299 15.7596 22.8897 15.534 22.8897Z" fill="black"/>
<path d="M25.9984 22.8898C25.9984 22.8898 25.9689 22.8898 25.9591 22.8898C25.6845 22.8698 25.4884 22.62 25.508 22.3503C25.508 22.3403 25.6355 20.8519 25.508 18.5944C25.4001 16.6365 23.5661 15.9272 23.4876 15.8973L18.8683 13.7995C18.6231 13.6896 18.5054 13.3899 18.6231 13.1402C18.731 12.8905 19.0252 12.7706 19.2704 12.8905L23.8603 14.9782C23.929 15.0082 26.3514 15.9272 26.4985 18.5444C26.626 20.8719 26.4985 22.3803 26.4985 22.4402C26.4789 22.7 26.2632 22.8997 26.0082 22.8997L25.9984 22.8898Z" fill="black"/>
<path d="M19.2995 18.2148C19.1818 18.2148 19.0739 18.1748 18.9857 18.0949L17.2596 16.5865C17.1517 16.4966 17.083 16.3567 17.083 16.2069C17.083 16.0571 17.1419 15.9172 17.2497 15.8273L19.9272 13.4998C20.1331 13.32 20.447 13.35 20.6235 13.5498C20.8 13.7595 20.7706 14.0792 20.5745 14.259L18.3384 16.2069L19.2014 16.9561L20.9374 14.1092C21.0845 13.8794 21.3787 13.7995 21.6141 13.9493C21.8396 14.0992 21.9181 14.3988 21.771 14.6386L19.731 17.975C19.6526 18.0949 19.5349 18.1848 19.3878 18.2048C19.3583 18.2048 19.3387 18.2048 19.3093 18.2048L19.2995 18.2148Z" fill="black"/>
<path d="M19.6919 22.8897C19.4663 22.8897 19.2604 22.7299 19.2113 22.4901L18.1129 17.1858C18.0541 16.9161 18.2306 16.6464 18.4954 16.5965C18.7602 16.5465 19.025 16.7163 19.074 16.986L20.1725 22.2904C20.2313 22.5601 20.0548 22.8298 19.79 22.8797C19.7606 22.8797 19.7213 22.8897 19.6919 22.8897Z" fill="black"/>
<path d="M28.175 22.8798C27.9004 22.8798 27.6846 22.66 27.6846 22.3803V14.7285C27.6846 13.9194 27.4884 13.34 27.1157 13.0004C26.6254 12.5508 25.9585 12.6308 25.9487 12.6308H20.8488C20.5742 12.6308 20.3584 12.411 20.3584 12.1313C20.3584 11.8516 20.5742 11.6318 20.8488 11.6318H25.8898C25.8898 11.6318 26.9294 11.502 27.763 12.2412C28.3711 12.7806 28.6751 13.6197 28.6751 14.7285V22.3803C28.6751 22.66 28.4594 22.8798 28.1847 22.8798H28.175Z" fill="black"/>
<path d="M7.12905 22.8897C6.85444 22.8897 6.63867 22.6699 6.63867 22.3902V14.7384C6.63867 13.6296 6.9427 12.7905 7.55076 12.2511C8.37459 11.5119 9.4338 11.6317 9.48283 11.6417H14.5043C14.7789 11.6417 14.9946 11.8615 14.9946 12.1412C14.9946 12.4209 14.7789 12.6407 14.5043 12.6407H9.42399C9.35534 12.6407 8.68843 12.5607 8.19806 13.0103C7.81557 13.3599 7.62922 13.9393 7.62922 14.7384V22.3902C7.62922 22.6699 7.41346 22.8897 7.13885 22.8897H7.12905Z" fill="black"/>
<path d="M30.5096 26.5059H4.49037C4.21576 26.5059 4 26.2862 4 26.0065V23.6989C4 23.4192 4.21576 23.1995 4.49037 23.1995H30.5096C30.7842 23.1995 31 23.4192 31 23.6989V26.0065C31 26.2862 30.7842 26.5059 30.5096 26.5059ZM4.98075 25.507H30.0193V24.1984H4.98075V25.507Z" fill="black"/>
<path d="M8.3644 31.9999C8.08979 31.9999 7.87402 31.7801 7.87402 31.5004V26.0063C7.87402 25.7266 8.08979 25.5068 8.3644 25.5068C8.63901 25.5068 8.85477 25.7266 8.85477 26.0063V31.5004C8.85477 31.7801 8.63901 31.9999 8.3644 31.9999Z" fill="black"/>
<path d="M26.9201 31.9999C26.6455 31.9999 26.4297 31.7801 26.4297 31.5004V26.0063C26.4297 25.7266 26.6455 25.5068 26.9201 25.5068C27.1947 25.5068 27.4105 25.7266 27.4105 26.0063V31.5004C27.4105 31.7801 27.1947 31.9999 26.9201 31.9999Z" fill="black"/>
</svg>
