<svg width="36" height="36" viewBox="0 0 36 36" fill="none" xmlns="http://www.w3.org/2000/svg">
<path d="M11.8004 9.17412C10.3635 9.17412 9.20605 8.00994 9.20605 6.58706C9.20605 5.16418 10.3735 4 11.8004 4C13.2272 4 14.3947 5.16418 14.3947 6.58706C14.3947 8.00994 13.2272 9.17412 11.8004 9.17412ZM11.8004 4.98507C10.9223 4.98507 10.2039 5.70149 10.2039 6.57712C10.2039 7.45274 10.9223 8.16915 11.8004 8.16915C12.6784 8.16915 13.3969 7.45274 13.3969 6.57712C13.3969 5.70149 12.6784 4.98507 11.8004 4.98507Z" fill="black"/>
<path d="M15.6016 23.4427H8.93622C7.9883 23.4427 7.24992 23.1542 6.73105 22.587C5.87294 21.6418 6.00265 20.2686 6.01263 20.2089V11.5522C6.01263 11.2736 6.23215 11.0547 6.51154 11.0547C6.79092 11.0547 7.01044 11.2736 7.01044 11.5522V20.2587C7.01044 20.3184 6.92064 21.3034 7.47941 21.9203C7.79871 22.2686 8.28765 22.4477 8.93622 22.4477H15.6016C15.881 22.4477 16.1005 22.6666 16.1005 22.9452C16.1005 23.2238 15.881 23.4427 15.6016 23.4427Z" fill="black"/>
<path d="M12.2889 32C12.0096 32 11.79 31.7811 11.79 31.5025V22.9453C11.79 22.6667 12.0096 22.4478 12.2889 22.4478C12.5683 22.4478 12.7878 22.6667 12.7878 22.9453V31.5025C12.7878 31.7811 12.5683 32 12.2889 32Z" fill="black"/>
<path d="M15.6009 31.9999H8.97547C8.69608 31.9999 8.47656 31.781 8.47656 31.5024C8.47656 31.2238 8.69608 31.0049 8.97547 31.0049H15.6009C15.8803 31.0049 16.0998 31.2238 16.0998 31.5024C16.0998 31.781 15.8803 31.9999 15.6009 31.9999Z" fill="black"/>
<path d="M29.5011 16.0497H13.8954C13.616 16.0497 13.3965 15.8308 13.3965 15.5522C13.3965 15.2736 13.616 15.0547 13.8954 15.0547H29.5011C29.7805 15.0547 30 15.2736 30 15.5522C30 15.8308 29.7805 16.0497 29.5011 16.0497Z" fill="black"/>
<path d="M25.7294 31.9999C25.45 31.9999 25.2305 31.781 25.2305 31.5024V15.5522C25.2305 15.2736 25.45 15.0547 25.7294 15.0547C26.0088 15.0547 26.2283 15.2736 26.2283 15.5522V31.5024C26.2283 31.781 26.0088 31.9999 25.7294 31.9999Z" fill="black"/>
<path d="M25.9587 31.9999H20.6903C20.4109 31.9999 20.1914 31.781 20.1914 31.5024C20.1914 31.2238 20.4109 31.0049 20.6903 31.0049H25.9587C26.2381 31.0049 26.4577 31.2238 26.4577 31.5024C26.4577 31.781 26.2381 31.9999 25.9587 31.9999Z" fill="black"/>
<path d="M19.4325 31.5224C17.8261 31.5224 17.3671 29.9005 17.3571 29.0448V22.7562C17.3571 22.7562 17.3771 22.1692 17.0278 21.801C16.7983 21.5622 16.4491 21.4428 15.9701 21.4428H11.3902C11.3902 21.4428 10.1529 21.5423 9.2948 20.7562C8.75598 20.2687 8.48657 19.5721 8.48657 18.6766V13.2737C8.48657 13.2737 8.16727 11.2239 9.87353 10.01C9.94338 9.96022 11.6796 8.70649 13.6253 10.01C15.0721 10.9652 17.0777 12.408 17.6066 12.7861H19.8616C20.4603 12.8756 21.4481 13.3234 21.4481 14.4378C21.4481 15.5523 20.4104 15.9901 19.8616 16.0597H16.1597C16.04 16.0597 15.9302 16.0199 15.8404 15.9503L14.4235 14.7463V17.6318H17.4369C17.5167 17.6318 19.1232 17.6318 20.3006 18.796C21.069 19.5522 21.4581 20.6169 21.4581 21.9403V28.9851C21.4581 29.1045 21.4581 30.2985 20.7497 31.0149C20.4104 31.3532 19.9614 31.5323 19.4525 31.5323L19.4325 31.5224ZM15.9701 20.4478C16.7285 20.4478 17.3371 20.6766 17.7562 21.1244C18.3948 21.801 18.3549 22.6866 18.3449 22.7861V29.0348C18.3449 29.0348 18.3948 30.5274 19.4226 30.5274C19.672 30.5274 19.8516 30.4577 20.0013 30.3085C20.3605 29.9502 20.4303 29.2239 20.4303 28.9751V21.9204C20.4303 20.8657 20.141 20.0498 19.5722 19.4826C18.6942 18.607 17.4469 18.607 17.417 18.607H13.8947C13.6153 18.607 13.3958 18.3881 13.3958 18.1095V13.6517C13.3958 13.4627 13.5055 13.2836 13.6852 13.204C13.8648 13.1244 14.0643 13.1542 14.214 13.2737L16.3194 15.0547H19.7718C19.7718 15.0547 20.4303 14.9353 20.4303 14.4279C20.4303 13.9204 19.8317 13.7811 19.7618 13.7712H17.4369C17.3272 13.7712 17.2274 13.7413 17.1476 13.6816C17.1276 13.6617 14.7229 11.9304 13.0665 10.8358C11.7095 9.94031 10.5021 10.7861 10.4522 10.8259C9.25487 11.6816 9.46442 13.1443 9.4744 13.204V18.6866C9.4744 19.2836 9.64402 19.7314 9.95334 20.0199C10.4922 20.5174 11.3303 20.4577 11.3403 20.4577H15.9602L15.9701 20.4478Z" fill="black"/>
<path d="M25.4798 14.5373H22.3666C22.0872 14.5373 21.8677 14.3183 21.8677 14.0397C21.8677 13.7611 22.0872 13.5422 22.3666 13.5422H25.0607L25.6694 10.2388L20.9897 10.6965L20.4309 13.393C20.371 13.6616 20.1116 13.8308 19.8422 13.781C19.5728 13.7213 19.4031 13.4626 19.453 13.194L20.0816 10.1293C20.1216 9.92035 20.3012 9.75118 20.5207 9.73128L26.2182 9.17407C26.3778 9.17407 26.5275 9.21388 26.6373 9.33328C26.747 9.45268 26.7869 9.60194 26.757 9.76115L25.9488 14.1193C25.9089 14.3581 25.6993 14.5273 25.4598 14.5273L25.4798 14.5373Z" fill="black"/>
</svg>
