<svg width="36" height="36" viewBox="0 0 36 36" fill="none" xmlns="http://www.w3.org/2000/svg">
<path d="M7 9C7.55 9 8 9.45 8 10C8 10.55 7.55 11 7 11C6.45 11 6 10.55 6 10C6 9.45 6.45 9 7 9ZM7 8C5.9 8 5 8.9 5 10C5 11.1 5.9 12 7 12C8.1 12 9 11.1 9 10C9 8.9 8.1 8 7 8Z" fill="black"/>
<path d="M9 29.5H5C4.72 29.5 4.5 29.28 4.5 29V21.5H4C3.72 21.5 3.5 21.28 3.5 21V16C3.5 14.07 5.06 12.5 6.98 12.5C8.9 12.5 10.5 14.1 10.5 16V21C10.5 21.28 10.28 21.5 10 21.5H9.5V29C9.5 29.28 9.28 29.5 9 29.5ZM5.5 28.5H8.5V21C8.5 20.72 8.72 20.5 9 20.5H9.5V16C9.5 14.65 8.34 13.5 6.98 13.5C5.62 13.5 4.5 14.62 4.5 16V20.5H5C5.28 20.5 5.5 20.72 5.5 21V28.5Z" fill="black"/>
<path d="M14.0004 31.96C13.9004 31.96 13.8004 31.93 13.7004 31.88C13.5104 31.77 13.4004 31.57 13.4004 31.36V14C13.4004 13.78 13.5204 13.57 13.7204 13.47L30.7204 4.47003C30.9004 4.37003 31.1304 4.38003 31.3104 4.49003C31.4904 4.60003 31.6004 4.79003 31.6004 5.00003V11C31.6004 11.33 31.3304 11.6 31.0004 11.6C30.6704 11.6 30.4004 11.33 30.4004 11V6.00003L14.6004 14.36V30.3L22.6904 25.48C22.9704 25.31 23.3404 25.4 23.5104 25.69C23.6804 25.97 23.5904 26.34 23.3004 26.51L14.3004 31.87C14.2104 31.93 14.1004 31.95 13.9904 31.95L14.0004 31.96Z" fill="black"/>
<path d="M31.9996 31.96C31.8896 31.96 31.7897 31.93 31.6897 31.88L22.6896 26.52C22.3996 26.35 22.3096 25.98 22.4796 25.7C22.6496 25.42 23.0196 25.32 23.2996 25.49L31.3896 30.31V14.36L15.5896 5.99997V11C15.5896 11.33 15.3197 11.6 14.9897 11.6C14.6597 11.6 14.3896 11.33 14.3896 11V4.99997C14.3896 4.78997 14.4996 4.58997 14.6796 4.48997C14.8596 4.37997 15.0796 4.37997 15.2696 4.46997L32.2696 13.47C32.4696 13.57 32.5896 13.78 32.5896 14V31.36C32.5896 31.58 32.4696 31.78 32.2896 31.88C32.1996 31.93 32.0996 31.96 31.9896 31.96H31.9996Z" fill="black"/>
<path d="M23.0004 26.6C22.6704 26.6 22.4004 26.33 22.4004 26V10C22.4004 9.67002 22.6704 9.40002 23.0004 9.40002C23.3304 9.40002 23.6004 9.67002 23.6004 10V26C23.6004 26.33 23.3304 26.6 23.0004 26.6Z" fill="black"/>
</svg>
