<svg width="24" height="24" viewBox="0 0 24 24" fill="none" xmlns="http://www.w3.org/2000/svg">
<path d="M8.256 7.20312V8.18313H5.036V10.9411H8.144V11.9211H5.036V16.5411H4V7.20312H8.256Z" fill="white"/>
<path d="M14.484 7.20312H16.164C16.682 7.20312 17.62 7.24513 18.306 7.79113C18.6 8.01513 19.146 8.58913 19.146 9.72313C19.146 10.1851 19.048 10.9971 18.222 11.5571C19.524 11.8791 20 13.0131 20 13.9091C20 14.8051 19.552 15.5331 19.048 15.9251C18.306 16.5131 17.452 16.5411 16.808 16.5411H14.484V7.20312ZM15.52 8.18313V11.3051H16.304C16.85 11.3051 18.138 11.1931 18.138 9.75113C18.138 8.21113 16.626 8.18313 16.332 8.18313H15.52ZM15.52 12.2291V15.5611H16.71C17.312 15.5611 17.9 15.5191 18.348 15.1691C18.712 14.9031 18.964 14.4411 18.964 13.8811C18.964 13.1391 18.53 12.7051 18.166 12.5091C17.816 12.3131 17.326 12.2291 16.584 12.2291H15.52Z" fill="white"/>
<path fill-rule="evenodd" clip-rule="evenodd" d="M13.4568 7.40614L9.45678 16.4061L8.54297 16L12.543 7L13.4568 7.40614Z" fill="white"/>
</svg>
