<svg width="36" height="36" viewBox="0 0 36 36" fill="none" xmlns="http://www.w3.org/2000/svg">
<path d="M19.4696 24.4445C19.2522 24.4445 19.0051 24.4042 18.7185 24.3134C18.4616 24.2327 18.3133 23.9504 18.3924 23.678C18.4715 23.4158 18.7482 23.2645 19.015 23.3452C19.6772 23.557 19.8946 23.3251 20.0329 23.0427C20.2306 22.6393 20.5172 22.4779 20.7445 22.3569C20.873 22.2863 20.9718 22.2258 21.0706 22.1249C21.1793 22.014 21.1991 21.8627 21.209 21.6106C21.2287 21.3282 21.2584 20.955 21.5648 20.6827C21.7525 20.5213 21.9008 20.0877 21.9008 19.6943C21.9008 19.5229 21.8415 19.3212 21.7822 19.1296C21.7031 18.8472 21.6241 18.585 21.6932 18.3328L21.7328 18.1815C21.8019 17.9193 21.9205 17.5159 21.7822 16.9915C21.6339 16.4065 21.6636 15.9628 21.7229 15.287L21.7624 14.7424C21.7921 14.3189 21.6241 13.8751 21.4462 13.4112C21.2782 12.9472 21.0904 12.4732 21.0904 11.9791C21.0904 11.2126 20.9421 10.7083 20.6061 10.2847C20.1911 9.77037 20.112 9.1955 20.0428 8.64081C20.0231 8.48953 20.0033 8.32816 19.9736 8.15671C19.9242 7.87432 19.8155 7.76338 19.4597 7.45074C19.2324 7.24903 18.9557 6.9969 18.6395 6.61365C18.1256 5.97828 17.8093 5.94802 17.8093 5.94802C17.7599 5.94802 17.7599 5.94802 17.7105 5.94802C17.7303 5.94802 17.4239 6.00853 16.9199 6.62374C16.6036 7.00698 16.3269 7.25912 16.0996 7.46082C15.7537 7.77347 15.6351 7.88441 15.5857 8.1668C15.5561 8.33825 15.5363 8.48953 15.5165 8.65089C15.4375 9.20559 15.3683 9.78045 14.9532 10.2948C14.6172 10.7184 14.4689 11.2227 14.4689 11.9891C14.4689 12.4934 14.2911 12.9674 14.1132 13.4213C13.9353 13.8852 13.7673 14.3289 13.7969 14.7525L13.8365 15.2971C13.8958 15.9728 13.9254 16.4065 13.7772 17.0016C13.6388 17.526 13.7574 17.9294 13.8266 18.1916L13.8661 18.3429C13.9254 18.6051 13.8562 18.8673 13.7772 19.1497C13.7179 19.3514 13.6586 19.5531 13.6586 19.7145C13.6586 20.1078 13.8068 20.5415 13.9946 20.7029C14.3108 20.9651 14.3306 21.3483 14.3504 21.6307C14.3701 21.8829 14.38 22.0341 14.4887 22.1451C14.5875 22.2459 14.6864 22.3064 14.8148 22.377C15.0421 22.4981 15.3287 22.6594 15.5264 23.0628C15.6648 23.3452 15.8822 23.5772 16.5443 23.3654C16.8013 23.2847 17.078 23.4259 17.1669 23.6982C17.246 23.9604 17.1076 24.2428 16.8408 24.3336C15.4869 24.7673 14.884 24.0109 14.6468 23.5167C14.5875 23.4057 14.5282 23.3654 14.3504 23.2645C14.1922 23.1738 13.9946 23.0628 13.787 22.8611C13.4115 22.4779 13.3818 22.014 13.3621 21.7114C13.3621 21.6206 13.3423 21.4996 13.3324 21.4593C12.8482 21.0559 12.6604 20.2692 12.6703 19.7246C12.6703 19.4119 12.7592 19.1195 12.8185 18.8774C12.8482 18.7665 12.8976 18.6051 12.8976 18.5547L12.8778 18.4841C12.7889 18.1614 12.6209 17.5562 12.8185 16.7696C12.9272 16.346 12.8976 16.0132 12.8482 15.4081L12.8086 14.8534C12.7691 14.2079 12.9865 13.6129 13.1842 13.0985C13.3324 12.7052 13.4708 12.3421 13.4708 12.0295C13.4708 11.0209 13.6882 10.3049 14.1823 9.69977C14.4195 9.40729 14.4689 9.05431 14.5282 8.56012C14.548 8.38867 14.5777 8.21722 14.6073 8.03569C14.716 7.40031 15.0718 7.08766 15.4375 6.75485C15.645 6.56323 15.8822 6.35143 16.149 6.0287C16.9199 5.08068 17.5227 5 17.7698 5C18.0169 5 18.6197 5.08068 19.3906 6.0287C19.6574 6.35143 19.8946 6.56323 20.1021 6.75485C20.4678 7.08766 20.8236 7.40031 20.9323 8.03569C20.9619 8.21722 20.9916 8.38867 21.0113 8.56012C21.0805 9.05431 21.1299 9.40729 21.3572 9.69977C21.8514 10.3049 22.0688 11.031 22.0688 12.0295C22.0688 12.3421 22.2071 12.7153 22.3554 13.0985C22.553 13.623 22.7705 14.2079 22.7309 14.8534L22.6914 15.4081C22.642 16.0132 22.6123 16.346 22.721 16.7696C22.9187 17.5562 22.7507 18.1614 22.6617 18.4841L22.6321 18.595C22.6321 18.595 22.6815 18.7766 22.7112 18.8875C22.7803 19.1296 22.8594 19.422 22.8594 19.7347C22.8594 20.2793 22.6815 21.0659 22.1676 21.4996C22.1676 21.4996 22.1676 21.6307 22.1676 21.7215C22.1478 22.024 22.1182 22.488 21.7426 22.8712C21.545 23.083 21.3375 23.1839 21.1793 23.2746C21.0014 23.3755 20.9421 23.4057 20.8828 23.5268C20.6951 23.91 20.28 24.4748 19.44 24.4748L19.4696 24.4445Z" fill="black"/>
<path d="M16.5531 28.3576C16.5531 28.3576 16.5432 28.3576 16.5333 28.3576C16.2566 28.3475 16.049 28.1155 16.0589 27.8332C16.4345 18.7563 16.642 13.6834 16.6519 13.1792C16.6815 12.0698 17.3832 11.7168 17.7588 11.6865C18.2134 11.7168 18.915 12.0698 18.9447 13.1792C18.9546 13.6632 19.1522 18.5546 19.4981 26.9356C19.508 27.2179 19.3005 27.4499 19.0238 27.46C18.7569 27.4902 18.5197 27.2583 18.5099 26.9759C18.2628 21.0356 17.9663 13.8347 17.9564 13.1993C17.9564 12.9169 17.8774 12.7657 17.7983 12.7051C17.7291 12.7657 17.6501 12.9169 17.6501 13.1993C17.6303 13.8448 17.3239 21.5399 17.0571 27.8735C17.0472 28.1458 16.8298 28.3576 16.563 28.3576H16.5531Z" fill="black"/>
<path d="M25.7443 22.8511C24.9833 22.8511 24.5979 22.3771 24.4299 22.0442C24.3904 21.9736 24.3607 21.9535 24.2026 21.8728C24.0642 21.8022 23.8765 21.7114 23.6986 21.5299C23.3428 21.187 23.3132 20.7735 23.2934 20.5213C23.2934 20.4608 23.2835 20.3802 23.2736 20.3499C22.8487 20.0373 22.6807 19.3615 22.6807 18.8875C22.6807 18.6152 22.7597 18.3631 22.819 18.1614C22.8388 18.0807 22.8783 17.9698 22.8783 17.9294C22.7894 17.6571 22.6214 17.1125 22.8091 16.4368C22.8981 16.1141 22.8783 15.8619 22.8289 15.3677L22.7894 14.9139C22.7498 14.3592 22.9475 13.865 23.1254 13.4213C23.2539 13.1086 23.3725 12.8262 23.3725 12.5943C23.3725 11.7471 23.5701 11.1319 24.0247 10.6175C24.2026 10.4058 24.2421 10.1738 24.3113 9.74012C24.3311 9.59893 24.3508 9.45773 24.3805 9.30645C24.4892 8.74167 24.8055 8.47945 25.1415 8.19706C25.3292 8.04578 25.5269 7.87433 25.7641 7.61212C26.4559 6.82546 26.9994 6.74478 27.2168 6.75486C27.4343 6.73469 27.9778 6.82546 28.6696 7.61212C28.8969 7.87433 29.1044 8.04578 29.2922 8.19706C29.6282 8.47945 29.9445 8.74167 30.0532 9.30645C30.0828 9.45773 30.1026 9.59893 30.1224 9.74012C30.1817 10.1738 30.2212 10.4158 30.409 10.6175C30.8537 11.1319 31.0612 11.7471 31.0612 12.5943C31.0612 12.8262 31.1798 13.1187 31.3083 13.4213C31.4862 13.8549 31.6838 14.3592 31.6443 14.9139L31.6048 15.3677C31.5653 15.8619 31.5356 16.1141 31.6245 16.4368C31.8123 17.1125 31.6542 17.647 31.5751 17.9092C31.5653 17.9698 31.5949 18.0807 31.6245 18.1614C31.6838 18.3631 31.7629 18.6152 31.7629 18.8875C31.7629 19.3514 31.5949 20.0373 31.1304 20.4104C31.1601 20.3902 31.1601 20.4709 31.1502 20.5213C31.1304 20.7735 31.1008 21.187 30.745 21.5299C30.5572 21.7013 30.3694 21.8022 30.241 21.8728C30.0828 21.9535 30.0532 21.9736 30.0137 22.0442C29.7962 22.4577 29.2428 23.1032 28.0272 22.7502C27.7604 22.6695 27.6122 22.3972 27.6912 22.1249C27.7703 21.8627 28.0371 21.7013 28.3039 21.782C28.9364 21.9736 29.0748 21.7114 29.144 21.5702C29.3317 21.2172 29.5986 21.076 29.7962 20.9752C29.9049 20.9147 29.9939 20.8743 30.073 20.8037C30.1421 20.7432 30.152 20.6525 30.1718 20.4508C30.1915 20.2188 30.2113 19.8658 30.5276 19.6238C30.6758 19.5128 30.7845 19.18 30.7845 18.8976C30.7845 18.7766 30.7351 18.6152 30.6857 18.4639C30.6165 18.232 30.5374 17.9899 30.6066 17.7479L30.6462 17.6269C30.7055 17.4151 30.7944 17.1125 30.6857 16.7192C30.5473 16.2149 30.5869 15.8216 30.6264 15.2871L30.6659 14.8433C30.6857 14.5307 30.5473 14.1777 30.3991 13.8146C30.241 13.4314 30.0828 13.0279 30.0828 12.5943C30.0828 11.9892 29.9642 11.616 29.6776 11.2832C29.2922 10.8394 29.223 10.3553 29.1539 9.88132C29.1341 9.76029 29.1143 9.62918 29.0946 9.49807C29.055 9.30645 28.976 9.22577 28.6795 8.98372C28.4818 8.81227 28.2249 8.61056 27.9482 8.28783C27.5133 7.79365 27.2465 7.7634 27.2465 7.7634C27.207 7.7634 26.9401 7.79365 26.5053 8.28783C26.2286 8.61056 25.9716 8.81227 25.774 8.98372C25.4775 9.22577 25.3984 9.30645 25.3589 9.49807C25.3292 9.62918 25.3194 9.76029 25.2996 9.88132C25.2304 10.3553 25.1612 10.8394 24.7758 11.2832C24.4892 11.616 24.3706 11.9892 24.3706 12.5943C24.3706 13.0279 24.2125 13.4213 24.0544 13.8146C23.9061 14.1777 23.7678 14.5307 23.7875 14.8433L23.8271 15.2871C23.8765 15.8317 23.9061 16.225 23.7678 16.7192C23.6591 17.1125 23.748 17.405 23.8073 17.6269L23.8468 17.758C23.9061 18 23.8369 18.2421 23.7678 18.474C23.7184 18.6152 23.6689 18.7867 23.6689 18.9077C23.6689 19.1901 23.7875 19.5229 23.9259 19.6338C24.2323 19.8759 24.2619 20.2289 24.2817 20.4608C24.3014 20.6625 24.3113 20.7432 24.3805 20.8138C24.4596 20.8945 24.5485 20.9348 24.6572 20.9853C24.8549 21.0861 25.1316 21.2273 25.3095 21.5803C25.3787 21.7215 25.517 21.9736 26.1495 21.7921C26.4163 21.7114 26.6832 21.8728 26.7622 22.135C26.8413 22.4073 26.6832 22.6796 26.4262 22.7603C26.1792 22.8309 25.9519 22.8611 25.7641 22.8611L25.7443 22.8511Z" fill="black"/>
<path d="M28.245 26.8146C27.9782 26.8146 27.7608 26.6028 27.7509 26.3305C27.6718 24.3538 27.3062 14.4601 27.2864 13.7238C27.2864 13.5221 27.2469 13.391 27.2074 13.3204C27.1777 13.391 27.1382 13.5221 27.1283 13.7238C27.1184 14.2785 26.901 20.1583 26.7132 24.9892C26.7033 25.2715 26.4662 25.4934 26.1993 25.4733C25.9226 25.4632 25.7151 25.2312 25.7249 24.9488C25.9028 20.1179 26.1203 14.2483 26.1301 13.6936C26.1499 12.6044 26.812 12.2615 27.1481 12.2312C27.5829 12.2615 28.2352 12.6144 28.2549 13.6936C28.2648 14.2584 28.502 20.5718 28.7194 26.2902C28.7293 26.5726 28.5218 26.8045 28.245 26.8146C28.245 26.8146 28.2352 26.8146 28.2253 26.8146H28.245Z" fill="black"/>
<path d="M6.9874 23.678C6.24619 23.678 5.87065 23.214 5.70264 22.8913C5.673 22.8308 5.64335 22.8106 5.49511 22.7299C5.36663 22.6593 5.17886 22.5686 5.00097 22.3971C4.65507 22.0643 4.62542 21.6609 4.60566 21.4088C4.60566 21.3483 4.59578 21.2676 4.58589 21.2474C4.17082 20.9549 4.0127 20.2893 4.0127 19.8355C4.0127 19.5732 4.09176 19.3312 4.15105 19.1295C4.17082 19.0488 4.21035 18.9479 4.21035 18.9076C4.12141 18.6454 3.96328 18.131 4.15105 17.4654C4.24 17.1527 4.21035 16.9208 4.17082 16.4367L4.13129 15.9929C4.09176 15.4584 4.28941 14.9743 4.45742 14.5507C4.57601 14.2583 4.6946 13.9759 4.6946 13.754C4.6946 12.927 4.89226 12.342 5.3271 11.8378C5.49511 11.6462 5.53464 11.4142 5.59393 11.0007C5.6137 10.8696 5.63347 10.7284 5.66311 10.5872C5.76194 10.0426 6.08807 9.77028 6.40432 9.50806C6.58221 9.35678 6.77986 9.19542 6.99728 8.94328C7.66931 8.1768 8.1931 8.1062 8.41052 8.1062C8.63782 8.1062 9.1616 8.1768 9.82375 8.94328C10.0412 9.19542 10.2388 9.35678 10.4167 9.50806C10.733 9.77028 11.0591 10.0426 11.1579 10.5872C11.1876 10.7284 11.2073 10.8696 11.2271 11.0007C11.2864 11.4142 11.3259 11.6462 11.4939 11.8378C11.9288 12.342 12.1264 12.9371 12.1264 13.754C12.1264 13.9759 12.2351 14.2482 12.3636 14.5507C12.5316 14.9743 12.7293 15.4584 12.6897 15.9929L12.6502 16.4367C12.6107 16.9107 12.5909 17.1527 12.67 17.4553C12.8479 18.1109 12.6996 18.6353 12.6206 18.8773C12.6107 18.9278 12.6403 19.0286 12.6601 19.1093C12.7194 19.311 12.7985 19.5531 12.7985 19.8153C12.7985 20.2691 12.6403 20.9247 12.1857 21.2877C12.2253 21.2676 12.2154 21.3382 12.2055 21.3886C12.1857 21.6306 12.1561 22.0441 11.8102 22.377C11.6323 22.5484 11.4445 22.6392 11.316 22.7098C11.1579 22.7905 11.1382 22.8106 11.1085 22.8711C10.8911 23.2746 10.3574 23.9099 9.17149 23.5569C8.90465 23.4763 8.75641 23.204 8.83547 22.9316C8.91454 22.6593 9.18137 22.5081 9.4482 22.5887C10.0412 22.7602 10.1696 22.5181 10.2388 22.3971C10.4266 22.0542 10.6835 21.913 10.8812 21.8122C10.98 21.7617 11.069 21.7214 11.1382 21.6407C11.1974 21.5903 11.2073 21.5197 11.2271 21.318C11.2469 21.086 11.2666 20.7431 11.573 20.5011C11.7114 20.3901 11.8201 20.0876 11.8201 19.8153C11.8201 19.7043 11.7706 19.543 11.7311 19.4018C11.6619 19.1698 11.5928 18.9379 11.6521 18.6958L11.6916 18.5748C11.7509 18.3731 11.8398 18.0907 11.7311 17.7175C11.5928 17.2334 11.6323 16.8502 11.6718 16.3358L11.7114 15.9022C11.7311 15.5996 11.6026 15.2668 11.4544 14.9138C11.3062 14.5406 11.148 14.1574 11.148 13.7338C11.148 13.159 11.0393 12.7959 10.7626 12.4832C10.3871 12.0597 10.3278 11.5856 10.2586 11.1217C10.2388 11.0007 10.2191 10.8797 10.1993 10.7486C10.1696 10.5771 10.1005 10.5065 9.80398 10.2645C9.60633 10.1031 9.36914 9.90139 9.10231 9.58875C8.68723 9.11474 8.44016 9.08448 8.44016 9.08448C8.40063 9.08448 8.15356 9.11474 7.73849 9.58875C7.47165 9.90139 7.22459 10.1031 7.03681 10.2645C6.74033 10.5065 6.67115 10.5771 6.64151 10.7486C6.62174 10.8797 6.60197 11.0007 6.58221 11.1217C6.51303 11.5756 6.44385 12.0496 6.07819 12.4832C5.81135 12.7959 5.69276 13.159 5.69276 13.7338C5.69276 14.1574 5.53464 14.5406 5.3864 14.9138C5.24804 15.2668 5.10968 15.5996 5.12944 15.9022L5.16898 16.3258C5.21839 16.8502 5.24804 17.2233 5.10968 17.7175C5.01085 18.0907 5.08991 18.3731 5.14921 18.5748L5.18874 18.6958C5.24804 18.9379 5.17886 19.1698 5.10968 19.4018C5.07015 19.543 5.02073 19.6943 5.02073 19.8153C5.02073 20.0876 5.12944 20.3901 5.2678 20.5011C5.57417 20.7431 5.59393 21.086 5.6137 21.318C5.63347 21.5197 5.64335 21.5903 5.70264 21.6407C5.78171 21.7113 5.86077 21.7517 5.9596 21.8122C6.15725 21.913 6.4142 22.0441 6.60197 22.3971C6.67115 22.5282 6.79963 22.7703 7.39259 22.5887C7.64954 22.5081 7.92626 22.6694 8.00532 22.9316C8.08439 23.1939 7.92626 23.4763 7.66931 23.5569C7.43212 23.6275 7.2147 23.6578 7.01705 23.6578L6.9874 23.678Z" fill="black"/>
<path d="M7.40268 27.3188C7.40268 27.3188 7.3928 27.3188 7.38291 27.3188C7.1062 27.3087 6.89866 27.0768 6.90854 26.7944C7.19514 19.3917 7.35327 15.2467 7.36315 14.813C7.38291 13.7742 8.02529 13.4414 8.36131 13.4111C8.78626 13.4414 9.42864 13.7742 9.44841 14.813C9.45829 15.4282 9.75477 23.1435 9.8536 25.4833C9.86348 25.7657 9.65594 25.9976 9.37923 26.0077C9.13216 26.0279 8.87521 25.806 8.86533 25.5236C8.77638 23.1737 8.4799 15.4585 8.46013 14.8332C8.46013 14.6819 8.43048 14.5709 8.40084 14.5003C8.37119 14.5709 8.35142 14.6718 8.34154 14.8332C8.33166 15.3879 8.08459 21.6609 7.88693 26.8347C7.87705 27.107 7.65963 27.3188 7.3928 27.3188H7.40268Z" fill="black"/>
<path d="M16.6033 31H4.5068C4.24985 31 4.04232 30.8083 4.01267 30.5461C4.01267 30.4554 3.80513 28.3677 5.07012 27.1474C5.75203 26.4817 6.70077 26.2094 7.90647 26.3405C8.5192 25.3623 9.9522 24.031 12.0078 24.4848C13.8658 24.8983 14.686 26.2901 14.9627 27.3289C15.5162 27.1877 16.3661 27.1171 17.2061 27.581C17.4433 27.7121 17.5323 28.0248 17.4038 28.2668C17.2753 28.5089 16.9689 28.5997 16.7318 28.4685C15.783 27.9441 14.8046 28.4383 14.7947 28.4383C14.6465 28.5089 14.4686 28.5089 14.3303 28.4282C14.182 28.3475 14.0931 28.1962 14.0832 28.0248C14.0832 27.9441 13.9053 25.9371 11.8003 25.4631C9.69524 24.9891 8.65756 27.0163 8.60814 27.0969C8.50932 27.2886 8.30178 27.3995 8.09424 27.3692C7.05655 27.1978 6.26593 27.3692 5.75203 27.8634C5.1393 28.4585 5.01082 29.4166 4.99106 29.9813H16.6132C16.8899 29.9813 17.1073 30.2032 17.1073 30.4856C17.1073 30.768 16.8899 30.9899 16.6132 30.9899L16.6033 31Z" fill="black"/>
<path d="M31.4869 31.0001H16.6134C16.3663 31.0001 16.1489 30.8084 16.1192 30.5462C16.1093 30.4454 15.8623 27.9543 17.8487 26.8348C18.8963 26.2499 19.845 26.3507 20.4676 26.5423C20.6653 25.5338 21.3175 24.2126 22.9284 23.7285C25.2509 23.0226 26.8914 24.6463 27.5931 25.8364C28.9569 25.6851 30.0341 25.9877 30.805 26.734C32.2182 28.1056 31.9909 30.4454 31.981 30.5462C31.9514 30.7984 31.7438 31.0001 31.4869 31.0001ZM17.0976 29.9915H31.0026C30.9927 29.3562 30.8544 28.1863 30.1132 27.4601C29.5103 26.8752 28.5912 26.6835 27.3954 26.8752C27.178 26.9054 26.9705 26.7945 26.8716 26.6029C26.8222 26.4919 25.577 23.9807 23.2051 24.6967C21.3768 25.2514 21.3867 27.1878 21.3867 27.2685C21.3867 27.45 21.2879 27.6316 21.1298 27.7223C20.9716 27.8131 20.774 27.803 20.6257 27.7022C20.5862 27.6719 19.5485 27.0365 18.333 27.7223C17.3348 28.2871 17.1273 29.3763 17.0976 29.9915Z" fill="black"/>
</svg>
