<svg width="36" height="36" viewBox="0 0 36 36" fill="none" xmlns="http://www.w3.org/2000/svg">
<path d="M22.8624 23.487C22.5743 23.487 22.3478 23.2683 22.3478 22.99C22.3478 20.8727 21.7612 19.2524 20.588 18.159C18.9208 16.5984 16.5949 16.668 16.5743 16.668H14.1454C13.8573 16.668 13.6309 16.4493 13.6309 16.1709C13.6309 15.8926 13.8573 15.6739 14.1454 15.6739H16.5537C16.6463 15.6739 19.3015 15.5845 21.2981 17.4334C22.6772 18.7157 23.377 20.5845 23.377 22.99C23.377 23.2683 23.1506 23.487 22.8624 23.487Z" fill="black"/>
<path d="M5.42962 23.487C5.14145 23.487 4.91504 23.2683 4.91504 22.99C4.91504 20.5845 5.61489 18.7157 6.99396 17.4334C8.98024 15.5845 11.6355 15.6739 11.7487 15.6739H14.1363C14.4245 15.6739 14.6509 15.8926 14.6509 16.1709C14.6509 16.4493 14.4245 16.668 14.1363 16.668H11.7281C11.7281 16.668 9.36102 16.6083 7.69378 18.159C6.53083 19.2425 5.93393 20.8727 5.93393 22.99C5.93393 23.2683 5.70751 23.487 5.41935 23.487H5.42962Z" fill="black"/>
<path d="M23.8917 23.4871H4.24505C3.95688 23.4871 3.73047 23.2684 3.73047 22.9901C3.73047 22.7117 3.95688 22.493 4.24505 22.493H23.8917C24.1799 22.493 24.4063 22.7117 24.4063 22.9901C24.4063 23.2684 24.1799 23.4871 23.8917 23.4871Z" fill="black"/>
<path d="M12.0048 24.8489C11.7166 24.8489 11.4902 24.6302 11.4902 24.3519V23.1093C11.4902 22.831 11.7166 22.6123 12.0048 22.6123C12.293 22.6123 12.5194 22.831 12.5194 23.1093V24.3519C12.5194 24.6302 12.293 24.8489 12.0048 24.8489Z" fill="black"/>
<path d="M16.2558 24.8489C15.9676 24.8489 15.7412 24.6302 15.7412 24.3519V22.9901C15.7412 22.7117 15.9676 22.493 16.2558 22.493C16.544 22.493 16.7704 22.7117 16.7704 22.9901V24.3519C16.7704 24.6302 16.544 24.8489 16.2558 24.8489Z" fill="black"/>
<path d="M23.7993 28.0001H4.32763C3.59692 28.0001 3 27.4235 3 26.7178C3 26.012 3.59692 25.4354 4.32763 25.4354H4.79073C4.77014 25.346 4.75985 25.2466 4.75985 25.1472C4.75985 24.4414 5.35678 23.8649 6.08748 23.8649H22.0395C22.7702 23.8649 23.3671 24.4414 23.3671 25.1472C23.3671 25.2466 23.3568 25.346 23.3362 25.4354H23.7993C24.53 25.4354 25.1269 26.012 25.1269 26.7178C25.1269 27.4235 24.53 28.0001 23.7993 28.0001ZM4.32763 26.4195C4.16296 26.4195 4.02916 26.5488 4.02916 26.7078C4.02916 26.8669 4.16296 26.9961 4.32763 26.9961H23.7993C23.964 26.9961 24.0978 26.8669 24.0978 26.7078C24.0978 26.5488 23.964 26.4195 23.7993 26.4195H22.0395C21.7513 26.4195 21.5249 26.2009 21.5249 25.9225C21.5249 25.6442 21.7513 25.4255 22.0395 25.4255C22.2041 25.4255 22.3379 25.2963 22.3379 25.1372C22.3379 24.9782 22.2041 24.849 22.0395 24.849H6.08748C5.92281 24.849 5.78901 24.9782 5.78901 25.1372C5.78901 25.2963 5.92281 25.4255 6.08748 25.4255C6.37564 25.4255 6.60206 25.6442 6.60206 25.9225C6.60206 26.2009 6.37564 26.4195 6.08748 26.4195H4.32763Z" fill="black"/>
<path d="M22.0392 26.4295H13.8574C13.5692 26.4295 13.3428 26.2108 13.3428 25.9324C13.3428 25.6541 13.5692 25.4354 13.8574 25.4354H22.0392C22.3274 25.4354 22.5538 25.6541 22.5538 25.9324C22.5538 26.2108 22.3274 26.4295 22.0392 26.4295Z" fill="black"/>
<path d="M15.1436 14.173H12.581C12.2928 14.173 12.0664 13.9543 12.0664 13.676C12.0664 13.3976 12.2928 13.179 12.581 13.179H15.1436C15.4317 13.179 15.6582 13.3976 15.6582 13.676C15.6582 13.9543 15.4317 14.173 15.1436 14.173Z" fill="black"/>
<path d="M13.8671 16.668C13.579 16.668 13.3525 16.4493 13.3525 16.171V13.676C13.3525 13.3976 13.579 13.179 13.8671 13.179C14.1553 13.179 14.3817 13.3976 14.3817 13.676V16.171C14.3817 16.4493 14.1553 16.668 13.8671 16.668Z" fill="black"/>
<path d="M26.6304 18.0596C23.759 18.0596 21.4229 15.8032 21.4229 13.0298C21.4229 10.2565 23.759 8 26.6304 8C29.5018 8 31.8379 10.2565 31.8379 13.0298C31.8379 15.8032 29.5018 18.0596 26.6304 18.0596ZM26.6304 9.00397C24.3251 9.00397 22.452 10.8131 22.452 13.0398C22.452 15.2664 24.3251 17.0756 26.6304 17.0756C28.9357 17.0756 30.8088 15.2664 30.8088 13.0398C30.8088 10.8131 28.9357 9.00397 26.6304 9.00397Z" fill="black"/>
<path d="M32.4851 27.7813C32.1969 27.7813 31.9705 27.5626 31.9705 27.2843C31.9705 27.1948 31.8985 18.0596 26.6189 18.0596C25.0957 18.0596 23.871 18.9344 22.9757 20.664C22.8522 20.9125 22.5434 21.0119 22.2861 20.8827C22.0288 20.7634 21.9259 20.4652 22.0597 20.2167C23.1403 18.1193 24.6738 17.0557 26.6189 17.0557C32.9276 17.0557 32.9997 26.8569 32.9997 27.2744C32.9997 27.5527 32.7733 27.7714 32.4851 27.7714V27.7813Z" fill="black"/>
<path d="M28.3173 13.2684C28.0291 13.2684 27.8027 13.0497 27.8027 12.7713V12.0755C27.8027 11.7972 28.0291 11.5785 28.3173 11.5785C28.6055 11.5785 28.8319 11.7972 28.8319 12.0755V12.7713C28.8319 13.0497 28.6055 13.2684 28.3173 13.2684Z" fill="black"/>
<path d="M24.9423 13.2684C24.6541 13.2684 24.4277 13.0497 24.4277 12.7713V12.0755C24.4277 11.7972 24.6541 11.5785 24.9423 11.5785C25.2305 11.5785 25.4569 11.7972 25.4569 12.0755V12.7713C25.4569 13.0497 25.2305 13.2684 24.9423 13.2684Z" fill="black"/>
<path d="M26.661 15.4255H26.6198C25.426 15.4056 24.5923 14.5408 24.5615 14.501C24.3659 14.3022 24.3865 13.9841 24.5924 13.7952C24.7982 13.6064 25.1275 13.6263 25.3231 13.8251C25.3231 13.8251 25.9097 14.4215 26.6507 14.4314C27.1241 14.4414 27.5358 14.2326 27.9577 13.8151C28.1532 13.6163 28.4826 13.6163 28.6884 13.8151C28.8942 14.004 28.8942 14.3221 28.6884 14.5209C28.0709 15.1273 27.3917 15.4354 26.6713 15.4354L26.661 15.4255Z" fill="black"/>
</svg>
