<svg width="36" height="36" viewBox="0 0 36 36" fill="none" xmlns="http://www.w3.org/2000/svg">
<path d="M21.6179 28.8981H14.381C14.1007 28.8981 13.8805 28.679 13.8805 28.4C13.8805 23.6483 13.4601 23.2797 12.7494 22.682L12.6093 22.5625C12.0387 22.0644 11.348 22.0445 8.78558 22.0644C8.33514 22.0644 7.82465 22.0644 7.26411 22.0644C3.94091 22.0644 3.02002 19.295 3 17.8307C3 17.7012 3.05005 17.5717 3.14014 17.4721C3.23022 17.3724 3.36035 17.3226 3.50048 17.3226H32.4984C32.6286 17.3226 32.7587 17.3724 32.8588 17.4721C32.9489 17.5717 33.0089 17.6912 32.9989 17.8307C32.9789 19.295 32.058 22.0644 28.7348 22.0644C28.1643 22.0644 27.6638 22.0644 27.2133 22.0644C24.6509 22.0445 23.9602 22.0644 23.3897 22.5625L23.2495 22.682C22.5488 23.2797 22.1184 23.6483 22.1184 28.4C22.1184 28.679 21.8982 28.8981 21.6179 28.8981ZM14.8815 27.9019H21.1175C21.1475 23.3694 21.628 22.7518 22.5889 21.9249L22.729 21.8054C23.6099 21.0383 24.5908 21.0383 27.2133 21.0583C27.6638 21.0583 28.1643 21.0583 28.7348 21.0583C31.1471 21.0583 31.7777 19.2253 31.9379 18.3088H4.06102C4.22118 19.2253 4.85178 21.0583 7.26411 21.0583C7.82465 21.0583 8.33514 21.0583 8.78558 21.0583C11.4081 21.0383 12.389 21.0383 13.2699 21.8054L13.41 21.9249C14.371 22.7518 14.8514 23.3594 14.8815 27.9019Z" fill="black"/>
<path d="M25.8521 31H10.147C9.8667 31 9.64648 30.7808 9.64648 30.5019C9.64648 30.2229 9.8667 30.0038 10.147 30.0038H25.8521C26.1324 30.0038 26.3526 30.2229 26.3526 30.5019C26.3526 30.7808 26.1324 31 25.8521 31Z" fill="black"/>
<path d="M23.55 12.0529C21.5381 12.0529 19.8965 10.469 19.8965 8.52644C19.8965 6.58391 21.5381 5 23.55 5C25.5619 5 27.2035 6.58391 27.2035 8.52644C27.2035 10.469 25.5619 12.0529 23.55 12.0529ZM23.55 6.00613C22.0886 6.00613 20.8974 7.14176 20.8974 8.5364C20.8974 9.93103 22.0886 11.0667 23.55 11.0667C25.0114 11.0667 26.2026 9.93103 26.2026 8.5364C26.2026 7.14176 25.0114 6.00613 23.55 6.00613Z" fill="black"/>
<path d="M18.2542 18.2689C17.984 18.2689 17.7638 18.0597 17.7538 17.7908C17.7538 17.6613 17.6737 14.5034 19.095 12.8C20.1761 11.5049 23.219 11.4153 23.5593 11.4153C23.8596 11.4153 24.0598 11.6344 24.0698 11.9034C24.0698 12.1823 23.8496 12.4015 23.5794 12.4115C22.4583 12.4314 20.4664 12.7302 19.8658 13.4375C18.6846 14.8521 18.7547 17.731 18.7547 17.7609C18.7547 18.0398 18.5445 18.2689 18.2743 18.2789H18.2542V18.2689Z" fill="black"/>
<path d="M28.9841 18.2689C28.9841 18.2689 28.9741 18.2689 28.9641 18.2689C28.6839 18.2689 28.4737 18.0298 28.4737 17.7609C28.4737 17.731 28.5437 14.8521 27.3626 13.4375C26.762 12.7203 24.7701 12.4314 23.649 12.4115C23.3687 12.4115 23.1485 12.1823 23.1585 11.9034C23.1585 11.6344 23.3888 11.4153 23.659 11.4153C23.9993 11.4153 27.0423 11.5049 28.1233 12.8C29.5447 14.4934 29.4646 17.6513 29.4646 17.7908C29.4646 18.0597 29.2344 18.2689 28.9641 18.2689H28.9841Z" fill="black"/>
<path d="M15.5624 16.1571H6.4536C5.60278 16.1571 4.91211 15.4697 4.91211 14.623V8.57621C4.91211 7.72947 5.60278 7.04211 6.4536 7.04211H15.5624C16.4132 7.04211 17.1039 7.72947 17.1039 8.57621V14.613C17.1039 15.4597 16.4132 16.1471 15.5624 16.1471V16.1571ZM6.4536 8.03828C6.15331 8.03828 5.91307 8.27736 5.91307 8.57621V14.613C5.91307 14.9118 6.15331 15.1509 6.4536 15.1509H15.5624C15.8627 15.1509 16.1029 14.9118 16.1029 14.613V8.57621C16.1029 8.27736 15.8627 8.03828 15.5624 8.03828H6.4536Z" fill="black"/>
<path d="M16.6036 14.4636H5.40283C5.12256 14.4636 4.90234 14.2444 4.90234 13.9655C4.90234 13.6866 5.12256 13.4674 5.40283 13.4674H16.6036C16.8839 13.4674 17.1041 13.6866 17.1041 13.9655C17.1041 14.2444 16.8839 14.4636 16.6036 14.4636Z" fill="black"/>
<path d="M12.7198 18.2689H9.3265C9.16635 18.2689 9.0162 18.1892 8.91611 18.0597C8.81601 17.9302 8.79599 17.7609 8.85605 17.6115L9.59676 15.4996C9.66683 15.3004 9.85701 15.1609 10.0672 15.1609H11.9891C12.1993 15.1609 12.3895 15.3004 12.4595 15.4996L13.1902 17.6115C13.2403 17.7609 13.2203 17.9302 13.1202 18.0597C13.0201 18.1892 12.8699 18.2689 12.7098 18.2689H12.7198ZM10.0272 17.2728H12.0091L11.6187 16.1571H10.4075L10.0172 17.2728H10.0272Z" fill="black"/>
<path d="M17.9941 25.1425C17.7141 25.1425 17.4941 24.9234 17.4941 24.6445V22.1939C17.4941 21.915 17.7141 21.6958 17.9941 21.6958C18.2741 21.6958 18.4941 21.915 18.4941 22.1939V24.6445C18.4941 24.9234 18.2741 25.1425 17.9941 25.1425Z" fill="black"/>
<path d="M17.9944 21.1578C18.3095 21.1578 18.5649 20.9036 18.5649 20.59C18.5649 20.2764 18.3095 20.0222 17.9944 20.0222C17.6793 20.0222 17.4238 20.2764 17.4238 20.59C17.4238 20.9036 17.6793 21.1578 17.9944 21.1578Z" fill="black"/>
</svg>
