<svg width="36" height="36" viewBox="0 0 36 36" fill="none" xmlns="http://www.w3.org/2000/svg">
<path d="M26.8182 32H9.0061C8.7621 32 8.54738 31.8097 8.5181 31.5594L7.6104 23.8687H7.00529C6.44896 23.8687 6 23.4081 6 22.8373V20.434C6 19.8632 6.44896 19.4026 7.00529 19.4026H28.9947C29.551 19.4026 30 19.8632 30 20.434V22.8373C30 23.4081 29.551 23.8687 28.9947 23.8687H28.1261L27.3062 31.5493C27.2769 31.7997 27.072 32 26.8182 32ZM9.43555 30.9986H26.379L27.1989 23.318C27.2281 23.0676 27.4331 22.8674 27.6869 22.8674H28.9947L29.024 20.424L28.9947 20.394H7.00529L6.97601 22.8373L8.04962 22.8674C8.29362 22.8674 8.50834 23.0576 8.53762 23.308L9.4453 30.9986H9.43555Z" fill="black"/>
<path d="M19.2142 11.6319L19.058 10.6406C19.058 10.6406 20.7758 10.3502 21.3809 10.24C21.42 10.24 21.5273 10.21 21.5468 10.0498C21.459 9.78941 21.1467 8.87815 20.3854 6.85536C19.5948 4.75246 18.1016 5.01282 18.082 5.01282C17.8185 5.06289 17.5648 4.88264 17.516 4.61227C17.4672 4.34189 17.6428 4.08153 17.9064 4.03147C18.6969 3.88126 20.4244 4.21171 21.2931 6.49486C22.2301 8.9883 22.4936 9.77939 22.5033 9.81945C22.5229 9.8595 22.5229 9.90957 22.5326 9.95964C22.5521 10.3402 22.3667 11.0912 21.5566 11.2314C20.9515 11.3415 19.224 11.6319 19.224 11.6319H19.2142Z" fill="black"/>
<path d="M16.7846 11.6319C16.7846 11.6319 15.0571 11.3415 14.452 11.2314C13.6419 11.0811 13.4564 10.3301 13.476 9.9596C13.476 9.90953 13.4857 9.86948 13.5052 9.81941C13.515 9.78937 13.7785 8.98826 14.7155 6.49482C15.5744 4.20166 17.3019 3.88122 18.1022 4.03143C18.3657 4.08149 18.5414 4.34185 18.4926 4.61223C18.4438 4.8826 18.1901 5.06285 17.9265 5.01278C17.868 5.01278 16.404 4.79247 15.6232 6.85532C14.8619 8.88812 14.5496 9.78937 14.4617 10.0497C14.4812 10.2099 14.5984 10.23 14.6374 10.24C15.2425 10.3501 16.9603 10.6405 16.9603 10.6405L16.8041 11.6319H16.7846Z" fill="black"/>
<path d="M23.7828 18.241C23.529 18.241 23.3143 18.0408 23.2948 17.7804C23.2948 17.7804 23.2265 17.0093 22.8263 15.6074C22.6018 14.7963 21.3428 14.3356 20.5913 14.1554C19.6348 16.0079 18.2098 16.5086 18.1512 16.5387C17.8877 16.6288 17.6144 16.4786 17.5364 16.2182C17.4485 15.9579 17.5949 15.6775 17.8487 15.5874C17.8975 15.5673 19.1175 15.1167 19.8788 13.3943C19.9666 13.1941 20.1813 13.0739 20.3961 13.1039C20.6889 13.154 23.285 13.5946 23.773 15.337C24.2025 16.8491 24.2708 17.6702 24.2708 17.7003C24.2903 17.9707 24.0951 18.221 23.8218 18.241C23.8121 18.241 23.7926 18.241 23.7828 18.241Z" fill="black"/>
<path d="M12.2178 18.2411C12.2178 18.2411 12.1885 18.2411 12.1788 18.2411C11.9153 18.2211 11.7103 17.9807 11.7298 17.7003C11.7298 17.6703 11.7981 16.8492 12.2276 15.3371C12.7156 13.5947 15.3117 13.1541 15.6045 13.104C15.8193 13.074 16.034 13.1841 16.1218 13.3944C16.8831 15.1268 18.1031 15.5774 18.1519 15.5974C18.4057 15.6876 18.5423 15.9679 18.4545 16.2283C18.3666 16.4887 18.0934 16.6289 17.8396 16.5387C17.7713 16.5187 16.3561 16.018 15.3996 14.1554C14.6383 14.3357 13.389 14.7963 13.1645 15.6075C12.7741 17.0094 12.7058 17.7704 12.6961 17.7804C12.6765 18.0408 12.4618 18.2411 12.2081 18.2411H12.2178Z" fill="black"/>
<path d="M17.605 24.1492C17.117 24.1492 16.7266 23.7486 16.7266 23.2479C16.7266 22.7472 17.117 22.3467 17.605 22.3467C18.093 22.3467 18.4834 22.7472 18.4834 23.2479C18.4834 23.7486 18.093 24.1492 17.605 24.1492ZM17.605 23.1478C17.5562 23.1478 17.5074 23.1878 17.5074 23.2479C17.5074 23.3581 17.7026 23.3581 17.7026 23.2479C17.7026 23.1979 17.6635 23.1478 17.605 23.1478Z" fill="black"/>
<path d="M17.9951 29.3463C17.7218 29.3463 17.5071 29.126 17.5071 28.8456V25.9015H16.697C16.4237 25.9015 16.209 25.6812 16.209 25.4008C16.209 25.1205 16.4237 24.9001 16.697 24.9001H17.9951C18.2683 24.9001 18.4831 25.1205 18.4831 25.4008V28.8456C18.4831 29.126 18.2683 29.3463 17.9951 29.3463Z" fill="black"/>
<path d="M19.2737 29.3464H16.7165C16.4432 29.3464 16.2285 29.126 16.2285 28.8457C16.2285 28.5653 16.4432 28.345 16.7165 28.345H19.2737C19.5469 28.345 19.7617 28.5653 19.7617 28.8457C19.7617 29.126 19.5469 29.3464 19.2737 29.3464Z" fill="black"/>
</svg>
