<svg width="90" height="90" viewBox="0 0 90 90" fill="none" xmlns="http://www.w3.org/2000/svg">
<path d="M68.8851 22.5749C68.8447 18.7534 68.8144 16.8027 68.1281 15.0267C67.7294 13.984 66.5991 11.4497 64.0204 9.36433C60.9421 6.87489 57.6317 6.50571 54.508 6.15649C49.9814 5.65262 46.5348 6.50071 45.4296 6.80005C44.0267 7.1792 41.2311 7.96245 38.4051 10.0079C37.1334 10.9258 37.0476 11.2401 34.9483 12.7867C32.511 14.5777 31.966 14.6475 30.9516 15.78C29.574 17.3166 29.0189 18.933 28.6808 19.9457C28.1761 21.4623 28.2821 22.0211 27.9238 25.5033C27.4141 30.4673 27.0861 30.4224 27.2728 32.0188C27.4242 33.3009 27.7119 35.7405 29.5437 37.6812C31.4563 39.7067 33.9996 40.0808 35.8113 40.3502C37.9206 40.6645 40.2066 40.3801 44.7837 39.8164C46.0301 39.6617 47.1353 39.3874 47.1605 39.4971C47.2009 39.6418 45.2076 40.2255 41.4329 41.5276C38.617 42.5004 37.1839 42.9993 36.0283 43.5581C34.5749 44.2615 32.7481 45.1595 30.8406 46.8707C29.7001 47.8934 28.7716 48.9909 28.0298 49.864C26.9852 51.0963 27.0609 51.1561 26.0819 52.3235C24.0987 54.6932 23.4629 54.8329 22.6252 56.1699C22.2063 56.8335 21.9086 57.5319 21.3282 60.2309C20.2635 65.1948 19.7286 67.6792 20.1373 71.0218C20.3795 72.9874 20.5158 74.1199 21.3282 75.402C22.8321 77.7817 25.7236 79.2285 26.1929 79.463C27.076 79.907 27.7321 80.1115 28.6808 80.8499C29.791 81.7179 29.9474 82.2717 30.7346 82.8804C31.6278 83.5738 32.6724 83.8282 34.7314 83.9479C37.855 84.1325 39.2983 83.7784 42.2958 83.6287C46.2017 83.4341 46.0755 83.9181 48.8864 83.6287C50.5971 83.4541 53.3473 83.1747 55.8049 81.9175C59.2718 80.1465 60.8563 77.0933 62.7235 73.3716C65.0751 68.677 65.8421 64.4165 66.7202 59.4825C67.1844 56.8684 67.4872 55.5463 67.4771 54.2492C67.467 52.7974 67.3711 47.3097 63.3694 43.0292C61.9009 41.4577 60.6645 40.1357 58.7217 39.8214C57.4954 39.6218 56.2439 39.8663 53.857 39.2876C53.2515 39.1379 52 38.8336 52.0201 38.5393C52.0403 38.21 53.6198 38.1002 55.4769 37.8957C60.0741 37.3968 62.3702 37.1474 63.9093 36.2943C66.4224 34.8974 67.5225 32.4678 68.0171 31.3802C68.9305 29.3597 68.9254 27.0748 68.88 22.5848L68.8851 22.5749Z" fill="#231F20"/>
</svg>
