<svg width="90" height="90" viewBox="0 0 90 90" fill="none" xmlns="http://www.w3.org/2000/svg">
<g clip-path="url(#clip0_868_105)">
<path d="M32.9664 11.8257C31.1748 13.1423 30.0252 15.7635 30.7101 17.8713C31.5172 20.3476 34.5379 21.1931 37.473 22.0085C43.4227 23.6694 48.235 22.4312 53.5793 21.0542C57.823 19.961 58.783 19.1276 59.0582 18.1914C59.5779 16.4218 57.6823 14.2415 56.1598 13.1C53.0351 10.7567 50.7421 12.2183 41.6616 11.5116C36.5497 11.113 34.8314 10.4547 32.9603 11.8317L32.9664 11.8257Z" fill="#888888"/>
<path d="M10.4452 54.1525C9.58305 54.9679 7.08211 57.4019 6.25662 61.4726C5.36386 65.8634 7.00873 69.2939 7.54683 70.381C7.93818 71.1722 9.71146 74.5664 13.6677 76.7467C16.1259 78.1057 18.3455 78.3956 22.687 78.6553C30.6729 79.1384 36.7571 78.9754 36.861 78.9754C47.7881 78.6855 53.2547 78.5405 55.5478 78.6553C56.9664 78.7277 63.2646 79.078 71.3361 78.9754C74.1978 78.9391 76.8822 78.8485 79.3893 77.0668C82.3733 74.9469 83.3027 71.7037 83.5779 70.7011C83.798 69.8857 84.6908 66.2801 82.9358 62.4268C82.0675 60.5183 80.1169 57.9575 72.9504 55.1068C68.7373 53.4338 64.5426 52.395 55.5539 51.2898C46.3512 50.1604 48.4669 50.9697 32.6785 49.7014C27.1691 49.2605 21.3784 48.7109 15.6061 50.9757C13.7839 51.6884 12.0412 52.6547 10.4513 54.1586L10.4452 54.1525Z" fill="#888888"/>
<path d="M26.8449 28.6724C24.6742 29.6086 20.9931 31.197 20.082 34.7181C19.1953 38.1365 21.3294 41.8207 23.9465 43.6265C26.3619 45.2874 28.7283 45.0337 33.2899 44.9009C40.6949 44.6895 48.1121 45.1183 55.5171 45.221C63.2095 45.3297 65.5942 45.5713 67.7588 43.6326C69.8868 41.724 71.1036 38.6257 70.6572 35.6784C69.9785 31.2332 65.8633 29.059 64.5364 28.3584C62.5674 27.3196 60.6413 26.9391 56.4832 26.77C50.1667 26.5103 48.0693 27.1203 41.343 27.4041C32.5683 27.7786 30.8012 26.9693 26.8449 28.6785V28.6724Z" fill="#888888"/>
</g>
<defs>
<clipPath id="clip0_868_105">
<rect width="78" height="68" fill="white" transform="translate(6 11)"/>
</clipPath>
</defs>
</svg>
