<svg width="36" height="36" viewBox="0 0 36 36" fill="none" xmlns="http://www.w3.org/2000/svg">
<path d="M33 33.5H3C2.72 33.5 2.5 33.28 2.5 33V27C2.5 26.72 2.72 26.5 3 26.5H22V27.5H3.5V32.5H32.5V27H33.5V33C33.5 33.28 33.28 33.5 33 33.5Z" fill="black"/>
<path d="M33 21.5H15C14.72 21.5 14.5 21.28 14.5 21V15C14.5 14.72 14.72 14.5 15 14.5H24V15.5H15.5V20.5H32.5V15H33.5V21C33.5 21.28 33.28 21.5 33 21.5Z" fill="black"/>
<path d="M33 15.5H26V14.5H32.5V9.5H21.5V14.5H24V15.5H21C20.72 15.5 20.5 15.28 20.5 15V9C20.5 8.72 20.72 8.5 21 8.5H33C33.28 8.5 33.5 8.72 33.5 9V15C33.5 15.28 33.28 15.5 33 15.5Z" fill="black"/>
<path d="M33 9.5H27C26.72 9.5 26.5 9.28 26.5 9V3C26.5 2.72 26.72 2.5 27 2.5H33C33.28 2.5 33.5 2.72 33.5 3V9C33.5 9.28 33.28 9.5 33 9.5ZM27.5 8.5H32.5V3.5H27.5V8.5Z" fill="black"/>
<path d="M13 24.5H11C10.72 24.5 10.5 24.28 10.5 24V18C10.5 17.72 10.72 17.5 11 17.5C11.28 17.5 11.5 17.72 11.5 18V23.5H13C13.28 23.5 13.5 23.72 13.5 24C13.5 24.28 13.28 24.5 13 24.5Z" fill="black"/>
<path d="M13 18.5H9C8.72 18.5 8.5 18.28 8.5 18C8.5 17.72 8.72 17.5 9 17.5H13C13.28 17.5 13.5 17.72 13.5 18C13.5 18.28 13.28 18.5 13 18.5Z" fill="black"/>
<path d="M25 30.5H23C22.72 30.5 22.5 30.28 22.5 30V24C22.5 23.72 22.72 23.5 23 23.5C23.28 23.5 23.5 23.72 23.5 24V29.5H25C25.28 29.5 25.5 29.72 25.5 30C25.5 30.28 25.28 30.5 25 30.5Z" fill="black"/>
<path d="M25 24.5H21C20.72 24.5 20.5 24.28 20.5 24C20.5 23.72 20.72 23.5 21 23.5H25C25.28 23.5 25.5 23.72 25.5 24C25.5 24.28 25.28 24.5 25 24.5Z" fill="black"/>
<path d="M27 18.5H25C24.72 18.5 24.5 18.28 24.5 18V12C24.5 11.72 24.72 11.5 25 11.5C25.28 11.5 25.5 11.72 25.5 12V17.5H27C27.28 17.5 27.5 17.72 27.5 18C27.5 18.28 27.28 18.5 27 18.5Z" fill="black"/>
<path d="M27 12.5H23C22.72 12.5 22.5 12.28 22.5 12C22.5 11.72 22.72 11.5 23 11.5H27C27.28 11.5 27.5 11.72 27.5 12C27.5 12.28 27.28 12.5 27 12.5Z" fill="black"/>
<path d="M33 27.5H24V26.5H32.5V21.5H12V20.5H33C33.28 20.5 33.5 20.72 33.5 21V27C33.5 27.28 33.28 27.5 33 27.5Z" fill="black"/>
<path d="M22 27.5H9C8.72 27.5 8.5 27.28 8.5 27V21C8.5 20.72 8.72 20.5 9 20.5H10V21.5H9.5V26.5H22V27.5Z" fill="black"/>
</svg>
