<svg width="36" height="36" viewBox="0 0 36 36" fill="none" xmlns="http://www.w3.org/2000/svg">
<path d="M13.8329 32.0316C13.5634 32.0316 13.3517 31.8044 13.3613 31.5277C13.3613 31.4487 13.4768 24.0282 11.5424 18.6531C9.38663 12.6654 2.47669 11.5291 2.40932 11.5093C2.14948 11.4698 1.96662 11.2129 2.00512 10.9461C2.04362 10.6793 2.29384 10.4916 2.55368 10.5311C2.86164 10.5805 10.0892 11.7761 12.447 18.3073C14.4488 23.8603 14.3333 31.2313 14.3237 31.5475C14.3237 31.8143 14.1023 32.0316 13.8425 32.0316H13.8329Z" fill="black"/>
<path d="M15.065 32.5454C14.7955 32.5454 14.5838 32.328 14.5838 32.0514C14.5838 31.9625 14.5645 22.7931 13.1594 17.6947C11.2539 10.788 7.44284 8.32771 7.40435 8.29807C7.17337 8.15973 7.10601 7.85343 7.24074 7.61629C7.37547 7.38904 7.67382 7.30999 7.90479 7.44832C8.07802 7.55701 12.0719 10.1062 14.0833 17.418C15.5269 22.6449 15.5461 31.666 15.5461 32.0415C15.5461 32.3182 15.3344 32.5355 15.065 32.5355V32.5454Z" fill="black"/>
<path d="M16.5847 33.0001C16.3248 33.0001 16.1035 32.7827 16.1035 32.506C15.9495 12.1616 12.5426 6.54929 12.5138 6.49989C12.3694 6.27263 12.4271 5.96633 12.6485 5.81811C12.8698 5.6699 13.1682 5.72919 13.3125 5.95644C13.4473 6.16394 16.4499 11.0154 16.9889 28.4549H20.4342V26.0341C20.4342 25.7575 20.6459 25.5401 20.9154 25.5401H25.1692V23.0403C25.1692 22.7636 25.3809 22.5462 25.6503 22.5462H30.5585C30.828 22.5462 31.0397 22.7636 31.0397 23.0403C31.0397 23.3169 30.828 23.5343 30.5585 23.5343H26.1315V26.0341C26.1315 26.3108 25.9198 26.5282 25.6503 26.5282H21.3966V28.9489C21.3966 29.2256 21.1849 29.443 20.9154 29.443H17.0658V32.4961C17.0658 32.7728 16.8541 32.9902 16.5847 32.9902V33.0001Z" fill="black"/>
<path d="M22.4276 26.538C22.4276 26.538 22.3891 26.538 22.3794 26.538C22.1196 26.5083 21.9271 26.2613 21.956 25.9945C22.264 22.9809 22.8029 20.402 23.5536 18.3172C25.9018 11.786 33.1389 10.5904 33.4469 10.541C33.7067 10.5015 33.957 10.6892 33.9955 10.956C34.034 11.2228 33.8511 11.4797 33.5913 11.5192C33.5239 11.5291 26.6139 12.6851 24.4582 18.663C23.7364 20.6688 23.2167 23.1686 22.9088 26.1032C22.8799 26.3601 22.6778 26.5478 22.4276 26.5478V26.538Z" fill="black"/>
<path d="M21.1368 26.5874C21.1368 26.5874 21.1176 26.5874 21.0983 26.5874C20.8289 26.5677 20.6364 26.3305 20.6556 26.0637C20.9058 22.4079 21.3197 19.5029 21.8875 17.4378C23.8989 10.1261 27.9024 7.57685 28.066 7.46816C28.297 7.32983 28.5857 7.399 28.7301 7.63614C28.8648 7.87328 28.7974 8.1697 28.5664 8.31791C28.528 8.33767 24.7169 10.798 22.8114 17.7145C22.2628 19.7203 21.8586 22.5561 21.6084 26.1428C21.5891 26.3997 21.3774 26.6072 21.1272 26.6072L21.1368 26.5874Z" fill="black"/>
<path d="M19.4538 29.4528H19.4442C19.1748 29.4528 18.9727 29.2156 18.9727 28.9488C19.4731 11.1042 22.5335 6.16383 22.6586 5.96621C22.803 5.73895 23.1013 5.67967 23.3226 5.82788C23.544 5.97609 23.6017 6.28239 23.4574 6.50965C23.4574 6.50965 20.4162 11.5093 19.9254 28.9785C19.9254 29.2453 19.7041 29.4626 19.4442 29.4626L19.4538 29.4528Z" fill="black"/>
<path d="M17.991 29.4528C17.7215 29.4528 17.5098 29.2354 17.5098 28.9588V4.49404C17.5098 4.21738 17.7215 4 17.991 4C18.2604 4 18.4722 4.21738 18.4722 4.49404V28.9588C18.4722 29.2354 18.2604 29.4528 17.991 29.4528Z" fill="black"/>
</svg>
