<svg width="36" height="36" viewBox="0 0 36 36" fill="none" xmlns="http://www.w3.org/2000/svg">
<path d="M13.833 30.8044C13.5635 30.8044 13.3518 30.5789 13.3614 30.3045C13.3614 30.2261 13.4769 22.8659 11.5425 17.5343C9.38672 11.605 2.4767 10.4681 2.40933 10.4485C2.14949 10.4093 1.96662 10.1545 2.00512 9.88986C2.04362 9.62525 2.29384 9.43903 2.55369 9.47824C2.86165 9.52724 10.0893 10.7131 12.4471 17.1913C14.4489 22.6993 14.3334 30.0105 14.3238 30.3241C14.3238 30.5887 14.1025 30.8044 13.8426 30.8044H13.833Z" fill="black"/>
<path d="M15.066 31.314C14.7965 31.314 14.5848 31.0984 14.5848 30.824C14.5848 30.7358 14.5656 21.6408 13.1605 16.5837C11.2549 9.73308 7.44382 7.29273 7.40532 7.26332C7.17435 7.12612 7.10698 6.8223 7.24172 6.58708C7.37645 6.35187 7.6748 6.28326 7.90578 6.42047C8.07901 6.52828 12.073 9.05684 14.0844 16.3093C15.528 21.4938 15.5472 30.4418 15.5472 30.8142C15.5472 31.0886 15.3355 31.3042 15.066 31.3042V31.314Z" fill="black"/>
<path d="M16.5954 31.7648C16.3356 31.7648 16.1142 31.5492 16.1142 31.2747C15.9603 11.0953 12.5534 5.52854 12.5245 5.47954C12.3801 5.25412 12.4379 4.9503 12.6592 4.80329C12.8806 4.65629 13.1789 4.71509 13.3233 4.9405C13.4676 5.16592 16.9227 10.6935 17.0766 31.2649C17.0766 31.5394 16.8649 31.755 16.5954 31.755V31.7648Z" fill="black"/>
<path d="M22.1575 30.8044C21.8977 30.8044 21.686 30.5887 21.6763 30.3241C21.6763 30.0203 21.5512 22.7091 23.553 17.1913C25.9013 10.7131 33.1385 9.52724 33.4465 9.47824C33.7063 9.43903 33.9565 9.62525 33.995 9.88986C34.0335 10.1545 33.8507 10.4093 33.5908 10.4485C33.5235 10.4583 26.6135 11.605 24.4577 17.5343C22.5233 22.8659 22.6387 30.2261 22.6387 30.3045C22.6387 30.5789 22.4366 30.7946 22.1672 30.8044H22.1575Z" fill="black"/>
<path d="M20.9255 31.314C20.6561 31.314 20.4443 31.0984 20.4443 30.824C20.4443 30.4417 20.4636 21.5036 21.8976 16.3191C23.909 9.0666 27.9125 6.53804 28.0762 6.43024C28.3071 6.29303 28.5958 6.36163 28.7402 6.59685C28.8846 6.83206 28.8076 7.12608 28.5766 7.27309C28.5381 7.29269 24.727 9.73304 22.8215 16.5935C21.4164 21.6506 21.3971 30.7455 21.3971 30.8338C21.3971 31.1082 21.1854 31.3238 20.9159 31.3238L20.9255 31.314Z" fill="black"/>
<path d="M19.3953 31.7647C19.1258 31.7647 18.9141 31.5393 18.9141 31.2747C19.068 10.6934 22.5231 5.17568 22.6674 4.95027C22.8118 4.72486 23.1101 4.66605 23.3315 4.81306C23.5528 4.96007 23.6106 5.26389 23.4662 5.4893C23.4181 5.56771 20.0208 11.1443 19.8765 31.2845C19.8765 31.5491 19.6551 31.7745 19.3953 31.7745V31.7647Z" fill="black"/>
<path d="M17.991 32C17.7215 32 17.5098 31.7844 17.5098 31.51V3.49003C17.5098 3.21561 17.7215 3 17.991 3C18.2604 3 18.4722 3.21561 18.4722 3.49003V31.51C18.4722 31.7844 18.2604 32 17.991 32Z" fill="black"/>
</svg>
