<svg width="90" height="90" viewBox="0 0 90 90" fill="none" xmlns="http://www.w3.org/2000/svg">
<path d="M66.5499 78.6269H55.1644C55.1644 78.6269 55.8669 52.9691 51.371 48.6006C46.8751 44.2321 43.0765 42.8908 40.2665 43.3866C37.4566 43.8824 35.2554 47.7551 35.6301 69.2792L36.0048 79.9004H23.9168C23.9168 79.9004 22.1372 47.2906 26.3521 40.9022C30.567 34.5139 36.0984 30.375 41.531 30.375C46.9635 30.375 58.9578 33.5692 61.6741 43.9085C64.3904 54.2478 67.3877 65.4275 66.5447 78.6321L66.5499 78.6269Z" fill="#575757"/>
<path d="M83.2272 78.8659C83.2272 78.8659 72.9188 82.0601 70.6709 78.8659C70.6709 78.8659 73.6682 26.6161 46.6875 23.9856C19.7016 21.3551 19.889 45.9743 19.889 45.9743L18.9523 80.2855C18.9523 80.2855 9.95531 81.8931 6.39605 80.2855C6.39605 80.2855 2.64946 33.9439 18.203 19.6588C33.7566 5.37379 44.0649 8.00431 55.6793 12.8947C67.299 17.7799 88.2851 39.9617 83.2272 78.8659Z" fill="#575757"/>
</svg>
