<svg width="90" height="90" viewBox="0 0 90 90" fill="none" xmlns="http://www.w3.org/2000/svg">
<path d="M66.5494 78.6269H55.1639C55.1639 78.6269 55.8664 52.9691 51.3705 48.6006C46.8746 44.2321 43.076 42.8908 40.266 43.3866C37.4561 43.8824 35.255 47.7551 35.6296 69.2792L36.0043 79.9004H23.9163C23.9163 79.9004 22.1367 47.2906 26.3516 40.9022C30.5665 34.5139 36.0979 30.375 41.5305 30.375C46.9631 30.375 58.9573 33.5692 61.6736 43.9085C64.3899 54.2478 67.3872 65.4275 66.5442 78.6321L66.5494 78.6269Z" fill="#231F20"/>
<path d="M83.2272 78.8659C83.2272 78.8659 72.9188 82.0601 70.6709 78.8659C70.6709 78.8659 73.6682 26.6161 46.6875 23.9856C19.7016 21.3551 19.889 45.9743 19.889 45.9743L18.9523 80.2855C18.9523 80.2855 9.95531 81.8931 6.39605 80.2855C6.39605 80.2855 2.64946 33.9439 18.203 19.6588C33.7566 5.37379 44.0649 8.00431 55.6793 12.8947C67.299 17.7799 88.2851 39.9617 83.2272 78.8659Z" fill="#231F20"/>
</svg>
