<svg width="36" height="36" viewBox="0 0 36 36" fill="none" xmlns="http://www.w3.org/2000/svg">
<path d="M29.5 8.5H15.5V2.5H29.5V8.5ZM16.5 7.5H28.5V3.5H16.5V7.5Z" fill="black"/>
<path d="M29.5 33.5H15.5V27.5H29.5V33.5ZM16.5 32.5H28.5V28.5H16.5V32.5Z" fill="black"/>
<path d="M28.5 28.5H16.5V20.5H15V19.5H17.5V27.5H27.5V8.5H17.5V16.5H15V15.5H16.5V7.5H28.5V28.5Z" fill="black"/>
<path d="M9 22.5C6.52 22.5 4.5 20.48 4.5 18C4.5 15.52 6.52 13.5 9 13.5C11.48 13.5 13.5 15.52 13.5 18C13.5 20.48 11.48 22.5 9 22.5ZM9 14.5C7.07 14.5 5.5 16.07 5.5 18C5.5 19.93 7.07 21.5 9 21.5C10.93 21.5 12.5 19.93 12.5 18C12.5 16.07 10.93 14.5 9 14.5Z" fill="black"/>
<path d="M9 24.5C5.42 24.5 2.5 21.58 2.5 18C2.5 14.42 5.42 11.5 9 11.5C12.58 11.5 15.5 14.42 15.5 18C15.5 21.58 12.58 24.5 9 24.5ZM9 12.5C5.97 12.5 3.5 14.97 3.5 18C3.5 21.03 5.97 23.5 9 23.5C12.03 23.5 14.5 21.03 14.5 18C14.5 14.97 12.03 12.5 9 12.5Z" fill="black"/>
<path d="M9 19C9.55228 19 10 18.5523 10 18C10 17.4477 9.55228 17 9 17C8.44772 17 8 17.4477 8 18C8 18.5523 8.44772 19 9 19Z" fill="black"/>
<path d="M8.99988 18.5C8.81988 18.5 8.63987 18.4 8.54987 18.22L7.54987 16.22C7.42987 15.97 7.52987 15.67 7.76987 15.55C8.01987 15.43 8.31989 15.53 8.43989 15.77L9.43989 17.77C9.55989 18.02 9.45988 18.32 9.21988 18.44C9.14988 18.48 9.06988 18.49 8.99988 18.49V18.5Z" fill="black"/>
</svg>
