<svg width="36" height="36" viewBox="0 0 36 36" fill="none" xmlns="http://www.w3.org/2000/svg">
<path d="M18.0059 12.9996C16.725 12.9996 15.6924 11.9092 15.6924 10.5799C15.6924 9.25059 16.725 8.16016 18.0059 8.16016C19.2868 8.16016 20.3194 9.24021 20.3194 10.5799C20.3194 11.9196 19.2868 12.9996 18.0059 12.9996ZM18.0059 9.19867C17.2811 9.19867 16.6853 9.82177 16.6853 10.5799C16.6853 11.338 17.2811 11.9611 18.0059 11.9611C18.7307 11.9611 19.3265 11.338 19.3265 10.5799C19.3265 9.82177 18.7307 9.19867 18.0059 9.19867Z" fill="black"/>
<path d="M15.3941 17.2471C15.1161 17.2471 14.8976 17.0082 14.9076 16.7174C14.9076 16.5305 15.0168 12.1272 17.9658 12.1272C20.4679 12.1272 21.1232 15.1389 21.1232 16.7278C21.1232 17.0186 20.9048 17.2471 20.6268 17.2471C20.3488 17.2471 20.1303 17.0186 20.1303 16.7278C20.1303 16.6966 20.1005 13.1657 17.9658 13.1657C15.9899 13.1657 15.9005 16.6966 15.9005 16.7382C15.9005 17.0186 15.6721 17.2471 15.404 17.2471H15.3941Z" fill="black"/>
<path d="M9.58556 24.2466C7.89759 24.2466 6.52734 22.8135 6.52734 21.0376C6.52734 19.2618 7.89759 17.8286 9.58556 17.8286C11.2735 17.8286 12.6537 19.2618 12.6537 21.0376C12.6537 22.8135 11.2835 24.2466 9.58556 24.2466ZM9.58556 18.8775C8.4437 18.8775 7.52027 19.8537 7.52027 21.048C7.52027 22.2423 8.45363 23.2185 9.58556 23.2185C10.7175 23.2185 11.6608 22.2423 11.6608 21.048C11.6608 19.8537 10.7274 18.8775 9.58556 18.8775Z" fill="black"/>
<path d="M12.8026 30H6.49754C6.36846 30 6.23939 29.9481 6.1401 29.8442C6.05074 29.7404 5.99115 29.6157 6.00108 29.4704C6.00108 29.2107 6.13017 23.1978 9.58554 23.1978C13.2494 23.1978 13.2891 29.2211 13.2891 29.4807C13.2891 29.7715 13.0707 30 12.7927 30H12.8026ZM7.03373 28.9615H12.2863C12.1969 27.6322 11.76 24.2363 9.59548 24.2363C7.61957 24.2363 7.14295 27.6322 7.03373 28.9615Z" fill="black"/>
<path d="M17.9656 24.2466C16.2776 24.2466 14.8975 22.8135 14.8975 21.0376C14.8975 19.2618 16.2677 17.8286 17.9656 17.8286C19.6635 17.8286 21.0238 19.2618 21.0238 21.0376C21.0238 22.8135 19.6536 24.2466 17.9656 24.2466ZM17.9656 18.8775C16.8237 18.8775 15.8904 19.8537 15.8904 21.048C15.8904 22.2423 16.8237 23.2185 17.9656 23.2185C19.1074 23.2185 20.0308 22.2423 20.0308 21.048C20.0308 19.8537 19.0975 18.8775 17.9656 18.8775Z" fill="black"/>
<path d="M21.1727 30H14.8677C14.7386 30 14.6095 29.9481 14.5102 29.8442C14.4208 29.7404 14.3613 29.6157 14.3712 29.4704C14.3712 29.2107 14.5003 23.1978 17.9556 23.1978C21.6195 23.1978 21.6592 29.2211 21.6592 29.4807C21.6592 29.7715 21.4408 30 21.1628 30H21.1727ZM15.4038 28.9615H20.6564C20.567 27.6322 20.1301 24.2363 17.9656 24.2363C15.9897 24.2363 15.513 27.6322 15.4038 28.9615Z" fill="black"/>
<path d="M26.3064 24.2466C24.6184 24.2466 23.2383 22.8135 23.2383 21.0376C23.2383 19.2618 24.6085 17.8286 26.3064 17.8286C28.0043 17.8286 29.3745 19.2618 29.3745 21.0376C29.3745 22.8135 28.0043 24.2466 26.3064 24.2466ZM26.3064 18.8775C25.1645 18.8775 24.2312 19.8537 24.2312 21.048C24.2312 22.2423 25.1645 23.2185 26.3064 23.2185C27.4483 23.2185 28.3816 22.2423 28.3816 21.048C28.3816 19.8537 27.4483 18.8775 26.3064 18.8775Z" fill="black"/>
<path d="M29.5135 30H23.2085C23.0794 30 22.9503 29.9481 22.851 29.8442C22.7616 29.7404 22.7021 29.6157 22.712 29.4704C22.712 29.2107 22.8411 23.1978 26.2964 23.1978C29.9603 23.1978 30.0001 29.2211 30.0001 29.4807C30.0001 29.7715 29.7816 30 29.5036 30H29.5135ZM23.7447 28.9615H28.9972C28.9078 27.6322 28.471 24.2363 26.3064 24.2363C24.3305 24.2363 23.8539 27.6322 23.7447 28.9615Z" fill="black"/>
<path d="M27.2099 17.2471H8.80115C8.52313 17.2471 8.30469 17.0186 8.30469 16.7278V6.51926C8.30469 6.22847 8.52313 6 8.80115 6H27.2099C27.4879 6 27.7064 6.22847 27.7064 6.51926V16.7278C27.7064 17.0186 27.4879 17.2471 27.2099 17.2471ZM9.29761 16.2086H26.7135V7.03851H9.29761V16.2086Z" fill="black"/>
</svg>
