<svg width="36" height="36" viewBox="0 0 36 36" fill="none" xmlns="http://www.w3.org/2000/svg">
<path d="M17.9909 13.53C16.7303 13.53 15.6963 12.49 15.6963 11.2C15.6963 9.91 16.7205 8.87 17.9909 8.87C19.2613 8.87 20.2855 9.91 20.2855 11.2C20.2855 12.49 19.2613 13.53 17.9909 13.53ZM17.9909 9.87C17.272 9.87 16.6811 10.47 16.6811 11.2C16.6811 11.93 17.272 12.53 17.9909 12.53C18.7098 12.53 19.3007 11.93 19.3007 11.2C19.3007 10.47 18.7098 9.87 17.9909 9.87Z" fill="black"/>
<path d="M15.8247 17.46C15.5489 17.46 15.3323 17.23 15.3421 16.95C15.3421 16.77 15.4406 12.53 18.0011 12.53C20.7192 12.53 20.7487 16.78 20.7487 16.96C20.7487 17.24 20.5321 17.46 20.2563 17.46C19.9806 17.46 19.7639 17.24 19.7639 16.96C19.7639 16.93 19.7147 13.53 18.0011 13.53C16.4254 13.53 16.3269 16.93 16.3269 16.96C16.3269 17.23 16.1004 17.45 15.8345 17.45L15.8247 17.46Z" fill="black"/>
<path d="M26.4899 19.51C25.2294 19.51 24.1953 18.47 24.1953 17.18C24.1953 15.89 25.2294 14.85 26.4899 14.85C27.7505 14.85 28.7845 15.89 28.7845 17.18C28.7845 18.47 27.7603 19.51 26.4899 19.51ZM26.4899 15.85C25.771 15.85 25.1801 16.45 25.1801 17.18C25.1801 17.91 25.771 18.51 26.4899 18.51C27.2088 18.51 27.7997 17.91 27.7997 17.18C27.7997 16.45 27.2088 15.85 26.4899 15.85Z" fill="black"/>
<path d="M28.7453 23.44H24.3236C24.1955 23.44 24.0675 23.39 23.969 23.29C23.8804 23.2 23.8213 23.07 23.8311 22.93C23.8311 22.75 23.9296 18.51 26.4901 18.51C29.2082 18.51 29.2377 22.76 29.2377 22.94C29.2377 23.07 29.1885 23.2 29.09 23.29C28.9915 23.38 28.8734 23.44 28.7453 23.44ZM24.8553 22.44H28.2234C28.1348 21.49 27.7999 19.51 26.4901 19.51C25.2887 19.51 24.944 21.48 24.8455 22.44H24.8553Z" fill="black"/>
<path d="M9.56023 19.51C8.29968 19.51 7.26562 18.47 7.26562 17.18C7.26562 15.89 8.29968 14.85 9.56023 14.85C10.8208 14.85 11.8548 15.89 11.8548 17.18C11.8548 18.47 10.8306 19.51 9.56023 19.51ZM9.56023 15.85C8.84132 15.85 8.25043 16.45 8.25043 17.18C8.25043 17.91 8.84132 18.51 9.56023 18.51C10.2791 18.51 10.87 17.91 10.87 17.18C10.87 16.45 10.2791 15.85 9.56023 15.85Z" fill="black"/>
<path d="M11.8156 23.44H7.39386C7.26584 23.44 7.13781 23.39 7.03933 23.29C6.9507 23.2 6.89161 23.07 6.90146 22.93C6.90146 22.75 6.99994 18.51 9.56044 18.51C12.2785 18.51 12.3081 22.76 12.3081 22.94C12.3081 23.07 12.2588 23.2 12.1603 23.29C12.0619 23.38 11.9437 23.44 11.8156 23.44ZM7.92566 22.44H11.2937C11.2051 21.49 10.8702 19.51 9.56044 19.51C8.35897 19.51 8.01429 21.48 7.91581 22.44H7.92566Z" fill="black"/>
<path d="M7.65984 28C6.39928 28 5.36523 26.96 5.36523 25.67C5.36523 24.38 6.38944 23.34 7.65984 23.34C8.93024 23.34 9.95444 24.38 9.95444 25.67C9.95444 26.96 8.92039 28 7.65984 28ZM7.65984 24.34C6.94093 24.34 6.35004 24.94 6.35004 25.67C6.35004 26.4 6.94093 27 7.65984 27C8.37875 27 8.96963 26.4 8.96963 25.67C8.96963 24.94 8.37875 24.34 7.65984 24.34Z" fill="black"/>
<path d="M9.91526 31.93H5.49347C5.36545 31.93 5.23742 31.88 5.13894 31.78C5.05031 31.69 4.99122 31.56 5.00107 31.42C5.00107 31.24 5.09955 27 7.66005 27C10.3781 27 10.4077 31.25 10.4077 31.43C10.4077 31.56 10.3584 31.69 10.2599 31.78C10.1615 31.87 10.0433 31.93 9.91526 31.93ZM6.02527 30.93H9.39331C9.30468 29.98 8.96984 28 7.66005 28C6.45858 28 6.1139 29.97 6.01542 30.93H6.02527Z" fill="black"/>
<path d="M28.2526 28C26.9921 28 25.958 26.96 25.958 25.67C25.958 24.38 26.9921 23.34 28.2526 23.34C29.5132 23.34 30.5472 24.38 30.5472 25.67C30.5472 26.96 29.523 28 28.2526 28ZM28.2526 24.34C27.5337 24.34 26.9428 24.94 26.9428 25.67C26.9428 26.4 27.5337 27 28.2526 27C28.9715 27 29.5624 26.4 29.5624 25.67C29.5624 24.94 28.9715 24.34 28.2526 24.34Z" fill="black"/>
<path d="M30.508 31.93H26.0862C25.9582 31.93 25.8302 31.88 25.7317 31.78C25.6431 31.69 25.584 31.56 25.5938 31.42C25.5938 31.24 25.6923 27 28.2528 27C30.9709 27 31.0004 31.25 31.0004 31.43C31.0004 31.56 30.9512 31.69 30.8527 31.78C30.7542 31.87 30.6361 31.93 30.508 31.93ZM26.618 30.93H29.9861C29.8975 29.98 29.5626 28 28.2528 28C27.0514 28 26.7067 29.97 26.6082 30.93H26.618Z" fill="black"/>
<path d="M26.303 31.93H9.95514C9.80742 31.93 9.6597 31.86 9.57107 31.74C9.48244 31.62 9.44305 31.46 9.47259 31.32L12.7422 16.85C12.7914 16.62 12.9884 16.46 13.2247 16.46H23.0334C23.2599 16.46 23.4667 16.62 23.5159 16.85L26.7855 31.32C26.8151 31.47 26.7855 31.62 26.687 31.74C26.5885 31.86 26.4507 31.93 26.303 31.93ZM10.5657 30.93H25.6825L22.6395 17.46H13.6186L10.5756 30.93H10.5657Z" fill="black"/>
<path d="M27.2586 14.83H19.7248C19.449 14.83 19.2324 14.61 19.2324 14.33C19.2324 14.05 19.449 13.83 19.7248 13.83H26.7662V5H9.49262V13.83H16.3567C16.6325 13.83 16.8491 14.05 16.8491 14.33C16.8491 14.61 16.6325 14.83 16.3567 14.83H9.00022C8.72447 14.83 8.50781 14.61 8.50781 14.33V4.5C8.50781 4.22 8.72447 4 9.00022 4H27.2586C27.5343 4 27.751 4.22 27.751 4.5V14.33C27.751 14.61 27.5343 14.83 27.2586 14.83Z" fill="black"/>
</svg>
