<svg width="36" height="36" viewBox="0 0 36 36" fill="none" xmlns="http://www.w3.org/2000/svg">
<path d="M28.2202 22.2407C26.3556 22.2407 24.8418 20.6846 24.8418 18.7677C24.8418 16.8509 26.3556 15.2948 28.2202 15.2948C30.0849 15.2948 31.5987 16.8509 31.5987 18.7677C31.5987 20.6846 30.0849 22.2407 28.2202 22.2407ZM28.2202 16.3253C26.907 16.3253 25.8443 17.4177 25.8443 18.7677C25.8443 20.1178 26.907 21.2101 28.2202 21.2101C29.5335 21.2101 30.5962 20.1178 30.5962 18.7677C30.5962 17.4177 29.5335 16.3253 28.2202 16.3253Z" fill="black"/>
<path d="M7.71927 22.2407C5.8546 22.2407 4.34082 20.6846 4.34082 18.7677C4.34082 16.8509 5.8546 15.2948 7.71927 15.2948C9.58393 15.2948 11.0977 16.8509 11.0977 18.7677C11.0977 20.6846 9.58393 22.2407 7.71927 22.2407ZM7.71927 16.3253C6.40598 16.3253 5.34333 17.4177 5.34333 18.7677C5.34333 20.1178 6.40598 21.2101 7.71927 21.2101C9.03255 21.2101 10.0952 20.1178 10.0952 18.7677C10.0952 17.4177 9.03255 16.3253 7.71927 16.3253Z" fill="black"/>
<path d="M24.2007 31.7321H18.1556C17.8748 31.7321 17.6543 31.5054 17.6543 31.2168C17.6543 30.9282 17.8748 30.7015 18.1556 30.7015H23.93L26.9776 25.961C27.128 25.724 27.4388 25.6621 27.6693 25.8167C27.8999 25.9713 27.9601 26.2908 27.8097 26.5278L24.6117 31.5054C24.5215 31.6496 24.3611 31.7321 24.1906 31.7321H24.2007Z" fill="black"/>
<path d="M31.5083 31.9897C31.2276 31.9897 31.007 31.763 31.007 31.4744V24.9716C31.007 24.8892 30.7965 22.2407 28.2201 22.2407C25.9644 22.2407 23.8892 26.569 23.2777 28.2385C23.2075 28.4446 23.0171 28.5683 22.8065 28.5683H18.2552C17.9745 28.5683 17.7539 28.3415 17.7539 28.053C17.7539 27.7644 17.9745 27.5377 18.2552 27.5377H22.4657C23.0171 26.1671 25.2126 21.1998 28.21 21.1998C31.0371 21.1998 31.9293 23.6422 31.9995 24.9304V31.4641C31.9995 31.7526 31.779 31.9794 31.4983 31.9794L31.5083 31.9897Z" fill="black"/>
<path d="M4.50125 31.9897C4.22055 31.9897 4 31.763 4 31.4745V24.9717C4.0802 23.6526 4.96241 21.2102 7.78947 21.2102C10.797 21.2102 12.9925 26.1775 13.5338 27.5481H17.7444C17.8346 27.5481 18.8371 27.5275 19.5088 28.187C19.8596 28.5374 20.0501 29.0218 20.0501 29.5886C20.0501 31.2477 18.6065 31.7115 17.8546 31.7321H11.7995C11.6291 31.7321 11.4787 31.6497 11.3784 31.5054L8.18045 26.5278C8.03008 26.2908 8.09023 25.9713 8.3208 25.8168C8.55138 25.6622 8.86216 25.724 9.01253 25.961L12.0602 30.7016H17.8346C18.0251 30.7016 19.0376 30.6088 19.0376 29.5886C19.0376 29.3 18.9574 29.0836 18.807 28.929C18.5063 28.6198 17.9449 28.5683 17.7544 28.5786H13.183C12.9724 28.5786 12.782 28.4447 12.7118 28.2489C12.1003 26.5794 10.0251 22.2511 7.76942 22.2511C5.17293 22.2511 4.98246 24.8996 4.98246 25.0129V31.4848C4.98246 31.7733 4.76191 32 4.4812 32L4.50125 31.9897Z" fill="black"/>
<path d="M12.7419 16.7376C12.6216 16.7376 12.4913 16.686 12.401 16.5933C12.2507 16.449 12.2005 16.2326 12.2707 16.0368L13.173 13.5738C11.7795 12.5226 11.0176 11.152 11.0176 9.69893C11.0176 6.55576 14.6667 4 19.1479 4C23.6291 4 27.2782 6.55576 27.2782 9.69893C27.2782 12.8421 23.6291 15.3979 19.1479 15.3979C18.2256 15.3979 17.3133 15.2845 16.4311 15.0681L12.9424 16.686C12.8722 16.717 12.802 16.7273 12.7319 16.7273L12.7419 16.7376ZM19.1579 5.03055C15.2281 5.03055 12.0301 7.12256 12.0301 9.69893C12.0301 10.915 12.7519 12.0692 14.0652 12.9555C14.2657 13.0894 14.3459 13.3471 14.2557 13.5635L13.6441 15.233L16.1404 14.0685C16.2507 14.0066 16.381 13.986 16.5113 14.0169C17.3634 14.2436 18.2557 14.357 19.1579 14.357C23.0878 14.357 26.2857 12.265 26.2857 9.68862C26.2857 7.11225 23.0878 5.02024 19.1579 5.02024V5.03055Z" fill="black"/>
<path d="M22.7763 9.01883H15.1673C14.8866 9.01883 14.666 8.79211 14.666 8.50356C14.666 8.215 14.8866 7.98828 15.1673 7.98828H22.7763C23.057 7.98828 23.2775 8.215 23.2775 8.50356C23.2775 8.79211 23.057 9.01883 22.7763 9.01883Z" fill="black"/>
<path d="M21.8851 11.4406H16.0706C15.7899 11.4406 15.5693 11.2139 15.5693 10.9253C15.5693 10.6368 15.7899 10.41 16.0706 10.41H21.8851C22.1658 10.41 22.3864 10.6368 22.3864 10.9253C22.3864 11.2139 22.1658 11.4406 21.8851 11.4406Z" fill="black"/>
</svg>
