<svg width="24" height="24" viewBox="0 0 24 24" fill="none" xmlns="http://www.w3.org/2000/svg">
<path fill-rule="evenodd" clip-rule="evenodd" d="M3.64645 3.64645C3.84171 3.45118 4.15829 3.45118 4.35355 3.64645L8.35355 7.64645C8.54882 7.84171 8.54882 8.15829 8.35355 8.35355C8.15829 8.54882 7.84171 8.54882 7.64645 8.35355L3.64645 4.35355C3.45118 4.15829 3.45118 3.84171 3.64645 3.64645Z" fill="white"/>
<path fill-rule="evenodd" clip-rule="evenodd" d="M3.64645 9.64645C3.84171 9.45118 4.15829 9.45118 4.35355 9.64645L8.35355 13.6464C8.54882 13.8417 8.54882 14.1583 8.35355 14.3536C8.15829 14.5488 7.84171 14.5488 7.64645 14.3536L3.64645 10.3536C3.45118 10.1583 3.45118 9.84171 3.64645 9.64645Z" fill="white"/>
<path fill-rule="evenodd" clip-rule="evenodd" d="M3.64645 15.6464C3.84171 15.4512 4.15829 15.4512 4.35355 15.6464L8.35355 19.6464C8.54882 19.8417 8.54882 20.1583 8.35355 20.3536C8.15829 20.5488 7.84171 20.5488 7.64645 20.3536L3.64645 16.3536C3.45118 16.1583 3.45118 15.8417 3.64645 15.6464Z" fill="white"/>
<path fill-rule="evenodd" clip-rule="evenodd" d="M9.64645 3.64645C9.84171 3.45118 10.1583 3.45118 10.3536 3.64645L14.3536 7.64645C14.5488 7.84171 14.5488 8.15829 14.3536 8.35355C14.1583 8.54882 13.8417 8.54882 13.6464 8.35355L9.64645 4.35355C9.45118 4.15829 9.45118 3.84171 9.64645 3.64645Z" fill="white"/>
<path fill-rule="evenodd" clip-rule="evenodd" d="M9.64645 9.64645C9.84171 9.45118 10.1583 9.45118 10.3536 9.64645L14.3536 13.6464C14.5488 13.8417 14.5488 14.1583 14.3536 14.3536C14.1583 14.5488 13.8417 14.5488 13.6464 14.3536L9.64645 10.3536C9.45118 10.1583 9.45118 9.84171 9.64645 9.64645Z" fill="white"/>
<path fill-rule="evenodd" clip-rule="evenodd" d="M9.64645 15.6464C9.84171 15.4512 10.1583 15.4512 10.3536 15.6464L14.3536 19.6464C14.5488 19.8417 14.5488 20.1583 14.3536 20.3536C14.1583 20.5488 13.8417 20.5488 13.6464 20.3536L9.64645 16.3536C9.45118 16.1583 9.45118 15.8417 9.64645 15.6464Z" fill="white"/>
<path fill-rule="evenodd" clip-rule="evenodd" d="M15.6464 3.64645C15.8417 3.45118 16.1583 3.45118 16.3536 3.64645L20.3536 7.64645C20.5488 7.84171 20.5488 8.15829 20.3536 8.35355C20.1583 8.54882 19.8417 8.54882 19.6464 8.35355L15.6464 4.35355C15.4512 4.15829 15.4512 3.84171 15.6464 3.64645Z" fill="white"/>
<path fill-rule="evenodd" clip-rule="evenodd" d="M15.6464 9.64645C15.8417 9.45118 16.1583 9.45118 16.3536 9.64645L20.3536 13.6464C20.5488 13.8417 20.5488 14.1583 20.3536 14.3536C20.1583 14.5488 19.8417 14.5488 19.6464 14.3536L15.6464 10.3536C15.4512 10.1583 15.4512 9.84171 15.6464 9.64645Z" fill="white"/>
<path fill-rule="evenodd" clip-rule="evenodd" d="M15.6464 15.6464C15.8417 15.4512 16.1583 15.4512 16.3536 15.6464L20.3536 19.6464C20.5488 19.8417 20.5488 20.1583 20.3536 20.3536C20.1583 20.5488 19.8417 20.5488 19.6464 20.3536L15.6464 16.3536C15.4512 16.1583 15.4512 15.8417 15.6464 15.6464Z" fill="white"/>
<path fill-rule="evenodd" clip-rule="evenodd" d="M5.35355 6.64645C5.54882 6.84171 5.54882 7.15829 5.35355 7.35355L4.35355 8.35355C4.15829 8.54882 3.84171 8.54882 3.64645 8.35355C3.45118 8.15829 3.45118 7.84171 3.64645 7.64645L4.64645 6.64645C4.84171 6.45118 5.15829 6.45118 5.35355 6.64645Z" fill="white"/>
<path fill-rule="evenodd" clip-rule="evenodd" d="M5.35355 12.6464C5.54882 12.8417 5.54882 13.1583 5.35355 13.3536L4.35355 14.3536C4.15829 14.5488 3.84171 14.5488 3.64645 14.3536C3.45118 14.1583 3.45118 13.8417 3.64645 13.6464L4.64645 12.6464C4.84171 12.4512 5.15829 12.4512 5.35355 12.6464Z" fill="white"/>
<path fill-rule="evenodd" clip-rule="evenodd" d="M5.35355 18.6464C5.54882 18.8417 5.54882 19.1583 5.35355 19.3536L4.35355 20.3536C4.15829 20.5488 3.84171 20.5488 3.64645 20.3536C3.45118 20.1583 3.45118 19.8417 3.64645 19.6464L4.64645 18.6464C4.84171 18.4512 5.15829 18.4512 5.35355 18.6464Z" fill="white"/>
<path fill-rule="evenodd" clip-rule="evenodd" d="M11.3536 6.64645C11.5488 6.84171 11.5488 7.15829 11.3536 7.35355L10.3536 8.35355C10.1583 8.54882 9.84171 8.54882 9.64645 8.35355C9.45118 8.15829 9.45118 7.84171 9.64645 7.64645L10.6464 6.64645C10.8417 6.45118 11.1583 6.45118 11.3536 6.64645Z" fill="white"/>
<path fill-rule="evenodd" clip-rule="evenodd" d="M11.3536 12.6464C11.5488 12.8417 11.5488 13.1583 11.3536 13.3536L10.3536 14.3536C10.1583 14.5488 9.84171 14.5488 9.64645 14.3536C9.45118 14.1583 9.45118 13.8417 9.64645 13.6464L10.6464 12.6464C10.8417 12.4512 11.1583 12.4512 11.3536 12.6464Z" fill="white"/>
<path fill-rule="evenodd" clip-rule="evenodd" d="M11.3536 18.6464C11.5488 18.8417 11.5488 19.1583 11.3536 19.3536L10.3536 20.3536C10.1583 20.5488 9.84171 20.5488 9.64645 20.3536C9.45118 20.1583 9.45118 19.8417 9.64645 19.6464L10.6464 18.6464C10.8417 18.4512 11.1583 18.4512 11.3536 18.6464Z" fill="white"/>
<path fill-rule="evenodd" clip-rule="evenodd" d="M17.3536 6.64645C17.5488 6.84171 17.5488 7.15829 17.3536 7.35355L16.3536 8.35355C16.1583 8.54882 15.8417 8.54882 15.6464 8.35355C15.4512 8.15829 15.4512 7.84171 15.6464 7.64645L16.6464 6.64645C16.8417 6.45118 17.1583 6.45118 17.3536 6.64645Z" fill="white"/>
<path fill-rule="evenodd" clip-rule="evenodd" d="M17.3536 12.6464C17.5488 12.8417 17.5488 13.1583 17.3536 13.3536L16.3536 14.3536C16.1583 14.5488 15.8417 14.5488 15.6464 14.3536C15.4512 14.1583 15.4512 13.8417 15.6464 13.6464L16.6464 12.6464C16.8417 12.4512 17.1583 12.4512 17.3536 12.6464Z" fill="white"/>
<path fill-rule="evenodd" clip-rule="evenodd" d="M17.3536 18.6464C17.5488 18.8417 17.5488 19.1583 17.3536 19.3536L16.3536 20.3536C16.1583 20.5488 15.8417 20.5488 15.6464 20.3536C15.4512 20.1583 15.4512 19.8417 15.6464 19.6464L16.6464 18.6464C16.8417 18.4512 17.1583 18.4512 17.3536 18.6464Z" fill="white"/>
<path fill-rule="evenodd" clip-rule="evenodd" d="M8.35355 3.64645C8.54882 3.84171 8.54882 4.15829 8.35355 4.35355L7.35355 5.35355C7.15829 5.54882 6.84171 5.54882 6.64645 5.35355C6.45118 5.15829 6.45118 4.84171 6.64645 4.64645L7.64645 3.64645C7.84171 3.45118 8.15829 3.45118 8.35355 3.64645Z" fill="white"/>
<path fill-rule="evenodd" clip-rule="evenodd" d="M8.35355 9.64645C8.54882 9.84171 8.54882 10.1583 8.35355 10.3536L7.35355 11.3536C7.15829 11.5488 6.84171 11.5488 6.64645 11.3536C6.45118 11.1583 6.45118 10.8417 6.64645 10.6464L7.64645 9.64645C7.84171 9.45118 8.15829 9.45118 8.35355 9.64645Z" fill="white"/>
<path fill-rule="evenodd" clip-rule="evenodd" d="M8.35355 15.6464C8.54882 15.8417 8.54882 16.1583 8.35355 16.3536L7.35355 17.3536C7.15829 17.5488 6.84171 17.5488 6.64645 17.3536C6.45118 17.1583 6.45118 16.8417 6.64645 16.6464L7.64645 15.6464C7.84171 15.4512 8.15829 15.4512 8.35355 15.6464Z" fill="white"/>
<path fill-rule="evenodd" clip-rule="evenodd" d="M14.3536 3.64645C14.5488 3.84171 14.5488 4.15829 14.3536 4.35355L13.3536 5.35355C13.1583 5.54882 12.8417 5.54882 12.6464 5.35355C12.4512 5.15829 12.4512 4.84171 12.6464 4.64645L13.6464 3.64645C13.8417 3.45118 14.1583 3.45118 14.3536 3.64645Z" fill="white"/>
<path fill-rule="evenodd" clip-rule="evenodd" d="M14.3536 9.64645C14.5488 9.84171 14.5488 10.1583 14.3536 10.3536L13.3536 11.3536C13.1583 11.5488 12.8417 11.5488 12.6464 11.3536C12.4512 11.1583 12.4512 10.8417 12.6464 10.6464L13.6464 9.64645C13.8417 9.45118 14.1583 9.45118 14.3536 9.64645Z" fill="white"/>
<path fill-rule="evenodd" clip-rule="evenodd" d="M14.3536 15.6464C14.5488 15.8417 14.5488 16.1583 14.3536 16.3536L13.3536 17.3536C13.1583 17.5488 12.8417 17.5488 12.6464 17.3536C12.4512 17.1583 12.4512 16.8417 12.6464 16.6464L13.6464 15.6464C13.8417 15.4512 14.1583 15.4512 14.3536 15.6464Z" fill="white"/>
<path fill-rule="evenodd" clip-rule="evenodd" d="M20.3536 3.64645C20.5488 3.84171 20.5488 4.15829 20.3536 4.35355L19.3536 5.35355C19.1583 5.54882 18.8417 5.54882 18.6464 5.35355C18.4512 5.15829 18.4512 4.84171 18.6464 4.64645L19.6464 3.64645C19.8417 3.45118 20.1583 3.45118 20.3536 3.64645Z" fill="white"/>
<path fill-rule="evenodd" clip-rule="evenodd" d="M20.3536 9.64645C20.5488 9.84171 20.5488 10.1583 20.3536 10.3536L19.3536 11.3536C19.1583 11.5488 18.8417 11.5488 18.6464 11.3536C18.4512 11.1583 18.4512 10.8417 18.6464 10.6464L19.6464 9.64645C19.8417 9.45118 20.1583 9.45118 20.3536 9.64645Z" fill="white"/>
<path fill-rule="evenodd" clip-rule="evenodd" d="M20.3536 15.6464C20.5488 15.8417 20.5488 16.1583 20.3536 16.3536L19.3536 17.3536C19.1583 17.5488 18.8417 17.5488 18.6464 17.3536C18.4512 17.1583 18.4512 16.8417 18.6464 16.6464L19.6464 15.6464C19.8417 15.4512 20.1583 15.4512 20.3536 15.6464Z" fill="white"/>
</svg>
