<svg width="24" height="24" viewBox="0 0 24 24" fill="none" xmlns="http://www.w3.org/2000/svg">
<path d="M18.0107 12.8077L17.8412 13.2062L17.813 13.2192C17.933 13.0102 18.0107 12.7816 18.0178 12.5333L18.0673 10.6716C18.6041 10.4299 18.9643 9.92033 18.9784 9.32587L18.9926 7.1832C19.0067 6.52995 18.597 5.94202 17.9754 5.71992L13.5043 4.09332C13.137 3.96267 12.7415 3.9692 12.36 4.11292L7.26028 6.34051C6.65989 6.56915 6.27141 7.12441 6.27141 7.75806V9.22788L5.93943 9.42386C5.3673 9.66556 5 10.2078 5 10.8218V12.8926C5 13.5197 5.38849 14.0815 5.98887 14.3102L6.33498 14.4408C6.29966 14.5715 6.27141 14.7087 6.27141 14.8393V16.9101C6.27141 17.5372 6.65989 18.0925 7.26735 18.3277L11.3924 19.8955C11.576 19.9673 11.7738 20 11.9645 20C12.1552 20 12.353 19.9673 12.5437 19.8889L17.9966 17.7855C18.5829 17.5634 18.9714 17.0212 18.9855 16.4006L18.9996 14.2579C19.0137 13.5851 18.6323 13.0102 18.0249 12.7946L18.0107 12.8077ZM7.40155 7.84952L11.4206 9.38466V11.6972L7.69115 10.2796C7.51456 10.2143 7.39449 10.0314 7.39449 9.82887V7.84952H7.40155ZM17.8624 7.25506V9.3128C17.8483 9.50878 17.7282 9.68516 17.5587 9.75048L12.5508 11.6776V9.35853L17.8624 7.24853V7.25506ZM11.9645 12.9253C12.1623 12.9253 12.353 12.8926 12.5437 12.8142L16.93 11.1223L16.8947 12.5072C16.8947 12.7032 16.7747 12.8796 16.6051 12.9449L11.5972 14.872V12.873C11.7173 12.8992 11.8444 12.9188 11.9645 12.9188V12.9253ZM12.8192 5.07973C12.8686 5.06013 12.911 5.0536 12.9604 5.0536C13.0028 5.0536 13.0523 5.06013 13.0946 5.07973L16.9512 6.48422L11.9574 8.46358L8.27034 7.05908L12.8192 5.07973ZM6.12308 12.8926V10.8218C6.12308 10.6324 6.22903 10.4625 6.39149 10.3907C6.54688 10.7761 6.85061 11.0962 7.26735 11.253L10.4671 12.468V14.8981L6.41974 13.3499C6.24315 13.2846 6.12308 13.1017 6.12308 12.8992V12.8926ZM7.69115 17.3674C7.51456 17.3021 7.39449 17.1192 7.39449 16.9167V14.9373L11.4135 16.4724V18.785L7.68408 17.3674H7.69115ZM17.5516 16.8383L12.5437 18.7654V16.4463L17.8554 14.3363V16.3941C17.8412 16.59 17.7211 16.7664 17.5516 16.8317V16.8383Z" fill="white"/>
</svg>
