<svg width="24" height="24" viewBox="0 0 24 24" fill="none" xmlns="http://www.w3.org/2000/svg">
<path d="M12 4L5 6.45068V17.5557L8.47528 19.2109C9.57719 19.737 10.7851 20 12 20C13.2149 20 14.4157 19.737 15.5247 19.2109L19 17.5557V6.45068L12 4ZM17.0646 6.8741L14.995 7.86207C13.116 8.75381 10.8769 8.75381 9.00505 7.86207L6.93542 6.8741L12 5.09703L17.0646 6.8741ZM14.995 18.3063C13.116 19.2045 10.8769 19.1981 9.00505 18.3063L6.13017 16.9334V7.65678L8.47528 8.77306C9.57719 9.29912 10.7851 9.56215 12 9.56215C13.2149 9.56215 14.4157 9.29912 15.5247 8.77306L17.8698 7.65678V16.9399L14.995 18.3128V18.3063Z" fill="white"/>
</svg>
