<svg width="24" height="24" viewBox="0 0 24 24" fill="none" xmlns="http://www.w3.org/2000/svg">
<path d="M18.004 12.9756L17.8274 13.3626L17.7992 13.3755C17.9263 13.1627 18.0182 12.924 18.0252 12.666L18.0817 10.5438C18.0959 9.93106 17.7144 9.37634 17.1282 9.13122C17.1493 9.02802 17.1776 8.91836 17.1776 8.80871V6.88651C17.1776 6.26728 16.7891 5.71901 16.1887 5.4868L12.5792 4.10643C12.2048 3.96452 11.7952 3.96452 11.4208 4.10643L5.9889 6.17053C5.3885 6.39629 5 6.94457 5 7.57025V9.615C5 9.86011 5.0777 10.0859 5.18365 10.2923C5.07064 10.4987 5 10.7245 5 10.9696V13.0143C5 13.2594 5.0777 13.4852 5.18365 13.6916C5.07064 13.898 5 14.1238 5 14.3689V16.4201C5 17.0393 5.3885 17.5876 5.9889 17.8198L11.4208 19.8903C11.6044 19.9613 11.8022 20 12 20C12.1978 20 12.3885 19.9677 12.5792 19.8903L18.0111 17.8198C18.6115 17.594 19 17.0458 19 16.4201V14.3689C19 13.7496 18.6115 13.2014 18.0111 12.9692L18.004 12.9756ZM9.48537 8.93126V11.2147L6.42684 10.0601C6.25025 9.99556 6.13017 9.81496 6.13017 9.615V7.66055L9.48537 8.92481V8.93126ZM16.0545 6.97037V8.80871C16.0545 9.00867 15.9344 9.18928 15.7578 9.25378L10.6085 11.2147V8.93771L16.0474 6.97037H16.0545ZM11.5974 12.6918L16.9516 10.6083L16.8951 12.6402C16.8951 12.8337 16.775 13.0079 16.6054 13.0724L11.5974 14.9752V12.6853V12.6918ZM10.4672 12.7111V14.9946L6.41978 13.4658C6.24319 13.4013 6.12311 13.2207 6.12311 13.0208V11.0663L10.4601 12.7111H10.4672ZM11.8517 5.06108C11.9011 5.04173 11.9435 5.03528 11.9929 5.03528C12.0424 5.03528 12.0918 5.04173 12.1342 5.06108L15.115 6.19633L10.0505 8.02822L7.03431 6.88651L11.8517 5.05463V5.06108ZM6.41978 16.8651C6.24319 16.8006 6.13017 16.62 6.13017 16.4201V14.4656L11.4349 16.4846V18.768L6.42684 16.8587L6.41978 16.8651ZM17.5732 16.8651L12.5651 18.7744V16.491L17.8698 14.4721V16.4265C17.8698 16.6265 17.7497 16.8071 17.5732 16.8716V16.8651Z" fill="white"/>
</svg>
