<svg width="36" height="36" viewBox="0 0 36 36" fill="none" xmlns="http://www.w3.org/2000/svg">
<path d="M32.9995 32H31.99V18.0404H4.65493V32H3.64551V17.031H32.9995V32Z" fill="black"/>
<path d="M20.5135 17.7678C20.2309 17.7678 20.0088 17.5457 20.0088 17.2631V11.4087C20.0088 11.1261 20.2309 10.9041 20.5135 10.9041C20.7961 10.9041 21.0182 11.1261 21.0182 11.4087V17.2631C21.0182 17.5457 20.7961 17.7678 20.5135 17.7678Z" fill="black"/>
<path d="M22.7853 17.7679C22.5027 17.7679 22.2806 17.5458 22.2806 17.2632V15.6179H20.5242C20.2416 15.6179 20.0195 15.3958 20.0195 15.1132C20.0195 14.8306 20.2416 14.6085 20.5242 14.6085H22.7853C23.068 14.6085 23.29 14.8306 23.29 15.1132V17.2632C23.29 17.5458 23.068 17.7679 22.7853 17.7679Z" fill="black"/>
<path d="M28.9617 17.7678C28.6791 17.7678 28.457 17.5457 28.457 17.2631V11.4087C28.457 11.1261 28.6791 10.9041 28.9617 10.9041C29.2444 10.9041 29.4665 11.1261 29.4665 11.4087V17.2631C29.4665 17.5457 29.2444 17.7678 28.9617 17.7678Z" fill="black"/>
<path d="M26.702 17.7679C26.4193 17.7679 26.1973 17.5458 26.1973 17.2632V15.1132C26.1973 14.8306 26.4193 14.6085 26.702 14.6085H28.9631C29.2457 14.6085 29.4678 14.8306 29.4678 15.1132C29.4678 15.3958 29.2457 15.6179 28.9631 15.6179H27.2067V17.2632C27.2067 17.5458 26.9846 17.7679 26.702 17.7679Z" fill="black"/>
<path d="M27.2259 13.8313H22.1688C21.8861 13.8313 21.6641 13.6092 21.6641 13.3266C21.6641 13.044 21.8861 12.8219 22.1688 12.8219H27.2259C27.5086 12.8219 27.7307 13.044 27.7307 13.3266C27.7307 13.6092 27.5086 13.8313 27.2259 13.8313Z" fill="black"/>
<path d="M24.703 17.7678C24.4203 17.7678 24.1982 17.5458 24.1982 17.2631V13.3266C24.1982 13.044 24.4203 12.8219 24.703 12.8219C24.9856 12.8219 25.2077 13.044 25.2077 13.3266V17.2631C25.2077 17.5458 24.9856 17.7678 24.703 17.7678Z" fill="black"/>
<path d="M8.7024 31.142H6.16877C5.88613 31.142 5.66406 30.9199 5.66406 30.6373V19.3323C5.66406 19.0497 5.88613 18.8276 6.16877 18.8276H8.7024C8.98503 18.8276 9.20711 19.0497 9.20711 19.3323V30.6373C9.20711 30.9199 8.98503 31.142 8.7024 31.142ZM6.67348 30.1326H8.19769V19.837H6.67348V30.1326Z" fill="black"/>
<path d="M13.0335 31.142H10.4998C10.2172 31.142 9.99512 30.9199 9.99512 30.6373V19.3323C9.99512 19.0497 10.2172 18.8276 10.4998 18.8276H13.0335C13.3161 18.8276 13.5382 19.0497 13.5382 19.3323V30.6373C13.5382 30.9199 13.3161 31.142 13.0335 31.142ZM11.0045 30.1326H12.5288V19.837H11.0045V30.1326Z" fill="black"/>
<path d="M17.3538 31.142H14.8201C14.5375 31.142 14.3154 30.9199 14.3154 30.6373V19.3323C14.3154 19.0497 14.5375 18.8276 14.8201 18.8276H17.3538C17.6364 18.8276 17.8585 19.0497 17.8585 19.3323V30.6373C17.8585 30.9199 17.6364 31.142 17.3538 31.142ZM15.3248 30.1326H16.8491V19.837H15.3248V30.1326Z" fill="black"/>
<path d="M21.6848 31.142H19.1512C18.8686 31.142 18.6465 30.9199 18.6465 30.6373V19.3323C18.6465 19.0497 18.8686 18.8276 19.1512 18.8276H21.6848C21.9675 18.8276 22.1896 19.0497 22.1896 19.3323V30.6373C22.1896 30.9199 21.9675 31.142 21.6848 31.142ZM19.6559 30.1326H21.1801V19.837H19.6559V30.1326Z" fill="black"/>
<path d="M26.0052 31.142H23.4715C23.1889 31.142 22.9668 30.9199 22.9668 30.6373V19.3323C22.9668 19.0497 23.1889 18.8276 23.4715 18.8276H26.0052C26.2878 18.8276 26.5099 19.0497 26.5099 19.3323V30.6373C26.5099 30.9199 26.2878 31.142 26.0052 31.142ZM23.9762 30.1326H25.5005V19.837H23.9762V30.1326Z" fill="black"/>
<path d="M30.3352 31.142H27.8016C27.5189 31.142 27.2969 30.9199 27.2969 30.6373V19.3323C27.2969 19.0497 27.5189 18.8276 27.8016 18.8276H30.3352C30.6179 18.8276 30.8399 19.0497 30.8399 19.3323V30.6373C30.8399 30.9199 30.6179 31.142 30.3352 31.142ZM28.3063 30.1326H29.8305V19.837H28.3063V30.1326Z" fill="black"/>
<path d="M15.6789 13.5689C14.6695 13.5689 13.761 12.9733 13.2462 11.9942C12.3276 11.4694 11.7422 10.4297 11.7422 9.3093C11.7422 8.3504 12.1561 7.46215 12.8627 6.88681C13.004 5.27181 14.2153 4 15.6789 4C17.1426 4 18.3842 5.30209 18.5053 6.94737C19.1715 7.52271 19.5551 8.39077 19.5551 9.3093C19.5551 10.3994 19.0201 11.3785 18.152 11.9337C17.6473 12.9531 16.7186 13.5789 15.689 13.5789L15.6789 13.5689ZM15.6789 4.99928C14.6897 4.99928 13.8721 5.96828 13.862 7.14924C13.862 7.31074 13.7812 7.47224 13.6399 7.56309C13.0847 7.93655 12.7516 8.59265 12.7516 9.29921C12.7516 10.1067 13.1857 10.8435 13.8519 11.1665C13.9528 11.217 14.0437 11.3079 14.0942 11.4088C14.4172 12.1154 15.0228 12.5595 15.689 12.5595C16.3552 12.5595 16.9811 12.1053 17.3041 11.3684C17.3445 11.2675 17.4252 11.1766 17.5262 11.1262C18.1621 10.783 18.5558 10.0764 18.5558 9.29921C18.5558 8.61283 18.2429 7.96683 17.718 7.59337C17.5867 7.50252 17.506 7.35112 17.506 7.18962C17.506 5.98846 16.6883 4.99928 15.6789 4.99928Z" fill="black"/>
<path d="M15.6375 14.8003C15.3549 14.8003 15.1328 14.5782 15.1328 14.2956V7.57317C15.1328 7.29054 15.3549 7.06848 15.6375 7.06848C15.9202 7.06848 16.1422 7.29054 16.1422 7.57317V14.2956C16.1422 14.5782 15.9202 14.8003 15.6375 14.8003Z" fill="black"/>
<path d="M15.6375 10.7123C15.5063 10.7123 15.375 10.6619 15.2741 10.5609L14.0628 9.32948C13.871 9.12761 13.871 8.8147 14.0628 8.61283C14.2647 8.42105 14.5776 8.42105 14.7795 8.61283L15.9908 9.84426C16.1825 10.0461 16.1825 10.359 15.9908 10.5609C15.8898 10.6619 15.7687 10.7022 15.6375 10.7022V10.7123Z" fill="black"/>
<path d="M15.6381 12.0649C15.5069 12.0649 15.3756 12.0144 15.2747 11.9135C15.0829 11.7116 15.0829 11.3987 15.2747 11.1968L16.5163 9.96537C16.7182 9.77359 17.0311 9.77359 17.233 9.96537C17.4248 10.1672 17.4248 10.4801 17.233 10.682L15.9914 11.9135C15.8904 12.0144 15.7693 12.0649 15.6381 12.0649Z" fill="black"/>
<path d="M6.93673 15.5574C5.93741 15.5574 5.01886 14.9618 4.50406 13.9828C3.58548 13.4579 3 12.4182 3 11.2978C3 10.3389 3.41388 9.45067 4.12047 8.87533C4.26179 7.26033 5.47307 5.98853 6.93673 5.98853C8.40039 5.98853 9.642 7.29062 9.76313 8.93589C10.4293 9.51124 10.8129 10.3793 10.8129 11.2978C10.8129 12.3879 10.2779 13.367 9.40982 13.9222C8.90511 14.9417 7.97645 15.5675 6.94684 15.5675L6.93673 15.5574ZM6.93673 6.9878C5.9475 6.9878 5.12988 7.9568 5.11979 9.13777C5.11979 9.29927 5.03903 9.46077 4.89771 9.55161C4.34253 9.92508 4.00942 10.5812 4.00942 11.2877C4.00942 12.0952 4.44347 12.8321 5.10968 13.1551C5.21063 13.2055 5.3015 13.2964 5.35197 13.3973C5.67498 14.1039 6.28062 14.548 6.94684 14.548C7.61305 14.548 8.2389 14.0938 8.56191 13.3569C8.60229 13.256 8.68305 13.1652 8.78399 13.1147C9.41992 12.7715 9.81359 12.0649 9.81359 11.2877C9.81359 10.6014 9.50068 9.95536 8.97578 9.58189C8.84456 9.49105 8.76381 9.33964 8.76381 9.17814C8.76381 7.97699 7.94615 6.9878 6.93673 6.9878Z" fill="black"/>
<path d="M6.90705 18.0404C6.62442 18.0404 6.40234 17.8184 6.40234 17.5357V9.56169C6.40234 9.27907 6.62442 9.05701 6.90705 9.05701C7.18969 9.05701 7.41176 9.27907 7.41176 9.56169V17.5357C7.41176 17.8184 7.18969 18.0404 6.90705 18.0404Z" fill="black"/>
<path d="M6.90701 12.7009C6.77579 12.7009 6.64458 12.6504 6.54364 12.5494L5.33232 11.318C5.14053 11.1161 5.14053 10.8032 5.33232 10.6014C5.5342 10.4096 5.84715 10.4096 6.04903 10.6014L7.26031 11.8328C7.4521 12.0347 7.4521 12.3476 7.26031 12.5494C7.15937 12.6504 7.03824 12.6908 6.90701 12.6908V12.7009Z" fill="black"/>
<path d="M6.90566 14.0534C6.77443 14.0534 6.64322 14.0029 6.54228 13.902C6.35049 13.7001 6.35049 13.3872 6.54228 13.1853L7.78388 11.9539C7.98576 11.7621 8.29867 11.7621 8.50056 11.9539C8.69235 12.1558 8.69235 12.4687 8.50056 12.6705L7.25896 13.902C7.15802 14.0029 7.02679 14.0534 6.90566 14.0534Z" fill="black"/>
<path d="M18.5053 18.0404H12.4891C12.3579 18.0404 12.2267 17.9899 12.1257 17.889C12.0349 17.788 11.9844 17.6568 11.9844 17.5256C12.0046 16.7989 12.3882 16.1831 12.9534 15.9005C13.1149 15.2646 13.5591 14.7801 14.1344 14.6287C14.4272 14.1139 14.942 13.801 15.4972 13.801C16.0523 13.801 16.5571 14.1139 16.8599 14.6287C17.4252 14.7801 17.8895 15.2747 18.051 15.9106C18.6163 16.1932 18.9998 16.809 19.02 17.5357C19.02 17.677 18.9696 17.8082 18.8787 17.8991C18.7879 17.9899 18.6566 18.0505 18.5153 18.0505L18.5053 18.0404ZM13.1553 17.031H17.8491C17.7583 16.8897 17.6371 16.7989 17.4857 16.7585C17.2737 16.708 17.1123 16.5263 17.0921 16.3144C17.0517 15.9106 16.7993 15.5876 16.4965 15.5775C16.2946 15.5775 16.1129 15.4463 16.0423 15.2545C15.8303 14.6994 15.154 14.6994 14.942 15.2545C14.8713 15.4463 14.6896 15.5674 14.4877 15.5775C14.1849 15.5876 13.9326 15.9005 13.8922 16.3043C13.872 16.5263 13.7206 16.708 13.4985 16.7484C13.3572 16.7787 13.226 16.8796 13.1351 17.0209L13.1553 17.031Z" fill="black"/>
<path d="M11.7718 18.0403H7.28999C7.15876 18.0403 7.02755 17.9899 6.92661 17.8889C6.83576 17.788 6.77518 17.6568 6.78528 17.5256C6.80546 16.6878 7.27988 15.961 7.97638 15.6582C8.16817 14.9113 8.73347 14.3359 9.41988 14.1744C9.76308 13.5789 10.3687 13.2054 11.0249 13.2054C11.681 13.2054 12.2765 13.5789 12.6298 14.1643C13.0639 14.2552 13.4576 14.5176 13.7402 14.8911C13.9017 15.1132 13.8613 15.4362 13.6291 15.5977C13.4071 15.7592 13.0841 15.7188 12.9226 15.4866C12.7611 15.2646 12.5289 15.1333 12.2765 15.1233C12.0746 15.1233 11.9031 14.992 11.8223 14.8103C11.6709 14.4369 11.358 14.2047 11.0147 14.2047C10.6715 14.2047 10.3586 14.447 10.2072 14.8103C10.1366 14.992 9.95487 15.1132 9.76308 15.1233C9.32903 15.1434 8.95554 15.5472 8.90506 16.0721C8.88488 16.2941 8.72338 16.4758 8.51141 16.5162C8.25905 16.5767 8.03697 16.7584 7.90575 17.0108H11.7516C12.0343 17.0108 12.2563 17.2328 12.2563 17.5155C12.2563 17.7981 12.0343 18.0202 11.7516 18.0202L11.7718 18.0403Z" fill="black"/>
</svg>
