<svg width="90" height="90" viewBox="0 0 90 90" fill="none" xmlns="http://www.w3.org/2000/svg">
<path d="M49.284 34.3431C49.2298 33.2843 49.3273 31.7364 50.2757 30.4143C51.625 28.5279 53.7438 28.4365 56.6159 27.4637C58.3553 26.8779 63.5196 25.1312 65.5355 21.7667C67.4375 18.585 67.1178 13.8876 64.7443 10.9585C63.7418 9.717 62.3816 8.81409 59.3958 7.81442C54.6867 6.23431 50.2432 5.85272 43.1443 6.0462C34.5444 6.28268 30.1876 6.44391 27.2884 8.5991C26.4268 9.24404 22.4547 12.2 22.3355 16.8544C22.2596 19.848 23.7986 22.7556 25.9012 24.5185C28.9412 27.066 31.2768 25.631 36.208 28.8449C39.3998 30.9249 39.7141 32.3653 39.7737 32.9726C39.9742 34.9719 38.2889 36.6165 37.7904 37.1002C35.4927 39.3414 32.4635 39.6746 31.2497 39.852C24.5898 40.8248 17.957 45.0115 14.6026 48.8919C9.43294 54.8792 9.98567 62.5379 10.0453 63.2419C10.6034 69.6376 14.2504 73.862 15.7948 75.426C19.962 79.6557 24.7361 80.7145 31.4502 82.1065C38.3594 83.5415 47.4741 85.4334 58.5992 82.3054C65.5517 80.3491 73.2737 78.1777 77.0291 70.906C80.8928 63.4139 77.9395 55.5886 77.6252 54.7878C75.1758 48.591 70.1524 45.4684 68.7056 44.5655C64.1103 41.6955 59.1953 40.4378 59.1953 40.4378C56.1173 39.6477 53.1098 39.379 50.8717 36.9014C50.0372 35.977 49.5604 35.0257 49.284 34.3485V34.3431Z" fill="#E3D6C7"/>
</svg>
