<svg width="24" height="24" viewBox="0 0 24 24" fill="none" xmlns="http://www.w3.org/2000/svg">
<path fill-rule="evenodd" clip-rule="evenodd" d="M18 5H6C5.44772 5 5 5.44772 5 6V18C5 18.5523 5.44772 19 6 19H18C18.5523 19 19 18.5523 19 18V6C19 5.44772 18.5523 5 18 5ZM6 4C4.89543 4 4 4.89543 4 6V18C4 19.1046 4.89543 20 6 20H18C19.1046 20 20 19.1046 20 18V6C20 4.89543 19.1046 4 18 4H6Z" fill="white"/>
<path d="M15.8847 11.7984C16.0384 11.8868 16.0384 12.1132 15.8848 12.2016L9.33694 15.97C9.18623 16.0567 9 15.9453 9 15.7683L9 8.23166C9 8.05474 9.18623 7.94331 9.33694 8.03004L15.8847 11.7984Z" fill="white"/>
</svg>
