<svg width="36" height="36" viewBox="0 0 36 36" fill="none" xmlns="http://www.w3.org/2000/svg">
<path d="M24.9571 32.9999H11.084C9.19977 32.9999 7.66699 31.3764 7.66699 29.3805V19.2461C7.66699 18.9565 7.88178 18.729 8.15514 18.729H27.886C28.1594 18.729 28.3742 18.9565 28.3742 19.2461V29.3805C28.3742 31.3764 26.8414 32.9999 24.9571 32.9999ZM8.64328 19.7735V29.3908C8.64328 30.8179 9.73673 31.9761 11.084 31.9761H24.9571C26.3044 31.9761 27.3979 30.8179 27.3979 29.3908V19.7735H8.64328Z" fill="black"/>
<path d="M8.15471 16.3505C7.93017 16.3505 7.73491 16.1851 7.67633 15.9472C7.61775 15.668 7.77396 15.3888 8.03756 15.3268L27.9832 10.394C28.2468 10.3319 28.5104 10.4974 28.569 10.7766C28.6276 11.0558 28.4714 11.335 28.2078 11.3971L8.26211 16.3299C8.26211 16.3299 8.184 16.3402 8.15471 16.3402V16.3505Z" fill="black"/>
<path d="M29.311 26.0299C29.2134 26.0299 29.145 26.0299 29.1157 26.0196H27.8758C27.6025 26.0196 27.3877 25.7921 27.3877 25.5129C27.3877 25.2337 27.6025 24.9958 27.8758 24.9958H29.1938C29.2719 24.9958 29.5355 25.0372 29.7308 24.851C29.9163 24.6752 30.0237 24.3236 30.0237 23.8376C30.0237 23.3102 29.9163 22.9172 29.7113 22.7311C29.5551 22.576 29.35 22.5863 29.3598 22.576H27.8856C27.6123 22.576 27.3975 22.3485 27.3975 22.0589C27.3975 21.7693 27.6123 21.5418 27.8856 21.5418H29.3208C29.3208 21.5418 29.8968 21.5005 30.3751 21.9658C30.795 22.3691 31 23 31 23.8376C31 24.6752 30.7852 25.2647 30.3654 25.6473C29.9846 25.9886 29.5648 26.0506 29.3208 26.0506L29.311 26.0299Z" fill="black"/>
<path d="M16.7175 14.1789C16.493 14.1789 16.2977 14.0135 16.2392 13.7756L15.917 12.2968C15.917 12.2968 15.7412 11.7074 16.0634 11.1076C16.3368 10.5905 16.8737 10.2286 17.645 10.0321C18.3968 9.84594 19.0021 9.92866 19.4512 10.2803C20.0174 10.7146 20.0857 11.3971 20.0857 11.4695L20.3689 12.7518C20.4274 13.031 20.2712 13.3103 20.0076 13.3723C19.744 13.4343 19.4805 13.2689 19.4219 12.9897L19.1192 11.635C19.1094 11.5522 19.0802 11.273 18.8556 11.1179C18.6506 10.9628 18.2991 10.9421 17.85 11.0455C17.3619 11.1696 17.03 11.3661 16.903 11.6143C16.7956 11.8108 16.8445 12.0176 16.8445 12.0176L17.1862 13.5378C17.2447 13.817 17.0885 14.0962 16.8249 14.1582C16.7859 14.1582 16.7468 14.1686 16.7175 14.1686V14.1789Z" fill="black"/>
<path d="M8.07665 26.061H8.06689L6.63174 26.03C6.63174 26.03 6.05573 26.061 5.58711 25.5853C5.17706 25.1717 4.98181 24.5408 5.00133 23.6928C5.02086 22.8759 5.2454 22.2761 5.67497 21.9038C6.22169 21.4281 6.85629 21.5315 6.92463 21.5522L8.16452 21.5729C8.43788 21.5729 8.6429 21.8211 8.6429 22.1003C8.6429 22.3795 8.39883 22.576 8.14499 22.607L6.82699 22.576C6.74889 22.576 6.4853 22.5346 6.29004 22.7104C6.09478 22.8862 5.98739 23.2378 5.97762 23.7239C5.96786 24.2409 6.06549 24.6339 6.25098 24.8304C6.41695 25.0062 6.61221 24.9959 6.62197 25.0062L8.08641 25.0372C8.35977 25.0372 8.56479 25.2854 8.56479 25.5646C8.56479 25.8438 8.34025 26.0713 8.07665 26.0713V26.061Z" fill="black"/>
<path d="M28.0912 17.1882C26.9196 17.1882 25.9629 16.1748 25.9629 14.9338C25.9629 13.6929 26.9196 12.6794 28.0912 12.6794C29.2628 12.6794 30.2195 13.6929 30.2195 14.9338C30.2195 16.1748 29.2628 17.1882 28.0912 17.1882ZM28.0912 13.7136C27.4566 13.7136 26.9392 14.2616 26.9392 14.9338C26.9392 15.606 27.4566 16.1541 28.0912 16.1541C28.7258 16.1541 29.2432 15.606 29.2432 14.9338C29.2432 14.2616 28.7258 13.7136 28.0912 13.7136Z" fill="black"/>
<path d="M21.325 19.6907C21.12 19.6907 20.9345 19.5563 20.8662 19.3495C20.7881 19.1013 20.7393 18.8531 20.7393 18.5842C20.7393 17.3433 21.696 16.3298 22.8676 16.3298C24.0391 16.3298 24.9959 17.3433 24.9959 18.5842C24.9959 18.8428 24.9568 19.1013 24.869 19.3391C24.7811 19.608 24.498 19.7424 24.2441 19.6494C23.9903 19.5563 23.8536 19.2564 23.9513 18.9875C23.9903 18.8634 24.0196 18.7187 24.0196 18.5842C24.0196 17.912 23.5022 17.364 22.8676 17.364C22.233 17.364 21.7156 17.912 21.7156 18.5842C21.7156 18.729 21.7351 18.8634 21.7839 18.9979C21.8718 19.2668 21.7448 19.5666 21.491 19.6597C21.4324 19.6804 21.3836 19.6907 21.325 19.6907Z" fill="black"/>
<path d="M26.4899 9.98037C25.7967 9.98037 25.2402 9.39092 25.2402 8.65669C25.2402 7.92246 25.7967 7.33301 26.4899 7.33301C27.1831 7.33301 27.7395 7.92246 27.7395 8.65669C27.7395 9.39092 27.1831 9.98037 26.4899 9.98037ZM26.4899 8.36713C26.3434 8.36713 26.2165 8.49123 26.2165 8.65669C26.2165 8.97727 26.7632 8.97727 26.7632 8.65669C26.7632 8.50157 26.6363 8.36713 26.4899 8.36713Z" fill="black"/>
<path d="M28.7839 5.52327C28.1297 5.52327 27.5928 4.9545 27.5928 4.26163C27.5928 3.56877 28.1297 3 28.7839 3C29.438 3 29.9749 3.56877 29.9749 4.26163C29.9749 4.9545 29.438 5.52327 28.7839 5.52327ZM28.7839 4.03413C28.6667 4.03413 28.5691 4.13754 28.5691 4.26163C28.5691 4.50982 28.9986 4.50982 28.9986 4.26163C28.9986 4.13754 28.901 4.03413 28.7839 4.03413Z" fill="black"/>
</svg>
