<svg width="94" height="94" viewBox="0 0 94 94" fill="none" xmlns="http://www.w3.org/2000/svg">
<path d="M68.7478 76.5725L64.106 71.7841C61.6991 73.4087 55.9398 77 46.8281 77C30.3238 77 17 64.4304 17 47.5C17 30.4841 30.3238 18 46.8281 18C63.2464 18 76.6562 30.4841 76.6562 47.5C76.6562 57.9319 71.9284 64.4304 68.5759 67.9362L77 76.5725H68.7478ZM53.9628 53.058L64.0201 63.3188C66.1691 61.0101 70.1232 55.8797 70.1232 47.5C70.1232 34.4174 59.6361 23.9855 46.8281 23.9855C33.9341 23.9855 23.533 34.4174 23.533 47.5C23.533 60.5826 33.9341 71.0145 46.8281 71.0145C50.4384 71.0145 55.0802 70.1594 59.5501 67.2522L45.7106 53.058H53.9628Z" fill="white"/>
</svg>
