<svg width="24" height="24" viewBox="0 0 24 24" fill="none" xmlns="http://www.w3.org/2000/svg">
<path fill-rule="evenodd" clip-rule="evenodd" d="M18 5H6C5.44772 5 5 5.44772 5 6V18C5 18.5523 5.44772 19 6 19H18C18.5523 19 19 18.5523 19 18V6C19 5.44772 18.5523 5 18 5ZM6 4C4.89543 4 4 4.89543 4 6V18C4 19.1046 4.89543 20 6 20H18C19.1046 20 20 19.1046 20 18V6C20 4.89543 19.1046 4 18 4H6Z" fill="white"/>
<path d="M14.8997 15.942L14.2808 15.2928C13.9599 15.513 13.192 16 11.9771 16C9.7765 16 8 14.2957 8 12C8 9.69275 9.7765 8 11.9771 8C14.1662 8 15.9542 9.69275 15.9542 12C15.9542 13.4145 15.3238 14.2957 14.8768 14.771L16 15.942H14.8997ZM12.9284 12.7536L14.2693 14.1449C14.5559 13.8319 15.0831 13.1362 15.0831 12C15.0831 10.2261 13.6848 8.81159 11.9771 8.81159C10.2579 8.81159 8.87106 10.2261 8.87106 12C8.87106 13.7739 10.2579 15.1884 11.9771 15.1884C12.4585 15.1884 13.0774 15.0725 13.6734 14.6783L11.8281 12.7536H12.9284Z" fill="white"/>
</svg>
