<svg width="36" height="36" viewBox="0 0 36 36" fill="none" xmlns="http://www.w3.org/2000/svg">
<path d="M32.0019 27C31.7494 27 31.5373 26.8244 31.507 26.5804L30.4062 18.6967C30.4062 18.6967 30.4062 18.5991 30.4062 18.5503L31.9918 9.40785C32.0423 9.14441 32.2948 8.95902 32.5775 9.00781C32.8502 9.05659 33.0421 9.30052 32.9916 9.57372L31.4161 18.6381L32.5068 26.4536C32.5472 26.717 32.3553 26.9707 32.0726 27C32.0524 27 32.0221 27 32.0019 27Z" fill="black"/>
<path d="M26.0034 27C26.0034 27 25.9731 27 25.963 27C25.6802 26.9805 25.4783 26.7463 25.4985 26.4731L26.1246 18.5893C26.1448 18.3356 26.367 18.1405 26.6295 18.1405H30.9014C31.1842 18.1405 31.4064 18.3552 31.4064 18.6284C31.4064 18.9016 31.1842 19.1162 30.9014 19.1162H27.0941L26.5084 26.5512C26.4882 26.8049 26.266 27 26.0034 27Z" fill="black"/>
<path d="M3.99776 27C3.99776 27 3.95739 27 3.92709 27C3.65442 26.961 3.46252 26.717 3.49281 26.4536L4.58352 18.6381L3.00808 9.57372C2.95759 9.31028 3.14947 9.05659 3.42214 9.00781C3.69482 8.95902 3.95738 9.14441 4.00787 9.40785L5.59342 18.5503C5.59342 18.5503 5.59342 18.6479 5.59342 18.6967L4.49263 26.5804C4.46234 26.8244 4.24014 27 3.99776 27Z" fill="black"/>
<path d="M9.99671 27C9.73413 27 9.51195 26.8049 9.49176 26.5512L8.90603 19.1162H5.0987C4.81593 19.1162 4.59375 18.9016 4.59375 18.6284C4.59375 18.3552 4.81593 18.1405 5.0987 18.1405H9.37057C9.63315 18.1405 9.85532 18.3356 9.87552 18.5893L10.5017 26.4731C10.5219 26.7463 10.3098 26.9805 10.0371 27C10.027 27 10.0068 27 9.99671 27Z" fill="black"/>
<path d="M21.5189 14.1303H14.379C14.0962 14.1303 13.874 13.9157 13.874 13.6425C13.874 11.4764 15.7019 9.71033 17.9439 9.71033C20.1859 9.71033 22.0239 11.4764 22.0239 13.6425C22.0239 13.9157 21.8017 14.1303 21.5189 14.1303ZM14.9243 13.1546H20.9736C20.7312 11.7496 19.4689 10.686 17.954 10.686C16.4392 10.686 15.1768 11.7593 14.9344 13.1546H14.9243Z" fill="black"/>
<path d="M18.6924 10.7543C18.4601 10.7543 18.248 10.5982 18.1975 10.364C18.1975 10.3445 18.1269 10.1103 17.9552 10.1103C17.7835 10.1103 17.7128 10.3445 17.7128 10.3738C17.6522 10.6372 17.3795 10.8031 17.1069 10.7348C16.8342 10.6763 16.6625 10.4226 16.7231 10.1591C16.8039 9.79812 17.1574 9.12488 17.9552 9.12488C18.753 9.12488 19.1065 9.79812 19.1873 10.1591C19.2478 10.4226 19.0661 10.686 18.7934 10.7348C18.7631 10.7348 18.7227 10.7446 18.6924 10.7446V10.7543Z" fill="black"/>
<path d="M20.6412 27C19.7727 27 19.3687 26.7365 19.0456 26.5316C18.7729 26.356 18.5507 26.2096 17.9447 26.2096C17.3388 26.2096 17.1166 26.3462 16.844 26.5316C16.5208 26.7463 16.1168 27 15.2483 27C14.3798 27 13.9859 26.6975 13.6628 26.4536C13.4709 26.3072 13.3396 26.2096 13.1174 26.1706C12.2287 26.0145 11.6733 26.6292 11.6531 26.6585C11.5016 26.8243 11.2592 26.8731 11.0573 26.7853C10.8553 26.6975 10.7341 26.4828 10.7644 26.2682L12.6024 15.0084C12.6428 14.7743 12.8549 14.5986 13.0972 14.5986H22.7923C23.0447 14.5986 23.2568 14.7743 23.2871 15.0084L25.1251 26.2682C25.1655 26.4828 25.0443 26.6975 24.8322 26.7853C24.6202 26.8731 24.3778 26.8243 24.2364 26.6487C24.2162 26.6292 23.6709 26.0145 22.772 26.1706C22.5499 26.2096 22.4186 26.3072 22.2267 26.4536C21.9036 26.6975 21.4895 27 20.6412 27ZM17.9548 25.2339C18.8739 25.2339 19.2879 25.5071 19.6212 25.7218C19.8938 25.8974 20.0857 26.0243 20.6513 26.0243C21.1562 26.0243 21.3582 25.8779 21.6208 25.6828C21.8531 25.5071 22.1459 25.2925 22.6105 25.2144C23.1356 25.1266 23.5901 25.1949 23.9637 25.3315L22.3782 15.5841H13.5517L11.9662 25.3315C12.3297 25.1949 12.7842 25.1266 13.3194 25.2144C13.784 25.2925 14.0769 25.5169 14.3091 25.6828C14.5818 25.8877 14.7737 26.0243 15.2786 26.0243C15.8341 26.0243 16.036 25.8974 16.3087 25.7218C16.642 25.5071 17.056 25.2339 17.975 25.2339H17.9548Z" fill="black"/>
</svg>
