<svg width="94" height="94" viewBox="0 0 94 94" fill="none" xmlns="http://www.w3.org/2000/svg">
<path d="M21.8346 56.9667C22.9722 58.9889 24.1571 60.7704 25.3895 62.3111C26.6692 63.8518 28.0911 65.0556 29.6553 65.9222C31.2194 66.7889 32.9968 67.2222 34.9876 67.2222C37.6418 67.2222 39.7748 66.4759 41.3863 64.9833C42.9978 63.4907 43.8036 61.5889 43.8036 59.2778C43.8036 57.0148 43.2822 55.2093 42.2395 53.8611C41.1967 52.513 39.8222 51.4296 38.1158 50.6111C36.4569 49.7444 34.6795 48.9741 32.7835 48.3C31.5512 47.8667 30.1767 47.313 28.6599 46.6389C27.1432 45.9167 25.6975 45.0259 24.323 43.9667C22.9485 42.8593 21.8109 41.5111 20.9103 39.9222C20.0572 38.3333 19.6306 36.3833 19.6306 34.0722C19.6306 31.5685 20.2468 29.3296 21.4791 27.3556C22.7115 25.3815 24.4178 23.8407 26.5981 22.7333C28.7784 21.5778 31.2668 21 34.0633 21C36.765 21 39.1112 21.5296 41.1019 22.5889C43.14 23.6 44.87 24.9241 46.292 26.5611C47.7139 28.15 48.8278 29.8352 49.6335 31.6167L44.4435 34.65C43.8273 33.3981 43.0452 32.1704 42.0973 30.9667C41.1493 29.763 39.988 28.7759 38.6135 28.0056C37.2864 27.2352 35.6511 26.85 33.7078 26.85C31.0061 26.85 29.0391 27.5241 27.8068 28.8722C26.5744 30.1722 25.9582 31.6407 25.9582 33.2778C25.9582 34.6741 26.3137 35.9741 27.0247 37.1778C27.7357 38.3333 28.9206 39.4407 30.5795 40.5C32.2859 41.5111 34.5847 42.5222 37.476 43.5333C38.8031 44.0148 40.2013 44.6407 41.6707 45.4111C43.14 46.1815 44.4909 47.1685 45.7232 48.3722C47.003 49.5278 48.0457 50.9481 48.8515 52.6333C49.6572 54.2704 50.0601 56.2444 50.0601 58.5555C50.0601 60.7704 49.6336 62.7685 48.7804 64.55C47.9746 66.3315 46.8371 67.8481 45.3677 69.1C43.9458 70.3519 42.3106 71.3148 40.462 71.9889C38.6609 72.663 36.765 73 34.7743 73C32.0726 73 29.5605 72.4222 27.238 71.2667C24.9629 70.063 22.9485 68.4981 21.1947 66.5722C19.4884 64.5981 18.0902 62.5037 17 60.2889L21.8346 56.9667Z" fill="white"/>
<path d="M58.9367 31.6889V25.3333L76 21V72.2778H69.9568V28.3667L58.9367 31.6889Z" fill="white"/>
</svg>
