<svg width="94" height="94" viewBox="0 0 94 94" fill="none" xmlns="http://www.w3.org/2000/svg">
<path d="M14.9043 56.9889C16.0583 59.0083 17.2603 60.7873 18.5104 62.3259C19.8086 63.8645 21.251 65.0666 22.8377 65.932C24.4244 66.7975 26.2275 67.2302 28.2469 67.2302C30.9394 67.2302 33.1031 66.485 34.7379 64.9944C36.3726 63.5039 37.19 61.6047 37.19 59.2968C37.19 57.037 36.6611 55.2339 35.6033 53.8877C34.5455 52.5414 33.1512 51.4595 31.4203 50.6422C29.7374 49.7767 27.9344 49.0074 26.0111 48.3343C24.761 47.9015 23.3666 47.3486 21.828 46.6754C20.2894 45.9542 18.8229 45.0647 17.4286 44.0069C16.0342 42.9011 14.8803 41.5548 13.9667 39.9681C13.1012 38.3814 12.6685 36.4341 12.6685 34.1262C12.6685 31.626 13.2936 29.3902 14.5437 27.4189C15.7938 25.4475 17.5247 23.9089 19.7365 22.803C21.9482 21.6491 24.4725 21.0721 27.3093 21.0721C30.0499 21.0721 32.43 21.601 34.4494 22.6588C36.5169 23.6685 38.2718 24.9908 39.7143 26.6255C41.1567 28.2122 42.2866 29.8951 43.104 31.6741L37.8391 34.7032C37.2141 33.4531 36.4207 32.227 35.4591 31.025C34.4975 29.8229 33.3195 28.8373 31.9251 28.068C30.5788 27.2987 28.92 26.914 26.9487 26.914C24.208 26.914 22.2127 27.5871 20.9626 28.9334C19.7124 30.2316 19.0874 31.6981 19.0874 33.3329C19.0874 34.7272 19.448 36.0254 20.1692 37.2275C20.8904 38.3814 22.0925 39.4873 23.7753 40.5451C25.5062 41.5548 27.8382 42.5645 30.7712 43.5742C32.1174 44.055 33.5358 44.6801 35.0264 45.4494C36.5169 46.2187 37.8872 47.2043 39.1373 48.4064C40.4355 49.5603 41.4933 50.9787 42.3107 52.6616C43.1281 54.2963 43.5368 56.2677 43.5368 58.5756C43.5368 60.7873 43.104 62.7827 42.2386 64.5617C41.4212 66.3407 40.2672 67.8553 38.7767 69.1054C37.3343 70.3555 35.6755 71.3172 33.8003 71.9903C31.9732 72.6634 30.0499 73 28.0305 73C25.2899 73 22.7416 72.423 20.3856 71.2691C18.0777 70.067 16.0342 68.5044 14.2552 66.5811C12.5243 64.6098 11.1059 62.5183 10 60.3065L14.9043 56.9889Z" fill="white"/>
<path d="M48.214 72.2788L72.0864 46.8197C73.1923 45.6177 74.1298 44.4397 74.8991 43.2857C75.7165 42.0837 76.3175 40.8816 76.7022 39.6796C77.1349 38.4295 77.3513 37.1313 77.3513 35.785C77.3513 34.6791 77.1349 33.5973 76.7022 32.5395C76.2695 31.4817 75.6204 30.5201 74.7549 29.6546C73.9375 28.7892 72.9278 28.092 71.7258 27.5631C70.5237 27.0342 69.1534 26.7698 67.6148 26.7698C65.4512 26.7698 63.576 27.2746 61.9893 28.2843C60.4507 29.246 59.2727 30.6644 58.4553 32.5395C57.6379 34.3666 57.2292 36.5543 57.2292 39.1026H51.0989C51.0989 35.4965 51.748 32.3472 53.0462 29.6546C54.3444 26.914 56.2195 24.7984 58.6717 23.3079C61.1719 21.7693 64.153 21 67.6148 21C70.4035 21 72.8076 21.4808 74.827 22.4424C76.8464 23.356 78.5052 24.558 79.8034 26.0485C81.1016 27.491 82.0633 29.0536 82.6883 30.7365C83.3134 32.4193 83.6259 34.03 83.6259 35.5687C83.6259 38.165 83.0009 40.7374 81.7507 43.2857C80.5006 45.834 78.8899 48.1179 76.9186 50.1373L60.8353 66.509H83.8423V72.2788H48.214Z" fill="white"/>
</svg>
