<svg width="36" height="36" viewBox="0 0 36 36" fill="none" xmlns="http://www.w3.org/2000/svg">
<path d="M26.992 33H8.22544C7.93513 33 7.70703 32.7719 7.70703 32.4816V4.51841C7.70703 4.2281 7.93513 4 8.22544 4H26.992C27.2823 4 27.5104 4.2281 27.5104 4.51841V32.4816C27.5104 32.7719 27.2823 33 26.992 33ZM8.74386 31.9632H26.4735V5.03682H8.74386V31.9632Z" fill="black"/>
<path d="M23.975 33H11.2635C10.9732 33 10.7451 32.7719 10.7451 32.4816V12.813C10.7451 11.2163 12.0411 9.92029 13.6379 9.92029H21.611C23.2077 9.92029 24.5038 11.2163 24.5038 12.813V32.4816C24.5038 32.7719 24.2757 33 23.9854 33H23.975ZM11.7819 31.9632H23.4566V12.813C23.4566 11.7866 22.6271 10.9571 21.6007 10.9571H13.6275C12.6114 10.9571 11.7716 11.7866 11.7716 12.813V31.9632H11.7819Z" fill="black"/>
<path d="M17.6194 18.837C16.116 18.837 14.8926 17.6136 14.8926 16.1205C14.8926 14.6275 16.116 13.4041 17.6194 13.4041C19.1228 13.4041 20.3359 14.6275 20.3359 16.1205C20.3359 17.6136 19.1125 18.837 17.6194 18.837ZM17.6194 14.4305C16.6863 14.4305 15.9294 15.1874 15.9294 16.1102C15.9294 17.0329 16.6863 17.7898 17.6194 17.7898C18.5526 17.7898 19.2991 17.0329 19.2991 16.1102C19.2991 15.1874 18.5422 14.4305 17.6194 14.4305Z" fill="black"/>
<path d="M19.3927 26.4265H15.8364C14.6233 26.4265 13.6279 25.4416 13.6279 24.2181V20.6618C13.6279 19.4487 14.6129 18.4534 15.8364 18.4534H19.3927C20.6058 18.4534 21.6011 19.4383 21.6011 20.6618V24.2181C21.6011 25.4312 20.6161 26.4265 19.3927 26.4265ZM15.8364 19.5006C15.1935 19.5006 14.6648 20.019 14.6648 20.6722V24.2285C14.6648 24.8713 15.1832 25.4001 15.8364 25.4001H19.3927C20.0355 25.4001 20.5643 24.8817 20.5643 24.2285V20.6722C20.5643 20.0293 20.0459 19.5006 19.3927 19.5006H15.8364Z" fill="black"/>
<path d="M19.3611 32.9999H15.867C15.5767 32.9999 15.3486 32.7718 15.3486 32.4815V25.9081C15.3486 25.6177 15.5767 25.3896 15.867 25.3896H19.3611C19.6514 25.3896 19.8796 25.6177 19.8796 25.9081V32.4815C19.8796 32.7718 19.6514 32.9999 19.3611 32.9999ZM16.3855 31.9631H18.8427V26.4265H16.3855V31.9631Z" fill="black"/>
<path d="M17.6198 8.30289C17.9233 8.30289 18.1693 8.05686 18.1693 7.75337C18.1693 7.44988 17.9233 7.20386 17.6198 7.20386C17.3163 7.20386 17.0703 7.44988 17.0703 7.75337C17.0703 8.05686 17.3163 8.30289 17.6198 8.30289Z" fill="black"/>
<path d="M20.3249 8.30289C20.6284 8.30289 20.8744 8.05686 20.8744 7.75337C20.8744 7.44988 20.6284 7.20386 20.3249 7.20386C20.0214 7.20386 19.7754 7.44988 19.7754 7.75337C19.7754 8.05686 20.0214 8.30289 20.3249 8.30289Z" fill="black"/>
<path d="M14.861 8.30289C15.1645 8.30289 15.4106 8.05686 15.4106 7.75337C15.4106 7.44988 15.1645 7.20386 14.861 7.20386C14.5575 7.20386 14.3115 7.44988 14.3115 7.75337C14.3115 8.05686 14.5575 8.30289 14.861 8.30289Z" fill="black"/>
<path d="M28.3098 17.1158C28.1439 17.1158 27.9781 17.0329 27.8744 16.8877C27.7189 16.6493 27.781 16.3278 28.0195 16.1723L30.2798 14.6689C30.5183 14.5134 30.8397 14.5756 30.9952 14.8141C31.1508 15.0526 31.0885 15.374 30.8501 15.5295L28.5898 17.0329C28.5068 17.0951 28.4032 17.1158 28.2995 17.1158H28.3098Z" fill="black"/>
<path d="M30.5701 22.7353C30.4664 22.7353 30.3731 22.7042 30.2798 22.6524L28.0195 21.149C27.781 20.9935 27.7189 20.6721 27.8744 20.4336C28.0299 20.1951 28.3513 20.1329 28.5898 20.2884L30.8501 21.7918C31.0885 21.9474 31.1508 22.2688 30.9952 22.5072C30.8915 22.6524 30.736 22.7353 30.5597 22.7353H30.5701Z" fill="black"/>
<path d="M31.4819 19.0236H28.5995C28.3092 19.0236 28.0811 18.7955 28.0811 18.5052C28.0811 18.2149 28.3092 17.9868 28.5995 17.9868H31.4819C31.7722 17.9868 32.0003 18.2149 32.0003 18.5052C32.0003 18.7955 31.7722 19.0236 31.4819 19.0236Z" fill="black"/>
<path d="M6.6912 17.1158C6.58752 17.1158 6.4942 17.0847 6.40089 17.0329L4.14062 15.5295C3.90215 15.374 3.83994 15.0526 3.99547 14.8141C4.15099 14.5756 4.47241 14.5134 4.71088 14.6689L6.97115 16.1723C7.20962 16.3278 7.27183 16.6493 7.1163 16.8877C7.01262 17.0329 6.8571 17.1158 6.68084 17.1158H6.6912Z" fill="black"/>
<path d="M4.43093 22.7353C4.26504 22.7353 4.09915 22.6524 3.99547 22.5072C3.83994 22.2688 3.90215 21.9474 4.14062 21.7918L6.40089 20.2884C6.63936 20.1329 6.96078 20.1951 7.1163 20.4336C7.27183 20.6721 7.20962 20.9935 6.97115 21.149L4.71088 22.6524C4.62793 22.7146 4.52423 22.7353 4.42055 22.7353H4.43093Z" fill="black"/>
<path d="M6.40078 19.0236H3.51841C3.2281 19.0236 3 18.7955 3 18.5052C3 18.2149 3.2281 17.9868 3.51841 17.9868H6.40078C6.69109 17.9868 6.9192 18.2149 6.9192 18.5052C6.9192 18.7955 6.69109 19.0236 6.40078 19.0236Z" fill="black"/>
</svg>
