<svg width="24" height="24" viewBox="0 0 24 24" fill="none" xmlns="http://www.w3.org/2000/svg">
<path fill-rule="evenodd" clip-rule="evenodd" d="M12 11C13.6569 11 15 9.65685 15 8C15 6.34315 13.6569 5 12 5C10.3431 5 9 6.34315 9 8C9 9.65685 10.3431 11 12 11ZM12 12C14.2091 12 16 10.2091 16 8C16 5.79086 14.2091 4 12 4C9.79086 4 8 5.79086 8 8C8 10.2091 9.79086 12 12 12Z" fill="white"/>
<path fill-rule="evenodd" clip-rule="evenodd" d="M17.0463 15.1667H6.95372C6.47723 15.1667 6.0542 15.488 5.90352 15.9644L5.16551 18.2977C4.92657 19.0532 5.46012 19.8333 6.21571 19.8333H17.7843C18.5399 19.8333 19.0734 19.0532 18.8345 18.2977L18.0965 15.9644C17.9458 15.488 17.5228 15.1667 17.0463 15.1667ZM6.95372 14C6.00074 14 5.15468 14.6427 4.85332 15.5955L4.11531 17.9288C3.63743 19.4397 4.70452 21 6.21571 21H17.7843C19.2955 21 20.3626 19.4397 19.8847 17.9288L19.1467 15.5955C18.8453 14.6427 17.9993 14 17.0463 14H6.95372Z" fill="white"/>
</svg>
