<svg width="24" height="24" viewBox="0 0 24 24" fill="none" xmlns="http://www.w3.org/2000/svg">
<path fill-rule="evenodd" clip-rule="evenodd" d="M11.5229 3.351C11.6053 3.08742 11.8857 2.94053 12.1493 3.02289L20.5001 5.63254V15.3466L12.0001 18.5341L3.82457 15.4683C3.56601 15.3713 3.43501 15.0831 3.53197 14.8246C3.62893 14.566 3.91714 14.435 4.1757 14.532L12.0001 17.4661L19.5001 14.6536V6.36773L11.851 3.97737C11.5874 3.89501 11.4405 3.61457 11.5229 3.351Z" fill="white"/>
<path fill-rule="evenodd" clip-rule="evenodd" d="M12.0001 11.4648L20.1757 14.5307C20.4343 14.6276 20.5653 14.9158 20.4683 15.1744C20.3713 15.433 20.0831 15.564 19.8246 15.467L12.0001 12.5328L4.1757 15.467C3.91714 15.564 3.62893 15.433 3.53197 15.1744C3.43501 14.9158 3.56601 14.6276 3.82457 14.5307L12.0001 11.4648Z" fill="white"/>
<path fill-rule="evenodd" clip-rule="evenodd" d="M12 3C12.2761 3 12.5 3.22386 12.5 3.5V12C12.5 12.2761 12.2761 12.5 12 12.5C11.7239 12.5 11.5 12.2761 11.5 12V3.5C11.5 3.22386 11.7239 3 12 3Z" fill="white"/>
<path fill-rule="evenodd" clip-rule="evenodd" d="M12.4772 3.351C12.5596 3.61457 12.4127 3.89501 12.1491 3.97737L11.1491 4.28987C10.8856 4.37224 10.6051 4.22534 10.5228 3.96177C10.4404 3.6982 10.5873 3.41776 10.8509 3.33539L11.8509 3.02289C12.1144 2.94053 12.3949 3.08742 12.4772 3.351ZM9.47724 4.2885C9.55961 4.55207 9.41271 4.83251 9.14914 4.91487L7.14914 5.53987C6.88557 5.62224 6.60513 5.47534 6.52276 5.21177C6.44039 4.9482 6.58729 4.66776 6.85086 4.58539L8.85086 3.96039C9.11443 3.87803 9.39487 4.02492 9.47724 4.2885ZM5.47724 5.5385C5.55961 5.80207 5.41271 6.08251 5.14914 6.16487L4.5 6.36773V7.12513C4.5 7.40128 4.27614 7.62513 4 7.62513C3.72386 7.62513 3.5 7.40128 3.5 7.12513V5.63254L4.85086 5.21039C5.11443 5.12803 5.39487 5.27492 5.47724 5.5385ZM4 8.87513C4.27614 8.87513 4.5 9.09899 4.5 9.37513V11.6251C4.5 11.9013 4.27614 12.1251 4 12.1251C3.72386 12.1251 3.5 11.9013 3.5 11.6251V9.37513C3.5 9.09899 3.72386 8.87513 4 8.87513ZM4 13.3751C4.27614 13.3751 4.5 13.599 4.5 13.8751V15.0001C4.5 15.2763 4.27614 15.5001 4 15.5001C3.72386 15.5001 3.5 15.2763 3.5 15.0001V13.8751C3.5 13.599 3.72386 13.3751 4 13.3751Z" fill="white"/>
<path fill-rule="evenodd" clip-rule="evenodd" d="M4 14.5C4.27614 14.5 4.5 14.7239 4.5 15V16.6535L12 19.466L19.5 16.6535V15C19.5 14.7239 19.7239 14.5 20 14.5C20.2761 14.5 20.5 14.7239 20.5 15V17.3465L12 20.534L3.5 17.3465V15C3.5 14.7239 3.72386 14.5 4 14.5Z" fill="white"/>
<path fill-rule="evenodd" clip-rule="evenodd" d="M12 17.5C12.2761 17.5 12.5 17.7239 12.5 18V20C12.5 20.2761 12.2761 20.5 12 20.5C11.7239 20.5 11.5 20.2761 11.5 20V18C11.5 17.7239 11.7239 17.5 12 17.5Z" fill="white"/>
</svg>
