<svg width="36" height="36" viewBox="0 0 36 36" fill="none" xmlns="http://www.w3.org/2000/svg">
<path d="M31.5102 30.9698H17.8546C17.5751 30.9698 17.3555 30.7491 17.3555 30.4681V27.3473C17.3555 27.0663 17.5751 26.8456 17.8546 26.8456H20.3501V24.2265C20.3501 23.9455 20.5697 23.7248 20.8492 23.7248H24.0236V21.1057C24.0236 20.8247 24.2432 20.604 24.5227 20.604H26.9483V17.9849C26.9483 17.7039 27.1679 17.4832 27.4474 17.4832H31.5002C31.7797 17.4832 31.9993 17.7039 31.9993 17.9849V30.4681C31.9993 30.7491 31.7797 30.9698 31.5002 30.9698H31.5102ZM18.3537 29.9664H31.0111V18.4866H27.9565V21.1057C27.9565 21.3867 27.7369 21.6074 27.4574 21.6074H25.0318V24.2265C25.0318 24.5075 24.8122 24.7282 24.5327 24.7282H21.3583V27.3473C21.3583 27.6283 21.1387 27.849 20.8592 27.849H18.3637V29.9664H18.3537Z" fill="black"/>
<path d="M27.457 21.6074H18.1436C17.8641 21.6074 17.6445 21.3867 17.6445 21.1057V17.9849C17.6445 17.7039 17.8641 17.4832 18.1436 17.4832H27.457C27.7365 17.4832 27.9561 17.7039 27.9561 17.9849V21.1057C27.9561 21.3867 27.7365 21.6074 27.457 21.6074ZM18.6427 20.604H26.9579V18.4866H18.6427V20.604Z" fill="black"/>
<path d="M24.5322 24.7282H15.2188C14.9393 24.7282 14.7197 24.5074 14.7197 24.2264V21.1056C14.7197 20.8246 14.9393 20.6039 15.2188 20.6039H24.5322C24.8117 20.6039 25.0313 20.8246 25.0313 21.1056V24.2264C25.0313 24.5074 24.8117 24.7282 24.5322 24.7282ZM15.7179 23.7247H24.0331V21.6074H15.7179V23.7247Z" fill="black"/>
<path d="M20.8594 27.849H11.546C11.2665 27.849 11.0469 27.6282 11.0469 27.3473V24.2265C11.0469 23.9455 11.2665 23.7247 11.546 23.7247H20.8594C21.1389 23.7247 21.3585 23.9455 21.3585 24.2265V27.3473C21.3585 27.6282 21.1389 27.849 20.8594 27.849ZM12.0451 26.8455H20.3602V24.7282H12.0451V26.8455Z" fill="black"/>
<path d="M17.8642 30.9699H8.55087C8.27137 30.9699 8.05176 30.7491 8.05176 30.4681V27.3473C8.05176 27.0663 8.27137 26.8456 8.55087 26.8456H17.8642C18.1437 26.8456 18.3633 27.0663 18.3633 27.3473V30.4681C18.3633 30.7491 18.1437 30.9699 17.8642 30.9699ZM9.04998 29.9664H17.3651V27.8491H9.04998V29.9664Z" fill="black"/>
<path d="M8.55187 31H4.49911C4.21961 31 4 30.7792 4 30.4983V5.50174C4 5.22076 4.21961 5 4.49911 5H8.55187C8.83137 5 9.05098 5.22076 9.05098 5.50174V8.1208H11.4766C11.7561 8.1208 11.9758 8.34157 11.9758 8.62254V11.2416H15.1501C15.4296 11.2416 15.6492 11.4624 15.6492 11.7433V14.3624H18.1447C18.4242 14.3624 18.6438 14.5832 18.6438 14.8641C18.6438 15.1451 18.4242 15.3659 18.1447 15.3659H15.1501C14.8706 15.3659 14.651 15.1451 14.651 14.8641V12.2451H11.4766C11.1971 12.2451 10.9775 12.0243 10.9775 11.7433V9.12428H8.55187C8.27237 9.12428 8.05276 8.90351 8.05276 8.62254V6.00347H4.99822V29.9965H8.55187C8.83137 29.9965 9.05098 30.2173 9.05098 30.4983C9.05098 30.7792 8.83137 31 8.55187 31Z" fill="black"/>
<path d="M17.8652 9.12428H8.55184C8.27234 9.12428 8.05273 8.90351 8.05273 8.62254V5.50174C8.05273 5.22076 8.27234 5 8.55184 5H17.8652C18.1447 5 18.3643 5.22076 18.3643 5.50174V8.62254C18.3643 8.90351 18.1447 9.12428 17.8652 9.12428ZM9.05095 8.1208H17.3661V6.00347H9.05095V8.1208Z" fill="black"/>
<path d="M20.79 12.245H11.4766C11.1971 12.245 10.9775 12.0242 10.9775 11.7433V8.62246C10.9775 8.34149 11.1971 8.12073 11.4766 8.12073H20.79C21.0695 8.12073 21.2891 8.34149 21.2891 8.62246V11.7433C21.2891 12.0242 21.0695 12.245 20.79 12.245ZM11.9758 11.2415H20.2909V9.1242H11.9758V11.2415Z" fill="black"/>
<path d="M24.4638 15.3659H15.1505C14.871 15.3659 14.6514 15.1451 14.6514 14.8641V11.7433C14.6514 11.4623 14.871 11.2416 15.1505 11.2416H24.4638C24.7433 11.2416 24.963 11.4623 24.963 11.7433V14.8641C24.963 15.1451 24.7433 15.3659 24.4638 15.3659ZM15.6496 14.3624H23.9647V12.2451H15.6496V14.3624Z" fill="black"/>
<path d="M27.458 18.4867H18.1446C17.8651 18.4867 17.6455 18.2659 17.6455 17.985V14.8642C17.6455 14.5832 17.8651 14.3624 18.1446 14.3624H27.458C27.7375 14.3624 27.9571 14.5832 27.9571 14.8642V17.985C27.9571 18.2659 27.7375 18.4867 27.458 18.4867ZM18.6437 17.4832H26.9589V15.3659H18.6437V17.4832Z" fill="black"/>
</svg>
