<svg width="36" height="36" viewBox="0 0 36 36" fill="none" xmlns="http://www.w3.org/2000/svg">
<path d="M26.5856 29.213H9.42371C7.54759 29.213 6.00977 27.7246 6.00977 25.8866V7.32644C6.00977 5.4984 7.53734 4 9.42371 4H26.5856C28.4617 4 29.9995 5.48841 29.9995 7.32644V25.8866C29.9995 27.7146 28.472 29.213 26.5856 29.213ZM9.42371 5.00892C8.11145 5.00892 7.03497 6.0478 7.03497 7.33642V25.8965C7.03497 27.1752 8.1012 28.2241 9.42371 28.2241H26.5856C27.8979 28.2241 28.9743 27.1852 28.9743 25.8965V7.33642C28.9743 6.05779 27.9081 5.00892 26.5856 5.00892H9.42371Z" fill="black"/>
<path d="M29.4772 9.56399H6.5126C6.22554 9.56399 6 9.34423 6 9.06453C6 8.78483 6.22554 8.56506 6.5126 8.56506H29.4772C29.7642 8.56506 29.9898 8.78483 29.9898 9.06453C29.9898 9.34423 29.7642 9.56399 29.4772 9.56399Z" fill="black"/>
<path d="M29.4772 19.2337H6.5126C6.22554 19.2337 6 19.0139 6 18.7342C6 18.4545 6.22554 18.2347 6.5126 18.2347H29.4772C29.7642 18.2347 29.9898 18.4545 29.9898 18.7342C29.9898 19.0139 29.7642 19.2337 29.4772 19.2337Z" fill="black"/>
<path d="M17.995 19.2337C17.708 19.2337 17.4824 19.014 17.4824 18.7343V9.05464C17.4824 8.77494 17.708 8.55518 17.995 8.55518C18.2821 8.55518 18.5076 8.77494 18.5076 9.05464V18.7343C18.5076 19.014 18.2821 19.2337 17.995 19.2337Z" fill="black"/>
<path d="M24.3307 24.9875C23.4388 24.9875 22.7109 24.2783 22.7109 23.4092C22.7109 22.5402 23.4388 21.8209 24.3307 21.8209C25.2227 21.8209 25.9608 22.5302 25.9608 23.4092C25.9608 24.2883 25.2329 24.9875 24.3307 24.9875ZM24.3307 22.8199C24.0027 22.8199 23.7361 23.0796 23.7361 23.4092C23.7361 23.7389 24.0027 23.9886 24.3307 23.9886C24.6588 23.9886 24.9356 23.7289 24.9356 23.4092C24.9356 23.0896 24.6691 22.8199 24.3307 22.8199Z" fill="black"/>
<path d="M11.465 24.9875C10.5731 24.9875 9.83496 24.2783 9.83496 23.4092C9.83496 22.5402 10.5629 21.8209 11.465 21.8209C12.3672 21.8209 13.0951 22.5302 13.0951 23.4092C13.0951 24.2883 12.3672 24.9875 11.465 24.9875ZM11.465 22.8199C11.137 22.8199 10.8602 23.0796 10.8602 23.4092C10.8602 23.7389 11.1267 23.9886 11.465 23.9886C11.8033 23.9886 12.0699 23.7289 12.0699 23.4092C12.0699 23.0896 11.8033 22.8199 11.465 22.8199Z" fill="black"/>
<path d="M28.0628 31.9999C27.9397 31.9999 27.8167 31.96 27.7142 31.8701L24.5566 29.0831C24.3515 28.8933 24.331 28.5836 24.5258 28.3738C24.7206 28.174 25.0384 28.1541 25.2537 28.3439L28.4113 31.1309C28.6164 31.3207 28.6369 31.6303 28.4421 31.8401C28.3396 31.95 28.2063 31.9999 28.0628 31.9999Z" fill="black"/>
<path d="M8.30649 32C8.16296 32 8.02969 31.9401 7.92717 31.8402C7.73238 31.6404 7.75288 31.3208 7.95792 31.131L11.1156 28.3439C11.3309 28.1641 11.6487 28.1741 11.8434 28.3739C12.0382 28.5737 12.0177 28.8934 11.8127 29.0832L8.65508 31.8702C8.55256 31.9601 8.42951 32 8.30649 32Z" fill="black"/>
</svg>
