<svg width="36" height="36" viewBox="0 0 36 36" fill="none" xmlns="http://www.w3.org/2000/svg">
<path d="M28.8524 29.1454H17.8924C16.7089 29.1454 15.7441 28.1807 15.7441 26.9971V26.3008C15.7441 25.1172 16.7089 24.1525 17.8924 24.1525H28.8524C30.0359 24.1525 31.0006 25.1172 31.0006 26.3008V26.9971C31.0006 28.1807 30.0359 29.1454 28.8524 29.1454ZM17.8924 25.157C17.2559 25.157 16.7387 25.6742 16.7387 26.3108V27.007C16.7387 27.6436 17.2559 28.1608 17.8924 28.1608H28.8524C29.4889 28.1608 30.006 27.6436 30.006 27.007V26.3108C30.006 25.6742 29.4889 25.157 28.8524 25.157H17.8924Z" fill="black"/>
<path d="M29.2293 32H17.5334C17.2549 32 17.0361 31.7812 17.0361 31.5027V28.6482C17.0361 28.3697 17.2549 28.1509 17.5334 28.1509H29.2293C29.5078 28.1509 29.7266 28.3697 29.7266 28.6482V31.5027C29.7266 31.7812 29.5078 32 29.2293 32ZM18.0307 31.0054H28.7321V29.1455H18.0307V31.0054Z" fill="black"/>
<path d="M17.5631 29.1455C17.4537 29.1455 17.3443 29.1156 17.2548 29.036C17.036 28.867 16.9962 28.5586 17.1752 28.3398L18.3488 26.8379C18.5179 26.6191 18.8361 26.5793 19.045 26.7584C19.2638 26.9275 19.3036 27.2358 19.1246 27.4546L17.951 28.9565C17.8515 29.0858 17.7024 29.1455 17.5631 29.1455Z" fill="black"/>
<path d="M20.1696 29.1455C20.0602 29.1455 19.9508 29.1156 19.8613 29.036C19.6424 28.867 19.6027 28.5586 19.7817 28.3398L20.9553 26.8379C21.1243 26.6191 21.4426 26.5793 21.6515 26.7584C21.8703 26.9275 21.91 27.2358 21.731 27.4546L20.5574 28.9565C20.458 29.0858 20.3088 29.1455 20.1696 29.1455Z" fill="black"/>
<path d="M22.7848 29.1455C22.6754 29.1455 22.566 29.1156 22.4765 29.036C22.2577 28.867 22.2179 28.5586 22.3969 28.3398L23.5705 26.8379C23.7396 26.6191 24.0479 26.5793 24.2667 26.7584C24.4855 26.9374 24.5253 27.2358 24.3463 27.4546L23.1727 28.9565C23.0732 29.0858 22.924 29.1455 22.7848 29.1455Z" fill="black"/>
<path d="M25.4 29.1455C25.2906 29.1455 25.1812 29.1156 25.0917 29.036C24.8729 28.867 24.8331 28.5586 25.0122 28.3398L26.1857 26.8379C26.3548 26.6191 26.6631 26.5793 26.8819 26.7584C27.1007 26.9374 27.1405 27.2358 26.9615 27.4546L25.7879 28.9565C25.6884 29.0858 25.5393 29.1455 25.4 29.1455Z" fill="black"/>
<path d="M28.0162 29.1455C27.9068 29.1455 27.7974 29.1156 27.7079 29.036C27.4891 28.867 27.4493 28.5586 27.6284 28.3398L28.8019 26.8379C28.971 26.6191 29.2793 26.5793 29.4981 26.7584C29.7169 26.9374 29.7567 27.2358 29.5777 27.4546L28.4041 28.9565C28.3047 29.0858 28.1555 29.1455 28.0162 29.1455Z" fill="black"/>
<path d="M17.9317 19.7066C17.703 19.7066 17.5041 19.5574 17.4444 19.3287C17.3748 19.0601 17.5439 18.7916 17.8124 18.7319C18.2003 18.6325 18.5285 18.3937 18.7373 18.0556C18.9462 17.7174 19.0059 17.3096 18.9064 16.9217C18.8368 16.6333 18.6777 16.3647 18.4589 16.1658C18.25 15.9868 18.24 15.6685 18.4191 15.4596C18.608 15.2607 18.9163 15.2408 19.1252 15.4198C19.5031 15.758 19.7617 16.1956 19.8811 16.683C20.0402 17.3295 19.9407 17.9959 19.5926 18.5728C19.2445 19.1497 18.6975 19.5475 18.0511 19.6967C18.0113 19.6967 17.9715 19.7066 17.9317 19.7066Z" fill="black"/>
<path d="M7.47882 22.213C7.03128 22.213 6.58373 22.0937 6.19586 21.855C5.62896 21.5069 5.22119 20.9598 5.07201 20.3133C4.74381 18.9805 5.56928 17.6279 6.90198 17.2996L15.6441 15.1612C15.9126 15.0916 16.1812 15.2607 16.2408 15.5292C16.3105 15.7978 16.1414 16.0663 15.8729 16.126L7.13072 18.2644C6.32514 18.4633 5.83781 19.269 6.03673 20.0746C6.13618 20.4625 6.37487 20.7907 6.71301 20.9996C7.05116 21.2085 7.45893 21.2681 7.8468 21.1687L14.3512 19.5773C14.6197 19.5077 14.8882 19.6768 14.9479 19.9453C15.0175 20.2139 14.8485 20.4824 14.5799 20.5421L8.07556 22.1335C7.87665 22.1832 7.67773 22.2031 7.47882 22.2031V22.213Z" fill="black"/>
<path d="M7.93615 25.0875C7.84664 25.0875 7.75712 25.0676 7.67756 25.0179C7.56816 24.9482 7.4886 24.8388 7.44882 24.7095L6.77253 21.9445C6.70291 21.6759 6.87198 21.4074 7.14051 21.3477C7.40904 21.2781 7.67756 21.4472 7.73723 21.7157L8.29419 24.0033L13.3664 22.7601C13.6349 22.6905 13.9035 22.8595 13.9631 23.1281C14.0328 23.3966 13.8637 23.6652 13.5951 23.7249L8.04555 25.0875C8.04555 25.0875 7.96598 25.0974 7.9262 25.0974L7.93615 25.0875Z" fill="black"/>
<path d="M17.0763 22.8496C16.8475 22.8496 16.6486 22.7004 16.5889 22.4717C16.5193 22.2031 16.6884 21.9346 16.9569 21.8749L18.6974 21.4472L18.2598 19.6469L18.0509 19.6967C17.7824 19.7564 17.5139 19.5972 17.4542 19.3287C17.3846 19.0601 17.5536 18.7916 17.8222 18.7319L18.5184 18.5628C18.7869 18.4932 19.0554 18.6623 19.1151 18.9308L19.7914 21.6959C19.8212 21.8252 19.8013 21.9644 19.7317 22.0738C19.6621 22.1832 19.5527 22.2628 19.4234 22.3026L17.1956 22.8496C17.1956 22.8496 17.116 22.8596 17.0763 22.8596V22.8496Z" fill="black"/>
<path d="M11.9944 21.1587C11.7657 21.1587 11.5668 21.0095 11.5071 20.7808L10.5623 16.9018C10.5324 16.7725 10.5523 16.6332 10.6219 16.5238C10.6915 16.4144 10.8009 16.3348 10.9302 16.2951L12.8398 15.8276C13.1083 15.758 13.3768 15.927 13.4365 16.1956L14.3813 20.0746C14.4112 20.2039 14.3913 20.3431 14.3217 20.4525C14.252 20.562 14.1426 20.6415 14.0134 20.6813L12.1038 21.1488C12.1038 21.1488 12.0242 21.1587 11.9845 21.1587H11.9944ZM11.6463 17.1504L12.3624 20.0646L13.3072 19.8359L12.5911 16.9217L11.6463 17.1504Z" fill="black"/>
<path d="M14.0133 25.9328C13.9238 25.9328 13.8243 25.9229 13.7249 25.893L13.4663 25.8234C13.1779 25.7439 12.9292 25.5648 12.78 25.3062C12.6308 25.0476 12.5811 24.7393 12.6607 24.4509L18.8667 4.3596C18.9463 4.101 19.2247 3.95181 19.4833 4.03138C19.7419 4.11095 19.8911 4.38944 19.8115 4.64804L13.6155 24.7095C13.6155 24.7095 13.6155 24.7691 13.6353 24.789C13.6453 24.8089 13.6751 24.8388 13.7149 24.8487L13.9735 24.9183C14.0431 24.9382 14.1127 24.8984 14.1326 24.8189L20.5873 4.34966C20.6668 4.09106 20.9553 3.94186 21.2138 4.02143C21.4724 4.101 21.6216 4.37949 21.542 4.64804L15.0973 25.0874C14.968 25.5748 14.5106 25.903 14.0133 25.903V25.9328Z" fill="black"/>
<path d="M12.9183 15.0318C12.8686 15.0318 12.8189 15.0318 12.7692 15.0119C12.5106 14.9224 12.3614 14.6439 12.4509 14.3853L15.713 4.36955C15.8025 4.11095 16.081 3.9717 16.3396 4.05127C16.5982 4.14079 16.7474 4.41928 16.6579 4.67788L13.3957 14.6937C13.3261 14.9025 13.1371 15.0418 12.9183 15.0418V15.0318Z" fill="black"/>
<path d="M11.2084 15.579C11.1587 15.579 11.1089 15.579 11.0592 15.5591C10.8006 15.4796 10.6514 15.1911 10.7409 14.9325L14.1125 4.35976C14.192 4.10116 14.4805 3.95197 14.739 4.04148C14.9976 4.12105 15.1468 4.40949 15.0573 4.66809L11.6858 15.2409C11.6161 15.4497 11.4272 15.589 11.2084 15.589V15.579Z" fill="black"/>
</svg>
