<svg width="90" height="90" viewBox="0 0 90 90" fill="none" xmlns="http://www.w3.org/2000/svg">
<path d="M83.9808 44.8959C84.0471 43.6225 84.0029 41.2457 82.8197 38.6274C81.6033 35.9267 79.812 34.3678 78.955 33.6378C77.4898 32.3863 75.7426 31.5684 72.2539 29.9271C69.1963 28.489 68.7651 28.5055 67.228 27.4955C66.1499 26.7874 64.5299 25.706 63.1034 23.7848C62.4676 22.934 61.9423 21.7978 60.914 19.5637C59.294 16.0507 59.4985 15.9464 58.5918 14.3161C57.7459 12.7956 56.7672 11.0721 54.8542 9.45279C54.4174 9.08502 52.8251 7.78408 50.3426 6.89485C49.856 6.7192 47.7329 5.98914 44.8026 6.00012C43.2102 6.00561 39.8431 6.06051 36.4262 8.17382C35.735 8.60197 33.7059 9.93582 32.0472 12.3949C30.4659 14.7388 30.8972 15.6115 28.9565 19.6899C27.9779 21.7374 27.3255 23.1152 25.993 24.6796C25.5507 25.201 23.8201 27.1661 20.84 28.7744C17.3568 30.6517 16.3837 29.7679 13.492 31.5903C11.0316 33.1382 9.65492 35.0924 8.98038 36.0695C8.27268 37.0904 6.63057 39.5276 6.14402 43.1065C5.90628 44.863 5.67959 48.8371 7.94647 52.7014C10.722 57.433 15.6649 59.3268 16.837 59.7385C18.7611 60.4136 20.0991 60.463 22.2499 61.7859C22.8304 62.1427 24.5776 63.2734 26.2473 65.3703C28.2212 67.8459 28.1106 69.1962 29.9849 73.1758C31.5939 76.59 32.3956 78.2971 33.9824 79.8286C37.3329 83.0726 41.6732 83.5886 43.3871 83.7972C45.1011 84.0003 48.1476 84.3626 51.3765 83.0287C57.0603 80.6794 59.4488 73.4887 59.88 72.281C60.3776 70.8813 60.7868 69.2456 62.2022 67.2915C63.4296 65.5899 64.7953 64.514 65.8126 63.7071C66.4042 63.235 68.1293 61.9176 70.8384 60.6387C74.3051 58.9974 74.6645 59.6506 76.7655 58.465C80.1105 56.5767 81.7084 53.5028 82.3055 52.3227C83.8702 49.2268 84.014 46.3725 83.9808 44.9014V44.8959Z" fill="#231F20"/>
</svg>
