<svg width="90" height="90" viewBox="0 0 90 90" fill="none" xmlns="http://www.w3.org/2000/svg">
<g clip-path="url(#clip0_868_102)">
<path d="M29.4788 12.1841C29.1219 12.5476 28.6298 13.1045 28.5054 13.8833C28.3215 15.016 29.0083 15.9742 29.3599 16.4367C32.6534 20.7742 41.0577 28.6658 41.0577 28.6658C41.0577 28.6658 42.3016 29.8363 43.3724 31.8564C43.9078 32.8665 44.4432 33.9095 43.9835 34.4098C43.7401 34.6742 43.0371 34.9668 40.5709 34.1974C35.9091 32.7437 31.058 29.4021 25.3416 24.8427C24.8603 24.4604 23.8868 23.6769 22.4158 23.4598C20.4526 23.1672 18.3543 23.9932 17.0563 25.159C15.0553 26.9667 15.0769 29.4871 15.1094 32.2812C15.131 34.339 15.1418 35.3821 15.7205 36.5338C17.8459 40.7816 25.2659 41.7161 26.4395 41.8483C31.1121 42.3769 38.1643 41.6265 41.9122 42.4855C42.4097 42.5988 43.1615 42.8111 43.2534 43.2312C43.4156 43.9581 41.4633 44.8501 40.8143 45.1427C38.0075 46.4265 35.3467 46.6012 34.8437 46.6295C30.8417 46.8608 27.1804 46.6484 21.6857 46.3085C17.662 46.0584 16.3316 45.9687 15.1094 46.8419C13.3572 48.0832 13.1625 50.3298 13.0381 51.7316C12.984 52.3783 12.8434 54.7287 14.2549 57.471C14.9201 58.7595 16.9211 62.6439 21.199 63.7436C25.6661 64.8905 30.0251 62.3324 31.0688 61.7235C33.8162 60.1141 37.7209 56.6119 40.8143 55.1299C41.3281 54.8845 42.2421 54.4927 42.7612 54.809C43.2534 55.111 43.1615 55.9134 43.129 56.1919C42.7018 59.8214 36.3093 64.8056 36.3093 64.8056C31.5448 68.5201 29.084 69.8039 25.9527 73.4193C24.4493 75.1562 23.6435 76.4447 23.8814 77.8843C24.2438 80.0931 26.8397 81.4052 28.5108 82.2454C33.1402 84.577 37.802 83.9445 38.4996 83.8407C39.8895 83.633 43.6915 83.0666 46.1738 80.4377C48.4506 78.0306 48.4939 75.1137 48.4885 72.5697C48.4723 61.8746 47.6394 52.5199 47.634 52.4727C47.3149 48.9186 47.0445 43.5946 47.5096 36.9491C47.5042 36.9255 46.6713 33.3762 48.3641 29.7183C48.5588 29.2983 49.0239 28.3165 49.5809 28.3354C50.1596 28.3543 50.5436 29.4399 50.6788 29.8222C52.0903 33.8151 50.5868 48.2767 50.4354 49.8107C49.9595 54.5871 50.0947 59.6279 51.5333 64.8009C51.7225 65.49 53.1395 70.342 57.6228 74.2641C58.9478 75.4252 59.7753 75.8311 60.6676 75.8594C63.3555 75.9444 65.6269 72.5556 67.8551 68.4163C73.4363 58.0326 72.7873 53.9075 76.5027 37.6901C76.9191 35.8683 77.7303 32.4181 75.5292 30.3555C74.4205 29.3171 72.9333 29.0811 71.0242 28.7602C67.8226 28.2269 66.4057 28.7838 61.1544 28.9726C54.5943 29.2086 53.9832 28.444 53.8425 28.123C53.5235 27.3914 54.524 26.4664 54.5726 26.4239C56.0761 25.0693 58.5044 25.8103 61.6411 25.7867C62.6578 25.7773 69.0611 25.7301 71.511 22.7046C73.7067 19.9907 71.8517 15.9458 71.3866 14.9452C69.1422 10.0602 63.8152 8.23363 59.8131 6.86488C56.022 5.56693 54.7619 6.02475 54.2103 6.33154C53.5289 6.70913 52.788 7.48318 52.3823 11.2213C51.8037 16.5453 52.8204 19.4149 51.4089 23.8752C50.6517 26.2681 50.0785 26.3248 49.9487 26.32C49.5268 26.3106 49.1158 25.6168 48.6075 23.7666C47.6827 20.4014 48.0234 18.9854 47.634 16.3234C47.2662 13.7936 46.812 10.7068 44.1025 8.56402C43.5779 8.14868 42.5395 7.3463 40.9333 6.96872C35.8118 5.76516 31.2257 10.4142 29.4788 12.1794V12.1841Z" fill="#7C8470"/>
</g>
<defs>
<clipPath id="clip0_868_102">
<rect width="64" height="78" fill="white" transform="translate(13 6)"/>
</clipPath>
</defs>
</svg>
