<svg width="36" height="36" viewBox="0 0 36 36" fill="none" xmlns="http://www.w3.org/2000/svg">
<path d="M16.7024 23.6997C15.7176 23.6997 10.8037 23.6206 10.8037 22.0483C10.8037 20.4761 15.7176 20.397 16.7024 20.397C17.6871 20.397 22.601 20.4761 22.601 22.0483C22.601 23.6206 17.6871 23.6997 16.7024 23.6997ZM11.9054 22.0483C12.4319 22.3252 14.0699 22.7109 16.7024 22.7109C19.3348 22.7109 20.9728 22.3252 21.4993 22.0483C20.9728 21.7715 19.3348 21.3858 16.7024 21.3858C14.0699 21.3858 12.4319 21.7715 11.9054 22.0483Z" fill="black"/>
<path d="M28.9189 28.9902C28.9189 28.9902 28.8604 28.9902 28.8312 28.9902C28.7142 28.9704 25.9257 28.4463 23.5663 26.4192C22.3768 25.3908 21.704 22.4934 21.6358 22.1671C21.5773 21.9001 21.743 21.6331 22.0063 21.5738C22.2695 21.5145 22.5328 21.6826 22.5913 21.9496C22.7668 22.7505 23.4005 24.9754 24.2 25.6676C26.345 27.5168 28.9774 28.0112 28.9969 28.0211C29.2602 28.0705 29.4357 28.3276 29.3869 28.5946C29.3479 28.8319 29.1432 29.0001 28.9092 29.0001L28.9189 28.9902Z" fill="black"/>
<path d="M4.48587 28.9902C4.25188 28.9902 4.04713 28.8221 4.00813 28.5847C3.95938 28.3178 4.13488 28.0607 4.39813 28.0112C4.42738 28.0112 7.05009 27.5069 9.19506 25.6577C9.99455 24.9656 10.6283 22.7406 10.8038 21.9397C10.8623 21.6727 11.1255 21.5046 11.3888 21.5639C11.652 21.6232 11.8178 21.8902 11.7593 22.1572C11.691 22.4835 11.0183 25.3809 9.8288 26.4093C7.47909 28.4364 4.68087 28.9605 4.56387 28.9803C4.53463 28.9803 4.50538 28.9803 4.47613 28.9803L4.48587 28.9902Z" fill="black"/>
<path d="M26.0722 24.8172C25.3215 24.8172 24.9413 24.3524 24.7658 24.0261C24.7268 23.9569 24.6975 23.9371 24.5415 23.858C24.405 23.7888 24.2198 23.6998 24.0443 23.5218C23.6933 23.1955 23.664 22.7802 23.6445 22.533C23.6445 22.4736 23.6348 22.3945 23.625 22.3648C23.2058 22.0583 23.04 21.3859 23.04 20.931C23.04 20.664 23.118 20.4168 23.1765 20.219C23.196 20.1399 23.235 20.0312 23.235 19.9916C23.1473 19.7246 22.9815 19.1907 23.1668 18.5281C23.2545 18.2117 23.235 17.9645 23.1863 17.4799L23.1473 17.035C23.1083 16.4911 23.3033 16.0066 23.4788 15.5715C23.6055 15.2649 23.7225 14.988 23.7225 14.7606C23.7225 13.93 23.9175 13.3268 24.366 12.8225C24.5415 12.6247 24.5805 12.3874 24.6488 11.9622C24.6683 11.8237 24.6878 11.6853 24.717 11.537C24.8243 10.9832 25.1363 10.7261 25.4678 10.4492C25.653 10.3009 25.848 10.1328 26.082 9.87569C26.7645 9.10439 27.3007 9.02528 27.5152 9.03517C27.7395 9.03517 28.2757 9.10439 28.9485 9.87569C29.1727 10.1328 29.3775 10.3009 29.5627 10.4492C29.8942 10.7261 30.2062 10.9832 30.3134 11.537C30.3427 11.6853 30.3622 11.8237 30.3817 11.9622C30.4402 12.3874 30.4792 12.6247 30.6644 12.8225C31.1032 13.3268 31.3079 13.93 31.3079 14.7606C31.3079 14.988 31.4249 15.2748 31.5517 15.5715C31.7272 15.9967 31.9222 16.4911 31.8832 17.035L31.8442 17.4799C31.8052 17.9645 31.7759 18.2117 31.8637 18.5281C32.0489 19.1907 31.8929 19.7147 31.8149 19.9718C31.8052 20.0312 31.8344 20.1399 31.8637 20.219C31.9222 20.4168 32.0002 20.664 32.0002 20.931C32.0002 21.3859 31.8344 22.0583 31.3762 22.4242C31.4054 22.3945 31.4054 22.4835 31.3957 22.533C31.3762 22.7802 31.3469 23.1856 30.9959 23.5218C30.8107 23.6899 30.6254 23.7888 30.4987 23.858C30.3427 23.9371 30.3134 23.9569 30.2744 24.0261C30.0599 24.4316 29.5237 25.0743 28.3147 24.7183C28.0515 24.6392 27.9052 24.3722 27.9832 24.1052C28.0612 23.8382 28.3245 23.6899 28.5877 23.769C29.202 23.947 29.3385 23.6998 29.4165 23.5614C29.6017 23.2153 29.8649 23.0768 30.0599 22.9779C30.1672 22.9285 30.255 22.8791 30.333 22.8098C30.4012 22.7505 30.4109 22.6615 30.4304 22.4736C30.4499 22.2462 30.4694 21.9001 30.7814 21.6628C30.9277 21.554 31.0349 21.2277 31.0349 20.9508C31.0349 20.8321 30.9862 20.6739 30.9374 20.5256C30.8692 20.2982 30.7912 20.0608 30.8594 19.8235L30.8984 19.7049C30.9569 19.4972 31.0447 19.2005 30.9374 18.8149C30.8009 18.3205 30.8302 17.9348 30.8789 17.4107L30.9179 16.9756C30.9374 16.6691 30.8009 16.323 30.6547 15.967C30.4987 15.5912 30.3427 15.1957 30.3427 14.7705C30.3427 14.1772 30.2257 13.8113 29.9429 13.485C29.5627 13.0499 29.4945 12.5752 29.4262 12.1105C29.4067 11.9918 29.3872 11.8633 29.3677 11.7347C29.3287 11.5468 29.2507 11.4677 28.9582 11.2304C28.7632 11.0623 28.5097 10.8645 28.2367 10.5481C27.8077 10.0636 27.5445 10.0339 27.5445 10.0339C27.5055 10.0339 27.2422 10.0636 26.8132 10.5481C26.5403 10.8645 26.2867 11.0623 26.0918 11.2304C25.7993 11.4677 25.7213 11.5468 25.6823 11.7347C25.653 11.8633 25.6433 11.9918 25.6238 12.1105C25.5555 12.5752 25.4873 13.0499 25.107 13.485C24.8243 13.8113 24.7073 14.1772 24.7073 14.7705C24.7073 15.1957 24.5513 15.5813 24.3953 15.967C24.249 16.323 24.1125 16.6691 24.132 16.9756L24.171 17.4107C24.2198 17.9447 24.249 18.3205 24.1125 18.8149C24.0053 19.2005 24.093 19.4873 24.1515 19.7049L24.1905 19.8235C24.249 20.0608 24.1808 20.2982 24.1125 20.5256C24.0638 20.664 24.015 20.8321 24.015 20.9508C24.015 21.2277 24.132 21.554 24.2685 21.6628C24.5708 21.9001 24.6 22.2462 24.6195 22.4736C24.639 22.6714 24.6488 22.7505 24.717 22.8098C24.795 22.889 24.8828 22.9285 24.99 22.9878C25.185 23.0867 25.4483 23.2251 25.6335 23.5712C25.7115 23.7097 25.8383 23.9668 26.4623 23.7789C26.7255 23.6998 26.9887 23.858 27.0667 24.1151C27.1447 24.3722 26.9887 24.6491 26.7352 24.7282C26.4915 24.7974 26.2673 24.8271 26.082 24.8271L26.0722 24.8172Z" fill="black"/>
<path d="M28.5393 28.7033C28.276 28.7033 28.0615 28.4956 28.0518 28.2287C27.7593 20.3574 27.6033 16.3229 27.5935 15.868C27.5935 15.6703 27.5545 15.5417 27.5155 15.4725C27.4863 15.5417 27.4473 15.6703 27.4376 15.868C27.4278 16.4119 27.2133 22.1769 27.0281 26.9135C27.0183 27.1904 26.7941 27.3881 26.5211 27.3881C26.2481 27.3782 26.0433 27.1508 26.0531 26.8739C26.2286 22.1373 26.4431 16.3822 26.4528 15.8384C26.4723 14.7704 27.1256 14.4342 27.4571 14.4045C27.886 14.4342 28.5295 14.7803 28.549 15.8384C28.5685 16.5009 28.8903 25.3016 28.9975 28.1891C29.0073 28.466 28.8025 28.6934 28.5295 28.7033H28.51H28.5393Z" fill="black"/>
<path d="M17.2481 20.1893C16.5266 20.1893 16.1562 19.7938 15.9807 19.5169C15.9612 19.4774 15.9319 19.4675 15.7759 19.3983C15.6394 19.3389 15.4639 19.2697 15.2884 19.1214C14.9179 18.8247 14.8887 18.4391 14.8692 18.2314C14.8692 18.2116 14.8692 18.1919 14.8692 18.1721C14.4694 17.8557 14.2842 17.3118 14.2842 16.8965C14.2842 16.6493 14.3622 16.4317 14.4304 16.2636C14.4499 16.2241 14.4597 16.1845 14.4694 16.145C14.3719 15.8582 14.2452 15.4231 14.4207 14.8693C14.4889 14.6518 14.4792 14.4936 14.4402 14.0684L14.4012 13.6926C14.3622 13.2081 14.5572 12.7829 14.7327 12.417C14.8399 12.1896 14.9472 11.9621 14.9472 11.8039C14.9472 11.0919 15.1519 10.5481 15.6004 10.1229C15.7467 9.97454 15.7857 9.80643 15.8442 9.47022C15.8637 9.36145 15.8832 9.24278 15.9124 9.11423C16.0197 8.61981 16.3511 8.38248 16.6729 8.16493C16.8386 8.04627 17.0336 7.90783 17.2579 7.70017C17.9306 7.05742 18.4376 6.96843 18.6326 7.00798C18.8179 6.9882 19.3444 7.05742 20.0073 7.70017C20.2316 7.91772 20.4266 8.05617 20.5923 8.17483C20.9141 8.40226 21.2456 8.62969 21.3528 9.12412C21.3821 9.24278 21.4016 9.37133 21.4211 9.4801C21.4796 9.81631 21.5088 9.98442 21.6648 10.1327C22.1133 10.5678 22.3181 11.1018 22.3181 11.8138C22.3181 11.972 22.4253 12.1994 22.5326 12.4269C22.7081 12.7928 22.9128 13.218 22.8641 13.7025L22.8251 14.0783C22.7861 14.5035 22.7666 14.6617 22.8446 14.8891C23.0396 15.4725 22.8738 15.9373 22.7958 16.1647C22.8056 16.2043 22.8251 16.2339 22.8348 16.2834C22.8933 16.4614 22.9713 16.6789 22.9811 16.9163C22.9811 17.3316 22.8056 17.8754 22.3961 18.1919C22.3961 18.2116 22.3961 18.2314 22.3961 18.2512C22.3766 18.4589 22.3473 18.8445 21.9768 19.1412C21.8013 19.2895 21.6258 19.3587 21.4893 19.418C21.3528 19.4774 21.3138 19.4971 21.2846 19.5367C21.0701 19.8729 20.5436 20.4069 19.4029 20.1201C19.1396 20.0509 18.9836 19.7839 19.0421 19.5169C19.1104 19.2499 19.3736 19.0917 19.6369 19.151C20.2609 19.3093 20.4071 19.0818 20.4558 18.9928C20.6411 18.6863 20.9043 18.5775 21.0993 18.4984C21.2066 18.449 21.2846 18.4193 21.3626 18.36C21.3918 18.3303 21.4016 18.3303 21.4211 18.1523C21.4406 17.9644 21.4698 17.6183 21.7916 17.4008C21.9086 17.3217 22.0061 17.1041 22.0061 16.9064C22.0061 16.8372 21.9573 16.7086 21.9281 16.6097C21.8598 16.4119 21.7721 16.1845 21.8501 15.9373C21.8501 15.9373 21.8793 15.8384 21.8891 15.8285C21.9476 15.6604 22.0158 15.4626 21.9281 15.1957C21.7818 14.7606 21.8208 14.4145 21.8696 13.9794L21.9086 13.6234C21.9281 13.4058 21.8013 13.1388 21.6648 12.862C21.5088 12.5356 21.3528 12.1994 21.3528 11.8237C21.3528 11.3688 21.2553 11.1018 21.0018 10.8546C20.6118 10.4788 20.5436 10.0438 20.4754 9.6581C20.4559 9.55922 20.4461 9.46034 20.4168 9.35156C20.3973 9.24279 20.3291 9.18346 20.0561 8.99558C19.8611 8.85714 19.6271 8.68903 19.3541 8.43192C18.9349 8.0265 18.6716 8.00673 18.6716 8.00673C18.6229 8.00673 18.3694 8.0265 17.9501 8.43192C17.6771 8.68903 17.4431 8.85714 17.2481 8.99558C16.9751 9.18346 16.9069 9.24279 16.8874 9.35156C16.8679 9.46034 16.8484 9.55922 16.8289 9.6581C16.7606 10.0438 16.6924 10.4788 16.3024 10.8546C16.0489 11.1018 15.9514 11.3787 15.9514 11.8237C15.9514 12.2093 15.7857 12.5455 15.6394 12.862C15.5029 13.1388 15.3762 13.4058 15.3957 13.6234L15.4347 13.9794C15.4834 14.4145 15.5127 14.7606 15.3762 15.1957C15.2884 15.4626 15.3567 15.6703 15.4152 15.8285C15.4152 15.8285 15.4542 15.9274 15.4542 15.9373C15.5224 16.1845 15.4444 16.4021 15.3762 16.6097C15.3372 16.7086 15.2982 16.8372 15.2982 16.9064C15.2982 17.1041 15.3957 17.3217 15.5127 17.4008C15.8344 17.6183 15.8637 17.9644 15.8832 18.1523C15.9027 18.3204 15.9124 18.3303 15.9417 18.36C16.0197 18.4193 16.0977 18.4589 16.2049 18.4984C16.3999 18.5775 16.6534 18.6962 16.8484 18.9928C16.9069 19.0818 17.0434 19.2994 17.6674 19.151C17.9306 19.0818 18.1939 19.2499 18.2621 19.5169C18.3304 19.7839 18.1646 20.0509 17.9014 20.1201C17.6771 20.1795 17.4724 20.1992 17.2871 20.1992L17.2481 20.1893Z" fill="black"/>
<path d="M19.6273 21.4847C19.364 21.4847 19.1495 21.277 19.1398 21.01C19.0325 18.5083 18.8863 15.9867 18.7888 14.3848C18.74 13.5146 18.701 12.9114 18.701 12.7334C18.701 12.6147 18.6718 12.5158 18.6426 12.4664C18.6133 12.5158 18.5938 12.6147 18.5841 12.7334C18.5841 12.9114 18.545 13.6332 18.4865 14.6715C18.4085 16.2438 18.2916 18.5478 18.1843 20.8222C18.1746 21.099 17.9503 21.3265 17.6773 21.2968C17.4043 21.2869 17.1996 21.0496 17.2093 20.7826C17.3068 18.5083 17.4238 16.2042 17.5116 14.632C17.5603 13.6036 17.5993 12.8916 17.6091 12.7136C17.6383 11.7742 18.272 11.4677 18.6035 11.4479C19.013 11.4775 19.6468 11.7742 19.676 12.7136C19.676 12.8817 19.715 13.475 19.7638 14.3254C19.8613 15.9274 20.0075 18.4588 20.1148 20.9606C20.1245 21.2375 19.9198 21.4649 19.6468 21.4748H19.6273V21.4847Z" fill="black"/>
</svg>
