<svg width="36" height="36" viewBox="0 0 36 36" fill="none" xmlns="http://www.w3.org/2000/svg">
<path d="M16.4866 20.4261C15.4418 20.4261 10.2285 20.3428 10.2285 18.6863C10.2285 17.0298 15.4418 16.9464 16.4866 16.9464C17.5313 16.9464 22.7446 17.0298 22.7446 18.6863C22.7446 20.3428 17.5313 20.4261 16.4866 20.4261ZM11.3974 18.6863C11.9559 18.978 13.6937 19.3843 16.4866 19.3843C19.2794 19.3843 21.0172 18.978 21.5758 18.6863C21.0172 18.3946 19.2794 17.9882 16.4866 17.9882C13.6937 17.9882 11.9559 18.3946 11.3974 18.6863Z" fill="black"/>
<path d="M29.4474 25.9896C29.4474 25.9896 29.3853 25.9896 29.3543 25.9896C29.2301 25.9688 26.2718 25.4166 23.7686 23.2808C22.5066 22.1973 21.7929 19.1448 21.7205 18.8009C21.6584 18.5197 21.8342 18.2384 22.1135 18.1758C22.3928 18.1029 22.6721 18.2904 22.7342 18.5717C22.9204 19.4156 23.5927 21.7598 24.4513 22.489C26.7269 24.4373 29.5198 24.9582 29.5405 24.9686C29.8197 25.0207 30.0059 25.2916 29.9542 25.5729C29.9128 25.8229 29.6956 26 29.4474 26V25.9896Z" fill="black"/>
<path d="M3.51548 25.9896C3.26722 25.9896 3.05 25.8124 3.00863 25.5624C2.95691 25.2811 3.1431 25.0102 3.42239 24.9581C3.45342 24.9581 6.23593 24.4268 8.51159 22.4786C9.35979 21.7493 10.0321 19.4051 10.2287 18.5613C10.2907 18.28 10.57 18.1133 10.8493 18.1654C11.1286 18.2279 11.3044 18.5092 11.2424 18.7905C11.17 19.1343 10.4562 22.1869 9.19429 23.2704C6.70141 25.4061 3.7327 25.9583 3.60858 25.9791C3.57754 25.9791 3.54651 25.9791 3.51548 25.9791V25.9896Z" fill="black"/>
<path d="M32.4886 19.2072H26.2306C26.0547 19.2072 25.8789 19.1134 25.7858 18.9572C25.6927 18.8009 25.6823 18.6134 25.7651 18.4467L28.889 12.3623C29.0648 12.0185 29.6337 12.0185 29.8096 12.3623L32.9438 18.4467C33.0265 18.6029 33.0162 18.8009 32.9231 18.9572C32.83 19.1134 32.6645 19.2072 32.4783 19.2072H32.4886ZM27.0788 18.1654H31.6404L29.3648 13.7376L27.0891 18.1654H27.0788Z" fill="black"/>
<path d="M25.838 15.4462H21.3487C21.1729 15.4462 20.997 15.3524 20.9039 15.1962C20.8109 15.0399 20.8005 14.8524 20.8833 14.6857L23.1279 10.2579C23.3037 9.91405 23.8727 9.91405 24.0485 10.2579L26.2931 14.6857C26.3759 14.8524 26.3655 15.0399 26.2724 15.1962C26.1793 15.3524 26.0138 15.4462 25.8277 15.4462H25.838ZM22.1969 14.4044H25.0001L23.6037 11.6435L22.2073 14.4044H22.1969Z" fill="black"/>
</svg>
