<svg width="36" height="36" viewBox="0 0 36 36" fill="none" xmlns="http://www.w3.org/2000/svg">
<path d="M30.7918 28.4375C30.519 28.4375 30.3047 28.2125 30.3047 27.9261V19.3251L31.0256 7.48203C31.0451 7.19567 31.2691 6.98089 31.5419 7.00135C31.8147 7.0218 32.0095 7.26725 31.9998 7.54339L31.2789 19.3558V27.9261C31.2789 28.2125 31.0646 28.4375 30.7918 28.4375Z" fill="black"/>
<path d="M23.1443 29C22.8715 29 22.6572 28.775 22.6572 28.4886V19.3251C22.6572 19.0387 22.8715 18.8137 23.1443 18.8137H30.7918C31.0645 18.8137 31.2789 19.0387 31.2789 19.3251C31.2789 19.6114 31.0645 19.8364 30.7918 19.8364H23.6314V28.4886C23.6314 28.775 23.4171 29 23.1443 29Z" fill="black"/>
<path d="M30.7918 26.0443H23.1443C22.8715 26.0443 22.6572 25.8193 22.6572 25.533C22.6572 25.2466 22.8715 25.0216 23.1443 25.0216H30.7918C31.0645 25.0216 31.2789 25.2466 31.2789 25.533C31.2789 25.8193 31.0645 26.0443 30.7918 26.0443Z" fill="black"/>
<path d="M5.20928 28.4373C4.9365 28.4373 4.72218 28.2123 4.72218 27.9259V19.3249L4.00128 7.55339C3.9818 7.26703 4.18638 7.0318 4.45916 7.01135C4.74167 6.98067 4.956 7.20567 4.97548 7.49203L5.69637 19.3044V27.9362C5.69637 28.2225 5.48205 28.4475 5.20928 28.4475V28.4373Z" fill="black"/>
<path d="M12.8474 29C12.5747 29 12.3603 28.775 12.3603 28.4886V19.8364H5.19999C4.92721 19.8364 4.71289 19.6114 4.71289 19.3251C4.71289 19.0387 4.92721 18.8137 5.19999 18.8137H12.8474C13.1202 18.8137 13.3345 19.0387 13.3345 19.3251V28.4886C13.3345 28.775 13.1202 29 12.8474 29Z" fill="black"/>
<path d="M12.8474 26.0443H5.19999C4.92721 26.0443 4.71289 25.8193 4.71289 25.533C4.71289 25.2466 4.92721 25.0216 5.19999 25.0216H12.8474C13.1202 25.0216 13.3345 25.2466 13.3345 25.533C13.3345 25.8193 13.1202 26.0443 12.8474 26.0443Z" fill="black"/>
<path d="M19.5887 28.4375H16.4031C16.1303 28.4375 15.916 28.2125 15.916 27.9262V15.7968C15.916 15.5104 16.1303 15.2854 16.4031 15.2854H19.5887C19.8615 15.2854 20.0758 15.5104 20.0758 15.7968V27.9262C20.0758 28.2125 19.8615 28.4375 19.5887 28.4375ZM16.8902 27.4148H19.1016V16.3081H16.8902V27.4148Z" fill="black"/>
<path d="M21.6927 28.4375H14.2889C14.0161 28.4375 13.8018 28.2125 13.8018 27.9262C13.8018 27.6398 14.0161 27.4148 14.2889 27.4148H21.6927C21.9655 27.4148 22.1798 27.6398 22.1798 27.9262C22.1798 28.2125 21.9655 28.4375 21.6927 28.4375Z" fill="black"/>
<path d="M18.0198 16.308C15.3992 16.308 9.29102 16.1341 9.29102 14.5387C9.29102 12.9433 15.3992 12.7694 18.0198 12.7694C20.6404 12.7694 26.7486 12.9433 26.7486 14.5387C26.7486 16.1341 20.6501 16.308 18.0198 16.308ZM10.5575 14.5387C11.4537 14.866 13.9477 15.2853 18.0198 15.2853C22.092 15.2853 24.5859 14.866 25.4821 14.5387C24.5859 14.2114 22.092 13.7921 18.0198 13.7921C13.9477 13.7921 11.4537 14.2114 10.5575 14.5387Z" fill="black"/>
</svg>
