<svg width="90" height="90" viewBox="0 0 90 90" fill="none" xmlns="http://www.w3.org/2000/svg">
<g clip-path="url(#clip0_868_93)">
<path d="M33.3847 21.1103C33.4529 20.3291 34.3793 19.8554 34.7108 19.6845C35.7346 19.1669 36.7487 19.2597 37.1777 19.3037C39.1034 19.5087 40.0687 19.6113 42.4869 20.0654C44.2566 20.3974 45.846 20.3193 49.0295 20.1582C52.14 20.0019 53.6952 19.9287 55.2894 19.4941C56.5716 19.1474 57.7271 18.6786 59.4627 18.83C60.9155 18.9521 61.7443 19.4208 62.0222 19.5917C62.2563 19.7334 64.3429 21.0322 64.1089 22.5361C63.9577 23.4932 62.9388 24.0547 62.5926 24.2451C61.0959 25.0655 59.921 24.626 56.5229 24.3379C52.3545 23.9912 51.2429 24.416 50.5506 24.8116C49.4732 25.4268 48.3031 26.5987 48.5615 27.3751C48.6737 27.7218 49.1173 28.1173 51.1211 28.3272C53.7781 28.6007 55.4406 28.1514 57.5711 27.8536C60.6181 27.4239 62.6853 27.5704 65.3472 27.7608C68.1066 27.9561 69.2377 28.2979 70.0909 29.1866C71.1244 30.2657 71.2804 31.6574 71.3243 32.0382C71.3682 32.4289 71.6071 34.5969 70.3736 35.5539C69.7788 36.0129 69.2036 35.9055 67.0536 35.7443C62.8998 35.4318 63.9236 35.7492 61.1739 35.4611C58.629 35.1926 57.9709 34.9435 57.0982 35.4611C56.0841 36.0617 55.3138 37.3703 55.6746 38.1223C55.9476 38.6887 56.8008 38.8059 57.6637 38.884C60.9155 39.177 63.6067 38.8889 64.5866 38.7913C69.0524 38.3274 69.9787 38.4202 70.749 39.0745C71.5145 39.7288 71.7436 40.6077 71.9825 41.5452C72.3579 43.0052 72.6455 45.9789 71.0318 47.1508C70.1786 47.7709 69.1158 47.6439 67.3314 47.434C64.7183 47.1263 63.8066 46.2328 62.6853 46.8627C62.0466 47.224 61.4811 47.9955 61.5493 48.7621C61.6225 49.5629 62.3586 50.061 62.4025 50.0903C63.7042 50.9496 65.0352 49.5531 67.4289 50.0903C68.0676 50.2319 68.9744 50.4369 69.3254 51.1352C69.9105 52.3022 68.5649 54.1235 67.6191 55.0269C66.1224 56.4624 64.3526 56.8335 62.4025 57.2095C61.5006 57.3853 59.6333 57.6831 57.0933 57.4927C54.4411 57.2974 54.0024 56.7945 50.1704 56.1646C48.3811 55.8716 46.9819 55.6421 45.1439 55.5933C44.2322 55.5689 42.3504 55.5737 37.558 56.4478C32.5559 57.3609 32.98 57.6538 30.2547 57.9664C27.4856 58.2837 24.9017 58.5523 21.9082 57.4927C21.2452 57.2583 19.2951 56.5064 17.4522 54.7388C16.3504 53.6841 14.7659 52.1606 15.1754 50.6567C15.2388 50.4223 15.4875 49.6703 17.0719 48.85C19.4023 47.6439 21.7278 47.7855 23.3318 47.8978C30.1524 48.391 33.5602 48.64 35.2812 49.0356C37.1436 49.4652 39.0205 50.0317 40.1175 49.0356C40.7172 48.4936 41.0194 47.5463 40.878 46.6625C40.6489 45.266 39.3569 44.6165 39.0742 44.4798C38.299 44.0892 37.5726 44.0941 37.085 44.099C34.3939 44.138 31.5808 44.2601 30.8252 44.2894C29.1919 44.348 27.8854 44.3187 26.3691 44.0062C24.3069 43.5814 23.9412 43.0687 23.8096 42.7708C23.3123 41.6673 24.4873 40.2317 24.6628 40.0169C25.2234 39.3333 26.0717 38.718 27.6026 38.3079C29.2553 37.8635 30.1524 38.0735 33.3847 38.3079C39.513 38.7473 38.5038 38.1516 40.4003 38.5911C41.1949 38.7766 42.3943 39.1184 43.6228 38.5911C43.9154 38.4641 44.944 38.0246 45.1391 37.0725C45.3146 36.2082 44.7052 35.3928 44.1884 34.9826C43.5107 34.4455 42.7258 34.3967 40.8683 34.509C38.5281 34.6506 36.5341 34.9289 36.1246 34.9826C33.0337 35.4172 32.1854 35.5832 31.4784 34.9826C30.9178 34.509 30.557 33.6447 30.8154 33.0832C31.1421 32.3703 32.3755 32.297 33.4724 32.2287C35.6468 32.0968 36.7048 32.7023 37.1728 32.1359C37.5043 31.7257 37.3727 30.9152 36.9827 30.4269C36.3391 29.6212 35.0862 29.797 32.6193 29.9532C28.6118 30.2071 29.5673 29.8849 26.9298 30.1437C23.639 30.4659 22.6103 30.9249 21.4304 30.1437C21.3671 30.0997 20.0312 29.1915 20.1044 27.961C20.1872 26.584 21.9667 25.8077 22.4738 25.5879C23.8437 24.9873 24.887 25.2998 27.4027 25.6807C28.4948 25.8467 26.3204 25.4952 34.6084 26.4424C34.6084 26.4424 36.3294 26.6378 39.6348 26.4424C40.6733 26.379 41.5996 26.2862 42.1017 25.5879C42.4333 25.1241 42.5795 24.3965 42.2919 23.8789C42.17 23.6543 41.7848 23.1465 39.3521 23.0244C36.5244 22.8828 35.5737 23.4981 34.4231 22.7412C34.311 22.668 33.3067 21.9844 33.3798 21.125L33.3847 21.1103Z" fill="#D9D8D8"/>
<path d="M6 66.0381C7.05794 65.3398 8.70092 64.3925 10.8753 63.6455C15.1071 62.1904 18.6855 62.4101 23.7169 62.7714C35.3347 63.6015 40.6829 64.0751 40.6829 64.0751C48.6492 64.7783 52.6713 65.1299 54.4264 65.0761C60.3304 64.9052 67.9066 63.8603 70.042 63.5673C71.0463 63.4306 74.5907 62.9326 79.2515 63.1572C82.3131 63.3037 83.844 63.3818 83.9854 63.8017C84.6192 65.7207 64.3818 77.6838 40.7755 76.966C23.8485 76.4484 11.5335 69.6026 6 66.0332L6 66.0381Z" fill="#D9D8D8"/>
<path d="M55.6401 14.9238C52.3931 13.498 49.7117 13.1122 47.864 13.0243C44.3099 12.8583 39.7076 13.5956 39.7076 13.5956C39.8148 13.249 39.3907 14.2793 39.4248 14.6406C39.4784 15.2656 40.9069 15.7685 42.272 15.9687C46.0406 16.5351 52.9782 15.3974 55.6401 14.9238Z" fill="#D9D8D8"/>
</g>
<defs>
<clipPath id="clip0_868_93">
<rect width="78" height="64" fill="white" transform="translate(6 13)"/>
</clipPath>
</defs>
</svg>
