<svg width="90" height="90" viewBox="0 0 90 90" fill="none" xmlns="http://www.w3.org/2000/svg">
<path d="M31.2977 20.9095C31.3878 19.8714 32.6205 19.241 33.0615 19.0182C34.4222 18.3261 35.7687 18.4541 36.3376 18.5157C38.8978 18.7859 40.1827 18.9234 43.3972 19.5254C45.7488 19.9662 47.8634 19.8619 52.0972 19.6533C56.2315 19.4495 58.2987 19.3452 60.418 18.7717C62.1201 18.3071 63.6609 17.6909 65.9652 17.89C67.8948 18.0559 68.9995 18.6721 69.3693 18.8997C69.6775 19.0845 72.4558 20.8147 72.1429 22.8055C71.9438 24.0759 70.5878 24.8201 70.1279 25.0761C68.1366 26.1663 66.572 25.5785 62.0584 25.2041C56.516 24.7395 55.0368 25.3083 54.117 25.8345C52.6851 26.6498 51.13 28.2093 51.4714 29.2379C51.6231 29.6977 52.211 30.2239 54.8756 30.4988C58.4077 30.8591 60.6171 30.2665 63.4476 29.8684C67.5013 29.2996 70.2464 29.4939 73.7881 29.7404C77.4577 30.0011 78.9607 30.4514 80.0938 31.6317C81.4688 33.0632 81.6774 34.9119 81.7343 35.4144C81.7912 35.931 82.1136 38.813 80.4731 40.0787C79.6813 40.6901 78.918 40.5479 76.0591 40.3299C70.5404 39.9128 71.9011 40.3394 68.2409 39.9507C64.8557 39.5952 63.9833 39.2634 62.817 39.9507C61.4705 40.747 60.4464 42.4819 60.9253 43.4821C61.2856 44.2358 62.4235 44.3875 63.5709 44.4918C67.8948 44.8804 71.4744 44.5012 72.7735 44.3638C78.7094 43.7523 79.9421 43.8708 80.9709 44.743C81.9903 45.6104 82.289 46.7812 82.6114 48.0184C83.1092 49.9572 83.4932 53.9057 81.3502 55.4557C80.2124 56.2805 78.8042 56.1146 76.4336 55.8349C72.9584 55.4273 71.7494 54.2422 70.2559 55.0765C69.4025 55.5553 68.6534 56.5791 68.7435 57.5983C68.8383 58.6601 69.8197 59.3237 69.8766 59.3616C71.6119 60.504 73.3803 58.6506 76.5617 59.3616C77.4151 59.5512 78.6193 59.8214 79.084 60.7505C79.8615 62.3005 78.0693 64.718 76.8129 65.9173C74.8216 67.8228 72.4653 68.311 69.8766 68.8182C68.6724 69.0505 66.1927 69.4439 62.817 69.1974C59.2896 68.9367 58.7064 68.2684 53.6144 67.4341C51.2343 67.0454 49.3758 66.7373 46.9341 66.6757C45.7204 66.6472 43.2218 66.6472 36.8449 67.8086C30.1931 69.0221 30.7573 69.4107 27.135 69.8279C23.4511 70.2497 20.0185 70.6053 16.0407 69.1974C15.1588 68.8846 12.5654 67.8892 10.1142 65.5428C8.64919 64.1397 6.53937 62.1204 7.08935 60.12C7.17469 59.8119 7.50183 58.8118 9.61165 57.7263C12.7076 56.1288 15.8036 56.3137 17.9324 56.4654C27.0022 57.1195 31.5348 57.4513 33.82 57.9775C36.2997 58.5511 38.7888 59.2953 40.2491 57.9775C41.0456 57.257 41.4486 56.0008 41.2589 54.8253C40.9555 52.9719 39.2345 52.1092 38.8646 51.9243C37.8311 51.4076 36.8686 51.4124 36.2191 51.4219C32.6442 51.474 28.8987 51.6352 27.8983 51.6731C25.7269 51.7537 23.9869 51.711 21.9719 51.2939C19.2315 50.7298 18.7479 50.052 18.5677 49.6538C17.9039 48.1891 19.4685 46.2835 19.7008 45.9991C20.4452 45.0938 21.5736 44.2737 23.6076 43.7286C25.8027 43.1408 27.0022 43.4205 31.2977 43.7286C39.4478 44.3116 38.1061 43.52 40.6284 44.1078C41.6856 44.3543 43.2787 44.8093 44.9144 44.1078C45.3031 43.9419 46.6733 43.3541 46.9341 42.0885C47.1664 40.9414 46.3604 39.8606 45.673 39.3155C44.7721 38.5997 43.7243 38.5381 41.2589 38.6851C38.1487 38.8747 35.4937 39.2397 34.9532 39.3155C30.8426 39.8891 29.7142 40.1119 28.7754 39.3155C28.0263 38.6851 27.5522 37.5427 27.8936 36.7937C28.325 35.8457 29.9655 35.7462 31.4258 35.6608C34.3179 35.4855 35.726 36.2913 36.3423 35.5329C36.7833 34.9925 36.6078 33.9117 36.0911 33.2623C35.2377 32.1911 33.5688 32.4281 30.2926 32.6319C24.9635 32.9684 26.2342 32.5418 22.7257 32.8831C18.3496 33.3145 16.9794 33.9165 15.4148 32.8831C15.3295 32.8262 13.5516 31.6175 13.6511 29.9821C13.7602 28.1572 16.126 27.1238 16.804 26.8299C18.6246 26.0336 20.0185 26.4507 23.361 26.9579C24.8166 27.176 21.9245 26.7114 32.9429 27.9676C32.9429 27.9676 35.2282 28.2283 39.628 27.9676C41.0077 27.887 42.2404 27.759 42.9041 26.8347C43.3498 26.2185 43.5394 25.2562 43.1554 24.5641C42.9895 24.2655 42.4822 23.5924 39.2487 23.4312C35.4889 23.2464 34.2278 24.0617 32.6916 23.052C32.5447 22.9572 31.2077 22.0519 31.3025 20.9095H31.2977Z" fill="#231F20"/>
<path d="M21.2085 76.1258C21.8438 75.6802 22.8205 75.0735 24.1101 74.6137C26.6182 73.7131 28.7185 73.9169 31.677 74.2345C38.4995 74.9692 41.6382 75.3674 41.6382 75.3674C46.313 75.9599 48.6741 76.2538 49.7076 76.2491C53.1829 76.2301 57.6538 75.6565 58.9102 75.4906C59.5029 75.4148 61.5937 75.1399 64.3341 75.3626C66.131 75.5096 67.0319 75.5854 67.1077 75.8651C67.4538 77.1497 55.3876 84.7861 41.5102 83.9328C31.5632 83.3214 24.4135 78.5765 21.2085 76.1163V76.1258Z" fill="#231F20"/>
<path d="M57.5214 8.55467C53.2022 6.65861 49.6416 6.14668 47.1856 6.03291C42.4587 5.81013 36.3426 6.79134 36.3426 6.79134C36.4801 6.33154 35.9254 7.70145 35.9633 8.1802C36.0344 9.01447 37.9356 9.67335 39.7467 9.94354C44.7582 10.6925 53.9845 9.18038 57.5261 8.55467H57.5214Z" fill="#231F20"/>
</svg>
