<svg width="116" height="8" viewBox="0 0 116 8" fill="none" xmlns="http://www.w3.org/2000/svg">
<g clip-path="url(#clip0_69_5668)">
<path d="M3.2645 7.79003H0V0.230972H3.50483C4.38605 0.241471 5.01692 0.514437 5.38743 1.03937C5.60774 1.36483 5.71789 1.74278 5.71789 2.19423C5.71789 2.64567 5.60774 3.02362 5.38743 3.30709C5.26727 3.46457 5.077 3.61155 4.83667 3.73753C5.20718 3.87402 5.48757 4.10499 5.66782 4.39895C5.85808 4.70341 5.9482 5.07087 5.9482 5.50131C5.9482 5.93176 5.83805 6.35171 5.62776 6.70866C5.48757 6.93963 5.31733 7.13911 5.11706 7.30709C4.88674 7.49606 4.61637 7.62205 4.29593 7.68504C3.9855 7.75853 3.63501 7.79003 3.27452 7.79003H3.2645ZM3.97548 3.02362C4.17576 2.89764 4.26588 2.67717 4.26588 2.36221C4.26588 2.00525 4.1357 1.77428 3.87535 1.66929C3.65504 1.5958 3.36464 1.55381 3.01416 1.55381H1.44199V3.2231H3.21443C3.53488 3.2231 3.78522 3.16011 3.9855 3.03412L3.97548 3.02362ZM3.22445 4.46194H1.44199V6.47769H3.21443C3.53488 6.47769 3.77521 6.4357 3.95546 6.34121C4.2759 6.17323 4.43612 5.85827 4.43612 5.39633C4.43612 5.00787 4.28591 4.73491 3.97548 4.58793C3.80525 4.50394 3.5549 4.46194 3.24448 4.46194H3.22445Z" fill="#1D1D1B"/>
<path d="M12.6275 4.48294H9.12267V6.4252H13.1082V7.77953H7.65063V0.230972H12.9379V1.56431H9.12267V3.1706H12.6275V4.48294Z" fill="#1D1D1B"/>
<path d="M17.7444 4.8189H16.1922V7.77953H14.7202V0.230972H18.2551C18.7558 0.230972 19.1463 0.304463 19.4167 0.430447C19.6871 0.545933 19.9174 0.724411 20.1076 0.955382C20.2679 1.14436 20.388 1.35433 20.4782 1.5958C20.5683 1.82677 20.6184 2.08924 20.6184 2.3937C20.6184 2.75066 20.5282 3.10761 20.358 3.45407C20.1878 3.80053 19.8974 4.042 19.5068 4.18898C19.8373 4.32546 20.0776 4.52494 20.2178 4.7874C20.358 5.04987 20.4281 5.43832 20.4281 5.97375V6.47769C20.4281 6.82415 20.4381 7.05512 20.4681 7.1811C20.5082 7.38058 20.5983 7.51706 20.7385 7.61155V7.80053H19.0762C19.0262 7.63255 18.9961 7.49606 18.9761 7.39108C18.936 7.1811 18.916 6.96063 18.916 6.74016V6.03675C18.896 5.55381 18.8159 5.23885 18.6556 5.07087C18.4954 4.91339 18.195 4.8294 17.7444 4.8294V4.8189ZM18.6556 3.44357C18.9561 3.29659 19.1063 3.01312 19.1063 2.59318C19.1063 2.13123 18.9661 1.82677 18.6757 1.66929C18.5154 1.5853 18.2651 1.53281 17.9447 1.53281H16.1922V3.55906H17.8946C18.2351 3.55906 18.4854 3.51706 18.6556 3.43307V3.44357Z" fill="#1D1D1B"/>
<path d="M26.7368 7.60105C26.3362 7.85302 25.8456 7.9895 25.2748 7.9895C24.3235 7.9895 23.5324 7.64304 22.9315 6.95013C22.3007 6.25722 21.9802 5.30184 21.9802 4.09449C21.9802 2.88714 22.3007 1.88976 22.9415 1.15485C23.5824 0.419946 24.4236 0.0314941 25.4851 0.0314941C26.3963 0.0314941 27.1373 0.272964 27.6881 0.766402C28.2389 1.25984 28.5593 1.85827 28.6394 2.59317H27.1574C27.0472 2.07874 26.7668 1.72178 26.3262 1.51181C26.0759 1.39632 25.8055 1.34383 25.4951 1.34383C24.9143 1.34383 24.4336 1.5748 24.0631 2.03674C23.6926 2.49869 23.5023 3.1916 23.5023 4.11548C23.5023 5.03937 23.7026 5.70079 24.1132 6.08924C24.5137 6.47769 24.9744 6.66666 25.4951 6.66666C26.0158 6.66666 26.4163 6.50918 26.7368 6.20472C27.0572 5.90026 27.2575 5.50131 27.3376 4.99737H25.6653V3.73753H28.6694V7.79002H27.6681L27.5179 6.84514C27.2275 7.2021 26.9671 7.45407 26.7368 7.60105Z" fill="#1D1D1B"/>
<path d="M34.9983 7.9685C34.2673 7.9685 33.6965 7.74803 33.2859 7.29659C32.8753 6.84514 32.665 6.34121 32.665 5.79528C32.665 5.34383 32.7752 4.95538 32.9855 4.62992C33.1958 4.30446 33.5563 3.979 34.0369 3.66404L34.1871 3.56955C33.9768 3.32808 33.8166 3.07611 33.7065 2.81365C33.5963 2.55118 33.5362 2.28871 33.5362 2.01575C33.5362 1.46982 33.7165 1.03937 34.067 0.724409C34.4175 0.419947 34.8781 0.262466 35.4389 0.262466C35.9496 0.262466 36.3702 0.419947 36.7106 0.734907C37.0411 1.04987 37.2113 1.45932 37.2113 1.94226C37.2113 2.3832 37.1112 2.75066 36.9109 3.02362C36.7106 3.29659 36.4202 3.55905 36.0297 3.79003L37.0511 5.11286C37.1713 4.93438 37.2614 4.74541 37.3215 4.53543C37.3815 4.32546 37.4216 4.10499 37.4216 3.87402H38.6633C38.6433 4.33596 38.5431 4.7979 38.3529 5.25984C38.2527 5.52231 38.0825 5.81627 37.8422 6.13123L39.154 7.77953H37.4617L36.961 7.13911C36.7206 7.37008 36.4903 7.54856 36.29 7.66404C35.9195 7.86352 35.4889 7.9685 35.0083 7.9685H34.9983ZM34.9181 4.49344C34.5677 4.73491 34.3373 4.94488 34.2272 5.13386C34.117 5.32283 34.057 5.52231 34.057 5.74278C34.057 5.99475 34.1571 6.22572 34.3474 6.4252C34.5376 6.63517 34.788 6.74016 35.0884 6.74016C35.3187 6.74016 35.529 6.68766 35.7393 6.57218C35.9396 6.45669 36.1098 6.34121 36.24 6.20472L34.9181 4.49344ZM34.828 1.95276C34.828 2.08924 34.8781 2.23622 34.9682 2.3832C35.0283 2.47769 35.1585 2.65617 35.3487 2.90814C35.549 2.76115 35.6892 2.64567 35.7693 2.54068C35.9295 2.35171 36.0097 2.15223 36.0097 1.94226C36.0097 1.78478 35.9596 1.64829 35.8594 1.52231C35.7593 1.39632 35.6091 1.33333 35.4188 1.33333C35.2987 1.33333 35.1785 1.36483 35.0684 1.43832C34.9081 1.54331 34.828 1.71129 34.828 1.94226V1.95276Z" fill="#1D1D1B"/>
<path d="M45.6631 4.8189H44.1109V7.77953H42.6389V0.230972H46.1738C46.6745 0.230972 47.065 0.304463 47.3354 0.430447C47.6058 0.545933 47.8361 0.724411 48.0263 0.955382C48.1866 1.14436 48.3067 1.35433 48.3969 1.5958C48.487 1.82677 48.5371 2.08924 48.5371 2.3937C48.5371 2.75066 48.4469 3.10761 48.2767 3.45407C48.1065 3.80053 47.8161 4.042 47.4255 4.18898C47.756 4.32546 47.9963 4.52494 48.1365 4.7874C48.2767 5.04987 48.3468 5.43832 48.3468 5.97375V6.47769C48.3468 6.82415 48.3568 7.05512 48.3868 7.1811C48.4269 7.38058 48.517 7.51706 48.6572 7.61155V7.80053H46.9949C46.9449 7.63255 46.9148 7.49606 46.8948 7.39108C46.8547 7.1811 46.8347 6.96063 46.8347 6.74016V6.03675C46.8147 5.55381 46.7346 5.23885 46.5743 5.07087C46.4141 4.91339 46.1137 4.8294 45.6631 4.8294V4.8189ZM46.5743 3.44357C46.8748 3.29659 47.025 3.01312 47.025 2.59318C47.025 2.13123 46.8748 1.82677 46.5944 1.66929C46.4341 1.5853 46.1838 1.53281 45.8634 1.53281H44.1109V3.55906H45.8133C46.1538 3.55906 46.4041 3.51706 46.5743 3.43307V3.44357Z" fill="#1D1D1B"/>
<path d="M50.1191 0.230972H51.6112V7.79003H50.1191V0.230972Z" fill="#1D1D1B"/>
<path d="M56.5279 7.79003H53.4236V0.230972H56.5279C56.9785 0.230972 57.349 0.293964 57.6394 0.398951C58.1401 0.577429 58.5507 0.892389 58.8711 1.35433C59.1214 1.73228 59.2917 2.14173 59.3818 2.57218C59.4719 3.01312 59.522 3.42257 59.522 3.82152C59.522 4.8294 59.3317 5.67979 58.9412 6.3727C58.4205 7.31759 57.6194 7.77953 56.5279 7.77953V7.79003ZM57.6494 2.16273C57.4191 1.75328 56.9585 1.54331 56.2775 1.54331H54.8856V6.47769H56.2775C56.9885 6.47769 57.4792 6.11024 57.7596 5.37533C57.9098 4.97638 57.9899 4.49344 57.9899 3.93701C57.9899 3.1706 57.8797 2.57218 57.6494 2.16273Z" fill="#1D1D1B"/>
<path d="M65.4704 7.60105C65.0699 7.85301 64.5792 7.9895 64.0084 7.9895C63.0571 7.9895 62.266 7.64304 61.6652 6.95013C61.0343 6.25721 60.7139 5.30183 60.7139 4.09449C60.7139 2.88714 61.0343 1.88976 61.6752 1.15485C62.3161 0.419944 63.1672 0.0524902 64.2187 0.0524902C65.13 0.0524902 65.871 0.29396 66.4217 0.787398C66.9725 1.27034 67.2929 1.87926 67.3731 2.61417H65.891C65.7809 2.09973 65.5005 1.74278 65.0599 1.53281C64.8095 1.41732 64.5391 1.36483 64.2287 1.36483C63.6479 1.36483 63.1672 1.5958 62.7967 2.05774C62.4262 2.51968 62.236 3.2126 62.236 4.13648C62.236 5.06036 62.4362 5.72178 62.8468 6.11023C63.2474 6.49868 63.708 6.68766 64.2287 6.68766C64.7494 6.68766 65.15 6.53018 65.4704 6.22572C65.7909 5.92126 65.9911 5.52231 66.0713 5.01837H64.3989V3.75853H67.4031V7.81102H66.4017L66.2515 6.86614C65.9611 7.22309 65.7007 7.47506 65.4704 7.62204V7.60105Z" fill="#1D1D1B"/>
<path d="M74.2625 4.48294H70.7577V6.4252H74.7432V7.77953H69.2856V0.230972H74.5729V1.56431H70.7577V3.1706H74.2625V4.48294Z" fill="#1D1D1B"/>
<path d="M83.2248 7.60105C82.8243 7.85301 82.3336 7.9895 81.7628 7.9895C80.8115 7.9895 80.0204 7.64304 79.4196 6.95013C78.7887 6.25721 78.4683 5.30183 78.4683 4.09449C78.4683 2.88714 78.7887 1.88976 79.4296 1.15485C80.0705 0.419944 80.9216 0.0524902 81.9731 0.0524902C82.8844 0.0524902 83.6254 0.29396 84.1761 0.787398C84.7269 1.27034 85.0473 1.87926 85.1274 2.61417H83.6454C83.5352 2.09973 83.2549 1.74278 82.8143 1.53281C82.5639 1.41732 82.2935 1.36483 81.9831 1.36483C81.4023 1.36483 80.9216 1.5958 80.5511 2.05774C80.1806 2.51968 79.9904 3.2126 79.9904 4.13648C79.9904 5.06036 80.1906 5.72178 80.6012 6.11023C81.0018 6.49868 81.4624 6.68766 81.9831 6.68766C82.5038 6.68766 82.9044 6.53018 83.2248 6.22572C83.5453 5.92126 83.7455 5.52231 83.8257 5.01837H82.1533V3.75853H85.1575V7.81102H84.1561L84.0059 6.86614C83.7155 7.22309 83.4551 7.47506 83.2248 7.62204V7.60105Z" fill="#1D1D1B"/>
<path d="M90.0542 4.8189H88.5021V7.77953H87.03V0.230972H90.5649C91.0656 0.230972 91.4561 0.304463 91.7265 0.430447C91.9969 0.545933 92.2272 0.724411 92.4175 0.955382C92.5777 1.14436 92.6978 1.35433 92.788 1.5958C92.8781 1.82677 92.9282 2.08924 92.9282 2.3937C92.9282 2.75066 92.838 3.10761 92.6678 3.45407C92.4976 3.80053 92.2072 4.042 91.8166 4.18898C92.1471 4.32546 92.3874 4.52494 92.5276 4.7874C92.6678 5.04987 92.7379 5.43832 92.7379 5.97375V6.47769C92.7379 6.82415 92.7479 7.05512 92.778 7.1811C92.818 7.38058 92.9081 7.51706 93.0483 7.61155V7.80053H91.386C91.336 7.63255 91.3059 7.49606 91.2859 7.39108C91.2458 7.1811 91.2258 6.96063 91.2258 6.74016V6.03675C91.2058 5.55381 91.1257 5.23885 90.9655 5.07087C90.8052 4.91339 90.5048 4.8294 90.0542 4.8294V4.8189ZM90.9655 3.44357C91.2659 3.29659 91.4161 3.01312 91.4161 2.59318C91.4161 2.13123 91.2759 1.82677 90.9855 1.66929C90.8253 1.5853 90.5749 1.53281 90.2545 1.53281H88.5021V3.55906H90.2044C90.5449 3.55906 90.7952 3.51706 90.9655 3.43307V3.44357Z" fill="#1D1D1B"/>
<path d="M97.8149 8C96.7834 8 96.0024 7.70604 95.4516 7.11811C94.7206 6.3937 94.3601 5.35433 94.3601 4C94.3601 2.64567 94.7206 1.5748 95.4516 0.88189C95.9924 0.293963 96.7834 0 97.8149 0C98.8463 0 99.6274 0.293963 100.178 0.88189C100.909 1.5748 101.27 2.61417 101.27 4C101.27 5.38583 100.909 6.3937 100.178 7.11811C99.6374 7.70604 98.8463 8 97.8149 8ZM99.2368 5.97375C99.5873 5.51181 99.7576 4.86089 99.7576 4C99.7576 3.13911 99.5773 2.49869 99.2368 2.03675C98.8863 1.5748 98.4157 1.34383 97.8149 1.34383C97.214 1.34383 96.7434 1.5748 96.3829 2.03675C96.0224 2.49869 95.8522 3.14961 95.8522 4.0105C95.8522 4.87139 96.0324 5.52231 96.3829 5.98425C96.7334 6.44619 97.214 6.67717 97.8149 6.67717C98.4157 6.67717 98.8863 6.44619 99.2368 5.98425V5.97375Z" fill="#1D1D1B"/>
<path d="M107.078 4.87139V0.230972H108.61V4.87139C108.61 5.67979 108.49 6.29921 108.249 6.75066C107.809 7.56956 106.957 7.979 105.716 7.979C104.474 7.979 103.623 7.56956 103.172 6.75066C102.932 6.29921 102.812 5.67979 102.812 4.87139V0.230972H104.344V4.87139C104.344 5.38583 104.404 5.77428 104.524 6.00525C104.704 6.4252 105.105 6.64567 105.716 6.64567C106.327 6.64567 106.717 6.4357 106.907 6.00525C107.028 5.76378 107.088 5.38583 107.088 4.87139H107.078Z" fill="#1D1D1B"/>
<path d="M113.507 5.07087H111.974V7.79003H110.482V0.230972H113.617C114.338 0.230972 114.919 0.430447 115.349 0.818899C115.78 1.20735 115.99 1.81627 115.99 2.62467C115.99 3.51706 115.78 4.14698 115.349 4.51444C114.919 4.88189 114.308 5.07087 113.507 5.07087ZM114.208 3.49606C114.408 3.31759 114.498 3.02362 114.498 2.63517C114.498 2.24672 114.398 1.96326 114.198 1.79528C113.997 1.6273 113.727 1.54331 113.366 1.54331H111.964V3.76903H113.366C113.717 3.76903 113.997 3.67454 114.198 3.49606H114.208Z" fill="#1D1D1B"/>
</g>
<defs>
<clipPath id="clip0_69_5668">
<rect width="116" height="8" fill="white"/>
</clipPath>
</defs>
</svg>
