<svg width="36" height="36" viewBox="0 0 36 36" fill="none" xmlns="http://www.w3.org/2000/svg">
<path d="M12.9902 3C14.3702 3 15.4902 4.12 15.4902 5.5C15.4902 6.88 14.3702 8 12.9902 8C11.6102 8 10.4902 6.88 10.4902 5.5C10.4902 4.12 11.6102 3 12.9902 3ZM12.9902 2C11.0602 2 9.49023 3.57 9.49023 5.5C9.49023 7.43 11.0602 9 12.9902 9C14.9202 9 16.4902 7.43 16.4902 5.5C16.4902 3.57 14.9202 2 12.9902 2V2Z" fill="black"/>
<path d="M17 33.5H9C8.72 33.5 8.5 33.28 8.5 33V20.5H7C6.72 20.5 6.5 20.28 6.5 20V15C6.5 12.69 8.74 9.5 12.95 9.5C17.16 9.5 19.5 12.69 19.5 15V20C19.5 20.28 19.28 20.5 19 20.5H17.5V33C17.5 33.28 17.28 33.5 17 33.5ZM9.5 32.5H16.5V20C16.5 19.72 16.72 19.5 17 19.5H18.5V15C18.5 13.43 16.87 10.5 12.95 10.5C9.03 10.5 7.5 13.43 7.5 15V19.5H9C9.28 19.5 9.5 19.72 9.5 20V32.5Z" fill="black"/>
<path d="M22.9902 3C24.3702 3 25.4902 4.12 25.4902 5.5C25.4902 6.88 24.3702 8 22.9902 8C21.6102 8 20.4902 6.88 20.4902 5.5C20.4902 4.12 21.6102 3 22.9902 3ZM22.9902 2C21.0602 2 19.4902 3.57 19.4902 5.5C19.4902 7.43 21.0602 9 22.9902 9C24.9202 9 26.4902 7.43 26.4902 5.5C26.4902 3.57 24.9202 2 22.9902 2Z" fill="black"/>
<path d="M27 33.5H19C18.72 33.5 18.5 33.28 18.5 33V24C18.5 23.72 18.72 23.5 19 23.5C19.28 23.5 19.5 23.72 19.5 24V32.5H26.5V20C26.5 19.72 26.72 19.5 27 19.5H28.5V15C28.5 13.43 26.87 10.5 22.95 10.5C21.95 10.5 21.03 10.71 20.22 11.11C19.98 11.23 19.67 11.13 19.55 10.89C19.43 10.64 19.53 10.34 19.77 10.22C20.72 9.75 21.79 9.5 22.94 9.5C27.21 9.5 29.49 12.69 29.49 15V20C29.49 20.28 29.27 20.5 28.99 20.5H27.49V33C27.49 33.28 27.27 33.5 26.99 33.5H27Z" fill="black"/>
</svg>
