<svg width="36" height="36" viewBox="0 0 36 36" fill="none" xmlns="http://www.w3.org/2000/svg">
<path d="M9.49023 5.5C9.49023 3.57 11.0602 2 12.9902 2C14.9202 2 16.4902 3.57 16.4902 5.5C16.4902 7.43 14.9202 9 12.9902 9C11.0602 9 9.49023 7.43 9.49023 5.5Z" fill="black"/>
<path d="M17 33.5H9C8.72 33.5 8.5 33.28 8.5 33V20.5H7C6.72 20.5 6.5 20.28 6.5 20V15C6.5 12.69 8.74 9.5 12.95 9.5C17.16 9.5 19.5 12.69 19.5 15V20C19.5 20.28 19.28 20.5 19 20.5H17.5V33C17.5 33.28 17.28 33.5 17 33.5Z" fill="black"/>
<path d="M22.9902 2C21.0602 2 19.4902 3.57 19.4902 5.5C19.4902 7.43 21.0602 9 22.9902 9C24.9202 9 26.4902 7.43 26.4902 5.5C26.4902 3.57 24.9202 2 22.9902 2Z" fill="black"/>
<path d="M19.0001 33.5H26.9901C27.2701 33.5 27.4901 33.28 27.4901 33V20.5H28.9901C29.2701 20.5 29.4901 20.28 29.4901 20V15C29.4901 12.69 27.2101 9.5 22.9401 9.5C21.7901 9.5 20.17 9.86 19.22 10.33C18.7238 10.5755 18.95 10.9272 19 11C20.45 13.11 20.45 13.11 20.45 16.11V20.61V21.5H19.5H18.5L18.5001 22.8212V33C18.5001 33.28 18.7201 33.5 19.0001 33.5Z" fill="black"/>
</svg>
