<svg width="36" height="36" viewBox="0 0 36 36" fill="none" xmlns="http://www.w3.org/2000/svg">
<path d="M26.2346 17.2035H9.54888C9.26119 17.2035 9.03516 16.9885 9.03516 16.7149C9.03516 16.4412 9.26119 16.2262 9.54888 16.2262H26.2346C26.5223 16.2262 26.7483 16.4412 26.7483 16.7149C26.7483 16.9885 26.5223 17.2035 26.2346 17.2035Z" fill="black"/>
<path d="M24.2919 21.8163C24.0248 21.8163 23.6035 21.7675 23.285 21.5134C23.1001 21.3668 22.874 21.0931 22.874 20.624C22.874 20.1549 23.0898 19.8617 23.2747 19.7053C23.7474 19.2949 24.4255 19.3437 24.5077 19.3535H27.4153C29.2031 19.3535 29.2647 18.9137 29.2647 16.5877C29.2647 14.4181 30.6826 13.7046 31.4327 13.6362C31.5971 13.6265 31.7409 13.6753 31.8436 13.7731C31.9567 13.8708 32.008 14.0174 31.9977 14.164L31.4943 19.9985C31.4738 20.6045 30.9395 21.8066 29.0901 21.8066H24.559C24.559 21.8066 24.446 21.8261 24.2817 21.8261L24.2919 21.8163ZM24.3844 20.3308C24.2303 20.3308 24.0453 20.3601 23.9631 20.4286C23.9426 20.4481 23.9015 20.4872 23.9015 20.624C23.9015 20.7315 23.9323 20.7511 23.9426 20.7608C24.0453 20.839 24.3433 20.839 24.4769 20.8195H29.1004C30.3436 20.8195 30.4669 20.067 30.4771 19.9204L30.9087 14.897C30.6004 15.1608 30.2922 15.6593 30.2922 16.5779C30.2922 18.7476 30.2922 20.3211 27.4153 20.3211H24.4563C24.4563 20.3211 24.4049 20.3211 24.3844 20.3211V20.3308Z" fill="black"/>
<path d="M30.0149 31.9999C29.7478 31.9999 29.5218 31.8044 29.5012 31.5406L28.8334 21.3472C28.8128 21.0736 29.0286 20.8488 29.3163 20.8292C29.6245 20.8292 29.8403 21.0149 29.8608 21.2886L30.5287 31.4819C30.5492 31.7556 30.3334 31.9804 30.0458 31.9999C30.0355 31.9999 30.0252 31.9999 30.0149 31.9999Z" fill="black"/>
<path d="M24.7241 31.9999C24.7241 31.9999 24.7035 31.9999 24.6932 31.9999C24.4056 31.9803 24.1898 31.7555 24.2103 31.4819L24.8782 21.2885C24.8987 21.0247 25.1042 20.8194 25.4227 20.8292C25.7104 20.8487 25.9262 21.0735 25.9056 21.3472L25.2378 31.5405C25.2172 31.7946 24.9912 31.9999 24.7241 31.9999Z" fill="black"/>
<path d="M29.6548 26.5661H26.2334C25.9458 26.5661 25.7197 26.351 25.7197 26.0774C25.7197 25.8038 25.9458 25.5887 26.2334 25.5887H29.6548C29.9425 25.5887 30.1686 25.8038 30.1686 26.0774C30.1686 26.351 29.9425 26.5661 29.6548 26.5661Z" fill="black"/>
<path d="M11.7071 21.8066C11.5222 21.8066 11.3783 21.787 11.3475 21.7772H6.90897C5.06985 21.7772 4.53558 20.5947 4.50475 19.9594L4.00128 14.1444C3.99101 13.9978 4.04238 13.861 4.15539 13.7535C4.26841 13.646 4.41228 13.6069 4.5664 13.6167C5.31643 13.6949 6.73429 14.4083 6.73429 16.5682C6.73429 18.8942 6.78568 19.334 8.58371 19.334H11.5427C11.5427 19.334 12.262 19.2851 12.7243 19.6858C12.9093 19.8422 13.125 20.1354 13.125 20.6045C13.125 21.0736 12.899 21.3472 12.714 21.4938C12.4058 21.7381 11.9948 21.7968 11.7071 21.7968V21.8066ZM5.10066 14.897L5.5322 19.9008C5.54247 20.0669 5.65549 20.8097 6.90897 20.8097H11.44C11.6866 20.8488 11.964 20.839 12.0667 20.7608C12.0667 20.7608 12.1078 20.7315 12.1078 20.624C12.1078 20.4774 12.0565 20.4383 12.0462 20.4285C11.9332 20.3308 11.6763 20.321 11.6044 20.3308H8.59397C5.71712 20.3308 5.71713 18.7671 5.71713 16.5877C5.71713 15.669 5.40889 15.1706 5.10066 14.9067V14.897Z" fill="black"/>
<path d="M5.98383 31.9999C5.98383 31.9999 5.96325 31.9999 5.95297 31.9999C5.66529 31.9803 5.44956 31.7555 5.4701 31.4819L6.13794 21.2885C6.15849 21.0247 6.37425 20.8194 6.68248 20.8292C6.97017 20.8487 7.18593 21.0735 7.16538 21.3472L6.49755 31.5405C6.477 31.7946 6.25096 31.9999 5.98383 31.9999Z" fill="black"/>
<path d="M11.2757 31.9999C11.0085 31.9999 10.7825 31.8044 10.762 31.5406L10.0941 21.3472C10.0736 21.0736 10.2893 20.8488 10.577 20.8292C10.8852 20.8292 11.101 21.0149 11.1216 21.2886L11.7894 31.4819C11.81 31.7556 11.5942 31.9804 11.3065 31.9999C11.2962 31.9999 11.286 31.9999 11.2757 31.9999Z" fill="black"/>
<path d="M9.76521 26.5661H6.3438C6.05612 26.5661 5.83008 26.351 5.83008 26.0774C5.83008 25.8038 6.05612 25.5887 6.3438 25.5887H9.76521C10.0529 25.5887 10.2789 25.8038 10.2789 26.0774C10.2789 26.351 10.0529 26.5661 9.76521 26.5661Z" fill="black"/>
<path d="M14.7891 31.9999C14.5014 31.9999 14.2754 31.7849 14.2754 31.5113V16.9884C14.2754 16.7148 14.5014 16.4998 14.7891 16.4998C15.0768 16.4998 15.3028 16.7148 15.3028 16.9884V31.5113C15.3028 31.7849 15.0768 31.9999 14.7891 31.9999Z" fill="black"/>
<path d="M21.4786 31.9999C21.1909 31.9999 20.9648 31.7849 20.9648 31.5113V16.9884C20.9648 16.7148 21.1909 16.4998 21.4786 16.4998C21.7663 16.4998 21.9923 16.7148 21.9923 16.9884V31.5113C21.9923 31.7849 21.7663 31.9999 21.4786 31.9999Z" fill="black"/>
<path d="M24.1695 11.9847H17.2137C17.0185 11.9847 16.8335 11.8772 16.7513 11.7013C15.7444 9.64895 13.669 10.1767 13.5765 10.1962C13.3505 10.2549 13.1142 10.1669 13.0012 9.98124C12.0148 8.41754 10.0832 8.45663 10.0627 8.45663C7.49405 8.45663 7.22693 11.4081 7.21665 11.5352C7.1961 11.7893 6.97007 11.9847 6.70293 11.9847H5.1104C4.82272 11.9847 4.59668 11.7697 4.59668 11.4961C4.59668 11.2224 4.82272 11.0074 5.1104 11.0074H6.25085C6.50771 9.58054 7.51461 7.47932 10.0421 7.47932C10.1243 7.47932 12.3436 7.44023 13.6793 9.18962C14.7478 9.03325 16.5253 9.2678 17.5322 11.0172H24.1695C24.4572 11.0172 24.6832 11.2322 24.6832 11.5058C24.6832 11.7795 24.4572 11.9945 24.1695 11.9945V11.9847Z" fill="black"/>
<path d="M24.3861 9.39477C24.1909 9.39477 24.006 9.28727 23.9238 9.11135C22.9272 7.06877 20.8312 7.58674 20.749 7.60629C20.523 7.66493 20.2867 7.57697 20.1736 7.38151C19.1873 5.81781 17.2557 5.84713 17.2351 5.8569C14.8617 5.8569 14.4097 8.19268 14.3891 8.29041C14.3377 8.55428 14.0706 8.7302 13.7932 8.69111C13.5158 8.64224 13.3308 8.38814 13.3719 8.12426C13.5774 7.00036 14.646 4.87959 17.2146 4.87959C17.2968 4.87959 19.516 4.8405 20.8517 6.58988C21.9819 6.42374 23.8827 6.69739 24.8588 8.70088C24.9821 8.94521 24.8588 9.2384 24.6122 9.3459C24.5403 9.37522 24.4683 9.39477 24.3964 9.39477H24.3861Z" fill="black"/>
<path d="M28.2082 9.25794C26.6875 9.25794 25.4443 8.07539 25.4443 6.62897C25.4443 5.18255 26.6875 4 28.2082 4C29.7288 4 30.972 5.18255 30.972 6.62897C30.972 8.07539 29.7288 9.25794 28.2082 9.25794ZM28.2082 4.96754C27.2526 4.96754 26.4718 5.7103 26.4718 6.6192C26.4718 7.5281 27.2526 8.27085 28.2082 8.27085C29.1637 8.27085 29.9446 7.5281 29.9446 6.6192C29.9446 5.7103 29.1637 4.96754 28.2082 4.96754Z" fill="black"/>
</svg>
