<svg width="36" height="36" viewBox="0 0 36 36" fill="none" xmlns="http://www.w3.org/2000/svg">
<path d="M8.10916 24C7.86935 24 7.69948 23.861 7.62954 23.6525L4.02244 12.6516C3.94251 12.3934 4.08237 12.1154 4.34216 12.0261C4.60196 11.9367 4.88174 12.0856 4.97166 12.3438L8.10916 21.915L11.3166 12.3438C11.4065 12.0856 11.6863 11.9466 11.9461 12.0261C12.2059 12.1154 12.3458 12.3934 12.2658 12.6516L8.57879 23.6525C8.50884 23.8511 8.31899 23.9901 8.10916 23.9901V24Z" fill="black"/>
<path d="M21.6685 12.9991H14.774C14.4942 12.9991 14.2744 12.7807 14.2744 12.5027C14.2744 12.2247 14.4942 12.0062 14.774 12.0062H21.6685C21.9483 12.0062 22.1681 12.2247 22.1681 12.5027C22.1681 12.7807 21.9483 12.9991 21.6685 12.9991Z" fill="black"/>
<path d="M21.6685 23.6823H14.774C14.4942 23.6823 14.2744 23.4639 14.2744 23.1859C14.2744 22.9079 14.4942 22.6895 14.774 22.6895H21.6685C21.9483 22.6895 22.1681 22.9079 22.1681 23.1859C22.1681 23.4639 21.9483 23.6823 21.6685 23.6823Z" fill="black"/>
<path d="M18.2119 23.6823C17.9319 23.6823 17.7119 23.4639 17.7119 23.1859V12.5027C17.7119 12.2247 17.9319 12.0062 18.2119 12.0062C18.4919 12.0062 18.7119 12.2247 18.7119 12.5027V23.1859C18.7119 23.4639 18.4919 23.6823 18.2119 23.6823Z" fill="black"/>
<path d="M25.3551 24C25.0753 24 24.8555 23.7816 24.8555 23.5036V12.5027C24.8555 12.2247 25.0753 12.0062 25.3551 12.0062H28.6025C28.6025 12.0062 30.0213 11.9467 31.0205 12.8899C31.67 13.5055 31.9997 14.3792 31.9997 15.4912C31.9997 16.5039 31.69 17.3181 31.0705 17.9039C30.0313 18.8868 28.5325 18.8371 28.4726 18.8371H25.8547V23.4937C25.8547 23.7717 25.6348 23.9901 25.3551 23.9901V24ZM25.8547 17.8542H28.4925C28.4925 17.8542 29.6616 17.884 30.391 17.189C30.8007 16.7918 31.0105 16.2259 31.0105 15.4912C31.0105 14.6671 30.7907 14.0317 30.3411 13.6147C29.6516 12.9594 28.6424 12.9991 28.6224 12.9991H25.8547V17.8542Z" fill="black"/>
</svg>
