<svg width="36" height="36" viewBox="0 0 36 36" fill="none" xmlns="http://www.w3.org/2000/svg">
<path d="M12.5004 8.60002C10.7904 8.60002 9.40039 7.21002 9.40039 5.50002C9.40039 3.79002 10.7904 2.40002 12.5004 2.40002C14.2104 2.40002 15.6004 3.79002 15.6004 5.50002C15.6004 7.21002 14.2104 8.60002 12.5004 8.60002ZM12.5004 3.60002C11.4504 3.60002 10.6004 4.45002 10.6004 5.50002C10.6004 6.55002 11.4504 7.40002 12.5004 7.40002C13.5504 7.40002 14.4004 6.55002 14.4004 5.50002C14.4004 4.45002 13.5504 3.60002 12.5004 3.60002V3.60002Z" fill="black"/>
<path d="M12.5 11.2C14.32 11.2 15.8 12.68 15.8 14.5V23.8H9.2V14.5C9.2 12.68 10.68 11.2 12.5 11.2ZM12.5 10C10.01 10 8 12.01 8 14.5V25H17V14.5C17 12.01 14.99 10 12.5 10Z" fill="black"/>
<path d="M11.0004 33.6C10.6704 33.6 10.4004 33.33 10.4004 33V25C10.4004 24.67 10.6704 24.4 11.0004 24.4C11.3304 24.4 11.6004 24.67 11.6004 25V33C11.6004 33.33 11.3304 33.6 11.0004 33.6Z" fill="black"/>
<path d="M14.0004 33.6C13.6704 33.6 13.4004 33.33 13.4004 33V25C13.4004 24.67 13.6704 24.4 14.0004 24.4C14.3304 24.4 14.6004 24.67 14.6004 25V33C14.6004 33.33 14.3304 33.6 14.0004 33.6Z" fill="black"/>
<path d="M23.5004 8.60002C21.7904 8.60002 20.4004 7.21002 20.4004 5.50002C20.4004 3.79002 21.7904 2.40002 23.5004 2.40002C25.2104 2.40002 26.6004 3.79002 26.6004 5.50002C26.6004 7.21002 25.2104 8.60002 23.5004 8.60002ZM23.5004 3.60002C22.4504 3.60002 21.6004 4.45002 21.6004 5.50002C21.6004 6.55002 22.4504 7.40002 23.5004 7.40002C24.5504 7.40002 25.4004 6.55002 25.4004 5.50002C25.4004 4.45002 24.5504 3.60002 23.5004 3.60002V3.60002Z" fill="black"/>
<path d="M26.8 11.2V19.5C26.8 21.32 25.32 22.8 23.5 22.8C21.68 22.8 20.2 21.32 20.2 19.5V11.2H26.8M28 10H19V19.5C19 21.99 21.01 24 23.5 24C25.99 24 28 21.99 28 19.5V10Z" fill="black"/>
<path d="M22.0004 33.6C21.6704 33.6 21.4004 33.33 21.4004 33V25C21.4004 24.67 21.6704 24.4 22.0004 24.4C22.3304 24.4 22.6004 24.67 22.6004 25V33C22.6004 33.33 22.3304 33.6 22.0004 33.6Z" fill="black"/>
<path d="M25.0004 33.6C24.6704 33.6 24.4004 33.33 24.4004 33V25C24.4004 24.67 24.6704 24.4 25.0004 24.4C25.3304 24.4 25.6004 24.67 25.6004 25V33C25.6004 33.33 25.3304 33.6 25.0004 33.6Z" fill="black"/>
</svg>
