<svg width="36" height="36" viewBox="0 0 36 36" fill="none" xmlns="http://www.w3.org/2000/svg">
<path d="M18 33C9.72241 33 3 26.2676 3 18C3 9.73245 9.73244 3 18 3C26.2676 3 33 9.73245 33 18C33 26.2676 26.2676 33 18 33ZM18 4.00334C10.2843 4.00334 4.00334 10.2843 4.00334 18C4.00334 25.7157 10.2843 31.9967 18 31.9967C25.7157 31.9967 31.9967 25.7157 31.9967 18C31.9967 10.2843 25.7157 4.00334 18 4.00334Z" fill="black"/>
<path d="M23.2985 14.6489C23.0176 14.6489 22.7969 14.4281 22.7969 14.1472V12.0201C22.7969 11.7392 23.0176 11.5184 23.2985 11.5184C23.5795 11.5184 23.8002 11.7392 23.8002 12.0201V14.1472C23.8002 14.4281 23.5795 14.6489 23.2985 14.6489Z" fill="black"/>
<path d="M12.7732 14.6489C12.4922 14.6489 12.2715 14.4281 12.2715 14.1472V12.0201C12.2715 11.7392 12.4922 11.5184 12.7732 11.5184C13.0541 11.5184 13.2748 11.7392 13.2748 12.0201V14.1472C13.2748 14.4281 13.0541 14.6489 12.7732 14.6489Z" fill="black"/>
<path d="M17.9998 28.4549C15.1403 28.4549 12.8125 26.2275 12.8125 23.4984C12.8125 20.7693 15.1403 18.5419 17.9998 18.5419C20.8593 18.5419 23.1871 20.7693 23.1871 23.4984C23.1871 26.2275 20.8593 28.4549 17.9998 28.4549ZM17.9998 19.5452C15.6921 19.5452 13.8158 21.3211 13.8158 23.4984C13.8158 25.6756 15.6921 27.4516 17.9998 27.4516C20.3075 27.4516 22.1837 25.6756 22.1837 23.4984C22.1837 21.3211 20.3075 19.5452 17.9998 19.5452Z" fill="black"/>
</svg>
