<svg width="36" height="36" viewBox="0 0 36 36" fill="none" xmlns="http://www.w3.org/2000/svg">
<path d="M8.25964 24.83C8.20964 24.83 8.14964 24.83 8.09964 24.8C7.96964 24.76 7.86964 24.67 7.80964 24.55L3.54964 15.88C3.42964 15.63 3.52964 15.33 3.77964 15.21L12.4496 10.94C12.6996 10.82 12.9996 10.92 13.1196 11.17L17.3896 19.84C17.4496 19.96 17.4596 20.1 17.4196 20.22C17.3796 20.35 17.2896 20.45 17.1696 20.51L8.49964 24.78C8.42964 24.81 8.35964 24.83 8.27964 24.83H8.25964ZM4.65964 15.89L8.47964 23.66L16.2496 19.84L12.4296 12.07L4.65964 15.89V15.89Z" fill="black"/>
<path d="M26 14.5C26 14.5 25.9799 14.5 25.9699 14.5L16.3199 13.96C16.0399 13.94 15.83 13.71 15.85 13.43L16.3899 3.77999C16.4099 3.49999 16.64 3.27999 16.92 3.30999L26.57 3.84999C26.85 3.86999 27.06 4.09999 27.04 4.37999L26.5 14.03C26.49 14.3 26.26 14.5 26 14.5V14.5ZM16.8799 12.99L25.53 13.47L26.01 4.81999L17.36 4.33999L16.8799 12.99V12.99Z" fill="black"/>
<path d="M12.5299 33.5C12.3499 33.5 12.1699 33.4 12.0799 33.22L7.80986 24.55C7.74986 24.43 7.73986 24.29 7.77986 24.17C7.81986 24.04 7.90986 23.94 8.02986 23.88L16.6999 19.61C16.8199 19.55 16.9599 19.54 17.0799 19.58C17.1999 19.62 17.3099 19.71 17.3699 19.83L21.6299 28.5C21.7499 28.75 21.6499 29.05 21.3999 29.17L12.7299 33.43C12.6599 33.47 12.5799 33.48 12.5099 33.48L12.5299 33.5ZM8.92986 24.56L12.7499 32.33L20.5199 28.51L16.6999 20.74L8.92986 24.56V24.56Z" fill="black"/>
<path d="M21.2001 29.24C21.1501 29.24 21.0901 29.24 21.0401 29.21C20.9101 29.17 20.8101 29.08 20.7501 28.96L16.4901 20.29C16.3701 20.04 16.4701 19.74 16.7201 19.62L25.3901 15.36C25.6401 15.24 25.9401 15.34 26.0601 15.59L30.3201 24.26C30.4401 24.51 30.3401 24.81 30.0901 24.93L21.4201 29.2C21.3501 29.23 21.2801 29.25 21.2001 29.25V29.24ZM17.6001 20.3L21.4201 28.07L29.1901 24.25L25.3701 16.48L17.6001 20.3Z" fill="black"/>
</svg>
