<svg width="70" height="70" viewBox="0 0 70 70" fill="none" xmlns="http://www.w3.org/2000/svg">
<g clip-path="url(#clip0_868_20771)">
<path fill-rule="evenodd" clip-rule="evenodd" d="M27.7785 25.759C27.7785 25.759 27.76 25.7092 27.7539 25.6719C27.7662 25.6781 27.7785 25.7279 27.7785 25.759Z" fill="white"/>
<path fill-rule="evenodd" clip-rule="evenodd" d="M28.8578 24.3803C28.8578 24.3803 28.8394 24.287 28.8578 24.2933C28.8578 24.3368 28.8578 24.3492 28.8578 24.3803Z" fill="white"/>
<path fill-rule="evenodd" clip-rule="evenodd" d="M28.877 24.259C28.877 24.259 28.877 24.1968 28.877 24.1719C28.8892 24.1719 28.8831 24.2403 28.877 24.259Z" fill="white"/>
<path fill-rule="evenodd" clip-rule="evenodd" d="M28.7059 23.8996C28.7059 23.8996 28.6997 23.8312 28.7059 23.8125C28.7181 23.8187 28.7059 23.8747 28.7059 23.8996Z" fill="white"/>
<path fill-rule="evenodd" clip-rule="evenodd" d="M28.9129 23.7586C28.9129 23.7586 28.9067 23.6778 28.9129 23.6094C28.9252 23.6343 28.9129 23.7089 28.9129 23.7586Z" fill="white"/>
<path fill-rule="evenodd" clip-rule="evenodd" d="M28.0039 23.1844C28.0162 23.0973 28.0223 22.9232 28.0592 22.8672C28.0285 22.9667 28.0285 23.0911 28.0039 23.1844Z" fill="white"/>
<path fill-rule="evenodd" clip-rule="evenodd" d="M28.4534 23.0243C28.4473 22.9186 28.5025 22.7445 28.5148 22.6138C28.5394 22.6014 28.478 22.8004 28.4903 22.844C28.4903 22.8626 28.478 22.8937 28.4657 22.9186C28.4657 22.9559 28.4657 22.9932 28.4473 23.0243H28.4534Z" fill="white"/>
<path fill-rule="evenodd" clip-rule="evenodd" d="M28.7973 21.8242C28.7973 21.8242 28.7788 21.8117 28.7973 21.7806C28.8034 21.7744 28.8095 21.7682 28.8157 21.7806L28.7973 21.8304V21.8242Z" fill="white"/>
<path fill-rule="evenodd" clip-rule="evenodd" d="M28.8223 21.2752C28.8284 21.1881 28.896 21.0078 28.9512 20.9207C28.9512 20.9082 28.9512 20.902 28.9574 20.8771C28.9758 20.8149 29.0434 20.6905 28.9881 20.8149C28.9389 20.9767 28.8714 21.0948 28.8223 21.2752Z" fill="white"/>
<path fill-rule="evenodd" clip-rule="evenodd" d="M29.0488 21.2925C29.0488 21.2925 29.055 21.2428 29.0734 21.1992C29.0734 21.2117 29.0611 21.2739 29.0488 21.2925Z" fill="white"/>
<path fill-rule="evenodd" clip-rule="evenodd" d="M28.5508 20.9658C28.5508 20.9658 28.5815 20.885 28.5938 20.8477C28.5938 20.8788 28.5692 20.941 28.5508 20.9658Z" fill="white"/>
<path fill-rule="evenodd" clip-rule="evenodd" d="M29.0117 21.1738C29.0117 21.1365 29.0424 21.0743 29.0486 21.0307C29.0793 21.0059 29.024 21.124 29.0117 21.1738Z" fill="white"/>
<path fill-rule="evenodd" clip-rule="evenodd" d="M29.0918 21.1399C29.0918 21.1399 29.1225 21.0404 29.1409 20.9844C29.1409 21.0217 29.1102 21.0901 29.0918 21.1399Z" fill="white"/>
<path fill-rule="evenodd" clip-rule="evenodd" d="M28.5078 20.8026C28.5078 20.8026 28.5201 20.7404 28.5324 20.7031C28.5447 20.7156 28.5201 20.7715 28.5078 20.8026Z" fill="white"/>
<path fill-rule="evenodd" clip-rule="evenodd" d="M28.625 20.7847C28.625 20.7349 28.6987 20.5919 28.7294 20.5234C28.6987 20.6167 28.668 20.6852 28.625 20.7847Z" fill="white"/>
<path fill-rule="evenodd" clip-rule="evenodd" d="M29.1523 20.9631C29.1585 20.8946 29.2138 20.8076 29.2383 20.7578C29.226 20.82 29.1646 20.8946 29.1523 20.9631Z" fill="white"/>
<path fill-rule="evenodd" clip-rule="evenodd" d="M29.0312 20.7151C29.0312 20.7151 29.0497 20.6467 29.062 20.6094C29.0804 20.6094 29.0497 20.6716 29.0312 20.7151Z" fill="white"/>
<path fill-rule="evenodd" clip-rule="evenodd" d="M29.123 20.6269C29.123 20.5958 29.1415 20.5709 29.166 20.5273C29.166 20.5398 29.1353 20.5958 29.123 20.6269Z" fill="white"/>
<path fill-rule="evenodd" clip-rule="evenodd" d="M29.2207 20.5473C29.2207 20.5473 29.2576 20.4353 29.2698 20.4664C29.2576 20.4913 29.2514 20.4851 29.2453 20.4851C29.2268 20.5162 29.2453 20.5162 29.2207 20.5473Z" fill="white"/>
<path fill-rule="evenodd" clip-rule="evenodd" d="M29.0493 20.1289C28.9571 20.2906 29.0308 20.1973 29.0493 20.1289V20.1289Z" fill="white"/>
<path fill-rule="evenodd" clip-rule="evenodd" d="M28.9805 19.914C28.9989 19.858 29.0296 19.8083 29.0726 19.7461C29.0542 19.7896 28.9989 19.8891 28.9805 19.914Z" fill="white"/>
<path fill-rule="evenodd" clip-rule="evenodd" d="M28.9805 19.8615C28.9805 19.8615 29.0173 19.7682 29.0173 19.7993L28.9805 19.8615Z" fill="white"/>
<path fill-rule="evenodd" clip-rule="evenodd" d="M28.8457 19.619C28.8457 19.619 28.8703 19.5506 28.8948 19.5195C28.8948 19.532 28.858 19.6066 28.8457 19.619Z" fill="white"/>
<path fill-rule="evenodd" clip-rule="evenodd" d="M29.1035 19.2662C29.1649 19.148 29.2079 19.1231 29.1035 19.2662V19.2662Z" fill="white"/>
<path fill-rule="evenodd" clip-rule="evenodd" d="M27.8398 22.3136C27.8398 22.3136 27.8398 22.2576 27.8398 22.239C27.8705 22.2016 27.8705 22.1146 27.8951 22.0586C27.8951 22.1332 27.8521 22.2079 27.8398 22.3136Z" fill="white"/>
<path fill-rule="evenodd" clip-rule="evenodd" d="M28.6624 20.907C28.6747 20.8759 28.6808 20.8821 28.6931 20.8448C28.6992 20.8448 28.6931 20.8635 28.6992 20.8635C28.7299 20.7888 28.7422 20.7577 28.7607 20.708C28.7607 20.7142 28.7607 20.7266 28.7607 20.7266C28.7729 20.6458 28.8405 20.5774 28.9019 20.4219C28.8528 20.5774 28.7054 20.8884 28.6624 21.019C28.6563 20.9941 28.7115 20.8884 28.6992 20.8697C28.687 20.8635 28.6685 20.9381 28.6562 20.9132L28.6624 20.907Z" fill="white"/>
<path fill-rule="evenodd" clip-rule="evenodd" d="M29.0983 20.9411C29.0922 20.9349 29.1167 20.8851 29.1229 20.8789C29.1229 20.8976 29.0553 21.0593 29.0983 20.9411Z" fill="white"/>
<path fill-rule="evenodd" clip-rule="evenodd" d="M29.4974 20.0263L29.5097 20.0387C29.5527 19.9641 29.6202 19.8459 29.6693 19.8086C29.6202 19.8957 29.4851 20.0636 29.4728 20.1445C29.4544 20.1693 29.4544 20.1756 29.436 20.2004C29.3438 20.4181 29.2087 20.6358 29.1289 20.866C29.1289 20.7478 29.2886 20.5487 29.3009 20.4119C29.3131 20.3933 29.3009 20.4119 29.3009 20.4244C29.3439 20.3248 29.4483 20.1631 29.4974 20.0263Z" fill="white"/>
<path fill-rule="evenodd" clip-rule="evenodd" d="M28.9629 19.8149C28.9629 19.8149 28.9875 19.7527 28.9936 19.7279C28.9997 19.7154 28.9875 19.7963 28.9629 19.8149Z" fill="white"/>
<path fill-rule="evenodd" clip-rule="evenodd" d="M42.2157 22.4942C42.2034 22.4569 42.1666 22.3325 42.1543 22.2951C42.1175 22.1334 42.0929 21.9904 42.0376 21.8349C41.9946 21.7354 41.9087 21.5239 41.8718 21.4368C41.8288 21.3311 41.8104 21.3 41.7797 21.2316C41.6876 21.0325 41.6262 20.8646 41.5463 20.7962C41.4542 20.6718 41.3621 20.5038 41.2761 20.3981C41.2638 20.3795 41.2454 20.3421 41.2393 20.3359C41.0182 20.0685 40.8217 19.9503 40.5514 19.658C40.5085 19.6455 40.4655 19.6455 40.4041 19.6144C40.3733 19.602 40.3242 19.5522 40.2997 19.546C40.2075 19.5211 40.1952 19.6144 40.0786 19.5273C40.0601 19.5273 40.0786 19.5522 40.0786 19.5647C39.9926 19.6331 39.9496 19.7326 39.8636 19.7637C39.882 19.8694 39.8206 19.8881 39.8268 19.9752C39.8268 20.0249 39.8575 20.112 39.8636 20.1742C39.8698 20.2426 39.8882 20.311 39.8882 20.3732C39.8575 20.3919 39.8943 20.4603 39.882 20.4914C39.9128 20.5847 39.9312 20.6593 39.9557 20.7526C39.9557 20.7651 39.9557 20.79 39.9435 20.7962C39.9926 20.9952 40.0233 21.2129 40.1093 21.4679C40.1216 21.499 40.14 21.5488 40.1461 21.5674C40.226 21.754 40.3242 22.0526 40.3119 22.1707C40.3181 22.2081 40.3304 22.2018 40.3365 22.2392C40.3242 22.2703 40.3181 22.3822 40.3426 22.4693C40.3488 22.5004 40.3918 22.5439 40.4163 22.6123C40.447 22.7119 40.4348 22.8176 40.4593 22.9047C40.4716 22.9482 40.5023 22.9855 40.5207 23.0291C40.5637 23.141 40.5883 23.3774 40.5883 23.4769C40.5883 23.5515 40.5699 23.5826 40.5883 23.6448C40.6006 23.6946 40.6251 23.7319 40.662 23.7257C40.748 23.8687 40.7173 24.2606 40.7234 24.4907C40.6804 24.6586 40.7357 24.8266 40.6988 24.9883C40.6988 25.0194 40.6804 25.0567 40.6743 25.094C40.6681 25.15 40.6743 25.2246 40.662 25.2993C40.662 25.4237 40.6313 25.5294 40.6129 25.6289C40.533 25.772 40.5514 25.8964 40.5207 26.0208C40.5023 26.0705 40.4716 26.1079 40.4532 26.1576C40.4348 26.2012 40.4348 26.2509 40.4163 26.2944C40.3979 26.3442 40.3672 26.3877 40.3488 26.4313C40.3365 26.4686 40.3365 26.4935 40.3242 26.5246C40.3119 26.5619 40.2874 26.5806 40.2751 26.6179C40.2567 26.6552 40.2567 26.705 40.2382 26.7423C40.1707 26.8915 40.097 27.047 40.0356 27.1901C39.8759 27.414 39.7838 27.6441 39.5627 27.8867C39.5197 27.9551 39.4951 28.0111 39.4276 28.0671C39.4153 28.0857 39.4276 28.092 39.403 28.1106C39.2802 28.2288 39.1942 28.3905 39.053 28.5025C39.053 28.5087 39.053 28.5211 39.0407 28.5273C38.8442 28.6766 38.6231 28.8819 38.4818 29.0125C38.3529 29.0809 38.2362 29.2177 38.0765 29.3048C38.0028 29.3484 37.9291 29.3857 37.8616 29.4292C37.7388 29.5287 37.5422 29.5909 37.4133 29.6656C37.3948 29.678 37.3211 29.7278 37.3027 29.7402C37.2352 29.7837 37.1492 29.79 37.0694 29.8335C36.7746 29.9828 36.4061 30.0574 36.1297 30.1258C36.0438 30.1383 35.9701 30.1631 35.8718 30.1818C35.7121 30.2129 35.5402 30.2253 35.3744 30.2316C35.3498 30.2316 35.2822 30.244 35.2577 30.2502C35.1594 30.2627 35.0612 30.2564 34.9568 30.2627C34.705 30.244 34.4409 30.2751 34.2075 30.2191C33.8943 30.2191 33.4583 30.1072 33.1144 30.0014C33.0284 30.0014 32.967 29.9517 32.8872 29.9206C32.6354 29.8522 32.3345 29.7215 32.1011 29.5847C31.5975 29.3173 31.1185 28.9752 30.7009 28.5709C30.2894 28.1542 29.9332 27.6877 29.6323 27.1963C29.6077 27.1092 29.5402 26.9848 29.4911 26.9226C29.4911 26.904 29.4726 26.8542 29.4542 26.8169C29.3559 26.705 29.3191 26.5246 29.2515 26.3504C29.2086 26.3193 29.1901 26.2074 29.1471 26.1514C29.1471 26.1203 29.1717 26.1825 29.1656 26.1327C29.0796 26.0394 29.0059 25.6414 28.9506 25.4672C28.9506 25.4797 28.9506 25.4859 28.9445 25.4672C28.9506 25.4237 28.9199 25.405 28.9138 25.3553C28.8524 25.0318 28.7725 24.8079 28.748 24.5218C28.748 24.4845 28.7725 24.3912 28.748 24.3601C28.748 24.4099 28.748 24.4783 28.7295 24.4721C28.7295 24.385 28.7111 24.273 28.6988 24.217C28.6988 24.1113 28.7111 24.0553 28.6988 23.962C28.6988 23.9372 28.6743 23.9807 28.6804 23.9309C28.705 23.7817 28.6804 23.707 28.7111 23.5702C28.6927 23.5267 28.705 23.3712 28.7234 23.3214C28.7234 23.2779 28.6988 23.3649 28.6988 23.3276C28.7111 23.2032 28.7173 23.0913 28.748 22.9793C28.748 22.9482 28.7357 22.9296 28.7418 22.8798C28.7418 22.8487 28.7602 22.8922 28.7602 22.8425C28.7602 22.7989 28.7357 22.8736 28.7234 22.8611C28.7234 22.7989 28.7173 22.8114 28.705 22.7741C28.7357 22.6932 28.7234 22.631 28.7295 22.5501C28.7357 22.4693 28.7664 22.3822 28.7787 22.3076C28.791 22.2392 28.7787 22.2081 28.8032 22.1334C28.8217 22.0712 28.8524 22.0277 28.8646 21.9593C28.8708 21.922 28.8401 21.9779 28.8524 21.9282C28.9138 21.6918 28.9875 21.4617 29.0182 21.2875C28.9568 21.555 28.8585 21.7354 28.8278 21.9779C28.7971 22.009 28.8094 22.0837 28.7725 22.1148C28.7787 22.1334 28.8032 22.0837 28.7848 22.1334C28.7848 22.1521 28.7725 22.1583 28.7664 22.1832C28.7541 22.1459 28.7418 22.1956 28.7173 22.2081C28.6681 22.4071 28.6436 22.5688 28.6067 22.743C28.6067 22.7741 28.6251 22.7243 28.619 22.7616C28.6067 22.8425 28.6067 22.8425 28.5883 22.9607C28.5637 22.9793 28.5514 23.0353 28.533 22.998C28.576 22.7616 28.6067 22.432 28.6743 22.1521C28.6927 22.065 28.7357 21.9842 28.7234 21.9282C28.6988 22.0526 28.6374 22.1459 28.6129 22.2578C28.5699 22.4009 28.5699 22.5564 28.533 22.6932C28.5207 22.7305 28.5146 22.7492 28.5085 22.7803C28.5085 22.8052 28.5085 22.8549 28.5023 22.886C28.4962 22.9171 28.4839 22.9171 28.4839 22.9482C28.4777 23.0104 28.4839 23.0539 28.4716 23.1224C28.4532 23.2343 28.4225 23.3401 28.4163 23.4645C28.4041 23.4831 28.3856 23.4769 28.3856 23.4458C28.4041 23.2965 28.4041 23.2779 28.4286 23.1286C28.4286 23.1472 28.4163 23.1535 28.4102 23.1535C28.4163 23.1099 28.4286 23.0913 28.4225 23.0602C28.4102 23.1721 28.3733 23.1535 28.3672 23.1161C28.4163 22.8425 28.4655 22.5004 28.533 22.2827C28.533 22.2578 28.5207 22.2392 28.533 22.1956C28.5821 21.9406 28.6804 21.6669 28.7541 21.3995C28.6313 21.6918 28.5514 22.0152 28.4777 22.376C28.4716 22.3884 28.4593 22.376 28.4532 22.4133C28.4163 22.6434 28.3979 22.743 28.3733 22.8674C28.3426 22.9171 28.3181 22.9607 28.2874 23.0104C28.2444 23.396 28.14 23.6697 28.1216 24.0553C28.1093 24.0553 28.1031 24.0802 28.0908 24.0927C28.0786 24.0616 28.0663 24.0429 28.0601 24.0056C28.0601 23.9434 28.0601 23.8812 28.0724 23.8252C28.0479 23.5018 28.1338 23.054 28.1891 22.6621C28.1768 22.6123 28.1523 22.6434 28.1277 22.6745C28.0786 22.8611 28.0786 23.0415 28.0294 23.2405C27.968 23.309 27.9435 23.2281 27.9619 23.0664C27.9926 22.8052 28.0908 22.3636 28.14 22.1956C28.2935 21.4368 28.5514 20.7215 28.9138 19.9876C28.6927 20.3795 28.5576 20.7713 28.4102 21.1383C28.4225 21.1383 28.4163 21.1569 28.4102 21.1818C28.2751 21.5488 28.1584 21.9593 28.1031 22.2951C28.0417 22.4258 28.0233 22.7056 27.968 22.8425C27.925 22.7989 27.9189 22.6745 27.9373 22.5253C27.9066 22.6497 27.8698 22.83 27.8452 22.942C27.8268 23.0477 27.8145 23.2343 27.7961 23.2841C27.7961 23.2965 27.7838 23.2716 27.7838 23.2965C27.7838 23.253 27.7838 23.3774 27.7838 23.3836C27.7838 23.4396 27.7838 23.4334 27.7838 23.5018C27.7715 23.5889 27.7715 23.5889 27.7531 23.6448C27.7224 23.9496 27.7285 24.2606 27.7408 24.5716C27.7408 24.6089 27.7408 24.6649 27.7408 24.6773C27.7408 24.7084 27.7285 24.6773 27.7285 24.7208C27.7285 24.7457 27.7408 24.7333 27.7408 24.7644C27.7408 24.8888 27.7408 25.0256 27.7654 25.1438C27.8084 25.4423 27.8513 25.8031 27.925 26.0394C27.9373 26.0954 27.9005 26.027 27.925 26.1016C27.968 26.3131 28.0233 26.5246 28.1031 26.7361C28.1707 26.9475 28.2505 27.1652 28.3549 27.3705C28.3672 27.4016 28.3365 27.3829 28.3611 27.4327C28.3856 27.4886 28.3979 27.47 28.4225 27.5197C28.4348 27.5571 28.4409 27.5882 28.4409 27.6068C28.662 28.092 28.9813 28.5336 29.3252 28.9565C29.6569 29.3359 30.0131 29.6967 30.3877 29.9952C30.6886 30.2253 30.9895 30.4182 31.2782 30.5985C31.4685 30.7167 31.6651 30.7976 31.8493 30.8909C32.0335 30.9842 32.2178 31.0588 32.4204 31.1272C32.7029 31.2454 33.0223 31.3387 33.2741 31.3884C33.3171 31.3947 33.3723 31.4009 33.4215 31.4133C33.4951 31.4382 33.5688 31.4569 33.6487 31.4693C33.8575 31.5004 34.0663 31.5253 34.2751 31.5377C34.5085 31.5502 34.7295 31.5626 34.9568 31.575C35.0857 31.575 35.2086 31.5501 35.3375 31.5439C35.4051 31.5439 35.5279 31.5439 35.6016 31.5439C35.8472 31.5253 36.0929 31.4506 36.3201 31.4258C36.621 31.3636 36.9404 31.3076 37.2352 31.1832C37.4194 31.121 37.5914 31.0588 37.7633 30.9966C37.9291 30.9095 38.0949 30.8287 38.2546 30.754C38.5187 30.6669 38.7336 30.4741 38.9977 30.3186C39.01 30.3124 39.053 30.2875 39.0714 30.2751C39.4706 30.0263 39.8268 29.6469 40.1093 29.3919C40.1891 29.2675 40.2874 29.1991 40.3795 29.0996C40.4777 29 40.5576 28.8881 40.6374 28.7761C40.6558 28.7575 40.705 28.6953 40.7234 28.6766C40.8094 28.5647 40.8769 28.4465 40.9629 28.3221C41.0734 28.1231 41.2393 27.9365 41.3437 27.6939C41.4419 27.5197 41.6016 27.2585 41.6691 27.0284C41.7551 26.848 41.8165 26.6614 41.8841 26.4748C41.9332 26.282 41.9762 26.1141 42.0376 25.8902C42.0806 25.7595 42.1236 25.6414 42.1236 25.4983C42.1666 25.3615 42.1789 25.1873 42.2096 25.0132C42.2219 24.8701 42.2464 24.6462 42.2587 24.4845C42.2833 24.2295 42.2587 23.8998 42.2833 23.707C42.3815 23.6075 42.2157 23.452 42.2096 23.2468C42.2157 23.1348 42.2464 23.1472 42.271 23.0975C42.271 22.998 42.2464 22.9109 42.2219 22.8176C42.2096 22.7056 42.2403 22.6186 42.2096 22.4755L42.2157 22.4942ZM28.619 23.309C28.619 23.309 28.6251 23.309 28.6313 23.2965C28.6497 23.3276 28.6067 23.3836 28.619 23.309ZM28.619 23.2779C28.6313 23.1721 28.6374 23.0166 28.6681 22.942C28.6681 22.9233 28.6374 22.9544 28.6436 22.9233C28.662 22.8798 28.6804 22.8238 28.6927 22.7492C28.7295 22.7492 28.6804 22.9047 28.7111 22.9171C28.6988 22.9793 28.6927 23.0042 28.705 23.0353C28.6681 23.1597 28.6927 23.1908 28.6681 23.2779C28.6497 23.253 28.6497 23.2903 28.6251 23.2779H28.619Z" fill="white"/>
<path fill-rule="evenodd" clip-rule="evenodd" d="M33.416 18.8812C33.416 18.8812 33.4774 18.875 33.5204 18.875C33.5081 18.8874 33.4529 18.8937 33.416 18.8812Z" fill="white"/>
<path fill-rule="evenodd" clip-rule="evenodd" d="M35 20.1255C35.0307 20.1255 35.129 20.1068 35.1228 20.1255C35.0676 20.1255 35.043 20.1255 35 20.1255Z" fill="white"/>
<path fill-rule="evenodd" clip-rule="evenodd" d="M35.1719 20.1484C35.1719 20.1484 35.2579 20.1484 35.2947 20.1484C35.2947 20.1609 35.1964 20.1609 35.1719 20.1484Z" fill="white"/>
<path fill-rule="evenodd" clip-rule="evenodd" d="M35.6562 19.9626C35.6562 19.9626 35.7484 19.9501 35.7791 19.9626C35.7729 19.975 35.6931 19.9626 35.6562 19.9626Z" fill="white"/>
<path fill-rule="evenodd" clip-rule="evenodd" d="M35.8789 20.1609C35.9219 20.1484 35.9894 20.1484 36.0877 20.1484C36.0509 20.1609 35.9526 20.1609 35.8789 20.1609Z" fill="white"/>
<path fill-rule="evenodd" clip-rule="evenodd" d="M36.4863 19.1841C36.5907 19.1841 36.8118 19.1654 36.8855 19.1841C36.7565 19.1716 36.6092 19.1903 36.4863 19.1841Z" fill="white"/>
<path fill-rule="evenodd" clip-rule="evenodd" d="M36.7676 19.6101C36.9027 19.5852 37.1361 19.6101 37.308 19.5977C37.3326 19.6225 37.0624 19.5977 37.0132 19.6163C36.9887 19.6163 36.9457 19.6163 36.9088 19.6039C36.8597 19.6039 36.8167 19.6225 36.7676 19.6039V19.6101Z" fill="white"/>
<path fill-rule="evenodd" clip-rule="evenodd" d="M38.3906 19.6749C38.3906 19.6749 38.3968 19.6562 38.4459 19.6562C38.4582 19.6562 38.4643 19.6687 38.4582 19.6749H38.3906Z" fill="white"/>
<path fill-rule="evenodd" clip-rule="evenodd" d="M39.0645 19.5218C39.1689 19.5031 39.4145 19.5031 39.5496 19.5218C39.568 19.5218 39.568 19.5094 39.6049 19.5156C39.6847 19.5156 39.8628 19.5156 39.6909 19.5156C39.4759 19.528 39.304 19.5156 39.0645 19.5218Z" fill="white"/>
<path fill-rule="evenodd" clip-rule="evenodd" d="M39.1445 19.7445C39.1445 19.7445 39.2121 19.7383 39.2674 19.7383C39.2551 19.7507 39.163 19.7507 39.1445 19.7445Z" fill="white"/>
<path fill-rule="evenodd" clip-rule="evenodd" d="M39.3105 19.1602C39.3105 19.1602 39.4211 19.1602 39.4641 19.1602C39.4272 19.1602 39.3474 19.1726 39.3105 19.1602Z" fill="white"/>
<path fill-rule="evenodd" clip-rule="evenodd" d="M39.2734 19.671C39.3164 19.6586 39.4147 19.6648 39.4638 19.6523C39.5129 19.671 39.3348 19.6648 39.2734 19.671Z" fill="white"/>
<path fill-rule="evenodd" clip-rule="evenodd" d="M39.3535 19.7312C39.3904 19.7188 39.4886 19.7188 39.5623 19.7188C39.5193 19.7312 39.4211 19.725 39.3535 19.7312Z" fill="white"/>
<path fill-rule="evenodd" clip-rule="evenodd" d="M39.4766 19.0538C39.4766 19.0538 39.5503 19.0414 39.5994 19.0352C39.5871 19.0476 39.5196 19.0476 39.4766 19.0538Z" fill="white"/>
<path fill-rule="evenodd" clip-rule="evenodd" d="M39.5508 19.1601C39.6061 19.1477 39.8026 19.1539 39.8947 19.1539C39.7719 19.1663 39.6797 19.1663 39.5508 19.1601Z" fill="white"/>
<path fill-rule="evenodd" clip-rule="evenodd" d="M39.5996 19.727C39.6917 19.7084 39.8207 19.727 39.8944 19.727C39.8146 19.7395 39.6917 19.7146 39.5996 19.727Z" fill="white"/>
<path fill-rule="evenodd" clip-rule="evenodd" d="M39.8262 19.5163C39.863 19.5101 39.9183 19.5101 39.9674 19.5039C39.9797 19.5226 39.8876 19.5163 39.8262 19.5163Z" fill="white"/>
<path fill-rule="evenodd" clip-rule="evenodd" d="M39.9805 19.5602C40.0235 19.5478 40.0603 19.5602 40.1217 19.5602C40.1094 19.5727 40.0235 19.5602 39.9805 19.5602Z" fill="white"/>
<path fill-rule="evenodd" clip-rule="evenodd" d="M40.127 19.6164C40.127 19.6164 40.2743 19.604 40.2498 19.6288C40.2129 19.6288 40.2191 19.6226 40.2191 19.6164C40.1761 19.6164 40.1822 19.6226 40.1331 19.6164H40.127Z" fill="white"/>
<path fill-rule="evenodd" clip-rule="evenodd" d="M40.4908 19.2726C40.2574 19.2601 40.4048 19.2912 40.4908 19.2726V19.2726Z" fill="white"/>
<path fill-rule="evenodd" clip-rule="evenodd" d="M40.6797 19.1101C40.7534 19.1039 40.8209 19.1039 40.9069 19.1101C40.8516 19.1101 40.7165 19.1164 40.6797 19.1101Z" fill="white"/>
<path fill-rule="evenodd" clip-rule="evenodd" d="M40.7363 19.0797C40.7363 19.0797 40.853 19.0673 40.8223 19.0797H40.7363Z" fill="white"/>
<path fill-rule="evenodd" clip-rule="evenodd" d="M40.9023 18.8439C40.9023 18.8439 40.9822 18.8315 41.0252 18.8377C41.0129 18.8501 40.9208 18.8501 40.9023 18.8439Z" fill="white"/>
<path fill-rule="evenodd" clip-rule="evenodd" d="M41.3809 18.8677C41.5221 18.849 41.5774 18.8677 41.3809 18.8677V18.8677Z" fill="white"/>
<path fill-rule="evenodd" clip-rule="evenodd" d="M37.4866 18.8546C37.4866 18.8546 37.5542 18.8484 37.5726 18.8359C37.6279 18.8546 37.7261 18.8359 37.7937 18.8484C37.7077 18.867 37.6094 18.8484 37.4805 18.8546H37.4866Z" fill="white"/>
<path fill-rule="evenodd" clip-rule="evenodd" d="M39.4217 19.2406C39.4646 19.2406 39.4585 19.2468 39.5076 19.2406C39.5076 19.2468 39.4892 19.2468 39.4892 19.253C39.5752 19.253 39.6243 19.253 39.698 19.253C39.6857 19.253 39.6796 19.2593 39.6796 19.2655C39.7778 19.2406 39.8884 19.2779 40.0972 19.2655C39.9007 19.2904 39.4708 19.2717 39.2988 19.2779C39.3234 19.2593 39.4708 19.2779 39.4892 19.2593C39.4892 19.2468 39.3909 19.2593 39.4217 19.2344V19.2406Z" fill="white"/>
<path fill-rule="evenodd" clip-rule="evenodd" d="M39.606 19.6657C39.606 19.6532 39.6797 19.6657 39.692 19.6657C39.6736 19.6781 39.4402 19.6657 39.606 19.6657Z" fill="white"/>
<path fill-rule="evenodd" clip-rule="evenodd" d="M40.8901 19.6133V19.6319C41.0006 19.6319 41.1787 19.6319 41.2524 19.6444C41.1234 19.6568 40.8409 19.6257 40.7488 19.6568C40.712 19.6568 40.6997 19.6568 40.6628 19.6444C40.3558 19.6755 40.0241 19.6444 39.7109 19.663C39.8522 19.6133 40.1777 19.6817 40.3373 19.6319C40.3619 19.6319 40.3373 19.6319 40.3189 19.6319C40.4602 19.6319 40.712 19.6444 40.8901 19.6133Z" fill="white"/>
<path fill-rule="evenodd" clip-rule="evenodd" d="M40.7793 19.0499C40.7793 19.0499 40.853 19.0375 40.8837 19.0312C40.9021 19.0312 40.8161 19.0623 40.7793 19.0499Z" fill="white"/>
<path fill-rule="evenodd" clip-rule="evenodd" d="M40.6067 15.1923C40.6067 15.242 40.619 15.3851 40.6251 15.4411C40.6251 15.6339 40.6067 15.808 40.619 16.0008C40.6251 16.175 40.6497 16.3367 40.6558 16.5109C40.662 16.6104 40.6681 16.685 40.6743 16.7783C40.6927 17.0395 40.6804 17.251 40.7295 17.363C40.7602 17.5807 40.7787 17.7299 40.8032 17.9352C40.8032 17.9601 40.8032 18.016 40.8032 18.0223C40.8708 18.4265 40.9875 18.6753 41.0366 19.1543C41.0612 19.1978 41.098 19.2227 41.1349 19.3035C41.1471 19.3409 41.1594 19.4217 41.1717 19.4466C41.227 19.5461 41.2945 19.459 41.3375 19.6394C41.3498 19.6518 41.3559 19.6145 41.3621 19.6083C41.4726 19.6083 41.5647 19.5399 41.6507 19.5834C41.6999 19.459 41.7613 19.4839 41.8043 19.3906C41.835 19.3284 41.8595 19.2102 41.8902 19.1356C41.9209 19.0485 41.9455 18.9552 41.9824 18.8806C42.0131 18.8806 42.0192 18.7686 42.0499 18.75C42.0683 18.6318 42.099 18.4825 42.1175 18.3706C42.1297 18.3581 42.1359 18.327 42.1482 18.3208C42.2034 18.0285 42.2771 17.7362 42.2956 17.3381C42.2956 17.2945 42.2956 17.2199 42.2956 17.1826C42.2956 16.884 42.3078 16.43 42.3508 16.2745C42.3508 16.2185 42.3447 16.2247 42.3508 16.1688C42.3693 16.1377 42.4122 15.976 42.4122 15.8391C42.4122 15.7894 42.3815 15.7085 42.3754 15.609C42.3693 15.4535 42.4061 15.3104 42.4 15.1736C42.4 15.1114 42.3693 15.043 42.3631 14.9746C42.3508 14.8004 42.3631 14.4521 42.3631 14.3091C42.3693 14.1971 42.3938 14.1536 42.3877 14.0665C42.3877 13.9856 42.3631 13.9297 42.3263 13.9359C42.3078 13.8799 42.2956 13.8053 42.2894 13.712C42.2894 13.4881 42.2894 13.3326 42.2894 13.1522C42.2894 12.7541 42.2956 12.3187 42.2833 12.0077H42.2649C41.8165 11.9829 41.3437 12.0264 40.9076 12.0202C40.8462 12.0202 40.6866 12.014 40.619 12.0077C40.5146 12.0077 40.4225 12.0202 40.3119 12.0264C40.1154 12.0326 40.0294 12.0388 39.8268 12.0451C39.5995 12.0015 39.4276 12.0513 39.2372 12.0451C39.1635 12.0451 39.096 12.0326 39.0161 12.0326C38.9486 12.0326 38.881 12.0451 38.8073 12.0451C38.7582 12.0451 38.6292 12.0326 38.5862 12.0326C38.5494 12.0326 38.4818 12.0326 38.445 12.0388C38.3897 12.0388 38.3529 12.0264 38.2915 12.0264C38.2546 12.0264 38.1318 12.0451 38.1011 12.0451C37.8677 12.0513 37.6098 12.0326 37.3887 12.0699C36.9895 12.0388 36.6395 12.0886 36.1604 12.0575C36.0438 12.0637 35.9578 12.0699 35.8288 12.0637C35.7981 12.0637 35.8043 12.0762 35.7551 12.0762C35.5095 12.0637 35.2454 12.101 34.9936 12.0824C34.9875 12.0824 34.9752 12.0948 34.9568 12.0948C34.6067 12.0762 34.1584 12.0699 33.882 12.0948C33.6671 12.0699 33.4153 12.0948 33.1512 12.0948C33.0284 12.0948 32.9056 12.0824 32.7889 12.0886C32.5187 12.0886 32.2792 12.0886 32.0458 12.0886C32.0028 12.0886 31.8923 12.101 31.8554 12.1073C31.7388 12.1073 31.6159 12.101 31.4931 12.1073C31.0202 12.1321 30.4737 12.1135 30.056 12.1135C29.9271 12.1135 29.8165 12.1259 29.6753 12.1321C29.5586 12.1321 29.4358 12.1321 29.313 12.1321C29.098 12.1321 28.9138 12.1321 28.7173 12.1321C28.6436 12.1321 28.4962 12.1446 28.4225 12.1446C28.1707 12.1446 27.968 12.1446 27.7285 12.1446V12.1943C27.7285 12.4991 27.7347 12.8412 27.7408 13.1584C27.7408 13.3201 27.7408 13.4756 27.7408 13.6249C27.7408 13.7866 27.7408 13.8239 27.7347 13.9297C27.7654 14.3837 27.7531 15.0368 27.7592 15.5655C27.7838 15.6836 27.7592 15.7956 27.7654 15.9138C27.7776 16.2869 27.8022 16.7659 27.7838 17.1639C27.7899 17.5869 27.7961 17.9912 27.8084 18.3954C27.8084 18.9988 27.8145 19.5959 27.8206 20.193C28.4225 20.193 29.0243 20.1867 29.6323 20.1805C30.0376 20.1743 30.4429 20.1619 30.8728 20.1556C31.0018 20.1743 31.1922 20.1619 31.3089 20.1556C31.3334 20.1681 31.4071 20.1681 31.4624 20.1681C31.6651 20.137 31.9168 20.1681 32.1748 20.1556C32.2423 20.1245 32.3959 20.1494 32.488 20.1245C32.531 20.1432 32.4327 20.137 32.5003 20.1494C32.6661 20.0997 33.2249 20.1183 33.4767 20.1059C33.4583 20.1059 33.4583 20.0997 33.4767 20.0997C33.5381 20.1121 33.5688 20.0872 33.6364 20.0872C34.0908 20.0872 34.4163 20.0312 34.8032 20.0126C34.8524 20.0188 34.9813 20.0437 35.0243 20.025C34.9568 20.025 34.8646 20.025 34.8708 20.0001C34.9875 20.0064 35.141 20.0001 35.2208 19.9815C35.3621 19.9815 35.4419 19.9939 35.5709 19.9753C35.6016 19.9753 35.5402 19.9504 35.6077 19.9504C35.8104 19.9628 35.9087 19.9442 36.0929 19.9504C36.1482 19.9317 36.357 19.9255 36.4245 19.9317C36.4859 19.9255 36.357 19.9131 36.4122 19.9069C36.5781 19.9006 36.7316 19.8944 36.879 19.9069C36.9158 19.8944 36.9404 19.882 37.0018 19.882C37.0448 19.882 36.9895 19.9006 37.0509 19.8944C37.1062 19.882 37.0079 19.8758 37.0202 19.8571C37.1001 19.8509 37.0878 19.8384 37.1246 19.826C37.2413 19.8384 37.315 19.8136 37.4194 19.8073C37.5729 19.8073 37.6098 19.8073 37.751 19.8011C37.837 19.8011 37.88 19.7825 37.9783 19.7825C38.0581 19.7825 38.1256 19.8011 38.2178 19.7949C38.2669 19.7949 38.1871 19.7762 38.2546 19.7762C38.574 19.7762 38.8872 19.7638 39.1267 19.7389C38.7643 19.7762 38.5064 19.7389 38.1871 19.77C38.1379 19.7514 38.0458 19.7825 37.9967 19.7576C37.9783 19.77 38.0458 19.7762 37.9783 19.7762C37.9537 19.7762 37.9476 19.77 37.9107 19.7762C37.9537 19.7514 37.8861 19.7514 37.8616 19.7327C37.6036 19.7327 37.3703 19.7389 37.1492 19.7451C37.1062 19.7451 37.1799 19.7576 37.1308 19.7638C37.0325 19.7638 37.0079 19.7638 36.8728 19.77C36.8421 19.7514 36.7684 19.7451 36.8114 19.7203C37.1246 19.7203 37.5484 19.6892 37.923 19.6829C38.0335 19.6829 38.1502 19.7016 38.2178 19.6705C38.052 19.6767 37.9168 19.6456 37.7695 19.6456C37.5791 19.6456 37.3826 19.6705 37.1983 19.6643C37.1492 19.6643 37.1246 19.6518 37.0755 19.6518C37.0386 19.6518 36.9772 19.6643 36.9342 19.6643C36.8913 19.6643 36.8851 19.6518 36.8483 19.6518C36.7684 19.6518 36.707 19.6705 36.621 19.6705C36.4737 19.6705 36.3324 19.6518 36.1727 19.6581C36.142 19.6518 36.1543 19.6332 36.1912 19.627C36.3815 19.627 36.4122 19.627 36.6088 19.627C36.5842 19.627 36.5719 19.627 36.5781 19.6145C36.6395 19.6145 36.6579 19.6207 36.7009 19.6145C36.5596 19.6145 36.5719 19.5834 36.621 19.5648C36.9772 19.5648 37.4194 19.5523 37.7142 19.5648C37.7449 19.5523 37.7695 19.5399 37.8186 19.5399C38.1871 19.5399 38.488 19.5337 38.8749 19.5274C38.4696 19.5026 38.0458 19.515 37.5791 19.5274C37.5607 19.5274 37.5791 19.5088 37.5299 19.515C37.3273 19.5274 37.0939 19.5212 36.9404 19.5274C36.8728 19.5088 36.8053 19.4901 36.7377 19.4652C36.2464 19.4839 35.8841 19.403 35.4112 19.403C35.4112 19.3906 35.3744 19.3844 35.3621 19.3782C35.3989 19.3657 35.4235 19.3533 35.4665 19.3409C35.5463 19.3409 35.6262 19.3346 35.6937 19.3409C36.0929 19.3035 36.6579 19.3284 37.1492 19.3035C37.2106 19.2787 37.1615 19.2662 37.1185 19.2476C36.879 19.2351 36.664 19.2662 36.4122 19.2351C36.3201 19.1854 36.4122 19.148 36.6149 19.1418C36.9404 19.1418 37.4931 19.1418 37.708 19.148C38.6538 19.1169 39.5995 19.1294 40.5699 19.1045C40.0294 19.0921 39.532 19.1232 39.0468 19.1045C39.0468 19.1169 39.0284 19.1169 38.9916 19.1169C38.5187 19.1169 37.9905 19.1169 37.5729 19.1294C37.401 19.0983 37.0632 19.1294 36.8851 19.1045C36.9281 19.0547 37.0755 19.0299 37.2597 19.0174C37.0755 19.0174 36.8974 19.005 36.7439 18.9988C36.6149 18.9988 36.3938 19.0112 36.3263 18.9988C36.3078 18.9988 36.3385 18.9863 36.3078 18.9863C36.3631 18.9863 36.2157 18.9863 36.2034 18.9863C36.1359 18.9863 36.1482 18.9988 36.0622 18.9925C35.9578 18.9925 35.9578 18.9925 35.8902 18.9801C35.5033 18.9801 35.2024 18.9801 34.7971 18.9801C34.7541 18.9801 34.6866 18.9801 34.6743 18.9801C34.6374 18.9801 34.6743 18.9677 34.6251 18.9677C34.6006 18.9677 34.6129 18.9801 34.5699 18.9739C34.4163 18.9739 34.2567 18.9739 34.1216 18.9677C33.7654 18.9677 33.3416 18.9677 33.0468 18.9614C32.9793 18.9614 33.0653 18.9428 32.9793 18.9428C32.4634 18.9366 31.9353 18.9241 31.4071 18.9179C31.3641 18.9179 31.401 18.8992 31.3396 18.8992C31.2659 18.8992 31.2843 18.9179 31.2167 18.9179C31.1738 18.9179 31.1369 18.9055 31.1123 18.893C30.8053 18.8868 30.4921 18.8868 30.1727 18.893C29.878 18.893 29.5647 18.8992 29.2638 18.9055C29.2024 18.9055 29.1471 18.9055 29.0857 18.9117C29.0857 18.8433 29.0857 18.7873 29.0857 18.7251C29.0857 18.2835 29.0612 17.8481 29.0796 17.45C29.0673 16.9089 29.0673 16.4424 29.0612 15.9386C29.0612 15.5779 29.0673 15.1736 29.0612 14.8688C29.0612 14.8191 29.0489 14.7507 29.0489 14.6947C29.0489 14.6263 29.0612 14.4832 29.0612 14.4148C29.0612 14.1971 29.0489 13.9234 29.0427 13.7057V13.5005V13.4943C29.0796 13.4943 29.1042 13.4818 29.141 13.4818C29.1656 13.4818 29.2024 13.4943 29.227 13.4943C29.3252 13.4943 29.4296 13.4881 29.5402 13.4818C29.6937 13.4818 29.835 13.4818 29.9701 13.4756C30.3385 13.4756 30.7193 13.5005 31.0939 13.4756C31.5054 13.4881 32.0151 13.4881 32.4081 13.4756C32.7275 13.5129 33.0653 13.4756 33.4276 13.4818C33.4522 13.4818 33.5013 13.4881 33.532 13.4943C34.0847 13.5192 34.6927 13.4756 35.141 13.4943C35.3068 13.4694 35.4542 13.4943 35.6077 13.5005C35.7736 13.5005 35.9332 13.4881 36.0929 13.4881C36.1297 13.4881 36.2096 13.4943 36.2464 13.5005C36.4122 13.5005 36.5719 13.4881 36.75 13.4881C37.0202 13.4881 37.3089 13.5254 37.6159 13.5005C37.8554 13.5192 38.2055 13.5378 38.4818 13.5129C38.9424 13.544 39.4092 13.5129 39.882 13.5254C40.0417 13.5254 40.1891 13.5565 40.3488 13.5316C40.4225 13.544 40.5453 13.544 40.6006 13.544H40.6558C40.6927 13.544 40.7173 13.5565 40.7418 13.5627C40.7357 13.6311 40.7541 13.6622 40.705 13.7431C40.6067 13.8488 40.7541 14.0478 40.7295 14.2904C40.7111 14.421 40.6804 14.4024 40.6436 14.4583C40.6313 14.5703 40.6436 14.6822 40.6436 14.7942C40.6313 14.9248 40.5883 15.0181 40.5883 15.1923H40.6067ZM36.4368 19.8198C36.4368 19.8198 36.4368 19.826 36.4552 19.826C36.4184 19.8447 36.3385 19.8136 36.4368 19.8198ZM36.4737 19.8136C36.6149 19.8136 36.8176 19.7887 36.922 19.8136C36.9527 19.8136 36.8974 19.7887 36.9404 19.7825C37.0018 19.7949 37.0755 19.8011 37.1799 19.8011C37.186 19.8384 36.9772 19.8136 36.965 19.8509C36.8851 19.8509 36.8421 19.8509 36.8053 19.8633C36.6395 19.8509 36.6026 19.8758 36.4737 19.8633C36.5044 19.8447 36.4491 19.8447 36.4614 19.826L36.4737 19.8136Z" fill="white"/>
<path fill-rule="evenodd" clip-rule="evenodd" d="M24.726 41.6602C24.7138 41.7037 24.6892 41.7659 24.6523 41.8468C24.6523 41.8219 24.6892 41.7224 24.726 41.6602Z" fill="white"/>
<path fill-rule="evenodd" clip-rule="evenodd" d="M23.0371 44.3086C23.0371 44.3708 23.0555 44.5636 23.0371 44.5449C23.0371 44.433 23.0371 44.3895 23.0371 44.3086Z" fill="white"/>
<path fill-rule="evenodd" clip-rule="evenodd" d="M23.0131 44.6406C23.0131 44.6406 23.0131 44.8086 23.0131 44.877C23.0008 44.877 23.0008 44.6842 23.0131 44.6406Z" fill="white"/>
<path fill-rule="evenodd" clip-rule="evenodd" d="M23.1969 45.5859C23.203 45.6357 23.2091 45.7601 23.1969 45.8223C23.1846 45.8036 23.1969 45.6544 23.1969 45.5859Z" fill="white"/>
<path fill-rule="evenodd" clip-rule="evenodd" d="M23 46.0156C23.0123 46.0965 23.0123 46.2333 23.0123 46.4199C23 46.3515 23 46.1587 23 46.0156Z" fill="white"/>
<path fill-rule="evenodd" clip-rule="evenodd" d="M23.9642 47.2031C23.9642 47.4084 23.9826 47.8313 23.9642 47.9744C23.9765 47.7256 23.958 47.4333 23.9642 47.2031Z" fill="white"/>
<path fill-rule="evenodd" clip-rule="evenodd" d="M23.5413 47.7422C23.5659 47.9972 23.5413 48.4575 23.5536 48.7871C23.529 48.8306 23.5536 48.3082 23.5352 48.2087C23.5352 48.1465 23.5413 48.0781 23.5474 48.0096C23.5474 47.9163 23.529 47.8355 23.5474 47.7422H23.5413Z" fill="white"/>
<path fill-rule="evenodd" clip-rule="evenodd" d="M23.4785 50.8828C23.4785 50.8828 23.4969 50.9015 23.4969 50.9885C23.4969 51.0134 23.4847 51.0196 23.4785 51.0196V50.8828Z" fill="white"/>
<path fill-rule="evenodd" clip-rule="evenodd" d="M23.627 52.1953C23.6454 52.4006 23.6454 52.8795 23.627 53.1407C23.627 53.178 23.6392 53.178 23.6331 53.2465C23.6331 53.4019 23.6331 53.7503 23.6331 53.4144C23.6331 52.9417 23.6331 52.6805 23.627 52.2015V52.1953Z" fill="white"/>
<path fill-rule="evenodd" clip-rule="evenodd" d="M23.4044 52.3477C23.4106 52.3974 23.4106 52.4783 23.4106 52.584C23.3983 52.5591 23.3983 52.385 23.4044 52.3477Z" fill="white"/>
<path fill-rule="evenodd" clip-rule="evenodd" d="M23.982 52.6953C23.9943 52.7326 23.982 52.9068 23.982 53.0001C23.982 52.9317 23.9697 52.7699 23.982 52.6953Z" fill="white"/>
<path fill-rule="evenodd" clip-rule="evenodd" d="M23.4785 52.6016C23.4908 52.6824 23.4847 52.869 23.4969 52.9747C23.4785 53.068 23.4847 52.7322 23.4785 52.6016Z" fill="white"/>
<path fill-rule="evenodd" clip-rule="evenodd" d="M23.418 52.75C23.4303 52.8184 23.4303 53.0112 23.4303 53.1543C23.418 53.0672 23.4241 52.8806 23.418 52.75Z" fill="white"/>
<path fill-rule="evenodd" clip-rule="evenodd" d="M24.0879 53.0234C24.0879 53.0234 24.1002 53.1665 24.1063 53.266C24.094 53.2473 24.094 53.1105 24.0879 53.0234Z" fill="white"/>
<path fill-rule="evenodd" clip-rule="evenodd" d="M23.9825 53.168C23.9948 53.2799 23.9887 53.6531 23.9887 53.8459C23.9764 53.6096 23.9764 53.4292 23.9825 53.168Z" fill="white"/>
<path fill-rule="evenodd" clip-rule="evenodd" d="M23.4293 53.2227C23.4478 53.3968 23.4293 53.6456 23.4293 53.7949C23.417 53.6332 23.4416 53.403 23.4293 53.2227Z" fill="white"/>
<path fill-rule="evenodd" clip-rule="evenodd" d="M23.6397 53.6836C23.6458 53.752 23.6458 53.864 23.6519 53.9573C23.6335 53.9759 23.6397 53.8018 23.6397 53.6836Z" fill="white"/>
<path fill-rule="evenodd" clip-rule="evenodd" d="M23.5894 53.9688C23.6017 54.0496 23.5894 54.118 23.5894 54.2362C23.5772 54.2113 23.5894 54.0496 23.5894 53.9688Z" fill="white"/>
<path fill-rule="evenodd" clip-rule="evenodd" d="M23.5338 54.2617C23.546 54.299 23.546 54.554 23.5215 54.4919C23.5215 54.4172 23.5276 54.4297 23.5338 54.4297C23.5338 54.3488 23.5276 54.355 23.5338 54.2617Z" fill="white"/>
<path fill-rule="evenodd" clip-rule="evenodd" d="M23.8713 54.9906C23.8529 54.8227 23.8836 54.5366 23.8713 54.9906V54.9906Z" fill="white"/>
<path fill-rule="evenodd" clip-rule="evenodd" d="M24.0379 55.3672C24.044 55.504 24.044 55.6409 24.0379 55.8088C24.0379 55.7031 24.0317 55.4356 24.0379 55.3672Z" fill="white"/>
<path fill-rule="evenodd" clip-rule="evenodd" d="M24.0625 55.4748C24.0748 55.4251 24.0748 55.6987 24.0625 55.6428V55.4748Z" fill="white"/>
<path fill-rule="evenodd" clip-rule="evenodd" d="M24.295 55.8086C24.3012 55.8584 24.3073 55.9641 24.3012 56.0449C24.2889 56.0201 24.2889 55.8459 24.295 55.8086Z" fill="white"/>
<path fill-rule="evenodd" clip-rule="evenodd" d="M24.2715 56.75C24.2715 57.1294 24.2899 57.0299 24.2715 56.75V56.75Z" fill="white"/>
<path fill-rule="evenodd" clip-rule="evenodd" d="M24.2835 49.1602C24.2835 49.2161 24.2897 49.297 24.302 49.3343C24.2835 49.44 24.302 49.6266 24.2897 49.7697C24.2713 49.5955 24.2897 49.4089 24.2835 49.1602Z" fill="white"/>
<path fill-rule="evenodd" clip-rule="evenodd" d="M23.903 52.9105C23.903 52.9914 23.8969 52.979 23.903 53.0785C23.8969 53.0847 23.8969 53.0474 23.8907 53.0412C23.8907 53.2153 23.8907 53.3086 23.8907 53.4454C23.8907 53.4268 23.8846 53.4081 23.8784 53.4081C23.903 53.6009 23.8662 53.8186 23.8784 54.2167C23.8539 53.8373 23.8723 52.9976 23.8662 52.668C23.8846 52.7177 23.8662 53.0101 23.8846 53.0412C23.8969 53.0474 23.8846 52.8546 23.9092 52.9105H23.903Z" fill="white"/>
<path fill-rule="evenodd" clip-rule="evenodd" d="M23.4859 53.235C23.4859 53.2536 23.4859 53.2723 23.4859 53.235C23.4982 53.2474 23.4859 53.3842 23.4859 53.4029C23.4736 53.3594 23.4859 52.9178 23.4859 53.235Z" fill="white"/>
<path fill-rule="evenodd" clip-rule="evenodd" d="M23.5335 55.7349H23.5151C23.5151 55.9464 23.5151 56.2885 23.5028 56.4315C23.4905 56.1765 23.5212 55.6416 23.4905 55.455C23.4905 55.3928 23.4905 55.3555 23.5028 55.2871C23.4721 54.69 23.5028 54.0494 23.4844 53.4336C23.5335 53.7135 23.466 54.3355 23.5151 54.6527C23.5151 54.7024 23.5151 54.6527 23.5151 54.6153C23.5151 54.889 23.5028 55.3742 23.5335 55.7287V55.7349Z" fill="white"/>
<path fill-rule="evenodd" clip-rule="evenodd" d="M24.0986 55.5547C24.1047 55.6355 24.1109 55.6853 24.117 55.7599C24.117 55.791 24.0863 55.6231 24.0986 55.5547Z" fill="white"/>
<path fill-rule="evenodd" clip-rule="evenodd" d="M45.1875 48.4276C45.1875 48.5582 45.1998 48.7635 45.206 48.9003C45.206 49.2673 45.1875 49.6031 45.1998 49.9701C45.2121 50.2686 45.2244 50.6543 45.2367 50.9528C45.2428 51.1829 45.249 51.2887 45.2551 51.4566C45.2735 51.9542 45.2612 52.3585 45.3104 52.5762C45.3411 52.9742 45.3595 53.3039 45.3841 53.6646C45.3841 53.7455 45.3841 53.8015 45.3841 53.8326C45.4516 54.61 45.5683 55.0827 45.6174 55.997C45.642 56.0779 45.6788 56.1277 45.7157 56.2832C45.728 56.3516 45.7402 56.5071 45.7525 56.563C45.8078 56.7496 45.8754 56.5879 45.9183 56.9362C45.9306 56.9549 45.9368 56.8927 45.9429 56.874C46.0535 56.8865 46.1456 56.7496 46.2316 56.8367C46.2807 56.6004 46.3421 56.6501 46.3851 56.4697C46.4158 56.3578 46.4404 56.1277 46.4711 55.9846C46.5018 55.8167 46.5263 55.6363 46.5632 55.4995C46.5939 55.4995 46.6 55.288 46.6307 55.2445C46.6553 55.0143 46.6799 54.7469 46.6983 54.5167C46.7106 54.4919 46.7167 54.4297 46.729 54.4234C46.7843 53.8637 46.858 53.3039 46.8764 52.5389C46.8764 52.4642 46.8764 52.3212 46.8764 52.2403C46.8764 51.6743 46.8887 50.7973 46.9317 50.505C46.9317 50.3993 46.9317 50.4055 46.9317 50.2997C46.9501 50.2375 46.9931 49.9328 46.9931 49.6715C46.9931 49.5845 46.9624 49.4228 46.9562 49.2299C46.9501 48.9376 46.9869 48.6577 46.9808 48.3965C46.9808 48.2721 46.9501 48.1477 46.9439 48.0171C46.9317 47.6874 46.9439 47.0157 46.9439 46.742C46.9501 46.5243 46.9746 46.4435 46.9685 46.2755C46.9685 46.1263 46.9439 46.0143 46.9071 46.0268C46.8334 45.5976 46.8887 44.4905 46.858 43.8312C46.8825 43.346 46.8395 42.8796 46.8457 42.4193C46.8457 42.326 46.858 42.2203 46.8457 42.1145C46.8273 41.9653 46.7965 41.6916 46.7781 41.4801C46.7536 41.0945 46.6614 40.7648 46.5877 40.4538C46.5632 40.2051 46.5018 39.9998 46.4219 39.8132C46.3482 39.6266 46.2745 39.4462 46.2008 39.2534C46.1456 39.1104 46.0842 38.9735 46.0105 38.8181C45.9491 38.7061 45.8692 38.5506 45.8017 38.4262C45.728 38.2832 45.6481 38.1463 45.5683 38.0157C45.513 37.9348 45.4516 37.8415 45.4025 37.7731C45.3349 37.6736 45.3104 37.599 45.2244 37.4995C45.1568 37.4248 45.0279 37.2693 44.9603 37.1947C44.8129 36.9957 44.6471 36.8028 44.469 36.6225C44.2971 36.4359 44.1312 36.2555 43.947 36.1187C43.3697 35.5278 42.774 35.1235 41.9818 34.5762C41.7423 34.4393 41.6195 34.3647 41.3738 34.2216C41.2878 34.1781 41.2878 34.1905 41.1589 34.1221C40.7965 33.9107 40.4096 33.7552 40.0289 33.5934L39.8876 33.5312C39.8876 33.5312 39.8508 33.5437 39.8385 33.5686L39.8078 33.6432C39.7648 33.7427 39.7157 33.836 39.6727 33.9293C39.5806 34.1159 39.4946 34.3025 39.4086 34.5078C39.4025 34.5389 39.3902 34.5762 39.3718 34.6321C39.1998 35.0302 39.0217 35.4407 38.8559 35.8201C38.7147 36.156 38.5857 36.4856 38.4936 36.7344C38.3155 37.1076 38.1497 37.5617 37.9531 38.0344L37.6768 38.6812C37.4987 39.1104 37.2899 39.6142 37.1241 40.0122C37.0872 40.1118 37.032 40.2673 36.9951 40.3606C36.903 40.572 36.8232 40.7711 36.7188 41.0074C36.3871 41.8657 35.9572 42.836 35.6502 43.5762C35.5703 43.7876 35.4782 44.0178 35.38 44.2666C35.337 44.3785 35.2878 44.478 35.2449 44.59C35.208 44.6771 35.165 44.7641 35.1282 44.8512C35.0975 44.9134 35.0668 44.9694 35.0483 45.0316C35.0361 45.0627 35.0238 45.1062 35.0176 45.1373C34.9869 45.2244 34.9562 45.2804 34.9194 45.3612L34.9071 45.3861C34.8273 45.2182 34.7229 45.044 34.6553 44.845C34.2868 44.1111 33.7587 42.9355 33.3411 42.0337C33.2244 41.8409 33.1568 41.6356 33.0586 41.4241C32.7515 40.7773 32.3462 39.9563 32.0514 39.2659C31.3636 37.798 30.6819 36.3364 30.0002 34.8747C29.7177 34.3149 29.5274 33.5499 28.8395 33.9542C28.557 34.0288 28.2745 34.1719 28.0166 34.3523C27.8631 34.4456 27.8017 34.5078 27.7095 34.5762C27.6174 34.6446 27.5376 34.7192 27.4639 34.7939C26.8313 35.391 26.3523 36.0627 25.9224 36.7406C25.7689 36.9397 25.5724 37.2755 25.468 37.4684C25.4311 37.5057 25.3574 37.6301 25.3022 37.7234C25.1241 38.0841 24.8661 38.5071 24.6389 38.9549C24.6021 39.0793 24.4485 39.3405 24.381 39.5209C24.3319 39.5831 24.4178 39.4151 24.3503 39.5395C24.2459 39.8505 23.7607 40.827 23.5765 41.2873C23.5888 41.2562 23.6011 41.25 23.5826 41.2873C23.5212 41.393 23.5212 41.4552 23.4721 41.5734C23.3861 41.7787 23.3063 41.9715 23.2387 42.1581C23.1957 42.27 23.1527 42.382 23.1098 42.5002C23.0913 42.6183 23.1098 42.7987 23.1098 42.8671C23.122 43.2403 23.1405 43.6135 23.1527 43.9494C23.1466 44.0427 23.122 44.2977 23.1405 44.3847C23.1405 44.2479 23.1405 44.0738 23.165 44.0862C23.1589 44.3101 23.165 44.6087 23.1834 44.7579C23.1834 45.0378 23.1712 45.1809 23.1896 45.4297C23.1896 45.4919 23.2142 45.3675 23.2142 45.5043C23.2142 45.9335 23.2142 46.0579 23.2142 46.4435C23.2326 46.543 23.2387 46.9597 23.2326 47.0841C23.2387 47.1961 23.251 46.9597 23.2571 47.053C23.2633 47.3702 23.2694 47.6688 23.2571 47.9611C23.2694 48.0357 23.2817 48.0793 23.2817 48.2037C23.2817 48.2845 23.2633 48.1788 23.2694 48.3032C23.2817 48.4151 23.2878 48.2161 23.3063 48.2472C23.3124 48.4089 23.3247 48.3778 23.337 48.4525C23.3247 48.6764 23.3493 48.8257 23.3554 49.0309C23.3554 49.2673 23.3554 49.4476 23.3615 49.6715C23.3615 49.8457 23.38 49.9203 23.38 50.1131C23.38 50.25 23.3677 50.4241 23.3677 50.5796C23.3677 50.6729 23.3861 50.5174 23.3861 50.648C23.3861 51.2638 23.3984 51.8796 23.423 52.3336C23.3861 51.637 23.423 51.127 23.3922 50.5112C23.4107 50.4179 23.38 50.2375 23.4045 50.1442C23.3922 50.1007 23.3861 50.2438 23.3861 50.1069C23.3861 50.0634 23.3922 50.0447 23.3861 49.9763C23.4107 50.0634 23.4107 49.9328 23.4291 49.883C23.4291 49.3668 23.423 48.95 23.4168 48.5022C23.4168 48.4214 23.4045 48.5582 23.3984 48.4649C23.3984 48.2845 23.3984 48.185 23.3922 47.9611C23.4107 47.8989 23.4168 47.7683 23.4414 47.8367C23.4537 48.4214 23.4659 49.2984 23.4782 49.995C23.4782 50.2127 23.4598 50.4428 23.4905 50.5672C23.4844 50.2438 23.5151 49.9825 23.5151 49.7026C23.5151 49.3357 23.4905 48.9438 23.4966 48.5893C23.4966 48.5022 23.5028 48.4276 23.5089 48.3592C23.5089 48.3032 23.4966 48.1477 23.4966 48.0855C23.4966 47.9984 23.5089 47.9922 23.5089 47.9176C23.5089 47.7621 23.4905 47.6501 23.4905 47.476C23.4905 47.1899 23.5089 46.9162 23.5028 46.6052C23.5089 46.5492 23.5274 46.5741 23.5335 46.6425C23.5335 47.0095 23.5335 47.0717 23.5335 47.4511C23.5335 47.4075 23.5335 47.3827 23.5458 47.3889C23.5458 47.5071 23.5396 47.5444 23.5458 47.6252C23.5458 47.3453 23.5765 47.3702 23.5949 47.4697C23.5949 48.1664 23.5949 48.9811 23.5949 49.5845C23.6072 49.6467 23.6195 49.6902 23.6195 49.7897C23.6195 50.4552 23.6256 51.1332 23.6318 51.8422C23.6563 51.0585 23.644 50.2375 23.6318 49.3232C23.6318 49.2859 23.6502 49.317 23.644 49.2237C23.644 48.7946 23.6318 48.384 23.6318 48.0793C23.6502 47.9549 23.6686 47.8243 23.6932 47.6874C23.6747 46.7296 23.7546 46.033 23.7546 45.1125C23.7669 45.1125 23.773 45.044 23.7791 45.0192C23.7914 45.0938 23.8037 45.1436 23.816 45.2306C23.816 45.3799 23.8221 45.5354 23.816 45.666C23.8528 46.4373 23.8283 47.5382 23.8528 48.5022C23.8774 48.6204 23.8897 48.5271 23.9081 48.4462C23.9204 47.9798 23.8897 47.5568 23.9204 47.0655C23.9695 46.8913 24.0064 47.0779 24.0125 47.4573C24.0125 48.0855 24.0064 49.1553 24.0064 49.5782C24.0187 51.4815 24.0309 53.2292 24.0494 55.1449C24.0616 54.0938 24.0309 53.1235 24.0494 52.1781C24.0371 52.1781 24.0371 52.147 24.0371 52.0724C24.0371 51.1456 24.0371 50.1194 24.0248 49.3046C24.0555 48.9625 24.0248 48.3094 24.0494 47.9611C24.0985 48.0482 24.1231 48.3343 24.1353 48.6888C24.1353 48.3281 24.1476 47.986 24.1538 47.6812C24.1538 47.4324 24.1415 46.997 24.1538 46.8726C24.1538 46.8415 24.166 46.9037 24.166 46.8415C24.166 46.9411 24.166 46.6612 24.166 46.6363C24.166 46.4995 24.1538 46.5243 24.1599 46.3626C24.1599 46.1574 24.1599 46.1574 24.1722 46.0268C24.1722 45.299 24.1722 44.6335 24.1722 43.9058C24.1722 43.8312 24.1722 43.6819 24.1722 43.6695C24.1722 43.6011 24.1845 43.657 24.1845 43.57C24.1845 43.5202 24.1722 43.5451 24.1783 43.4704C24.1783 43.2279 24.1783 42.9604 24.1845 42.7303C24.2336 42.6121 24.2827 42.4877 24.3319 42.3695C24.4056 42.2078 24.4792 42.0399 24.5468 41.8782C24.6942 41.5547 24.8354 41.2438 24.9521 40.995C25.0074 40.883 24.9521 41.0385 25.0258 40.8892C25.4434 40.0309 25.9102 39.1353 26.426 38.2645C26.469 38.2023 26.4506 38.2645 26.5059 38.165C26.5796 38.0468 26.5427 38.0655 26.6103 37.9597C26.6533 37.8975 26.6962 37.8415 26.7269 37.8104C27.0402 37.3315 27.3656 36.8526 27.7157 36.411C27.8938 36.1933 28.078 35.9818 28.2684 35.7952C28.3667 35.7019 28.4588 35.6149 28.557 35.534L28.6553 35.4532L28.6921 35.4283C28.7351 35.4034 28.8088 35.3599 28.8457 35.3847L28.9439 35.59C29.1834 36.1062 29.4168 36.6163 29.644 37.1076C30.0064 37.8851 30.3626 38.6252 30.6696 39.3281C31.1118 40.2859 31.4803 41.0758 31.8856 41.9466C32.1742 42.5748 32.4874 43.2527 32.7392 43.8063C32.7822 43.8872 32.8436 44.0178 32.8928 44.1111C32.9542 44.2541 33.0402 44.4594 33.1016 44.6024C33.3595 45.1498 33.642 45.7469 33.8938 46.2942C34.2623 47.0966 34.6123 47.874 34.9746 48.6639L35.0361 48.5271C35.2264 48.0606 35.4352 47.5568 35.6195 47.0903C35.7484 46.798 35.902 46.4435 36.0309 46.1387C36.2889 45.5105 36.5652 44.845 36.8109 44.2417C37.0934 43.5824 37.3943 42.9107 37.6584 42.2327C37.9777 41.4988 38.3585 40.5969 38.6471 39.8879C38.9235 39.3281 39.1384 38.7123 39.4209 38.0655C39.4455 38.0095 39.4823 37.9411 39.5069 37.8851C39.728 37.3999 39.9368 36.8775 40.1394 36.3799C40.2438 36.1311 40.3421 35.8885 40.4342 35.6584C40.4526 35.6149 40.4711 35.5651 40.4895 35.5216L40.5263 35.4469C40.5263 35.3039 40.6246 35.4034 40.6799 35.4345C40.7167 35.4594 40.7474 35.4718 40.7904 35.4905C40.9194 35.5651 41.0483 35.6398 41.1712 35.7082C41.251 35.7579 41.3186 35.8139 41.4045 35.8699C41.6563 36.0316 41.8958 36.1933 42.1599 36.3861C42.5468 36.6847 42.9153 37.0516 43.3145 37.4373C43.6031 37.7545 43.9961 38.2521 44.2664 38.6439C44.6962 39.3343 45.0586 40.0744 45.2182 40.883C45.2428 41.0074 45.2674 41.1505 45.2919 41.2811C45.3104 41.4117 45.3104 41.5485 45.3349 41.6854C45.3349 41.8284 45.3472 41.9901 45.3595 42.1581C45.3656 42.3384 45.3595 42.5375 45.3595 42.7303C45.3534 43.1035 45.3472 43.5326 45.3349 43.9307C45.3288 44.5091 45.3472 45.2306 45.2981 45.666C45.1998 45.865 45.3472 46.2507 45.3226 46.7109C45.3042 46.9535 45.2735 46.9224 45.2367 47.0281C45.2244 47.2458 45.2367 47.4511 45.2367 47.6688C45.2244 47.9176 45.1814 48.0979 45.1814 48.4276H45.1875ZM23.337 47.0903C23.337 47.0903 23.3308 47.0903 23.3308 47.1214C23.3124 47.0468 23.3431 46.8913 23.337 47.0903ZM23.3431 47.1588C23.3431 47.4386 23.3677 47.8305 23.3431 48.0295C23.3431 48.0855 23.3677 47.9798 23.3738 48.0731C23.3615 48.1912 23.3554 48.3343 23.3554 48.5395C23.3186 48.552 23.3431 48.1477 23.3063 48.129C23.3063 47.9735 23.3063 47.8927 23.294 47.8243C23.3063 47.5008 23.2817 47.4324 23.294 47.1899C23.3124 47.2521 23.3124 47.1463 23.3308 47.165L23.3431 47.1588Z" fill="white"/>
<path fill-rule="evenodd" clip-rule="evenodd" d="M33.6119 36.0586C33.6119 36.0586 33.6119 36.071 33.5996 36.0773C33.5996 36.0648 33.5996 36.0586 33.6119 36.0586Z" fill="white"/>
<path fill-rule="evenodd" clip-rule="evenodd" d="M32.7645 35.1278C32.7645 35.1278 32.7522 35.1526 32.7461 35.1278C32.7522 35.1215 32.7584 35.1278 32.7645 35.1278Z" fill="white"/>
<path fill-rule="evenodd" clip-rule="evenodd" d="M32.7268 35.1118C32.7268 35.1118 32.7146 35.118 32.7146 35.1243C32.7084 35.1118 32.7207 35.1056 32.7268 35.1118Z" fill="white"/>
<path fill-rule="evenodd" clip-rule="evenodd" d="M32.7525 35.3203C32.7525 35.3203 32.7464 35.339 32.7402 35.3327C32.7402 35.3265 32.7525 35.3265 32.7525 35.3203Z" fill="white"/>
<path fill-rule="evenodd" clip-rule="evenodd" d="M32.6242 35.1641C32.6242 35.1641 32.618 35.1889 32.5996 35.1889C32.5996 35.1765 32.6119 35.1703 32.6242 35.1641Z" fill="white"/>
<path fill-rule="evenodd" clip-rule="evenodd" d="M33.0338 36.0547C33.0338 36.0547 32.9969 36.0982 32.9785 36.0858C33.0031 36.0858 33.0154 36.0547 33.0338 36.0547Z" fill="white"/>
<path fill-rule="evenodd" clip-rule="evenodd" d="M32.7827 35.7122C32.7827 35.7433 32.7274 35.7433 32.7151 35.7682C32.7028 35.7495 32.7458 35.7433 32.7458 35.7246C32.7519 35.7246 32.7581 35.7246 32.7642 35.7246C32.7642 35.7246 32.7642 35.706 32.7827 35.7122Z" fill="white"/>
<path fill-rule="evenodd" clip-rule="evenodd" d="M32.526 35.793C32.526 35.793 32.5321 35.8116 32.526 35.8116C32.526 35.8116 32.5198 35.8054 32.5137 35.7992C32.5137 35.7992 32.5198 35.7992 32.526 35.7992V35.793Z" fill="white"/>
<path fill-rule="evenodd" clip-rule="evenodd" d="M32.5061 35.9789C32.5061 35.9789 32.4692 36.0286 32.4447 36.0224V36.0349C32.4324 36.0411 32.4078 36.0535 32.4324 36.0349C32.457 36.0038 32.4877 36.0038 32.5122 35.9727L32.5061 35.9789Z" fill="white"/>
<path fill-rule="evenodd" clip-rule="evenodd" d="M32.3834 35.793C32.3834 35.793 32.3834 35.8054 32.3711 35.8116C32.3711 35.7992 32.3772 35.793 32.3834 35.793Z" fill="white"/>
<path fill-rule="evenodd" clip-rule="evenodd" d="M32.661 36.3086C32.661 36.3086 32.6487 36.321 32.6426 36.3273C32.6426 36.321 32.6549 36.3086 32.661 36.3086Z" fill="white"/>
<path fill-rule="evenodd" clip-rule="evenodd" d="M32.4031 35.8672C32.4031 35.8672 32.3909 35.8858 32.3847 35.8983C32.3663 35.8858 32.397 35.8734 32.4031 35.8672Z" fill="white"/>
<path fill-rule="evenodd" clip-rule="evenodd" d="M32.3585 35.8164C32.3585 35.8164 32.3463 35.8351 32.334 35.8413C32.334 35.8288 32.3524 35.8226 32.3585 35.8164Z" fill="white"/>
<path fill-rule="evenodd" clip-rule="evenodd" d="M32.6917 36.4141C32.6917 36.4141 32.6917 36.4327 32.6855 36.4389C32.6855 36.4265 32.6855 36.4203 32.6917 36.4141Z" fill="white"/>
<path fill-rule="evenodd" clip-rule="evenodd" d="M32.6231 36.3281C32.6231 36.3281 32.5924 36.3592 32.5801 36.3654C32.5924 36.3468 32.6046 36.3406 32.6231 36.3281Z" fill="white"/>
<path fill-rule="evenodd" clip-rule="evenodd" d="M32.3337 35.8477C32.3337 35.8477 32.303 35.8725 32.2969 35.8725C32.2969 35.8539 32.3276 35.8663 32.3337 35.8477Z" fill="white"/>
<path fill-rule="evenodd" clip-rule="evenodd" d="M32.408 36.0469C32.408 36.0469 32.4019 36.0593 32.3957 36.0718C32.3834 36.0531 32.3957 36.0531 32.408 36.0469Z" fill="white"/>
<path fill-rule="evenodd" clip-rule="evenodd" d="M32.3661 36.0234C32.3661 36.0234 32.3599 36.0359 32.3477 36.0359C32.3477 36.0234 32.3599 36.0297 32.3661 36.0234Z" fill="white"/>
<path fill-rule="evenodd" clip-rule="evenodd" d="M32.3156 35.9828C32.3156 35.9828 32.3033 36.0077 32.291 35.9828C32.291 35.9828 32.2972 35.9828 32.3033 35.989C32.3094 35.989 32.3033 35.9766 32.3156 35.9766V35.9828Z" fill="white"/>
<path fill-rule="evenodd" clip-rule="evenodd" d="M32.4936 36.4704C32.4936 36.4704 32.4752 36.4891 32.4629 36.4891C32.4629 36.4766 32.4875 36.4642 32.4936 36.4704Z" fill="white"/>
<path fill-rule="evenodd" clip-rule="evenodd" d="M32.5006 36.4961C32.5006 36.4961 32.4944 36.5148 32.4883 36.5023C32.4883 36.5023 32.4944 36.5023 32.5006 36.4961Z" fill="white"/>
<path fill-rule="evenodd" clip-rule="evenodd" d="M32.5982 36.7109C32.5982 36.7109 32.5982 36.7296 32.5859 36.7296C32.5859 36.7172 32.5921 36.7109 32.5982 36.7109Z" fill="white"/>
<path fill-rule="evenodd" clip-rule="evenodd" d="M33.0661 36.4141C33.0661 36.4141 33.0661 36.4265 33.0661 36.4389C33.0477 36.4265 33.0416 36.4514 33.0293 36.4514C33.0293 36.4265 33.06 36.4389 33.0661 36.4203V36.4141Z" fill="white"/>
<path fill-rule="evenodd" clip-rule="evenodd" d="M32.6041 36.2451H32.5918C32.5918 36.2451 32.5918 36.2388 32.5918 36.2326C32.5796 36.2326 32.5734 36.2451 32.5673 36.2513C32.5673 36.2513 32.5673 36.2451 32.5673 36.2389C32.5673 36.2699 32.5304 36.2389 32.5059 36.2699C32.5181 36.2326 32.5918 36.214 32.6103 36.1953C32.6103 36.214 32.5857 36.214 32.5918 36.2264C32.598 36.2389 32.6041 36.2264 32.6103 36.2389L32.6041 36.2451Z" fill="white"/>
<path fill-rule="evenodd" clip-rule="evenodd" d="M32.3658 35.8981C32.3658 35.9105 32.3535 35.9043 32.3535 35.9043C32.3535 35.8919 32.3842 35.8794 32.3658 35.8919V35.8981Z" fill="white"/>
<path fill-rule="evenodd" clip-rule="evenodd" d="M32.2118 36.047C32.2118 36.047 32.2118 36.0346 32.2057 36.0346C32.1934 36.047 32.1688 36.0657 32.1504 36.0532C32.1627 36.0346 32.2179 36.0346 32.2118 36.0035C32.2118 36.0035 32.2241 36.0035 32.2302 36.0035C32.2609 35.9537 32.3162 35.9537 32.3531 35.9102C32.3531 35.9599 32.2794 35.935 32.2855 35.991C32.2671 36.0035 32.2241 36.0159 32.2179 36.0532L32.2118 36.047Z" fill="white"/>
<path fill-rule="evenodd" clip-rule="evenodd" d="M37.4493 33.9069C37.4493 33.9069 37.4616 33.882 37.4739 33.8696C37.4985 33.8509 37.5353 33.8572 37.5537 33.8323C37.5722 33.8136 37.5845 33.7763 37.6029 33.7577C37.6213 33.7452 37.6213 33.7328 37.6336 33.7203C37.6581 33.683 37.695 33.6768 37.6827 33.627C37.6889 33.5835 37.7134 33.5524 37.7196 33.5151C37.7196 33.5151 37.7318 33.5089 37.7318 33.5026C37.7503 33.4093 37.7257 33.285 37.7625 33.2041C37.7564 33.1792 37.738 33.1419 37.7318 33.1108C37.7318 33.0921 37.7318 33.0797 37.7318 33.0673C37.7196 33.0113 37.6704 32.9553 37.6704 32.9055C37.6704 32.8931 37.6581 32.8931 37.652 32.8869C37.5967 32.7936 37.5415 32.719 37.4985 32.6381C37.4555 32.607 37.4309 32.551 37.3941 32.5199C37.3695 32.5013 37.3388 32.4826 37.3142 32.4639C37.2835 32.4453 37.259 32.4266 37.2344 32.408C37.216 32.3769 37.1976 32.3831 37.1791 32.3582C37.1484 32.352 37.1239 32.3333 37.0932 32.3271C37.087 32.3209 37.0747 32.3147 37.0686 32.3022C37.001 32.2773 36.9212 32.24 36.8598 32.2525C36.8598 32.2525 36.8414 32.2525 36.8352 32.2587C36.7984 32.2836 36.7247 32.3147 36.6817 32.2836C36.6755 32.2836 36.6817 32.296 36.6694 32.296C36.651 32.2773 36.6141 32.2587 36.5957 32.2711C36.5896 32.2711 36.5957 32.3084 36.5834 32.3209C36.565 32.3395 36.5282 32.3209 36.5097 32.3333C36.5036 32.3395 36.5097 32.3706 36.4974 32.3769C36.479 32.4017 36.4299 32.4266 36.4053 32.4266C36.3869 32.4266 36.3685 32.4142 36.3623 32.4266C36.3562 32.4391 36.3623 32.4639 36.3746 32.4888C36.3808 32.5697 36.2764 32.5697 36.2457 32.6257C36.1965 32.6257 36.1904 32.6816 36.1535 32.7003C36.1474 32.7003 36.1351 32.7003 36.129 32.7003C36.1167 32.7065 36.1106 32.7314 36.0983 32.7438C36.0798 32.7687 36.0553 32.7811 36.043 32.7998C35.9877 32.7811 35.9939 32.8371 35.9632 32.8558C35.9509 32.8558 35.9386 32.8558 35.9263 32.8558C35.914 32.8558 35.914 32.8807 35.9017 32.8807C35.8895 32.8807 35.871 32.8807 35.8649 32.8807C35.8588 32.8807 35.8588 32.8993 35.8526 32.8993C35.8465 32.8993 35.8342 32.8993 35.8281 32.8993C35.8219 32.9055 35.8219 32.9242 35.8096 32.9366C35.7789 32.9615 35.7359 32.9677 35.7237 33.0175C35.6561 33.0299 35.6315 33.0921 35.5456 33.1108C35.5333 33.1295 35.5271 33.1419 35.5026 33.1419C35.5026 33.1419 35.5026 33.1543 35.5026 33.1606C35.4596 33.173 35.4473 33.2228 35.4043 33.229V33.2414C35.3429 33.2539 35.2815 33.285 35.2569 33.3347C35.2139 33.3347 35.1955 33.3782 35.1587 33.3969C35.1402 33.4093 35.1157 33.4093 35.1034 33.4218C35.0788 33.4467 35.0297 33.4653 35.0051 33.4902C34.999 33.4964 34.9928 33.5151 34.9867 33.5213C34.9744 33.5337 34.9499 33.5337 34.9376 33.5524C34.8823 33.6146 34.8025 33.6457 34.7411 33.6768C34.7226 33.6892 34.7165 33.7079 34.6981 33.7266C34.6674 33.7514 34.6244 33.7514 34.5937 33.7763C34.5875 33.7825 34.5814 33.795 34.5752 33.8012C34.5568 33.8199 34.5322 33.8199 34.5138 33.8323C34.4647 33.8634 34.4278 33.9194 34.3664 33.9256C34.3173 33.9878 34.2252 34.0313 34.1576 34.0811C34.1576 34.1122 34.1269 34.106 34.1146 34.1184C34.0717 34.1557 34.0164 34.2179 33.955 34.2366C33.7523 34.4107 33.5067 34.5351 33.3101 34.7155C33.2856 34.7155 33.261 34.7342 33.2549 34.759C33.2426 34.7528 33.2364 34.759 33.2242 34.759C33.2119 34.8026 33.1628 34.8026 33.132 34.8275C33.132 34.8586 33.1075 34.8523 33.1013 34.8772C33.0891 34.8648 33.1013 34.8586 33.0891 34.8586C33.0891 34.9145 33.0031 34.9456 32.9785 34.9767C32.9785 34.9767 32.9847 34.9767 32.9785 34.9829C32.9662 34.9767 32.9785 35.0016 32.9601 35.0078C32.8987 35.0514 32.8803 35.1198 32.8373 35.1695C32.825 35.1695 32.8004 35.1571 32.8004 35.182C32.8127 35.182 32.825 35.1695 32.8311 35.1882C32.8127 35.1882 32.7943 35.2131 32.7943 35.2317C32.7759 35.2442 32.7574 35.2442 32.7513 35.2691C32.7513 35.2691 32.7697 35.2877 32.7574 35.2939C32.7267 35.3002 32.7206 35.325 32.6899 35.3313C32.6899 35.3561 32.6653 35.3748 32.653 35.3748C32.653 35.3872 32.6715 35.3872 32.6653 35.3935C32.6469 35.4121 32.6285 35.4308 32.6039 35.4308C32.6039 35.4432 32.6039 35.4556 32.6039 35.4619C32.6039 35.4619 32.5978 35.4432 32.5916 35.4556C32.5916 35.4681 32.61 35.4681 32.6162 35.4867C32.61 35.4992 32.6162 35.5054 32.6162 35.5241C32.5916 35.5241 32.5978 35.5489 32.5855 35.5676C32.5732 35.5863 32.5548 35.5863 32.5425 35.5987C32.5302 35.6111 32.5363 35.6298 32.5241 35.636C32.5118 35.6422 32.4934 35.636 32.4811 35.6422C32.4811 35.6485 32.4934 35.6547 32.4811 35.6609C32.4381 35.692 32.4012 35.7231 32.3828 35.7666C32.4135 35.7044 32.4688 35.7169 32.4995 35.6609C32.5179 35.6733 32.5118 35.636 32.5302 35.6609C32.5302 35.6485 32.5118 35.6485 32.5241 35.6422C32.5241 35.6422 32.5302 35.6422 32.5363 35.6422C32.5363 35.6671 32.5486 35.6609 32.5609 35.6733C32.5978 35.6485 32.6223 35.6236 32.653 35.6049C32.653 35.5987 32.6407 35.5987 32.6469 35.5863C32.6592 35.5738 32.6653 35.5738 32.6776 35.5614C32.6899 35.5738 32.7022 35.5738 32.7144 35.5987C32.6715 35.6236 32.6285 35.692 32.5793 35.7231C32.5671 35.7355 32.5363 35.7231 32.5425 35.7604C32.5609 35.7418 32.5978 35.7604 32.6162 35.7418C32.6469 35.7293 32.6592 35.6858 32.6837 35.6796C32.6899 35.6796 32.696 35.6796 32.7083 35.6796C32.7083 35.6796 32.7144 35.6609 32.7206 35.6547C32.7267 35.6547 32.7329 35.6547 32.739 35.6547C32.7513 35.6485 32.7513 35.6298 32.7636 35.6236C32.782 35.6111 32.8127 35.6174 32.8311 35.5987C32.8373 35.5987 32.8495 35.6236 32.8434 35.6298C32.8188 35.6422 32.8127 35.6485 32.7881 35.6671C32.7881 35.6671 32.7943 35.6671 32.8004 35.6733C32.7943 35.6733 32.7881 35.6733 32.7881 35.6858C32.8066 35.6733 32.825 35.7044 32.825 35.7231C32.7697 35.748 32.7206 35.7977 32.6715 35.8102C32.6715 35.8226 32.6715 35.8351 32.6715 35.8413C32.6346 35.8786 32.5732 35.8973 32.5302 35.9408C32.5978 35.9284 32.6469 35.8786 32.7083 35.8351C32.7083 35.8351 32.7144 35.8475 32.7206 35.8413C32.739 35.8164 32.7759 35.7977 32.7943 35.7791C32.8127 35.7915 32.8311 35.804 32.8495 35.8164C32.911 35.7604 32.9969 35.7977 33.0645 35.7604C33.0706 35.7729 33.0768 35.7729 33.0829 35.7791C33.0829 35.7915 33.0829 35.804 33.0829 35.8164C33.0706 35.8226 33.0645 35.8351 33.0522 35.8351C33.0154 35.9035 32.9232 35.9284 32.868 35.9843C32.868 36.0092 32.8864 36.0216 32.8987 36.0341C32.9355 36.0279 32.9539 35.9781 33.0031 35.9843C33.0399 36.0216 33.0461 36.059 33.0215 36.0776C32.9785 36.1087 32.8987 36.1523 32.868 36.1647C32.7513 36.2704 32.6162 36.3389 32.4934 36.4384C32.5732 36.4011 32.6285 36.3389 32.7022 36.314C32.7022 36.3078 32.7022 36.3015 32.7022 36.2953C32.7697 36.258 32.8434 36.2145 32.8925 36.1647C32.9355 36.1771 32.9601 36.1149 33.0031 36.1274C33.0215 36.1771 33.0154 36.2082 32.9969 36.2331C33.0215 36.2145 33.0522 36.2145 33.0768 36.202C33.0952 36.1958 33.1198 36.1647 33.132 36.1647C33.132 36.1647 33.132 36.1771 33.1382 36.1771C33.132 36.1771 33.1505 36.1647 33.1505 36.1647C33.1566 36.1523 33.1505 36.1523 33.1628 36.146C33.1812 36.1398 33.1812 36.1398 33.1935 36.146C33.2487 36.1212 33.2917 36.0776 33.347 36.059L33.3654 36.0465C33.3716 36.0465 33.3716 36.059 33.3777 36.0527V36.0403C33.4023 36.0341 33.4268 36.0216 33.4452 36.0092C33.4944 35.9781 33.5558 35.9532 33.5988 35.9284C33.6111 35.9284 33.6049 35.947 33.6172 35.9408C33.6909 35.9097 33.7707 35.8724 33.8444 35.8288C33.8506 35.8288 33.8567 35.8475 33.8629 35.8413C33.8751 35.8413 33.8629 35.8226 33.869 35.8164C33.8751 35.8164 33.8874 35.8164 33.8936 35.8288C33.9857 35.7915 34.0655 35.7231 34.1515 35.6609C34.2313 35.6049 34.3112 35.5552 34.3849 35.5054C34.4463 35.4681 34.4954 35.4121 34.5568 35.3935C34.6244 35.3375 34.6858 35.3002 34.7533 35.2566C34.8025 35.2255 34.8639 35.2006 34.9007 35.1695C34.9069 35.1695 34.913 35.1509 34.9191 35.1447C34.9314 35.1384 34.9499 35.1447 34.9621 35.1322C34.999 35.1136 35.0235 35.0762 35.0543 35.0576C35.0911 35.0327 35.128 35.014 35.1709 34.9954C35.1955 34.9829 35.2078 34.9581 35.2262 34.9456C35.2385 34.9394 35.2631 34.9394 35.2753 34.927C35.3183 34.9021 35.349 34.8586 35.3859 34.8399C35.4412 34.815 35.5026 34.7964 35.5394 34.7466C35.6008 34.7217 35.6745 34.6782 35.7237 34.6409C35.7851 34.6409 35.8158 34.5849 35.8649 34.56C35.8649 34.56 35.8772 34.56 35.8833 34.56C35.9754 34.5351 36.0307 34.4418 36.1044 34.4294C36.1167 34.3983 36.1474 34.4045 36.172 34.3983C36.1965 34.3921 36.2088 34.361 36.2334 34.3485C36.2395 34.3485 36.2518 34.3485 36.2579 34.3485C36.2825 34.3361 36.2948 34.3112 36.3194 34.2926C36.3562 34.2677 36.4115 34.2739 36.4422 34.2304C36.4852 34.2304 36.5404 34.2117 36.5711 34.1682C36.651 34.1557 36.694 34.0873 36.7677 34.0562C36.7922 34.05 36.8229 34.0562 36.8352 34.0251C36.8721 34.0313 36.8905 34.0002 36.9212 33.9878C36.9519 33.9753 36.9887 33.9691 37.0195 33.9567C37.0624 33.938 37.1054 33.8883 37.1607 33.9131C37.2283 33.994 37.1791 33.8447 37.2221 33.8447C37.2528 33.8509 37.2651 33.8758 37.2897 33.9069C37.3142 33.9069 37.3204 33.8945 37.3327 33.8758C37.3572 33.8758 37.3941 33.9069 37.4125 33.8945L37.4493 33.9069ZM32.7206 35.4992C32.7206 35.4992 32.7206 35.493 32.7144 35.493C32.7144 35.4743 32.7329 35.493 32.7206 35.4992ZM32.7206 35.5116C32.7206 35.5116 32.6837 35.5614 32.6592 35.5552C32.6592 35.5552 32.6776 35.5738 32.6715 35.5863C32.6592 35.5863 32.6407 35.5863 32.6285 35.5863C32.61 35.5552 32.6469 35.5552 32.6285 35.5303C32.6407 35.5303 32.6469 35.5303 32.6469 35.5054C32.6776 35.5054 32.6715 35.4805 32.696 35.4805C32.7022 35.4992 32.7083 35.493 32.7206 35.5116Z" fill="white"/>
<path fill-rule="evenodd" clip-rule="evenodd" d="M36.6582 34.7617C36.6582 34.7617 36.6705 34.7617 36.6766 34.7617C36.6705 34.7679 36.6582 34.7742 36.6582 34.7617Z" fill="white"/>
<path fill-rule="evenodd" clip-rule="evenodd" d="M36.2109 35.9453C36.2109 35.9453 36.2355 35.9453 36.2232 35.9578C36.2171 35.9578 36.2171 35.9453 36.2109 35.9453Z" fill="white"/>
<path fill-rule="evenodd" clip-rule="evenodd" d="M36.2168 35.9805C36.2168 35.9805 36.2291 35.9805 36.2352 35.9867C36.2291 35.9991 36.2168 35.9867 36.2168 35.9805Z" fill="white"/>
<path fill-rule="evenodd" clip-rule="evenodd" d="M36.3828 35.8633C36.3828 35.8633 36.4012 35.8633 36.4012 35.8695C36.3951 35.8757 36.389 35.8695 36.3828 35.8633Z" fill="white"/>
<path fill-rule="evenodd" clip-rule="evenodd" d="M36.3027 36.0508C36.3027 36.0508 36.3273 36.0508 36.3334 36.057C36.3212 36.0632 36.3089 36.057 36.3027 36.0508Z" fill="white"/>
<path fill-rule="evenodd" clip-rule="evenodd" d="M36.8984 35.2812C36.8984 35.2812 36.9476 35.2937 36.9476 35.3186C36.9353 35.2937 36.9046 35.2999 36.8984 35.2812Z" fill="white"/>
<path fill-rule="evenodd" clip-rule="evenodd" d="M36.707 35.6585C36.7377 35.646 36.7562 35.6896 36.7869 35.6896C36.7807 35.7082 36.75 35.6709 36.7377 35.6834C36.7377 35.6834 36.7316 35.6709 36.7316 35.6647C36.7255 35.6647 36.7132 35.6647 36.7132 35.6585H36.707Z" fill="white"/>
<path fill-rule="evenodd" clip-rule="evenodd" d="M36.8867 35.8523C36.8867 35.8523 36.899 35.8398 36.9051 35.8398C36.9051 35.8398 36.9051 35.8523 36.899 35.8585C36.899 35.8585 36.899 35.8585 36.8929 35.8523H36.8867Z" fill="white"/>
<path fill-rule="evenodd" clip-rule="evenodd" d="M37.0586 35.7852C37.0586 35.7852 37.1139 35.7976 37.1261 35.8225C37.1261 35.8225 37.1323 35.8163 37.1384 35.8225C37.1507 35.8225 37.1691 35.8474 37.1446 35.8349C37.1077 35.8287 37.0954 35.8038 37.0586 35.7914V35.7852Z" fill="white"/>
<path fill-rule="evenodd" clip-rule="evenodd" d="M36.9473 35.9766C36.9473 35.9766 36.9595 35.9766 36.9657 35.9766C36.9595 35.9828 36.9473 35.9766 36.9473 35.9766Z" fill="white"/>
<path fill-rule="evenodd" clip-rule="evenodd" d="M37.2793 35.4961C37.2793 35.4961 37.2916 35.5023 37.3039 35.5085C37.2977 35.5085 37.2793 35.5085 37.2793 35.4961Z" fill="white"/>
<path fill-rule="evenodd" clip-rule="evenodd" d="M37.002 35.9258C37.002 35.9258 37.0265 35.9258 37.0388 35.9258C37.0388 35.9444 37.0142 35.9258 37.002 35.9258Z" fill="white"/>
<path fill-rule="evenodd" clip-rule="evenodd" d="M36.9844 35.9805C36.9844 35.9805 37.0089 35.9805 37.0151 35.9867C37.0028 35.9867 36.9905 35.9867 36.9844 35.9805Z" fill="white"/>
<path fill-rule="evenodd" clip-rule="evenodd" d="M37.3594 35.418C37.3594 35.418 37.3778 35.418 37.3839 35.418C37.3778 35.4304 37.3655 35.418 37.3594 35.418Z" fill="white"/>
<path fill-rule="evenodd" clip-rule="evenodd" d="M37.3105 35.5156C37.3105 35.5156 37.3474 35.5281 37.3597 35.5405C37.3413 35.5405 37.329 35.5281 37.3105 35.5156Z" fill="white"/>
<path fill-rule="evenodd" clip-rule="evenodd" d="M37.0215 35.9961C37.0215 35.9961 37.0522 36.0085 37.0583 36.021C37.0399 36.021 37.0399 35.9961 37.0215 35.9961Z" fill="white"/>
<path fill-rule="evenodd" clip-rule="evenodd" d="M37.1621 35.8398C37.1621 35.8398 37.1805 35.8398 37.1867 35.8398C37.1805 35.8585 37.1683 35.8398 37.1621 35.8398Z" fill="white"/>
<path fill-rule="evenodd" clip-rule="evenodd" d="M37.1562 35.8906C37.1562 35.8906 37.1685 35.8906 37.1747 35.8968C37.1685 35.9031 37.1624 35.8906 37.1562 35.8906Z" fill="white"/>
<path fill-rule="evenodd" clip-rule="evenodd" d="M37.1445 35.9453C37.1445 35.9453 37.1691 35.9453 37.1568 35.964C37.1568 35.964 37.1568 35.9578 37.1568 35.9515H37.1445V35.9453Z" fill="white"/>
<path fill-rule="evenodd" clip-rule="evenodd" d="M37.4883 35.5664C37.4883 35.5664 37.5128 35.5726 37.519 35.5851C37.5067 35.5851 37.4883 35.5726 37.4883 35.5664Z" fill="white"/>
<path fill-rule="evenodd" clip-rule="evenodd" d="M37.5059 35.5469C37.5059 35.5469 37.5304 35.5469 37.5181 35.5531C37.5181 35.5531 37.512 35.5531 37.5059 35.5469Z" fill="white"/>
<path fill-rule="evenodd" clip-rule="evenodd" d="M37.6543 35.3594H37.6727C37.6666 35.3656 37.6543 35.3594 37.6543 35.3594Z" fill="white"/>
<path fill-rule="evenodd" clip-rule="evenodd" d="M37.1992 35.0882C37.1992 35.0882 37.2115 35.0883 37.2176 35.082C37.2176 35.1007 37.2361 35.0945 37.2422 35.1069C37.2176 35.1131 37.2238 35.0882 37.1992 35.0882Z" fill="white"/>
<path fill-rule="evenodd" clip-rule="evenodd" d="M37.2481 35.5703C37.2481 35.5703 37.2481 35.5827 37.2542 35.5827C37.2542 35.589 37.2481 35.5828 37.2419 35.5952C37.2542 35.6076 37.2603 35.6014 37.2726 35.6076C37.2726 35.6076 37.2665 35.6076 37.2603 35.6201C37.2849 35.6076 37.2788 35.6512 37.3156 35.6574C37.2788 35.6574 37.2296 35.6076 37.2051 35.6014C37.2174 35.589 37.2296 35.6139 37.2419 35.6014C37.2481 35.589 37.2296 35.589 37.2419 35.5765L37.2481 35.5703Z" fill="white"/>
<path fill-rule="evenodd" clip-rule="evenodd" d="M37.0515 35.944C37.0577 35.9378 37.0638 35.944 37.0638 35.9502C37.0515 35.9564 37.027 35.9315 37.0515 35.9502V35.944Z" fill="white"/>
<path fill-rule="evenodd" clip-rule="evenodd" d="M37.2428 36.0143L37.2305 36.0268C37.2305 36.0268 37.2735 36.0454 37.2735 36.0641C37.249 36.0641 37.2305 36.0143 37.1998 36.033C37.1998 36.033 37.1998 36.0206 37.1937 36.0206C37.1384 36.0206 37.1139 35.9646 37.0586 35.9521C37.1016 35.921 37.1077 36.0081 37.1569 35.977C37.1753 35.9895 37.1998 36.0206 37.2428 36.0081V36.0143Z" fill="white"/>
<path fill-rule="evenodd" clip-rule="evenodd" d="M37.5312 35.5234C37.5312 35.5234 37.5435 35.5234 37.5558 35.5234C37.5558 35.5234 37.5312 35.5421 37.5312 35.5234Z" fill="white"/>
<path fill-rule="evenodd" clip-rule="evenodd" d="M33.1705 32.3501C33.1705 32.3501 33.1398 32.3501 33.1275 32.3439C33.1029 32.3252 33.0907 32.3003 33.06 32.2879C33.0354 32.2817 32.9985 32.2879 32.974 32.2754C32.9556 32.2692 32.9433 32.2754 32.931 32.2692C32.888 32.263 32.8634 32.2381 32.8266 32.2692C32.7897 32.2817 32.7468 32.2754 32.7099 32.2879H32.6976C32.6055 32.3128 32.5134 32.3936 32.4274 32.3936C32.409 32.4123 32.3844 32.4434 32.3537 32.462C32.3414 32.4745 32.323 32.4745 32.3169 32.4807C32.2739 32.518 32.2493 32.5864 32.2002 32.6051C32.194 32.6175 32.194 32.6237 32.1879 32.63C32.1265 32.7233 32.0896 32.8103 32.0344 32.8788C32.0221 32.9347 31.9914 32.9783 31.973 33.028C31.9668 33.0591 31.9668 33.0902 31.9607 33.1213C31.9607 33.1586 31.9545 33.1835 31.9423 33.2208C31.9238 33.2519 31.9361 33.2644 31.9238 33.2893C31.93 33.3204 31.9238 33.3515 31.9361 33.3826C31.9361 33.395 31.9361 33.4012 31.9238 33.4137C31.93 33.4883 31.93 33.5691 31.973 33.6189C31.973 33.6189 31.9852 33.6313 31.9914 33.6376C32.0282 33.6624 32.0835 33.706 32.0774 33.762C32.0774 33.7682 32.0896 33.762 32.0958 33.762C32.0896 33.7806 32.0896 33.8304 32.1081 33.8428C32.1142 33.8428 32.1388 33.8304 32.1572 33.8304C32.1818 33.8304 32.1818 33.8801 32.2002 33.8864C32.2125 33.8864 32.2309 33.8739 32.2432 33.8739C32.2739 33.8739 32.3107 33.9112 32.3292 33.9299C32.3414 33.9423 32.3292 33.9672 32.3476 33.9672C32.3599 33.9672 32.3783 33.9548 32.3967 33.9237C32.4643 33.8801 32.5072 33.9734 32.5687 33.9734C32.5871 34.017 32.6424 33.9983 32.6731 34.0232C32.6731 34.0232 32.6792 34.0418 32.6853 34.0418C32.6976 34.0481 32.716 34.0419 32.7345 34.0481C32.7652 34.0543 32.7836 34.0729 32.8082 34.0729C32.8143 34.1289 32.8634 34.0978 32.888 34.1165C32.8941 34.1227 32.9003 34.1414 32.9064 34.1476C32.9126 34.1476 32.931 34.1476 32.9371 34.1538C32.9494 34.16 32.9494 34.1787 32.9556 34.1849C32.9617 34.1849 32.974 34.1849 32.9801 34.1849C32.9863 34.1849 32.9801 34.2036 32.9924 34.2036C33.0047 34.2036 33.017 34.2036 33.0293 34.2036C33.0661 34.216 33.0845 34.2533 33.1337 34.2471C33.1705 34.3031 33.2381 34.2969 33.2872 34.3591C33.3056 34.3591 33.324 34.3591 33.3363 34.3839C33.3363 34.3839 33.3486 34.3715 33.3547 34.3839C33.3793 34.415 33.4346 34.4088 33.4591 34.4399C33.4591 34.4399 33.4653 34.4337 33.4714 34.4337C33.5083 34.4835 33.5635 34.5208 33.6127 34.5208C33.6311 34.5581 33.6741 34.5581 33.7109 34.5767C33.7294 34.5892 33.7355 34.6078 33.7539 34.6141C33.7908 34.6265 33.8215 34.6576 33.8522 34.6763C33.8645 34.6763 33.8767 34.6763 33.889 34.6763C33.9075 34.6825 33.9136 34.7011 33.9382 34.7074C34.0119 34.726 34.0733 34.7882 34.1285 34.8193C34.147 34.8318 34.1654 34.8255 34.1899 34.8318C34.2268 34.8442 34.2452 34.8877 34.2821 34.9002C34.2882 34.9002 34.3005 34.9002 34.3128 34.9002C34.3312 34.9064 34.3496 34.9251 34.368 34.9375C34.4172 34.9686 34.4786 34.9748 34.5154 35.0246C34.5891 35.037 34.669 35.0992 34.7365 35.1365C34.7672 35.1241 34.7672 35.1552 34.7857 35.1614C34.8409 35.1863 34.9146 35.1987 34.9576 35.2485C35.191 35.348 35.4059 35.5035 35.6454 35.603C35.6516 35.6279 35.6823 35.6341 35.7068 35.6341C35.7068 35.6465 35.713 35.6528 35.7191 35.659C35.7621 35.6528 35.7805 35.6901 35.8174 35.7087C35.8419 35.6901 35.8481 35.7212 35.8727 35.7087C35.8727 35.7274 35.8604 35.715 35.8604 35.7274C35.9095 35.6963 35.9709 35.7647 36.0078 35.7709V35.7647C36.0078 35.7834 36.0262 35.7647 36.0323 35.7647C36.0937 35.7958 36.1674 35.7834 36.2227 35.7958C36.2227 35.8083 36.2288 35.8331 36.2473 35.8207C36.2411 35.8145 36.2288 35.8083 36.2411 35.7896C36.2534 35.8083 36.278 35.8083 36.2964 35.802C36.3148 35.8145 36.321 35.8269 36.3455 35.8269C36.3455 35.8269 36.3517 35.802 36.364 35.8083C36.3824 35.8331 36.4069 35.8269 36.4254 35.8518C36.4438 35.8394 36.4745 35.8518 36.4745 35.8642C36.4868 35.8642 36.4745 35.8456 36.4868 35.8456C36.5113 35.8518 36.5359 35.858 36.5482 35.8829C36.5605 35.8829 36.5666 35.8705 36.5789 35.8705C36.585 35.8705 36.5666 35.8891 36.5789 35.8891C36.5912 35.8891 36.5789 35.8705 36.5912 35.858C36.6035 35.858 36.6096 35.8456 36.6219 35.8394C36.628 35.858 36.6526 35.8394 36.671 35.8456C36.6894 35.8456 36.7017 35.8642 36.7201 35.8705C36.7324 35.8705 36.7508 35.8642 36.7631 35.8705C36.7754 35.8767 36.7754 35.8953 36.7877 35.9016C36.7938 35.9016 36.7877 35.8829 36.8 35.8891C36.843 35.914 36.886 35.9327 36.9351 35.9264C36.8675 35.9264 36.8553 35.8705 36.8 35.8705C36.8 35.8518 36.7754 35.8705 36.7816 35.8394C36.7754 35.8456 36.7816 35.858 36.7693 35.8518C36.7693 35.8518 36.7693 35.8456 36.7631 35.8394C36.7816 35.8207 36.7754 35.8145 36.7754 35.802C36.7386 35.7834 36.7079 35.7709 36.6772 35.7523C36.671 35.7523 36.6772 35.7647 36.6649 35.7647C36.6526 35.7647 36.6464 35.7523 36.628 35.7461C36.628 35.7274 36.628 35.715 36.6464 35.6963C36.6894 35.7212 36.7631 35.7274 36.8123 35.7585C36.8307 35.7647 36.8307 35.7896 36.8553 35.7709C36.8307 35.7647 36.8307 35.7274 36.8123 35.715C36.7877 35.6963 36.7508 35.7025 36.7263 35.6839C36.7263 35.6839 36.7263 35.6714 36.714 35.6652C36.714 35.6652 36.6956 35.6652 36.6894 35.6652C36.6894 35.6652 36.6894 35.6528 36.6833 35.6528C36.671 35.6528 36.6587 35.6528 36.6464 35.6528C36.628 35.6403 36.6157 35.6155 36.5912 35.603C36.5912 35.5968 36.6035 35.5781 36.6096 35.5781C36.6342 35.5968 36.6403 35.5968 36.6649 35.6092C36.6649 35.6092 36.6649 35.603 36.6649 35.5968C36.671 35.5968 36.671 35.6092 36.6833 35.603C36.6649 35.5906 36.6833 35.5657 36.7017 35.5533C36.7447 35.5906 36.8123 35.6092 36.843 35.6465C36.8553 35.6465 36.8614 35.6341 36.8737 35.6341C36.9228 35.6528 36.9658 35.6901 37.0149 35.715C36.9781 35.659 36.9105 35.6341 36.843 35.6092C36.843 35.6092 36.8491 35.5968 36.843 35.5906C36.8123 35.5906 36.7816 35.5595 36.757 35.5533C36.757 35.5284 36.757 35.5097 36.757 35.4848C36.6833 35.46 36.6772 35.3604 36.6157 35.3231C36.6219 35.3107 36.6157 35.3045 36.6219 35.2982C36.6342 35.292 36.6464 35.2796 36.6526 35.2796C36.6649 35.2796 36.6772 35.2858 36.6833 35.2982C36.757 35.2982 36.8123 35.3667 36.8921 35.3915C36.9105 35.3791 36.9167 35.3604 36.9167 35.3418C36.8921 35.3107 36.8491 35.3169 36.8307 35.2734C36.8491 35.2236 36.8798 35.1987 36.9044 35.2112C36.9474 35.236 37.0211 35.2858 37.0456 35.3107C37.1869 35.3604 37.3036 35.4537 37.4448 35.5159C37.3773 35.46 37.2974 35.4413 37.2483 35.3853C37.2483 35.3915 37.236 35.3978 37.236 35.3915C37.1746 35.348 37.107 35.3045 37.0456 35.2858C37.0456 35.2423 36.9781 35.2485 36.9719 35.2049C37.0026 35.1676 37.0333 35.1552 37.0641 35.1614C37.0395 35.149 37.0272 35.1179 37.0026 35.1054C36.9842 35.093 36.9474 35.0868 36.9474 35.0743C36.9474 35.0743 36.9535 35.0619 36.9474 35.0619C36.9535 35.0619 36.9351 35.0619 36.9289 35.0619C36.9167 35.0619 36.9167 35.0619 36.9044 35.0619C36.8921 35.0495 36.8921 35.0495 36.8921 35.037C36.8491 34.9997 36.7938 34.981 36.7508 34.9437C36.7508 34.9437 36.7386 34.9313 36.7324 34.9313C36.7324 34.9313 36.7324 34.9188 36.7324 34.9126C36.7324 34.9126 36.7263 34.9188 36.7201 34.9126C36.7017 34.9002 36.6833 34.8815 36.6649 34.8691C36.6157 34.8442 36.5666 34.7944 36.5298 34.7758C36.5236 34.7696 36.542 34.7633 36.5298 34.7571C36.4684 34.7074 36.4069 34.6514 36.3394 34.6078C36.3394 34.6078 36.3517 34.5892 36.3394 34.5892C36.3332 34.583 36.321 34.6016 36.3148 34.5892C36.3148 34.583 36.3148 34.5705 36.3148 34.5581C36.2411 34.4897 36.149 34.4524 36.063 34.4088C35.9832 34.3653 35.9034 34.3155 35.8297 34.272C35.7682 34.2347 35.7068 34.216 35.6577 34.1725C35.5779 34.1414 35.5226 34.104 35.455 34.0605C35.4059 34.0294 35.3629 33.9921 35.3138 33.9734C35.3077 33.9734 35.2954 33.9734 35.2831 33.9734C35.2708 33.9672 35.2647 33.9423 35.2524 33.9361C35.2217 33.9175 35.1787 33.9112 35.148 33.8864C35.1111 33.8615 35.0804 33.8366 35.0436 33.8117C35.0252 33.7993 34.9945 33.7993 34.976 33.7868C34.9637 33.7806 34.9576 33.762 34.9392 33.7495C34.9023 33.7246 34.8532 33.7184 34.8164 33.6935C34.7734 33.6562 34.7304 33.6127 34.669 33.594C34.6198 33.5505 34.5584 33.507 34.497 33.4821C34.4724 33.4261 34.411 33.4261 34.368 33.3888C34.368 33.3888 34.368 33.3763 34.3619 33.3701C34.3066 33.3017 34.1961 33.2893 34.1531 33.2333C34.1163 33.2333 34.1163 33.2022 34.0978 33.1897C34.0794 33.1711 34.0487 33.1711 34.0303 33.1586C34.0241 33.1586 34.0241 33.14 34.018 33.14C33.9996 33.1213 33.9689 33.1213 33.9443 33.1089C33.9075 33.0902 33.889 33.0342 33.8338 33.028C33.8092 32.9969 33.7785 32.9472 33.7294 32.941C33.6864 32.8725 33.6065 32.8663 33.5513 32.8166C33.5328 32.7979 33.5267 32.7668 33.496 32.773C33.4898 32.7357 33.453 32.7357 33.4284 32.717C33.4039 32.6984 33.3854 32.6673 33.3609 32.6486C33.324 32.6175 33.2688 32.6051 33.2626 32.5429C33.3056 32.4496 33.1951 32.5553 33.1766 32.518C33.1766 32.4869 33.1889 32.4682 33.2012 32.4309C33.1951 32.4061 33.1766 32.4061 33.1582 32.4061C33.1459 32.3874 33.1582 32.3376 33.1398 32.3252L33.1705 32.3501ZM36.5543 35.8145V35.8207C36.5359 35.8331 36.542 35.802 36.5543 35.8145ZM36.5666 35.8145C36.5666 35.8145 36.6219 35.8269 36.628 35.8456C36.628 35.8456 36.6403 35.8207 36.6464 35.8207C36.6464 35.8331 36.6526 35.8456 36.6649 35.858C36.6464 35.8891 36.628 35.858 36.6096 35.8829C36.6035 35.8705 36.5973 35.8705 36.585 35.8829C36.5728 35.858 36.5543 35.8767 36.542 35.8518C36.5605 35.8394 36.542 35.8331 36.5605 35.8145H36.5666Z" fill="white"/>
<path fill-rule="evenodd" clip-rule="evenodd" d="M41.5332 44.9203C41.5332 44.9203 41.5455 44.9141 41.5578 44.9141C41.5578 44.9265 41.5393 44.9327 41.5332 44.9203Z" fill="white"/>
<path fill-rule="evenodd" clip-rule="evenodd" d="M41.9199 46.1645C41.9199 46.1645 41.9506 46.1459 41.9506 46.1645C41.9383 46.1645 41.9322 46.1645 41.9199 46.1645Z" fill="white"/>
<path fill-rule="evenodd" clip-rule="evenodd" d="M41.9629 46.1953C41.9629 46.1953 41.9813 46.1953 41.9936 46.1953C41.9936 46.2078 41.969 46.2078 41.9629 46.1953Z" fill="white"/>
<path fill-rule="evenodd" clip-rule="evenodd" d="M42.0801 46.0016C42.0801 46.0016 42.1046 45.9892 42.1108 46.0016C42.1108 46.0141 42.0924 46.0016 42.0801 46.0016Z" fill="white"/>
<path fill-rule="evenodd" clip-rule="evenodd" d="M42.1348 46.2038C42.1348 46.2038 42.1593 46.1914 42.1839 46.1914C42.1778 46.2038 42.1532 46.2038 42.1348 46.2038Z" fill="white"/>
<path fill-rule="evenodd" clip-rule="evenodd" d="M42.2832 45.227C42.2832 45.227 42.363 45.2084 42.3815 45.227C42.3508 45.2146 42.3139 45.2333 42.2832 45.227Z" fill="white"/>
<path fill-rule="evenodd" clip-rule="evenodd" d="M42.3574 45.657C42.3881 45.6321 42.4495 45.657 42.4925 45.6445C42.4925 45.6694 42.4311 45.6445 42.4188 45.6632C42.4066 45.6632 42.4004 45.6632 42.3943 45.6507C42.382 45.6507 42.3697 45.6694 42.3574 45.6507V45.657Z" fill="white"/>
<path fill-rule="evenodd" clip-rule="evenodd" d="M42.7503 45.7179C42.7503 45.7179 42.7503 45.6992 42.7626 45.6992C42.7626 45.6992 42.7626 45.7117 42.7626 45.7179H42.7441H42.7503Z" fill="white"/>
<path fill-rule="evenodd" clip-rule="evenodd" d="M42.9163 45.5669C42.9163 45.5669 43.0023 45.5482 43.033 45.5669C43.033 45.5669 43.033 45.5544 43.0453 45.5607C43.0637 45.5607 43.1067 45.5607 43.0637 45.5607C43.0084 45.5731 42.9716 45.5607 42.9102 45.5669H42.9163Z" fill="white"/>
<path fill-rule="evenodd" clip-rule="evenodd" d="M42.9395 45.7914C42.9395 45.7914 42.9579 45.7852 42.9702 45.7852C42.9702 45.7976 42.9456 45.7976 42.9395 45.7914Z" fill="white"/>
<path fill-rule="evenodd" clip-rule="evenodd" d="M42.9766 45.207C42.9766 45.207 43.0011 45.207 43.0134 45.207C43.0073 45.207 42.9827 45.2195 42.9766 45.207Z" fill="white"/>
<path fill-rule="evenodd" clip-rule="evenodd" d="M42.9707 45.7179C42.9707 45.7179 43.0075 45.7117 43.0198 45.6992C43.0321 45.7179 42.9891 45.7117 42.9707 45.7179Z" fill="white"/>
<path fill-rule="evenodd" clip-rule="evenodd" d="M42.9883 45.7781C42.9883 45.7781 43.019 45.7656 43.0374 45.7656C43.0251 45.7781 43.0006 45.7718 42.9883 45.7781Z" fill="white"/>
<path fill-rule="evenodd" clip-rule="evenodd" d="M43.0195 45.1007C43.0195 45.1007 43.038 45.0883 43.0502 45.082C43.0502 45.0945 43.0318 45.0945 43.0195 45.1007Z" fill="white"/>
<path fill-rule="evenodd" clip-rule="evenodd" d="M43.0391 45.2054C43.0391 45.2054 43.1005 45.1992 43.125 45.1992C43.0943 45.2117 43.0698 45.2117 43.0391 45.2054Z" fill="white"/>
<path fill-rule="evenodd" clip-rule="evenodd" d="M43.0508 45.7653C43.0508 45.7653 43.1061 45.7653 43.1245 45.7653C43.1061 45.7777 43.0753 45.7529 43.0508 45.7653Z" fill="white"/>
<path fill-rule="evenodd" clip-rule="evenodd" d="M43.1055 45.5554C43.1055 45.5554 43.13 45.5492 43.1423 45.543C43.1423 45.5616 43.1239 45.5554 43.1055 45.5554Z" fill="white"/>
<path fill-rule="evenodd" clip-rule="evenodd" d="M43.1426 45.6055C43.1426 45.6055 43.161 45.6055 43.1794 45.6055C43.1794 45.6179 43.1549 45.6055 43.1426 45.6055Z" fill="white"/>
<path fill-rule="evenodd" clip-rule="evenodd" d="M43.1797 45.6594C43.1797 45.6594 43.2165 45.6469 43.2104 45.6718C43.2043 45.6718 43.2043 45.6656 43.2043 45.6594C43.192 45.6594 43.192 45.6656 43.1858 45.6594H43.1797Z" fill="white"/>
<path fill-rule="evenodd" clip-rule="evenodd" d="M43.3145 45.1512C43.3145 45.1512 43.3513 45.145 43.3697 45.1512C43.3574 45.1512 43.3206 45.1574 43.3145 45.1512Z" fill="white"/>
<path fill-rule="evenodd" clip-rule="evenodd" d="M43.3262 45.1266C43.3262 45.1266 43.3569 45.1142 43.3446 45.1266H43.3262Z" fill="white"/>
<path fill-rule="evenodd" clip-rule="evenodd" d="M43.3691 44.8908C43.3691 44.8908 43.3876 44.8783 43.3998 44.8846C43.3998 44.897 43.3753 44.897 43.3691 44.8908Z" fill="white"/>
<path fill-rule="evenodd" clip-rule="evenodd" d="M43.4863 44.9067C43.5232 44.8881 43.5355 44.9067 43.4863 44.9067V44.9067Z" fill="white"/>
<path fill-rule="evenodd" clip-rule="evenodd" d="M42.5293 44.9015C42.5293 44.9015 42.5477 44.8953 42.5539 44.8828C42.5661 44.9015 42.5907 44.8828 42.6091 44.8953C42.5846 44.9139 42.5661 44.8953 42.5354 44.9015H42.5293Z" fill="white"/>
<path fill-rule="evenodd" clip-rule="evenodd" d="M43.007 45.2875C43.007 45.2875 43.0131 45.2937 43.0254 45.2875C43.0254 45.2937 43.0254 45.2937 43.0254 45.2999C43.0438 45.2999 43.0561 45.2999 43.0745 45.2999C43.0745 45.2999 43.0745 45.3061 43.0745 45.3124C43.0991 45.2875 43.1237 45.3248 43.1789 45.3124C43.1298 45.3372 43.0254 45.3186 42.9824 45.3248C42.9886 45.3061 43.0254 45.3248 43.0316 45.3061C43.0316 45.2937 43.007 45.3061 43.0131 45.2812L43.007 45.2875Z" fill="white"/>
<path fill-rule="evenodd" clip-rule="evenodd" d="M43.0504 45.7126C43.0504 45.7001 43.0689 45.7126 43.0689 45.7126C43.0689 45.725 43.0074 45.7126 43.0504 45.7126Z" fill="white"/>
<path fill-rule="evenodd" clip-rule="evenodd" d="M43.3629 45.6602V45.6788C43.3629 45.6788 43.4304 45.6788 43.4488 45.6913C43.4181 45.7037 43.3506 45.6726 43.326 45.7037C43.326 45.7037 43.3076 45.7037 43.3076 45.6913C43.2339 45.7224 43.1541 45.6913 43.0742 45.7099C43.1111 45.6602 43.1909 45.7286 43.2277 45.6788C43.2646 45.6788 43.326 45.6913 43.369 45.6602H43.3629Z" fill="white"/>
<path fill-rule="evenodd" clip-rule="evenodd" d="M43.3398 45.089C43.3398 45.089 43.3583 45.0765 43.3644 45.0703C43.3644 45.0703 43.346 45.1014 43.3398 45.089Z" fill="white"/>
<path fill-rule="evenodd" clip-rule="evenodd" d="M42.4426 46.5942C42.4426 46.5942 42.4856 46.5756 42.504 46.5756C42.5532 46.5756 42.59 46.5942 42.6391 46.5818C42.6821 46.5756 42.719 46.5507 42.762 46.5445C42.7927 46.5445 42.805 46.532 42.8234 46.5258C42.8848 46.5072 42.9401 46.5196 42.9646 46.4698C43.0076 46.4387 43.0629 46.4201 43.0997 46.3952H43.1182C43.2164 46.3268 43.2778 46.2086 43.3945 46.1589C43.4068 46.134 43.4129 46.0967 43.4314 46.0593C43.4375 46.0469 43.4621 46.0345 43.4682 46.022C43.4928 45.966 43.4682 45.8976 43.5173 45.8541C43.5173 45.8416 43.5173 45.8354 43.5112 45.8292C43.5112 45.7172 43.4928 45.624 43.5112 45.5369C43.4805 45.4871 43.4866 45.4249 43.4621 45.3814C43.4498 45.3503 43.4191 45.3254 43.4007 45.2943C43.3822 45.2632 43.3577 45.2383 43.3392 45.201C43.3392 45.1699 43.3147 45.1637 43.3085 45.1326C43.2778 45.1139 43.2533 45.0828 43.2164 45.0642C43.2164 45.0517 43.2041 45.0455 43.2041 45.0331C43.1366 44.9771 43.0629 44.9025 42.9646 44.8838C42.9585 44.8838 42.9401 44.8838 42.9278 44.8838C42.8541 44.8838 42.7435 44.8714 42.7067 44.8278C42.6944 44.8278 42.6944 44.834 42.6821 44.8278C42.676 44.8092 42.633 44.7656 42.6023 44.7656C42.59 44.7656 42.5716 44.7967 42.547 44.8029C42.5102 44.8092 42.4733 44.7718 42.4426 44.7781C42.4303 44.7781 42.4119 44.8092 42.3935 44.8154C42.3505 44.8278 42.2645 44.8154 42.2338 44.8154C42.2031 44.8092 42.197 44.7843 42.1724 44.7905C42.154 44.7905 42.1417 44.8154 42.1417 44.8527C42.0864 44.9273 41.9452 44.8714 41.8653 44.9025C41.8039 44.8776 41.7425 44.9211 41.6872 44.9149C41.675 44.9149 41.6627 44.9025 41.6504 44.9025C41.632 44.9025 41.6013 44.9149 41.5767 44.9211C41.5337 44.9273 41.4907 44.9273 41.46 44.9398C41.4048 44.8962 41.3618 44.946 41.3126 44.9398C41.2942 44.9398 41.2758 44.9273 41.2574 44.9273C41.2389 44.9273 41.2267 44.9398 41.2082 44.9398C41.1898 44.9398 41.1714 44.9273 41.153 44.9273C41.1407 44.9273 41.1284 44.9336 41.1161 44.9336C41.1038 44.9336 41.0915 44.9211 41.0793 44.9211C41.0608 44.9211 41.0486 44.9398 41.0301 44.9398C40.9749 44.946 40.9073 44.9273 40.8582 44.9647C40.7599 44.9336 40.6739 44.9833 40.5573 44.9522C40.5266 44.9584 40.5081 44.9709 40.4774 44.9584C40.4713 44.9584 40.4713 44.9709 40.459 44.9709C40.3976 44.9584 40.3362 44.9958 40.2748 44.9771C40.2748 44.9771 40.2748 44.9895 40.2686 44.9895C40.1826 44.9709 40.0721 44.9647 40.0045 44.9895C39.9493 44.9647 39.8879 44.9895 39.8264 44.9895C39.7957 44.9895 39.765 44.9771 39.7343 44.9833C39.6791 44.9958 39.6054 44.9833 39.5501 44.9833C39.5317 44.9833 39.5194 44.9958 39.501 45.002C39.4703 45.002 39.4396 44.9958 39.4088 45.002C39.2922 45.0269 39.1571 45.0082 39.0588 45.0082C39.0281 45.0082 38.9974 45.0206 38.9667 45.0269C38.9053 45.0331 38.85 45.0144 38.7886 45.0144C38.7763 45.0144 38.7579 45.0269 38.7456 45.0269C38.7272 45.0269 38.7087 45.0269 38.6903 45.0269H38.6658H38.6535C38.6473 44.3054 38.6473 47.0421 38.6535 46.3206C38.7456 46.3206 38.8377 46.2957 38.9237 46.3206C39.0342 46.2895 39.1939 46.3019 39.3167 46.2957C39.3474 46.2708 39.372 46.2957 39.4027 46.2895C39.4948 46.277 39.6115 46.2521 39.7036 46.2708C40.1028 46.2273 40.5204 46.2459 40.9196 46.1962C40.9503 46.2148 40.9994 46.2024 41.024 46.1962C41.024 46.2086 41.0486 46.2086 41.0608 46.2086C41.11 46.1775 41.1714 46.2086 41.2328 46.1962C41.2512 46.1651 41.2881 46.19 41.3126 46.1651C41.3249 46.1837 41.3003 46.1775 41.3126 46.19C41.3556 46.1402 41.4907 46.1589 41.5521 46.1464V46.1402C41.5644 46.1526 41.5767 46.1278 41.589 46.1278C41.6995 46.1278 41.7794 46.0718 41.8776 46.0531C41.8899 46.0593 41.9206 46.0842 41.9329 46.0656C41.9145 46.0656 41.8961 46.0656 41.8961 46.0407C41.9268 46.0469 41.9636 46.0407 41.982 46.022C42.0189 46.022 42.0373 46.0345 42.068 46.0158C42.0741 46.0158 42.0619 45.9909 42.0741 45.9909C42.1233 46.0034 42.1478 45.9847 42.1908 45.9909C42.2031 45.9723 42.2584 45.966 42.2707 45.9723C42.2829 45.966 42.2522 45.9536 42.2707 45.9474C42.3137 45.9412 42.3505 45.9349 42.3874 45.9474C42.3996 45.9349 42.3996 45.9225 42.4181 45.9225C42.4303 45.9225 42.4181 45.9412 42.4303 45.9349C42.4426 45.9225 42.4181 45.9163 42.4242 45.8976C42.4426 45.8914 42.4426 45.879 42.4488 45.8665C42.4795 45.879 42.4979 45.8541 42.5225 45.8479C42.547 45.8416 42.5777 45.8479 42.6023 45.8416C42.6269 45.8416 42.633 45.823 42.6576 45.823C42.676 45.823 42.6944 45.8416 42.719 45.8354C42.7313 45.8354 42.7128 45.8168 42.7251 45.8168C42.805 45.8168 42.8787 45.8043 42.9401 45.7794C42.8541 45.8168 42.7865 45.7794 42.7128 45.8105C42.7006 45.7919 42.676 45.823 42.6637 45.7981C42.6637 45.8105 42.676 45.8168 42.6637 45.8168C42.6637 45.8168 42.6576 45.8105 42.6453 45.8168C42.6576 45.7919 42.6453 45.7919 42.633 45.7732C42.59 45.7732 42.4979 45.7857 42.461 45.7857C42.4488 45.7857 42.4672 45.7981 42.461 45.8043C42.4365 45.8043 42.4242 45.8043 42.3996 45.8105C42.3935 45.7919 42.3751 45.7857 42.3812 45.7608C42.461 45.7608 42.5654 45.7297 42.6514 45.7235C42.6821 45.7235 42.7067 45.7421 42.7251 45.711C42.6821 45.7172 42.6514 45.6861 42.6146 45.6861C42.5654 45.6861 42.5163 45.711 42.4733 45.7048C42.461 45.7048 42.4549 45.6924 42.4426 45.6924C42.4365 45.6924 42.4181 45.7048 42.4058 45.7048C42.3935 45.7048 42.3935 45.6924 42.3874 45.6924C42.3689 45.6924 42.3505 45.711 42.3321 45.711C42.2952 45.711 42.2584 45.6924 42.2215 45.6986C42.2154 45.6924 42.2215 45.6737 42.2215 45.6675C42.2707 45.6675 42.2707 45.6675 42.3259 45.6675C42.3259 45.6675 42.3198 45.6675 42.3198 45.6551C42.3321 45.6551 42.3382 45.6613 42.3505 45.6551C42.3137 45.6551 42.3198 45.624 42.3321 45.6053C42.4181 45.6053 42.5286 45.5929 42.6023 45.6053C42.6084 45.5929 42.6146 45.5804 42.6269 45.5804C42.7067 45.568 42.7988 45.5804 42.8848 45.568C42.7865 45.5431 42.6821 45.5555 42.5654 45.568C42.5654 45.568 42.5654 45.5493 42.5532 45.5555C42.504 45.568 42.4488 45.568 42.4058 45.568L42.3566 45.5058C42.2338 45.5244 42.1478 45.4436 42.0312 45.4436C42.0312 45.4311 42.025 45.4249 42.0189 45.4187C42.0312 45.4063 42.0373 45.3938 42.0434 45.3814C42.0619 45.3814 42.0803 45.3752 42.0987 45.3814C42.197 45.3441 42.3321 45.3689 42.4549 45.3441C42.4672 45.3192 42.4549 45.3067 42.4488 45.2881C42.3874 45.2756 42.3382 45.3067 42.2768 45.2756C42.2522 45.2259 42.2768 45.1886 42.3259 45.1823C42.4058 45.1823 42.5409 45.1823 42.5962 45.1886C42.8295 45.1575 43.0629 45.1699 43.2963 45.145C43.1611 45.1326 43.0383 45.1637 42.9216 45.145C42.9216 45.1575 42.9216 45.1575 42.9094 45.1575C42.7927 45.1575 42.6637 45.1575 42.5593 45.1699C42.5163 45.1388 42.4365 45.1699 42.3874 45.145C42.3996 45.0953 42.4365 45.0704 42.4795 45.058C42.4365 45.058 42.3935 45.0455 42.3505 45.0393C42.3198 45.0393 42.2645 45.0517 42.2461 45.0393V45.0269C42.2584 45.0269 42.2215 45.0269 42.2215 45.0269C42.2031 45.0269 42.2093 45.0393 42.1847 45.0331C42.1601 45.0331 42.1601 45.0331 42.1417 45.0206C42.0496 45.0144 41.9636 45.0269 41.8715 45.0206C41.8531 45.0206 41.8531 45.0206 41.8408 45.0206C41.8346 45.0206 41.8408 45.0082 41.8285 45.0082C41.8224 45.0082 41.8285 45.0206 41.8162 45.0144C41.7794 45.0144 41.7425 45.0082 41.7057 45.0082C41.6136 45.0082 41.5153 45.0082 41.4416 45.002C41.4232 45.002 41.4416 44.9833 41.4232 44.9833C41.3003 44.9709 41.1714 44.9647 41.0363 44.9584C41.024 44.9584 41.0363 44.9398 41.0179 44.9398C40.9994 44.9398 41.0056 44.9584 40.9871 44.9584C40.9749 44.9584 40.9687 44.946 40.9626 44.9336C40.809 44.9149 40.6555 44.9336 40.502 44.9398C40.33 44.9398 40.2133 44.946 40.0721 44.9522C39.9616 44.9522 39.8572 44.9771 39.7589 44.9584C39.6299 44.9709 39.5132 44.9709 39.3904 44.9771C39.3044 44.9771 39.2062 44.9709 39.1325 44.9771C39.1202 44.9771 39.1018 44.9895 39.0895 44.9895C39.0649 44.9895 39.0465 44.9771 39.0219 44.9771C38.9605 44.9771 38.8991 44.9958 38.8377 44.9958C38.7763 44.9958 38.7026 44.9958 38.635 44.9958H38.6289V46.3703H38.635C38.635 46.3703 38.6412 46.3703 38.6473 46.3703C38.6535 46.3703 38.6658 46.3703 38.678 46.3703C38.6965 46.3703 38.7149 46.3641 38.7333 46.3641C38.7579 46.3641 38.7824 46.3765 38.807 46.3765C38.8807 46.3765 38.9544 46.3579 39.0219 46.3579C39.1141 46.3579 39.2062 46.3828 39.2983 46.3579C39.4027 46.3703 39.5255 46.3703 39.6238 46.3579C39.7036 46.3952 39.7835 46.3579 39.8756 46.3641C39.8879 46.3641 39.894 46.3703 39.9001 46.3765C40.0353 46.4014 40.1826 46.3579 40.2932 46.3765C40.3362 46.3517 40.3669 46.3765 40.4099 46.3828C40.4529 46.3828 40.4897 46.3703 40.5266 46.3703C40.5388 46.3703 40.5511 46.3765 40.5634 46.3828C40.6064 46.3828 40.6432 46.3703 40.6862 46.3703C40.7538 46.3703 40.8213 46.4076 40.9012 46.3828C40.9626 46.4014 41.0486 46.4201 41.1161 46.3952C41.2267 46.4263 41.3433 46.3952 41.46 46.4076C41.4969 46.4076 41.5337 46.4387 41.5767 46.4139C41.6197 46.4387 41.6688 46.4263 41.718 46.4263C41.7671 46.4263 41.8162 46.445 41.8715 46.4512C41.9452 46.4574 42.0373 46.4387 42.0926 46.4885C42.1171 46.588 42.1663 46.4387 42.2277 46.4636C42.2584 46.4823 42.2522 46.5134 42.2707 46.5507C42.3014 46.5631 42.3259 46.5507 42.3505 46.5507C42.3812 46.5631 42.4058 46.6067 42.4488 46.6067L42.4426 46.5942ZM42.2768 45.8603V45.8665C42.2707 45.8852 42.2461 45.8541 42.2768 45.8603ZM42.2829 45.8541C42.3198 45.8541 42.3689 45.8292 42.3935 45.8541C42.3996 45.8541 42.3873 45.8292 42.3935 45.823C42.4058 45.8354 42.4242 45.8416 42.4549 45.8416C42.4549 45.879 42.4058 45.8541 42.4058 45.8914C42.3874 45.8914 42.3751 45.8914 42.3689 45.9038C42.3259 45.8914 42.3198 45.9163 42.2891 45.9038C42.2952 45.8852 42.2891 45.8852 42.2891 45.8665L42.2829 45.8541Z" fill="white"/>
</g>
<defs>
<clipPath id="clip0_868_20771">
<rect width="24" height="45" fill="white" transform="translate(23 12)"/>
</clipPath>
</defs>
</svg>
