<svg width="70" height="70" viewBox="0 0 70 70" fill="none" xmlns="http://www.w3.org/2000/svg">
<g clip-path="url(#clip0_868_19881)">
<path fill-rule="evenodd" clip-rule="evenodd" d="M24.6074 50.9776C24.6814 50.9727 24.8046 50.9727 24.9525 50.9727C24.918 50.9826 24.7258 50.9875 24.6074 50.9776Z" fill="white"/>
<path fill-rule="evenodd" clip-rule="evenodd" d="M29.8281 51.9676C29.9317 51.9676 30.262 51.9527 30.2275 51.9676C30.0451 51.9676 29.9612 51.9676 29.8281 51.9676Z" fill="white"/>
<path fill-rule="evenodd" clip-rule="evenodd" d="M30.3906 51.9927C30.4202 51.9828 30.6717 51.9927 30.79 51.9927C30.7851 52.0026 30.4646 52.0026 30.3906 51.9927Z" fill="white"/>
<path fill-rule="evenodd" clip-rule="evenodd" d="M31.9922 51.8378C32.076 51.8328 32.2929 51.8278 32.3916 51.8378C32.362 51.8477 32.1105 51.8378 31.9922 51.8378Z" fill="white"/>
<path fill-rule="evenodd" clip-rule="evenodd" d="M32.7266 51.9982C32.8646 51.9883 33.0963 51.9883 33.4168 51.9883C33.3034 51.9982 32.9731 51.9982 32.7266 51.9982Z" fill="white"/>
<path fill-rule="evenodd" clip-rule="evenodd" d="M34.7148 51.2176C35.0649 51.2176 35.7798 51.2027 36.0263 51.2176C35.5727 51.2176 35.1339 51.2176 34.7148 51.2176Z" fill="white"/>
<path fill-rule="evenodd" clip-rule="evenodd" d="M35.6504 51.5607C36.0843 51.5409 36.8682 51.5607 37.4253 51.5508C37.5042 51.5706 36.6069 51.5508 36.4491 51.5657C36.3209 51.5657 36.2174 51.5607 36.1089 51.5557C35.9561 51.5557 35.8131 51.5706 35.6504 51.5557V51.5607Z" fill="white"/>
<path fill-rule="evenodd" clip-rule="evenodd" d="M40.9902 51.6125C40.9902 51.6125 41.0198 51.5977 41.1677 51.5977C41.2121 51.5977 41.2269 51.6076 41.217 51.6125H40.9902Z" fill="white"/>
<path fill-rule="evenodd" clip-rule="evenodd" d="M43.2139 51.4916C43.564 51.4767 44.3726 51.4767 44.8114 51.4916C44.8705 51.4916 44.8755 51.4817 44.9839 51.4867C45.2502 51.4867 45.8418 51.4867 45.265 51.4867C44.5303 51.4867 43.9978 51.4867 43.209 51.4916H43.2139Z" fill="white"/>
<path fill-rule="evenodd" clip-rule="evenodd" d="M43.4805 51.669C43.5643 51.6641 43.7073 51.6641 43.8848 51.6641C43.8404 51.674 43.5495 51.674 43.4805 51.669Z" fill="white"/>
<path fill-rule="evenodd" clip-rule="evenodd" d="M44.0234 51.2036C44.0875 51.1937 44.3834 51.2036 44.5362 51.2036C44.4228 51.2036 44.1467 51.2136 44.0234 51.2036Z" fill="white"/>
<path fill-rule="evenodd" clip-rule="evenodd" d="M43.9043 51.6125C44.0966 51.6125 44.3431 51.6026 44.5354 51.5977C44.6932 51.6125 44.1212 51.6076 43.9043 51.6125Z" fill="white"/>
<path fill-rule="evenodd" clip-rule="evenodd" d="M44.166 51.6623C44.2794 51.6523 44.6098 51.6523 44.8563 51.6523C44.7084 51.6623 44.3879 51.6573 44.166 51.6623Z" fill="white"/>
<path fill-rule="evenodd" clip-rule="evenodd" d="M44.5703 51.1204C44.5703 51.1204 44.8168 51.1104 44.9746 51.1055C44.9401 51.1154 44.7084 51.1154 44.5703 51.1204Z" fill="white"/>
<path fill-rule="evenodd" clip-rule="evenodd" d="M44.8223 51.2054C45.0096 51.1955 45.6506 51.2005 45.9661 51.2005C45.5668 51.2104 45.2611 51.2104 44.8223 51.2054Z" fill="white"/>
<path fill-rule="evenodd" clip-rule="evenodd" d="M44.9688 51.6511C45.2646 51.6363 45.6935 51.6511 45.94 51.6511C45.6344 51.6511 45.3089 51.6511 44.9688 51.6511Z" fill="white"/>
<path fill-rule="evenodd" clip-rule="evenodd" d="M45.7227 51.4865C45.8607 51.4865 46.0283 51.4815 46.1812 51.4766C46.2108 51.4915 45.9149 51.4865 45.7227 51.4865Z" fill="white"/>
<path fill-rule="evenodd" clip-rule="evenodd" d="M46.2207 51.52C46.3538 51.5101 46.4771 51.52 46.6792 51.52C46.6349 51.53 46.3588 51.52 46.2207 51.52Z" fill="white"/>
<path fill-rule="evenodd" clip-rule="evenodd" d="M46.7188 51.5651C46.7828 51.5552 47.2118 51.5552 47.1132 51.575C46.9899 51.575 47.0047 51.5701 47.0047 51.5651C46.8716 51.5651 46.8765 51.5651 46.7188 51.5651Z" fill="white"/>
<path fill-rule="evenodd" clip-rule="evenodd" d="M47.9169 51.2954C47.1527 51.2855 47.6359 51.3103 47.9169 51.2954V51.2954Z" fill="white"/>
<path fill-rule="evenodd" clip-rule="evenodd" d="M48.543 51.16C48.7796 51.155 49.0114 51.155 49.2875 51.16C49.1001 51.16 48.6712 51.16 48.543 51.16Z" fill="white"/>
<path fill-rule="evenodd" clip-rule="evenodd" d="M48.7271 51.1403C48.6433 51.1303 49.1018 51.1303 49.013 51.1403H48.7271Z" fill="white"/>
<path fill-rule="evenodd" clip-rule="evenodd" d="M49.2637 50.9523C49.3426 50.9474 49.525 50.9424 49.668 50.9474C49.6285 50.9573 49.3327 50.9573 49.2637 50.9523Z" fill="white"/>
<path fill-rule="evenodd" clip-rule="evenodd" d="M50.8516 50.9715C51.3249 50.9566 51.4925 50.9715 50.8516 50.9715V50.9715Z" fill="white"/>
<path fill-rule="evenodd" clip-rule="evenodd" d="M38.0176 50.9602C38.1113 50.9602 38.2444 50.9552 38.3085 50.9453C38.486 50.9602 38.8064 50.9453 39.048 50.9552C38.7571 50.9701 38.4416 50.9552 38.0176 50.9602Z" fill="white"/>
<path fill-rule="evenodd" clip-rule="evenodd" d="M44.3927 51.2706C44.5258 51.2706 44.5209 51.2706 44.6737 51.2706C44.6885 51.2756 44.6195 51.2755 44.6145 51.2805C44.9005 51.2805 45.0583 51.2805 45.2999 51.2805C45.2703 51.2805 45.2358 51.2855 45.2358 51.2904C45.5562 51.2706 45.931 51.3004 46.6064 51.2904C45.9655 51.3103 44.5406 51.2954 43.9785 51.3004C44.0623 51.2855 44.5554 51.3004 44.6145 51.2855C44.6293 51.2756 44.299 51.2855 44.3927 51.2656V51.2706Z" fill="white"/>
<path fill-rule="evenodd" clip-rule="evenodd" d="M44.9888 51.606C45.0234 51.606 45.0529 51.606 44.9888 51.606C45.0086 51.596 45.2403 51.606 45.2748 51.606C45.2058 51.6159 44.4514 51.606 44.9888 51.606Z" fill="white"/>
<path fill-rule="evenodd" clip-rule="evenodd" d="M49.2299 51.5664V51.5813C49.5898 51.5813 50.1716 51.5813 50.4181 51.5912C49.9843 51.6011 49.0722 51.5763 48.7615 51.6011C48.6728 51.6011 48.5693 51.5962 48.4805 51.5912C47.4747 51.616 46.3851 51.5912 45.3398 51.6061C45.8082 51.5664 46.8732 51.621 47.4057 51.5813C47.4944 51.5813 47.4057 51.5813 47.3465 51.5813C47.81 51.5813 48.6383 51.5912 49.2349 51.5664H49.2299Z" fill="white"/>
<path fill-rule="evenodd" clip-rule="evenodd" d="M48.8535 51.1086C48.9669 51.1086 49.0852 51.0987 49.2036 51.0938C49.2578 51.0938 48.9718 51.1186 48.8535 51.1086Z" fill="white"/>
<path fill-rule="evenodd" clip-rule="evenodd" d="M50.5505 37.0255C50.5505 37.2736 50.5603 37.5764 50.5653 37.8344C50.5653 38.4647 50.5653 39.0255 50.5603 39.6707C50.5702 40.2166 50.58 40.7823 50.5899 41.3481C50.5948 41.7699 50.5998 41.9238 50.6047 42.2166C50.6195 43.0652 50.6096 43.765 50.6491 44.1322C50.6688 44.7625 50.6934 45.4324 50.7082 45.9982C50.7082 46.0975 50.7082 46.2463 50.7082 46.286C50.7625 47.6111 50.8562 48.425 50.8956 49.9833C50.9153 50.1173 50.9449 50.2116 50.9745 50.4746C50.9843 50.5937 50.9942 50.8617 51.0041 50.9461C51.0484 51.2637 51.1027 50.9858 51.1372 51.5764C51.147 51.6111 51.152 51.5019 51.1569 51.4721C51.2457 51.487 51.3196 51.2538 51.3886 51.3977C51.4281 50.9908 51.4774 51.0801 51.5119 50.7625C51.5365 50.564 51.5563 50.1818 51.5809 49.9287C51.6056 49.6359 51.6302 49.3828 51.6549 49.0999C51.6795 49.0999 51.6845 48.7377 51.7091 48.6632C51.7288 48.2414 51.7436 47.8444 51.7633 47.4225C51.7732 47.3779 51.7781 47.2687 51.788 47.2588C51.8324 46.3059 51.8915 45.3431 51.9063 44.0379C51.9063 43.9188 51.9063 43.6657 51.9063 43.5218C51.9063 42.554 51.9162 41.0602 51.9507 40.554C51.9507 40.3803 51.9507 40.3803 51.9507 40.2066C51.9655 40.0975 52 39.5813 52 39.1347C52 39.0057 51.9852 38.6682 51.9704 38.3754C51.9655 37.8741 51.9951 37.3977 51.9901 36.9461C51.9852 36.7774 51.9704 36.4895 51.9606 36.3009C51.9507 35.7352 51.9606 34.5937 51.9606 34.1223C51.9655 33.7501 51.9852 33.6111 51.9803 33.3282C51.9803 33.0751 51.9606 32.8816 51.931 32.9064C51.8718 32.1719 51.9162 30.286 51.8915 29.1545C51.9113 28.3258 51.8767 27.5317 51.8817 26.7377C51.8817 26.5838 51.8866 26.3803 51.8915 26.2265C51.8915 25.9635 51.8817 25.5863 51.8767 25.2439C51.8718 24.6434 51.8669 24.1372 51.8619 23.631C51.8965 22.8717 51.857 22.3158 51.8619 21.6756C51.8619 21.4473 51.8718 21.1893 51.8718 20.9362C51.8718 20.7178 51.8669 20.4846 51.8619 20.2414C51.8619 20.0032 51.8718 19.7302 51.8718 19.5019C51.8718 19.2439 51.8718 19.0156 51.8669 18.8022C51.8669 18.5094 51.8718 18.2761 51.8767 17.9883C51.8373 17.9883 51.7979 17.9883 51.7486 17.9883C51.3936 17.9932 50.9449 17.9982 50.585 18.0032C49.7715 18.0081 48.9579 17.9932 48.2233 18.023C46.8576 18.023 45.7828 18.0181 44.1755 18.0131C43.786 18.0181 43.5 18.023 43.0908 18.0181C43.002 18.0181 43.002 18.028 42.859 18.028C42.0307 18.028 41.2074 18.028 40.3445 18.0329C40.315 18.0329 40.2805 18.0429 40.2262 18.0429C39.0676 18.028 37.5983 18.023 36.6911 18.0429C35.9861 18.023 35.1627 18.0429 34.295 18.0429C33.8857 18.0429 33.4864 18.0429 33.1018 18.0379C32.3425 18.0379 31.3712 18.0379 30.6465 18.0379C30.4443 18.0379 30.2126 18.0478 30.0104 18.0528C29.6259 18.0528 29.2265 18.0528 28.8124 18.0528C27.2445 18.0726 25.4449 18.0578 24.0742 18.0578C23.6601 18.0627 23.2805 18.0677 22.8121 18.0726C22.0183 18.0726 21.2097 18.0677 20.4208 18.0627C20.2285 18.0627 20.0215 18.0677 19.844 18.0726C19.2277 18.0726 18.641 18.0726 18 18.0726C18 18.1223 18 18.1769 18 18.2315C18 18.9957 18.0049 19.765 18.0099 20.5193C18.0099 21.1248 18.0099 21.7104 18.0099 22.3009C18.0345 23.7798 18.0247 25.9337 18.0296 27.6508C18.0493 28.0379 18.0296 28.4052 18.0345 28.8022C18.0444 30.028 18.0641 31.6012 18.0493 32.8865C18.069 38.3109 18.0887 43.899 18.1085 49.2786C18.0937 49.6955 18.1035 50.3456 18.1085 50.7178C18.0986 50.7476 18.0986 51.1645 18.0986 51.4573C18.0986 51.6359 18.1035 51.8096 18.1085 51.9833C18.853 51.9833 19.6763 51.9833 20.5244 51.9833C20.7364 51.9585 21.2442 51.9784 21.5597 51.9585C21.6929 51.9734 21.3773 51.9684 21.609 51.9784C22.1514 51.9387 23.9954 51.9535 24.8187 51.9436C24.7596 51.9436 24.7497 51.9387 24.8187 51.9387C25.016 51.9486 25.1146 51.9287 25.3364 51.9287C26.8353 51.9287 27.9052 51.8841 29.1871 51.8692C29.3498 51.8741 29.7787 51.894 29.9266 51.8791C29.6949 51.8791 29.404 51.8791 29.4237 51.8592C29.8083 51.8642 30.3161 51.8592 30.5725 51.8444C31.0458 51.8444 31.2923 51.8543 31.7164 51.8394C31.8199 51.8394 31.6128 51.8195 31.8396 51.8195C32.52 51.8195 32.8257 51.8195 33.4371 51.8195C33.6096 51.8047 34.3097 51.7997 34.5267 51.8047C34.719 51.7997 34.3147 51.7898 34.4774 51.7848C35.0197 51.7798 35.5226 51.7749 36.0206 51.7848C36.1439 51.7749 36.2277 51.765 36.4298 51.765C36.5679 51.765 36.3904 51.7798 36.5974 51.7749C36.7897 51.765 36.4495 51.76 36.4939 51.7451C36.7651 51.7401 36.7108 51.7302 36.8489 51.7203C37.2236 51.7302 37.4849 51.7104 37.8251 51.7054C38.19 51.7054 38.5597 51.7054 38.9098 51.7004C39.2007 51.7004 39.3289 51.6856 39.6592 51.6856C39.9205 51.6856 40.1621 51.6955 40.453 51.6955C40.6108 51.6955 40.3495 51.6806 40.5713 51.6806C41.6166 51.6806 42.6668 51.6707 43.4359 51.6508C42.2477 51.6806 41.3849 51.6508 40.3445 51.6756C40.1868 51.6607 39.8762 51.6856 39.7233 51.6657C39.6543 51.6756 39.891 51.6806 39.6592 51.6806C39.5853 51.6806 39.5458 51.6806 39.4324 51.6806C39.5803 51.6607 39.3585 51.6607 39.2747 51.6459C38.3921 51.6459 37.6969 51.6508 36.9327 51.6558C36.7897 51.6558 37.0313 51.6657 36.8686 51.6707C36.5728 51.6707 36.3608 51.6707 36.0107 51.6756C35.9072 51.6607 35.6755 51.6558 35.7987 51.6359C36.8193 51.626 38.2442 51.6161 39.462 51.6061C39.8318 51.6061 40.2213 51.621 40.4333 51.5962C39.8811 51.6012 39.4374 51.5764 38.9591 51.5764C38.3477 51.5764 37.6723 51.5863 37.0708 51.5913C36.9081 51.5913 36.8193 51.5863 36.6763 51.5813C36.5629 51.5813 36.3411 51.5863 36.2129 51.5913C36.0798 51.5913 36.0452 51.5913 35.9318 51.5813C35.6853 51.5813 35.4585 51.5913 35.1874 51.5962C34.7091 51.5962 34.2358 51.5913 33.7082 51.5863C33.6096 51.5813 33.654 51.5664 33.7773 51.5615C34.4034 51.5615 34.507 51.5615 35.1479 51.5615C35.074 51.5615 35.0345 51.5615 35.0394 51.5516C35.2367 51.5516 35.3057 51.5565 35.4388 51.5516C34.9655 51.5516 35.0049 51.5267 35.1676 51.5119C36.346 51.5119 37.7758 51.5119 38.7619 51.5119C38.8704 51.5019 38.9394 51.492 39.1119 51.492C40.2114 51.492 41.4194 51.487 42.5977 51.4821C41.2616 51.4622 39.8663 51.4722 38.3182 51.4821C38.259 51.4821 38.3083 51.4672 38.1505 51.4721C37.4751 51.4721 36.7207 51.4821 36.2079 51.4821L35.5423 51.4324C33.9153 51.4473 32.7271 51.3828 31.1691 51.3828C31.1789 51.3729 31.0557 51.3679 31.0064 51.363C31.1247 51.353 31.243 51.3431 31.3614 51.3332C31.6178 51.3332 31.8791 51.3282 32.1009 51.3332C33.4124 51.3034 35.2761 51.3233 36.9031 51.3034C37.1003 51.2836 36.9475 51.2736 36.8095 51.2588C36.0255 51.2488 35.3057 51.2736 34.4724 51.2488C34.1766 51.2091 34.4872 51.1793 35.1331 51.1744C36.1981 51.1744 38.0273 51.1744 38.7274 51.1793C41.873 51.1694 44.9446 51.1545 48.1543 51.1446C46.3695 51.1446 44.7474 51.1446 43.1352 51.1446C43.1401 51.1545 43.0809 51.1545 42.9577 51.1545C41.3898 51.1545 39.6642 51.1595 38.2738 51.1645C37.6969 51.1396 36.5827 51.1645 36.0009 51.1446C36.1488 51.1049 36.627 51.0851 37.2285 51.0751C36.6172 51.0751 36.0354 51.0652 35.5226 51.0602C35.0986 51.0602 34.3689 51.0702 34.152 51.0602C34.1027 51.0602 34.2013 51.0503 34.1027 51.0503C34.2752 51.0503 33.7921 51.0503 33.7575 51.0503C33.5258 51.0503 33.5702 51.0602 33.299 51.0553C32.949 51.0553 32.9539 51.0553 32.732 51.0453C31.5191 51.0453 30.3506 51.0453 29.1378 51.0453C29.0096 51.0453 28.7581 51.0453 28.7384 51.0453C28.625 51.0453 28.7236 51.0354 28.5708 51.0354C28.4869 51.0354 28.5215 51.0454 28.3982 51.0404C27.9249 51.0404 27.3875 51.0404 26.9191 51.0354C25.7407 51.0354 24.3454 51.0354 23.384 51.0305C23.172 51.0305 23.453 51.0156 23.1621 51.0156C21.8556 51.0106 20.4849 51.0056 19.0847 50.9957C19.0847 50.956 19.0847 50.9163 19.0847 50.8766C19.0847 50.8369 19.0995 50.8965 19.0995 50.8022C19.0995 50.554 19.0847 50.6186 19.0847 50.3952C19.0847 50.2563 19.0945 50.1322 19.1044 50.0578C19.1044 48.0032 19.1044 45.9039 19.0945 43.7947C19.0945 41.8295 19.0896 39.8593 19.0847 37.9932C19.0847 36.5243 19.0798 35.1248 19.0798 33.7997C19.0798 32.023 19.0699 30.5044 19.065 28.8568C19.065 27.6657 19.065 26.3605 19.065 25.353C19.065 25.1843 19.06 24.9659 19.0551 24.7724C19.0551 24.4746 19.065 24.1521 19.065 23.8592C19.065 23.0454 19.0551 22.1967 19.0502 21.3828C19.0502 20.6285 19.0502 19.9039 19.0502 19.1645V19.1396H19.2227C19.4495 19.1297 19.6714 19.1297 19.8982 19.1297C20.2236 19.1297 20.5786 19.1347 20.9188 19.1396C21.8802 19.1396 22.8663 19.1297 23.7784 19.1248C24.9962 19.1248 26.2486 19.1446 27.4861 19.1248C28.8567 19.1248 30.5084 19.1248 31.8199 19.1248C32.8799 19.1545 33.9843 19.1248 35.1824 19.1297C35.3008 19.1297 35.3994 19.1347 35.5226 19.1396C37.3666 19.1396 39.3289 19.1396 40.8277 19.1396C41.3799 19.1198 41.8532 19.1396 42.366 19.1446C42.9231 19.1446 43.4359 19.1396 43.9684 19.1347C44.136 19.1347 44.3086 19.1396 44.4762 19.1446C45.0136 19.1446 45.5461 19.1396 46.1378 19.1347C47.0252 19.1347 47.9669 19.1645 48.9875 19.1446C49.4707 19.1496 50.1166 19.1545 50.6934 19.1645C50.6934 19.2042 50.6934 19.2439 50.6984 19.2836V19.3133V19.4424V19.7302C50.6984 19.9238 50.6934 20.1124 50.6934 20.3059C50.6934 20.693 50.6934 21.0751 50.6934 21.4622C50.6934 22.2364 50.6934 23.0106 50.6934 23.7997C50.6934 24.3307 50.6688 24.8121 50.6885 25.3481C50.6688 25.9039 50.6787 26.564 50.6787 27.2389C50.6737 27.899 50.6688 28.6037 50.6589 29.2985C50.654 30.291 50.6688 31.5267 50.6294 32.2712C50.5505 32.6086 50.6688 33.2687 50.6491 34.0627C50.6343 34.4846 50.6096 34.43 50.58 34.6086C50.5702 34.9858 50.58 35.3382 50.58 35.7004C50.5702 36.1272 50.5357 36.4349 50.5357 37.0007L50.5505 37.0255ZM34.5563 51.7302C34.5563 51.7302 34.5661 51.7352 34.6105 51.7352C34.4872 51.7501 34.221 51.7253 34.5563 51.7302ZM34.6746 51.7253C35.1479 51.7253 35.8135 51.7054 36.1586 51.7253C36.2523 51.7253 36.0748 51.7054 36.2277 51.7004C36.4298 51.7104 36.6714 51.7153 37.0215 51.7153C37.0461 51.7451 36.3509 51.7253 36.3213 51.755C36.0551 51.755 35.922 51.755 35.8037 51.765C35.2416 51.765 35.1578 51.765 34.719 51.765C34.8274 51.7501 34.645 51.7501 34.6746 51.7352V51.7253Z" fill="white"/>
<path fill-rule="evenodd" clip-rule="evenodd" d="M31.4448 39.9062C31.4498 39.9311 31.4498 39.9757 31.4498 40.0254C31.4399 40.0154 31.435 39.946 31.4448 39.9062Z" fill="white"/>
<path fill-rule="evenodd" clip-rule="evenodd" d="M30.4102 41.7031C30.4102 41.7379 30.4249 41.852 30.4102 41.8421C30.4102 41.7776 30.4102 41.7528 30.4102 41.7031Z" fill="white"/>
<path fill-rule="evenodd" clip-rule="evenodd" d="M30.3863 41.8984C30.3863 41.8984 30.3863 41.9977 30.3863 42.0374C30.3764 42.0374 30.3764 41.9233 30.3863 41.8984Z" fill="white"/>
<path fill-rule="evenodd" clip-rule="evenodd" d="M30.5434 42.4492C30.5484 42.479 30.5533 42.5534 30.5434 42.5882C30.5336 42.5783 30.5434 42.4889 30.5434 42.4492Z" fill="white"/>
<path fill-rule="evenodd" clip-rule="evenodd" d="M30.3809 42.6992C30.3907 42.7488 30.3956 42.8283 30.3907 42.9374C30.3809 42.8977 30.3809 42.7836 30.3809 42.6992Z" fill="white"/>
<path fill-rule="evenodd" clip-rule="evenodd" d="M31.1944 43.3867C31.1944 43.5058 31.2092 43.754 31.1944 43.8383C31.2043 43.6944 31.1895 43.5257 31.1944 43.3867Z" fill="white"/>
<path fill-rule="evenodd" clip-rule="evenodd" d="M30.8389 43.707C30.8586 43.8559 30.8389 44.1239 30.8488 44.3175C30.8291 44.3423 30.8488 44.0346 30.834 43.98C30.834 43.9452 30.8389 43.9055 30.8438 43.8658C30.8438 43.8112 30.8291 43.7616 30.8438 43.707H30.8389Z" fill="white"/>
<path fill-rule="evenodd" clip-rule="evenodd" d="M30.7852 45.544C30.7852 45.544 30.7999 45.5539 30.7999 45.6036C30.7999 45.6185 30.7901 45.6234 30.7852 45.6185V45.5391V45.544Z" fill="white"/>
<path fill-rule="evenodd" clip-rule="evenodd" d="M30.9092 46.3086C30.924 46.4277 30.9289 46.7056 30.9092 46.8595C30.9092 46.8793 30.9191 46.8793 30.9142 46.919C30.9142 47.0083 30.9142 47.2168 30.9142 47.0183C30.9043 46.7751 30.9142 46.5815 30.9043 46.3086H30.9092Z" fill="white"/>
<path fill-rule="evenodd" clip-rule="evenodd" d="M30.72 46.3984C30.725 46.4282 30.7299 46.4778 30.725 46.5374C30.7151 46.5225 30.7151 46.4233 30.72 46.3984Z" fill="white"/>
<path fill-rule="evenodd" clip-rule="evenodd" d="M31.2147 46.5859C31.2147 46.5859 31.2147 46.71 31.2147 46.7646C31.2097 46.7249 31.2048 46.6306 31.2147 46.5859Z" fill="white"/>
<path fill-rule="evenodd" clip-rule="evenodd" d="M30.7852 46.5469C30.795 46.5965 30.7901 46.7057 30.7999 46.7652C30.7852 46.8198 30.7901 46.6213 30.7852 46.5469Z" fill="white"/>
<path fill-rule="evenodd" clip-rule="evenodd" d="M30.7305 46.6367C30.7403 46.6764 30.7403 46.7906 30.7403 46.8749C30.7305 46.8253 30.7354 46.7161 30.7305 46.6367Z" fill="white"/>
<path fill-rule="evenodd" clip-rule="evenodd" d="M31.3027 46.7773C31.3027 46.7773 31.3126 46.8617 31.3175 46.9163C31.3077 46.9064 31.3077 46.827 31.3027 46.7773Z" fill="white"/>
<path fill-rule="evenodd" clip-rule="evenodd" d="M31.2083 46.8594C31.2182 46.9239 31.2132 47.1423 31.2132 47.2514C31.2034 47.1125 31.2034 47.0083 31.2083 46.8594Z" fill="white"/>
<path fill-rule="evenodd" clip-rule="evenodd" d="M30.7411 46.9141C30.7559 47.0133 30.7411 47.1622 30.7411 47.2466C30.7313 47.1523 30.751 47.0183 30.7411 46.9141Z" fill="white"/>
<path fill-rule="evenodd" clip-rule="evenodd" d="M30.9188 47.1719C30.9237 47.2116 30.9286 47.2761 30.9286 47.3307C30.9138 47.3406 30.9188 47.2364 30.9188 47.1719Z" fill="white"/>
<path fill-rule="evenodd" clip-rule="evenodd" d="M30.8794 47.3477C30.8892 47.3923 30.8843 47.437 30.8794 47.5065C30.8695 47.4916 30.8794 47.3973 30.8794 47.3477Z" fill="white"/>
<path fill-rule="evenodd" clip-rule="evenodd" d="M30.8341 47.5167C30.8341 47.5167 30.8439 47.6854 30.8242 47.6507C30.8242 47.611 30.8291 47.6159 30.8341 47.611C30.8341 47.5613 30.8291 47.5663 30.8341 47.5117V47.5167Z" fill="white"/>
<path fill-rule="evenodd" clip-rule="evenodd" d="M31.1201 47.9274C31.1053 47.8281 31.13 47.6643 31.1201 47.9274V47.9274Z" fill="white"/>
<path fill-rule="evenodd" clip-rule="evenodd" d="M31.2581 48.1445C31.2679 48.2239 31.263 48.3033 31.2581 48.3976C31.2581 48.3381 31.2531 48.1842 31.2581 48.1445Z" fill="white"/>
<path fill-rule="evenodd" clip-rule="evenodd" d="M31.2773 48.203C31.2872 48.1732 31.2872 48.332 31.2773 48.3022V48.203Z" fill="white"/>
<path fill-rule="evenodd" clip-rule="evenodd" d="M31.4759 48.3945C31.4858 48.4243 31.4858 48.4839 31.4808 48.5335C31.471 48.5186 31.471 48.4193 31.4759 48.3945Z" fill="white"/>
<path fill-rule="evenodd" clip-rule="evenodd" d="M31.4551 48.9375C31.4551 49.1608 31.4699 49.1013 31.4551 48.9375V48.9375Z" fill="white"/>
<path fill-rule="evenodd" clip-rule="evenodd" d="M31.4647 44.5234C31.4697 44.5582 31.4697 44.6028 31.4795 44.6227C31.4647 44.6822 31.4795 44.7964 31.4697 44.8758C31.4549 44.7765 31.4697 44.6674 31.4647 44.5234Z" fill="white"/>
<path fill-rule="evenodd" clip-rule="evenodd" d="M31.1456 46.716C31.1456 46.7657 31.1406 46.7557 31.1456 46.8153C31.1406 46.8153 31.1406 46.7954 31.1357 46.7954C31.1357 46.8947 31.1357 46.9493 31.1357 47.0336C31.1357 47.0237 31.1308 47.0138 31.1258 47.0138C31.1456 47.123 31.116 47.252 31.1258 47.4853C31.1061 47.2619 31.1209 46.7756 31.116 46.582C31.1308 46.6118 31.116 46.7805 31.1357 46.8004C31.1456 46.8004 31.1357 46.6912 31.1554 46.726L31.1456 46.716Z" fill="white"/>
<path fill-rule="evenodd" clip-rule="evenodd" d="M30.7895 46.921C30.7994 46.9259 30.7895 47.0054 30.7895 47.0202C30.7797 46.9954 30.7895 46.7374 30.7895 46.921Z" fill="white"/>
<path fill-rule="evenodd" clip-rule="evenodd" d="M30.8344 48.3801H30.8196C30.8196 48.5041 30.8196 48.7026 30.8097 48.787C30.7999 48.6381 30.8245 48.3255 30.7999 48.2163C30.7999 48.1766 30.7999 48.1617 30.8097 48.117C30.7851 47.7696 30.8097 47.3974 30.7949 47.0352C30.8344 47.194 30.7801 47.5612 30.8196 47.7448C30.8196 47.7746 30.8196 47.7448 30.8196 47.725C30.8196 47.8838 30.8097 48.1716 30.8344 48.3751V48.3801Z" fill="white"/>
<path fill-rule="evenodd" clip-rule="evenodd" d="M31.307 48.25C31.3119 48.2996 31.3169 48.3244 31.3218 48.3691C31.3218 48.389 31.2972 48.2897 31.307 48.25Z" fill="white"/>
<path fill-rule="evenodd" clip-rule="evenodd" d="M36.7558 33.654C36.6917 33.6937 36.6227 33.7483 36.5487 33.7831C36.3811 33.8773 36.2134 33.9319 36.0409 34.0213C35.8831 34.0957 35.7401 34.1751 35.5676 34.2396C35.4591 34.2843 35.3999 34.3041 35.3161 34.3389C35.0647 34.4332 34.8477 34.4828 34.7442 34.5473C34.5667 34.6168 34.335 34.6863 34.1723 34.7409C34.1476 34.7508 34.0934 34.7558 34.0835 34.7607C33.6743 34.8947 33.4228 35.0287 32.915 35.1131C32.8706 35.1379 32.846 35.1726 32.7572 35.2074C32.7178 35.2223 32.629 35.2371 32.6044 35.2471C32.5009 35.2967 32.5945 35.3563 32.4022 35.396C32.3924 35.4059 32.4269 35.4108 32.4368 35.4208C32.4318 35.5151 32.5156 35.5895 32.4663 35.6639C32.6093 35.7036 32.5797 35.7533 32.6931 35.788C32.7622 35.8079 32.9002 35.8277 32.989 35.8426C33.0925 35.8625 33.201 35.8724 33.2848 35.8922C33.2848 35.922 33.4179 35.9121 33.4426 35.9319C33.6003 35.9319 33.7236 35.9369 33.8863 35.9319C33.9011 35.9369 33.9405 35.9369 33.9455 35.9468C34.2857 35.9468 34.6357 35.9369 35.0992 35.8426C35.1386 35.8327 35.2274 35.8178 35.2816 35.7979C35.6218 35.7136 36.1346 35.5399 36.3219 35.5101C36.3811 35.4902 36.3761 35.4803 36.4402 35.4605C36.4846 35.4605 36.672 35.4257 36.8248 35.3513C36.879 35.3265 36.9579 35.2669 37.0664 35.2074C37.2291 35.1131 37.4066 35.0634 37.5496 34.9692C37.6186 34.9245 37.6778 34.8649 37.7419 34.8203C37.9194 34.6962 38.2743 34.4481 38.4223 34.3339C38.5357 34.2446 38.585 34.2198 38.6688 34.1453C38.7427 34.0759 38.7822 34.0113 38.7526 33.9965C38.9153 33.7582 39.4281 33.2272 39.6154 32.8153C39.7978 32.5424 39.8915 32.2396 40 31.9518C40.0197 31.9022 40.0542 31.8128 40.069 31.7632C40.1035 31.6639 40.1331 31.525 40.1528 31.391C40.2021 31.1627 40.2366 30.9642 40.2465 30.7806C40.3303 30.4977 40.2761 30.2793 40.2909 30.0411C40.2909 29.9518 40.2958 29.8575 40.2909 29.7533C40.2859 29.6838 40.2761 29.5647 40.2662 29.4853C40.2662 29.391 40.2514 29.2868 40.2416 29.1974C40.2317 29.1429 40.2169 29.0635 40.2071 29.0188C40.1972 28.9443 40.2021 28.8947 40.1775 28.8203C40.1578 28.7706 40.1134 28.6317 40.0937 28.5771C40.0542 28.4282 39.9951 28.2744 39.931 28.1255C39.8767 27.9766 39.7978 27.8376 39.714 27.7136C39.4675 27.2371 39.147 26.8848 38.6934 26.4778C38.5702 26.3885 38.4765 26.329 38.3532 26.2297C38.3237 26.2099 38.3187 26.2148 38.2743 26.19C38.018 26.0113 37.7172 25.8773 37.4362 25.7334C37.4263 25.7334 37.4115 25.7334 37.3918 25.7235C37.0072 25.52 36.4895 25.3563 36.1641 25.2917C35.9226 25.2074 35.6267 25.1627 35.321 25.1032C35.1781 25.0783 35.0351 25.0436 34.897 25.0287C34.6308 24.9989 34.2857 24.9493 34.0293 24.9295C33.975 24.9295 33.8616 24.9295 33.8025 24.9295C33.6694 24.9195 33.5214 24.9046 33.3785 24.9046C32.8263 24.8997 32.1902 24.8898 31.7071 24.9146C31.6232 24.9146 31.5838 24.9245 31.4753 24.9344C31.3521 24.9493 31.219 24.9592 31.1006 24.9741C30.864 24.9989 30.6569 25.0188 30.4153 25.0436L30.3266 25.0535C30.2871 25.0436 30.3118 25.0982 30.3019 25.123C30.3019 25.1826 30.3019 25.2371 30.297 25.2917C30.297 25.4108 30.292 25.52 30.2871 25.6342C30.2871 25.7285 30.292 25.8873 30.297 25.9766C30.297 26.19 30.297 26.3736 30.297 26.5821C30.297 27.0039 30.3216 27.4257 30.3019 27.8178C30.3266 28.324 30.3167 29.0585 30.3216 29.6441C30.3413 29.7781 30.3216 29.9022 30.3266 30.0362C30.3364 30.458 30.3561 30.994 30.3413 31.4307C30.3611 33.3364 30.3808 35.123 30.4005 37.0337C30.3857 37.1776 30.3956 37.4009 30.4054 37.525C30.3956 37.5498 30.3956 37.6342 30.3956 37.6987C30.4202 37.927 30.3956 38.2148 30.4054 38.5027C30.4301 38.5771 30.4104 38.7508 30.4301 38.86C30.4153 38.9046 30.4202 38.7955 30.4104 38.8749C30.4547 39.0634 30.435 39.6937 30.4449 39.9816C30.4449 39.9617 30.4498 39.9567 30.4547 39.9816C30.4449 40.051 30.4646 40.0808 30.4646 40.1602C30.4695 40.6764 30.5139 41.0436 30.5287 41.4853C30.5238 41.5399 30.504 41.6888 30.5188 41.7384C30.5188 41.659 30.5188 41.5597 30.5386 41.5647C30.5336 41.6987 30.5386 41.8724 30.5534 41.9617C30.5534 42.1255 30.5435 42.2099 30.5583 42.3538C30.5583 42.3885 30.578 42.319 30.578 42.3935C30.5681 42.6218 30.5829 42.7359 30.578 42.9443C30.5928 43.0039 30.6027 43.2471 30.5928 43.3215C30.6027 43.386 30.6076 43.2471 30.6125 43.3066C30.6174 43.4902 30.6273 43.6639 30.6125 43.8376C30.6224 43.8823 30.6322 43.9071 30.6322 43.9766C30.6322 44.0262 30.6174 43.9617 30.6224 44.0362C30.6322 44.1007 30.6372 43.9865 30.652 44.0014C30.6569 44.0957 30.6667 44.0759 30.6766 44.1205C30.6667 44.2496 30.6865 44.3389 30.6914 44.458C30.6914 44.6118 30.6914 44.6912 30.6963 44.8302C30.6963 44.9295 30.7161 44.9741 30.7161 45.0883C30.7161 45.1826 30.7013 45.257 30.7013 45.3612C30.7013 45.4158 30.7161 45.3265 30.7161 45.4009C30.7161 45.7632 30.7259 46.1205 30.7506 46.3885C30.721 45.9816 30.7506 45.6838 30.7259 45.3265C30.7407 45.2719 30.7161 45.1677 30.7407 45.1131C30.7308 45.0883 30.7259 45.1726 30.7259 45.0932C30.7259 45.0684 30.7308 45.0585 30.7259 45.0138C30.7456 45.0634 30.7456 44.989 30.7604 44.9592C30.7604 44.6615 30.7555 44.4084 30.7506 44.1553C30.7506 44.1056 30.7407 44.19 30.7358 44.1354C30.7358 44.0262 30.7358 43.9816 30.7308 43.8376C30.7456 43.8029 30.7506 43.7235 30.7703 43.7632C30.7801 44.0907 30.79 44.6317 30.7999 45.0237C30.7999 45.1528 30.7851 45.2868 30.8097 45.3612C30.8048 45.1726 30.8295 45.0188 30.8295 44.855C30.8295 44.6416 30.8097 44.4133 30.8147 44.2049C30.8147 44.1602 30.8196 44.1056 30.8245 44.0709C30.8245 44.0411 30.8147 43.9468 30.8147 43.9121C30.8147 43.8625 30.8245 43.8575 30.8245 43.8128C30.8245 43.7235 30.8097 43.654 30.8097 43.5548C30.8097 43.391 30.8245 43.2272 30.8196 43.0436C30.8245 43.0089 30.8442 43.0237 30.8442 43.0684C30.8442 43.2818 30.8442 43.3215 30.8442 43.5399C30.8442 43.5151 30.8492 43.5002 30.8541 43.5002C30.8541 43.5697 30.8492 43.5895 30.8541 43.6391C30.8541 43.4754 30.8837 43.4902 30.8935 43.5448C30.8886 43.9518 30.9034 44.4481 30.8935 44.7806C30.9034 44.8153 30.9133 44.8401 30.9133 44.8997C30.9133 45.3017 30.9182 45.6739 30.9231 46.1007C30.9478 45.6391 30.933 45.1627 30.9231 44.6267C30.9231 44.6069 30.9379 44.6267 30.933 44.5672C30.9231 44.3389 30.9231 44.0759 30.9231 43.8972C30.9379 43.8228 30.9576 43.7483 30.9724 43.6689C30.9576 43.1081 31.0267 42.7012 31.0267 42.1652C31.0365 42.1652 31.0415 42.1255 31.0513 42.1106C31.0612 42.1553 31.071 42.1801 31.0809 42.2347C31.0809 42.324 31.0858 42.4133 31.0809 42.4878C31.1154 42.9394 31.0908 43.5796 31.1105 44.1404C31.1302 44.2099 31.145 44.1553 31.1598 44.1056C31.1697 43.8376 31.145 43.5895 31.1696 43.3017C31.214 43.1974 31.2436 43.3066 31.2485 43.53C31.2485 43.8972 31.2485 44.5275 31.2436 44.7657C31.2584 45.8972 31.2683 46.8798 31.2781 48.0113C31.288 47.4009 31.2633 46.8302 31.2781 46.2843C31.2683 46.2843 31.2683 46.2644 31.2683 46.2247C31.2683 45.6838 31.2683 45.0883 31.2584 44.6118C31.283 44.4133 31.2584 44.0312 31.283 43.8277C31.3274 43.8773 31.3471 44.0411 31.357 44.2496C31.357 44.0362 31.3669 43.8426 31.3718 43.6639C31.3718 43.52 31.3619 43.2669 31.3718 43.1925C31.3718 43.1726 31.3817 43.2074 31.3817 43.1726C31.3817 43.2322 31.3817 43.0684 31.3817 43.0535C31.3767 42.9741 31.3718 42.989 31.3767 42.8947C31.3767 42.7756 31.3767 42.7756 31.3866 42.7012C31.3866 42.2744 31.3866 41.9022 31.3866 41.4654C31.3866 41.4208 31.3866 41.3364 31.3866 41.3265C31.3866 41.2868 31.3964 41.3215 31.3964 41.2669C31.3964 41.2371 31.3866 41.252 31.3915 41.2074C31.3915 41.0386 31.3915 40.855 31.3964 40.6962C31.3964 40.2893 31.3964 39.8128 31.4014 39.4803C31.4014 39.4059 31.4162 39.5051 31.4162 39.4059C31.4211 38.8252 31.431 38.2247 31.4359 37.6242C31.4359 37.5796 31.4556 37.6143 31.4507 37.5498C31.4507 37.4654 31.4359 37.4853 31.4359 37.4108C31.4359 37.3662 31.4458 37.3215 31.4556 37.2967C31.4704 36.5969 31.4556 35.8773 31.4458 35.1577C31.4458 34.4828 31.4408 33.8128 31.4359 33.1726C31.4359 32.6714 31.4162 32.19 31.426 31.7384C31.4211 31.1081 31.4162 30.6069 31.4112 30.0461C31.4112 29.6391 31.4162 29.1925 31.4112 28.8501C31.4112 28.8004 31.4014 28.7061 31.4014 28.6515C31.4014 28.5672 31.4112 28.4233 31.4162 28.3389C31.4162 28.0709 31.4063 27.7632 31.4014 27.4952C31.4014 27.1826 31.4014 26.8798 31.4014 26.5721C31.4014 26.4927 31.4014 26.4084 31.3964 26.3141C31.3964 26.1999 31.3915 26.2347 31.3915 26.195C31.3915 26.1652 31.4014 26.1354 31.4014 26.1056C31.3817 26.0461 31.4408 26.056 31.4803 26.0461L31.5444 26.0362C31.5887 26.0362 31.6282 26.0312 31.6676 26.0262C32.0719 26.0113 32.4861 26.0163 32.8953 26.0064C33.3489 26.0213 33.8912 26.056 34.3202 26.1007C34.6604 26.1751 35.0203 26.19 35.3999 26.2843C35.4295 26.2942 35.4739 26.3041 35.5035 26.3141C36.0705 26.458 36.6868 26.6367 37.0861 26.86C37.2488 26.9195 37.3672 27.0039 37.4953 27.0932C37.6383 27.1826 37.7665 27.2669 37.8947 27.3612C37.9391 27.391 37.9637 27.4307 38.0032 27.4654C38.1215 27.5697 38.2398 27.6689 38.3532 27.7979C38.5258 27.9915 38.6441 28.2347 38.792 28.4878C38.8709 28.7012 38.9646 29.0188 39.0188 29.2768C39.0731 29.7136 39.1027 30.195 39.0238 30.6714C39.004 30.8302 38.9498 30.9692 38.935 31.128C38.8857 31.2868 38.8266 31.4704 38.7575 31.659C38.7181 31.7434 38.6786 31.8327 38.6343 31.9319C38.58 32.0213 38.5307 32.1106 38.4814 32.195C38.3237 32.4381 38.1215 32.7409 37.9342 32.8649C37.8109 32.8798 37.7567 33.1032 37.5644 33.2471C37.4559 33.3116 37.451 33.2818 37.3918 33.2917C37.2981 33.3513 37.2192 33.4208 37.1305 33.4853C37.022 33.5548 36.9234 33.5697 36.7755 33.654H36.7558ZM30.6667 43.3265C30.6667 43.3265 30.6618 43.3265 30.6569 43.3463C30.6372 43.3066 30.6667 43.2123 30.6667 43.3265ZM30.6717 43.3662C30.6717 43.53 30.6914 43.7582 30.6717 43.8773C30.6717 43.9071 30.6914 43.8476 30.6963 43.9022C30.6865 43.9716 30.6815 44.056 30.6815 44.1751C30.652 44.185 30.6667 43.9468 30.6421 43.9319C30.6421 43.8376 30.6421 43.793 30.6322 43.7533C30.6421 43.5647 30.6224 43.525 30.6322 43.3811C30.652 43.4208 30.647 43.3563 30.6667 43.3662H30.6717Z" fill="white"/>
</g>
<defs>
<clipPath id="clip0_868_19881">
<rect width="34" height="34" fill="white" transform="translate(18 18)"/>
</clipPath>
</defs>
</svg>
