<svg width="70" height="70" viewBox="0 0 70 70" fill="none" xmlns="http://www.w3.org/2000/svg">
<g clip-path="url(#clip0_868_22677)">
<path fill-rule="evenodd" clip-rule="evenodd" d="M25.8751 22.0271C25.8691 21.9912 25.8691 21.8953 25.8691 21.9073C25.8691 21.9073 25.8811 21.9133 25.8811 21.9193C25.8811 21.9492 25.8811 21.9972 25.8811 22.0271H25.8751Z" fill="white"/>
<path fill-rule="evenodd" clip-rule="evenodd" d="M24.7314 20.5625C24.6719 20.5625 24.4931 20.5805 24.511 20.5625C24.6123 20.5625 24.654 20.5625 24.7314 20.5625Z" fill="white"/>
<path fill-rule="evenodd" clip-rule="evenodd" d="M24.4216 20.5402C24.4216 20.5402 24.2667 20.5402 24.2012 20.5402C24.2012 20.5283 24.3799 20.5283 24.4216 20.5402Z" fill="white"/>
<path fill-rule="evenodd" clip-rule="evenodd" d="M23.5446 20.7202C23.497 20.7262 23.3778 20.7322 23.3242 20.7202C23.3421 20.7082 23.4791 20.7202 23.5446 20.7202Z" fill="white"/>
<path fill-rule="evenodd" clip-rule="evenodd" d="M23.1468 20.5273C23.0693 20.5393 22.9442 20.5393 22.7715 20.5393C22.8311 20.5273 23.0157 20.5273 23.1468 20.5273Z" fill="white"/>
<path fill-rule="evenodd" clip-rule="evenodd" d="M22.0567 21.47C21.866 21.47 21.4729 21.488 21.3418 21.47C21.5741 21.482 21.8422 21.464 22.0567 21.47Z" fill="white"/>
<path fill-rule="evenodd" clip-rule="evenodd" d="M21.5439 21.0607C21.3056 21.0846 20.8767 21.0607 20.5728 21.0727C20.5311 21.0487 21.0196 21.0727 21.109 21.0547C21.1686 21.0547 21.2281 21.0607 21.2937 21.0667C21.3771 21.0667 21.4545 21.0487 21.5439 21.0667V21.0607Z" fill="white"/>
<path fill-rule="evenodd" clip-rule="evenodd" d="M18.6251 20.9961C18.6251 20.9961 18.6072 21.0141 18.5298 21.0141C18.506 21.0141 18.5 21.0021 18.5 20.9961H18.6251Z" fill="white"/>
<path fill-rule="evenodd" clip-rule="evenodd" d="M17.4091 21.1445C17.2185 21.1625 16.7777 21.1625 16.5334 21.1445C16.5036 21.1445 16.4977 21.1565 16.4381 21.1505C16.2951 21.1505 15.9675 21.1505 16.2832 21.1505C16.6704 21.1385 16.9802 21.1505 17.4091 21.1445Z" fill="white"/>
<path fill-rule="evenodd" clip-rule="evenodd" d="M17.2653 20.9297C17.2177 20.9357 17.1402 20.9357 17.0449 20.9357C17.0688 20.9237 17.2296 20.9237 17.2653 20.9297Z" fill="white"/>
<path fill-rule="evenodd" clip-rule="evenodd" d="M16.9675 21.4936C16.9317 21.5056 16.7709 21.4936 16.6875 21.4936C16.7471 21.4936 16.902 21.4816 16.9675 21.4936Z" fill="white"/>
<path fill-rule="evenodd" clip-rule="evenodd" d="M17.0334 21C16.956 21.012 16.7832 21.006 16.6879 21.018C16.6045 21 16.9143 21.006 17.0334 21Z" fill="white"/>
<path fill-rule="evenodd" clip-rule="evenodd" d="M16.8909 20.9336C16.8314 20.9456 16.6467 20.9456 16.5156 20.9456C16.5931 20.9336 16.7718 20.9396 16.8909 20.9336Z" fill="white"/>
<path fill-rule="evenodd" clip-rule="evenodd" d="M16.6696 21.5938C16.6696 21.5938 16.5386 21.6057 16.4492 21.6117C16.4671 21.5997 16.5922 21.5997 16.6696 21.5938Z" fill="white"/>
<path fill-rule="evenodd" clip-rule="evenodd" d="M16.5337 21.4844C16.4324 21.4964 16.081 21.4904 15.9082 21.4904C16.1286 21.4784 16.2954 21.4784 16.5337 21.4844Z" fill="white"/>
<path fill-rule="evenodd" clip-rule="evenodd" d="M16.4501 20.9449C16.2893 20.9628 16.0569 20.9449 15.9199 20.9449C16.0689 20.9329 16.2833 20.9569 16.4501 20.9449Z" fill="white"/>
<path fill-rule="evenodd" clip-rule="evenodd" d="M16.0328 21.1494C15.9732 21.1554 15.866 21.1554 15.7826 21.1614C15.7647 21.1434 15.9315 21.1494 16.0328 21.1494Z" fill="white"/>
<path fill-rule="evenodd" clip-rule="evenodd" d="M15.7658 21.1069C15.6943 21.1189 15.6229 21.1069 15.5156 21.1069C15.5395 21.0949 15.6884 21.1069 15.7658 21.1069Z" fill="white"/>
<path fill-rule="evenodd" clip-rule="evenodd" d="M15.492 21.055C15.4562 21.0669 15.2239 21.0669 15.2775 21.043C15.3431 21.043 15.3371 21.049 15.3371 21.055C15.4145 21.055 15.4086 21.049 15.492 21.055Z" fill="white"/>
<path fill-rule="evenodd" clip-rule="evenodd" d="M14.8359 21.3848C14.9908 21.3668 15.2529 21.3968 14.8359 21.3848V21.3848Z" fill="white"/>
<path fill-rule="evenodd" clip-rule="evenodd" d="M14.4969 21.5417C14.3658 21.5477 14.2407 21.5477 14.0918 21.5417C14.1871 21.5417 14.4373 21.5357 14.4969 21.5417Z" fill="white"/>
<path fill-rule="evenodd" clip-rule="evenodd" d="M14.3947 21.5703C14.4424 21.5823 14.1862 21.5823 14.2398 21.5703H14.3947Z" fill="white"/>
<path fill-rule="evenodd" clip-rule="evenodd" d="M14.1032 21.7969C14.0615 21.8029 13.9603 21.8089 13.8828 21.8029C13.9066 21.7909 14.0675 21.7909 14.1032 21.7969Z" fill="white"/>
<path fill-rule="evenodd" clip-rule="evenodd" d="M13.2333 21.7734C12.8818 21.7734 12.9711 21.7914 13.2333 21.7734V21.7734Z" fill="white"/>
<path fill-rule="evenodd" clip-rule="evenodd" d="M20.2515 21.7874C20.1979 21.7874 20.1264 21.7934 20.0906 21.8054C19.9953 21.7874 19.8166 21.8054 19.6855 21.7934C19.8464 21.7754 20.0192 21.7934 20.2515 21.7874Z" fill="white"/>
<path fill-rule="evenodd" clip-rule="evenodd" d="M16.766 21.4158C16.6885 21.4158 16.7004 21.4098 16.6111 21.4158C16.6051 21.4098 16.6409 21.4098 16.6468 21.4038C16.486 21.4038 16.4026 21.4038 16.2715 21.4038C16.2894 21.4038 16.3073 21.3978 16.3073 21.3918C16.1285 21.4158 15.926 21.3798 15.5566 21.3918C15.9081 21.3678 16.6885 21.3858 16.9923 21.3798C16.9447 21.3978 16.6766 21.3798 16.6468 21.3978C16.6409 21.4098 16.8196 21.3978 16.766 21.4218V21.4158Z" fill="white"/>
<path fill-rule="evenodd" clip-rule="evenodd" d="M16.4381 21.0053C16.4023 21.0053 16.4202 21.0053 16.4381 21.0053C16.4262 21.0173 16.3011 21.0053 16.2832 21.0053C16.3189 20.9933 16.736 21.0053 16.4381 21.0053Z" fill="white"/>
<path fill-rule="evenodd" clip-rule="evenodd" d="M14.12 21.0558V21.0378C13.9235 21.0378 13.6018 21.0378 13.4707 21.0258C13.709 21.0138 14.2094 21.0438 14.3762 21.0138C14.4358 21.0138 14.4715 21.0138 14.5311 21.0258C15.0792 20.9958 15.6808 21.0258 16.2527 21.0078C15.9966 21.0558 15.4128 20.9898 15.1209 21.0378C15.0732 21.0378 15.1209 21.0378 15.1506 21.0378C14.9004 21.0378 14.4417 21.0258 14.12 21.0558Z" fill="white"/>
<path fill-rule="evenodd" clip-rule="evenodd" d="M14.3233 21.6005C14.2459 21.6065 14.2042 21.6125 14.1327 21.6185C14.1029 21.6185 14.2578 21.5885 14.3233 21.6005Z" fill="white"/>
<path fill-rule="evenodd" clip-rule="evenodd" d="M49.0308 48.0426C49.0308 48.1625 49.0427 48.3602 49.0486 48.4861C49.0486 48.8336 49.0308 49.1392 49.0427 49.4868C49.0546 49.7624 49.0665 50.128 49.0784 50.4036C49.0844 50.6193 49.0903 50.7152 49.0963 50.877C49.1142 51.3444 49.1022 51.7219 49.1499 51.9256C49.1797 52.2972 49.1976 52.6028 49.2214 52.9443C49.2214 53.0222 49.2214 53.0702 49.2214 53.1001C49.2869 53.8252 49.4001 54.2686 49.4478 55.1195C49.4716 55.1914 49.5073 55.2454 49.5431 55.3892C49.555 55.4551 49.5669 55.5989 49.5788 55.6469C49.6324 55.8206 49.698 55.6708 49.7397 55.9944C49.7516 56.0124 49.7575 55.9525 49.7635 55.9345C49.8707 55.9465 49.9601 55.8146 50.0435 55.8925C50.0911 55.6708 50.1507 55.7188 50.1924 55.545C50.2222 55.4371 50.246 55.2274 50.2758 55.0896C50.3056 54.9338 50.3294 54.766 50.3652 54.6342C50.395 54.6342 50.4009 54.4364 50.4307 54.3945C50.4545 54.1787 50.4784 53.9271 50.4962 53.7173C50.5081 53.6934 50.5141 53.6334 50.526 53.6275C50.5796 53.1061 50.6511 52.5788 50.669 51.8657C50.669 51.7998 50.669 51.662 50.669 51.5841C50.669 51.0568 50.6809 50.2418 50.7226 49.9602C50.7226 49.8643 50.7226 49.8643 50.7226 49.7684C50.7405 49.7085 50.7822 49.4269 50.7822 49.1812C50.7822 49.0973 50.7524 48.9535 50.7464 48.7677C50.7405 48.4921 50.7762 48.2344 50.7703 47.9887C50.7703 47.8749 50.7405 47.755 50.7345 47.6352C50.7226 47.3296 50.7345 46.7004 50.7345 46.4427C50.7405 46.239 50.7643 46.1611 50.7583 46.0053C50.7583 45.8674 50.7345 45.7596 50.6988 45.7716C50.663 45.5738 50.6571 45.2203 50.6571 44.8428C50.6571 44.5491 50.6571 44.2435 50.6571 43.9559C50.6571 43.6263 50.6511 43.3327 50.6452 42.9911H50.5915C50.1865 42.9791 49.7635 42.9851 49.3584 42.9911C49.0725 42.9911 48.7984 43.0031 48.5482 43.0031C48.4708 43.0031 48.3457 42.9971 48.2682 42.9911C48.1431 42.9911 47.9108 43.0031 47.7321 43.0091C47.3985 43.0151 47.1602 43.0211 46.8564 43.0271C46.4453 42.9851 46.1415 43.0331 45.796 43.0271C45.6828 43.0271 45.516 43.0151 45.3909 43.0151C45.2837 43.0151 45.1347 43.0211 45.0156 43.0271C44.9024 43.0271 44.7237 43.0151 44.6105 43.0151C44.5271 43.0151 44.4318 43.0151 44.3603 43.0211C44.259 43.0211 44.1935 43.0091 44.0803 43.0091C43.9969 43.0091 43.8182 43.0271 43.7348 43.0271C43.3118 43.0331 42.8531 43.0151 42.454 43.0511C41.7272 43.0211 41.0957 43.069 40.2439 43.0391C40.0294 43.0451 39.8745 43.0511 39.6481 43.0451C39.6005 43.0451 39.6005 43.057 39.523 43.057C39.0762 43.0451 38.6056 43.081 38.1469 43.063C38.129 43.063 38.1112 43.075 38.0814 43.075C37.9086 43.075 37.7418 43.063 37.5691 43.063C37.5155 43.063 37.4678 43.063 37.4142 43.063C37.4142 43.0151 37.4082 42.9732 37.3963 42.9312C37.3963 42.9012 37.4023 42.8953 37.4023 42.8413C37.4023 42.7395 37.4023 42.6316 37.4023 42.5177C37.4023 42.296 37.3963 42.0563 37.3904 41.8226V41.1635C37.3904 40.726 37.3904 40.2167 37.3904 39.8152C37.3904 39.7193 37.3784 39.5635 37.3725 39.4677C37.3725 39.2519 37.3725 39.0542 37.3725 38.8085C37.3487 37.9456 37.3665 36.9569 37.3665 36.2019C37.3665 35.9921 37.3546 35.7584 37.3487 35.5068C37.3487 35.0573 37.3546 34.6259 37.3606 34.1884C37.3606 34.0686 37.3546 33.8948 37.3487 33.781C37.3487 33.3375 37.3487 32.9361 37.3487 32.4926H37.301C36.7768 32.4926 36.2287 32.4986 35.7045 32.5046C35.3768 32.5046 35.0492 32.5046 34.7334 32.5046C33.9292 32.5346 32.7616 32.5226 31.8263 32.5286C31.6178 32.5526 31.4153 32.5286 31.2008 32.5346C30.5336 32.5466 29.6817 32.5705 28.9847 32.5526C28.3592 32.5585 27.7397 32.5705 27.1142 32.5765C27.0963 30.5811 27.0844 28.5976 27.0665 26.5962C27.0844 26.3685 27.0725 26.015 27.0665 25.8112C27.0784 25.7693 27.0784 25.6315 27.0784 25.5296C27.0486 25.1641 27.0784 24.7026 27.0665 24.2412C27.0367 24.1214 27.0605 23.8457 27.0367 23.672C27.0546 23.6001 27.0486 23.7738 27.0605 23.642C27.0129 23.3424 27.0308 22.3357 27.0188 21.8743C27.0188 21.9102 27.0129 21.9162 27.0129 21.8743C27.0248 21.7065 27.001 21.6346 27.001 21.4488C27.001 21.1552 26.995 20.8736 26.9891 20.5859C26.3457 20.6039 25.6546 20.6279 25.0589 20.6459C24.9696 20.6399 24.7372 20.6159 24.6538 20.6339C24.7789 20.6339 24.9398 20.6339 24.9279 20.6578C24.7194 20.6519 24.4394 20.6578 24.3023 20.6758C24.0402 20.6758 23.9092 20.6638 23.6768 20.6818C23.6173 20.6818 23.7305 20.7058 23.6113 20.7058C23.2122 20.7058 23.099 20.7058 22.7416 20.7058C22.6462 20.7238 22.265 20.7298 22.1458 20.7238C22.0386 20.7298 22.265 20.7417 22.1756 20.7477C21.8778 20.7537 21.6037 20.7597 21.3357 20.7477C21.2701 20.7597 21.2225 20.7717 21.1093 20.7717C21.0318 20.7717 21.1331 20.7537 21.0199 20.7597C20.9127 20.7717 21.1033 20.7777 21.0735 20.7957C20.9246 20.8017 20.9544 20.8136 20.8829 20.8256C20.6744 20.8136 20.5374 20.8376 20.3468 20.8436C20.1263 20.8436 19.9595 20.8436 19.751 20.8496C19.5902 20.8496 19.5247 20.8676 19.34 20.8676C19.2149 20.8676 19.0481 20.8556 18.9051 20.8556C18.8217 20.8556 18.9647 20.8736 18.8396 20.8736C18.2677 20.8736 17.6958 20.8856 17.2728 20.9095C17.9222 20.8736 18.3928 20.9095 18.9647 20.8796C19.0481 20.8975 19.2208 20.8676 19.3042 20.8915C19.34 20.8796 19.2089 20.8736 19.34 20.8736C19.3817 20.8736 19.3996 20.8796 19.4651 20.8736C19.3817 20.8975 19.5068 20.8975 19.5485 20.9155C20.0251 20.9155 20.4182 20.9095 20.8293 20.9035C20.9067 20.9035 20.7757 20.8915 20.865 20.8856C21.0318 20.8856 21.1272 20.8856 21.3357 20.8796C21.3893 20.8975 21.5203 20.9035 21.4488 20.9275C20.9067 20.9395 20.0906 20.9515 19.4472 20.9635C19.2447 20.9635 19.0302 20.9455 18.917 20.9754C19.2208 20.9694 19.4591 20.9994 19.7212 20.9994C20.0608 20.9994 20.4242 20.9754 20.7518 20.9814C20.8293 20.9814 20.9008 20.9874 20.9663 20.9934C21.0199 20.9934 21.1629 20.9814 21.2165 20.9814C21.2999 20.9814 21.2999 20.9934 21.3714 20.9934C21.5144 20.9934 21.6216 20.9754 21.7824 20.9754C22.0446 20.9754 22.3007 20.9934 22.5926 20.9874C22.6462 20.9934 22.6224 21.0114 22.5569 21.0174C22.2173 21.0174 22.1578 21.0174 21.8063 21.0174C21.848 21.0174 21.8718 21.0174 21.8658 21.0294C21.7586 21.0294 21.7229 21.0234 21.6454 21.0294C21.9075 21.0294 21.8837 21.0593 21.7944 21.0773C21.145 21.0773 20.3944 21.0773 19.8285 21.0773C19.7689 21.0893 19.7332 21.1013 19.6378 21.1013C19.0183 21.1013 18.3928 21.1073 17.7315 21.1133C18.4643 21.1372 19.2268 21.1252 20.0727 21.1133C20.1025 21.1133 20.0787 21.1312 20.1621 21.1252C20.5672 21.1252 20.9425 21.1133 21.2284 21.1133C21.3476 21.1312 21.4667 21.1492 21.5918 21.1732C22.4794 21.1552 23.1288 21.2331 23.9807 21.2331C23.9807 21.2451 24.0402 21.2511 24.07 21.2571C24.0045 21.2691 23.9568 21.281 23.8794 21.293C23.7424 21.293 23.5994 21.299 23.4743 21.293C22.7594 21.329 21.7407 21.305 20.8472 21.329C20.7399 21.353 20.8233 21.3649 20.9008 21.3829C21.3297 21.3949 21.7229 21.3649 22.1756 21.3949C22.3365 21.4428 22.1697 21.4788 21.8182 21.4848C21.2344 21.4848 20.2455 21.4848 19.8523 21.4788C18.089 21.4908 16.4746 21.5088 14.6934 21.5207C15.6644 21.5327 16.5699 21.5028 17.4396 21.5207C17.4396 21.5088 17.4694 21.5088 17.535 21.5088C18.3928 21.5088 19.3459 21.5088 20.0966 21.4968C20.4123 21.5267 21.0199 21.4968 21.3416 21.5207C21.2642 21.5687 21.0021 21.5926 20.6684 21.6046C21.008 21.6046 21.3178 21.6166 21.6037 21.6226C21.8361 21.6226 22.2352 21.6106 22.3543 21.6226C22.3841 21.6226 22.3305 21.6346 22.3841 21.6346C22.2888 21.6346 22.5509 21.6346 22.5748 21.6346C22.6999 21.6346 22.676 21.6226 22.825 21.6286C23.0156 21.6286 23.0156 21.6286 23.1347 21.6406C23.8079 21.6406 24.4215 21.6406 25.1006 21.6406C25.1721 21.6406 25.3032 21.6406 25.321 21.6406C25.3806 21.6406 25.3329 21.6526 25.4104 21.6526C25.458 21.6526 25.4342 21.6406 25.5057 21.6466C25.6249 21.6466 25.7619 21.6466 25.8751 21.6526C25.8989 21.6526 25.9227 21.6526 25.9525 21.6526C25.9525 22.0061 25.9525 22.3956 25.9465 22.6772C25.9465 22.7971 25.9287 22.6413 25.9287 22.7971C25.9227 23.7139 25.9108 24.6787 25.9048 25.6494C25.9048 25.7213 25.887 25.6614 25.887 25.7693C25.887 25.9011 25.9048 25.8711 25.9048 25.991C25.9048 26.0689 25.8929 26.1348 25.881 26.1767C25.8631 27.2973 25.881 28.4478 25.887 29.5984C25.887 30.8148 25.8929 32.0312 25.8989 33.1817C25.8989 33.3975 25.8989 33.6132 25.8989 33.8229C26.4708 33.8229 27.0308 33.8169 27.5729 33.8109C27.8945 33.8109 28.1984 33.8109 28.5081 33.8109C29.4911 33.8109 30.3013 33.7989 31.1948 33.793C31.8382 33.793 32.5352 33.793 33.1012 33.793C33.1846 33.793 33.3216 33.787 33.4169 33.781C33.5658 33.781 33.7684 33.793 33.9113 33.793C34.3462 33.793 34.8228 33.781 35.2577 33.775C35.5377 33.775 35.8117 33.775 36.0857 33.775H36.0917C36.0917 33.8409 36.1036 33.9068 36.1036 33.9727C36.1036 34.1225 36.0976 34.3083 36.0917 34.4701C36.0917 34.9914 36.1036 35.5427 36.1096 36.0401C36.1096 36.7112 36.0857 37.4003 36.1096 38.0774C36.0976 38.8265 36.0976 39.7433 36.1096 40.4624C36.0738 41.0436 36.1096 41.6549 36.1036 42.314C36.1036 42.3679 36.0976 42.4398 36.0917 42.4998C36.0917 42.7814 36.0917 43.0451 36.0857 43.3147C36.0857 43.6802 36.0857 44.0398 36.0857 44.4053C36.6159 44.4053 37.1461 44.4053 37.6406 44.3993C37.9205 44.3993 38.1707 44.3993 38.4329 44.3993C38.7367 44.3754 38.9928 44.3993 39.2728 44.4053C39.5767 44.4053 39.8566 44.3933 40.1485 44.3933C40.2319 44.3933 40.3451 44.3993 40.4285 44.4053C40.7145 44.4053 41.0183 44.3933 41.334 44.3933C41.8166 44.3933 42.3348 44.4293 42.8948 44.4053C43.3237 44.4233 43.9612 44.4413 44.4497 44.4173C45.2837 44.4473 46.1236 44.4173 46.9755 44.4293C47.2615 44.4293 47.5236 44.4592 47.8155 44.4353C48.1193 44.4592 48.4767 44.4473 48.8401 44.4473C49.0725 44.4473 49.0486 44.4473 49.0844 44.4592L49.1678 44.4712V44.4832C49.1678 44.5371 49.1678 44.5971 49.1678 44.657C49.1678 44.9446 49.1559 45.2143 49.132 45.418C49.0367 45.6038 49.1797 45.9633 49.1559 46.3948C49.138 46.6225 49.1082 46.5925 49.0725 46.6944C49.0605 46.8981 49.0725 47.0899 49.0725 47.2936C49.0605 47.5273 49.0188 47.6951 49.0188 48.0067L49.0308 48.0426ZM22.1458 20.8556C22.1458 20.8556 22.1458 20.8496 22.1161 20.8496C22.1816 20.8316 22.3305 20.8616 22.1458 20.8556ZM22.0803 20.8616C21.8182 20.8616 21.4548 20.8856 21.2701 20.8616C21.2225 20.8616 21.3178 20.8856 21.2344 20.8915C21.1212 20.8796 20.9901 20.8736 20.7995 20.8736C20.7876 20.8376 21.1689 20.8616 21.1808 20.8256C21.3297 20.8256 21.4012 20.8256 21.4667 20.8136C21.7646 20.8256 21.8301 20.8017 22.0565 20.8136C21.9969 20.8316 22.0982 20.8316 22.0803 20.8496V20.8616Z" fill="white"/>
<path fill-rule="evenodd" clip-rule="evenodd" d="M55.4048 28.6784C55.375 28.6844 55.3154 28.6844 55.2559 28.6844C55.2737 28.6724 55.3571 28.6664 55.4048 28.6784Z" fill="white"/>
<path fill-rule="evenodd" clip-rule="evenodd" d="M53.1216 27.4766C53.0739 27.4766 52.9309 27.4945 52.9488 27.4766C53.0322 27.4766 53.062 27.4766 53.1216 27.4766Z" fill="white"/>
<path fill-rule="evenodd" clip-rule="evenodd" d="M52.872 27.4543C52.872 27.4543 52.7469 27.4543 52.6992 27.4543C52.6992 27.4423 52.8422 27.4423 52.872 27.4543Z" fill="white"/>
<path fill-rule="evenodd" clip-rule="evenodd" d="M52.1689 27.6342C52.1331 27.6402 52.0378 27.6462 51.9961 27.6342C52.008 27.6222 52.1212 27.6342 52.1689 27.6342Z" fill="white"/>
<path fill-rule="evenodd" clip-rule="evenodd" d="M51.8526 27.4414C51.7931 27.4534 51.6918 27.4534 51.5488 27.4534C51.5965 27.4414 51.7395 27.4414 51.8526 27.4414Z" fill="white"/>
<path fill-rule="evenodd" clip-rule="evenodd" d="M50.984 28.3841C50.8291 28.3841 50.5193 28.4021 50.4121 28.3841C50.5968 28.3961 50.8112 28.3781 50.984 28.3841Z" fill="white"/>
<path fill-rule="evenodd" clip-rule="evenodd" d="M50.5717 27.9708C50.381 27.9948 50.0415 27.9708 49.7972 27.9828C49.7615 27.9589 50.1546 27.9828 50.2261 27.9648C50.2678 27.9648 50.3214 27.9708 50.3751 27.9768C50.4406 27.9768 50.5061 27.9589 50.5776 27.9768L50.5717 27.9708Z" fill="white"/>
<path fill-rule="evenodd" clip-rule="evenodd" d="M48.2321 27.9102C48.2321 27.9102 48.2202 27.9281 48.1547 27.9281C48.1368 27.9281 48.1309 27.9161 48.1309 27.9102H48.2321Z" fill="white"/>
<path fill-rule="evenodd" clip-rule="evenodd" d="M47.2613 28.0547C47.1064 28.0727 46.7549 28.0727 46.5643 28.0547C46.5405 28.0547 46.5345 28.0667 46.4868 28.0607C46.3677 28.0607 46.1115 28.0607 46.3617 28.0607C46.6715 28.0487 46.9217 28.0607 47.2613 28.0547Z" fill="white"/>
<path fill-rule="evenodd" clip-rule="evenodd" d="M47.1475 27.8399C47.1117 27.8459 47.0462 27.8459 46.9688 27.8459C46.9866 27.8339 47.1177 27.8339 47.1475 27.8399Z" fill="white"/>
<path fill-rule="evenodd" clip-rule="evenodd" d="M46.908 28.3999C46.908 28.3999 46.7531 28.3999 46.6816 28.3999C46.7293 28.3999 46.8484 28.3879 46.908 28.3999Z" fill="white"/>
<path fill-rule="evenodd" clip-rule="evenodd" d="M46.9627 27.9102C46.9031 27.9221 46.7601 27.9161 46.6827 27.9281C46.6171 27.9102 46.8673 27.9161 46.9627 27.9102Z" fill="white"/>
<path fill-rule="evenodd" clip-rule="evenodd" d="M46.8429 27.8516C46.7952 27.8635 46.6463 27.8635 46.5391 27.8635C46.6046 27.8516 46.7416 27.8576 46.8429 27.8516Z" fill="white"/>
<path fill-rule="evenodd" clip-rule="evenodd" d="M46.6709 28.5078C46.6709 28.5078 46.5637 28.5198 46.4922 28.5258C46.5101 28.5138 46.6054 28.5138 46.6709 28.5078Z" fill="white"/>
<path fill-rule="evenodd" clip-rule="evenodd" d="M46.557 28.4024C46.4736 28.4144 46.1937 28.4084 46.0566 28.4084C46.2294 28.3964 46.3664 28.3964 46.557 28.4024Z" fill="white"/>
<path fill-rule="evenodd" clip-rule="evenodd" d="M46.4913 27.8628C46.3603 27.8808 46.1756 27.8628 46.0684 27.8628C46.1875 27.8509 46.3603 27.8748 46.4913 27.8628Z" fill="white"/>
<path fill-rule="evenodd" clip-rule="evenodd" d="M46.1642 28.0674C46.1166 28.0734 46.0332 28.0734 45.9617 28.0793C45.9498 28.0614 46.0808 28.0674 46.1642 28.0674Z" fill="white"/>
<path fill-rule="evenodd" clip-rule="evenodd" d="M45.9447 28.017C45.8852 28.029 45.8315 28.017 45.7422 28.017C45.7601 28.0051 45.8852 28.017 45.9447 28.017Z" fill="white"/>
<path fill-rule="evenodd" clip-rule="evenodd" d="M45.7289 27.969C45.7289 27.969 45.5145 27.981 45.5562 27.957C45.6098 27.957 45.6038 27.963 45.6038 27.969C45.6634 27.969 45.6574 27.963 45.7289 27.969Z" fill="white"/>
<path fill-rule="evenodd" clip-rule="evenodd" d="M45.2051 28.2989C45.3302 28.2809 45.5387 28.3109 45.2051 28.2989V28.2989Z" fill="white"/>
<path fill-rule="evenodd" clip-rule="evenodd" d="M44.9312 28.4558C44.8299 28.4618 44.7286 28.4618 44.6035 28.4558C44.681 28.4558 44.8775 28.4498 44.9312 28.4558Z" fill="white"/>
<path fill-rule="evenodd" clip-rule="evenodd" d="M44.8476 28.4805C44.8833 28.4925 44.6808 28.4925 44.7225 28.4805H44.8476Z" fill="white"/>
<path fill-rule="evenodd" clip-rule="evenodd" d="M44.6162 28.7071C44.5805 28.7131 44.503 28.719 44.4375 28.7131C44.4554 28.7011 44.5864 28.7011 44.6162 28.7071Z" fill="white"/>
<path fill-rule="evenodd" clip-rule="evenodd" d="M43.9185 28.6875C43.6385 28.6875 43.71 28.7055 43.9185 28.6875V28.6875Z" fill="white"/>
<path fill-rule="evenodd" clip-rule="evenodd" d="M49.5366 28.6936C49.4949 28.6936 49.4354 28.6996 49.4115 28.7116C49.3341 28.6936 49.1911 28.7116 49.0898 28.6996C49.2149 28.6817 49.352 28.6996 49.5426 28.6936H49.5366Z" fill="white"/>
<path fill-rule="evenodd" clip-rule="evenodd" d="M46.7483 28.322C46.6887 28.322 46.6947 28.316 46.6232 28.322C46.6172 28.316 46.647 28.316 46.653 28.31C46.5219 28.31 46.4564 28.31 46.3551 28.31C46.367 28.31 46.3849 28.304 46.3849 28.2981C46.2419 28.322 46.0811 28.2861 45.7832 28.2981C46.0632 28.2741 46.6887 28.2921 46.9329 28.2861C46.8972 28.304 46.6827 28.2861 46.653 28.304C46.647 28.316 46.79 28.304 46.7483 28.328V28.322Z" fill="white"/>
<path fill-rule="evenodd" clip-rule="evenodd" d="M46.4864 27.9155C46.4805 27.9275 46.3792 27.9155 46.3613 27.9155C46.3911 27.9035 46.7188 27.9155 46.4864 27.9155Z" fill="white"/>
<path fill-rule="evenodd" clip-rule="evenodd" d="M44.6277 27.962V27.944C44.4728 27.944 44.2166 27.944 44.1094 27.932C44.3 27.9201 44.6991 27.95 44.8362 27.9201C44.8898 27.9201 44.9076 27.9201 44.9613 27.932C45.4021 27.9021 45.8787 27.932 46.3374 27.9141C46.1348 27.962 45.6642 27.8961 45.4319 27.944C45.3961 27.944 45.4319 27.944 45.4557 27.944C45.2532 27.944 44.8898 27.932 44.6277 27.962Z" fill="white"/>
<path fill-rule="evenodd" clip-rule="evenodd" d="M44.7946 28.5145C44.7291 28.5205 44.6993 28.5265 44.6397 28.5325C44.6159 28.5325 44.741 28.5026 44.7946 28.5145Z" fill="white"/>
<path fill-rule="evenodd" clip-rule="evenodd" d="M47.8085 18.0346C47.7429 17.9747 47.6178 17.8549 47.5523 17.7949C47.3617 17.5972 47.2008 17.4114 46.9983 17.2197C46.8434 17.0759 46.6111 16.8661 46.4621 16.7223C46.343 16.6085 46.2775 16.5485 46.1881 16.4647C45.92 16.213 45.7115 15.9913 45.5685 15.9074C45.3362 15.7096 45.1635 15.5598 44.949 15.38C44.9192 15.3561 44.8716 15.3021 44.8596 15.2902C44.4069 14.9246 44.0792 14.7509 43.5669 14.3014C43.5073 14.2775 43.4537 14.2715 43.3525 14.2116C43.3048 14.1876 43.2154 14.1097 43.1797 14.0917C43.0427 14.0318 43.0844 14.1636 42.8699 14.0078C42.8521 14.0078 42.8818 14.0438 42.8818 14.0617C42.7984 14.1337 42.8104 14.2655 42.7031 14.2835C42.7925 14.4453 42.727 14.4572 42.7865 14.5891C42.8282 14.673 42.9235 14.8108 42.9831 14.9067C43.0486 15.0205 43.1261 15.1284 43.1737 15.2242C43.1499 15.2482 43.2571 15.3621 43.2631 15.404C43.3644 15.5358 43.4954 15.7036 43.5967 15.8355C43.5967 15.8594 43.6325 15.8954 43.6265 15.9074C43.8767 16.2429 44.1269 16.5905 44.5082 17.01C44.5439 17.0519 44.6213 17.1298 44.663 17.1717C44.9609 17.4714 45.4077 17.9448 45.5328 18.1305C45.5864 18.1844 45.5924 18.1785 45.64 18.2384C45.6579 18.2863 45.789 18.4721 45.926 18.6099C45.9736 18.6578 46.0749 18.7237 46.1821 18.8256C46.343 18.9754 46.4562 19.1492 46.5991 19.287C46.6647 19.3469 46.7481 19.4009 46.8196 19.4668C47.0042 19.6346 47.3438 19.9941 47.4808 20.1499C47.588 20.2698 47.6178 20.3297 47.7072 20.4136C47.7906 20.4915 47.8621 20.5334 47.8799 20.5035C48.154 20.6832 48.6901 21.3064 49.0595 21.636C49.2918 21.9117 49.5658 22.1274 49.8041 22.379C49.8399 22.421 49.9173 22.5049 49.9531 22.5468C50.0245 22.6127 50.1675 22.7446 50.2688 22.8405C50.4654 23.0322 50.5845 23.1461 50.7752 23.3318C50.9777 23.6015 51.1802 23.7393 51.3768 23.937C51.4304 23.997 51.5317 24.1108 51.5913 24.1767C51.6509 24.2307 51.7462 24.3206 51.8117 24.3865C51.8713 24.4524 51.9726 24.5662 52.0262 24.6262C52.0738 24.6681 52.1334 24.728 52.1751 24.764C52.2347 24.8239 52.2645 24.8718 52.324 24.9318C52.3717 24.9737 52.4849 25.0756 52.5325 25.1175C52.7768 25.3572 53.021 25.6329 53.2712 25.8366C53.4678 26.0523 53.6584 26.2441 53.861 26.4478C53.9623 26.5497 54.0635 26.6516 54.1708 26.7594C54.3137 26.9092 54.4686 27.071 54.6652 27.2748C54.8856 27.4845 55.0405 27.6403 55.2669 27.88C55.3145 27.9279 55.3145 27.9099 55.398 27.9938C55.8507 28.4732 56.2975 28.8807 56.7622 29.3781C56.7741 29.3781 56.786 29.39 56.8158 29.414L56.9766 29.5878C56.9945 28.7728 56.9945 27.7302 56.9707 27.065C56.9826 26.8014 56.9826 26.5017 56.9766 26.1901C56.9766 25.9565 56.9707 25.7048 56.9647 25.4651C56.9647 25.2853 56.9766 25.1055 56.9707 24.9378C56.9707 24.5782 56.9707 24.1827 56.9707 23.8591C56.9707 23.7872 56.9587 23.6494 56.9528 23.5775C56.9528 23.4037 56.9528 23.2539 56.9528 23.0502C56.929 22.3611 56.9468 21.5701 56.9468 20.9649C56.9468 20.8031 56.9349 20.6053 56.929 20.4076C56.923 20.06 56.9409 19.7005 56.9409 19.3529C56.9409 19.281 56.9349 19.1672 56.929 19.1013C56.929 18.8795 56.929 18.6938 56.929 18.4721C56.929 17.9328 56.9051 17.3935 56.929 16.8901C56.9051 16.3987 56.9051 15.7396 56.9051 15.1224H55.7196C55.7196 15.3201 55.7196 15.5119 55.7196 15.6916C55.7435 15.8594 55.7196 16.0212 55.7256 16.195C55.7375 16.7343 55.7613 17.4174 55.7435 17.9807C55.7673 20.4076 55.7911 22.7206 55.815 25.1475C55.7971 25.3333 55.809 25.6149 55.815 25.7767C55.803 25.8126 55.803 25.9205 55.803 25.9984C55.8328 26.292 55.803 26.6575 55.815 27.0291C55.8447 27.107 55.8209 27.1789 55.8447 27.2628C55.8269 27.2807 55.8328 27.2208 55.8209 27.2628C55.8388 27.3107 55.8507 27.3946 55.8507 27.4905C55.666 27.4905 55.4754 27.4965 55.3324 27.5025C55.3562 27.5025 55.3622 27.5085 55.3324 27.5085C55.2431 27.4965 55.2014 27.5204 55.106 27.5204C54.4508 27.5204 53.9801 27.5744 53.4202 27.5923C53.3487 27.5864 53.164 27.5624 53.0985 27.5804C53.1997 27.5804 53.3308 27.5804 53.3189 27.6043C53.1521 27.5983 52.9317 27.6043 52.8185 27.6223C52.61 27.6223 52.5027 27.6103 52.3181 27.6283C52.2704 27.6283 52.3598 27.6523 52.2645 27.6523C51.9309 27.6523 51.8713 27.6523 51.5675 27.6523C51.49 27.6702 51.1862 27.6762 51.0909 27.6702C51.0075 27.6762 51.1862 27.6882 51.1147 27.6942C50.8764 27.7002 50.656 27.7062 50.4415 27.6942C50.3879 27.7062 50.3522 27.7182 50.2628 27.7182C50.2033 27.7182 50.2807 27.7002 50.1913 27.7062C50.1079 27.7182 50.2569 27.7242 50.233 27.7422C50.1139 27.7481 50.1377 27.7601 50.0782 27.7721C49.9114 27.7601 49.7982 27.7841 49.6492 27.7901C49.4586 27.7901 49.3514 27.7901 49.1727 27.7961C49.0476 27.7961 48.988 27.8141 48.845 27.8141C48.7259 27.8141 48.6306 27.7961 48.4995 27.8021C48.428 27.8021 48.5472 27.8201 48.4459 27.8201C47.9872 27.8201 47.5285 27.832 47.1889 27.856C47.7072 27.8201 48.0884 27.856 48.5412 27.826C48.6127 27.844 48.7437 27.8141 48.8152 27.838C48.845 27.826 48.7437 27.8201 48.845 27.8201C48.8808 27.8201 48.8927 27.826 48.9463 27.8201C48.8808 27.844 48.9761 27.844 49.0178 27.862C49.399 27.862 49.7148 27.856 50.0424 27.85C50.102 27.85 50.0007 27.838 50.0722 27.832C50.2092 27.832 50.2747 27.832 50.4475 27.826C50.4952 27.844 50.5964 27.85 50.5369 27.874C50.1139 27.886 49.4407 27.898 48.9344 27.9099C48.7735 27.9099 48.6008 27.892 48.5055 27.9219C48.7497 27.9159 48.9403 27.9459 49.1488 27.9459C49.4229 27.9459 49.7088 27.9219 49.9769 27.9279C50.0365 27.9279 50.102 27.9339 50.1496 27.9399C50.1854 27.9399 50.3105 27.9279 50.3522 27.9279C50.4177 27.9279 50.4177 27.9399 50.4773 27.9399C50.5905 27.9399 50.6798 27.9219 50.8049 27.9219C51.0134 27.9219 51.2219 27.9399 51.4543 27.9339C51.496 27.9399 51.4781 27.9579 51.4245 27.9639C51.1505 27.9639 51.1028 27.9639 50.8228 27.9639C50.8526 27.9639 50.8705 27.9639 50.8705 27.9759C50.7871 27.9759 50.7513 27.9699 50.6977 27.9759C50.9062 27.9759 50.8883 28.0058 50.8169 28.0238C50.2986 28.0238 49.6671 28.0358 49.2441 28.0238C49.1965 28.0358 49.1667 28.0478 49.0893 28.0478C48.5829 28.0478 48.1004 28.0538 47.5642 28.0597C48.148 28.0837 48.7557 28.0717 49.4348 28.0597C49.4586 28.0597 49.4348 28.0777 49.5063 28.0717C49.8458 28.0717 50.1318 28.0597 50.3581 28.0597C50.4535 28.0777 50.5488 28.0957 50.6501 28.1197C51.359 28.1017 51.8832 28.1796 52.5623 28.1796C52.5623 28.1916 52.61 28.1976 52.6338 28.2036C52.5802 28.2155 52.5444 28.2275 52.4789 28.2395C52.3657 28.2395 52.2525 28.2455 52.1572 28.2395C51.5853 28.2755 50.7692 28.2515 50.0543 28.2755C49.965 28.2994 50.0365 28.3114 50.096 28.3294C50.4415 28.3414 50.7513 28.3114 51.1207 28.3414C51.2517 28.3893 51.1147 28.4253 50.8347 28.4313C50.3641 28.4313 49.5837 28.4313 49.262 28.4253C47.8263 28.4373 46.5694 28.4552 45.1337 28.4672C45.9141 28.4792 46.6349 28.4492 47.3319 28.4672C47.3319 28.4552 47.3557 28.4552 47.4093 28.4552C48.0944 28.4552 48.8569 28.4552 49.4586 28.4433C49.7088 28.4732 50.1973 28.4433 50.4535 28.4672C50.3879 28.5152 50.1794 28.5391 49.9173 28.5511C50.1854 28.5511 50.4356 28.5631 50.662 28.5691C50.8466 28.5691 51.1683 28.5571 51.2636 28.5691C51.2875 28.5691 51.2398 28.5811 51.2875 28.5811C51.21 28.5811 51.4245 28.5811 51.4364 28.5811C51.5377 28.5811 51.5198 28.5691 51.6389 28.5751C51.7938 28.5751 51.7879 28.5751 51.8892 28.5871C52.4313 28.5871 52.9078 28.5871 53.4619 28.5871C53.5214 28.5871 53.6227 28.5871 53.6346 28.5871C53.6823 28.5871 53.6406 28.5991 53.7061 28.5991C53.7418 28.5991 53.724 28.5871 53.7835 28.5931C53.998 28.5931 54.2303 28.5931 54.4329 28.5991C55.0822 28.5991 55.8447 28.5991 56.3749 28.605C56.5417 28.605 56.3332 28.623 56.5537 28.623C56.6907 28.623 56.8336 28.623 56.9885 28.623C56.9945 27.7481 57.0004 26.8373 57.0064 25.9145C57.0064 25.8546 57.0243 25.9025 57.0243 25.8186C57.0243 25.7108 57.0064 25.7347 57.0064 25.6389C57.0064 25.5789 57.0183 25.525 57.0302 25.4891C57.0481 24.5962 57.0302 23.6734 57.0243 22.7506C57.0243 21.8877 57.0183 21.0308 57.0124 20.2098C57.0124 19.5687 56.9885 18.9515 57.0064 18.3762C57.0064 17.5732 56.9945 16.9321 56.9885 16.213C56.9885 15.8534 56.9885 15.4639 56.9885 15.1164H55.6482C55.6482 15.2722 55.6482 15.416 55.6482 15.5538C55.6482 15.6197 55.6541 15.7396 55.6601 15.8055C55.6601 15.9194 55.6482 16.0931 55.6482 16.207C55.6482 16.5545 55.6601 16.944 55.666 17.2916C55.666 17.6931 55.666 18.0766 55.666 18.4721C55.666 18.6818 55.6779 18.9215 55.6779 19.1252C55.6779 19.2571 55.672 19.4368 55.666 19.5747C55.666 19.9881 55.6779 20.4375 55.6839 20.833C55.6839 21.3723 55.6601 21.9236 55.6839 22.4629C55.672 23.0622 55.672 23.7932 55.6839 24.3685C55.666 24.6022 55.666 24.8419 55.672 25.0876C55.672 25.3213 55.672 25.555 55.6779 25.8007C55.6779 25.8126 55.672 25.8246 55.666 25.8366C55.6482 25.9804 55.666 26.1662 55.666 26.322C55.6422 26.298 55.6184 26.268 55.5945 26.2381C55.5648 26.2381 55.5111 26.1542 55.4814 26.1122C55.4397 26.0643 55.4039 26.0463 55.3622 26.0044C55.3503 25.9924 55.3443 25.9684 55.3324 25.9565C55.1954 25.8246 55.0465 25.6748 54.8916 25.525C54.6176 25.2494 54.3495 24.9258 54.0218 24.6262C53.7895 24.3685 53.4499 23.991 53.158 23.7213C52.7172 23.224 52.2168 22.7685 51.7462 22.2652C51.5853 22.0974 51.4543 21.9296 51.2815 21.7798C51.1266 21.5881 50.9181 21.3963 50.7156 21.1806C50.5309 20.9828 50.3045 20.7372 50.102 20.5214C49.8041 20.2038 49.4109 19.8323 49.2203 19.5687C49.1846 19.3949 48.8808 19.293 48.6544 19.0294C48.5412 18.8855 48.5769 18.8795 48.5472 18.8016C48.4459 18.6758 48.3267 18.5739 48.2135 18.4601C48.0884 18.3223 48.0289 18.1904 47.8561 18.0167L47.8085 18.0346ZM51.0551 27.7721C51.0551 27.7721 51.0551 27.7661 51.0313 27.7661C51.0849 27.7481 51.2041 27.7781 51.0551 27.7721ZM51.0015 27.7781C50.793 27.7781 50.5011 27.8021 50.3522 27.7781C50.3105 27.7781 50.3879 27.8021 50.3224 27.8081C50.233 27.7961 50.1318 27.7901 49.9769 27.7901C49.965 27.7541 50.2688 27.7781 50.2807 27.7422C50.3998 27.7422 50.4535 27.7422 50.5071 27.7302C50.7454 27.7422 50.799 27.7182 50.9837 27.7302C50.936 27.7481 51.0134 27.7481 51.0015 27.7661V27.7781Z" fill="white"/>
</g>
<defs>
<clipPath id="clip0_868_22677">
<rect width="44" height="42" fill="white" transform="translate(13 14)"/>
</clipPath>
</defs>
</svg>
