<svg width="70" height="70" viewBox="0 0 70 70" fill="none" xmlns="http://www.w3.org/2000/svg">
<g clip-path="url(#clip0_868_21749)">
<path fill-rule="evenodd" clip-rule="evenodd" d="M39.5098 34.2891C39.5567 34.2891 39.6334 34.2977 39.7272 34.3105C39.7059 34.3148 39.5822 34.3105 39.5098 34.2891Z" fill="white"/>
<path fill-rule="evenodd" clip-rule="evenodd" d="M42.5488 35.6836C42.6128 35.6922 42.8089 35.7308 42.7833 35.7394C42.6767 35.7137 42.6256 35.7008 42.5488 35.6836Z" fill="white"/>
<path fill-rule="evenodd" clip-rule="evenodd" d="M42.8789 35.7773C42.8789 35.7773 43.0452 35.8203 43.1134 35.8375C43.1091 35.8461 42.9215 35.7945 42.8789 35.7773Z" fill="white"/>
<path fill-rule="evenodd" clip-rule="evenodd" d="M43.8535 35.9062C43.9047 35.9148 44.0326 35.9492 44.088 35.9707C44.0709 35.9707 43.9217 35.9234 43.8535 35.9062Z" fill="white"/>
<path fill-rule="evenodd" clip-rule="evenodd" d="M44.2422 36.1641C44.3232 36.1812 44.4596 36.2242 44.6429 36.2843C44.5747 36.2714 44.3871 36.207 44.2422 36.1641Z" fill="white"/>
<path fill-rule="evenodd" clip-rule="evenodd" d="M45.6152 35.9219C45.8199 35.9906 46.2376 36.1538 46.3783 36.2225C46.1353 36.1194 45.8454 36.0121 45.6152 35.9219Z" fill="white"/>
<path fill-rule="evenodd" clip-rule="evenodd" d="M46.0547 36.4062C46.3147 36.4878 46.7453 36.6983 47.0608 36.8357C47.0991 36.8658 46.6004 36.6253 46.5066 36.5995C46.4384 36.5694 46.3787 36.5394 46.319 36.5093C46.2295 36.475 46.1442 36.4492 46.0547 36.4062Z" fill="white"/>
<path fill-rule="evenodd" clip-rule="evenodd" d="M48.957 37.9648C48.957 37.9648 48.9783 37.9648 49.0551 38.0164C49.0764 38.0336 49.0807 38.0421 49.0721 38.0464C49.0338 38.0164 48.9954 37.9949 48.957 37.9691V37.9648Z" fill="white"/>
<path fill-rule="evenodd" clip-rule="evenodd" d="M50.1133 38.7109C50.2923 38.8398 50.659 39.1876 50.8337 39.4024C50.8593 39.4281 50.8636 39.4281 50.9105 39.4797C51.0256 39.5999 51.26 39.8876 51.0256 39.6128C50.7272 39.2864 50.4884 39.0244 50.1133 38.7109Z" fill="white"/>
<path fill-rule="evenodd" clip-rule="evenodd" d="M50.1328 38.9375C50.1754 38.9676 50.2437 39.0234 50.3204 39.1007C50.2991 39.0835 50.1627 38.9676 50.1328 38.9375Z" fill="white"/>
<path fill-rule="evenodd" clip-rule="evenodd" d="M50.6543 38.8711C50.6884 38.8969 50.8163 39.0343 50.8888 39.103C50.8333 39.0558 50.7055 38.9355 50.6543 38.8711Z" fill="white"/>
<path fill-rule="evenodd" clip-rule="evenodd" d="M50.3633 39.0781C50.4315 39.134 50.5679 39.2714 50.6489 39.3444C50.7086 39.4217 50.4613 39.1726 50.3633 39.0781Z" fill="white"/>
<path fill-rule="evenodd" clip-rule="evenodd" d="M50.4453 39.2227C50.5007 39.2656 50.6457 39.403 50.748 39.519C50.684 39.4546 50.5476 39.3171 50.4453 39.2227Z" fill="white"/>
<path fill-rule="evenodd" clip-rule="evenodd" d="M50.957 39.0664C50.957 39.0664 51.0721 39.1781 51.1446 39.2554C51.1233 39.2468 51.0252 39.1308 50.957 39.0664Z" fill="white"/>
<path fill-rule="evenodd" clip-rule="evenodd" d="M51.0117 39.2383C51.1012 39.3199 51.3698 39.6334 51.4892 39.8009C51.3272 39.5947 51.1993 39.4487 51.0117 39.2383Z" fill="white"/>
<path fill-rule="evenodd" clip-rule="evenodd" d="M50.7949 39.5703C50.9313 39.6906 51.0891 39.9053 51.1786 40.0298C51.072 39.901 50.9313 39.7034 50.7949 39.5703Z" fill="white"/>
<path fill-rule="evenodd" clip-rule="evenodd" d="M51.2031 39.8359C51.2671 39.9132 51.3268 39.9862 51.3864 40.0593C51.3864 40.0807 51.2756 39.9304 51.2031 39.8359Z" fill="white"/>
<path fill-rule="evenodd" clip-rule="evenodd" d="M51.3691 40.1016C51.4246 40.166 51.4629 40.2304 51.5311 40.3378C51.5098 40.3163 51.4203 40.1703 51.3691 40.1016Z" fill="white"/>
<path fill-rule="evenodd" clip-rule="evenodd" d="M51.5098 40.3789C51.5439 40.4047 51.6803 40.6323 51.6377 40.5893C51.5993 40.5249 51.6078 40.5292 51.6121 40.5249C51.5652 40.4562 51.5694 40.4605 51.5098 40.3789Z" fill="white"/>
<path fill-rule="evenodd" clip-rule="evenodd" d="M52.091 40.9295C51.8693 40.4872 52.0058 40.7663 52.091 40.9295V40.9295Z" fill="white"/>
<path fill-rule="evenodd" clip-rule="evenodd" d="M52.3594 41.2578C52.4148 41.4038 52.4745 41.5498 52.5171 41.7259C52.4873 41.6143 52.3764 41.3308 52.3594 41.2578Z" fill="white"/>
<path fill-rule="evenodd" clip-rule="evenodd" d="M52.4146 41.3665C52.406 41.3107 52.5084 41.6027 52.4785 41.5469L52.4146 41.3665Z" fill="white"/>
<path fill-rule="evenodd" clip-rule="evenodd" d="M52.6875 41.6602C52.7088 41.7117 52.7387 41.8319 52.76 41.9307C52.7472 41.9049 52.696 41.7074 52.6875 41.6602Z" fill="white"/>
<path fill-rule="evenodd" clip-rule="evenodd" d="M52.8574 42.7539C52.8787 43.2005 52.8873 43.0846 52.8574 42.7539V42.7539Z" fill="white"/>
<path fill-rule="evenodd" clip-rule="evenodd" d="M47.6191 36.543C47.6746 36.5687 47.7215 36.5859 47.7897 36.616C47.8834 36.6804 48.071 36.7663 48.2032 36.8436C48.0327 36.7706 47.8664 36.6546 47.6191 36.543Z" fill="white"/>
<path fill-rule="evenodd" clip-rule="evenodd" d="M50.7854 39.0815C50.8408 39.1417 50.8408 39.1417 50.909 39.2104C50.909 39.219 50.8835 39.1889 50.8749 39.1889C50.9986 39.3263 51.0668 39.3993 51.1691 39.5153C51.152 39.5024 51.1392 39.4895 51.135 39.4895C51.2799 39.6355 51.4206 39.8331 51.6636 40.1895C51.4334 39.846 50.8451 39.146 50.5723 38.9141C50.6192 38.9441 50.8323 39.1717 50.8707 39.1889C50.8835 39.1889 50.73 39.0472 50.7812 39.0773L50.7854 39.0815Z" fill="white"/>
<path fill-rule="evenodd" clip-rule="evenodd" d="M50.8321 39.5531C50.8492 39.566 50.8577 39.5832 50.8321 39.5531C50.8449 39.5531 50.9344 39.6691 50.9472 39.6862C50.9131 39.6605 50.6062 39.3083 50.8278 39.5574L50.8321 39.5531Z" fill="white"/>
<path fill-rule="evenodd" clip-rule="evenodd" d="M52.1706 41.7856H52.1578C52.1834 41.8973 52.2217 42.039 52.2558 42.1721C52.2771 42.3095 52.2942 42.4384 52.2985 42.5114C52.2644 42.2451 52.1493 41.6868 52.0512 41.515C52.0341 41.4592 52.0171 41.4034 52 41.3476C51.7528 40.7764 51.399 40.1923 50.9727 39.707C51.1858 39.9046 51.5439 40.4586 51.7187 40.742C51.7443 40.7893 51.7187 40.742 51.6974 40.712C51.8551 40.9525 52.0427 41.4334 52.1706 41.7813V41.7856Z" fill="white"/>
<path fill-rule="evenodd" clip-rule="evenodd" d="M52.4648 41.4336C52.4947 41.5152 52.5203 41.5753 52.5501 41.6526C52.5629 41.687 52.4819 41.5109 52.4648 41.4336Z" fill="white"/>
<path fill-rule="evenodd" clip-rule="evenodd" d="M46.962 49.9633C47.1112 49.8989 47.269 49.813 47.4224 49.7357C47.7848 49.5639 48.1088 49.405 48.4584 49.1989C48.7696 49.0185 49.0467 48.8209 49.3579 48.6105C49.571 48.4516 49.6563 48.3872 49.8055 48.2755C50.236 47.9363 50.5813 47.6357 50.7348 47.451C50.9991 47.1675 51.3274 46.8025 51.5235 46.5148C51.5661 46.4546 51.6215 46.3859 51.6386 46.3645C52.1118 45.6258 52.3249 45.1062 52.5466 44.1012C52.5509 44.011 52.5381 43.9466 52.5423 43.7705C52.5423 43.6932 52.5679 43.5172 52.5551 43.4613C52.5296 43.2509 52.4699 43.427 52.4613 43.0491C52.4528 43.0276 52.4486 43.0963 52.44 43.1135C52.3633 43.1006 52.2908 43.2466 52.2397 43.1521C52.1885 43.3969 52.1629 43.3411 52.1075 43.5215C52.0649 43.6331 52.0265 43.8521 51.9626 43.9896C51.9029 44.1485 51.8389 44.3117 51.7665 44.4319C51.7452 44.4233 51.6769 44.6209 51.6386 44.6466C51.5235 44.8743 51.4212 45.0417 51.2762 45.2565C51.2592 45.2736 51.2251 45.3252 51.2123 45.3252C50.8925 45.7675 50.5089 46.1669 49.9547 46.6737C49.9035 46.7209 49.7927 46.8154 49.7287 46.8669C49.311 47.2448 48.5863 47.7344 48.3134 47.8633C48.2282 47.9191 48.2324 47.9234 48.1429 47.9706C48.079 47.9878 47.8104 48.1252 47.5759 48.2455C47.4949 48.2884 47.367 48.3786 47.1922 48.4774C46.9279 48.6105 46.6679 48.7136 46.4206 48.8209C46.3098 48.8725 46.1947 48.9412 46.0796 48.997C45.7769 49.1387 45.1375 49.3707 44.8646 49.4565C44.6515 49.5253 44.5662 49.5338 44.4085 49.5897C44.2635 49.6412 44.1612 49.6884 44.1825 49.7099C43.7776 49.8946 42.6734 50.148 42.0169 50.3069C41.5267 50.3928 41.062 50.5087 40.5888 50.5817C40.4993 50.5946 40.3757 50.6075 40.2819 50.6204C40.1327 50.6461 39.8982 50.6848 39.6978 50.7148C39.3397 50.7621 39.0285 50.805 38.7344 50.8351C38.274 50.848 37.9457 50.9081 37.5578 50.9296C37.4129 50.9382 37.2722 50.9339 37.1102 50.9425C36.9823 50.951 36.8331 50.9596 36.6924 50.9682C36.5432 50.9768 36.3897 50.9682 36.2448 50.9682C36.1425 50.9682 36.0487 50.9725 35.9677 50.9768C35.8611 50.9768 35.7716 50.9768 35.6565 50.9768C35.5456 50.9768 35.3836 50.9854 35.2728 50.9854C34.7996 50.9854 34.2923 50.951 33.849 50.951C33.0475 50.8866 32.3484 50.8523 31.4062 50.7063C31.1718 50.6762 30.997 50.659 30.754 50.6161C30.6986 50.6075 30.6986 50.6161 30.6133 50.5989C30.1273 50.5087 29.6115 50.4357 29.117 50.3155C29.0999 50.3155 29.0786 50.3155 29.0445 50.3069C28.3624 50.1437 27.5056 49.8989 26.9812 49.7486C26.5805 49.6026 26.103 49.4608 25.6171 49.2633C25.3868 49.1731 25.1652 49.07 24.9563 48.9798C24.5385 48.8081 24.0184 48.5332 23.6347 48.3271C23.5324 48.2712 23.4003 48.2025 23.3022 48.1467C23.1019 48.0393 22.9058 47.8933 22.6969 47.7645C21.9082 47.262 21.1025 46.5491 20.625 45.9178C20.4673 45.7289 20.3479 45.5614 20.1945 45.3338C19.9558 44.9516 19.781 44.5178 19.6573 44.0926C19.6318 43.9853 19.5934 43.8822 19.5763 43.7834C19.5252 43.5215 19.5081 43.2724 19.5081 42.9932C19.5209 42.3147 19.6872 41.6276 20.0197 41.0564C20.3735 40.292 21.2389 39.3515 22.0532 38.7416C22.2194 38.587 22.4113 38.4797 22.5988 38.3379C23.1957 37.9171 24.0099 37.449 24.7176 37.1441C27.6676 35.7698 31.0865 35.1514 34.3136 34.9839C34.5694 34.9839 34.9616 34.9624 35.1833 34.9538C35.2302 34.9624 35.3794 34.9581 35.4945 34.9581C35.8995 34.9366 36.411 34.9538 36.9226 34.971C37.0548 34.9581 37.3617 34.9796 37.5535 34.9796C37.6345 34.9968 37.4427 34.9796 37.5834 34.9968C37.9159 34.9753 39.0371 35.0827 39.5358 35.1428C39.5017 35.1428 39.4932 35.1342 39.5358 35.1385C39.6552 35.1643 39.7149 35.1514 39.8513 35.1686C40.7593 35.2888 41.4073 35.3704 42.1747 35.5164C42.2684 35.5422 42.52 35.6152 42.6137 35.6238C42.4773 35.5894 42.3025 35.5508 42.3153 35.5379C42.5413 35.598 42.8482 35.6538 43.0017 35.6839C43.2745 35.7526 43.3811 35.7827 43.6795 35.86C43.7392 35.8772 43.6241 35.8256 43.7562 35.8643C44.1442 35.9845 44.3445 36.0318 44.6898 36.152C44.7964 36.1692 45.2014 36.3066 45.3208 36.3624C45.4359 36.3968 45.2014 36.3066 45.2995 36.3367C45.6149 36.4397 45.9005 36.5557 46.1776 36.6759C46.2501 36.6974 46.297 36.7103 46.4121 36.7575C46.4888 36.7919 46.3865 36.7575 46.5016 36.8091C46.6125 36.8477 46.4249 36.7575 46.4547 36.7618C46.6082 36.822 46.5826 36.8048 46.6594 36.8305C46.8768 36.925 47.026 36.9937 47.2093 37.071C47.4097 37.1569 47.6143 37.2772 47.8019 37.3717C47.9638 37.449 48.0321 37.4833 48.2068 37.5864C48.3475 37.6723 48.4669 37.7453 48.6161 37.8484C48.6971 37.8999 48.5692 37.8054 48.6843 37.8784C49.23 38.2177 49.7415 38.6085 50.1039 38.9134C49.5412 38.4539 49.1234 38.1189 48.5692 37.8011C48.4967 37.7324 48.3177 37.6594 48.2452 37.595C48.2026 37.5821 48.3262 37.6594 48.2068 37.5864C48.1685 37.5606 48.1514 37.5477 48.0875 37.5134C48.1727 37.5434 48.0576 37.4747 48.0193 37.4404C47.5418 37.1784 47.1581 36.9937 46.7276 36.8005C46.6466 36.7704 46.7787 36.8348 46.6849 36.7962C46.5187 36.7232 46.4036 36.6759 46.199 36.5901C46.1435 36.5557 46.0156 36.4956 46.0924 36.5085C46.6807 36.7489 47.4736 37.0925 48.1344 37.4704C48.3305 37.5864 48.5351 37.7152 48.6545 37.7753C48.3646 37.5993 48.1386 37.4447 47.8786 37.2987C47.5461 37.1097 47.1667 36.9508 46.8299 36.7876C46.7446 36.7447 46.6849 36.7189 46.6082 36.6845C46.5485 36.6588 46.4121 36.6072 46.3439 36.5772C46.2629 36.5385 46.2586 36.5299 46.1862 36.5042C46.0455 36.4526 45.9091 36.4011 45.7556 36.3453C45.4785 36.2379 45.2099 36.1305 44.903 36.0275C44.8476 36.0017 44.8774 35.9974 44.9499 36.0189C45.3122 36.152 45.3719 36.1735 45.7471 36.3066C45.7044 36.2894 45.6831 36.2765 45.6874 36.2723C45.7982 36.3195 45.8366 36.3367 45.9176 36.3624C45.6448 36.2551 45.6789 36.2422 45.7769 36.268C46.459 36.5256 47.2732 36.8993 47.7976 37.1956C47.8573 37.2214 47.8999 37.2342 47.998 37.2815C48.5948 37.6036 49.23 38.0244 49.8012 38.4711C49.1618 37.9385 48.42 37.4747 47.5631 37.041C47.5333 37.0195 47.5631 37.0281 47.4779 36.9852C47.107 36.8091 46.6722 36.6072 46.378 36.487C46.2586 36.4226 46.135 36.3581 46.0114 36.2937C45.0693 35.933 44.3829 35.6581 43.4493 35.4048C43.4578 35.3962 43.3854 35.3747 43.3555 35.3618C43.428 35.3704 43.509 35.3833 43.5729 35.3919C43.7264 35.4305 43.8841 35.4735 44.0163 35.5207C44.8092 35.7183 45.9005 36.1177 46.8341 36.5256C46.9535 36.56 46.8682 36.5127 46.7958 36.4655C46.3482 36.2551 45.9261 36.1048 45.4444 35.9115C45.2824 35.817 45.4742 35.8514 45.8536 35.9931C46.4846 36.2164 47.529 36.7146 47.9042 36.9336C48.7781 37.3888 49.6136 37.9257 50.3639 38.5956C50.7433 38.9263 51.0972 39.2913 51.4126 39.695C51.7366 40.0944 52.018 40.5367 52.2354 41.022C51.7537 39.9355 50.9949 39.141 50.236 38.4668C50.236 38.4754 50.2062 38.4539 50.1465 38.3981C49.3792 37.7539 48.4328 37.1698 47.6569 36.7876C47.4992 36.6931 47.2605 36.5815 47.0175 36.4655C46.7745 36.3581 46.5315 36.2508 46.3652 36.1692C46.4633 36.1692 46.7446 36.2765 47.0985 36.4269C46.7446 36.268 46.4164 36.1091 46.1137 35.9931C45.8664 35.8857 45.4316 35.744 45.3037 35.6882C45.2739 35.6753 45.3336 35.6882 45.2781 35.6667C45.3805 35.7054 45.0948 35.6023 45.0735 35.598C44.9328 35.5551 44.9584 35.5679 44.7964 35.5121C44.5875 35.4434 44.5918 35.4434 44.4596 35.3919C43.7307 35.1643 43.0145 34.9882 42.277 34.8207C42.2002 34.8035 42.0468 34.7735 42.034 34.7692C41.9658 34.752 42.0254 34.7606 41.9317 34.7391C41.8805 34.7262 41.9018 34.7391 41.8251 34.7219C41.5352 34.6575 41.2069 34.5974 40.9128 34.5501C40.1838 34.4299 39.3184 34.3139 38.7216 34.2624C38.5894 34.2495 38.7642 34.2538 38.5852 34.2366C37.5535 34.1379 36.4579 34.0863 35.3453 34.0949C35.26 34.0949 35.3282 34.082 35.2046 34.082C35.0511 34.082 35.0895 34.0949 34.9531 34.0992C34.8678 34.0992 34.7911 34.0906 34.7442 34.0863C33.4738 34.1121 32.1651 34.2366 30.8648 34.4342C29.6541 34.6189 28.452 34.8808 27.3308 35.2072C26.4483 35.4649 25.6213 35.7698 24.854 36.0833C23.8394 36.5299 22.9825 36.9809 22.1043 37.5649C21.4734 37.9901 20.8169 38.5226 20.3735 39.0036C20.2968 39.0852 20.2158 39.1926 20.1263 39.2913C19.9899 39.4373 19.862 39.5919 19.7426 39.7508C19.4186 40.1846 19.1458 40.6742 18.9412 41.1852C18.7109 41.7564 18.5873 42.3619 18.5788 42.9761C18.5745 43.1478 18.5916 43.3196 18.6044 43.4871C18.6257 43.6546 18.6555 43.8221 18.6811 43.9896C18.7365 44.2086 18.7749 44.4448 18.8602 44.6638C19.0733 45.2865 19.4186 45.8534 19.781 46.3387C20.2627 46.9829 20.851 47.5626 21.4904 48.0393C22.1768 48.5933 23.0933 49.1344 23.8394 49.4952C24.4277 49.8216 25.0842 50.0664 25.7918 50.3369C25.8558 50.3627 25.924 50.3885 25.9922 50.4142C27.0622 50.8222 28.3028 51.1099 29.2023 51.3161C29.5476 51.3676 29.8332 51.4492 30.1487 51.505C30.4897 51.5695 30.8094 51.6124 31.1419 51.6554C31.2443 51.6725 31.3551 51.6897 31.4574 51.7069C31.7942 51.7455 32.1224 51.7842 32.4891 51.8143C33.0432 51.8658 33.6315 51.9345 34.2667 51.9431C34.757 51.9774 35.486 52.0075 36.0487 51.9817C36.9993 51.9946 37.9585 51.9216 38.9348 51.8314C39.263 51.8057 39.5614 51.7799 39.8939 51.7284C40.2392 51.694 40.6442 51.6339 41.062 51.5609C41.4713 51.4965 41.8976 51.4192 42.3281 51.3333C42.9335 51.2044 43.6795 51.0069 44.1356 50.8995C44.3616 50.9124 44.7239 50.6891 45.2014 50.5431C45.4529 50.4658 45.4273 50.4958 45.5424 50.4829C45.7684 50.4142 45.973 50.3283 46.1862 50.2382C46.4377 50.148 46.6295 50.1007 46.9578 49.9547L46.962 49.9633ZM45.3719 36.298C45.3719 36.298 45.3719 36.3066 45.4018 36.3152C45.325 36.3023 45.1801 36.2293 45.3719 36.298ZM45.4401 36.3152C45.713 36.4097 46.0966 36.5557 46.2885 36.6459C46.3396 36.6674 46.2501 36.6072 46.3354 36.6459C46.4462 36.7017 46.5784 36.7661 46.7745 36.852C46.7745 36.8821 46.3951 36.6974 46.3695 36.7103C46.2203 36.6416 46.1478 36.6115 46.0753 36.5943C45.7641 36.4655 45.6959 36.444 45.4572 36.3496C45.5254 36.3581 45.4188 36.3238 45.4401 36.3152Z" fill="white"/>
<path fill-rule="evenodd" clip-rule="evenodd" d="M37.2559 44.332C37.2559 44.332 37.307 44.332 37.3454 44.3363C37.3369 44.3406 37.2857 44.3406 37.2559 44.332Z" fill="white"/>
<path fill-rule="evenodd" clip-rule="evenodd" d="M38.3867 45.3945C38.4123 45.3945 38.489 45.4074 38.4762 45.4203C38.4336 45.4117 38.4166 45.4031 38.3867 45.3945Z" fill="white"/>
<path fill-rule="evenodd" clip-rule="evenodd" d="M38.5098 45.4453C38.5098 45.4453 38.5737 45.4625 38.6036 45.4668C38.6036 45.4754 38.5268 45.4539 38.5098 45.4453Z" fill="white"/>
<path fill-rule="evenodd" clip-rule="evenodd" d="M38.9141 45.418C38.9141 45.418 38.9865 45.4309 39.0078 45.4437C38.9993 45.448 38.9439 45.4266 38.9141 45.418Z" fill="white"/>
<path fill-rule="evenodd" clip-rule="evenodd" d="M39.043 45.6016C39.0771 45.6016 39.1282 45.6187 39.2007 45.6402C39.1709 45.6402 39.0984 45.6144 39.043 45.6016Z" fill="white"/>
<path fill-rule="evenodd" clip-rule="evenodd" d="M39.7168 45.1172C39.8021 45.1472 39.9768 45.2031 40.028 45.2374C39.9299 45.1902 39.8063 45.1601 39.7168 45.1172Z" fill="white"/>
<path fill-rule="evenodd" clip-rule="evenodd" d="M39.832 45.477C39.9429 45.4941 40.1049 45.6015 40.237 45.6444C40.2498 45.6659 40.0537 45.5628 40.0111 45.5543C39.9898 45.5414 39.9642 45.5285 39.9386 45.5113C39.9045 45.4984 39.8661 45.4941 39.832 45.4727V45.477Z" fill="white"/>
<path fill-rule="evenodd" clip-rule="evenodd" d="M40.973 46.1228C40.973 46.1228 40.9858 46.1142 41.0156 46.1357C41.0242 46.1443 41.0242 46.1486 41.0156 46.1529L40.9688 46.1228H40.973Z" fill="white"/>
<path fill-rule="evenodd" clip-rule="evenodd" d="M41.473 46.3711C41.554 46.4097 41.699 46.5558 41.7629 46.6502C41.7757 46.6588 41.7799 46.6588 41.797 46.6803C41.8482 46.7275 41.9419 46.8435 41.8439 46.7361C41.7075 46.6159 41.6307 46.4913 41.4688 46.3754L41.473 46.3711Z" fill="white"/>
<path fill-rule="evenodd" clip-rule="evenodd" d="M41.4219 46.5273C41.4219 46.5273 41.4688 46.5574 41.4986 46.5875C41.4901 46.5875 41.4304 46.5402 41.4219 46.5273Z" fill="white"/>
<path fill-rule="evenodd" clip-rule="evenodd" d="M41.7969 46.3281C41.7969 46.3281 41.8651 46.3968 41.8949 46.4269C41.8693 46.4054 41.8182 46.3582 41.7969 46.3281Z" fill="white"/>
<path fill-rule="evenodd" clip-rule="evenodd" d="M41.5371 46.5586C41.567 46.5758 41.6181 46.6359 41.6522 46.6617C41.6693 46.696 41.5755 46.593 41.5371 46.5586Z" fill="white"/>
<path fill-rule="evenodd" clip-rule="evenodd" d="M41.5488 46.6367C41.5744 46.6496 41.6256 46.7097 41.6682 46.7527C41.6384 46.7312 41.5872 46.6754 41.5488 46.6367Z" fill="white"/>
<path fill-rule="evenodd" clip-rule="evenodd" d="M41.9551 46.3828C41.9551 46.3828 42.0105 46.4258 42.0403 46.4558C42.0275 46.4558 41.9849 46.4086 41.9551 46.3828Z" fill="white"/>
<path fill-rule="evenodd" clip-rule="evenodd" d="M41.9453 46.4844C41.9879 46.5144 42.103 46.6433 42.1499 46.7206C42.0817 46.6304 42.0263 46.5703 41.9453 46.4844Z" fill="white"/>
<path fill-rule="evenodd" clip-rule="evenodd" d="M41.6895 46.7734C41.7534 46.8121 41.8088 46.9023 41.8387 46.9538C41.796 46.9023 41.7491 46.8207 41.6895 46.7734Z" fill="white"/>
<path fill-rule="evenodd" clip-rule="evenodd" d="M41.9199 46.8203C41.9199 46.8203 41.9711 46.8804 41.9967 46.9105C41.9924 46.9234 41.9498 46.859 41.9199 46.8203Z" fill="white"/>
<path fill-rule="evenodd" clip-rule="evenodd" d="M41.9668 46.9414C41.9924 46.9629 42.0094 46.9929 42.035 47.0316C42.0222 47.0273 41.9881 46.9672 41.9668 46.9414Z" fill="white"/>
<path fill-rule="evenodd" clip-rule="evenodd" d="M42.0098 47.0664C42.0098 47.0664 42.0865 47.1609 42.0567 47.1523C42.0439 47.1265 42.0481 47.1265 42.0524 47.1222C42.0353 47.0922 42.0311 47.1008 42.0098 47.0664Z" fill="white"/>
<path fill-rule="evenodd" clip-rule="evenodd" d="M42.3629 47.2232C42.2734 47.0299 42.316 47.1587 42.3629 47.2232V47.2232Z" fill="white"/>
<path fill-rule="evenodd" clip-rule="evenodd" d="M42.543 47.3359C42.5685 47.4004 42.5899 47.4648 42.6112 47.5464C42.5941 47.4991 42.5515 47.3703 42.543 47.3359Z" fill="white"/>
<path fill-rule="evenodd" clip-rule="evenodd" d="M42.5762 47.3823C42.5762 47.3566 42.6188 47.4854 42.6018 47.4639L42.5762 47.3823Z" fill="white"/>
<path fill-rule="evenodd" clip-rule="evenodd" d="M42.7773 47.4922C42.7901 47.5137 42.8072 47.5695 42.82 47.6124C42.8072 47.5996 42.7816 47.5094 42.7773 47.4922Z" fill="white"/>
<path fill-rule="evenodd" clip-rule="evenodd" d="M42.8535 47.9961C42.8706 48.2022 42.8791 48.1507 42.8535 47.9961V47.9961Z" fill="white"/>
<path fill-rule="evenodd" clip-rule="evenodd" d="M40.5938 45.25C40.6193 45.2586 40.6321 45.2629 40.6662 45.2758C40.7003 45.3101 40.7813 45.3402 40.8367 45.3788C40.76 45.3531 40.6961 45.2929 40.5938 45.25Z" fill="white"/>
<path fill-rule="evenodd" clip-rule="evenodd" d="M41.8262 46.4386C41.8518 46.4644 41.8433 46.4644 41.8774 46.4945C41.8774 46.4988 41.8646 46.4859 41.8603 46.4902C41.9157 46.5503 41.9456 46.5761 41.9882 46.6233C41.9797 46.619 41.9712 46.6147 41.9712 46.619C42.0436 46.6663 42.0777 46.7736 42.1928 46.9153C42.1331 46.8509 42.0564 46.735 41.9669 46.6319C41.8774 46.5331 41.7878 46.4429 41.7324 46.3828C41.758 46.3914 41.839 46.4945 41.8603 46.4945C41.8688 46.4945 41.8049 46.4301 41.8305 46.4429L41.8262 46.4386Z" fill="white"/>
<path fill-rule="evenodd" clip-rule="evenodd" d="M41.7201 46.7482C41.7286 46.7482 41.7627 46.7911 41.767 46.7997C41.7499 46.7911 41.6263 46.658 41.7158 46.7525L41.7201 46.7482Z" fill="white"/>
<path fill-rule="evenodd" clip-rule="evenodd" d="M42.2695 47.6289H42.2568C42.2695 47.6761 42.2866 47.7276 42.3036 47.7835C42.3079 47.8393 42.3122 47.8908 42.3079 47.9209C42.3079 47.8135 42.2482 47.5945 42.2099 47.5258C42.2056 47.4957 42.2013 47.4871 42.1971 47.4571C42.1331 47.3497 42.0777 47.2338 42.0138 47.1221C41.937 47.019 41.8688 46.9074 41.7793 46.8086C41.8731 46.8816 42.0052 47.1092 42.082 47.2123C42.0905 47.2338 42.082 47.2123 42.0734 47.1994C42.1289 47.3025 42.2184 47.4828 42.2653 47.6246L42.2695 47.6289Z" fill="white"/>
<path fill-rule="evenodd" clip-rule="evenodd" d="M42.6113 47.4102C42.6241 47.4359 42.6412 47.4789 42.654 47.5089C42.654 47.5218 42.6156 47.4488 42.6113 47.4102Z" fill="white"/>
<path fill-rule="evenodd" clip-rule="evenodd" d="M40.3428 51.2318C40.3855 51.2103 40.4878 51.1545 40.5347 51.133C40.6881 51.0686 40.8245 50.9956 40.9738 50.9097C41.1059 50.8367 41.2167 50.7422 41.3489 50.6477C41.4256 50.5876 41.4725 50.5532 41.5365 50.506C41.7155 50.3471 41.869 50.2269 41.9244 50.1367C42.0267 49.995 42.1717 49.8446 42.2441 49.7072C42.274 49.6643 42.2782 49.6557 42.291 49.6385C42.3891 49.471 42.4445 49.325 42.4871 49.1575C42.5426 49.0029 42.5681 48.8268 42.6108 48.6035C42.6065 48.5606 42.5852 48.5305 42.5681 48.4532C42.5639 48.4189 42.5639 48.3415 42.5553 48.3158C42.5255 48.2256 42.4701 48.2986 42.4573 48.1397C42.4488 48.1311 42.4445 48.1612 42.436 48.1655C42.3592 48.1612 42.291 48.217 42.2356 48.1784C42.193 48.2685 42.1546 48.2471 42.112 48.3115C42.0864 48.3501 42.0694 48.4317 42.0267 48.4747C41.9884 48.5262 41.9543 48.582 41.9159 48.6207C41.8946 48.6121 41.8733 48.6808 41.8434 48.6851C41.788 48.7581 41.7411 48.8097 41.6899 48.8827C41.6814 48.8827 41.6686 48.9041 41.6558 48.8998C41.5791 48.9686 41.5066 49.033 41.4342 49.106C41.3489 49.1747 41.2551 49.2434 41.1571 49.3379C41.1357 49.3551 41.0931 49.3894 41.0718 49.4023C40.9269 49.5397 40.6455 49.7158 40.5389 49.7502C40.5048 49.7716 40.5091 49.7759 40.475 49.7931C40.4451 49.7931 40.3343 49.8232 40.249 49.8704C40.2192 49.8876 40.1766 49.9348 40.1126 49.9735C40.0146 50.025 39.9037 50.0465 39.8142 50.0894C39.7716 50.1109 39.7375 50.1496 39.6948 50.171C39.5797 50.2269 39.3325 50.3127 39.2302 50.3428C39.1492 50.3643 39.1108 50.36 39.0511 50.3815C38.9957 50.4029 38.9573 50.4287 38.9701 50.4502C38.8252 50.5575 38.3904 50.622 38.1431 50.7036C37.9513 50.7207 37.7765 50.7852 37.5932 50.8152C37.5633 50.8152 37.4994 50.8238 37.4738 50.8238C37.4099 50.8324 37.3289 50.8539 37.2479 50.8667C37.1115 50.8882 36.9878 50.9097 36.8727 50.9226C36.6937 50.9054 36.5658 50.9526 36.4166 50.9612C36.3612 50.9655 36.3057 50.9612 36.2418 50.9612C36.2034 50.9612 36.1267 50.9698 36.0798 50.9741C36.0372 50.9741 35.9476 50.9698 35.905 50.9698C35.8752 50.9698 35.824 50.9741 35.7984 50.9784C35.7643 50.9784 35.7132 50.9784 35.6791 50.9741C35.6492 50.9741 35.5597 50.9827 35.5299 50.9827C35.3466 50.9827 35.1505 50.9698 34.9757 50.9827C34.6645 50.9398 34.3916 50.9526 34.025 50.8796C33.9312 50.871 33.863 50.871 33.7692 50.8496C33.7479 50.8496 33.7479 50.8539 33.7138 50.8496C33.5262 50.8023 33.3216 50.798 33.134 50.7422C33.1255 50.7422 33.117 50.7422 33.1042 50.7422C32.8399 50.6692 32.5116 50.579 32.307 50.5232C32.0598 50.4373 31.9532 50.3986 31.7827 50.3385C31.6931 50.3085 31.6121 50.2612 31.5311 50.2269C31.3692 50.1624 31.1688 50.0594 31.0281 49.9778C30.9983 49.9649 30.9258 49.9305 30.896 49.9176C30.815 49.879 30.7467 49.8189 30.67 49.7716C30.3588 49.5999 30.0817 49.3164 29.9027 49.0974C29.8515 49.0287 29.8004 48.9728 29.7407 48.8955C29.6682 48.7581 29.6 48.6121 29.5659 48.4704C29.5574 48.436 29.5318 48.4017 29.5275 48.3673C29.519 48.2814 29.5105 48.1955 29.5062 48.1053C29.5275 47.9937 29.5062 47.8777 29.5531 47.7704C29.5702 47.7145 29.5829 47.6587 29.6 47.6072C29.6256 47.5599 29.6511 47.517 29.6853 47.4569C29.7961 47.1906 30.1073 46.8385 30.41 46.6108C30.4654 46.5421 30.5464 46.5121 30.6146 46.4605C30.7212 46.3789 30.8533 46.2887 30.9983 46.2114C31.1347 46.1256 31.2839 46.0525 31.4203 46.001C32.5457 45.4513 33.8886 45.2151 35.1505 45.1292C35.2485 45.1378 35.4062 45.1292 35.4915 45.1163C35.5086 45.1249 35.5682 45.1206 35.6151 45.1249C35.7729 45.0992 35.9732 45.1249 36.1736 45.1249C36.2247 45.1077 36.3441 45.1249 36.4208 45.1163C36.4507 45.1292 36.3782 45.1206 36.4336 45.1335C36.5658 45.112 37.0049 45.1507 37.201 45.1765C37.1882 45.1765 37.1839 45.1679 37.201 45.1722C37.2479 45.1893 37.2734 45.1722 37.3246 45.1808C37.6827 45.2151 37.9385 45.2409 38.2412 45.2838C38.2795 45.2967 38.3733 45.3397 38.4117 45.3311C38.3563 45.3139 38.288 45.301 38.2966 45.2881C38.3861 45.3139 38.5055 45.3354 38.5694 45.3397C38.6802 45.3654 38.7357 45.3826 38.838 45.4041C38.8636 45.4127 38.8209 45.3826 38.8721 45.3998C39.0213 45.4556 39.1023 45.4642 39.2387 45.5157C39.2856 45.5157 39.4433 45.5673 39.4902 45.593C39.5371 45.6059 39.4476 45.563 39.486 45.5759C39.6096 45.6188 39.7247 45.6532 39.8313 45.7047C39.8611 45.7047 39.8824 45.709 39.9293 45.7262C39.9592 45.739 39.9165 45.7348 39.9634 45.7519C40.0103 45.7648 39.9378 45.7219 39.9506 45.7176C40.0103 45.739 40.0018 45.7262 40.0359 45.7348C40.1169 45.782 40.1808 45.7906 40.2576 45.8206C40.3386 45.8507 40.4196 45.9022 40.492 45.9366C40.556 45.9667 40.5858 45.9752 40.6583 46.0139C40.7137 46.0483 40.7606 46.0783 40.816 46.1213C40.8501 46.1384 40.799 46.0955 40.8459 46.1256C40.9482 46.1943 41.0505 46.2587 41.1571 46.3274C41.2509 46.4004 41.3361 46.4648 41.4171 46.5207C41.1869 46.3489 41.0292 46.2114 40.8075 46.0912C40.7862 46.0568 40.7052 46.0397 40.6839 46.0053C40.6668 46.0053 40.7137 46.0354 40.6626 46.0053C40.6455 45.9967 40.6412 45.9881 40.6157 45.9752C40.654 45.9752 40.6071 45.9538 40.5943 45.9323C40.4068 45.8249 40.2533 45.7605 40.0828 45.6832C40.0487 45.6703 40.0998 45.7004 40.0657 45.6875C40.0018 45.6617 39.9506 45.636 39.8739 45.6059C39.8568 45.5844 39.8057 45.5587 39.8398 45.5544C40.07 45.6532 40.394 45.7691 40.654 45.9237C40.735 45.9667 40.8118 46.0225 40.8629 46.0397C40.7606 45.9752 40.6327 45.8894 40.5602 45.8421C40.4324 45.7605 40.2746 45.709 40.1382 45.6446C40.1126 45.6317 40.0743 45.6102 40.0529 45.5973C40.0274 45.5844 39.9762 45.5716 39.9464 45.5587C39.9123 45.5415 39.9123 45.5372 39.8867 45.5243C39.827 45.5028 39.7758 45.4943 39.7119 45.4685C39.6011 45.4255 39.4987 45.3697 39.3751 45.3354C39.3538 45.3225 39.3666 45.3139 39.3964 45.3182C39.5414 45.3697 39.5627 45.3826 39.7119 45.4341C39.6948 45.4255 39.6863 45.4212 39.6906 45.417C39.7375 45.4341 39.7503 45.4427 39.7844 45.4513C39.6735 45.4084 39.6948 45.3912 39.7332 45.3955C39.8696 45.447 40.0188 45.5071 40.1595 45.5759C40.3002 45.6403 40.4409 45.7004 40.5389 45.7648C40.5645 45.7734 40.5858 45.7734 40.6242 45.7906C40.8672 45.9108 41.1187 46.0869 41.3532 46.263C41.1059 46.0354 40.799 45.8636 40.4537 45.6875C40.4409 45.6789 40.4537 45.6746 40.4196 45.6574C40.2661 45.5973 40.0913 45.5157 39.9762 45.4642C39.9293 45.4341 39.8867 45.3998 39.8398 45.3654C39.4604 45.228 39.1918 45.0863 38.8167 44.9832C38.8167 44.9746 38.7911 44.966 38.7826 44.9574C38.8167 44.9574 38.838 44.9531 38.8763 44.9574C38.9403 44.9703 39.0042 44.9875 39.0554 45.009C39.3794 45.0734 39.8185 45.2409 40.1979 45.4041C40.249 45.4127 40.2192 45.3826 40.1936 45.3568C40.0146 45.2581 39.8355 45.2237 39.6437 45.1292C39.584 45.0691 39.6693 45.0734 39.8227 45.1292C40.0828 45.2151 40.5091 45.4212 40.6626 45.5157C41.3745 45.8851 42.0821 46.3875 42.4957 47.2336C42.291 46.7483 41.9543 46.4262 41.6431 46.1384C41.6431 46.1427 41.626 46.1384 41.6004 46.117C41.285 45.8335 40.8885 45.6102 40.5688 45.4513C40.4451 45.3654 40.1723 45.2709 40.0444 45.1893C40.0913 45.1722 40.2107 45.2108 40.3599 45.2666C40.2149 45.2022 40.0828 45.1249 39.9592 45.0777C39.8568 45.039 39.6778 44.9789 39.6266 44.9531C39.6138 44.9446 39.6394 44.9531 39.6181 44.9403C39.6607 44.9574 39.5414 44.9145 39.5329 44.9145C39.4732 44.9016 39.486 44.9059 39.4177 44.8844C39.3325 44.8544 39.3325 44.8544 39.2813 44.8329C38.9872 44.7298 38.6888 44.6783 38.3904 44.5924C38.3563 44.5838 38.2966 44.5752 38.2923 44.5709C38.2625 44.5623 38.2923 44.5623 38.2539 44.5537C38.2326 44.5495 38.2412 44.558 38.2113 44.5537C38.0877 44.528 37.9555 44.5022 37.8404 44.4807C37.542 44.4378 37.1924 44.3777 36.9495 44.3605C36.894 44.3519 36.9665 44.3476 36.894 44.3433C36.4763 44.2961 36.0286 44.2746 35.5768 44.2746C35.5427 44.2746 35.5682 44.2617 35.5213 44.2617C35.4574 44.2617 35.4744 44.2746 35.419 44.2746C35.3849 44.2746 35.3508 44.266 35.3338 44.2617C34.8137 44.2617 34.2808 44.3261 33.7522 44.4034C33.5049 44.4421 33.2577 44.4936 33.0147 44.5409C32.776 44.6053 32.533 44.6525 32.3028 44.7255C31.9404 44.8329 31.6036 44.9703 31.2839 45.0906C30.8704 45.2881 30.508 45.4642 30.1457 45.7176C30.0135 45.8035 29.8728 45.9022 29.7492 46.0139C29.6213 46.117 29.5019 46.2243 29.4124 46.3317C29.3868 46.3618 29.3314 46.4262 29.3058 46.4562C29.2462 46.5164 29.1865 46.5851 29.1353 46.6538C28.9861 46.8385 28.8838 47.0704 28.7815 47.2937C28.7389 47.4268 28.7005 47.5599 28.6621 47.6931C28.6408 47.8305 28.628 47.9679 28.6152 48.1096C28.6152 48.2685 28.6493 48.4188 28.6664 48.5735C28.692 48.6722 28.7175 48.7753 28.7474 48.8784C28.8454 49.1575 29.0032 49.4109 29.1609 49.617C29.3655 49.9048 29.617 50.1496 29.8899 50.3514C30.0348 50.4674 30.2053 50.579 30.3716 50.6907C30.5464 50.7852 30.7169 50.8882 30.8704 50.9612C31.1134 51.1029 31.3862 51.2017 31.6761 51.3091C31.6931 51.3177 31.7358 51.3349 31.7571 51.3477C31.9745 51.4379 32.2132 51.498 32.4434 51.5668C32.6736 51.6183 32.8911 51.6698 33.0744 51.7171C33.215 51.7257 33.3301 51.7686 33.4623 51.7944C33.603 51.8244 33.7309 51.8373 33.8673 51.8502C33.9014 51.8545 33.9611 51.8674 33.9952 51.876C34.1316 51.8931 34.2637 51.906 34.4172 51.9146C34.6432 51.9275 34.8819 51.979 35.1419 51.9704C35.3423 51.9833 35.6364 52.0134 35.8666 51.9919C36.2546 52.0134 36.6425 51.9619 37.0432 51.9361C37.1797 51.9275 37.299 51.9232 37.4354 51.8931C37.5761 51.8931 37.7424 51.8674 37.9129 51.833C38.0664 51.8073 38.2667 51.7772 38.433 51.7514C38.6802 51.6913 38.9872 51.6183 39.179 51.5882C39.2813 51.6312 39.4177 51.4809 39.6138 51.4336C39.7204 51.4079 39.7119 51.4336 39.7673 51.4379C39.8611 51.4122 39.9464 51.3735 40.0359 51.3349C40.1425 51.3048 40.232 51.3005 40.3684 51.2361L40.3428 51.2318ZM39.5286 45.5157C39.5286 45.5157 39.5286 45.52 39.5371 45.5243C39.503 45.5243 39.4519 45.4857 39.5286 45.5157ZM39.5584 45.52C39.665 45.5587 39.8227 45.6016 39.8952 45.6446C39.9165 45.6532 39.8824 45.6188 39.9165 45.6317C39.9592 45.6574 40.0103 45.6875 40.087 45.7262C40.0828 45.7519 39.9336 45.666 39.9208 45.6832C39.8654 45.6532 39.8355 45.6446 39.8014 45.6446C39.6821 45.5887 39.648 45.593 39.5584 45.5501C39.5883 45.5458 39.5456 45.5329 39.5584 45.52Z" fill="white"/>
<path fill-rule="evenodd" clip-rule="evenodd" d="M38.6465 38.1484C38.6806 38.1484 38.7445 38.1527 38.8127 38.1613C38.7957 38.1656 38.7019 38.1613 38.6465 38.1484Z" fill="white"/>
<path fill-rule="evenodd" clip-rule="evenodd" d="M40.9473 39.418C40.9942 39.4266 41.1476 39.4523 41.1263 39.4652C41.0411 39.448 41.0069 39.4351 40.9473 39.418Z" fill="white"/>
<path fill-rule="evenodd" clip-rule="evenodd" d="M41.1992 39.4961C41.1992 39.4961 41.3271 39.5262 41.3783 39.539C41.374 39.5476 41.2291 39.509 41.1992 39.4961Z" fill="white"/>
<path fill-rule="evenodd" clip-rule="evenodd" d="M41.9551 39.5664C41.9934 39.575 42.0915 39.5965 42.1341 39.6179C42.1213 39.6179 42.0062 39.5836 41.9551 39.5664Z" fill="white"/>
<path fill-rule="evenodd" clip-rule="evenodd" d="M42.2441 39.793C42.3081 39.8059 42.4104 39.8359 42.5511 39.8832C42.4999 39.8746 42.355 39.8273 42.2441 39.793Z" fill="white"/>
<path fill-rule="evenodd" clip-rule="evenodd" d="M43.3477 39.4609C43.5054 39.5168 43.8294 39.637 43.936 39.6928C43.7484 39.6112 43.5224 39.5297 43.3477 39.4609Z" fill="white"/>
<path fill-rule="evenodd" clip-rule="evenodd" d="M43.6644 39.8984C43.8648 39.9543 44.1973 40.126 44.4403 40.2291C44.4701 40.2549 44.0865 40.0659 44.0097 40.0487C43.9628 40.023 43.9159 40.0015 43.8648 39.9757C43.7966 39.95 43.7284 39.9328 43.6602 39.8984H43.6644Z" fill="white"/>
<path fill-rule="evenodd" clip-rule="evenodd" d="M45.8848 41.1017C45.8848 41.1017 45.9018 41.0974 45.9615 41.1361C45.9786 41.1489 45.9786 41.1575 45.9743 41.1618C45.9444 41.1404 45.9146 41.1189 45.8848 41.1017Z" fill="white"/>
<path fill-rule="evenodd" clip-rule="evenodd" d="M46.7891 41.6562C46.9297 41.755 47.2111 42.0213 47.3475 42.1888C47.3688 42.2102 47.3731 42.206 47.4072 42.2489C47.4967 42.3434 47.6758 42.5624 47.4967 42.352C47.2623 42.0986 47.0789 41.8967 46.7933 41.6562H46.7891Z" fill="white"/>
<path fill-rule="evenodd" clip-rule="evenodd" d="M46.7852 41.8594C46.8193 41.8808 46.8704 41.9238 46.9301 41.9839C46.913 41.9753 46.8065 41.8851 46.7852 41.8594Z" fill="white"/>
<path fill-rule="evenodd" clip-rule="evenodd" d="M47.248 41.7383C47.2736 41.7555 47.3759 41.8628 47.4314 41.9187C47.3887 41.88 47.2864 41.7898 47.248 41.7383Z" fill="white"/>
<path fill-rule="evenodd" clip-rule="evenodd" d="M46.9668 41.9531C47.018 41.9961 47.1245 42.1034 47.1885 42.155C47.2311 42.2151 47.0393 42.0218 46.9668 41.9531Z" fill="white"/>
<path fill-rule="evenodd" clip-rule="evenodd" d="M47.0273 42.0742C47.07 42.1043 47.1851 42.2116 47.2575 42.3018C47.168 42.2116 47.0998 42.1472 47.0273 42.0742Z" fill="white"/>
<path fill-rule="evenodd" clip-rule="evenodd" d="M47.4961 41.8828C47.4961 41.8828 47.5856 41.9687 47.6453 42.0288C47.624 42.0245 47.5515 41.9343 47.4961 41.8828Z" fill="white"/>
<path fill-rule="evenodd" clip-rule="evenodd" d="M47.5254 42.0273C47.5979 42.0875 47.8068 42.3323 47.8963 42.4654C47.7684 42.3065 47.6703 42.1905 47.5254 42.0273Z" fill="white"/>
<path fill-rule="evenodd" clip-rule="evenodd" d="M47.291 42.3398C47.3976 42.43 47.517 42.5975 47.5852 42.692C47.5042 42.5932 47.3976 42.4429 47.291 42.3398Z" fill="white"/>
<path fill-rule="evenodd" clip-rule="evenodd" d="M47.6328 42.5273C47.6712 42.566 47.7266 42.639 47.7778 42.6991C47.7778 42.7206 47.6925 42.6004 47.6328 42.5273Z" fill="white"/>
<path fill-rule="evenodd" clip-rule="evenodd" d="M47.7559 42.7305C47.7985 42.782 47.8283 42.8292 47.8795 42.9108C47.8624 42.898 47.7942 42.782 47.7559 42.7305Z" fill="white"/>
<path fill-rule="evenodd" clip-rule="evenodd" d="M47.8594 42.9492C47.885 42.9664 47.9958 43.1425 47.9532 43.1124C47.9233 43.0609 47.9318 43.0652 47.9361 43.0609C47.902 43.005 47.8977 43.0136 47.8594 42.9492Z" fill="white"/>
<path fill-rule="evenodd" clip-rule="evenodd" d="M48.3524 43.3463C48.1819 42.9984 48.2799 43.2218 48.3524 43.3463V43.3463Z" fill="white"/>
<path fill-rule="evenodd" clip-rule="evenodd" d="M48.584 43.5938C48.6309 43.7097 48.6735 43.8214 48.7076 43.9631C48.682 43.8729 48.5968 43.6539 48.584 43.5938Z" fill="white"/>
<path fill-rule="evenodd" clip-rule="evenodd" d="M48.6349 43.6812C48.6307 43.6383 48.7074 43.8659 48.6861 43.8229L48.6349 43.6812Z" fill="white"/>
<path fill-rule="evenodd" clip-rule="evenodd" d="M48.877 43.9023C48.894 43.9453 48.9196 44.0398 48.9366 44.1171C48.9238 44.0956 48.8812 43.941 48.877 43.9023Z" fill="white"/>
<path fill-rule="evenodd" clip-rule="evenodd" d="M49.0098 44.7656C49.0268 45.1221 49.0353 45.0276 49.0098 44.7656V44.7656Z" fill="white"/>
<path fill-rule="evenodd" clip-rule="evenodd" d="M44.916 39.8945C44.9629 39.9117 44.9927 39.9246 45.0482 39.9504C45.1206 40.0019 45.2656 40.0663 45.3679 40.1307C45.2315 40.0749 45.1079 39.9847 44.916 39.8988V39.8945Z" fill="white"/>
<path fill-rule="evenodd" clip-rule="evenodd" d="M47.3417 41.9132C47.3843 41.9562 47.3843 41.9605 47.4397 42.0163C47.4397 42.0249 47.4184 41.9991 47.4142 41.9991C47.5122 42.1065 47.5634 42.1623 47.6444 42.2525C47.6316 42.2439 47.6188 42.231 47.6188 42.2353C47.7339 42.347 47.8362 42.5059 48.028 42.7807C47.8447 42.5145 47.3928 41.9733 47.1797 41.793C47.2181 41.8144 47.3801 41.9905 47.4099 42.0034C47.4227 42.0034 47.2991 41.8917 47.3459 41.9175L47.3417 41.9132Z" fill="white"/>
<path fill-rule="evenodd" clip-rule="evenodd" d="M47.3295 42.3242C47.3423 42.3328 47.3508 42.3456 47.3295 42.3242C47.3423 42.3242 47.4105 42.4143 47.419 42.4272C47.3892 42.4101 47.1547 42.1395 47.3253 42.3285L47.3295 42.3242Z" fill="white"/>
<path fill-rule="evenodd" clip-rule="evenodd" d="M48.3649 44.0347H48.3521C48.3734 44.1206 48.399 44.2279 48.4288 44.331C48.4459 44.4341 48.4587 44.5329 48.4587 44.593C48.4331 44.3911 48.3478 43.9574 48.2668 43.8285C48.2541 43.7813 48.2413 43.747 48.2285 43.6997C48.0366 43.2617 47.7681 42.8107 47.4355 42.4414C47.6061 42.5917 47.8746 43.0212 48.0111 43.2316C48.0281 43.2703 48.0111 43.2316 47.994 43.2101C48.1134 43.3948 48.2583 43.7684 48.3606 44.0347H48.3649Z" fill="white"/>
<path fill-rule="evenodd" clip-rule="evenodd" d="M48.6777 43.7344C48.699 43.7773 48.7289 43.8546 48.7502 43.9062C48.7587 43.9319 48.6905 43.7945 48.6777 43.7344Z" fill="white"/>
<path fill-rule="evenodd" clip-rule="evenodd" d="M44.4182 50.4534C44.5333 50.4062 44.6569 50.3332 44.7763 50.2731C45.0577 50.1399 45.3092 50.0154 45.582 49.8565C45.8207 49.7148 46.0382 49.5559 46.2811 49.3927C46.4431 49.2724 46.5113 49.2209 46.6307 49.1307C46.9675 48.8644 47.2361 48.6325 47.3512 48.4822C47.5558 48.2546 47.8116 47.9712 47.9608 47.7436C47.9991 47.692 48.0333 47.6448 48.0503 47.6233C48.4127 47.0393 48.5661 46.6227 48.7324 45.8325C48.7324 45.7595 48.7196 45.7079 48.7153 45.5705C48.7153 45.5104 48.7324 45.373 48.7196 45.33C48.6898 45.1668 48.6343 45.3 48.6215 45.0079C48.613 44.9908 48.6088 45.0466 48.6002 45.0595C48.5235 45.0509 48.4553 45.1582 48.3999 45.0895C48.353 45.2742 48.3231 45.2313 48.272 45.3687C48.2336 45.4503 48.2038 45.6178 48.1484 45.7208C48.0972 45.8368 48.046 45.9613 47.9864 46.0472C47.965 46.0386 47.9139 46.1846 47.8798 46.2061C47.7903 46.3779 47.7093 46.4981 47.5984 46.657C47.5814 46.6699 47.5558 46.7086 47.5473 46.7043C47.2957 47.0307 47.0016 47.3227 46.5796 47.7006C46.5369 47.735 46.4559 47.808 46.409 47.8466C46.0936 48.1301 45.5436 48.5037 45.3348 48.5896C45.2665 48.6283 45.2751 48.6368 45.2069 48.6712C45.1557 48.6798 44.9468 48.7786 44.772 48.873C44.7124 48.9074 44.6143 48.9804 44.4821 49.0534C44.2818 49.1565 44.0814 49.2295 43.8939 49.3111C43.8086 49.3497 43.7233 49.4056 43.6381 49.4485C43.4079 49.5602 42.9176 49.7362 42.713 49.7964C42.551 49.8479 42.4871 49.8522 42.3634 49.8951C42.2526 49.9338 42.1758 49.9767 42.1929 49.9939C41.8902 50.1442 41.0419 50.3332 40.5388 50.4577C40.1637 50.5179 39.8099 50.6123 39.4475 50.6682C39.3836 50.6768 39.2813 50.6896 39.213 50.6939C39.1022 50.7111 38.9189 50.7455 38.7654 50.7712C38.4841 50.8056 38.2752 50.8357 38.0279 50.8657C37.6784 50.8657 37.4226 50.9215 37.1284 50.9387C37.0176 50.9473 36.911 50.9387 36.7874 50.9473C36.6936 50.9516 36.5742 50.9602 36.4677 50.9688C36.3526 50.9731 36.2332 50.9645 36.1266 50.9688C36.0541 50.9688 35.9731 50.9731 35.9135 50.9774C35.8367 50.9774 35.76 50.9774 35.6747 50.9731C35.598 50.9731 35.4573 50.9817 35.3806 50.986C35.0182 50.986 34.6303 50.9602 34.2892 50.9645C33.6754 50.913 33.1382 50.8915 32.422 50.7755C32.243 50.7541 32.1108 50.7412 31.9233 50.7068C31.8806 50.7025 31.8806 50.7068 31.8167 50.6982C31.4458 50.6295 31.0493 50.578 30.6742 50.4835C30.6614 50.4835 30.6444 50.4835 30.6188 50.4835C30.0987 50.3547 29.4464 50.17 29.0415 50.054C28.7345 49.9381 28.3722 49.835 28.0013 49.6847C27.8265 49.616 27.6602 49.5387 27.4982 49.4657C27.1785 49.3368 26.7821 49.1221 26.4922 48.9718C26.4197 48.9332 26.3089 48.8773 26.2364 48.8344C26.0829 48.7528 25.9337 48.6411 25.776 48.5467C25.1749 48.1687 24.5653 47.6276 24.2072 47.1509C24.0878 47.0092 23.994 46.8847 23.8789 46.7129C23.6999 46.4251 23.572 46.103 23.4825 45.7853C23.4612 45.7037 23.4313 45.6307 23.4185 45.5533C23.3802 45.3601 23.3674 45.1711 23.3674 44.965C23.3759 44.4625 23.4953 43.9515 23.7468 43.5263C24.0068 42.9508 24.6633 42.2379 25.2772 41.7784C25.4008 41.6582 25.55 41.5766 25.6907 41.4692C26.1426 41.1471 26.765 40.7864 27.3064 40.5545C29.5573 39.498 32.1748 39.0299 34.6473 38.8882C34.8434 38.8925 35.1419 38.871 35.3124 38.8667C35.3507 38.8753 35.4616 38.871 35.5511 38.8753C35.8623 38.8538 36.2545 38.871 36.6467 38.8839C36.749 38.871 36.9835 38.8882 37.1327 38.8839C37.1966 38.9011 37.0474 38.8839 37.154 38.9011C37.4098 38.8753 38.2667 38.9612 38.6503 39.0041C38.6247 39.0041 38.6205 38.9956 38.6503 38.9999C38.7398 39.0213 38.7867 39.0041 38.8933 39.0213C39.5882 39.1115 40.087 39.1673 40.6753 39.279C40.7477 39.3005 40.9396 39.3606 41.012 39.3649C40.9055 39.3391 40.7733 39.3091 40.7861 39.2962C40.9609 39.3434 41.1954 39.3864 41.3105 39.4078C41.5279 39.4637 41.6344 39.498 41.8305 39.541C41.8774 39.5539 41.7879 39.5109 41.8902 39.541C42.1886 39.6354 42.3421 39.6655 42.6064 39.7643C42.6874 39.7729 42.9986 39.8802 43.0924 39.9232C43.1819 39.949 43.0029 39.8759 43.0753 39.9017C43.3183 39.979 43.5358 40.0692 43.7489 40.1594C43.8043 40.1766 43.8427 40.1852 43.9322 40.2195C43.9919 40.2453 43.9109 40.2238 44.0004 40.2582C44.0857 40.2882 43.9407 40.2152 43.9663 40.2152C44.0857 40.2625 44.0644 40.2453 44.1283 40.2625C44.2861 40.3398 44.4012 40.3827 44.5504 40.4471C44.7038 40.5115 44.8616 40.606 45.0065 40.679C45.1301 40.7392 45.1855 40.7606 45.322 40.8379C45.4328 40.9023 45.5181 40.9625 45.6374 41.0398C45.7014 41.0784 45.6033 41.0011 45.6928 41.0612C46.1106 41.3232 46.5028 41.6195 46.7842 41.8471C46.3494 41.4993 46.0339 41.2373 45.6076 40.9968C45.5522 40.941 45.4158 40.8895 45.3603 40.8379C45.3262 40.8293 45.4243 40.8895 45.3305 40.8336C45.3007 40.8122 45.2879 40.8036 45.241 40.7778C45.3092 40.7993 45.2197 40.7477 45.1898 40.7177C44.8232 40.5158 44.529 40.3784 44.1965 40.2281C44.1326 40.2066 44.2349 40.2539 44.1624 40.2281C44.0303 40.1723 43.9493 40.1379 43.7873 40.0692C43.7489 40.0391 43.6466 39.9919 43.7063 40.0005C44.1582 40.1852 44.772 40.4428 45.2751 40.7349C45.4285 40.825 45.582 40.9238 45.6758 40.9668C45.4499 40.8336 45.2793 40.7091 45.0832 40.5974C44.8275 40.4514 44.5333 40.3312 44.2775 40.2066C44.2136 40.1766 44.1624 40.1508 44.107 40.125C44.0644 40.1079 43.9535 40.0649 43.9024 40.0434C43.8384 40.0134 43.8384 40.0091 43.783 39.9876C43.6807 39.949 43.5613 39.906 43.4505 39.8674C43.2373 39.7858 43.0327 39.6999 42.794 39.6226C42.7514 39.6011 42.7769 39.5968 42.8324 39.614C43.1095 39.7128 43.1563 39.7299 43.442 39.833C43.4121 39.8201 43.3908 39.8072 43.3951 39.8029C43.4803 39.8373 43.5102 39.8545 43.5741 39.8716C43.3652 39.7901 43.3908 39.7729 43.4675 39.7901C43.9919 39.9919 44.6186 40.271 45.0236 40.5029C45.0704 40.5201 45.1045 40.5287 45.1813 40.5674C45.6417 40.8165 46.1319 41.1385 46.571 41.4821C46.0808 41.0655 45.5095 40.7134 44.8488 40.3827C44.8232 40.3655 44.8488 40.3698 44.7806 40.3355C44.4949 40.2023 44.1624 40.0477 43.9365 39.9532C43.847 39.9017 43.7532 39.8502 43.6594 39.7943C42.9347 39.5195 42.4103 39.2962 41.6899 39.0986C41.6941 39.09 41.6387 39.0729 41.6217 39.06C41.6813 39.0686 41.724 39.0686 41.7922 39.0772C41.9115 39.1072 42.0309 39.1416 42.1332 39.1759C42.7471 39.3219 43.5869 39.6354 44.3074 39.9447C44.4012 39.9704 44.3372 39.9275 44.2818 39.8888C43.9365 39.7256 43.6082 39.614 43.2373 39.4594C43.1137 39.3778 43.2672 39.3992 43.5571 39.5109C44.0431 39.6827 44.853 40.0649 45.1429 40.2367C45.8207 40.5845 46.4687 41.0011 47.0528 41.5208C47.6368 42.0361 48.1697 42.6502 48.515 43.4104C48.1398 42.5557 47.543 41.9416 46.959 41.4177C46.959 41.4263 46.9334 41.4091 46.8865 41.3662C46.2897 40.8637 45.5607 40.4128 44.9553 40.1207C44.7166 39.9704 44.2136 39.7686 43.9578 39.6397C44.0345 39.6354 44.2562 39.7128 44.529 39.8244C44.2519 39.7042 44.0047 39.5796 43.7702 39.4851C43.5784 39.4035 43.2416 39.2919 43.1436 39.2532C43.1222 39.2446 43.1691 39.2532 43.1222 39.2361C43.2032 39.2661 42.9816 39.1845 42.9645 39.1845C42.8579 39.1545 42.875 39.163 42.7514 39.1201C42.5894 39.0643 42.5936 39.0686 42.4913 39.0256C41.9286 38.8495 41.3744 38.7164 40.8074 38.5833C40.7477 38.5704 40.6284 38.5446 40.6198 38.5446C40.5644 38.5317 40.6156 38.536 40.5431 38.5189C40.5047 38.5103 40.5175 38.5189 40.4578 38.5103C40.2362 38.4587 39.9804 38.4158 39.7544 38.3771C39.1917 38.287 38.5224 38.1925 38.062 38.1538C37.9597 38.1409 38.0961 38.1452 37.9555 38.1324C37.1583 38.0551 36.3142 38.0121 35.4573 38.0207C35.3934 38.0207 35.4445 38.0078 35.3507 38.0078C35.2314 38.0078 35.2612 38.0207 35.1546 38.0207C35.0907 38.0207 35.0267 38.0121 34.9926 38.0078C34.0121 38.025 33.0018 38.1238 31.9957 38.2784C31.0621 38.4201 30.1285 38.6219 29.2631 38.8796C28.5811 39.0772 27.9416 39.3177 27.349 39.5581C26.5646 39.906 25.8996 40.2539 25.2175 40.7091C24.7273 41.0398 24.2157 41.4563 23.8704 41.83C23.8107 41.8944 23.7468 41.9803 23.6786 42.0533C23.572 42.1649 23.4697 42.2852 23.3759 42.4097C23.1244 42.749 22.9112 43.1355 22.745 43.5392C22.5617 43.9901 22.4636 44.4668 22.4551 44.9564C22.4551 45.2313 22.4892 45.4932 22.5361 45.7595C22.583 45.9313 22.6085 46.1202 22.6768 46.292C22.8473 46.7859 23.1201 47.2282 23.4015 47.6061C23.7809 48.1129 24.2328 48.5638 24.7315 48.9332C25.2644 49.3669 25.9763 49.7878 26.5561 50.0626C27.0123 50.3203 27.5196 50.505 28.0652 50.7154C28.1121 50.7369 28.1675 50.7583 28.2187 50.7798C29.0457 51.1019 30.0049 51.3166 30.6998 51.4755C30.9641 51.5099 31.1858 51.5786 31.4288 51.6216C31.6931 51.6731 31.9403 51.7031 32.1961 51.7375C32.2728 51.7504 32.3624 51.7676 32.4391 51.7805C32.6991 51.8105 32.9507 51.8363 33.2363 51.862C33.6626 51.9007 34.1145 51.9608 34.609 51.9651C34.9884 51.9952 35.5511 52.0209 35.9817 51.9952C36.7149 52.0124 37.4567 51.9479 38.207 51.8835C38.4628 51.8621 38.693 51.8492 38.9487 51.8062C39.213 51.7847 39.5285 51.7375 39.8482 51.6774C40.1637 51.6301 40.4962 51.57 40.8245 51.5056C41.2934 51.4068 41.8689 51.2522 42.2227 51.1749C42.4018 51.2007 42.6789 51.0031 43.0455 50.8958C43.2416 50.8399 43.2246 50.8657 43.3141 50.8614C43.4889 50.8099 43.6509 50.7455 43.8129 50.6725C44.009 50.6037 44.1624 50.5737 44.4139 50.462L44.4182 50.4534ZM43.1265 39.8459C43.1265 39.8459 43.1265 39.8545 43.1478 39.8588C43.0881 39.8545 42.9773 39.7901 43.1265 39.8459ZM43.1819 39.8588C43.3908 39.9318 43.6892 40.0391 43.8342 40.1121C43.8725 40.1293 43.8043 40.0821 43.8725 40.1036C43.9578 40.1508 44.0558 40.198 44.2093 40.2667C44.2093 40.2925 43.9152 40.1508 43.8939 40.1637C43.7787 40.1121 43.7233 40.0864 43.6679 40.0778C43.4334 39.9747 43.3738 39.9661 43.1947 39.8931C43.2501 39.8931 43.1649 39.8717 43.1862 39.8588H43.1819Z" fill="white"/>
<path fill-rule="evenodd" clip-rule="evenodd" d="M24.1804 25.125C24.1804 25.125 24.1208 25.1637 24.0781 25.1851C24.0867 25.1722 24.1421 25.1379 24.1804 25.125Z" fill="white"/>
<path fill-rule="evenodd" clip-rule="evenodd" d="M22.1882 25.1953C22.1584 25.2168 22.0603 25.2726 22.0646 25.2554C22.12 25.2254 22.1456 25.2168 22.1882 25.1953Z" fill="white"/>
<path fill-rule="evenodd" clip-rule="evenodd" d="M22.0064 25.2617C22.0064 25.2617 21.9212 25.309 21.8828 25.3261C21.8828 25.3175 21.9809 25.2703 22.0064 25.2617Z" fill="white"/>
<path fill-rule="evenodd" clip-rule="evenodd" d="M21.5709 25.6367C21.5496 25.6539 21.4814 25.6925 21.4473 25.7011C21.4515 25.6925 21.5325 25.6539 21.5709 25.6367Z" fill="white"/>
<path fill-rule="evenodd" clip-rule="evenodd" d="M21.2851 25.6328C21.2467 25.6629 21.1742 25.7015 21.0762 25.7488C21.106 25.723 21.2083 25.6715 21.2851 25.6328Z" fill="white"/>
<path fill-rule="evenodd" clip-rule="evenodd" d="M20.9831 26.5469C20.8765 26.6027 20.6634 26.7272 20.5781 26.753C20.7145 26.6929 20.8552 26.6027 20.9831 26.5469Z" fill="white"/>
<path fill-rule="evenodd" clip-rule="evenodd" d="M20.5612 26.4297C20.4376 26.5156 20.186 26.6229 20.0198 26.7217C19.9899 26.7217 20.2713 26.5886 20.3139 26.5542C20.348 26.5413 20.3821 26.5242 20.4205 26.507C20.4674 26.4812 20.5058 26.4512 20.5612 26.434V26.4297Z" fill="white"/>
<path fill-rule="evenodd" clip-rule="evenodd" d="M18.9022 27.2422C18.9022 27.2422 18.9022 27.2594 18.8553 27.2808C18.8425 27.2851 18.834 27.2808 18.834 27.2808L18.9022 27.2465V27.2422Z" fill="white"/>
<path fill-rule="evenodd" clip-rule="evenodd" d="M18.2665 27.6875C18.1642 27.7562 17.9169 27.885 17.7762 27.9452C17.7592 27.9581 17.7592 27.9624 17.7251 27.9795C17.6441 28.0225 17.4608 28.1127 17.6356 28.0225C17.8487 27.9022 18.0278 27.8206 18.2622 27.6918L18.2665 27.6875Z" fill="white"/>
<path fill-rule="evenodd" clip-rule="evenodd" d="M18.1135 27.5938C18.0879 27.6109 18.0453 27.6367 17.9941 27.6625C18.0027 27.6496 18.0922 27.6023 18.1135 27.5938Z" fill="white"/>
<path fill-rule="evenodd" clip-rule="evenodd" d="M18.1304 28.0352C18.1304 28.0352 18.0195 28.091 17.9727 28.121C18.0068 28.0996 18.0878 28.0523 18.1304 28.0352Z" fill="white"/>
<path fill-rule="evenodd" clip-rule="evenodd" d="M18.0067 27.707C17.9683 27.7371 17.8702 27.7843 17.8191 27.8187C17.7637 27.8316 17.9427 27.7457 18.0067 27.707Z" fill="white"/>
<path fill-rule="evenodd" clip-rule="evenodd" d="M17.9101 27.7109C17.8802 27.7367 17.7779 27.7882 17.7012 27.8269C17.7438 27.7968 17.8419 27.7496 17.9101 27.7109Z" fill="white"/>
<path fill-rule="evenodd" clip-rule="evenodd" d="M17.9944 28.1914C17.9944 28.1914 17.9219 28.2386 17.875 28.2644C17.8793 28.2515 17.9517 28.2172 17.9944 28.1914Z" fill="white"/>
<path fill-rule="evenodd" clip-rule="evenodd" d="M17.8886 28.1641C17.8332 28.2027 17.6371 28.3015 17.5391 28.3487C17.6584 28.28 17.7522 28.2328 17.8886 28.1641Z" fill="white"/>
<path fill-rule="evenodd" clip-rule="evenodd" d="M17.6656 27.8438C17.5803 27.9039 17.4439 27.9597 17.3672 27.9984C17.4482 27.9468 17.5718 27.8996 17.6656 27.8438Z" fill="white"/>
<path fill-rule="evenodd" clip-rule="evenodd" d="M17.4959 28.0938C17.466 28.1152 17.4064 28.1453 17.3595 28.1753C17.3424 28.1668 17.4362 28.1238 17.4959 28.0938Z" fill="white"/>
<path fill-rule="evenodd" clip-rule="evenodd" d="M17.3301 28.1445C17.2918 28.1746 17.2534 28.1875 17.1895 28.2175C17.2022 28.2047 17.2875 28.166 17.3301 28.1445Z" fill="white"/>
<path fill-rule="evenodd" clip-rule="evenodd" d="M17.1629 28.1875C17.1629 28.1875 17.0179 28.2734 17.0392 28.2433C17.0776 28.2219 17.0734 28.2304 17.0776 28.2347C17.1202 28.2133 17.116 28.209 17.1629 28.1875Z" fill="white"/>
<path fill-rule="evenodd" clip-rule="evenodd" d="M16.8984 28.5897C16.9794 28.5339 17.1372 28.4738 16.8984 28.5897V28.5897Z" fill="white"/>
<path fill-rule="evenodd" clip-rule="evenodd" d="M16.7572 28.793C16.689 28.8359 16.6165 28.8703 16.5312 28.9132C16.5824 28.8832 16.7231 28.8101 16.7572 28.793Z" fill="white"/>
<path fill-rule="evenodd" clip-rule="evenodd" d="M16.7109 28.8361C16.7407 28.8318 16.6 28.9048 16.6213 28.8791L16.7109 28.8361Z" fill="white"/>
<path fill-rule="evenodd" clip-rule="evenodd" d="M16.6213 29.0664C16.6 29.0836 16.5446 29.1136 16.502 29.1351C16.5105 29.1222 16.6 29.075 16.6213 29.0664Z" fill="white"/>
<path fill-rule="evenodd" clip-rule="evenodd" d="M16.1271 29.3086C15.931 29.4117 15.9865 29.3988 16.1271 29.3086V29.3086Z" fill="white"/>
<path fill-rule="evenodd" clip-rule="evenodd" d="M20.0713 27.2734C20.0457 27.2906 20.0031 27.3164 19.9861 27.3293C19.9264 27.3464 19.8326 27.4066 19.7559 27.4409C19.8411 27.3808 19.9434 27.3464 20.0713 27.2734Z" fill="white"/>
<path fill-rule="evenodd" clip-rule="evenodd" d="M17.9894 28.0511C17.9468 28.0726 17.9511 28.064 17.8999 28.0941C17.8914 28.0941 17.9127 28.0812 17.9127 28.0769C17.8232 28.1241 17.7763 28.1499 17.7038 28.1885C17.7123 28.18 17.7209 28.1757 17.7209 28.1714C17.6313 28.2358 17.5035 28.2744 17.2988 28.3861C17.4864 28.2701 17.9298 28.0554 18.1003 27.9609C18.079 27.9867 17.9255 28.0554 17.9127 28.0726C17.9127 28.0855 18.0108 28.0254 17.9894 28.0511Z" fill="white"/>
<path fill-rule="evenodd" clip-rule="evenodd" d="M17.6755 27.8829C17.6755 27.8915 17.5987 27.9259 17.5859 27.9302C17.603 27.913 17.8375 27.797 17.6712 27.8829H17.6755Z" fill="white"/>
<path fill-rule="evenodd" clip-rule="evenodd" d="M16.3908 28.586V28.5731C16.2757 28.6332 16.0966 28.7277 16.0156 28.7578C16.1435 28.6805 16.4334 28.5559 16.5229 28.4872C16.5613 28.47 16.5741 28.4657 16.6124 28.4486C16.9109 28.2725 17.2562 28.1179 17.5716 27.9375C17.4437 28.0406 17.0942 28.1694 16.9492 28.2854C16.9237 28.2982 16.9492 28.2854 16.9663 28.2725C16.8256 28.3455 16.5656 28.47 16.3908 28.586Z" fill="white"/>
<path fill-rule="evenodd" clip-rule="evenodd" d="M16.6847 28.8789C16.6421 28.9047 16.6208 28.9176 16.5824 28.9433C16.5654 28.9519 16.6464 28.8875 16.6847 28.8789Z" fill="white"/>
<path fill-rule="evenodd" clip-rule="evenodd" d="M51.276 27.1736C51.34 27.2036 51.4594 27.2595 51.5276 27.2895C51.7194 27.3883 51.8899 27.4871 52.086 27.5815C52.2395 27.6546 52.4569 27.7533 52.6104 27.822C52.7297 27.8779 52.7894 27.9079 52.8789 27.9466C53.1433 28.0711 53.3521 28.1828 53.48 28.2128C53.7017 28.303 53.8722 28.376 54.0726 28.4576C54.1195 28.4791 54.1451 28.492 54.1621 28.5006C54.5884 28.6638 54.874 28.7196 55.3643 28.9343C55.4154 28.9386 55.4538 28.9343 55.5433 28.9515C55.586 28.9601 55.6712 28.9987 55.7011 29.003C55.8162 29.0202 55.7522 28.93 55.9483 28.9987C55.9611 28.9987 55.9313 28.9773 55.9227 28.9644C55.9611 28.9 55.9227 28.8055 55.991 28.7754C55.8844 28.6809 55.927 28.6595 55.846 28.5779C55.7949 28.5306 55.6883 28.449 55.6201 28.3932C55.5433 28.3288 55.4581 28.2644 55.3941 28.2085C55.4069 28.1871 55.2961 28.127 55.2833 28.0969C55.1725 28.0239 55.036 27.9337 54.9252 27.8607C54.9167 27.8478 54.8826 27.8263 54.8868 27.8177C54.614 27.6331 54.3412 27.4355 53.949 27.2208C53.9106 27.1993 53.8339 27.1607 53.7955 27.1349C53.5013 26.9846 53.0495 26.7398 52.9088 26.6324C52.8576 26.6024 52.8534 26.611 52.8022 26.5809C52.7766 26.5508 52.6317 26.4435 52.4953 26.3748C52.4484 26.349 52.3589 26.3275 52.2523 26.276C52.0988 26.203 51.9624 26.1042 51.826 26.0355C51.762 26.0054 51.6853 25.984 51.6171 25.9539C51.438 25.8766 51.0927 25.6876 50.9521 25.606C50.8412 25.5416 50.8028 25.5073 50.7176 25.4643C50.6366 25.4257 50.5726 25.4085 50.5684 25.4343C50.3211 25.3656 49.7627 25.0306 49.4088 24.876C49.1658 24.73 48.9101 24.6312 48.6671 24.5023C48.6287 24.4809 48.5562 24.4379 48.5136 24.4165C48.4454 24.3864 48.309 24.322 48.2067 24.2747C48.0148 24.1803 47.8869 24.1201 47.7079 24.0342C47.4905 23.8882 47.3029 23.8324 47.1111 23.7293C47.0514 23.695 46.9533 23.6391 46.8894 23.6048C46.8297 23.5747 46.7402 23.5361 46.6762 23.5017C46.6166 23.4674 46.5142 23.4072 46.4546 23.3772C46.4077 23.3557 46.348 23.3299 46.3096 23.3085C46.2499 23.2784 46.2201 23.2526 46.1561 23.2226C46.1093 23.2011 46.0027 23.1539 45.9558 23.1367C45.7128 23.0164 45.4613 22.8747 45.2268 22.7802C44.8303 22.5526 44.4595 22.398 43.9863 22.1318C43.8626 22.0759 43.7731 22.033 43.6495 21.9643C43.6196 21.9514 43.6154 21.96 43.5728 21.9342C43.3255 21.7968 43.0527 21.6851 42.7969 21.5434C42.7841 21.5434 42.7756 21.5434 42.7542 21.5348C42.4047 21.3373 41.9528 21.1054 41.6672 20.9765C41.4583 20.852 41.1982 20.736 40.9297 20.5986C40.8018 20.5342 40.6824 20.4612 40.5631 20.4053C40.3158 20.2765 40.0344 20.1348 39.8085 20.0188C39.7573 19.9931 39.6593 19.9501 39.6081 19.9286C39.4888 19.8642 39.3779 19.8084 39.2415 19.7397C38.7513 19.5078 38.2056 19.2115 37.7836 18.9924C37.6685 18.9366 37.5278 18.8722 37.3914 18.8035C37.1398 18.6703 36.9011 18.5458 36.6581 18.417C36.607 18.3912 36.526 18.3568 36.4791 18.3354C36.2617 18.2237 36.0698 18.1249 35.8524 18.009L35.8226 17.9961C35.5753 18.1249 35.3195 18.2624 35.0723 18.3955C34.8932 18.4943 34.7099 18.5844 34.5351 18.6703C34.0918 18.9237 33.4353 19.2544 32.9109 19.5293C32.8001 19.6066 32.6807 19.6495 32.5613 19.7139C32.1905 19.9158 31.7215 20.1777 31.3208 20.371C29.6412 21.26 28.0212 22.1189 26.3459 23.0078C26.2137 23.0637 26.0176 23.171 25.911 23.2397C25.8812 23.244 25.8087 23.2827 25.749 23.3128C25.5529 23.4373 25.2886 23.5532 25.0328 23.695C24.9774 23.7465 24.8154 23.8152 24.7216 23.8796C24.6747 23.8925 24.7728 23.841 24.7003 23.8753C24.5511 23.9956 23.9756 24.2704 23.7284 24.4122C23.7454 24.4036 23.7539 24.4079 23.7284 24.4165C23.6644 24.4422 23.6431 24.4723 23.5749 24.5066C23.1145 24.7471 22.8033 24.949 22.4196 25.168C22.3684 25.1895 22.2278 25.2453 22.1894 25.2797C22.2619 25.2453 22.3514 25.1981 22.3514 25.2152C22.232 25.2711 22.0786 25.357 22.0061 25.4085C21.8611 25.4858 21.7844 25.5159 21.6565 25.5932C21.6224 25.6103 21.6949 25.5932 21.6267 25.6275C21.3965 25.7435 21.3453 25.7735 21.1364 25.8809C21.0895 25.9195 20.8764 26.0355 20.8082 26.0656C20.7528 26.0999 20.8807 26.0441 20.8295 26.0699C20.6675 26.16 20.514 26.2459 20.3563 26.3146C20.3222 26.3404 20.3009 26.3619 20.2369 26.3962C20.1943 26.4177 20.2412 26.3791 20.1815 26.4134C20.1261 26.4521 20.2327 26.4005 20.2241 26.4177C20.1431 26.465 20.1645 26.465 20.1261 26.4907C20.0067 26.5423 19.9343 26.5981 19.8319 26.6582C19.7041 26.7269 19.6188 26.7699 19.4994 26.8343C19.4099 26.8858 19.3758 26.9116 19.2778 26.9674C19.1968 27.0104 19.12 27.0361 19.0305 27.0834C18.9836 27.1091 19.0689 27.0748 19.0007 27.1134C18.6809 27.2852 18.3612 27.4527 18.131 27.5944C18.4848 27.384 18.7619 27.268 19.0689 27.0834C19.1243 27.0705 19.2095 27.0018 19.265 26.9932C19.282 26.976 19.2053 27.0061 19.2778 26.9717C19.3033 26.9588 19.3119 26.9588 19.3502 26.9374C19.3119 26.976 19.3801 26.9374 19.4099 26.9374C19.6742 26.7956 19.8959 26.6797 20.1261 26.5551C20.1687 26.5294 20.092 26.5637 20.1389 26.5337C20.2327 26.4821 20.2796 26.4564 20.3989 26.392C20.4373 26.3877 20.5098 26.3533 20.4799 26.392C20.1858 26.5551 19.7211 26.8042 19.3673 26.9975C19.2522 27.0576 19.1285 27.1091 19.0731 27.1607C19.2394 27.0662 19.3843 27.0147 19.5335 26.9417C19.7254 26.8472 19.9215 26.7226 20.109 26.6282C20.1517 26.6067 20.1986 26.5895 20.2327 26.5723C20.2582 26.5551 20.3392 26.5079 20.3691 26.4907C20.416 26.4693 20.4202 26.4735 20.4586 26.4521C20.5396 26.4091 20.595 26.3705 20.6846 26.3232C20.8338 26.2459 20.983 26.1815 21.1407 26.0956C21.1748 26.087 21.1663 26.1042 21.1279 26.1257C20.9361 26.2245 20.9062 26.2416 20.7059 26.3447C20.7272 26.3361 20.7442 26.3318 20.7442 26.3361C20.6846 26.3662 20.659 26.3748 20.6206 26.4005C20.7655 26.3232 20.7655 26.3533 20.7187 26.3877C20.352 26.5766 19.9385 26.7913 19.6145 26.9588C19.5847 26.9803 19.5676 27.0018 19.5165 27.0318C19.1669 27.2165 18.8216 27.3969 18.4507 27.5944C18.8685 27.3969 19.2905 27.165 19.7637 26.9159C19.7851 26.9073 19.7723 26.9245 19.8192 26.8987C20.0494 26.7742 20.254 26.6668 20.4117 26.5809C20.4842 26.5594 20.5567 26.5337 20.6334 26.5122C21.1279 26.2416 21.5158 26.1042 21.9933 25.8551C21.9933 25.8637 22.0359 25.8465 22.053 25.8465C22.0189 25.8723 21.9976 25.8938 21.9549 25.9238C21.8782 25.9668 21.7972 26.0097 21.7247 26.0398C21.3325 26.2717 20.7528 26.5508 20.2625 26.8257C20.2071 26.8729 20.2625 26.8558 20.3094 26.8472C20.5567 26.7312 20.7655 26.5981 21.0299 26.4821C21.1364 26.4693 21.0554 26.538 20.8551 26.6453C20.5268 26.8128 19.9726 27.0963 19.7509 27.2122C18.7577 27.7361 17.8667 28.2085 16.8691 28.7368C17.4191 28.4619 17.9136 28.1828 18.4124 27.938C18.4081 27.9337 18.4251 27.9208 18.4635 27.9036C18.9452 27.6588 19.4824 27.3797 19.8959 27.1521C20.0835 27.0791 20.4117 26.8815 20.6036 26.8085C20.5737 26.8644 20.433 26.9545 20.254 27.0576C20.4416 26.9588 20.6249 26.8772 20.7826 26.7956C20.9148 26.7312 21.1322 26.6024 21.2046 26.5766C21.2217 26.568 21.1961 26.5938 21.226 26.5766C21.1705 26.6024 21.3197 26.5251 21.3325 26.5208C21.4007 26.4821 21.388 26.4864 21.4689 26.4435C21.5755 26.3877 21.5755 26.392 21.648 26.3619C22.0274 26.1643 22.3684 25.9926 22.7521 25.7907C22.7905 25.7692 22.8672 25.7306 22.8757 25.7263C22.9099 25.7091 22.8843 25.7306 22.9312 25.7091C22.9567 25.6962 22.944 25.6962 22.9823 25.6748C23.1315 25.5975 23.2978 25.5159 23.4385 25.4429C23.8008 25.2582 24.2314 25.0392 24.5255 24.8846C24.5937 24.8545 24.5085 24.906 24.598 24.8588C25.1138 24.5968 25.6552 24.3263 26.1966 24.0514C26.2393 24.0299 26.2137 24.06 26.2691 24.0257C26.3459 23.987 26.3203 23.987 26.3885 23.9526C26.4311 23.9355 26.4737 23.9183 26.4993 23.914C27.1303 23.6005 27.7654 23.2569 28.4049 22.9177C29.006 22.6042 29.6028 22.2906 30.1698 21.9943C30.6174 21.7581 31.0394 21.5262 31.4444 21.3244C31.9986 21.0323 32.4462 20.7961 32.9493 20.5342C33.3116 20.3452 33.6953 20.1477 34.0193 19.9802C34.0619 19.9544 34.1429 19.9072 34.1941 19.8814C34.2751 19.8428 34.3945 19.7869 34.4754 19.7483C34.7142 19.6194 34.9827 19.4734 35.2257 19.3446C35.4261 19.2415 35.6222 19.1427 35.8183 19.0397C35.8183 19.0397 35.8567 19.0611 35.878 19.0654C35.878 19.0654 35.9249 19.0869 35.9632 19.1041C36.0016 19.1256 36.04 19.1427 36.0783 19.1599C36.1721 19.2115 36.2915 19.2759 36.3895 19.3274C36.6794 19.4734 36.9949 19.6323 37.272 19.7697C37.6429 19.9673 38.0223 20.1777 38.4102 20.3581C38.828 20.5814 39.3353 20.8434 39.7403 21.0452C40.0558 21.2342 40.4053 21.3888 40.7719 21.582C40.8018 21.5992 40.8444 21.625 40.8743 21.6422C41.4242 21.9471 42.0594 22.2348 42.5027 22.4839C42.6818 22.5569 42.8182 22.6471 42.9717 22.733C43.1422 22.8232 43.3042 22.8962 43.4662 22.9821C43.5088 23.0078 43.5728 23.0422 43.6196 23.068C43.7859 23.1539 43.9522 23.2312 44.1355 23.3213C44.4083 23.4588 44.6897 23.6306 45.0094 23.7809C45.2439 23.914 45.5977 24.1115 45.879 24.2404C46.3352 24.5023 46.8212 24.7214 47.2944 24.979C47.4564 25.0649 47.5928 25.1551 47.7633 25.2281C47.9253 25.3312 48.1299 25.4257 48.3346 25.533C48.5264 25.6361 48.7523 25.7607 48.957 25.8723C49.2596 26.0355 49.639 26.2159 49.8522 26.3619C49.9247 26.4778 50.1719 26.4907 50.4064 26.6282C50.53 26.7055 50.5044 26.714 50.5471 26.7656C50.6579 26.8343 50.7687 26.8815 50.8796 26.9374C51.0075 27.0104 51.0885 27.0877 51.259 27.1779L51.276 27.1736ZM20.8295 26.13C20.8295 26.13 20.8252 26.13 20.8082 26.13C20.838 26.0956 20.9318 26.0742 20.8295 26.13ZM20.7954 26.1558C20.6504 26.2331 20.4501 26.349 20.3392 26.3962C20.3094 26.4091 20.3734 26.3962 20.3265 26.4263C20.2625 26.4521 20.1858 26.4864 20.0792 26.5423C20.0621 26.5251 20.2796 26.4263 20.2796 26.4005C20.3606 26.3619 20.4032 26.3404 20.433 26.3104C20.6036 26.2288 20.6334 26.1987 20.7655 26.1386C20.74 26.1686 20.7954 26.1386 20.7911 26.1558H20.7954Z" fill="white"/>
</g>
<defs>
<clipPath id="clip0_868_21749">
<rect width="40" height="34" fill="white" transform="translate(16 18)"/>
</clipPath>
</defs>
</svg>
