<svg width="70" height="70" viewBox="0 0 70 70" fill="none" xmlns="http://www.w3.org/2000/svg">
<g clip-path="url(#clip0_868_7762)">
<path fill-rule="evenodd" clip-rule="evenodd" d="M24.9551 14.7769C24.9975 14.664 25.0884 14.4633 25.2035 14.25C25.1853 14.3065 25.0399 14.595 24.9551 14.7769Z" fill="white"/>
<path fill-rule="evenodd" clip-rule="evenodd" d="M31.8125 12.2266C31.9579 12.2328 32.3941 12.3081 32.3396 12.3269C32.0972 12.2579 31.9882 12.2642 31.8125 12.2266Z" fill="white"/>
<path fill-rule="evenodd" clip-rule="evenodd" d="M32.5527 12.3994C32.5951 12.3869 32.9162 12.4998 33.0616 12.5625C33.0495 12.5688 32.6557 12.4182 32.5527 12.3994Z" fill="white"/>
<path fill-rule="evenodd" clip-rule="evenodd" d="M34.5391 13.2344C34.6239 13.3096 34.8541 13.5041 34.9389 13.6233C34.9147 13.5919 34.6663 13.3473 34.5391 13.2344Z" fill="white"/>
<path fill-rule="evenodd" clip-rule="evenodd" d="M35.0781 14.1016C35.1993 14.2396 35.3871 14.4968 35.5628 14.8731C35.4962 14.7477 35.2841 14.3588 35.0781 14.1016Z" fill="white"/>
<path fill-rule="evenodd" clip-rule="evenodd" d="M36.5625 16.5781C36.5625 17.105 36.5807 18.1777 36.5625 18.5541C36.5625 17.8829 36.5625 17.1991 36.5625 16.5781Z" fill="white"/>
<path fill-rule="evenodd" clip-rule="evenodd" d="M36.1447 17.9883C36.169 18.6469 36.1447 19.82 36.1568 20.6605C36.1326 20.7797 36.1568 19.431 36.1387 19.1864C36.1387 18.9919 36.1447 18.8414 36.1508 18.6783C36.1508 18.4462 36.1326 18.2329 36.1508 17.9883H36.1447Z" fill="white"/>
<path fill-rule="evenodd" clip-rule="evenodd" d="M36.084 26.0312C36.084 26.0312 36.1022 26.0752 36.1022 26.301C36.1022 26.3637 36.09 26.3888 36.084 26.3763V26.0312Z" fill="white"/>
<path fill-rule="evenodd" clip-rule="evenodd" d="M36.2168 29.375C36.2168 29.6196 36.2471 30.0587 36.5015 30.3661C36.7499 30.6798 37.1922 30.7801 37.4951 30.7864C37.5738 30.7864 37.586 30.7738 37.7435 30.7738C38.1312 30.7864 38.9309 30.6045 38.1433 30.755C37.6465 30.8052 37.1679 30.8303 36.7863 30.6233C36.3985 30.4226 36.1925 29.9396 36.2168 29.3813V29.375Z" fill="white"/>
<path fill-rule="evenodd" clip-rule="evenodd" d="M36.0176 29.7812C36.0479 29.913 36.0903 30.1388 36.2417 30.3834C36.2175 30.3584 36.1448 30.2392 36.0963 30.1074C36.0479 29.9757 36.0236 29.8314 36.0176 29.7812Z" fill="white"/>
<path fill-rule="evenodd" clip-rule="evenodd" d="M36.7871 30.1641C36.8235 30.2017 37.0234 30.3585 37.1991 30.3773C37.0719 30.3711 36.8416 30.2582 36.7871 30.1641Z" fill="white"/>
<path fill-rule="evenodd" clip-rule="evenodd" d="M36.3147 30.3867C36.4176 30.5875 36.8357 30.8509 37.0962 30.876C37.2113 30.9011 37.0538 30.9011 36.8417 30.8133C36.6297 30.738 36.3995 30.531 36.3086 30.3867H36.3147Z" fill="white"/>
<path fill-rule="evenodd" clip-rule="evenodd" d="M36.5508 30.7227C36.6295 30.7666 36.781 30.8544 36.9688 30.9171C37.1566 30.9673 37.3747 30.9924 37.5625 30.9924C37.3444 31.0049 36.8476 30.9485 36.5508 30.7227Z" fill="white"/>
<path fill-rule="evenodd" clip-rule="evenodd" d="M37.2539 30.2891C37.2539 30.2891 37.4841 30.3142 37.7204 30.2953C37.6659 30.3142 37.3811 30.3142 37.2539 30.2891Z" fill="white"/>
<path fill-rule="evenodd" clip-rule="evenodd" d="M37.5137 30.4236C37.6288 30.4236 37.9256 30.4173 38.1983 30.3734C38.483 30.3358 38.7132 30.2417 38.792 30.1602C38.5557 30.3734 38.0832 30.4299 37.5137 30.4236Z" fill="white"/>
<path fill-rule="evenodd" clip-rule="evenodd" d="M37.7266 30.9873C38.1506 30.9685 38.811 30.8932 39.12 30.6172C38.7807 30.9183 38.1688 30.9685 37.7266 30.9873Z" fill="white"/>
<path fill-rule="evenodd" clip-rule="evenodd" d="M38.7559 30.6035C38.8952 30.547 39.0951 30.3965 39.1921 30.2083C39.2102 30.1958 39.1739 30.2773 39.0951 30.3714C39.0103 30.4592 38.8831 30.5596 38.7619 30.6035H38.7559Z" fill="white"/>
<path fill-rule="evenodd" clip-rule="evenodd" d="M39.2656 30.1922C39.3383 30.0165 39.3868 29.8534 39.4171 29.5586C39.4231 29.6276 39.3626 30.0291 39.2656 30.1922Z" fill="white"/>
<path fill-rule="evenodd" clip-rule="evenodd" d="M39.4824 29.506C39.4945 29.4119 39.4824 28.772 39.4945 28.91C39.5127 29.0919 39.4945 29.0669 39.4945 29.0731C39.4945 29.2801 39.5006 29.2613 39.4824 29.4997V29.506Z" fill="white"/>
<path fill-rule="evenodd" clip-rule="evenodd" d="M38.7734 28.0625C38.9007 28.1942 39.0097 28.4012 39.0339 28.4702C39.0461 28.5455 39.0582 28.4451 38.7734 28.0625Z" fill="white"/>
<path fill-rule="evenodd" clip-rule="evenodd" d="M38.0777 27.6803C37.8172 27.5361 37.5506 27.3981 37.1992 27.2852C37.4294 27.3353 37.9565 27.5988 38.0777 27.6803Z" fill="white"/>
<path fill-rule="evenodd" clip-rule="evenodd" d="M37.8656 27.5866C37.9564 27.6367 37.4233 27.3921 37.5324 27.4297C37.6414 27.4862 37.7626 27.5238 37.8656 27.5866Z" fill="white"/>
<path fill-rule="evenodd" clip-rule="evenodd" d="M37.1569 27.5443C37.0055 27.5003 36.8298 27.4502 36.6602 27.4062C36.7147 27.4062 37.0842 27.5003 37.1569 27.5443Z" fill="white"/>
<path fill-rule="evenodd" clip-rule="evenodd" d="M35.0915 27.1596C34.4372 27.1596 34.213 27.1345 35.0915 27.1596Z" fill="white"/>
<path fill-rule="evenodd" clip-rule="evenodd" d="M36.8773 21.5508C36.8773 21.6951 36.8894 21.8456 36.8954 21.9899C36.8773 22.2533 36.8954 22.7426 36.8833 23.1002C36.8651 22.6611 36.8833 22.1906 36.8773 21.5508Z" fill="white"/>
<path fill-rule="evenodd" clip-rule="evenodd" d="M37.0354 30.4217C37.1687 30.4718 37.1626 30.4656 37.3444 30.4969C37.3625 30.5095 37.2777 30.4969 37.2717 30.4969C37.5988 30.5408 37.8533 30.5157 38.1622 30.4844C38.1198 30.4907 38.0835 30.5032 38.0835 30.5095C38.2895 30.4718 38.5197 30.4405 38.7317 30.3401C38.9317 30.2397 39.0892 30.0766 39.1376 29.625C39.1195 29.8383 39.0589 30.0829 38.9074 30.2335C38.762 30.3903 38.447 30.4844 38.1138 30.522C37.7745 30.5534 37.411 30.5659 37.1747 30.5032C36.9203 30.4467 36.7628 30.3276 36.6719 30.2146C36.7022 30.246 36.8052 30.3464 36.9324 30.4154C37.0717 30.4781 37.2292 30.5032 37.2656 30.5032C37.2717 30.5032 37.1868 30.4781 37.1081 30.4593C37.0414 30.4342 36.9809 30.4091 37.0354 30.4154V30.4217Z" fill="white"/>
<path fill-rule="evenodd" clip-rule="evenodd" d="M37.7568 30.9298C37.8537 30.9298 37.8053 30.9298 37.7568 30.9298C37.9083 30.9173 38.1142 30.9047 38.1748 30.8984C38.0779 30.9486 36.9753 30.9361 37.7568 30.9298Z" fill="white"/>
<path fill-rule="evenodd" clip-rule="evenodd" d="M37.4418 26.821L37.454 26.8084C36.9572 26.614 36.1151 26.4822 35.7637 26.4258C36.0787 26.4571 36.5634 26.5261 37.0178 26.6579C37.4721 26.7708 37.8841 26.959 38.0901 27.0531C38.181 27.1158 38.3627 27.2036 38.4415 27.2726C39.0655 27.6427 39.6047 28.3766 39.538 29.2047C39.5259 29.5999 39.5017 30.0201 39.2775 30.3651C39.0473 30.7102 38.6293 30.8293 38.2597 30.8858C38.4294 30.8544 38.6535 30.8042 38.8777 30.6913C39.114 30.5847 39.3139 30.3526 39.4108 30.0703C39.5017 29.788 39.5199 29.4869 39.5259 29.2109C39.538 28.9349 39.4956 28.684 39.4169 28.5021C39.3745 28.3766 39.4169 28.5021 39.4472 28.5836C39.3624 28.2449 39.1018 27.8184 38.7141 27.4984C38.3324 27.1723 37.8478 26.9464 37.4358 26.821H37.4418Z" fill="white"/>
<path fill-rule="evenodd" clip-rule="evenodd" d="M37.7083 27.5514C37.5992 27.5137 37.4114 27.4259 37.2842 27.3945C37.2236 27.3695 37.5811 27.4698 37.7083 27.5514Z" fill="white"/>
<path fill-rule="evenodd" clip-rule="evenodd" d="M48.9341 39.7251C48.9644 40.0952 48.9947 40.5406 49.025 40.9295C49.0734 41.8642 49.1158 42.7047 49.1643 43.6582C49.2128 44.48 49.2552 45.3017 49.3037 46.1485C49.3279 46.7821 49.34 47.0017 49.3582 47.4345C49.4127 48.6953 49.4006 49.7241 49.443 50.2698C49.4672 51.148 49.4612 52.252 49.443 53.0111C49.4369 53.1491 49.4188 53.3749 49.4188 53.4314C49.4127 53.6634 49.4006 53.8955 49.3945 54.1214L49.3339 54.7424L49.2915 55.2442C49.2915 55.2442 49.2491 55.3571 49.2128 55.4324C49.1764 55.5139 49.128 55.5892 49.0856 55.6708C48.7099 56.2981 48.1526 56.9002 47.2196 57.3582C47.056 57.4397 46.9712 57.5464 46.6319 57.6718C46.4865 57.7408 46.1291 57.8286 46.014 57.86C45.5899 57.9917 45.9837 58.0105 45.1597 58.1297C45.1173 58.1485 45.2688 58.136 45.3112 58.1423C45.293 58.2552 45.6383 58.3179 45.4384 58.4246C46.0442 58.4246 45.917 58.481 46.3956 58.4434C46.6925 58.4183 47.262 58.2615 47.6255 58.1235C48.0375 57.9604 48.4676 57.7408 48.7826 57.5213C48.8069 57.5589 49.2552 57.1763 49.3521 57.1073C49.6187 56.8626 49.8247 56.6117 50.0246 56.3482C50.1215 56.2165 50.2124 56.0785 50.3033 55.9217C50.3396 55.859 50.4063 55.7335 50.4608 55.6143C50.5032 55.4763 50.5093 55.3759 50.5274 55.2944C50.5456 55.2317 50.5759 55.0623 50.5941 55.0498C50.8849 53.5694 50.9818 52.114 51.0182 50.1381C51.0182 49.9562 51.0182 49.5798 51.0182 49.3603C51.0182 47.8987 50.9455 45.6593 50.9576 44.894C50.9455 44.6305 50.9455 44.6368 50.9334 44.3733C50.9455 44.204 50.9455 43.4324 50.9152 42.7675C50.897 42.5667 50.8607 42.0837 50.8243 41.6321C50.788 40.8919 50.7516 40.158 50.7213 39.493C50.691 39.2296 50.6547 38.8218 50.6244 38.5333C50.5638 37.6551 50.4426 35.9928 50.3942 35.2714C50.3578 34.7131 50.3578 34.4998 50.3215 34.0795C50.2851 33.6969 50.2427 33.4146 50.2124 33.4523C50.1276 32.9065 50.0428 31.9279 49.9519 30.8804C49.9034 30.3535 49.855 29.8077 49.8065 29.2933C49.7823 29.0362 49.758 28.7852 49.7338 28.5406C49.7035 28.3461 49.7156 28.0952 49.6429 27.9133C49.5096 27.769 49.3824 27.631 49.2612 27.493C49.0856 27.2923 48.9159 27.1041 48.7523 26.9159C48.5039 26.6462 48.2616 26.3765 48.0132 26.1067C47.2256 26.1067 46.4441 26.1193 45.6807 26.1255C45.4566 26.1255 45.1718 26.1193 44.9416 26.113C44.4267 26.113 43.6996 26.1255 43.0332 26.1318C42.8394 26.1318 42.6455 26.1318 42.4698 26.1318C42.4698 27.1794 42.4819 28.089 42.488 28.9922C42.4456 30.1276 42.494 30.9619 42.488 31.9154C42.488 32.2604 42.4759 32.6368 42.4759 33.0257C42.4759 33.3582 42.4819 33.6969 42.488 34.0607C42.488 34.4183 42.4759 34.826 42.4759 35.171C42.4759 35.4282 42.4759 35.6478 42.4819 35.861C42.4819 36.137 42.4819 36.3315 42.4698 36.6263C42.4759 36.9274 42.4819 37.2787 42.488 37.5798C42.494 38.7466 42.4759 40.0137 42.5122 41.1114C42.5122 43.1501 42.5061 44.7999 42.5001 47.2024C42.5061 47.792 42.5122 48.2249 42.5061 48.8396C42.5061 48.9776 42.5183 48.9776 42.5183 49.1909C42.5183 50.4329 42.5183 51.6875 42.5243 52.9734C42.5243 53.0173 42.5364 53.0675 42.5364 53.1553C42.5364 53.7952 42.5243 54.4789 42.5243 55.1627C42.5243 55.7398 42.5243 56.3169 42.5243 56.8438C42.4334 56.9316 42.3426 57.0194 42.2517 57.101C42.2093 57.1386 42.1729 57.1763 42.1366 57.2139C42.1184 57.239 42.1002 57.2327 42.0699 57.239C41.8276 57.2578 41.5913 57.2829 41.349 57.3017C41.0764 57.3331 40.7977 57.3582 40.5129 57.3895C39.9374 57.4334 39.3255 57.4711 38.7075 57.5213C38.1199 57.5401 37.5443 57.5589 36.987 57.5777C35.9086 57.6091 34.4909 57.6028 33.4489 57.5777C33.1399 57.5777 32.837 57.5777 32.5341 57.5777C31.9827 57.5526 31.4011 57.5338 30.8074 57.5087C28.5416 57.4334 25.9486 57.1951 23.9736 56.9881C23.3738 56.9253 22.8346 56.8689 22.156 56.7999C21.5926 56.7309 21.0171 56.6556 20.4476 56.5741C20.3931 56.5615 20.3567 56.5741 20.3204 56.5427L20.1992 56.3733C20.0235 56.1287 19.8539 55.8903 19.6842 55.6519L19.454 55.332C19.4177 55.2881 19.3874 55.2442 19.351 55.2003V55.1752C19.351 54.5103 19.351 53.883 19.351 53.1867C19.351 51.3488 19.3268 49.5045 19.351 47.7732C19.3207 45.5652 19.3328 42.3409 19.3268 39.7753C19.3026 39.1982 19.3268 38.6525 19.3207 38.0565C19.3086 36.2186 19.2844 33.8725 19.3026 31.953C19.3026 30.7863 19.2904 29.6195 19.2844 28.4465L20.3931 27.217C21.635 27.217 22.877 27.217 24.125 27.2108H26.1122H27.0936C27.3844 27.2108 27.6571 27.2609 27.8752 27.3425C28.0933 27.4303 28.2205 27.5558 28.3174 27.7439C28.4144 27.9321 28.4568 28.2081 28.4689 28.5092C28.4689 29.0738 28.4992 30.0524 28.3598 30.1214C28.3114 30.1778 28.269 30.2029 28.1841 30.2343C28.0993 30.2656 27.9539 30.2907 27.8206 30.3158C27.5419 30.3535 27.2087 30.3597 26.9179 30.3535C26.6332 30.3535 26.3545 30.3033 26.1849 30.2155C26.0092 30.1339 26.0213 30.0398 26.0092 30.0273L26.0274 29.8893C26.0274 29.1365 26.0213 28.3963 26.0152 27.6624C26.0334 27.0351 26.0213 26.0628 26.0152 25.5108C26.0274 25.3916 26.0274 25.0215 26.0274 24.7455C25.9971 23.7419 26.0274 22.481 26.0152 21.2202C25.9849 20.9002 26.0092 20.135 25.9849 19.6582C26.0031 19.4512 25.9971 19.9342 26.0092 19.5829C25.9849 19.1752 25.9789 18.2782 25.9728 17.3247C25.9728 16.848 25.9728 16.3587 25.9728 15.9133C25.9728 15.8067 25.9728 15.7063 25.9728 15.6059C25.9668 15.5558 25.9789 15.5056 25.9971 15.4617C26.0576 15.3111 26.1243 15.1543 26.1849 15.0288C26.1485 15.0978 26.1364 15.1104 26.1849 15.0226C26.3242 14.7842 26.3666 14.6587 26.5363 14.4015C27.7176 12.6891 29.2201 12.0618 30.971 12.0367C31.1952 12.0492 31.7828 12.1057 31.9827 12.137C31.6738 12.0743 31.2618 12.0555 31.2921 12.0367C31.8313 12.0492 32.5098 12.206 32.8551 12.2876C33.4731 12.5071 33.7639 12.6765 34.2546 12.9902C34.3697 13.078 34.1577 12.8835 34.4 13.078C34.7635 13.3665 34.9998 13.6237 35.2119 13.8809C35.4239 14.1444 35.6057 14.4141 35.7753 14.7905C35.7995 14.8469 35.848 14.8971 35.8601 14.9975C35.8601 15.1292 35.8601 15.2798 35.8662 15.4303C35.8662 15.7628 35.8662 16.089 35.8662 16.2709C35.8722 16.5657 35.8843 15.9509 35.8904 16.1956C35.8965 17.0111 35.9025 17.7638 35.8904 18.5166C35.9025 18.7047 35.9146 18.8239 35.9146 19.1313C35.9146 19.3383 35.8965 19.0748 35.9025 19.3822C35.9146 19.6708 35.9207 19.1564 35.9389 19.2317C35.9449 19.6394 35.957 19.5578 35.9692 19.7649C35.957 20.3294 35.9813 20.7183 35.9873 21.239C35.9873 21.7847 35.9873 22.3493 35.9934 22.8762C35.9994 23.3028 36.0055 23.5286 36.0116 24.0053C36.0116 24.4005 35.9994 24.7581 35.9994 25.1972C35.9994 25.4355 36.0176 25.0403 36.0176 25.3791C36.0297 26.7466 36.0358 28.0952 36.0479 29.2118C36.0479 29.2243 36.0479 29.2369 36.0479 29.2432C36.0479 29.2557 36.0479 29.2683 36.0479 29.2745C36.0358 29.4313 36.0419 29.5693 36.06 29.6948C36.0419 29.5505 36.0419 29.4125 36.054 29.2745V29.2432C36.054 29.2432 36.054 29.2181 36.054 29.2118C36.0358 27.6687 36.06 26.458 36.0358 25.0403C36.054 24.802 36.0237 24.3378 36.0479 24.1057C36.0358 23.999 36.0297 24.3629 36.0297 24.0116C36.0297 23.8987 36.0297 23.8422 36.0297 23.6729C36.054 23.8924 36.054 23.5662 36.0721 23.4345C36.0721 22.1046 36.0661 21.0571 36.06 19.9091C36.06 19.6959 36.0479 20.0597 36.0419 19.815C36.0419 19.3759 36.0419 19.0497 36.0358 18.5228C36.054 18.366 36.06 18.021 36.0843 18.2029C36.0964 19.746 36.1085 21.8788 36.1206 23.7168C36.1206 24.275 36.1024 24.8584 36.1327 25.1846C36.1267 24.3566 36.157 23.6854 36.157 22.964C36.157 22.0356 36.1449 21.032 36.1388 20.1224C36.1388 19.8715 36.1388 19.7523 36.1509 19.5265C36.1509 19.3508 36.1449 19.0247 36.1388 18.8302C36.1388 18.6232 36.1388 18.5793 36.1509 18.4036C36.1509 18.0273 36.1388 17.7011 36.1327 17.2808C36.1327 16.5594 36.1388 15.8506 36.1448 15.0539C36.1509 14.9097 36.1691 14.9724 36.1751 15.1543C36.1751 16.0952 36.1751 16.252 36.1751 17.2181C36.1751 17.1114 36.1751 17.0424 36.1873 17.055C36.1873 17.3498 36.1812 17.4564 36.1873 17.6572C36.1873 16.9421 36.2176 17.0048 36.2357 17.2494C36.2357 19.0247 36.2357 21.1825 36.2357 22.6566C36.2478 22.8197 36.26 22.9201 36.26 23.1836C36.26 24.8333 36.266 26.6587 36.2721 28.4277C36.2963 26.4204 36.2842 24.319 36.2721 21.9855C36.2721 21.8976 36.2903 21.9666 36.2842 21.7345C36.2842 20.7246 36.2721 19.5829 36.2721 18.8051L36.3327 17.8014C36.3327 17.1867 36.3327 16.6221 36.3327 16.0701C36.3327 15.8004 36.3387 15.5307 36.3448 15.2609C36.3448 15.1417 36.3569 14.9849 36.3448 14.8218C36.2903 14.665 36.2297 14.5333 36.1751 14.4141C35.6965 13.4481 34.9392 12.6201 33.879 12.0806C33.8972 12.0743 33.7336 11.9865 33.667 11.9426C33.8427 12.0179 33.9638 12.0555 34.1638 12.1621C34.503 12.3629 34.8423 12.595 35.0907 12.8459C35.4784 13.1783 35.854 13.6174 36.163 14.1444C36.2418 14.2761 36.3084 14.4078 36.3811 14.5646C36.4175 14.6525 36.4659 14.7466 36.4841 14.8469V15.1292C36.4841 15.4303 36.4841 15.7439 36.4841 16.0576C36.4841 17.3122 36.4902 18.6106 36.4962 19.8527C36.5205 20.1538 36.5326 19.9154 36.5508 19.7084C36.5629 18.5228 36.5326 17.4439 36.5629 16.1956C36.6113 15.7502 36.6477 16.2207 36.6538 17.1867C36.6538 18.7926 36.6538 21.5463 36.6477 22.5939C36.6538 24.8145 36.6598 27.0037 36.6719 29.2181V29.2745L36.6598 29.331C36.6416 29.5443 36.6719 29.7952 36.7507 29.9583C36.8294 30.1276 36.9446 30.228 37.1263 30.297C37.4656 30.4225 38.1744 30.3786 38.5743 30.2531C38.7863 30.1778 38.8711 30.0963 38.9438 29.9457C39.0165 29.7826 39.0468 29.5129 39.0529 29.2243C39.0529 29.0612 39.0529 28.9546 39.0347 28.8542C39.0165 28.7476 38.9802 28.641 38.9378 28.5343C38.8469 28.3273 38.6954 28.1329 38.5076 27.9635C38.7015 28.1454 38.8529 28.3461 38.9378 28.5657C38.9802 28.6723 39.0105 28.7852 39.0286 28.8919L39.0408 29.0612V29.2808C39.0286 29.5694 38.9862 29.8328 38.9135 29.9771C38.8469 30.1151 38.7318 30.1904 38.5137 30.2594C38.3016 30.3221 38.029 30.3472 37.7564 30.3535C37.4777 30.366 37.2657 30.3409 37.096 30.2719C36.9264 30.1966 36.8234 30.1025 36.7507 29.9332C36.678 29.7764 36.6538 29.5317 36.6719 29.331V29.2683L36.678 29.2494C36.678 29.2494 36.678 29.2432 36.678 29.2055C36.678 29.1428 36.678 29.0863 36.678 28.9546C36.678 26.596 36.6719 23.9928 36.6659 21.9039C36.6962 21.0382 36.6659 19.3634 36.6901 18.4852C36.7386 18.7047 36.7628 19.4261 36.7749 20.3294C36.7749 19.4073 36.787 18.5354 36.7931 17.7638C36.7931 17.124 36.781 16.0262 36.7931 15.7C36.7931 15.6248 36.8052 15.769 36.8052 15.6248C36.8052 15.8882 36.8052 15.1606 36.8052 15.1041C36.8052 14.9724 36.8052 14.8783 36.7992 14.803C36.8052 14.7152 36.7567 14.665 36.7386 14.6023C36.7143 14.5396 36.6901 14.4706 36.6538 14.3953C36.6295 14.3325 36.5932 14.2573 36.5386 14.1569C36.2478 13.6363 36.2478 13.6551 36.0419 13.3477C35.436 12.5322 34.6121 11.9238 33.7276 11.5286C32.8309 11.1459 31.8798 10.9891 30.9346 10.9766C30.7347 10.9891 30.3349 11.0079 30.2985 11.0079C30.1168 11.0205 30.2682 10.9891 30.0319 11.0142C29.8987 11.0393 29.9592 11.0393 29.7593 11.0707C29.0141 11.1773 28.1599 11.4784 27.5117 11.9112C26.6938 12.4319 25.9425 13.2285 25.4336 14.1067C25.3064 14.3263 25.1913 14.5521 25.0883 14.7779L25.0156 14.9536C24.9914 15.01 24.955 15.1229 24.9247 15.2045C24.8581 15.3676 24.9005 15.6185 24.8884 15.6875C24.8884 16.114 24.8884 16.5155 24.8884 16.8793C24.8884 17.1992 24.8702 16.779 24.8702 17.2118C24.8641 19.7084 24.852 22.343 24.846 25.0152C24.846 25.216 24.8278 25.0529 24.8278 25.3477C24.8278 25.7178 24.846 25.6237 24.846 25.9562C24.846 26.1632 24.8339 26.3514 24.8217 26.458C24.8217 27.5809 24.8217 28.71 24.8157 29.8516L24.8399 29.6509C24.7914 29.8642 24.7975 29.9395 24.8036 30.0837C24.8096 30.2092 24.8339 30.3409 24.8763 30.4601C24.9611 30.7047 25.1125 30.9306 25.2822 31.0811C25.6275 31.3948 25.9789 31.4888 26.2757 31.5516C26.5787 31.6143 26.8695 31.6206 27.136 31.6206C27.3905 31.6206 27.651 31.608 27.9297 31.5767C28.2084 31.539 28.4992 31.5139 28.9051 31.3007C29.2989 31.0999 29.5715 30.7047 29.6684 30.2719C29.7533 29.8642 29.7411 29.6007 29.7472 29.3373C29.7472 29.1114 29.7593 28.848 29.7472 28.572C29.7351 28.1642 29.7108 27.7 29.4927 27.1982C29.2868 26.6964 28.8082 26.2573 28.3477 26.0942C27.8873 25.9123 27.4511 25.8872 27.0452 25.8746C26.6938 25.8746 26.3424 25.8746 25.991 25.8746C24.5855 25.8746 23.2041 25.8746 21.8531 25.8746C21.1867 25.8746 20.5263 25.8746 19.8781 25.8746C19.2056 26.6086 18.5998 27.2798 18 27.9384C18 28.848 18 29.7324 18 30.6044C18 33.2515 18.0121 35.5286 18.0182 38.0001C18.0182 39.7816 18.0182 41.7324 18.0182 43.2379C18.0182 43.4888 18.0242 43.8088 18.0303 44.1036C18.0303 44.549 18.0182 45.0257 18.0182 45.4711C18.0182 46.6943 18.0303 47.9551 18.0364 49.1721C18.0364 50.5396 18.0364 51.8569 18.0364 53.2055C18.0364 54.0273 18.0485 54.8365 18.0485 55.6582L18.0606 55.677C18.3817 56.135 18.7209 56.6242 19.0542 57.0947L19.4964 57.7157C19.5631 57.8914 19.7569 57.8412 19.8963 57.8788L20.3022 57.9353C20.6536 57.9792 21.005 58.0231 21.3563 58.067C22.0531 58.1485 22.7437 58.2238 23.4041 58.3054C25.1731 58.4998 26.9967 58.688 28.8021 58.7821C30.7953 58.9264 33.2187 59.0142 35.1392 59.0017C36.6901 59.033 38.3138 58.964 40.0707 58.8386C40.2464 58.8323 40.3857 58.826 40.5675 58.8135C41.0582 58.7633 41.5489 58.7194 42.0518 58.6692L42.6031 58.6127C42.6637 58.619 42.7061 58.5814 42.7424 58.5375L42.8636 58.4246L43.0817 58.2238L43.8632 57.5024C43.8632 55.608 43.8632 53.7764 43.8632 52.2583C43.839 51.424 43.8632 50.7152 43.8693 49.9436C43.8693 49.1093 43.8632 48.3315 43.8572 47.5349C43.8572 47.2777 43.8632 47.0267 43.8693 46.7696C43.8693 45.9604 43.8632 45.1637 43.8572 44.273C43.8572 42.9368 43.8935 41.5192 43.8693 39.9886C43.8875 38.8093 43.9056 37.0529 43.8814 35.7042C43.9117 33.4146 43.8814 31.1062 43.8935 28.7539C43.8935 28.3901 43.9056 28.0388 43.9117 27.6812C43.942 27.6812 43.9723 27.6812 44.0026 27.6749C43.9359 27.6875 44.5478 27.6875 44.9719 27.6875C45.4323 27.6875 45.917 27.6875 46.4017 27.6875C46.6077 27.6875 46.8137 27.6875 47.0257 27.6875H47.2862H47.3407C47.4619 27.8255 47.577 27.9635 47.6982 28.0952L48.1768 28.6347C48.1768 28.6347 48.1889 28.6598 48.1889 28.6786L48.201 28.8417C48.2192 29.0362 48.2374 29.2306 48.2556 29.4313C48.2919 29.8265 48.3283 30.228 48.3646 30.6232C48.4312 31.4073 48.4918 32.1412 48.51 32.6932C48.4555 33.2076 48.6796 34.1736 48.7523 35.3529C48.7826 35.9802 48.7463 35.8987 48.7281 36.1684C48.7523 36.7267 48.8069 37.2473 48.8493 37.7931C48.8856 38.4266 48.8674 38.8908 48.928 39.7314L48.9341 39.7251ZM35.9449 16.3399C35.9449 16.3399 35.9389 16.3524 35.9389 16.4214C35.9207 16.2395 35.951 15.8318 35.9449 16.3399ZM35.951 16.5155C35.951 17.2306 35.9752 18.2343 35.951 18.7486C35.951 18.8867 35.9752 18.6232 35.9813 18.849C35.9692 19.1564 35.9631 19.5139 35.9631 20.0409C35.9267 20.0722 35.951 19.0309 35.9146 18.987C35.9146 18.5856 35.9146 18.3848 35.9025 18.2092C35.9025 17.3686 35.9025 17.2306 35.9025 16.5782C35.9207 16.7413 35.9207 16.4653 35.9389 16.5155H35.951Z" fill="white"/>
<path fill-rule="evenodd" clip-rule="evenodd" d="M35.6174 21.7589C35.6174 21.7589 35.6113 21.715 35.6113 21.6836C35.6234 21.6899 35.6295 21.7338 35.6174 21.7589Z" fill="white"/>
<path fill-rule="evenodd" clip-rule="evenodd" d="M36.8284 20.6428C36.8284 20.6428 36.8102 20.5487 36.8284 20.555C36.8284 20.5926 36.8284 20.6114 36.8284 20.6428Z" fill="white"/>
<path fill-rule="evenodd" clip-rule="evenodd" d="M36.8594 20.5214C36.8594 20.5214 36.8594 20.4587 36.8594 20.4336C36.8715 20.4336 36.8715 20.5026 36.8594 20.5214Z" fill="white"/>
<path fill-rule="evenodd" clip-rule="evenodd" d="M36.6714 20.1777C36.6714 20.1777 36.6593 20.1149 36.6714 20.0898C36.6835 20.0898 36.6714 20.1526 36.6714 20.1777Z" fill="white"/>
<path fill-rule="evenodd" clip-rule="evenodd" d="M36.8656 20.0271C36.8656 20.0271 36.8535 19.9455 36.8535 19.8828C36.8656 19.9079 36.8656 19.9769 36.8656 20.0271Z" fill="white"/>
<path fill-rule="evenodd" clip-rule="evenodd" d="M35.9143 19.6026C35.9143 19.5273 35.8962 19.3768 35.9143 19.3203C35.9022 19.4081 35.9204 19.5148 35.9143 19.6026Z" fill="white"/>
<path fill-rule="evenodd" clip-rule="evenodd" d="M36.3324 19.4011C36.3082 19.307 36.3324 19.1439 36.3203 19.0247C36.3445 19.0059 36.3203 19.2004 36.3385 19.2317C36.3385 19.2631 36.3385 19.2819 36.3264 19.307C36.3264 19.3384 36.3445 19.3697 36.3264 19.4074L36.3324 19.4011Z" fill="white"/>
<path fill-rule="evenodd" clip-rule="evenodd" d="M36.3932 18.2572C36.3932 18.2572 36.375 18.2572 36.375 18.2196C36.375 18.2133 36.3871 18.207 36.3932 18.207V18.2572Z" fill="white"/>
<path fill-rule="evenodd" clip-rule="evenodd" d="M36.248 17.7802C36.2298 17.7049 36.2298 17.5356 36.248 17.4352C36.248 17.4227 36.2359 17.4227 36.2419 17.3976C36.2419 17.3411 36.2419 17.2157 36.2419 17.3348C36.2541 17.4854 36.2419 17.6046 36.248 17.7739V17.7802Z" fill="white"/>
<path fill-rule="evenodd" clip-rule="evenodd" d="M36.465 17.7245C36.465 17.7245 36.459 17.6744 36.459 17.6367C36.4711 17.643 36.4711 17.7057 36.465 17.7245Z" fill="white"/>
<path fill-rule="evenodd" clip-rule="evenodd" d="M35.8965 17.6051C35.8965 17.6051 35.8965 17.5298 35.8965 17.4922C35.8965 17.5173 35.9086 17.5737 35.8965 17.6051Z" fill="white"/>
<path fill-rule="evenodd" clip-rule="evenodd" d="M36.3932 17.6315C36.3932 17.6315 36.3871 17.5311 36.375 17.4935C36.3932 17.4621 36.3871 17.5813 36.3932 17.6315Z" fill="white"/>
<path fill-rule="evenodd" clip-rule="evenodd" d="M36.4535 17.5763C36.4535 17.5763 36.4414 17.4822 36.4414 17.4258C36.4535 17.4571 36.4475 17.5261 36.4535 17.5763Z" fill="white"/>
<path fill-rule="evenodd" clip-rule="evenodd" d="M35.7936 17.4941C35.7936 17.4941 35.7814 17.4439 35.7754 17.4062C35.7875 17.4125 35.7875 17.4627 35.7936 17.4941Z" fill="white"/>
<path fill-rule="evenodd" clip-rule="evenodd" d="M35.8962 17.436C35.8841 17.3984 35.8902 17.2604 35.8902 17.1914C35.9023 17.2792 35.9023 17.342 35.8962 17.436Z" fill="white"/>
<path fill-rule="evenodd" clip-rule="evenodd" d="M36.4417 17.4062C36.4235 17.3435 36.4417 17.2494 36.4417 17.1992C36.4538 17.2557 36.4296 17.3435 36.4417 17.4062Z" fill="white"/>
<path fill-rule="evenodd" clip-rule="evenodd" d="M36.2406 17.2414C36.2406 17.2414 36.2346 17.1787 36.2285 17.1411C36.2467 17.1348 36.2406 17.1975 36.2406 17.2414Z" fill="white"/>
<path fill-rule="evenodd" clip-rule="evenodd" d="M36.2832 17.1355C36.2832 17.1355 36.2832 17.0791 36.2832 17.0352C36.2953 17.0477 36.2832 17.1042 36.2832 17.1355Z" fill="white"/>
<path fill-rule="evenodd" clip-rule="evenodd" d="M36.337 17.0275C36.337 17.0275 36.3249 16.9209 36.3491 16.9397C36.3491 16.9648 36.3431 16.9648 36.337 16.9648C36.337 16.9962 36.3431 16.9899 36.337 17.0275Z" fill="white"/>
<path fill-rule="evenodd" clip-rule="evenodd" d="M36.0049 16.7734C36.0231 16.8362 35.9928 16.9365 36.0049 16.7734Z" fill="white"/>
<path fill-rule="evenodd" clip-rule="evenodd" d="M35.8405 16.6412C35.8344 16.591 35.8344 16.5408 35.8405 16.4844C35.8405 16.522 35.8465 16.6161 35.8405 16.6412Z" fill="white"/>
<path fill-rule="evenodd" clip-rule="evenodd" d="M35.8159 16.6007C35.8159 16.6007 35.8038 16.5192 35.8159 16.538V16.6007Z" fill="white"/>
<path fill-rule="evenodd" clip-rule="evenodd" d="M35.5859 16.4902C35.5859 16.4902 35.5738 16.4337 35.5798 16.4023C35.5919 16.4086 35.5919 16.4713 35.5859 16.4902Z" fill="white"/>
<path fill-rule="evenodd" clip-rule="evenodd" d="M35.6057 16.1446C35.6057 16.0066 35.5876 16.0443 35.6057 16.1446Z" fill="white"/>
<path fill-rule="evenodd" clip-rule="evenodd" d="M35.5983 18.8914C35.5983 18.8914 35.5922 18.8412 35.5801 18.8287C35.5983 18.7911 35.5801 18.7221 35.5922 18.6719C35.6104 18.7346 35.5922 18.8036 35.5983 18.8914Z" fill="white"/>
<path fill-rule="evenodd" clip-rule="evenodd" d="M35.9748 17.5314C35.9748 17.5314 35.9809 17.5063 35.9748 17.4687C35.9809 17.4687 35.9809 17.4812 35.9869 17.4812C35.9869 17.4185 35.9869 17.3872 35.9869 17.337C35.9869 17.3432 35.993 17.3495 35.999 17.3495C35.9748 17.2805 36.0112 17.199 35.999 17.0547C36.0233 17.1927 36.0051 17.4938 36.0112 17.6192C35.993 17.6004 36.0112 17.4938 35.993 17.4812C35.9809 17.4812 35.993 17.5502 35.9688 17.5314H35.9748Z" fill="white"/>
<path fill-rule="evenodd" clip-rule="evenodd" d="M36.3862 17.3987C36.3741 17.3987 36.3862 17.3422 36.3862 17.3359C36.3984 17.3485 36.3862 17.5116 36.3862 17.3987Z" fill="white"/>
<path fill-rule="evenodd" clip-rule="evenodd" d="M36.3379 16.4955H36.3561C36.3561 16.4202 36.3561 16.2947 36.3682 16.2383C36.3803 16.3324 36.35 16.5268 36.3803 16.5958C36.3803 16.6272 36.3803 16.6272 36.3682 16.6586C36.3985 16.8718 36.3682 17.1102 36.3864 17.3298C36.3379 17.2294 36.4045 17.0036 36.3561 16.8907C36.3561 16.8718 36.3561 16.8907 36.3561 16.9032C36.3561 16.8028 36.3682 16.6272 36.3379 16.5017V16.4955Z" fill="white"/>
<path fill-rule="evenodd" clip-rule="evenodd" d="M35.7799 16.5769C35.7799 16.5769 35.7678 16.5205 35.7617 16.5016C35.7617 16.4891 35.792 16.5518 35.7799 16.5769Z" fill="white"/>
<path fill-rule="evenodd" clip-rule="evenodd" d="M35.72 25.8944C35.6654 25.8944 35.6109 25.9132 35.5564 25.9132C35.4292 25.9132 35.308 25.8944 35.1808 25.907C35.0657 25.9132 34.9566 25.9383 34.8354 25.9446C34.7446 25.9446 34.7143 25.9571 34.6598 25.9634C34.4841 25.9822 34.3447 25.9697 34.266 26.0199C34.1145 26.0512 34.0236 26.0701 33.8843 26.0952C33.8661 26.0952 33.8298 26.0952 33.8237 26.0952C33.5511 26.1642 33.3875 26.2833 33.0664 26.3335C33.0361 26.3586 33.0179 26.3962 32.9634 26.4339C32.9392 26.4464 32.8846 26.459 32.8665 26.4715C32.7998 26.528 32.8604 26.597 32.7392 26.6409C32.7332 26.6534 32.7574 26.6597 32.7635 26.666C32.7635 26.7789 32.8059 26.873 32.7756 26.9608C32.8604 27.011 32.8422 27.0737 32.9028 27.1176C32.9452 27.149 33.024 27.1741 33.0725 27.2054C33.133 27.2368 33.1936 27.2619 33.2421 27.2995C33.2421 27.3309 33.3148 27.3372 33.333 27.3685C33.4117 27.3874 33.5147 27.4187 33.5874 27.4375C33.5935 27.4501 33.6177 27.4564 33.6177 27.4689C33.8116 27.5254 34.0115 27.6006 34.2781 27.6195C34.3084 27.6195 34.3629 27.6195 34.3811 27.6195C34.581 27.6195 34.8839 27.632 34.993 27.6759C35.0293 27.6759 35.0293 27.6696 35.0657 27.6759C35.0899 27.6947 35.1929 27.7386 35.2838 27.7386C35.3141 27.7386 35.3686 27.7073 35.4413 27.701C35.5443 27.6947 35.6412 27.7324 35.7321 27.7261C35.7745 27.7261 35.8169 27.6947 35.8654 27.6885C35.9805 27.6759 36.2168 27.6885 36.3137 27.6885C36.3924 27.6947 36.4167 27.7198 36.4773 27.7136C36.5318 27.7136 36.5681 27.6885 36.5621 27.6508C36.7135 27.5755 37.1013 27.632 37.3315 27.6006C37.5011 27.6257 37.6647 27.5818 37.8283 27.5881C37.8525 27.5881 37.8828 27.6006 37.9131 27.6006C37.9555 27.6006 38.0161 27.5881 38.0767 27.5881C38.1736 27.5881 38.2463 27.6069 38.3251 27.6006C38.4159 27.6696 38.5008 27.6383 38.5674 27.6696C38.5916 27.6822 38.6098 27.7073 38.6341 27.7198C38.6583 27.7261 38.6765 27.7324 38.6946 27.7449C38.7128 27.7575 38.7249 27.7826 38.737 27.7951C38.7431 27.8076 38.7613 27.8076 38.7673 27.8202C38.7795 27.8327 38.7795 27.8453 38.7916 27.8578C38.8037 27.8704 38.8219 27.8766 38.84 27.8955C38.8885 27.9456 38.9006 28.046 38.9612 28.1276C38.9794 28.3095 39.04 28.5039 39.0097 28.805C39.0218 28.8803 39.0218 28.943 39.0097 29.0246C39.0097 29.0434 39.0218 29.0434 39.0218 29.0748C39.0036 29.2379 39.04 29.4637 39.0218 29.608C39.0218 29.608 39.0339 29.6205 39.0339 29.6331C39.0157 29.7522 39.0036 29.8401 38.9976 29.9153C38.9915 29.9592 38.9854 29.9781 38.9854 30.0094C38.9491 30.0282 38.937 30.0722 38.8946 30.0972C38.8643 30.1098 38.8582 30.0972 38.7976 30.1223C38.7068 30.16 38.5311 30.1662 38.4038 30.1851C38.3675 30.1851 38.3311 30.2039 38.2887 30.2102C38.21 30.2102 38.1736 30.2102 38.0646 30.2164C37.7435 30.2541 37.4466 30.2164 37.2588 30.1725C37.1922 30.16 37.1558 30.1537 37.1316 30.1537C37.0831 30.1412 37.0528 30.091 37.0225 30.0596C37.0225 30.0596 36.9983 30.0408 36.9922 30.0345C36.9741 30.0094 36.9741 29.9781 36.9741 29.9467V29.9091C36.9741 29.7021 36.9559 29.4825 36.9741 29.2755C36.9438 28.9619 36.9559 28.5039 36.9498 28.1401C36.9256 28.0586 36.9498 27.977 36.9438 27.8955C36.9316 27.632 36.9074 27.2995 36.9256 27.0298C36.8832 25.8819 36.9014 24.6838 36.8529 23.5484C36.8711 23.4605 36.8589 23.3225 36.8529 23.241C36.865 23.2222 36.865 23.172 36.865 23.1344C36.8347 22.9901 36.865 22.8144 36.8529 22.6325C36.8226 22.5886 36.8468 22.4757 36.8226 22.413C36.8408 22.3816 36.8347 22.4506 36.8468 22.4004C36.7984 22.2812 36.8165 21.8923 36.8044 21.7167C36.8044 21.7292 36.7984 21.7292 36.7984 21.7167C36.8105 21.6728 36.7862 21.654 36.7862 21.6038C36.7862 21.2839 36.7317 21.0518 36.7135 20.782C36.7196 20.7507 36.7438 20.6566 36.7257 20.6252C36.7257 20.6754 36.7257 20.7381 36.7014 20.7318C36.7075 20.6503 36.7014 20.5437 36.6833 20.4872C36.6833 20.3868 36.6954 20.3367 36.6772 20.2426C36.6772 20.2175 36.653 20.2614 36.653 20.2175C36.6651 20.0732 36.6469 20.0042 36.653 19.8787C36.6348 19.8411 36.6287 19.6906 36.6348 19.6466C36.6287 19.6027 36.6166 19.6906 36.6106 19.6592C36.6045 19.5463 36.5984 19.4334 36.6106 19.3267C36.5984 19.3016 36.5863 19.2828 36.5863 19.2389C36.5863 19.2075 36.6045 19.2452 36.5984 19.2013C36.5863 19.1574 36.5803 19.2326 36.5621 19.2201C36.556 19.1636 36.5439 19.1762 36.5318 19.1448C36.5439 19.0633 36.5197 19.0068 36.5136 18.9378C36.5076 18.8625 36.5136 18.781 36.5076 18.7057C36.5076 18.643 36.4894 18.6179 36.4894 18.5426C36.4894 18.4862 36.5076 18.436 36.5015 18.3732C36.5015 18.3419 36.4833 18.3983 36.4833 18.3482C36.4833 18.1223 36.4712 17.9028 36.447 17.7334C36.4833 17.9843 36.447 18.1725 36.4773 18.3921C36.4591 18.4234 36.4894 18.4924 36.4651 18.5238C36.4773 18.5363 36.4833 18.4862 36.4833 18.5363C36.4833 18.5552 36.4773 18.5614 36.4833 18.5865C36.4591 18.5552 36.4591 18.5991 36.4409 18.6179C36.4409 18.7935 36.447 18.9692 36.453 19.1197C36.453 19.1511 36.4651 19.1009 36.4712 19.1323C36.4712 19.2075 36.4712 19.2075 36.4773 19.3142C36.4591 19.3393 36.453 19.3832 36.4288 19.3581C36.4288 19.1385 36.3985 18.8374 36.3924 18.574C36.3924 18.4924 36.4106 18.4109 36.3803 18.367C36.3864 18.4862 36.3561 18.5803 36.3561 18.6806C36.3561 18.8123 36.3803 18.9566 36.3743 19.0821C36.3743 19.1197 36.3622 19.1323 36.3622 19.1636C36.3622 19.1887 36.3743 19.2326 36.3743 19.264C36.3743 19.2954 36.3622 19.2954 36.3622 19.3267C36.3622 19.3832 36.3803 19.4271 36.3803 19.4835C36.3803 19.5839 36.3622 19.6843 36.3682 19.7972C36.3622 19.816 36.344 19.8097 36.3379 19.7846C36.3379 19.6529 36.3379 19.6278 36.3379 19.4898C36.3379 19.5024 36.3379 19.5149 36.3258 19.5149C36.3258 19.471 36.3319 19.4585 36.3258 19.4271C36.3258 19.5275 36.2955 19.5212 36.2773 19.4835C36.2773 19.2326 36.2652 18.9253 36.2773 18.712C36.2652 18.6869 36.2531 18.6743 36.2531 18.6367C36.2531 18.3482 36.247 18.1851 36.241 17.8902C36.2168 18.1788 36.2289 18.4736 36.241 18.8061C36.241 18.8186 36.2228 18.8061 36.2289 18.8437C36.241 18.988 36.2349 19.1511 36.241 19.2577C36.2228 19.3016 36.2046 19.3518 36.1804 19.402C36.1986 19.747 36.1198 20.0042 36.1198 20.3367C36.1077 20.3367 36.1016 20.3617 36.0956 20.3743C36.0835 20.3492 36.0714 20.3304 36.0592 20.299C36.0592 20.2426 36.0532 20.1861 36.0592 20.1422C36.0229 19.8599 36.0471 19.4647 36.0229 19.1134C35.9987 19.0695 35.9865 19.1072 35.9684 19.1323C35.9562 19.3016 35.9865 19.4522 35.9562 19.6341C35.9078 19.6968 35.8714 19.6341 35.8654 19.4961C35.8654 19.2703 35.8654 18.8751 35.8714 18.7308C35.8411 18.0596 35.8533 17.401 35.829 16.7109C35.8169 17.0936 35.8472 17.4449 35.829 17.7836C35.8411 17.7836 35.8411 17.7961 35.8411 17.8212C35.8411 18.1537 35.8411 18.5301 35.8533 18.8249C35.823 18.9504 35.8533 19.1887 35.829 19.3079C35.7806 19.2765 35.7563 19.1762 35.7442 19.0444C35.7442 19.1762 35.7321 19.3016 35.726 19.4083C35.726 19.4961 35.7381 19.6529 35.726 19.7031C35.726 19.7156 35.7139 19.6906 35.7139 19.7156C35.7139 19.678 35.7139 19.7846 35.7139 19.7909C35.7139 19.8411 35.726 19.8286 35.72 19.8913C35.72 19.9666 35.72 19.9666 35.7079 20.0105C35.7018 20.2677 35.7139 20.5186 35.7079 20.782C35.7079 20.8134 35.7079 20.8573 35.7079 20.8699C35.7079 20.8949 35.6957 20.8699 35.6957 20.9075C35.6957 20.9263 35.7079 20.92 35.7018 20.9451C35.7018 21.058 35.7018 21.1709 35.6957 21.2588C35.6957 21.5097 35.6957 21.8108 35.6897 22.0178C35.6897 22.0617 35.6715 22.0052 35.6715 22.068C35.6654 22.4443 35.6533 22.8144 35.6473 23.1783C35.6473 23.2096 35.6291 23.1783 35.6291 23.2284C35.6291 23.2786 35.6473 23.2661 35.6473 23.3163C35.6473 23.3476 35.6352 23.3727 35.623 23.3853C35.6049 23.8181 35.623 24.2697 35.6291 24.7151C35.6291 25.1479 35.6352 25.5494 35.6412 25.9509C35.6412 26.2645 35.6654 26.5593 35.6473 26.8416C35.6594 27.218 35.6594 27.5442 35.6654 27.8955C35.6654 28.1464 35.6594 28.4287 35.6654 28.6419C35.6654 28.6796 35.6776 28.7235 35.6776 28.7674C35.6776 28.8301 35.6654 28.8991 35.6654 28.9619C35.6654 29.1124 35.6776 29.3382 35.6836 29.4888C35.6836 29.6393 35.6836 29.7836 35.6836 29.9341C35.6654 30.0094 35.6715 30.0847 35.6715 30.1662C35.6836 30.3544 35.7442 30.5238 35.823 30.6806C35.8775 30.7873 35.9381 30.9002 36.0229 30.988C36.247 31.2452 36.6227 31.402 36.8771 31.4773C37.2043 31.5714 37.5072 31.6027 37.8041 31.5902C38.1009 31.6027 38.4705 31.5902 38.7916 31.5337C38.9249 31.5337 39.0642 31.5024 39.2217 31.4522C39.3974 31.3895 39.5913 31.3016 39.767 31.1699C39.8033 31.1448 39.8336 31.1323 39.87 31.1009C40.1244 30.8876 40.2819 30.5301 40.3304 30.2102C40.3728 29.9091 40.3667 29.7146 40.3789 29.539C40.3607 29.4135 40.3789 29.3382 40.391 29.219C40.397 29.1061 40.391 28.9869 40.391 28.8678C40.391 28.8427 40.397 28.7737 40.397 28.7486C40.397 28.6231 40.3789 28.4914 40.3667 28.3408C40.3365 28.115 40.3486 27.8516 40.2213 27.563C40.1608 27.3372 39.9972 26.9734 39.7609 26.7789C39.4216 26.3837 38.9491 26.252 38.5553 26.1579C38.422 26.1328 38.2948 26.0763 38.1676 26.0952C38.0403 26.0638 37.8525 26.0638 37.7253 26.0638C37.6162 26.0638 37.4284 26.0512 37.3012 26.0387C37.0952 26.0324 36.8408 26.0512 36.6893 26.0011C36.6227 25.9007 36.4833 26.0512 36.3197 26.0261C36.2349 26.0073 36.247 25.976 36.2107 25.9383C36.1319 25.9258 36.0592 25.9383 35.9865 25.9383C35.9017 25.9258 35.8351 25.8819 35.72 25.8819V25.8944ZM36.5379 19.6341C36.5379 19.6341 36.5439 19.6341 36.5439 19.6215C36.5621 19.6466 36.5318 19.7031 36.5379 19.6341ZM36.5318 19.609C36.5318 19.5086 36.5076 19.3644 36.5318 19.2891C36.5318 19.2703 36.5076 19.3079 36.5015 19.2765C36.5136 19.2326 36.5197 19.1824 36.5197 19.1072C36.556 19.1072 36.5318 19.2514 36.5681 19.2577C36.5681 19.3142 36.5681 19.3455 36.5803 19.3706C36.5681 19.4898 36.5924 19.5149 36.5803 19.6027C36.5621 19.5776 36.5621 19.6215 36.5439 19.609H36.5318Z" fill="white"/>
</g>
<defs>
<clipPath id="clip0_868_7762">
<rect width="33" height="48" fill="white" transform="translate(18 11)"/>
</clipPath>
</defs>
</svg>
