<svg width="70" height="70" viewBox="0 0 70 70" fill="none" xmlns="http://www.w3.org/2000/svg">
<g clip-path="url(#clip0_868_8559)">
<path fill-rule="evenodd" clip-rule="evenodd" d="M43.4052 47.5537C43.3573 47.5358 43.3094 47.5238 43.2615 47.5058C43.2256 47.5058 43.2196 47.4759 43.2196 47.4399V47.3441C43.2017 47.2063 43.1897 47.0505 43.1777 46.8828C43.1897 46.9847 43.2017 47.0925 43.2137 47.2063C43.2196 47.2902 43.2256 47.362 43.2316 47.4459C43.2196 47.4998 43.2675 47.4998 43.3034 47.5178C43.3334 47.5298 43.3693 47.5418 43.4052 47.5597V47.5537Z" fill="white"/>
<path fill-rule="evenodd" clip-rule="evenodd" d="M44.356 40.1141C44.362 39.9523 44.2243 39.4671 44.2543 39.515C44.3321 39.7906 44.35 39.9104 44.356 40.1141Z" fill="white"/>
<path fill-rule="evenodd" clip-rule="evenodd" d="M44.2069 39.2644C44.177 39.2344 44.0453 38.857 43.9375 38.7073C43.9734 38.6953 44.171 39.1565 44.2069 39.2644Z" fill="white"/>
<path fill-rule="evenodd" clip-rule="evenodd" d="M42.5613 37.5821C42.4296 37.5102 42.2261 37.4024 42.0645 37.3125C42.1064 37.3125 42.4117 37.4982 42.5613 37.5821Z" fill="white"/>
<path fill-rule="evenodd" clip-rule="evenodd" d="M41.7172 36.9438C41.5316 36.8779 41.2203 36.7701 40.7773 36.6562C40.933 36.6802 41.388 36.806 41.7172 36.9438Z" fill="white"/>
<path fill-rule="evenodd" clip-rule="evenodd" d="M38.9509 37.4727C38.49 37.4727 37.5441 37.4906 37.2148 37.4727C37.8075 37.4727 38.4002 37.4727 38.9509 37.4727Z" fill="white"/>
<path fill-rule="evenodd" clip-rule="evenodd" d="M37.7123 37.0607C37.1376 37.0846 36.1019 37.0607 35.3656 37.0727C35.2638 37.0487 36.4431 37.0727 36.6587 37.0547C36.8263 37.0547 36.964 37.0607 37.1076 37.0667C37.3112 37.0667 37.5027 37.0487 37.7123 37.0667V37.0607Z" fill="white"/>
<path fill-rule="evenodd" clip-rule="evenodd" d="M30.648 36.9922C30.648 36.9922 30.6121 37.0102 30.4146 37.0102C30.3607 37.0102 30.3368 36.9982 30.3487 36.9922H30.648Z" fill="white"/>
<path fill-rule="evenodd" clip-rule="evenodd" d="M27.8229 37.5021C27.6194 37.6039 27.2901 37.7836 26.9728 38.0053C26.6556 38.2269 26.3562 38.5025 26.1587 38.7062C26.1108 38.7661 26.1108 38.7721 26.015 38.8799C25.7935 39.1375 25.3805 39.7845 25.7875 39.1674C26.3263 38.4246 26.913 37.9394 27.8229 37.4961V37.5021Z" fill="white"/>
<path fill-rule="evenodd" clip-rule="evenodd" d="M27.4082 37.4648C27.3124 37.5247 27.1448 37.6206 26.9473 37.7524C26.9832 37.7045 27.3244 37.5008 27.4082 37.4648Z" fill="white"/>
<path fill-rule="evenodd" clip-rule="evenodd" d="M27.1214 38.3125C27.0615 38.3604 26.7801 38.5761 26.6484 38.7139C26.7382 38.612 26.9897 38.3964 27.1214 38.3125Z" fill="white"/>
<path fill-rule="evenodd" clip-rule="evenodd" d="M26.9604 37.8203C26.8107 37.9281 26.4755 38.1857 26.3139 38.3595C26.1462 38.4853 26.709 37.9641 26.9604 37.8203Z" fill="white"/>
<path fill-rule="evenodd" clip-rule="evenodd" d="M26.6431 37.9805C26.5294 38.0763 26.1882 38.3698 25.9727 38.6214C26.0924 38.4597 26.4037 38.1662 26.6431 37.9805Z" fill="white"/>
<path fill-rule="evenodd" clip-rule="evenodd" d="M26.6845 38.8086C26.6845 38.8086 26.4869 39.0183 26.3672 39.168C26.3851 39.1321 26.5588 38.9224 26.6845 38.8086Z" fill="white"/>
<path fill-rule="evenodd" clip-rule="evenodd" d="M26.403 38.9453C26.2473 39.1071 25.7984 39.7301 25.6367 40.0895C25.8462 39.6522 26.0498 39.3347 26.403 38.9453Z" fill="white"/>
<path fill-rule="evenodd" clip-rule="evenodd" d="M25.8705 38.7383C25.625 39.0498 25.3077 39.529 25.1641 39.8345C25.3077 39.4991 25.6071 39.0618 25.8705 38.7383Z" fill="white"/>
<path fill-rule="evenodd" clip-rule="evenodd" d="M25.4693 39.6719C25.4094 39.8037 25.2957 40.0193 25.2178 40.211C25.1819 40.241 25.3495 39.8875 25.4693 39.6719Z" fill="white"/>
<path fill-rule="evenodd" clip-rule="evenodd" d="M25.1528 40.2344C25.0749 40.456 25.033 40.5579 24.9492 40.7975C24.9552 40.7376 25.0869 40.4021 25.1528 40.2344Z" fill="white"/>
<path fill-rule="evenodd" clip-rule="evenodd" d="M24.8769 40.8281C24.859 40.912 24.7153 41.4571 24.7273 41.3313C24.7692 41.1756 24.7692 41.1995 24.7752 41.1935C24.8231 41.0198 24.8111 41.0318 24.8769 40.8281Z" fill="white"/>
<path fill-rule="evenodd" clip-rule="evenodd" d="M24.8477 42.4255C25.0452 41.4491 24.8955 42.0601 24.8477 42.4255Z" fill="white"/>
<path fill-rule="evenodd" clip-rule="evenodd" d="M24.8709 43.2539C24.841 43.5474 24.8111 43.841 24.7871 44.1884C24.7871 43.9668 24.841 43.3977 24.8709 43.2539Z" fill="white"/>
<path fill-rule="evenodd" clip-rule="evenodd" d="M24.8699 43.4887C24.8938 43.3869 24.834 43.962 24.834 43.8481L24.8699 43.4887Z" fill="white"/>
<path fill-rule="evenodd" clip-rule="evenodd" d="M25.0385 44.1758C25.0385 44.3315 25.0385 44.5053 25.0325 44.673C25.0205 44.6191 25.0325 44.2537 25.0385 44.1758Z" fill="white"/>
<path fill-rule="evenodd" clip-rule="evenodd" d="M25.0801 46.1484C25.1878 46.9392 25.1818 46.7295 25.0801 46.1484Z" fill="white"/>
<path fill-rule="evenodd" clip-rule="evenodd" d="M34.5816 37.7835C34.4559 37.7835 34.3242 37.7955 34.1984 37.8015C33.965 37.7835 33.5399 37.8015 33.2227 37.7895C33.6058 37.7715 34.0248 37.7895 34.5816 37.7835Z" fill="white"/>
<path fill-rule="evenodd" clip-rule="evenodd" d="M26.7212 38.531C26.5955 38.6449 26.6075 38.6269 26.4638 38.7647C26.4458 38.7707 26.5057 38.7108 26.5057 38.7048C26.2543 38.9504 26.1405 39.1061 25.9609 39.3457C25.9789 39.3098 25.9969 39.2798 25.9909 39.2739C25.7813 39.6093 25.494 39.9807 25.2246 40.7894C25.3384 40.4001 25.5898 39.795 25.955 39.2918C26.3201 38.7826 26.7931 38.3813 27.0804 38.1836C26.9966 38.2495 26.5237 38.6269 26.4937 38.6988C26.4937 38.7167 26.7751 38.4352 26.7033 38.531H26.7212Z" fill="white"/>
<path fill-rule="evenodd" clip-rule="evenodd" d="M25.8936 38.7906C25.8697 38.8266 25.8397 38.8565 25.8936 38.7906C25.8876 38.8146 25.6901 39.0542 25.6602 39.0902C25.6901 38.9943 26.3606 38.2515 25.8876 38.7846L25.8936 38.7906Z" fill="white"/>
<path fill-rule="evenodd" clip-rule="evenodd" d="M24.3028 44.0864H24.2848C24.2489 44.5597 24.2729 45.3324 24.2848 45.6559C24.213 45.0868 24.2848 43.8707 24.3148 43.4634C24.3267 43.3675 24.3507 43.1878 24.3686 43.092C24.5422 41.7801 24.8236 40.3124 25.6198 39.1562C25.4582 39.4198 25.2007 39.8631 25.0092 40.3424C24.8176 40.8216 24.6799 41.3368 24.632 41.6842C24.6081 41.798 24.6261 41.6842 24.644 41.6064C24.5183 42.2054 24.3028 43.2897 24.2908 44.0744L24.3028 44.0864Z" fill="white"/>
<path fill-rule="evenodd" clip-rule="evenodd" d="M24.8826 43.6484C24.8766 43.7922 24.8706 43.942 24.8647 44.0857C24.8587 44.1516 24.8587 43.7922 24.8826 43.6484Z" fill="white"/>
<path fill-rule="evenodd" clip-rule="evenodd" d="M19.7822 31.8056C19.7882 32.135 19.7942 32.5304 19.8001 32.8719C19.8001 33.6985 19.8001 34.4414 19.8001 35.292C19.8121 36.0169 19.8301 36.7537 19.8421 37.5025C19.854 38.0656 19.854 38.2633 19.86 38.6467C19.878 39.7669 19.878 40.6834 19.9199 41.1687C19.9498 41.9953 19.9797 42.8879 20.0037 43.6247C20.0037 43.7505 20.0037 43.9542 20.0037 44.0021C20.0576 44.9666 20.1055 45.9071 20.1593 46.8596C20.1593 46.9914 20.1893 47.1052 20.2192 47.213C20.2312 47.3029 20.309 47.4167 20.4048 47.4826C20.5963 47.6264 20.8538 47.6983 21.1291 47.7402C21.2549 47.7582 21.4225 47.7702 21.5242 47.7761H21.8295C22.0331 47.7881 22.2426 47.7881 22.4701 47.7761C22.6557 47.7462 22.8951 47.6983 23.1466 47.6563C23.3082 47.6324 23.6853 47.5665 23.8051 47.5186C24.0266 47.4347 24.0326 47.3928 24.0804 47.3448C24.1044 47.3209 24.1463 47.2909 24.2241 47.237C24.266 47.213 24.3139 47.1711 24.3798 47.1172C24.4396 47.0573 24.5294 47.0034 24.5713 46.7997C24.5713 46.7578 24.5713 46.7578 24.5653 46.7997C24.5653 46.8177 24.5534 46.8476 24.5414 46.8776C24.5175 46.9315 24.4756 46.9794 24.4516 46.9974C24.3738 46.9375 24.0984 47.0333 24.1882 46.8656C23.9966 46.9674 23.8769 46.9614 23.7991 46.9614C23.7153 46.9614 23.6434 46.9495 23.4519 46.9614C23.2124 46.9794 22.7275 46.9794 22.4102 46.9495C22.2187 46.9315 22.0391 46.9135 21.8595 46.8955L21.6021 46.8596C21.5242 46.8476 21.5003 46.8356 21.4584 46.8237C21.4644 46.7937 21.2608 46.7518 21.2549 46.6979C21.2189 46.6799 21.2309 46.638 21.2369 46.608L21.2489 46.5181L21.2608 46.3983L21.2728 46.1168C21.2788 45.9191 21.2848 45.7214 21.2968 45.5177C21.3087 45.4578 21.3147 45.3201 21.3267 45.3081C21.3746 44.0561 21.4404 42.7921 21.4524 41.0788C21.4524 40.923 21.4524 40.5936 21.4524 40.4019C21.4464 39.1319 21.4524 37.173 21.4883 36.5081C21.4883 36.2804 21.4883 36.2804 21.4883 36.0528C21.5063 35.909 21.5422 35.2381 21.5422 34.651C21.5362 34.4773 21.5183 34.046 21.5063 33.6566C21.4943 32.9977 21.5302 32.3806 21.5242 31.7876C21.5123 31.5599 21.5003 31.1885 21.4883 30.9429C21.4704 30.2001 21.4763 28.7025 21.4823 28.0855C21.4823 27.5943 21.5063 27.4145 21.5003 27.0431C21.5003 26.7077 21.4704 26.4561 21.4404 26.486C21.4165 26.1865 21.4045 25.7372 21.3985 25.216C21.3985 25.0842 21.3925 24.9584 21.3985 24.8087C21.4045 24.6469 21.4045 24.4612 21.3866 24.2695C21.3626 24.0719 21.3207 23.8622 21.2309 23.6346C21.1291 23.3949 20.9675 23.1553 20.752 22.9816C20.4946 22.7719 20.1593 22.6521 19.8899 22.6222C19.6146 22.5862 19.3512 22.5982 19.0997 22.6581C18.6148 22.7659 18.1239 23.0834 17.8725 23.5267C17.6211 23.9461 17.5912 24.3294 17.5552 24.599C17.5253 24.8806 17.5014 25.0603 17.4475 25.2879C17.3457 25.7192 17.1781 26.1565 16.9446 26.5399C16.8548 26.6957 16.7291 26.8634 16.6154 27.0012C16.4358 27.2348 16.1664 27.5164 15.885 27.6661C15.448 27.9237 14.8733 27.8818 14.4004 27.744C14.0412 27.6062 13.7658 27.4205 13.5982 27.2408C13.4246 27.0431 13.3767 26.9353 13.4066 26.7017C13.4366 26.516 13.5383 26.2763 13.676 25.9708C13.7359 25.839 13.7898 25.7013 13.8496 25.5635L13.9095 25.4197C13.9454 25.3119 13.9574 25.258 13.9694 25.21C13.9873 25.1322 13.9993 25.0483 14.0173 24.9704C14.0891 24.6649 14.1669 24.3235 14.2388 24.0299C14.2866 23.8083 14.3226 23.6166 14.3645 23.4369C14.4243 23.2032 14.4603 23.0355 14.5201 22.7839C14.574 22.5323 14.6339 22.2148 14.6877 21.9632C14.9152 20.9628 15.1846 19.8845 15.3762 18.938C15.5857 18.0634 15.7773 17.2906 15.9748 16.458C16.0766 16.0446 16.1784 15.6193 16.3041 15.206C16.3639 15.0083 16.4418 14.7866 16.5016 14.6848C16.5316 14.6369 16.5316 14.6369 16.5615 14.6129C16.5974 14.5829 16.6932 14.547 16.759 14.5051C17.0524 14.3673 17.3397 14.3373 17.7827 14.4032C17.8845 14.4152 17.8845 14.4032 18.0401 14.4332C18.9561 14.6369 19.9797 15.0981 20.9376 15.6073C20.9735 15.6193 21.0154 15.6373 21.0812 15.6672C22.4402 16.3801 24.0625 17.3326 25.0443 17.9975C25.7866 18.5307 26.6546 19.1417 27.4748 19.8845C27.6723 20.0582 27.8579 20.238 28.0255 20.4177C28.2051 20.5974 28.3667 20.7771 28.5224 20.9568C28.8397 21.2983 29.139 21.7296 29.3844 22.1609C29.6059 22.5982 29.7017 23.0295 29.7017 23.359C29.6837 23.6166 29.6718 23.982 29.7316 24.3414C29.7855 24.6649 29.9172 25.0902 30.2764 25.4077C30.6296 25.7312 31.1085 25.8211 31.4557 25.8091C31.6293 25.8091 31.797 25.7851 31.9526 25.7612L32.1861 25.7132L32.3417 25.6713C32.3417 25.6713 32.5093 25.6713 32.641 25.6653H33.0481C33.5929 25.6533 34.1377 25.6473 34.6764 25.6414C35.754 25.6354 36.8076 25.6234 37.7116 25.6174C38.2623 25.6054 38.7592 25.5934 39.3758 25.5815C39.8966 25.5815 40.4234 25.5755 40.9562 25.5695C41.2196 25.5695 41.489 25.5695 41.7524 25.5695H42.1475C42.2672 25.5695 42.351 25.5695 42.4528 25.5874C42.6563 25.6174 42.8599 25.6593 43.0514 25.7372C43.5483 25.9229 44.0093 26.2284 44.4762 26.6118L44.6917 26.7975L44.7935 26.8934L44.9791 27.0791C45.1108 27.145 45.2545 27.1989 45.3921 27.2408C45.4999 27.2708 45.6077 27.3007 45.7214 27.3187C45.9489 27.3606 46.1883 27.3786 46.4637 27.3367C46.7571 27.2887 47.0384 27.1569 47.2479 26.9473C47.3617 26.8514 47.4395 26.7196 47.5173 26.5998L47.6011 26.4081L47.661 26.2584C47.8226 25.7672 48.2297 25.3838 48.7445 25.0483C49.1097 24.7907 49.5707 24.5271 50.0675 24.2456C50.2112 24.1617 50.2591 24.1497 50.3669 24.1018C50.4686 24.0778 50.5644 24.0359 50.6841 24.0299C50.9056 23.988 51.1631 24.012 51.4145 24.0479C52.4561 24.2276 53.5217 24.8746 54.282 25.5755C54.6412 25.875 54.9465 26.2284 55.174 26.5819C55.3596 26.8634 55.4972 27.2109 55.605 27.5883C55.6948 27.9717 55.7487 28.379 55.7487 28.8043C55.7487 29.649 55.5451 30.5176 55.2638 31.2604C54.9824 32.0452 54.5753 32.806 54.0964 33.4949C53.6355 34.1658 53.0069 34.7888 52.4142 34.8247C52.091 34.8247 51.9174 34.7648 51.8455 34.6211V33.5068V32.8299V32.4885V32.2608C51.8455 32.171 51.8575 32.0751 51.8335 31.9913L51.5582 31.5659C51.4983 31.4581 51.4085 31.3563 51.3247 31.2484C51.2409 31.1466 51.1571 31.0388 51.0373 30.9429C50.9296 30.8471 50.8158 30.7512 50.6422 30.6674C50.3369 30.4936 49.9358 30.4457 49.6006 30.5715C49.2414 30.6913 48.984 30.919 48.8104 31.1226C48.7206 31.2305 48.6368 31.3383 48.565 31.4521C48.4871 31.5659 48.4332 31.6618 48.3435 31.8415C48.3135 31.9254 48.2477 31.9972 48.2537 32.0931V32.3627V32.7041C48.2537 33.6087 48.2537 34.5073 48.2596 35.4058C48.2656 37.197 48.2776 38.9761 48.2836 40.7433C48.2656 41.2945 48.2776 42.1511 48.2836 42.6303C48.2716 42.7322 48.2716 43.0557 48.2716 43.3013C48.2836 43.7446 48.2896 44.2418 48.2836 44.7689C48.2836 45.2721 48.2836 45.7993 48.2836 46.3324C48.2896 46.3624 48.2956 46.4103 48.2956 46.4582V46.5361C48.2956 46.5361 48.3075 46.602 48.2656 46.596C48.1459 46.626 48.0322 46.6559 47.9005 46.6919C47.7328 46.7098 48.122 46.632 47.8346 46.6799C47.5054 46.7697 46.763 46.8896 45.9668 46.8596C45.5717 46.8476 45.1647 46.7997 44.8055 46.7338C44.7396 46.7218 44.6738 46.7039 44.6139 46.6919C44.572 46.6799 44.5301 46.6679 44.4882 46.6619C44.4463 46.6499 44.4104 46.638 44.3745 46.626C44.3325 46.62 44.3625 46.5601 44.3505 46.5361C44.3505 46.5721 44.3445 46.584 44.3445 46.5361C44.3505 46.4642 44.3445 46.4223 44.3445 46.3684C44.3445 46.3444 44.3445 46.3145 44.3385 46.2905C44.3385 46.2306 44.3385 46.1647 44.3385 46.0988C44.3385 44.116 44.2847 42.6962 44.2667 41.0069C44.2667 40.8991 44.2787 40.6954 44.2787 40.5157C44.2787 40.312 44.2547 40.0904 44.2368 39.9885C44.2487 40.1563 44.2667 40.354 44.2727 40.4917C44.2727 40.6235 44.2667 40.7134 44.2547 40.7014C44.2667 40.4618 44.2368 40.1143 44.1949 39.8208C44.123 39.5213 44.0392 39.2517 43.9374 39.09C43.6261 38.467 43.3747 38.1854 42.8958 37.814C42.7761 37.7301 42.9976 37.9158 42.7402 37.7301C41.9619 37.197 41.501 37.0712 40.7167 36.8435C40.591 36.8375 40.3156 36.7417 39.9565 36.7537C39.6631 36.7537 39.3818 36.7537 39.2141 36.7537C38.9567 36.7597 39.4955 36.7717 39.28 36.7776C38.5676 36.7836 37.8971 36.7896 37.2446 36.7776C37.083 36.7896 36.9752 36.8016 36.7058 36.8016C36.5262 36.8016 36.7597 36.7836 36.4843 36.7896C36.2329 36.8016 36.6819 36.8076 36.622 36.8256C36.2628 36.8316 36.3347 36.8435 36.1551 36.8555C35.6582 36.8435 35.317 36.8675 34.862 36.8735C34.3831 36.8735 33.8862 36.8735 33.4253 36.8795C33.0361 36.8795 32.8745 36.8975 32.4315 36.8975C32.0843 36.8975 31.767 36.8855 31.3839 36.8855C31.1744 36.8855 31.5216 36.9034 31.2282 36.9034C30.5398 36.9034 29.8454 36.9094 29.1988 36.9154H28.9594C28.8696 36.9154 28.7798 36.9274 28.696 36.9574C28.5463 36.9993 28.3967 37.0472 28.253 37.1011C27.9716 37.203 27.7142 37.3228 27.4867 37.4486C27.8399 37.2569 28.1871 37.1191 28.5284 37.0173C28.684 36.9633 28.8935 36.9094 29.0612 36.9334C29.2288 36.9334 29.3964 36.9334 29.558 36.9334C30.2106 36.9334 30.8391 36.9334 31.5276 36.9214C31.7371 36.9394 32.1442 36.9094 32.3537 36.9334C32.4495 36.9214 32.1262 36.9154 32.4375 36.9154C32.5393 36.9154 32.5872 36.9154 32.7368 36.9154C32.5393 36.9394 32.8326 36.9394 32.9464 36.9574C34.1137 36.9574 35.0356 36.9514 36.0473 36.9454C36.2329 36.9454 35.9156 36.9334 36.1311 36.9274C36.5203 36.9274 36.8016 36.9274 37.2686 36.9214C37.4062 36.9394 37.7116 36.9454 37.5499 36.9693C36.197 36.9813 34.3172 36.9933 32.7069 37.0053C32.216 37.0053 31.7012 36.9873 31.4198 37.0173C32.1502 37.0113 32.7368 37.0412 33.3714 37.0412C34.1855 37.0412 35.0715 37.0292 35.8677 37.0233C36.0832 37.0233 36.197 37.0232 36.3886 37.0352C36.5382 37.0352 36.8315 37.0292 36.9992 37.0233C37.1788 37.0233 37.2207 37.0232 37.3703 37.0352C37.6996 37.0352 37.9929 37.0233 38.3581 37.0173C38.9926 37.0292 39.6152 37.0053 40.3156 37.0532C40.4414 37.0891 40.3815 37.0891 40.2199 37.0712C39.3997 37.0472 39.256 37.0652 38.412 37.0592C38.5077 37.0592 38.5616 37.0592 38.5556 37.0712C38.2982 37.0712 38.2024 37.0652 38.0228 37.0712C38.6514 37.0712 38.5916 37.1011 38.376 37.1191C36.8136 37.1191 34.9219 37.1191 33.6228 37.1191C33.4791 37.1311 33.3893 37.1431 33.1559 37.1431C32.4315 37.1431 31.6653 37.1431 30.893 37.1431C30.5039 37.1431 30.1148 37.1431 29.7197 37.1431H29.133C29.0312 37.1431 28.9354 37.1431 28.8576 37.1431L28.5942 37.2149C28.702 37.185 28.8037 37.155 28.8935 37.1431H29.2168L29.8933 37.1491C30.3482 37.1491 30.8092 37.1491 31.2761 37.1491C32.21 37.1491 33.1858 37.1431 34.2155 37.1371C34.2933 37.1371 34.2334 37.155 34.437 37.1491C35.329 37.1491 36.3287 37.1371 37.0111 37.1371L37.8911 37.197C38.4299 37.197 38.9268 37.197 39.4117 37.197C39.6452 37.197 39.8786 37.203 40.1121 37.209C40.3037 37.2329 40.5431 37.2928 40.7527 37.3527C41.5967 37.6043 42.4468 37.9817 43.0694 38.7066C43.0514 38.7066 43.1532 38.8144 43.1712 38.8743C43.0754 38.7545 42.9856 38.7006 42.8719 38.5688C42.6504 38.3531 42.387 38.1674 42.1535 38.0177C41.8003 37.814 41.3752 37.6403 40.9083 37.5085C40.6748 37.4426 40.4294 37.3827 40.1839 37.3467C40.1061 37.3288 39.9684 37.3467 39.8307 37.3407H39.4177C38.3162 37.3407 37.1728 37.3467 36.0832 37.3527C35.8198 37.3767 36.0294 37.3887 36.209 37.4066C37.2506 37.4186 38.1965 37.3887 39.298 37.4186C39.6931 37.4665 39.28 37.5025 38.4299 37.5085C37.0171 37.5085 34.5986 37.5085 33.6767 37.5025C32.641 37.5025 31.6114 37.5145 30.5817 37.5205H29.0312C28.8935 37.5205 28.9414 37.5205 28.7858 37.5624C28.672 37.5983 28.5583 37.6283 28.4446 37.6702C28.2231 37.7481 28.0016 37.8439 27.792 37.9518C26.9479 38.3831 26.2535 39.06 25.7986 39.8927C25.3436 40.7314 25.1341 41.7138 24.9664 42.7501C25.158 41.6 25.3975 40.5516 25.9243 39.695C26.4331 38.8384 27.2113 38.1974 28.0973 37.826C28.0854 37.826 28.1512 37.79 28.2889 37.7361C28.3967 37.6942 28.5104 37.6523 28.6301 37.6163L28.9235 37.5324C29.1689 37.5324 29.4144 37.5324 29.6598 37.5324C30.1926 37.5324 30.7314 37.5324 31.2642 37.5324C32.3238 37.5324 33.3474 37.5205 34.2634 37.5205C35.0236 37.5504 36.4963 37.5205 37.2686 37.5444C37.077 37.5923 36.4424 37.6163 35.6462 37.6283C36.4544 37.6283 37.2207 37.6403 37.9031 37.6463C38.4658 37.6463 39.4297 37.6343 39.717 37.6463C39.7829 37.6463 39.6512 37.6582 39.7829 37.6582C39.5494 37.6582 40.2259 37.6463 40.142 37.6582C40.4054 37.7002 40.3635 37.6882 40.6748 37.7661C41.0759 37.8859 41.0699 37.8859 41.3094 37.9937C41.9679 38.2633 42.5665 38.6407 42.9078 39.1559C43.0993 39.4015 43.1831 39.701 43.261 40.0005C43.2849 40.1563 43.2849 40.312 43.3029 40.4798C43.3029 40.6774 43.3029 40.8751 43.3029 41.0788C43.3029 41.2465 43.3029 41.582 43.3029 41.606C43.3029 41.7557 43.2909 41.6299 43.2909 41.8276C43.2909 41.9414 43.3029 41.8875 43.2969 42.0552C43.2969 42.6783 43.2969 43.3911 43.2909 44.0141C43.2909 44.8348 43.2909 45.7274 43.2909 46.584C43.2909 46.7638 43.2909 46.9375 43.3029 47.0992C43.3268 47.255 43.261 47.4766 43.4825 47.4886C43.7878 47.6084 44.0991 47.7043 44.4223 47.7761C44.8833 47.878 45.2185 47.9199 45.5717 47.9499C45.877 47.9738 45.476 47.9619 45.889 47.9858C46.4757 48.0158 47.0803 47.9858 47.679 47.9019C47.8286 47.884 47.9783 47.86 48.1279 47.8301L48.4213 47.7702L48.7865 47.6803C49.0199 47.6084 49.3013 47.5785 49.4928 47.4706V46.7158C49.5048 45.5058 49.5048 44.2717 49.5108 43.0377C49.5108 42.858 49.5288 43.0017 49.5288 42.7442C49.5288 42.4207 49.5108 42.4985 49.5108 42.211C49.5108 42.0313 49.5228 41.8636 49.5348 41.7677C49.5348 39.066 49.5347 36.3044 49.5288 33.5308V32.5604V32.3627C49.5288 32.3447 49.5288 32.3267 49.5348 32.3147C49.5288 32.3207 49.6186 32.171 49.6784 32.0751C49.8161 31.8774 49.9778 31.7516 50.0077 31.7576C50.0855 31.7576 50.1035 31.7217 50.2531 31.8714C50.325 31.9134 50.4028 32.0332 50.4806 32.1171C50.5225 32.159 50.5524 32.2249 50.5884 32.2788L50.6363 32.3507C50.6363 32.3507 50.6482 32.3806 50.6482 32.3986V32.5544V33.0276C50.6482 33.3391 50.6482 33.6566 50.6482 33.9681V34.4354V34.8128C50.6363 34.9565 50.6782 35.0704 50.6901 35.2021C50.7081 35.2501 50.6901 35.31 50.732 35.3459L50.8398 35.4537C50.9116 35.5256 50.9895 35.5915 51.0733 35.6514C51.2409 35.7772 51.4324 35.8731 51.63 35.951C52.0191 36.0947 52.3364 36.1007 52.6836 36.0588C53.3601 35.9569 53.8749 35.6035 54.27 35.2441C55.0662 34.4953 55.5332 33.6866 55.9702 32.8778C56.5269 31.7756 56.8741 30.6494 56.9998 29.4872C57.0956 28.3371 56.9879 27.103 56.3174 25.9888C56.2096 25.7851 56.048 25.6054 55.9103 25.4137C55.7606 25.252 55.623 25.0842 55.4673 24.9345C55.162 24.617 54.8208 24.3414 54.4795 24.0838C53.7851 23.5806 53.0428 23.1853 52.3244 22.9756C52.079 22.9037 51.7737 22.8378 51.4624 22.8019C50.9954 22.748 50.4866 22.736 49.9777 22.9157C49.8221 22.9756 49.6186 23.0714 49.5048 23.1373L49.1516 23.341C48.9122 23.4788 48.6727 23.6166 48.4273 23.7723C47.9483 24.0778 47.4335 24.4253 47.0145 24.9465C46.8229 25.1861 46.6553 25.4616 46.5415 25.7492L46.4697 25.9289C46.4697 25.9289 46.4517 25.9708 46.4458 25.9888C46.4278 26.0128 46.4098 26.0427 46.3799 26.0547C46.332 26.0906 46.2901 26.1086 46.1225 26.0966C45.9848 26.0906 45.7513 26.0188 45.7513 26.0068L45.6017 25.863C45.5179 25.7851 45.434 25.7132 45.3502 25.6414C44.7875 25.1801 44.1889 24.7967 43.4585 24.5331C43.2191 24.4433 42.9557 24.3774 42.6803 24.3354C42.5426 24.3115 42.3989 24.3115 42.2553 24.2995H41.908C40.6329 24.3175 39.3339 24.3354 38.1246 24.3474C36.5143 24.3594 34.856 24.3474 33.2157 24.3893C32.9883 24.3893 32.7548 24.3893 32.5213 24.3893C32.4495 24.3893 32.1561 24.3774 32.0125 24.4433C31.9167 24.4672 31.8209 24.4912 31.7251 24.5032C31.5395 24.5331 31.3719 24.5211 31.2821 24.4912C31.1983 24.4612 31.1684 24.4373 31.1265 24.3594C31.0786 24.2755 31.0487 24.1078 31.0427 23.9161C31.0307 23.7244 31.0786 23.5327 31.0546 23.1913C31.0546 22.5623 30.8152 22.0531 30.6116 21.6038C29.8813 20.184 28.7199 19.1597 27.4628 18.1173C27.3371 18.0155 27.2353 17.9316 27.1036 17.8298C26.1338 17.069 25.0562 16.3501 23.9847 15.7271C22.9011 15.1041 21.8954 14.5829 21.0034 14.1217C20.321 13.8162 19.7403 13.5226 19.0339 13.289C18.2856 13.0554 17.4714 12.8876 16.5555 13.1452C16.2562 13.2411 16.0167 13.3429 15.7234 13.5586C15.472 13.7563 15.3043 14.0558 15.2265 14.2475C15.1427 14.4512 15.0828 14.6429 15.029 14.8286C14.9212 15.2 14.8314 15.5654 14.7356 15.9488C14.4543 17.0989 14.137 18.303 13.8496 19.6209C13.5982 20.6273 13.227 22.125 12.9876 23.2991C12.8679 23.7903 12.7541 24.2875 12.6523 24.7847L12.6164 24.9465L12.79 25.0004C12.8978 25.0363 12.8439 25.0183 12.8439 25.0183L12.796 25.0004L12.6224 24.9285L12.5865 25.0064L12.4309 25.3538C12.3231 25.5934 12.2094 25.845 12.1196 26.1565C12.0298 26.4621 11.9759 26.8574 12.0657 27.2528C12.1495 27.6482 12.365 27.9836 12.5985 28.2352C13.0834 28.7384 13.6641 29.026 14.2687 29.1817C14.6817 29.2836 15.0948 29.3255 15.5198 29.2896C15.9389 29.2536 16.3999 29.1038 16.771 28.8582C17.5732 28.379 18.1778 27.5403 18.5789 26.6298C18.7765 26.1745 18.9321 25.6893 19.0159 25.1681C19.0578 24.9045 19.0758 24.6829 19.1057 24.5271C19.1416 24.3654 19.1776 24.3055 19.2135 24.2695C19.2494 24.2216 19.3811 24.1497 19.5308 24.1318C19.6026 24.1198 19.6744 24.1258 19.7283 24.1318C19.7882 24.1437 19.7882 24.1497 19.8121 24.1677C19.8361 24.1977 19.8421 24.1917 19.872 24.2935C19.8959 24.3834 19.9079 24.5151 19.9019 24.6469C19.8899 24.9764 19.884 25.2819 19.872 25.5994C19.7762 26.0427 19.9259 26.9173 19.9079 27.9597C19.8899 28.5108 19.86 28.4389 19.8301 28.6725C19.8181 29.1638 19.8301 29.631 19.8361 30.1102C19.8301 30.6734 19.7882 31.0747 19.7882 31.8235L19.7822 31.8056ZM39.1663 36.8555C39.1663 36.8555 39.1543 36.8495 39.0944 36.8495C39.256 36.8316 39.6092 36.8615 39.1663 36.8555ZM39.0106 36.8615C38.382 36.8615 37.502 36.8855 37.0471 36.8615C36.9273 36.8615 37.1548 36.8855 36.9573 36.8915C36.6879 36.8795 36.3706 36.8735 35.9096 36.8735C35.8797 36.8375 36.7956 36.8615 36.8375 36.8256C37.1907 36.8256 37.3643 36.8256 37.52 36.8136C38.2623 36.8136 38.376 36.8136 38.9507 36.8136C38.8071 36.8316 39.0465 36.8316 39.0046 36.8495L39.0106 36.8615Z" fill="white"/>
<path fill-rule="evenodd" clip-rule="evenodd" d="M30.9771 28.6826C30.9771 28.6826 30.9591 28.6586 30.9531 28.6406C30.9651 28.6406 30.9831 28.6646 30.9771 28.6826Z" fill="white"/>
<path fill-rule="evenodd" clip-rule="evenodd" d="M31.8629 27.6513C31.8629 27.6513 31.833 27.6094 31.8569 27.6094C31.8629 27.6273 31.8569 27.6393 31.8629 27.6513Z" fill="white"/>
<path fill-rule="evenodd" clip-rule="evenodd" d="M31.8695 27.5849C31.8695 27.5849 31.8575 27.5549 31.8516 27.543C31.8635 27.543 31.8695 27.5729 31.8695 27.5849Z" fill="white"/>
<path fill-rule="evenodd" clip-rule="evenodd" d="M31.6469 27.4638C31.6469 27.4638 31.6289 27.4339 31.6289 27.4219C31.6409 27.4219 31.6409 27.4518 31.6469 27.4638Z" fill="white"/>
<path fill-rule="evenodd" clip-rule="evenodd" d="M31.8092 27.3414C31.8092 27.3414 31.7853 27.3055 31.7793 27.2695C31.7913 27.2815 31.8032 27.3115 31.8092 27.3414Z" fill="white"/>
<path fill-rule="evenodd" clip-rule="evenodd" d="M30.8452 27.3219C30.8332 27.28 30.8033 27.1901 30.8153 27.1602C30.8153 27.2141 30.8452 27.274 30.8452 27.3219Z" fill="white"/>
<path fill-rule="evenodd" clip-rule="evenodd" d="M31.2218 27.1226C31.1859 27.0746 31.1979 26.9788 31.168 26.9189C31.1859 26.9069 31.1919 27.0147 31.2099 27.0327C31.2099 27.0507 31.2099 27.0627 31.2099 27.0746C31.2099 27.0926 31.2338 27.1046 31.2218 27.1286V27.1226Z" fill="white"/>
<path fill-rule="evenodd" clip-rule="evenodd" d="M31.1918 26.4888C31.1918 26.4888 31.1738 26.4888 31.1738 26.4708C31.1738 26.4708 31.1858 26.4648 31.1918 26.4648V26.4888Z" fill="white"/>
<path fill-rule="evenodd" clip-rule="evenodd" d="M31.0315 26.2374C31.0075 26.1955 31.0015 26.0996 31.0135 26.0457C31.0135 26.0397 31.0015 26.0397 31.0075 26.0277C31.0075 25.9978 31.0075 25.9259 31.0075 25.9918C31.0195 26.0757 31.0075 26.1476 31.0255 26.2374H31.0315Z" fill="white"/>
<path fill-rule="evenodd" clip-rule="evenodd" d="M31.2463 26.1885C31.2463 26.1885 31.2344 26.1646 31.2344 26.1406C31.2463 26.1406 31.2523 26.1766 31.2463 26.1885Z" fill="white"/>
<path fill-rule="evenodd" clip-rule="evenodd" d="M30.6779 26.1518C30.6779 26.1518 30.6779 26.1039 30.6719 26.0859C30.6719 26.0979 30.6838 26.1339 30.6779 26.1518Z" fill="white"/>
<path fill-rule="evenodd" clip-rule="evenodd" d="M31.1684 26.1492C31.1684 26.1492 31.1564 26.0953 31.1504 26.0773C31.1683 26.0593 31.1684 26.1252 31.1684 26.1492Z" fill="white"/>
<path fill-rule="evenodd" clip-rule="evenodd" d="M31.2288 26.113C31.2288 26.113 31.2168 26.0591 31.2168 26.0352C31.2288 26.0531 31.2228 26.0891 31.2288 26.113Z" fill="white"/>
<path fill-rule="evenodd" clip-rule="evenodd" d="M30.5707 26.0891C30.5707 26.0891 30.5587 26.0591 30.5527 26.0352C30.5647 26.0352 30.5647 26.0711 30.5707 26.0891Z" fill="white"/>
<path fill-rule="evenodd" clip-rule="evenodd" d="M30.6776 26.05C30.6776 26.05 30.6656 25.9482 30.6716 25.9062C30.6836 25.9542 30.6836 25.9961 30.6776 26.05Z" fill="white"/>
<path fill-rule="evenodd" clip-rule="evenodd" d="M31.217 26.0162C31.199 25.9802 31.217 25.9323 31.217 25.9023C31.2289 25.9323 31.211 25.9802 31.217 26.0162Z" fill="white"/>
<path fill-rule="evenodd" clip-rule="evenodd" d="M31.0139 25.9328C31.0139 25.9328 31.002 25.8969 31.002 25.8789C31.0199 25.8789 31.0139 25.9089 31.0139 25.9328Z" fill="white"/>
<path fill-rule="evenodd" clip-rule="evenodd" d="M31.0554 25.8703C31.0554 25.8703 31.0494 25.8404 31.0554 25.8164C31.0674 25.8164 31.0554 25.8523 31.0554 25.8703Z" fill="white"/>
<path fill-rule="evenodd" clip-rule="evenodd" d="M31.1095 25.8112C31.1095 25.8112 31.0975 25.7513 31.1155 25.7633C31.1155 25.7753 31.1095 25.7753 31.1035 25.7753C31.1035 25.7933 31.1095 25.7933 31.1035 25.8112H31.1095Z" fill="white"/>
<path fill-rule="evenodd" clip-rule="evenodd" d="M30.7803 25.6641C30.7982 25.7 30.7683 25.7599 30.7803 25.6641Z" fill="white"/>
<path fill-rule="evenodd" clip-rule="evenodd" d="M30.6238 25.5802C30.6178 25.5503 30.6238 25.5203 30.6238 25.4844C30.6238 25.5083 30.6238 25.5623 30.6238 25.5802Z" fill="white"/>
<path fill-rule="evenodd" clip-rule="evenodd" d="M30.5991 25.5535C30.5991 25.5535 30.5871 25.5056 30.5991 25.5175V25.5535Z" fill="white"/>
<path fill-rule="evenodd" clip-rule="evenodd" d="M30.3725 25.4758C30.3725 25.4758 30.3605 25.4398 30.3725 25.4219C30.3845 25.4279 30.3845 25.4698 30.3725 25.4758Z" fill="white"/>
<path fill-rule="evenodd" clip-rule="evenodd" d="M30.4078 25.2552C30.4197 25.1534 30.3958 25.1773 30.4078 25.2552Z" fill="white"/>
<path fill-rule="evenodd" clip-rule="evenodd" d="M30.4627 26.9521C30.4627 26.9521 30.4507 26.9222 30.4388 26.9162C30.4507 26.8922 30.4328 26.8503 30.4388 26.8203C30.4627 26.8563 30.4388 26.8982 30.4627 26.9521Z" fill="white"/>
<path fill-rule="evenodd" clip-rule="evenodd" d="M30.756 26.1076C30.756 26.1076 30.762 26.0896 30.756 26.0716C30.762 26.0716 30.762 26.0776 30.768 26.0776C30.768 26.0417 30.768 26.0237 30.768 25.9938C30.768 25.9938 30.7739 25.9998 30.7799 25.9998C30.756 25.9578 30.7919 25.9099 30.7799 25.832C30.8039 25.9099 30.7859 26.0896 30.7979 26.1615C30.7799 26.1495 30.7979 26.0896 30.7739 26.0836C30.762 26.0836 30.7739 26.1256 30.75 26.1136L30.756 26.1076Z" fill="white"/>
<path fill-rule="evenodd" clip-rule="evenodd" d="M31.1577 26.0164C31.1457 26.0164 31.1577 25.9865 31.1577 25.9805C31.1696 25.9865 31.1637 26.0763 31.1577 26.0164Z" fill="white"/>
<path fill-rule="evenodd" clip-rule="evenodd" d="M31.1154 25.5128H31.1333C31.1333 25.4708 31.1333 25.399 31.1513 25.375C31.1573 25.4289 31.1213 25.5367 31.1513 25.5727C31.1513 25.5907 31.1513 25.5907 31.1393 25.6086C31.1633 25.7284 31.1393 25.8602 31.1513 25.98C31.1034 25.9261 31.1633 25.8003 31.1213 25.7344C31.1213 25.7224 31.1213 25.7344 31.1213 25.7404C31.1213 25.6865 31.1333 25.5847 31.1094 25.5128H31.1154Z" fill="white"/>
<path fill-rule="evenodd" clip-rule="evenodd" d="M30.5648 25.5369C30.5648 25.5369 30.5588 25.5069 30.5469 25.4889C30.5469 25.483 30.5768 25.5189 30.5648 25.5369Z" fill="white"/>
<path fill-rule="evenodd" clip-rule="evenodd" d="M40.6506 27.2201C40.6625 27.1901 40.6566 27.1482 40.6685 27.1122C40.6925 27.0344 40.7284 26.9625 40.7404 26.8786C40.7523 26.8067 40.7464 26.7348 40.7643 26.657C40.7703 26.6031 40.7643 26.5791 40.7703 26.5432C40.7763 26.4293 40.8062 26.3455 40.7703 26.2916C40.7583 26.2137 40.7523 26.1118 40.7404 26.04C40.7404 26.028 40.7404 26.004 40.7404 26.004C40.6985 25.8243 40.6027 25.7045 40.5728 25.5068C40.5488 25.4888 40.5129 25.4709 40.483 25.4349C40.471 25.4169 40.465 25.387 40.453 25.375C40.4051 25.3331 40.3333 25.363 40.2974 25.2852C40.2854 25.2852 40.2794 25.2971 40.2734 25.2971C40.1657 25.2971 40.0759 25.3151 39.9921 25.2971C39.9382 25.3391 39.8843 25.3271 39.8364 25.357C39.8065 25.375 39.7766 25.4169 39.7466 25.4409C39.7107 25.4709 39.6868 25.5008 39.6508 25.5248C39.6209 25.5248 39.6089 25.5607 39.579 25.5667C39.5551 25.6027 39.5191 25.6566 39.4952 25.6925C39.4832 25.6925 39.4772 25.7045 39.4593 25.7045C39.3874 25.8003 39.3096 25.8902 39.2617 26.022C39.2617 26.034 39.2497 26.0579 39.2438 26.0759C39.2198 26.1777 39.1839 26.3335 39.124 26.3694C39.118 26.3874 39.124 26.3874 39.118 26.4054C39.0941 26.4114 39.0462 26.4533 39.0342 26.5012C39.0342 26.5192 39.0522 26.5491 39.0462 26.5851C39.0402 26.639 38.9923 26.6749 38.9804 26.7229C38.9804 26.7468 38.9923 26.7708 38.9923 26.7948C38.9923 26.8547 38.9385 26.9625 38.9145 27.0104C38.8965 27.0464 38.8726 27.0523 38.8666 27.0823C38.8666 27.1063 38.8726 27.1362 38.9085 27.1422C38.9444 27.238 38.8127 27.3938 38.8008 27.5196C38.7469 27.5915 38.7409 27.6754 38.699 27.7472C38.693 27.7592 38.6751 27.7712 38.6631 27.7892C38.6511 27.8131 38.6451 27.8551 38.6331 27.885C38.6132 27.9329 38.5912 27.9849 38.5673 28.0408C38.4895 28.0827 38.4955 28.1546 38.4595 28.2025C38.4476 28.2205 38.4176 28.2325 38.4057 28.2564C38.3937 28.2744 38.3877 28.2984 38.3757 28.3223C38.3638 28.3403 38.3338 28.3583 38.3219 28.3762C38.3099 28.3882 38.3099 28.4062 38.3039 28.4182C38.2919 28.4302 38.274 28.4361 38.262 28.4481C38.25 28.4661 38.25 28.4901 38.238 28.508C38.1902 28.5679 38.1243 28.6218 38.0944 28.6997C37.9926 28.7896 37.9327 28.8854 37.795 28.9633C37.7711 28.9933 37.7531 29.0172 37.7172 29.0352C37.7172 29.0412 37.7172 29.0532 37.7052 29.0592C37.6394 29.1071 37.5915 29.185 37.5077 29.2089C37.5077 29.2089 37.5077 29.2209 37.5077 29.2269C37.3999 29.2688 37.2742 29.3407 37.2084 29.4126C37.1425 29.4366 37.0707 29.4725 36.9929 29.5144C36.9569 29.5324 36.915 29.5324 36.8791 29.5504C36.8133 29.5863 36.7175 29.6163 36.6516 29.6462C36.6337 29.6582 36.6157 29.6702 36.5978 29.6822C36.5618 29.6941 36.5139 29.6882 36.478 29.7061C36.3284 29.766 36.1428 29.79 36.0051 29.8199C35.9632 29.8199 35.9213 29.8379 35.8734 29.8499C35.7896 29.8619 35.7058 29.8499 35.622 29.8559C35.61 29.8559 35.5741 29.8679 35.5621 29.8739C35.5142 29.8798 35.4663 29.8739 35.4124 29.8798C35.2867 29.8978 35.155 29.9038 35.0353 29.8798C34.8797 29.8918 34.6462 29.8798 34.4786 29.8559C34.4367 29.8679 34.4007 29.8379 34.3648 29.8319C34.2391 29.814 34.0775 29.802 33.9518 29.754C33.425 29.6103 32.958 29.2928 32.5749 28.9094C32.5629 28.8615 32.515 28.8195 32.4851 28.7956C32.4851 28.7836 32.4731 28.7656 32.4671 28.7476C32.4073 28.7057 32.3654 28.6338 32.3175 28.5619C32.2815 28.5619 32.2756 28.502 32.2396 28.4781C32.2456 28.4601 32.2576 28.4901 32.2576 28.4601C32.1858 28.4361 32.1139 28.2564 32.06 28.1786C32.06 28.1786 32.06 28.1905 32.0541 28.1786C32.0541 28.1546 32.0301 28.1546 32.0241 28.1306C31.9583 27.9809 31.8685 27.891 31.8026 27.7652C31.8026 27.7472 31.8146 27.6933 31.7907 27.6813C31.7907 27.7053 31.8026 27.7353 31.7847 27.7412C31.7847 27.6993 31.7547 27.6454 31.7308 27.6214C31.7128 27.5735 31.7188 27.5436 31.6889 27.5016C31.6889 27.4896 31.6709 27.5196 31.6649 27.4956C31.653 27.4178 31.623 27.3878 31.617 27.3219C31.5931 27.3099 31.5751 27.2321 31.5811 27.2021C31.5692 27.1841 31.5692 27.2321 31.5632 27.2141C31.5452 27.1542 31.5273 27.1003 31.5273 27.0404C31.5153 27.0284 31.5033 27.0224 31.4913 26.9984C31.4913 26.9805 31.5093 26.9984 31.5033 26.9805C31.4853 26.9625 31.4853 26.9984 31.4734 26.9984C31.4614 26.9685 31.4494 26.9745 31.4375 26.9625C31.4375 26.9206 31.4135 26.8906 31.4015 26.8547C31.3896 26.8127 31.3896 26.7708 31.3776 26.7289C31.3656 26.6929 31.3536 26.6809 31.3477 26.645C31.3477 26.615 31.3536 26.5851 31.3477 26.5491C31.3477 26.5312 31.3357 26.5611 31.3297 26.5372C31.3117 26.4174 31.2998 26.2975 31.2698 26.2077C31.3117 26.3455 31.2758 26.4473 31.3237 26.5671C31.3058 26.5851 31.3417 26.621 31.3237 26.639C31.3357 26.645 31.3417 26.615 31.3417 26.639C31.3417 26.651 31.3417 26.651 31.3417 26.663C31.3177 26.651 31.3177 26.6749 31.3058 26.6869C31.3237 26.7888 31.3357 26.8666 31.3536 26.9565C31.3596 26.9745 31.3656 26.9445 31.3716 26.9565C31.3836 26.9864 31.3836 27.0164 31.3956 27.0523C31.3836 27.0643 31.3776 27.0943 31.3536 27.0823C31.3297 26.9625 31.2698 26.8067 31.2519 26.663C31.2459 26.621 31.2519 26.5731 31.2279 26.5491C31.2459 26.615 31.2219 26.669 31.2279 26.7229C31.2339 26.7948 31.2698 26.8726 31.2758 26.9445C31.2758 26.9625 31.2758 26.9745 31.2758 26.9924C31.2758 27.0044 31.2938 27.0284 31.2998 27.0464C31.2998 27.0643 31.2938 27.0643 31.2998 27.0823C31.3058 27.1122 31.3237 27.1302 31.3297 27.1662C31.3417 27.2201 31.3297 27.28 31.3536 27.3399C31.3536 27.3519 31.3297 27.3519 31.3237 27.3399C31.3058 27.268 31.3058 27.256 31.2938 27.1781C31.2938 27.1841 31.2938 27.1901 31.2818 27.1961C31.2818 27.1722 31.2818 27.1662 31.2698 27.1482C31.2818 27.2021 31.2459 27.2081 31.2279 27.1901C31.204 27.0523 31.1561 26.8786 31.1621 26.7648C31.1501 26.7528 31.1381 26.7468 31.1321 26.7289C31.1022 26.5971 31.0962 26.4533 31.0843 26.3095C31.0663 26.4713 31.1022 26.639 31.1381 26.8247C31.1381 26.8307 31.1202 26.8247 31.1262 26.8487C31.1621 26.9984 31.1621 27.0104 31.18 27.0763L31.1381 27.1662C31.186 27.3579 31.1441 27.5196 31.204 27.7053C31.192 27.7053 31.192 27.7233 31.186 27.7293C31.1741 27.7173 31.1561 27.7113 31.1441 27.6933C31.1321 27.6634 31.1202 27.6334 31.1202 27.6035C31.0304 27.4537 31.0244 27.2201 30.9585 27.0224C30.9346 27.0044 30.9226 27.0224 30.9047 27.0404C30.9107 27.1422 30.9585 27.2201 30.9526 27.3339C30.9107 27.3818 30.8687 27.3519 30.8508 27.268C30.8149 27.1362 30.7789 26.9026 30.7849 26.8127C30.6951 26.4233 30.6951 26.028 30.6772 25.6206C30.6652 25.8483 30.6892 26.0579 30.6892 26.2616C30.7011 26.2616 30.7011 26.2616 30.7011 26.2856C30.7011 26.4833 30.7311 26.7049 30.773 26.8786C30.749 26.9565 30.8089 27.0883 30.7969 27.1722C30.743 27.1602 30.7131 27.1063 30.6832 27.0284C30.7011 27.1063 30.7011 27.1841 30.7071 27.25C30.7131 27.3039 30.749 27.3938 30.743 27.4238C30.743 27.4297 30.7311 27.4238 30.7311 27.4357C30.7311 27.4118 30.743 27.4777 30.743 27.4777C30.755 27.5076 30.755 27.5016 30.761 27.5376C30.773 27.5855 30.773 27.5795 30.767 27.6154C30.8029 27.7712 30.8628 27.915 30.8927 28.0767C30.8927 28.0947 30.9107 28.1246 30.9107 28.1246C30.9107 28.1426 30.8987 28.1246 30.9107 28.1486C30.9107 28.1606 30.9226 28.1486 30.9286 28.1666C30.9466 28.2265 30.9705 28.2984 30.9945 28.3523C31.0543 28.502 31.1142 28.6818 31.186 28.7956C31.198 28.8255 31.1681 28.7956 31.186 28.8315C31.2818 29.0412 31.3896 29.2568 31.5512 29.4545C31.5632 29.4725 31.5392 29.4725 31.5512 29.4905C31.5692 29.5204 31.5811 29.5024 31.5991 29.5264C31.6051 29.5444 31.6111 29.5624 31.6111 29.5803C31.7547 29.8319 32.0241 30.0116 32.2337 30.2153C32.4671 30.3711 32.7006 30.5388 32.9341 30.6586C33.1256 30.7425 33.3112 30.8024 33.4788 30.8862C33.7123 30.9641 33.9158 30.9881 34.1373 31.042C34.299 31.0839 34.4666 31.1199 34.6043 31.1139C34.6282 31.1139 34.6582 31.1079 34.6821 31.1139C34.724 31.1139 34.7599 31.1319 34.8018 31.1378C34.8797 31.1378 35.0533 31.1378 35.1311 31.1438C35.2508 31.1558 35.3705 31.1618 35.4843 31.1498C35.5501 31.1498 35.616 31.1259 35.6818 31.1199C35.7058 31.1199 35.7896 31.1199 35.8195 31.1199C35.9452 31.1079 36.0769 31.0839 36.1967 31.0779C36.3583 31.06 36.5259 31.036 36.6876 30.9761C36.8672 30.9462 37.0946 30.9042 37.2503 30.8204C37.3999 30.7964 37.5257 30.7065 37.6813 30.6526C37.6993 30.6526 37.7112 30.6526 37.7292 30.6406C37.9687 30.5568 38.1782 30.3591 38.3638 30.2752C38.4176 30.2213 38.4835 30.1973 38.5374 30.1554C38.5972 30.1135 38.6451 30.0536 38.699 30.0056C38.717 29.9877 38.7409 29.9817 38.7589 29.9697C38.8187 29.9218 38.8666 29.8679 38.9265 29.808C39.0223 29.7301 39.124 29.6522 39.2019 29.5324C39.2857 29.4605 39.4054 29.3587 39.4712 29.2508C39.6149 29.1011 39.7047 28.9094 39.8364 28.7417C39.8783 28.6818 39.9262 28.6398 39.9442 28.5679C39.9981 28.514 40.028 28.4302 40.0759 28.3523C40.1178 28.2744 40.1776 28.2025 40.2196 28.1186C40.2794 27.9988 40.3273 27.8431 40.4111 27.7712C40.5189 27.7712 40.4231 27.6334 40.471 27.5436C40.5069 27.4956 40.5308 27.5136 40.5728 27.5016C40.6027 27.4597 40.6087 27.4118 40.6147 27.3638C40.6446 27.3159 40.6985 27.286 40.7224 27.2201H40.6506ZM31.4434 27.2141C31.4434 27.2141 31.4494 27.2141 31.4494 27.2081C31.4734 27.2201 31.4494 27.256 31.4434 27.2141ZM31.4315 27.2021C31.4195 27.1482 31.3836 27.0763 31.3956 27.0344C31.3956 27.0224 31.3716 27.0464 31.3656 27.0344C31.3716 27.0104 31.3716 26.9805 31.3656 26.9385C31.4015 26.9325 31.3956 27.0104 31.4255 27.0104C31.4255 27.0404 31.4255 27.0583 31.4494 27.0643C31.4494 27.1302 31.4734 27.1362 31.4734 27.1841C31.4494 27.1781 31.4614 27.1961 31.4375 27.1961L31.4315 27.2021Z" fill="white"/>
<path fill-rule="evenodd" clip-rule="evenodd" d="M21.3402 53.8878C21.3402 53.8878 21.2743 53.8638 21.2324 53.8398C21.2504 53.8398 21.3102 53.8638 21.3402 53.8878Z" fill="white"/>
<path fill-rule="evenodd" clip-rule="evenodd" d="M20.418 51.982C20.3881 51.9701 20.2863 51.9221 20.3103 51.9102C20.3641 51.9401 20.3821 51.9581 20.418 51.982Z" fill="white"/>
<path fill-rule="evenodd" clip-rule="evenodd" d="M20.2798 51.8682C20.2798 51.8682 20.2019 51.8203 20.166 51.8024C20.172 51.7904 20.2618 51.8503 20.2798 51.8682Z" fill="white"/>
<path fill-rule="evenodd" clip-rule="evenodd" d="M19.7347 51.7438C19.7347 51.7438 19.6449 51.6958 19.627 51.6719C19.6389 51.6719 19.7048 51.7258 19.7347 51.7438Z" fill="white"/>
<path fill-rule="evenodd" clip-rule="evenodd" d="M19.6447 51.444C19.6028 51.4261 19.5369 51.3901 19.4531 51.3242C19.489 51.3362 19.5788 51.3961 19.6447 51.444Z" fill="white"/>
<path fill-rule="evenodd" clip-rule="evenodd" d="M18.5682 51.8396C18.4724 51.7737 18.2629 51.6539 18.209 51.582C18.3167 51.6779 18.4664 51.7558 18.5682 51.8396Z" fill="white"/>
<path fill-rule="evenodd" clip-rule="evenodd" d="M18.5493 51.3271C18.4176 51.2612 18.2321 51.0755 18.0704 50.9796C18.0644 50.9497 18.2859 51.1474 18.3398 51.1653C18.3638 51.1833 18.3937 51.2133 18.4236 51.2432C18.4655 51.2732 18.5134 51.2912 18.5493 51.3331V51.3271Z" fill="white"/>
<path fill-rule="evenodd" clip-rule="evenodd" d="M17.197 50.1729C17.197 50.1729 17.1791 50.1789 17.1432 50.149C17.1372 50.137 17.1372 50.131 17.1432 50.125L17.197 50.1729Z" fill="white"/>
<path fill-rule="evenodd" clip-rule="evenodd" d="M16.5444 49.7947C16.4486 49.7288 16.2511 49.5431 16.1493 49.4292C16.1313 49.4173 16.1254 49.4232 16.1014 49.3933C16.0356 49.3334 15.8979 49.1896 16.0356 49.3274C16.2152 49.4831 16.3469 49.6209 16.5384 49.7947H16.5444Z" fill="white"/>
<path fill-rule="evenodd" clip-rule="evenodd" d="M16.6291 49.58C16.6291 49.58 16.5692 49.532 16.5273 49.4961C16.5453 49.4961 16.6171 49.562 16.6291 49.58Z" fill="white"/>
<path fill-rule="evenodd" clip-rule="evenodd" d="M16.1141 49.8659C16.1141 49.8659 16.0243 49.782 15.9824 49.7461C16.0124 49.7701 16.0842 49.83 16.1141 49.8659Z" fill="white"/>
<path fill-rule="evenodd" clip-rule="evenodd" d="M16.4731 49.5327C16.4312 49.5088 16.3594 49.4369 16.3115 49.4009C16.2875 49.353 16.4192 49.4848 16.4731 49.5327Z" fill="white"/>
<path fill-rule="evenodd" clip-rule="evenodd" d="M16.4549 49.431C16.4189 49.413 16.3411 49.3352 16.2812 49.2812C16.3232 49.3052 16.401 49.3831 16.4549 49.431Z" fill="white"/>
<path fill-rule="evenodd" clip-rule="evenodd" d="M15.9048 49.8143C15.9048 49.8143 15.8329 49.7664 15.791 49.7305C15.809 49.7305 15.8629 49.7844 15.9048 49.8143Z" fill="white"/>
<path fill-rule="evenodd" clip-rule="evenodd" d="M15.9163 49.6815C15.8624 49.6456 15.7067 49.4958 15.6289 49.418C15.7307 49.5078 15.8085 49.5797 15.9163 49.6815Z" fill="white"/>
<path fill-rule="evenodd" clip-rule="evenodd" d="M16.251 49.2568C16.1672 49.2029 16.0715 49.0951 16.0176 49.0352C16.0894 49.0891 16.1672 49.1909 16.251 49.2568Z" fill="white"/>
<path fill-rule="evenodd" clip-rule="evenodd" d="M15.9283 49.2272C15.8924 49.2092 15.8505 49.1613 15.8086 49.1253C15.8146 49.1014 15.8804 49.1852 15.9283 49.2272Z" fill="white"/>
<path fill-rule="evenodd" clip-rule="evenodd" d="M15.8441 49.0766C15.8022 49.0526 15.7782 49.0167 15.7363 48.9688C15.7543 48.9688 15.8142 49.0466 15.8441 49.0766Z" fill="white"/>
<path fill-rule="evenodd" clip-rule="evenodd" d="M15.7662 48.9224C15.7662 48.9224 15.6405 48.8146 15.6824 48.8206C15.7123 48.8505 15.7003 48.8505 15.7003 48.8565C15.7303 48.8924 15.7363 48.8805 15.7722 48.9224H15.7662Z" fill="white"/>
<path fill-rule="evenodd" clip-rule="evenodd" d="M15.2461 48.8594C15.4197 49.0511 15.3239 48.9133 15.2461 48.8594Z" fill="white"/>
<path fill-rule="evenodd" clip-rule="evenodd" d="M14.9881 48.8146C14.9282 48.7607 14.8743 48.7008 14.8145 48.6289C14.8564 48.6708 14.9641 48.7847 14.9881 48.8146Z" fill="white"/>
<path fill-rule="evenodd" clip-rule="evenodd" d="M14.9227 48.7847C14.9347 48.8146 14.8269 48.6948 14.8568 48.7128L14.9227 48.7847Z" fill="white"/>
<path fill-rule="evenodd" clip-rule="evenodd" d="M14.6291 48.7932C14.6291 48.7932 14.5573 48.7333 14.5273 48.6914C14.5453 48.6914 14.6171 48.7693 14.6291 48.7932Z" fill="white"/>
<path fill-rule="evenodd" clip-rule="evenodd" d="M14.2818 48.3513C14.1501 48.2195 14.1261 48.1536 14.2818 48.3513Z" fill="white"/>
<path fill-rule="evenodd" clip-rule="evenodd" d="M17.4786 51.4128C17.4786 51.4128 17.4128 51.3709 17.3888 51.3649C17.3529 51.3169 17.2571 51.257 17.1973 51.2031C17.2871 51.251 17.3589 51.3349 17.4786 51.4128Z" fill="white"/>
<path fill-rule="evenodd" clip-rule="evenodd" d="M16.0716 49.7251C16.0357 49.6951 16.0477 49.6891 16.0058 49.6532C16.0058 49.6472 16.0237 49.6592 16.0297 49.6532C15.9638 49.5873 15.916 49.5514 15.8561 49.4974C15.8681 49.4974 15.874 49.5094 15.88 49.4974C15.7843 49.4375 15.7184 49.3237 15.5508 49.168C15.8621 49.4615 16.0536 49.6472 16.1973 49.779C16.1674 49.773 16.0536 49.6472 16.0297 49.6472C16.0177 49.6532 16.1075 49.7251 16.0656 49.7131L16.0716 49.7251Z" fill="white"/>
<path fill-rule="evenodd" clip-rule="evenodd" d="M16.2084 49.2925C16.1965 49.2925 16.1486 49.2385 16.1426 49.2266C16.1665 49.2326 16.3461 49.4123 16.2144 49.2865L16.2084 49.2925Z" fill="white"/>
<path fill-rule="evenodd" clip-rule="evenodd" d="M15.1926 48.3097L15.2046 48.2977C15.1207 48.2078 14.989 48.0641 14.9531 47.9922C15.0489 48.094 15.2345 48.3396 15.3243 48.3995C15.3482 48.4355 15.3542 48.4415 15.3782 48.4774C15.6236 48.7051 15.8571 48.9866 16.1205 49.2142C15.9708 49.1424 15.7733 48.8428 15.6176 48.747C15.5997 48.723 15.6176 48.747 15.6356 48.759C15.5278 48.6511 15.3482 48.4415 15.1926 48.3097Z" fill="white"/>
<path fill-rule="evenodd" clip-rule="evenodd" d="M14.8683 48.771C14.8683 48.771 14.8025 48.7111 14.7785 48.6931C14.7665 48.6811 14.8503 48.735 14.8683 48.771Z" fill="white"/>
<path fill-rule="evenodd" clip-rule="evenodd" d="M50.6016 52.3227C50.6734 52.2748 50.7393 52.1969 50.8111 52.143C50.9847 52.0112 51.1464 51.9034 51.314 51.7596C51.4637 51.6338 51.5954 51.508 51.739 51.3702C51.8228 51.2864 51.8827 51.2325 51.9545 51.1606C52.1641 50.9569 52.3556 50.8071 52.4155 50.6873C52.5711 50.4956 52.6789 50.3638 52.8286 50.1901C52.8465 50.1662 52.8884 50.1302 52.8944 50.1182C53.1638 49.7408 53.2775 49.4713 53.5888 49.034C53.6008 48.9801 53.5888 48.9381 53.6248 48.8423C53.6367 48.8003 53.6906 48.7225 53.6966 48.6925C53.7205 48.5727 53.6128 48.6086 53.6966 48.4229C53.6966 48.405 53.6667 48.4349 53.6547 48.4349C53.5709 48.369 53.4511 48.375 53.4152 48.2852C53.2955 48.357 53.2656 48.3031 53.1698 48.351C53.1099 48.381 53.0141 48.4589 52.9363 48.5008C52.8525 48.5487 52.7687 48.6086 52.6969 48.6446C52.6729 48.6206 52.5891 48.7045 52.5592 48.7045C52.4634 48.7764 52.3317 48.8722 52.2359 48.9441C52.2179 48.9441 52.188 48.9681 52.176 48.9621C51.9306 49.1478 51.6552 49.3035 51.3439 49.5731C51.314 49.6031 51.2481 49.651 51.2182 49.6809C50.9847 49.8846 50.6256 50.1901 50.4699 50.256C50.422 50.286 50.434 50.298 50.3861 50.3279C50.3442 50.3279 50.1945 50.4058 50.0808 50.4896C50.0449 50.5196 49.991 50.5915 49.9132 50.6634C49.7934 50.7652 49.6558 50.8311 49.542 50.921C49.4881 50.9629 49.4462 51.0228 49.3923 51.0647C49.2547 51.1786 48.9494 51.3762 48.8177 51.4541C48.7159 51.514 48.668 51.526 48.5962 51.5799C48.5303 51.6278 48.4884 51.6758 48.5123 51.7057C48.3507 51.8854 47.8059 52.149 47.5126 52.3647C47.2732 52.4785 47.0636 52.6223 46.8361 52.7361C46.8002 52.754 46.7224 52.79 46.6865 52.802C46.6087 52.8439 46.5129 52.9098 46.4171 52.9637C46.2495 53.0596 46.1058 53.1434 45.9621 53.2093C45.7227 53.2692 45.579 53.383 45.3874 53.4609C45.3156 53.4909 45.2438 53.5088 45.1659 53.5448C45.1001 53.5747 45.0402 53.6107 44.9684 53.6466C44.9145 53.6646 44.7948 53.7125 44.7469 53.7305C44.711 53.7485 44.6451 53.7784 44.6152 53.7964C44.5613 53.8203 44.5194 53.8263 44.4595 53.8443C44.4236 53.8623 44.3099 53.9162 44.274 53.9342C44.0405 54.024 43.7771 54.0959 43.5676 54.2037C43.1545 54.3235 42.8192 54.4913 42.3164 54.5871C42.1967 54.6291 42.1069 54.659 41.9811 54.683C41.9512 54.695 41.9572 54.7009 41.9093 54.7129C41.6519 54.7668 41.3945 54.8807 41.1251 54.9346C41.1191 54.9406 41.1071 54.9466 41.0892 54.9585C40.718 55.0184 40.2511 55.0963 39.9637 55.1802C39.7362 55.2041 39.4788 55.276 39.2034 55.3299C39.0717 55.3599 38.94 55.3599 38.8203 55.3779C38.5389 55.4138 38.2755 55.4438 38.0301 55.4737C37.9822 55.4797 37.8745 55.5037 37.8266 55.5157C37.7008 55.5336 37.5691 55.5336 37.4374 55.5576C36.9346 55.6594 36.3479 55.6474 35.8989 55.6654C35.7612 55.6654 35.6415 55.6894 35.4919 55.7014C35.2344 55.7193 34.971 55.7014 34.7136 55.7193C34.6657 55.7193 34.5699 55.7313 34.528 55.7373C34.3724 55.7373 34.2287 55.7193 34.0671 55.7193C33.672 55.7073 33.2709 55.7133 32.8997 55.6774C32.6603 55.6774 32.3669 55.6774 32.0616 55.6594C31.7623 55.6235 31.451 55.5875 31.1756 55.5576C31.0499 55.5636 30.9362 55.5336 30.8045 55.5216C30.4094 55.4797 29.9005 55.4617 29.4935 55.3479C28.6314 55.1982 27.7514 55.0424 26.9013 54.7788C26.0333 54.5692 25.2072 54.2457 24.381 53.9701C24.2553 53.9102 24.0638 53.8323 23.95 53.7964C23.9321 53.7784 23.8602 53.7425 23.8063 53.7185C23.5968 53.6586 23.3574 53.5208 23.1059 53.419C23.0281 53.419 22.8904 53.3291 22.7827 53.3052C22.7467 53.2752 22.8425 53.3171 22.7827 53.2812C22.5971 53.2632 22.0822 52.9457 21.8368 52.8379C21.8548 52.8439 21.8548 52.8559 21.8368 52.8439C21.7829 52.802 21.747 52.808 21.6812 52.778C21.2382 52.5624 20.9209 52.4186 20.5497 52.2149C20.5078 52.179 20.4001 52.0891 20.3462 52.0771C20.412 52.1191 20.4899 52.167 20.4779 52.185C20.3761 52.1131 20.2265 52.0352 20.1486 52.0052C20.0169 51.9274 19.9511 51.8734 19.8254 51.8135C19.7954 51.7956 19.8433 51.8495 19.7835 51.8135C19.6099 51.6818 19.5081 51.6338 19.3524 51.514C19.2926 51.496 19.101 51.3702 19.0471 51.3223C18.9873 51.2924 19.095 51.3762 19.0471 51.3463C18.8975 51.2504 18.7538 51.1666 18.6341 51.0528C18.5981 51.0348 18.5682 51.0288 18.5143 50.9928C18.4784 50.9689 18.5383 50.9869 18.4784 50.9509C18.4245 50.921 18.5024 50.9988 18.4784 50.9988C18.4066 50.9509 18.4126 50.9689 18.3707 50.9509C18.2809 50.867 18.1971 50.8311 18.1013 50.7712C17.9756 50.6754 17.9277 50.6394 17.8139 50.5555C17.7361 50.5016 17.6942 50.4837 17.6044 50.4178C17.5385 50.3579 17.4907 50.298 17.4128 50.238C17.3709 50.2081 17.4308 50.274 17.3709 50.2261C17.1075 50.0044 16.8381 49.7888 16.6346 49.633C16.9459 49.8726 17.1434 50.0823 17.4248 50.286C17.4547 50.3339 17.5505 50.3758 17.5745 50.4297C17.5984 50.4357 17.5445 50.3758 17.5984 50.4297C17.6164 50.4477 17.6224 50.4537 17.6523 50.4777C17.5984 50.4657 17.6523 50.5076 17.6702 50.5376C17.8977 50.7053 18.0953 50.8551 18.2928 51.0048C18.3347 51.0288 18.2749 50.9749 18.3168 51.0048C18.4006 51.0707 18.4305 51.0887 18.5443 51.1726C18.5622 51.2085 18.6161 51.2564 18.5742 51.2504C18.3288 51.0707 17.8917 50.7472 17.5924 50.5316C17.4966 50.4537 17.4128 50.3579 17.341 50.3339C17.4847 50.4477 17.5805 50.5675 17.7062 50.6634C17.8678 50.7952 18.0594 50.909 18.215 51.0348C18.2569 51.0707 18.2749 51.0887 18.3108 51.1246C18.3407 51.1486 18.4066 51.1786 18.4365 51.2085C18.4724 51.2385 18.4724 51.2504 18.5024 51.2744C18.5742 51.3223 18.6341 51.3463 18.7119 51.4062C18.8436 51.496 18.9633 51.5979 19.107 51.6937C19.1309 51.7177 19.107 51.7237 19.0711 51.7057C18.8975 51.5859 18.8735 51.5679 18.6939 51.4481C18.7119 51.4661 18.7239 51.4721 18.7179 51.4781C18.664 51.4421 18.652 51.4242 18.6041 51.4062C18.7358 51.496 18.7059 51.514 18.652 51.496C18.3288 51.2684 17.9516 50.9689 17.7002 50.7652C17.6643 50.7532 17.6403 50.7472 17.5924 50.7113C17.2991 50.4956 17.0058 50.2081 16.7004 49.9685C17.0237 50.274 17.3769 50.5855 17.796 50.885C17.8079 50.903 17.79 50.897 17.8319 50.927C18.0115 51.0528 18.215 51.2145 18.3527 51.3163C18.4006 51.3762 18.4485 51.4361 18.4964 51.496C18.9513 51.7896 19.2327 52.0891 19.6697 52.3766C19.6577 52.3886 19.6937 52.4126 19.6996 52.4246C19.6577 52.4126 19.6278 52.4066 19.5799 52.3886C19.5081 52.3467 19.4303 52.2988 19.3704 52.2508C18.9933 52.0232 18.4784 51.6638 18.0354 51.3403C17.9696 51.3163 17.9995 51.3643 18.0294 51.4062C18.227 51.5859 18.4485 51.6937 18.664 51.8794C18.7179 51.9813 18.6101 51.9453 18.4305 51.8255C18.1252 51.6278 17.6523 51.2265 17.4667 51.0827C16.6226 50.4417 15.8384 49.7348 15.0781 48.9501C15.4912 49.3994 15.9102 49.7708 16.2994 50.1482C16.2994 50.1422 16.3233 50.1482 16.3532 50.1781C16.7543 50.5256 17.1913 50.927 17.5805 51.1905C17.7181 51.3343 18.0354 51.538 18.1731 51.6877C18.1073 51.6997 17.9636 51.6159 17.796 51.496C17.9636 51.6218 18.1013 51.7596 18.2509 51.8615C18.3707 51.9453 18.5802 52.0771 18.6341 52.125C18.646 52.137 18.6161 52.125 18.6401 52.143C18.5922 52.1071 18.7298 52.2029 18.7358 52.2089C18.8017 52.2508 18.7957 52.2389 18.8675 52.2928C18.9633 52.3647 18.9633 52.3647 19.0172 52.4126C19.3465 52.6642 19.7056 52.8439 20.0469 53.0715C20.0888 53.0955 20.1546 53.1374 20.1606 53.1434C20.1905 53.1674 20.1606 53.1554 20.2025 53.1854C20.2265 53.2033 20.2205 53.1854 20.2564 53.2093C20.3941 53.2932 20.5437 53.401 20.6814 53.4789C21.0346 53.6706 21.4537 53.8922 21.741 54.048C21.8069 54.0839 21.7111 54.048 21.8009 54.1019C22.2918 54.3894 22.8485 54.6051 23.3933 54.8687C23.4352 54.8867 23.3933 54.8926 23.4531 54.9166C23.531 54.9525 23.519 54.9286 23.5848 54.9585C23.6267 54.9825 23.6627 55.0065 23.6806 55.0244C24.3212 55.288 25.0036 55.5157 25.6801 55.7493C26.3266 55.929 26.9672 56.1087 27.5778 56.2764C28.0687 56.3783 28.5356 56.4502 28.9726 56.552C29.2779 56.6059 29.5473 56.6538 29.8107 56.7018C30.0861 56.7317 30.3495 56.7677 30.6249 56.7976C31.026 56.8455 31.463 56.9054 31.7982 56.9354C31.8461 56.9354 31.9479 56.9414 31.9958 56.9474C32.0976 56.9594 32.1993 56.9713 32.3011 56.9773C32.5585 56.9773 32.8758 56.9893 33.1392 56.9953C33.4445 57.0073 33.7438 57.0253 34.0491 57.0372C34.2227 57.0432 34.3844 57.0372 34.552 57.0372C34.6478 57.0372 34.7974 57.0372 34.8992 57.0372C35.2105 57.0193 35.5637 57.0013 35.869 56.9833C36.2821 56.9653 36.7071 56.9833 37.1262 56.9294C37.5871 56.8875 38.1498 56.8276 38.5868 56.7677C38.952 56.7677 39.3172 56.6898 39.7183 56.6059C39.7422 56.6059 39.8021 56.5939 39.832 56.5939C40.4426 56.4921 41.1131 56.3483 41.604 56.2345C41.7776 56.1626 41.9392 56.1446 42.1128 56.1027C42.2984 56.0608 42.4601 56.0009 42.6397 55.953C42.6816 55.947 42.7654 55.923 42.8073 55.917C42.9869 55.8691 43.1545 55.8152 43.3461 55.7493C43.6274 55.6474 43.9447 55.5756 44.268 55.4378C44.5254 55.3599 44.9085 55.2581 45.1839 55.1203C45.6748 54.9406 46.1417 54.7009 46.6326 54.4973C46.8002 54.4254 46.9499 54.3655 47.1055 54.2636C47.2851 54.1977 47.4767 54.0839 47.6802 53.9761C47.8838 53.8683 48.1053 53.7844 48.3088 53.6586C48.6021 53.4909 48.9553 53.2572 49.1948 53.1674C49.3504 53.1914 49.4642 52.9517 49.6917 52.8139C49.8234 52.7481 49.8234 52.784 49.8892 52.778C50.003 52.7181 50.0987 52.6402 50.1945 52.5624C50.3202 52.4845 50.434 52.4605 50.5956 52.3527L50.6016 52.3227ZM18.9633 51.3762C18.9633 51.3762 18.9633 51.3702 18.9513 51.3583C18.9992 51.3643 19.0531 51.4421 18.9633 51.3762ZM18.9274 51.3583C18.8017 51.2684 18.6041 51.1666 18.5263 51.0767C18.5024 51.0587 18.5323 51.1127 18.4904 51.0887C18.4425 51.0408 18.3886 50.9869 18.2928 50.915C18.3108 50.879 18.4784 51.0408 18.5024 51.0228C18.5682 51.0767 18.6041 51.1067 18.646 51.1186C18.7897 51.2325 18.8316 51.2385 18.9394 51.3223C18.8975 51.3223 18.9513 51.3463 18.9274 51.3643V51.3583Z" fill="white"/>
</g>
<defs>
<clipPath id="clip0_868_8559">
<rect width="45" height="44" fill="white" transform="translate(12 13)"/>
</clipPath>
</defs>
</svg>
