<svg width="70" height="70" viewBox="0 0 70 70" fill="none" xmlns="http://www.w3.org/2000/svg">
<g clip-path="url(#clip0_868_5690)">
<path fill-rule="evenodd" clip-rule="evenodd" d="M5.93511 37.9096C5.93511 37.9096 5.92849 37.9162 5.92188 37.9162C5.92188 37.9029 5.92849 37.8963 5.93511 37.9096Z" fill="white"/>
<path fill-rule="evenodd" clip-rule="evenodd" d="M5.75277 36.6445C5.75277 36.6445 5.74023 36.6635 5.74023 36.6445C5.7465 36.6445 5.7465 36.6445 5.75277 36.6445Z" fill="white"/>
<path fill-rule="evenodd" clip-rule="evenodd" d="M5.72738 36.6111H5.71484C5.71484 36.5984 5.72738 36.5984 5.72738 36.6111Z" fill="white"/>
<path fill-rule="evenodd" clip-rule="evenodd" d="M5.67074 36.8064C5.67074 36.8064 5.6582 36.8191 5.6582 36.8064C5.6582 36.7937 5.67074 36.8064 5.67074 36.8064Z" fill="white"/>
<path fill-rule="evenodd" clip-rule="evenodd" d="M5.64531 36.6055C5.64531 36.6055 5.6332 36.6176 5.62109 36.6176C5.62109 36.6055 5.6332 36.6055 5.64531 36.6055Z" fill="white"/>
<path fill-rule="evenodd" clip-rule="evenodd" d="M5.57632 37.599C5.57632 37.599 5.53936 37.618 5.5332 37.599C5.54552 37.6116 5.564 37.5927 5.57632 37.599Z" fill="white"/>
<path fill-rule="evenodd" clip-rule="evenodd" d="M5.54508 37.1626C5.54508 37.1626 5.50122 37.1626 5.48242 37.1752C5.48242 37.1499 5.51375 37.1752 5.51375 37.1563C5.51375 37.1563 5.52002 37.1562 5.52628 37.1689C5.52628 37.1689 5.53882 37.1499 5.54508 37.1689V37.1626Z" fill="white"/>
<path fill-rule="evenodd" clip-rule="evenodd" d="M5.35742 37.0977V37.1175C5.35742 37.1175 5.35742 37.1043 5.35742 37.0977C5.35742 37.0977 5.35742 37.0977 5.36404 37.0977H5.35742Z" fill="white"/>
<path fill-rule="evenodd" clip-rule="evenodd" d="M5.28283 37.25C5.28283 37.25 5.24523 37.269 5.22643 37.25C5.22643 37.25 5.22643 37.2627 5.22643 37.2563C5.22017 37.2563 5.1951 37.2563 5.2139 37.2563C5.23896 37.2437 5.25776 37.2563 5.28283 37.25Z" fill="white"/>
<path fill-rule="evenodd" clip-rule="evenodd" d="M5.27034 37.0237C5.27034 37.0237 5.26408 37.03 5.25781 37.03C5.25781 37.0174 5.27034 37.0174 5.27034 37.0237Z" fill="white"/>
<path fill-rule="evenodd" clip-rule="evenodd" d="M5.2509 37.6189C5.2509 37.6189 5.23858 37.6189 5.23242 37.6189C5.23242 37.6189 5.24474 37.6062 5.2509 37.6189Z" fill="white"/>
<path fill-rule="evenodd" clip-rule="evenodd" d="M5.25664 37.0977C5.25664 37.0977 5.23848 37.1037 5.23242 37.1158C5.23242 37.0977 5.24453 37.1037 5.25664 37.0977Z" fill="white"/>
<path fill-rule="evenodd" clip-rule="evenodd" d="M5.25078 37.0352C5.25078 37.0352 5.23867 37.0473 5.22656 37.0473C5.22656 37.0352 5.24472 37.0412 5.25078 37.0352Z" fill="white"/>
<path fill-rule="evenodd" clip-rule="evenodd" d="M5.23394 37.7266C5.23394 37.7266 5.22732 37.7398 5.2207 37.7465C5.2207 37.7332 5.22732 37.7332 5.23394 37.7266Z" fill="white"/>
<path fill-rule="evenodd" clip-rule="evenodd" d="M5.22641 37.6174C5.22641 37.6174 5.19561 37.6238 5.18945 37.6238C5.20177 37.6111 5.21409 37.6111 5.22641 37.6174Z" fill="white"/>
<path fill-rule="evenodd" clip-rule="evenodd" d="M5.22025 37.0505C5.22025 37.0505 5.19561 37.0505 5.18945 37.0505C5.20177 37.0379 5.21409 37.0632 5.22025 37.0505Z" fill="white"/>
<path fill-rule="evenodd" clip-rule="evenodd" d="M5.19426 37.2588C5.19426 37.2588 5.18194 37.2652 5.17578 37.2715C5.17578 37.2525 5.18194 37.2588 5.19426 37.2588Z" fill="white"/>
<path fill-rule="evenodd" clip-rule="evenodd" d="M5.17668 37.2127C5.17668 37.2127 5.17052 37.2127 5.1582 37.2127C5.1582 37.2 5.17052 37.2127 5.17668 37.2127Z" fill="white"/>
<path fill-rule="evenodd" clip-rule="evenodd" d="M5.15716 37.1578C5.15716 37.1578 5.13731 37.1711 5.14393 37.1445C5.14393 37.1445 5.14393 37.1512 5.14393 37.1578C5.14393 37.1578 5.14393 37.1512 5.15716 37.1578Z" fill="white"/>
<path fill-rule="evenodd" clip-rule="evenodd" d="M5.09453 37.6746C5.09453 37.6746 5.07637 37.6806 5.07031 37.6746C5.07031 37.6746 5.08847 37.6685 5.09453 37.6746Z" fill="white"/>
<path fill-rule="evenodd" clip-rule="evenodd" d="M5.0887 37.6992C5.0887 37.6992 5.07617 37.7119 5.07617 37.6992C5.07617 37.6992 5.08244 37.6992 5.0887 37.6992Z" fill="white"/>
<path fill-rule="evenodd" clip-rule="evenodd" d="M5.06987 37.9419C5.06987 37.9419 5.06326 37.9551 5.05664 37.9485C5.05664 37.9352 5.06987 37.9352 5.06987 37.9419Z" fill="white"/>
<path fill-rule="evenodd" clip-rule="evenodd" d="M5.46274 37.9281C5.46274 37.9281 5.45658 37.9345 5.45042 37.9471C5.45042 37.9281 5.43194 37.9471 5.42578 37.9345C5.4381 37.9155 5.44426 37.9345 5.46274 37.9281Z" fill="white"/>
<path fill-rule="evenodd" clip-rule="evenodd" d="M5.23811 37.535C5.23811 37.535 5.23811 37.5287 5.22558 37.535C5.22558 37.5287 5.22558 37.5287 5.22558 37.5224C5.21305 37.5224 5.21305 37.5224 5.20052 37.5224C5.20052 37.5224 5.20052 37.516 5.20052 37.5097C5.18799 37.535 5.17545 37.4971 5.15039 37.5097C5.17545 37.4844 5.22558 37.5034 5.24438 37.4971C5.24438 37.516 5.22558 37.4971 5.21932 37.516C5.21932 37.5287 5.23185 37.516 5.22558 37.5414L5.23811 37.535Z" fill="white"/>
<path fill-rule="evenodd" clip-rule="evenodd" d="M5.21935 37.1072C5.21935 37.1198 5.21319 37.1072 5.20703 37.1072C5.20703 37.0945 5.23783 37.1072 5.21935 37.1072Z" fill="white"/>
<path fill-rule="evenodd" clip-rule="evenodd" d="M5.06925 37.1561C5.06925 37.1561 5.06925 37.1434 5.06925 37.1371C5.05672 37.1371 5.03792 37.1371 5.02539 37.1245C5.03792 37.1118 5.07552 37.1434 5.08178 37.1118C5.08178 37.1118 5.08805 37.1118 5.09432 37.1245C5.13191 37.0928 5.16951 37.1245 5.2071 37.1055C5.1883 37.1561 5.15071 37.0865 5.13818 37.1371C5.11938 37.1371 5.09432 37.1245 5.06925 37.1561Z" fill="white"/>
<path fill-rule="evenodd" clip-rule="evenodd" d="M5.0894 37.7375C5.0894 37.7375 5.08279 37.7508 5.07617 37.7574C5.07617 37.7574 5.08279 37.7242 5.0894 37.7375Z" fill="white"/>
<path fill-rule="evenodd" clip-rule="evenodd" d="M9.07335 38.0678C9.07335 38.0678 9.09215 38.0488 9.09841 38.0488C9.12348 38.0488 9.14227 38.0678 9.16107 38.0551C9.17987 38.0488 9.19867 38.0235 9.21747 38.0172C9.23 38.0172 9.23626 38.0045 9.2488 37.9982C9.28013 37.9792 9.30519 37.9918 9.31772 37.9412C9.33652 37.9096 9.36158 37.8906 9.38038 37.8653C9.38038 37.8653 9.38665 37.8653 9.39291 37.8653C9.43677 37.7956 9.4681 37.6754 9.51823 37.6248C9.51823 37.5994 9.5245 37.5615 9.53703 37.5235C9.53703 37.5108 9.54956 37.4982 9.55583 37.4855C9.56836 37.4285 9.55583 37.3589 9.58089 37.3146C9.58089 37.302 9.58089 37.2956 9.58089 37.2893C9.58089 37.1754 9.57462 37.0804 9.58089 36.9918C9.56836 36.9412 9.56836 36.8779 9.55583 36.8336C9.54956 36.802 9.53703 36.7767 9.5245 36.745C9.51196 36.7134 9.5057 36.688 9.49317 36.6501C9.49317 36.6184 9.48063 36.6121 9.48063 36.5804C9.4681 36.5615 9.45557 36.5298 9.43677 36.5108C9.43677 36.4982 9.43677 36.4918 9.43677 36.4792C9.40544 36.4222 9.36785 36.3463 9.32399 36.3273C9.32399 36.3273 9.31145 36.3273 9.30519 36.3273C9.27386 36.3273 9.21747 36.3146 9.20493 36.2703C9.20493 36.2703 9.20493 36.2767 9.1924 36.2703C9.1924 36.2513 9.1736 36.207 9.15481 36.207C9.15481 36.207 9.14227 36.2387 9.12974 36.245C9.11095 36.2513 9.09841 36.2134 9.07962 36.2197C9.07335 36.2197 9.06708 36.2513 9.05455 36.2577C9.03575 36.2703 8.99816 36.2577 8.97936 36.2577C8.96683 36.2513 8.96056 36.226 8.9543 36.2323C8.94803 36.2323 8.94176 36.2577 8.94176 36.2956C8.9167 36.3716 8.84778 36.3146 8.81018 36.3463C8.77885 36.321 8.75379 36.3653 8.72872 36.3589C8.72872 36.3589 8.71619 36.3463 8.70993 36.3463C8.69739 36.3463 8.68486 36.3589 8.6786 36.3653C8.6598 36.3716 8.641 36.3716 8.6222 36.3842C8.59714 36.3399 8.57834 36.3906 8.55328 36.3842C8.54701 36.3842 8.53448 36.3716 8.52821 36.3716C8.52195 36.3716 8.51568 36.3842 8.50315 36.3842C8.49688 36.3842 8.48435 36.3716 8.47809 36.3716C8.47809 36.3716 8.46555 36.3779 8.45929 36.3779C8.45302 36.3779 8.44676 36.3653 8.44049 36.3653C8.43422 36.3653 8.42796 36.3842 8.41543 36.3842C8.39036 36.3906 8.35903 36.3716 8.33397 36.4096C8.29011 36.3779 8.24625 36.4285 8.18985 36.3969C8.17732 36.4032 8.16479 36.4096 8.15226 36.4032C8.15226 36.4032 8.15226 36.4159 8.14599 36.4159C8.11466 36.4032 8.0896 36.4412 8.05827 36.4222V36.4349C8.02067 36.4159 7.96428 36.4096 7.93295 36.4349C7.90789 36.4096 7.87656 36.4349 7.85149 36.4349C7.83896 36.4349 7.82016 36.4222 7.80763 36.4285C7.78257 36.4412 7.74497 36.4285 7.71991 36.4285C7.71364 36.4285 7.70738 36.4412 7.69484 36.4475C7.68231 36.4475 7.66978 36.4412 7.65098 36.4475C7.59459 36.4729 7.53193 36.4539 7.48807 36.4539C7.47554 36.4539 7.46301 36.4665 7.44421 36.4729C7.41914 36.4792 7.38781 36.4602 7.36275 36.4602C7.35648 36.4602 7.35022 36.4729 7.34395 36.4729C7.32515 36.4729 7.31262 36.4729 7.29383 36.4729C7.24996 36.4729 7.2061 36.4982 7.16851 36.4729C7.11838 36.5045 7.04319 36.4918 6.98053 36.4982C6.968 36.5235 6.95546 36.4982 6.94293 36.5045C6.89907 36.5172 6.84894 36.5425 6.79882 36.5235C6.61084 36.5678 6.41659 36.5488 6.22862 36.5994C6.21609 36.5804 6.19102 36.5931 6.17849 36.5994C6.17849 36.5868 6.16596 36.5868 6.15969 36.5868C6.13463 36.6184 6.10956 36.5868 6.07823 36.5994C6.07197 36.6311 6.05317 36.6058 6.04064 36.6311C6.04064 36.6121 6.0469 36.6184 6.04064 36.6058C6.02184 36.6564 5.95918 36.6374 5.92785 36.6501V36.6564C5.92159 36.6437 5.91532 36.6691 5.90905 36.6691C5.85893 36.6691 5.82133 36.726 5.77747 36.745C5.77747 36.7387 5.75867 36.7134 5.75241 36.7323C5.75867 36.7323 5.7712 36.7323 5.7712 36.7577C5.75867 36.7513 5.73987 36.7577 5.73361 36.7767C5.71481 36.7767 5.70854 36.764 5.69601 36.783V36.8083C5.67095 36.7956 5.65842 36.8146 5.63962 36.8083C5.63962 36.8273 5.60829 36.8336 5.60202 36.8273C5.59576 36.8336 5.60829 36.8463 5.60202 36.8526C5.58323 36.8589 5.56443 36.8653 5.54563 36.8526C5.54563 36.8653 5.53936 36.8779 5.5331 36.8779C5.5331 36.8779 5.5331 36.8589 5.5331 36.8653C5.52683 36.8779 5.5331 36.8842 5.5331 36.9032C5.52057 36.9096 5.52683 36.9222 5.52057 36.9349C5.50803 36.9222 5.4955 36.9475 5.48924 36.9539C5.47671 36.9602 5.46417 36.9539 5.45164 36.9602C5.43911 36.9602 5.43911 36.9792 5.42658 36.9792C5.41405 36.9792 5.40778 36.9602 5.40151 36.9665V36.9855C5.36392 36.9855 5.32632 36.9982 5.30126 37.0235C5.34512 36.9855 5.37018 37.0235 5.40778 36.9918C5.40778 37.0108 5.42658 36.9792 5.42658 37.0045C5.42658 36.9918 5.42658 36.9855 5.42658 36.9855C5.42658 36.9855 5.42658 36.9918 5.43284 36.9855C5.43284 37.0108 5.43284 37.0108 5.43284 37.0298C5.46417 37.0298 5.48924 37.0172 5.5143 37.0172C5.5143 37.0172 5.5143 37.0045 5.5143 36.9982C5.52683 36.9982 5.5331 36.9982 5.54563 36.9918C5.54563 37.0108 5.55816 37.0172 5.5519 37.0425C5.5143 37.0425 5.46417 37.0741 5.42658 37.0804C5.41405 37.0804 5.40151 37.0615 5.39525 37.0931C5.41405 37.0868 5.43284 37.1184 5.44538 37.1184C5.46417 37.1184 5.48924 37.0931 5.5143 37.0994C5.5143 37.0994 5.52057 37.1121 5.52683 37.1121C5.52683 37.1121 5.53936 37.0994 5.54563 37.0994C5.54563 37.0994 5.54563 37.1121 5.55816 37.1121C5.56443 37.1121 5.57696 37.0931 5.58323 37.0931C5.60202 37.0931 5.61456 37.1121 5.63335 37.1058C5.63335 37.1121 5.63335 37.1311 5.63335 37.1374C5.61456 37.1374 5.60829 37.1374 5.58323 37.1374C5.58323 37.1374 5.58323 37.1374 5.58323 37.1501C5.57696 37.1501 5.57696 37.1437 5.57069 37.1501C5.58949 37.1501 5.58323 37.1817 5.58323 37.2007C5.53936 37.2007 5.48924 37.2134 5.45791 37.2007C5.45791 37.2134 5.45791 37.226 5.44538 37.226C5.40778 37.2387 5.36392 37.226 5.32632 37.2387C5.37018 37.264 5.42031 37.2513 5.47671 37.2387C5.47671 37.2387 5.47671 37.2577 5.47671 37.2513C5.50177 37.2387 5.52683 37.245 5.54563 37.2387C5.5519 37.2577 5.56443 37.2767 5.57069 37.302C5.62709 37.283 5.67095 37.3653 5.72108 37.3653C5.72108 37.3779 5.72108 37.3842 5.72108 37.3906C5.72108 37.4032 5.71481 37.4159 5.70854 37.4285C5.70228 37.4285 5.68975 37.4349 5.68348 37.4285C5.63962 37.4665 5.57069 37.4412 5.5143 37.4665C5.50803 37.4918 5.5143 37.5045 5.5143 37.5235C5.53936 37.5361 5.56443 37.5045 5.59576 37.5361C5.60829 37.5868 5.59576 37.6248 5.57069 37.6311C5.5331 37.6311 5.47044 37.6311 5.44538 37.6248C5.33885 37.6564 5.22607 37.6437 5.11328 37.6691C5.17594 37.6817 5.23233 37.6501 5.28873 37.6691C5.28873 37.6564 5.28873 37.6564 5.28873 37.6564C5.34512 37.6564 5.40151 37.6564 5.45164 37.6437C5.47044 37.6754 5.50803 37.6437 5.5331 37.6691C5.5331 37.7197 5.5143 37.745 5.48924 37.7577C5.50803 37.7577 5.5331 37.7703 5.54563 37.7767C5.55816 37.7767 5.58323 37.764 5.59576 37.7767V37.7893H5.60829C5.61456 37.7893 5.61456 37.7767 5.62709 37.783C5.63962 37.783 5.63962 37.783 5.64589 37.7956C5.68975 37.802 5.72734 37.7893 5.7712 37.7956H5.78374V37.8083C5.78374 37.8083 5.78374 37.7956 5.78374 37.802C5.80253 37.802 5.82133 37.8083 5.83386 37.8083C5.87772 37.8083 5.92159 37.821 5.95918 37.8146C5.96545 37.8146 5.95918 37.8336 5.96545 37.8336C6.02184 37.8463 6.0845 37.8526 6.14716 37.8589C6.14716 37.8589 6.14716 37.8779 6.15343 37.8779C6.15969 37.8779 6.15969 37.8589 6.16596 37.8589C6.16596 37.8589 6.17222 37.8716 6.17849 37.8842C6.24741 37.9032 6.32261 37.8842 6.3978 37.8779C6.46672 37.8716 6.53565 37.8716 6.59831 37.8653C6.64843 37.8653 6.69856 37.8399 6.74242 37.8589C6.80508 37.8463 6.85521 37.8463 6.9116 37.8399C6.95546 37.8399 6.99933 37.8463 7.03066 37.8399C7.03066 37.8399 7.04319 37.8273 7.04945 37.8273C7.06199 37.8273 7.06825 37.8399 7.08078 37.8399C7.11211 37.8399 7.13718 37.821 7.16851 37.821C7.19984 37.821 7.23117 37.821 7.2625 37.821C7.28129 37.821 7.30009 37.8083 7.31262 37.8083C7.32515 37.8083 7.33769 37.821 7.35022 37.821C7.38155 37.821 7.41914 37.802 7.45047 37.802C7.49433 37.802 7.5382 37.8273 7.58206 37.802C7.63219 37.8146 7.68858 37.8146 7.73244 37.802C7.77004 37.8399 7.80763 37.802 7.85149 37.8083C7.85149 37.8083 7.85776 37.8146 7.86402 37.821C7.92668 37.8463 7.99561 37.802 8.052 37.821C8.0708 37.7956 8.0896 37.821 8.1084 37.8273C8.12719 37.8273 8.14599 37.8146 8.16479 37.8146C8.16479 37.8146 8.17732 37.821 8.18359 37.8273C8.20239 37.8273 8.22118 37.8146 8.23998 37.8146C8.27131 37.8146 8.30264 37.8526 8.34024 37.8273C8.3653 37.8463 8.40916 37.8653 8.44049 37.8399C8.49062 37.8716 8.54701 37.8399 8.6034 37.8526C8.6222 37.8526 8.641 37.8842 8.6598 37.8589C8.6786 37.8842 8.70366 37.8716 8.72246 37.8716C8.74752 37.8716 8.77258 37.8906 8.79138 37.8969C8.82898 37.9032 8.86657 37.8842 8.89164 37.9349C8.90417 38.0361 8.92923 37.8842 8.9543 37.9096C8.96683 37.9285 8.96683 37.9602 8.97309 37.9982C8.98563 38.0108 8.99816 37.9982 9.01069 37.9982C9.02322 38.0108 9.03575 38.0551 9.05455 38.0551L9.07335 38.0678ZM5.58323 36.9539V36.9475C5.58323 36.9286 5.59576 36.9602 5.58323 36.9539ZM5.58323 36.9602C5.58323 36.9602 5.54563 36.9855 5.5331 36.9602C5.5331 36.9602 5.5331 36.9855 5.5331 36.9918C5.52683 36.9792 5.52057 36.9729 5.50803 36.9729C5.50803 36.9349 5.5331 36.9602 5.5331 36.9222C5.53936 36.9222 5.54563 36.9222 5.5519 36.9096C5.57069 36.9222 5.57696 36.8969 5.58949 36.9096C5.58949 36.9285 5.58949 36.9286 5.58949 36.9475L5.58323 36.9602Z" fill="white"/>
<path fill-rule="evenodd" clip-rule="evenodd" d="M12.2006 39.6202C12.2006 39.6202 12.1567 39.6265 12.1191 39.6265C12.1191 39.6139 12.1693 39.6075 12.2006 39.6202Z" fill="white"/>
<path fill-rule="evenodd" clip-rule="evenodd" d="M11.009 38.3516C11.009 38.3516 10.9474 38.3705 10.9536 38.3516C10.9782 38.3516 10.9905 38.3516 11.009 38.3516Z" fill="white"/>
<path fill-rule="evenodd" clip-rule="evenodd" d="M10.9324 38.3298C10.9324 38.3298 10.8954 38.3298 10.877 38.3298C10.877 38.3171 10.9201 38.3171 10.9324 38.3298Z" fill="white"/>
<path fill-rule="evenodd" clip-rule="evenodd" d="M10.7078 38.5173C10.7078 38.5173 10.6647 38.53 10.6523 38.5173C10.6523 38.5047 10.6893 38.5173 10.7078 38.5173Z" fill="white"/>
<path fill-rule="evenodd" clip-rule="evenodd" d="M10.6077 38.3164C10.6077 38.3164 10.5575 38.3291 10.5137 38.3291C10.5262 38.3164 10.5763 38.3164 10.6077 38.3164Z" fill="white"/>
<path fill-rule="evenodd" clip-rule="evenodd" d="M10.3262 39.3099C10.2761 39.3099 10.1759 39.3289 10.1445 39.3099C10.2009 39.3226 10.2698 39.3036 10.3262 39.3099Z" fill="white"/>
<path fill-rule="evenodd" clip-rule="evenodd" d="M10.1949 38.8774C10.1322 38.9027 10.0257 38.8774 9.94424 38.8901C9.93171 38.8648 10.057 38.8901 10.0821 38.8711C10.1009 38.8711 10.1134 38.8711 10.1322 38.8838C10.151 38.8838 10.1761 38.8648 10.1949 38.8838V38.8774Z" fill="white"/>
<path fill-rule="evenodd" clip-rule="evenodd" d="M9.44877 38.8086C9.44877 38.8086 9.44877 38.8276 9.42413 38.8276C9.42413 38.8276 9.41797 38.8149 9.41797 38.8086H9.44877Z" fill="white"/>
<path fill-rule="evenodd" clip-rule="evenodd" d="M9.13568 38.9688C9.08555 38.9877 8.97277 38.9877 8.91011 38.9688C8.90384 38.9688 8.90384 38.9814 8.88504 38.9751C8.84745 38.9751 8.76599 38.9751 8.84745 38.9751C8.9477 38.9624 9.02289 38.9751 9.13568 38.9688Z" fill="white"/>
<path fill-rule="evenodd" clip-rule="evenodd" d="M9.09645 38.7346C9.09645 38.7346 9.06565 38.741 9.04102 38.741C9.04102 38.7283 9.09029 38.7283 9.09645 38.7346Z" fill="white"/>
<path fill-rule="evenodd" clip-rule="evenodd" d="M9.024 39.3338C9.024 39.3338 8.97388 39.3338 8.95508 39.3338C8.97388 39.3338 9.01147 39.3211 9.024 39.3338Z" fill="white"/>
<path fill-rule="evenodd" clip-rule="evenodd" d="M9.04187 38.8164C9.04187 38.8164 8.97921 38.8227 8.95415 38.8354C8.93535 38.8164 9.01054 38.8227 9.04187 38.8164Z" fill="white"/>
<path fill-rule="evenodd" clip-rule="evenodd" d="M9.00415 38.7461C9.00415 38.7461 8.94149 38.7588 8.91016 38.7588C8.92895 38.7461 8.97282 38.7524 9.00415 38.7461Z" fill="white"/>
<path fill-rule="evenodd" clip-rule="evenodd" d="M8.94606 39.4414C8.94606 39.4414 8.91526 39.4541 8.89062 39.4604C8.89062 39.4477 8.92758 39.4477 8.94606 39.4414Z" fill="white"/>
<path fill-rule="evenodd" clip-rule="evenodd" d="M8.91096 39.3284C8.91096 39.3284 8.79817 39.3347 8.74805 39.3347C8.80444 39.322 8.8483 39.322 8.91096 39.3284Z" fill="white"/>
<path fill-rule="evenodd" clip-rule="evenodd" d="M8.89176 38.7576C8.8479 38.7765 8.7915 38.7576 8.75391 38.7576C8.7915 38.7449 8.8479 38.7702 8.89176 38.7576Z" fill="white"/>
<path fill-rule="evenodd" clip-rule="evenodd" d="M8.78532 38.9737C8.78532 38.9737 8.74145 38.98 8.72266 38.9863C8.72266 38.9673 8.76025 38.9737 8.78532 38.9737Z" fill="white"/>
<path fill-rule="evenodd" clip-rule="evenodd" d="M8.71696 38.9236C8.71696 38.9236 8.67936 38.9236 8.6543 38.9236C8.66056 38.9109 8.69816 38.9236 8.71696 38.9236Z" fill="white"/>
<path fill-rule="evenodd" clip-rule="evenodd" d="M8.64678 38.872C8.64678 38.872 8.57902 38.8847 8.59134 38.8594C8.60982 38.8594 8.60366 38.8657 8.60366 38.872C8.62214 38.872 8.62214 38.8657 8.64062 38.872H8.64678Z" fill="white"/>
<path fill-rule="evenodd" clip-rule="evenodd" d="M8.47852 39.2211C8.58323 39.2337 8.51547 39.2021 8.47852 39.2211Z" fill="white"/>
<path fill-rule="evenodd" clip-rule="evenodd" d="M8.38972 39.3856C8.35839 39.392 8.32706 39.392 8.2832 39.3856C8.30827 39.3856 8.37093 39.3793 8.38972 39.3856Z" fill="white"/>
<path fill-rule="evenodd" clip-rule="evenodd" d="M8.36511 39.4102C8.36511 39.4102 8.31583 39.4228 8.32815 39.4102H8.36511Z" fill="white"/>
<path fill-rule="evenodd" clip-rule="evenodd" d="M8.28981 39.6526C8.28981 39.6526 8.25285 39.6653 8.23438 39.6589C8.23438 39.6463 8.28365 39.6463 8.28981 39.6526Z" fill="white"/>
<path fill-rule="evenodd" clip-rule="evenodd" d="M8.06967 39.6328C8.00192 39.6518 7.98344 39.6328 8.06967 39.6328Z" fill="white"/>
<path fill-rule="evenodd" clip-rule="evenodd" d="M9.86287 39.6391C9.86287 39.6391 9.83154 39.6454 9.819 39.6581C9.79394 39.6391 9.75008 39.6581 9.71875 39.6454C9.76261 39.6264 9.80647 39.6454 9.86287 39.6391Z" fill="white"/>
<path fill-rule="evenodd" clip-rule="evenodd" d="M8.97345 39.2538C8.97345 39.2538 8.95465 39.2474 8.93586 39.2538C8.93586 39.2474 8.94212 39.2474 8.94212 39.2411C8.90453 39.2411 8.87946 39.2411 8.84813 39.2411C8.84813 39.2411 8.8544 39.2348 8.8544 39.2285C8.81054 39.2538 8.75415 39.2158 8.66016 39.2285C8.74788 39.2031 8.94839 39.2221 9.02985 39.2158C9.01731 39.2348 8.94839 39.2158 8.94212 39.2348C8.94212 39.2474 8.98598 39.2348 8.97345 39.2601V39.2538Z" fill="white"/>
<path fill-rule="evenodd" clip-rule="evenodd" d="M8.89111 38.822C8.89111 38.8347 8.85352 38.822 8.85352 38.822C8.86605 38.8094 8.9663 38.822 8.89111 38.822Z" fill="white"/>
<path fill-rule="evenodd" clip-rule="evenodd" d="M8.29613 38.8709V38.852C8.24601 38.852 8.16455 38.852 8.12695 38.8393C8.18961 38.8266 8.31493 38.8583 8.35879 38.8266C8.37759 38.8266 8.37759 38.8266 8.39639 38.8393C8.53424 38.8077 8.69089 38.8393 8.835 38.8203C8.77234 38.8709 8.62196 38.8013 8.54677 38.852C8.53424 38.852 8.54677 38.852 8.55304 38.852C8.49038 38.852 8.37132 38.8393 8.28987 38.8709H8.29613Z" fill="white"/>
<path fill-rule="evenodd" clip-rule="evenodd" d="M8.34488 39.4483C8.34488 39.4483 8.30793 39.461 8.29561 39.4673C8.28945 39.4673 8.3264 39.4356 8.34488 39.4483Z" fill="white"/>
<path fill-rule="evenodd" clip-rule="evenodd" d="M19.9821 36.8724C19.9821 36.8724 20.026 36.9167 20.0448 36.9484C20.0824 37.0117 20.0949 37.0749 20.1325 37.1446C20.1638 37.2015 20.2139 37.2458 20.2453 37.3091C20.2641 37.3344 20.2829 37.3661 20.3017 37.3977C20.3518 37.4863 20.3706 37.5686 20.4333 37.5939C20.4896 37.6509 20.5272 37.7332 20.5774 37.7838C20.5836 37.7901 20.5899 37.8155 20.5899 37.8155C20.7027 37.9484 20.8405 38.0243 20.9283 38.2079C20.9596 38.2205 20.9972 38.2268 21.0348 38.2522C21.0536 38.2648 21.0661 38.2965 21.0849 38.3028C21.1476 38.3344 21.2165 38.2901 21.2666 38.3598C21.2792 38.3598 21.2854 38.3471 21.2917 38.3408C21.4045 38.3344 21.4922 38.2838 21.5799 38.2965C21.6238 38.2268 21.6802 38.2332 21.724 38.1762C21.7491 38.1446 21.7679 38.0813 21.7867 38.037C21.8118 37.9863 21.8243 37.9357 21.8494 37.8914C21.8807 37.8851 21.8807 37.8281 21.8995 37.8091C21.8995 37.7395 21.9183 37.6825 21.9245 37.6066C21.9371 37.6003 21.9371 37.5813 21.9496 37.5749C21.9684 37.4167 21.9935 37.2458 21.9496 37.0433C21.9433 37.018 21.9308 36.98 21.9245 36.961C21.8744 36.8155 21.793 36.5876 21.7992 36.499C21.793 36.4737 21.7804 36.4737 21.7742 36.4484C21.7867 36.4231 21.7867 36.3281 21.7554 36.2648C21.7428 36.2395 21.7052 36.2142 21.6676 36.1699C21.6238 36.1003 21.6175 36.0117 21.5737 35.9547C21.5549 35.923 21.5173 35.9104 21.4922 35.8787C21.4358 35.8028 21.3418 35.6446 21.3042 35.5749C21.2729 35.518 21.2792 35.4863 21.2478 35.4547C21.2228 35.4231 21.1852 35.4104 21.1601 35.4357C21.0411 35.3787 20.8781 35.1066 20.7278 34.9863C20.6651 34.8598 20.5272 34.8091 20.4333 34.7142C20.4145 34.6952 20.3957 34.6699 20.3769 34.6509C20.3455 34.6193 20.2891 34.5939 20.2453 34.556C20.1701 34.4927 20.0949 34.442 20.026 34.4041C19.9508 34.2965 19.8443 34.2838 19.7565 34.2205C19.7252 34.1952 19.7001 34.1636 19.6625 34.1382C19.6312 34.1193 19.5936 34.1066 19.556 34.0876C19.5184 34.0686 19.4934 34.037 19.4558 34.018C19.4307 34.0053 19.4056 33.999 19.3868 33.9927C19.3618 33.98 19.3493 33.961 19.3179 33.942C19.2866 33.9294 19.249 33.9294 19.2177 33.9167C19.0986 33.8661 18.9858 33.7775 18.8605 33.7775C18.6663 33.6825 18.4783 33.6572 18.2402 33.556C18.1775 33.556 18.1337 33.556 18.071 33.5306C18.0585 33.5306 18.0522 33.5433 18.0334 33.5306C17.9081 33.4927 17.7702 33.5053 17.6387 33.461C17.6387 33.461 17.6261 33.4674 17.6199 33.4737C17.4444 33.4041 17.2126 33.4104 17.0685 33.423C16.9619 33.3914 16.8303 33.4104 16.6988 33.4041C16.6361 33.4041 16.5734 33.3914 16.5108 33.4041C16.3917 33.4231 16.2351 33.4167 16.1223 33.4357C16.091 33.4357 16.0596 33.4547 16.022 33.461C15.9656 33.4674 15.8967 33.461 15.8341 33.4737C15.3767 33.5686 15.2764 33.5939 15.0947 33.6319C15.0258 33.6509 14.9756 33.6699 14.9067 33.7015C14.7877 33.7522 14.6561 33.7775 14.5433 33.8344C14.5308 33.8408 14.4744 33.8724 14.4618 33.8787C14.3929 33.9104 14.3177 33.9294 14.2488 33.9674C14.0733 34.0686 13.9167 34.1889 13.7412 34.2712C13.5595 34.4294 13.2776 34.6382 13.0896 34.8408C13.0645 34.9041 13.0081 34.9294 12.9705 34.98C12.8327 35.1256 12.7011 35.3344 12.5695 35.4927C12.1058 36.2079 11.7612 37.0243 11.6359 37.8218C11.6046 37.8724 11.592 37.9863 11.5983 38.018C11.5858 38.018 11.5858 38.037 11.5795 38.0433C11.5983 38.0939 11.567 38.1382 11.567 38.1889C11.592 38.2205 11.567 38.2395 11.5858 38.2775C11.5732 38.2775 11.5732 38.2522 11.567 38.2648C11.5858 38.2901 11.5858 38.3281 11.592 38.3598C11.5732 38.3977 11.4855 38.3661 11.4604 38.3851C11.4604 38.3851 11.473 38.3914 11.4604 38.3914C11.4416 38.3787 11.4479 38.4041 11.4291 38.4041C11.3101 38.4041 11.2913 38.461 11.1096 38.48C11.0845 38.4737 11.0281 38.4484 11.0093 38.4674C11.0406 38.4674 11.0845 38.4674 11.0782 38.4927C11.0218 38.4863 10.9529 38.4927 10.9153 38.5117C10.8464 38.5117 10.8151 38.499 10.7524 38.518C10.7399 38.518 10.7649 38.5433 10.7336 38.5433C10.6396 38.5306 10.5957 38.5496 10.508 38.5433C10.483 38.5623 10.3827 38.5686 10.3576 38.5623C10.3326 38.5686 10.389 38.5813 10.3639 38.5876C10.2887 38.5939 10.2198 38.6003 10.1509 38.5876C10.1321 38.6003 10.1195 38.6129 10.0945 38.6129C10.0757 38.6129 10.0945 38.5939 10.0694 38.6003C10.0443 38.6129 10.0882 38.6193 10.0819 38.6382C10.0443 38.6446 10.0506 38.6572 10.0318 38.6699C9.98168 38.6572 9.94409 38.6825 9.89396 38.6889C9.84383 38.6952 9.78744 38.6889 9.74358 38.6952C9.69972 38.6952 9.68719 38.7142 9.63706 38.7142C9.59946 38.7142 9.56813 38.6952 9.52427 38.7015C9.49921 38.7015 9.5368 38.7205 9.50547 38.7205C9.36136 38.7205 9.21098 38.7332 9.10446 38.7585C9.27364 38.7205 9.39269 38.7585 9.5368 38.7268C9.56187 38.7458 9.59946 38.7142 9.62453 38.7395C9.63706 38.7268 9.59946 38.7205 9.63079 38.7205C9.64332 38.7205 9.64332 38.7268 9.66212 38.7205C9.64332 38.7458 9.67465 38.7458 9.68719 38.7648C9.79371 38.7648 9.92529 38.7522 10.013 38.7522C10.0318 38.7522 10.0005 38.7395 10.0193 38.7332C10.0631 38.7332 10.0882 38.7332 10.1383 38.7268C10.1509 38.7458 10.1822 38.7522 10.1697 38.7775C10.0255 38.7775 9.8313 38.8091 9.65586 38.8155C9.60573 38.8155 9.54934 38.7965 9.51801 38.8281C9.5932 38.8218 9.65586 38.8534 9.72478 38.8534C9.8125 38.8534 9.90649 38.8281 9.98795 38.8344C10.013 38.8344 10.0193 38.8471 10.0443 38.8471C10.0631 38.8471 10.0882 38.8344 10.107 38.8344C10.1258 38.8344 10.1258 38.8471 10.1446 38.8471C10.1822 38.8471 10.2073 38.8281 10.2511 38.8281C10.32 38.8281 10.3827 38.8471 10.4579 38.8408C10.4704 38.8471 10.4642 38.8661 10.4454 38.8724C10.3576 38.8724 10.3451 38.8724 10.2511 38.8724C10.2637 38.8724 10.2699 38.8724 10.2637 38.8851C10.2386 38.8851 10.2261 38.8787 10.2073 38.8851C10.2762 38.8851 10.2699 38.9167 10.2449 38.9357C10.0819 38.9357 9.87516 38.9484 9.74358 38.9357C9.73105 38.9484 9.71852 38.961 9.69345 38.961C9.47414 38.961 9.43028 38.961 9.20471 38.9737C9.39269 38.999 9.58693 38.9863 9.80624 38.9737C9.81251 38.9737 9.80624 38.9927 9.8313 38.9863C9.92529 38.9737 10.0318 38.98 10.1007 38.9737L10.1947 39.037C10.4203 39.018 10.5895 39.1003 10.8088 39.1003C10.8088 39.1129 10.8276 39.1193 10.8339 39.1256C10.8151 39.1382 10.8025 39.1509 10.7837 39.1636C10.7461 39.1636 10.7085 39.1699 10.6772 39.1636C10.4955 39.2015 10.2323 39.1762 10.0067 39.2015C9.98168 39.2268 10.0067 39.2395 10.0193 39.2585C10.1321 39.2712 10.2323 39.2395 10.3451 39.2712C10.389 39.3218 10.3451 39.3598 10.2511 39.3661C10.1007 39.3661 9.84383 39.3661 9.74985 39.3598C9.31123 39.3914 8.87888 39.3787 8.42773 39.4041C8.67837 39.4167 8.91021 39.3851 9.12952 39.4041C9.12952 39.3914 9.13578 39.3914 9.15458 39.3914C9.37389 39.3914 9.61826 39.3914 9.8125 39.3787C9.89396 39.4104 10.0506 39.3787 10.1321 39.4041C10.1133 39.4547 10.0443 39.48 9.96289 39.4927C10.0506 39.4927 10.1321 39.5053 10.201 39.5117C10.2574 39.5117 10.3639 39.499 10.3952 39.5117C10.4015 39.5117 10.389 39.5243 10.4015 39.5243C10.3764 39.5243 10.4454 39.5243 10.4516 39.5243C10.483 39.5243 10.4767 39.5117 10.5143 39.518C10.5644 39.518 10.5644 39.518 10.5957 39.5306C10.7649 39.537 10.9278 39.5243 11.097 39.5306C11.1221 39.5306 11.1409 39.5306 11.1534 39.5306C11.1722 39.5306 11.1534 39.5433 11.1785 39.5433C11.1973 39.5433 11.191 39.5306 11.2161 39.537C11.3539 39.537 11.4792 39.537 11.5732 39.5433C11.8615 39.5433 12.1998 39.5433 12.4379 39.5496C12.4943 39.5496 12.4379 39.5686 12.5069 39.5686C12.5507 39.5686 12.5946 39.5686 12.6384 39.5686C12.676 39.1952 12.7074 38.7775 12.7763 38.3851C12.7826 38.3534 12.7951 38.3851 12.8014 38.3344C12.8139 38.2712 12.7888 38.2775 12.8014 38.2522C12.8139 38.2395 12.8202 38.2205 12.8327 38.2142C12.9016 37.961 12.9517 37.7079 13.0332 37.4547C13.1021 37.2205 13.2086 37.0053 13.3026 36.7965C13.3904 36.6446 13.4467 36.48 13.5533 36.3598C13.6598 36.1825 13.7663 36.0306 13.9042 35.8977C13.9919 35.7901 14.1109 35.6889 14.1987 35.6193C14.2112 35.6066 14.2237 35.5813 14.2425 35.5686C14.2676 35.5433 14.3052 35.537 14.3302 35.5117C14.3992 35.4484 14.4744 35.3851 14.5558 35.3408L14.8252 35.1889C14.8754 35.1636 14.9255 35.1319 14.9819 35.1129C15.0195 35.1003 15.0634 35.0939 15.0947 35.0813C15.2012 35.0433 15.2952 34.9674 15.408 34.9547C15.5521 34.9294 15.7025 34.9167 15.8403 34.8661C16.0032 34.8408 16.21 34.8471 16.3667 34.8218C16.4983 34.8471 16.6298 34.7965 16.7802 34.8218C16.799 34.8218 16.8053 34.8344 16.8241 34.8344C17.0434 34.8787 17.3066 34.8281 17.4757 34.8977C17.5447 34.8851 17.5948 34.9231 17.6575 34.942C17.7201 34.961 17.789 34.9547 17.8517 34.9674C17.8705 34.9674 17.8893 34.98 17.9081 34.9927C17.9645 35.018 18.0334 35.0243 18.0961 35.0433C18.1963 35.0749 18.2903 35.1446 18.4156 35.1636C18.4908 35.2205 18.6036 35.3028 18.7039 35.3281C18.8542 35.4231 19.0046 35.5117 19.1487 35.6256C19.1989 35.6636 19.2239 35.7142 19.2803 35.7458C19.3117 35.8091 19.3743 35.8471 19.4307 35.9041C19.4871 35.9547 19.5372 36.018 19.5811 36.0876C19.65 36.1825 19.7628 36.2712 19.7753 36.3724C19.7127 36.4674 19.8819 36.4357 19.9132 36.5306C19.9257 36.5813 19.8944 36.5939 19.8756 36.6319C19.8881 36.6762 19.9195 36.7015 19.9445 36.7332C19.957 36.7838 19.9382 36.8344 19.9696 36.8914L19.9821 36.8724ZM10.3451 38.6636C10.3451 38.6636 10.3451 38.6572 10.3388 38.6572C10.3576 38.6382 10.3952 38.6699 10.3451 38.6636ZM10.3263 38.6699C10.2574 38.6699 10.1697 38.6952 10.1195 38.6699C10.107 38.6699 10.1321 38.6952 10.107 38.7015C10.0757 38.6889 10.0443 38.6825 9.99422 38.6825C9.99422 38.6446 10.0882 38.6699 10.0945 38.6319C10.1321 38.6319 10.1509 38.6319 10.1697 38.6193C10.2449 38.6319 10.2637 38.6066 10.32 38.6193C10.3075 38.6382 10.3326 38.6382 10.32 38.6572L10.3263 38.6699Z" fill="white"/>
<path fill-rule="evenodd" clip-rule="evenodd" d="M22.5627 28.6758C22.5627 28.6758 22.538 28.7201 22.5195 28.7517C22.5195 28.7391 22.5319 28.6948 22.5627 28.6758Z" fill="white"/>
<path fill-rule="evenodd" clip-rule="evenodd" d="M20.7898 29.2734C20.7898 29.2734 20.7529 29.3937 20.7344 29.3747C20.7529 29.3241 20.7713 29.3114 20.7898 29.2734Z" fill="white"/>
<path fill-rule="evenodd" clip-rule="evenodd" d="M20.6957 29.3984C20.6957 29.3984 20.6649 29.4681 20.6526 29.4997C20.6403 29.4934 20.6834 29.4111 20.6957 29.3984Z" fill="white"/>
<path fill-rule="evenodd" clip-rule="evenodd" d="M20.6776 29.8906C20.6776 29.8906 20.6591 29.9729 20.6406 29.9919C20.6406 29.9792 20.6714 29.9223 20.6776 29.8906Z" fill="white"/>
<path fill-rule="evenodd" clip-rule="evenodd" d="M20.4142 30C20.4142 30.038 20.3892 30.1013 20.3516 30.1835C20.3516 30.1519 20.3892 30.0633 20.4142 30Z" fill="white"/>
<path fill-rule="evenodd" clip-rule="evenodd" d="M21.1234 30.875C21.092 30.9636 21.0356 31.1408 20.998 31.1978C21.0419 31.0965 21.0732 30.9699 21.1234 30.875Z" fill="white"/>
<path fill-rule="evenodd" clip-rule="evenodd" d="M20.6288 30.957C20.6163 31.0773 20.516 31.2672 20.4847 31.4191C20.4597 31.4317 20.5536 31.2102 20.5536 31.1596C20.5662 31.1406 20.5787 31.1089 20.5912 31.0773C20.6038 31.0393 20.6038 30.995 20.6288 30.957Z" fill="white"/>
<path fill-rule="evenodd" clip-rule="evenodd" d="M20.1396 32.3242C20.1396 32.3242 20.1581 32.3369 20.1396 32.3749C20.1334 32.3875 20.1273 32.3875 20.1211 32.3812L20.1396 32.3242Z" fill="white"/>
<path fill-rule="evenodd" clip-rule="evenodd" d="M20.1398 32.9492C20.1398 33.0442 20.0959 33.2593 20.0583 33.3733C20.0583 33.3923 20.0646 33.3923 20.0583 33.4239C20.0458 33.4935 20.0082 33.6518 20.0395 33.4999C20.0583 33.31 20.1084 33.1644 20.146 32.9555L20.1398 32.9492Z" fill="white"/>
<path fill-rule="evenodd" clip-rule="evenodd" d="M19.9066 32.9688C19.9066 32.9688 19.9066 33.032 19.8943 33.0763C19.8881 33.0637 19.9004 32.9814 19.9066 32.9688Z" fill="white"/>
<path fill-rule="evenodd" clip-rule="evenodd" d="M20.4524 33.2422C20.4524 33.2422 20.4339 33.3371 20.4277 33.3751C20.4277 33.3435 20.4339 33.2738 20.4524 33.2422Z" fill="white"/>
<path fill-rule="evenodd" clip-rule="evenodd" d="M19.9565 33.1016C19.9565 33.1395 19.9381 33.2281 19.9381 33.2724C19.9134 33.3104 19.9504 33.1585 19.9565 33.1016Z" fill="white"/>
<path fill-rule="evenodd" clip-rule="evenodd" d="M19.8762 33.1602C19.8824 33.1918 19.8577 33.2804 19.8516 33.35C19.8516 33.3057 19.87 33.2234 19.8762 33.1602Z" fill="white"/>
<path fill-rule="evenodd" clip-rule="evenodd" d="M20.527 33.4062C20.527 33.4062 20.527 33.4695 20.527 33.5138C20.5146 33.5012 20.527 33.4442 20.527 33.4062Z" fill="white"/>
<path fill-rule="evenodd" clip-rule="evenodd" d="M20.4087 33.4414C20.4087 33.492 20.3779 33.6566 20.3594 33.7389C20.3717 33.6313 20.384 33.5553 20.4087 33.4414Z" fill="white"/>
<path fill-rule="evenodd" clip-rule="evenodd" d="M19.8442 33.375C19.8442 33.4573 19.8134 33.5712 19.7949 33.6345C19.7949 33.5585 19.838 33.4573 19.8442 33.375Z" fill="white"/>
<path fill-rule="evenodd" clip-rule="evenodd" d="M20.0143 33.6133C20.0143 33.6133 20.0081 33.6956 20.002 33.7399C19.9835 33.7399 20.002 33.6639 20.0143 33.6133Z" fill="white"/>
<path fill-rule="evenodd" clip-rule="evenodd" d="M19.9455 33.7422C19.9455 33.7802 19.9455 33.8118 19.927 33.8624C19.9209 33.8498 19.9393 33.7738 19.9455 33.7422Z" fill="white"/>
<path fill-rule="evenodd" clip-rule="evenodd" d="M19.8703 33.8594C19.8703 33.8594 19.8642 33.9923 19.8457 33.967C19.8457 33.9353 19.858 33.9417 19.8642 33.9417C19.8703 33.9037 19.8642 33.9037 19.8703 33.8657V33.8594Z" fill="white"/>
<path fill-rule="evenodd" clip-rule="evenodd" d="M20.1588 34.2344C20.1958 34.0318 20.1527 34.1584 20.1588 34.2344Z" fill="white"/>
<path fill-rule="evenodd" clip-rule="evenodd" d="M20.3017 34.4258C20.3017 34.4891 20.2955 34.546 20.2832 34.622C20.2832 34.5777 20.2955 34.4574 20.3017 34.4258Z" fill="white"/>
<path fill-rule="evenodd" clip-rule="evenodd" d="M20.3209 34.4766C20.3209 34.4766 20.3209 34.5778 20.3086 34.5525L20.3209 34.4766Z" fill="white"/>
<path fill-rule="evenodd" clip-rule="evenodd" d="M20.5406 34.6406C20.5406 34.6406 20.5406 34.7102 20.5406 34.7419C20.5283 34.7292 20.5406 34.6533 20.5406 34.6406Z" fill="white"/>
<path fill-rule="evenodd" clip-rule="evenodd" d="M20.4782 35.0391C20.4905 35.153 20.4658 35.1783 20.4782 35.0391Z" fill="white"/>
<path fill-rule="evenodd" clip-rule="evenodd" d="M21.149 31.7993C21.149 31.7993 21.1427 31.8563 21.149 31.8752C21.1177 31.9132 21.1114 31.9955 21.0801 32.0525C21.0801 31.9765 21.1302 31.9069 21.149 31.793V31.7993Z" fill="white"/>
<path fill-rule="evenodd" clip-rule="evenodd" d="M20.3531 33.3156C20.3531 33.3535 20.3406 33.3472 20.3343 33.3852C20.328 33.3852 20.3343 33.3662 20.3218 33.3662C20.303 33.4421 20.303 33.4801 20.2904 33.5434C20.2904 33.5371 20.2904 33.5244 20.2779 33.5244C20.2842 33.613 20.2278 33.7016 20.209 33.8852C20.209 33.7143 20.303 33.3409 20.328 33.1953C20.3406 33.2206 20.2967 33.3472 20.3155 33.3662C20.328 33.3725 20.3343 33.2839 20.3531 33.3156Z" fill="white"/>
<path fill-rule="evenodd" clip-rule="evenodd" d="M19.9016 33.3921C19.9078 33.3985 19.8893 33.4618 19.8893 33.4681C19.8831 33.4491 19.9262 33.2466 19.9016 33.3921Z" fill="white"/>
<path fill-rule="evenodd" clip-rule="evenodd" d="M19.7697 34.5374H19.7509C19.7384 34.6324 19.7258 34.7906 19.707 34.8539C19.707 34.7336 19.7634 34.4931 19.7446 34.4045C19.7509 34.3729 19.7572 34.3665 19.7634 34.3286C19.776 34.0501 19.8511 33.7653 19.8887 33.4805C19.9075 33.6134 19.7948 33.8919 19.8261 34.0374C19.8261 34.0627 19.8261 34.0374 19.8261 34.0184C19.8073 34.145 19.7634 34.3665 19.776 34.5311L19.7697 34.5374Z" fill="white"/>
<path fill-rule="evenodd" clip-rule="evenodd" d="M20.3527 34.5117C20.3527 34.5117 20.3527 34.575 20.3527 34.6067C20.3527 34.6193 20.3281 34.5434 20.3527 34.5117Z" fill="white"/>
<path fill-rule="evenodd" clip-rule="evenodd" d="M40.1969 31.7595C40.2157 31.8228 40.2595 31.8861 40.2783 31.9494C40.3285 32.1013 40.3535 32.2468 40.4099 32.3987C40.4538 32.538 40.5164 32.6582 40.5603 32.8038C40.5854 32.8797 40.6042 32.943 40.6292 33.0127C40.6982 33.2215 40.7295 33.3987 40.7984 33.481C40.8611 33.6266 40.9175 33.8101 40.9739 33.9367C40.9801 33.9557 40.9864 34 40.9927 34.0063C41.1242 34.3291 41.2746 34.519 41.3749 34.9177C41.4062 34.9494 41.4438 34.9684 41.4877 35.0316C41.5065 35.0633 41.5253 35.1266 41.5378 35.1519C41.6004 35.2278 41.6694 35.1519 41.7195 35.2975C41.732 35.3038 41.7383 35.2785 41.7446 35.2722C41.8573 35.2722 41.9451 35.1962 42.0328 35.2278C42.0767 35.1139 42.1331 35.1329 42.1769 35.038C42.202 34.981 42.2145 34.8734 42.2396 34.7975C42.2646 34.7152 42.2772 34.6266 42.3022 34.557C42.3336 34.557 42.3273 34.4494 42.3524 34.4241C42.3524 34.2975 42.3712 34.1962 42.3649 34.0696C42.3712 34.057 42.3774 34.0253 42.39 34.019C42.4025 33.7468 42.4213 33.462 42.3586 33.0949C42.3524 33.057 42.3398 32.9873 42.3336 32.9494C42.2709 32.6835 42.1769 32.2722 42.1769 32.1203C42.1644 32.0696 42.1581 32.0759 42.1456 32.0253C42.1581 31.9873 42.1581 31.8354 42.1205 31.7152C42.108 31.6709 42.0579 31.6076 42.0203 31.519C41.9701 31.3861 41.9639 31.2468 41.9137 31.1266C41.8887 31.0696 41.8448 31.019 41.8198 30.962C41.7571 30.8165 41.6443 30.5063 41.6067 30.3797C41.5754 30.2785 41.5816 30.2342 41.5441 30.1582C41.5127 30.0949 41.4689 30.0506 41.4375 30.0696C41.2872 29.9051 41.118 29.3924 40.9425 29.1203C40.8548 28.8987 40.7044 28.7215 40.6042 28.519C40.5916 28.4937 40.5478 28.4114 40.5352 28.3861C40.4976 28.3165 40.4287 28.2405 40.3723 28.1582C40.2783 28.0127 40.1969 27.8861 40.1092 27.7785C40.0214 27.5759 39.8961 27.4684 39.7833 27.3228C39.7395 27.2658 39.7144 27.2025 39.6643 27.1456C39.6267 27.0949 39.5766 27.0506 39.5327 26.9937C39.4888 26.9367 39.4575 26.8671 39.4136 26.8165C39.3886 26.7911 39.3384 26.7405 39.3196 26.7215C39.2821 26.6772 39.2695 26.6456 39.2319 26.6013C39.2069 26.5823 39.1191 26.4937 39.0941 26.4747C38.9437 26.3038 38.7808 26.1266 38.6116 25.9937C38.361 25.6962 38.079 25.5127 37.7406 25.2025C37.6466 25.1392 37.5715 25.0949 37.4837 25.0127C37.4587 25 37.4524 25.0127 37.4211 24.981C37.2456 24.8165 37.0013 24.7278 36.8133 24.5759C36.8007 24.5759 36.7945 24.5759 36.7757 24.5696C36.5062 24.3671 36.124 24.1709 35.8797 24.0696C35.7042 23.962 35.4724 23.8924 35.2468 23.7911C35.1403 23.7405 35.0338 23.6962 34.9272 23.6646C34.7205 23.6076 34.4573 23.481 34.2568 23.443C34.2192 23.443 34.1127 23.4177 34.0751 23.4114C33.9685 23.3861 33.8558 23.3418 33.743 23.3228C33.2981 23.2405 32.7968 23.1266 32.4083 23.0886C32.2893 23.0759 32.1828 23.0759 32.0512 23.0696C31.8256 23.0506 31.6 23.0063 31.3744 23.0127C31.3369 23.0127 31.2491 23.0127 31.2115 23.019C31.0612 23.0127 30.9484 23.0063 30.8105 23C30.4659 23 30.1213 23.0443 29.7954 23.0316C29.3819 23.1013 28.7804 23.1392 28.3041 23.2468C28.2039 23.2911 28.0974 23.2911 27.9846 23.3101C27.6462 23.3987 27.2201 23.5316 26.8692 23.6329C25.4218 24.1456 23.9994 24.9873 22.9656 26.1139C22.8716 26.1835 22.7463 26.3228 22.6836 26.4114C22.6585 26.4177 22.6147 26.4747 22.5771 26.5127C22.4768 26.6772 22.2951 26.8354 22.1573 27.0316C22.1447 27.1013 22.0382 27.1962 22.0006 27.2848C21.963 27.3038 22.0194 27.2342 21.9756 27.2848C21.9192 27.4367 21.6059 27.8544 21.4868 28.057C21.4931 28.0443 21.5056 28.0443 21.4931 28.057C21.4555 28.0949 21.4617 28.1329 21.4304 28.1899C21.2111 28.5506 21.1171 28.8418 20.9667 29.1709C20.9354 29.2089 20.8665 29.3038 20.8665 29.3481C20.8978 29.2911 20.9291 29.2152 20.9479 29.2342C20.8978 29.3291 20.8414 29.462 20.8289 29.5316C20.7725 29.6519 20.7286 29.7089 20.6973 29.8228C20.6848 29.8481 20.7286 29.8038 20.7036 29.8608C20.6221 30.0253 20.6033 30.1203 20.5281 30.2658C20.5281 30.3165 20.4655 30.5 20.4341 30.5506C20.4216 30.6013 20.4717 30.5 20.4592 30.5506C20.4153 30.6962 20.3652 30.8228 20.3088 30.9494C20.3088 30.9873 20.3088 31.0127 20.2963 31.0633C20.2838 31.1013 20.2775 31.0443 20.2712 31.1013C20.2712 31.1582 20.3026 31.0696 20.3151 31.0886C20.2963 31.1646 20.3151 31.1519 20.3151 31.1899C20.2712 31.2848 20.2712 31.3608 20.2462 31.4494C20.2086 31.5886 20.2023 31.6076 20.1647 31.7342C20.1459 31.8101 20.1522 31.8481 20.1271 31.9367C20.1083 32.0063 20.077 32.0633 20.0582 32.1456C20.0519 32.1899 20.0832 32.1203 20.0644 32.1835C19.9893 32.462 19.9329 32.7405 19.9141 32.9557C19.9517 32.6329 20.0456 32.4114 20.0895 32.1266C20.1208 32.0886 20.1083 32 20.1459 31.9684C20.1459 31.9494 20.1146 32.0063 20.1334 31.9494C20.1396 31.9304 20.1459 31.9241 20.1584 31.8924C20.171 31.9367 20.1898 31.8797 20.2086 31.8608C20.2775 31.6266 20.3213 31.443 20.3903 31.2468C20.3965 31.2089 20.3715 31.2658 20.3777 31.2215C20.4028 31.1329 20.4091 31.1203 20.4467 30.9937C20.4717 30.9747 20.5031 30.9177 20.5093 30.9557C20.4153 31.2215 20.3276 31.5949 20.2336 31.9177C20.2086 32.0127 20.1647 32.1139 20.171 32.1772C20.2023 32.0316 20.265 31.9241 20.3088 31.7975C20.3652 31.6392 20.384 31.4557 20.4467 31.3038C20.4655 31.2595 20.478 31.2468 20.4905 31.2025C20.5031 31.1709 20.5093 31.1139 20.5219 31.0823C20.5344 31.0443 20.5469 31.0443 20.5532 31.0127C20.572 30.943 20.5783 30.8924 20.6096 30.8165C20.6597 30.6962 20.7161 30.5823 20.7662 30.443C20.785 30.4241 20.7976 30.443 20.7913 30.4747C20.7286 30.6329 20.7224 30.6582 20.6597 30.8228C20.666 30.8038 20.6785 30.7975 20.6848 30.7975C20.666 30.8481 20.6534 30.8608 20.6472 30.8987C20.691 30.7785 20.7224 30.8038 20.7224 30.8481C20.6033 31.1456 20.4968 31.519 20.4091 31.7722C20.4091 31.8038 20.4153 31.8228 20.4091 31.8734C20.3339 32.1582 20.2399 32.4747 20.1772 32.7848C20.2838 32.443 20.3652 32.0696 20.4843 31.6709C20.4905 31.6582 20.5031 31.6709 20.5093 31.6329C20.5469 31.4557 20.6221 31.2658 20.6597 31.1329C20.6973 31.0823 20.7349 31.0316 20.7788 30.9873C20.9166 30.5696 21.1109 30.3038 21.2863 29.9304C21.2988 29.9367 21.3176 29.9114 21.3302 29.9051C21.3302 29.943 21.3302 29.9684 21.3239 30.0063C21.2926 30.0696 21.2738 30.1329 21.2424 30.1835C21.1422 30.519 20.9229 30.9684 20.8101 31.3861C20.8101 31.443 20.8414 31.4114 20.8728 31.3861C20.9479 31.1899 20.9855 31 21.0921 30.8101C21.1672 30.7532 21.1735 30.8481 21.1171 31.0063C21.0231 31.2785 20.879 31.7025 20.8038 31.8987C20.5908 32.6962 20.4028 33.4937 20.3088 34.3354C20.384 33.8734 20.4404 33.443 20.5469 33.038C20.5344 33.038 20.5344 33.019 20.5469 32.9873C20.6472 32.5949 20.7474 32.2152 20.8602 31.7911C20.9291 31.6519 20.9981 31.3671 21.0733 31.2342C21.1109 31.2911 21.0921 31.4114 21.0545 31.5696C21.1046 31.4177 21.1672 31.2785 21.2174 31.1519C21.2612 31.0506 21.3114 30.8671 21.3427 30.8165C21.349 30.8038 21.349 30.8354 21.3615 30.8101C21.3427 30.8544 21.3866 30.7342 21.3928 30.7278C21.4116 30.6709 21.4054 30.6772 21.4304 30.6139C21.468 30.5316 21.468 30.5316 21.4993 30.4873C21.6247 30.2025 21.75 29.9177 21.8941 29.6456C21.9129 29.6139 21.938 29.5633 21.9442 29.557C21.963 29.5316 21.9568 29.557 21.9756 29.5253C21.9881 29.5063 21.9756 29.5127 21.9881 29.481C22.0507 29.3671 22.1197 29.2532 22.1761 29.1519C22.3264 28.8924 22.527 28.5886 22.6648 28.3924C22.6961 28.3481 22.6648 28.4177 22.7087 28.3544C22.9593 28.0127 23.2413 27.6709 23.542 27.3418C23.5671 27.3165 23.5608 27.3544 23.5922 27.3101C23.636 27.2658 23.611 27.2658 23.6486 27.2278C23.6799 27.2089 23.705 27.1899 23.7237 27.1835C24.0872 26.8228 24.4694 26.4684 24.8829 26.1519C25.2714 25.8544 25.6913 25.6139 26.1048 25.3987C26.4369 25.2468 26.7439 25.0759 27.0635 24.9937C27.4708 24.8228 27.8467 24.7405 28.2477 24.6392C28.5422 24.5886 28.8681 24.5253 29.1187 24.4873C29.1626 24.481 29.2127 24.462 29.2628 24.462C29.313 24.462 29.4445 24.4557 29.4947 24.4557C29.7014 24.4304 29.9082 24.3924 30.1213 24.3924C30.3531 24.3924 30.5787 24.3734 30.8105 24.3797C30.917 24.3797 31.0862 24.3797 31.1927 24.3797C31.2617 24.3797 31.3807 24.3924 31.4559 24.3987C31.7065 24.3987 31.9509 24.4241 32.1828 24.4494C32.4961 24.4747 32.7968 24.5696 33.1101 24.6013C33.4485 24.6835 33.8495 24.7911 34.1628 24.8924C34.4009 25.019 34.6829 25.0633 34.946 25.2025C34.9586 25.2089 35.0024 25.2342 35.0212 25.2468C35.228 25.3481 35.441 25.4494 35.6415 25.557C35.8483 25.6582 36.0363 25.7658 36.1804 25.8797C36.3057 25.9367 36.3935 26.019 36.5 26.1013C36.6065 26.1899 36.7193 26.2595 36.8258 26.3354C36.8446 26.3544 36.901 26.3987 36.9198 26.4241C37.0201 26.5 37.1391 26.6013 37.2456 26.6835C37.4211 26.8228 37.5589 27.019 37.7532 27.1899C37.8848 27.3354 38.0539 27.5759 38.2231 27.7342C38.4424 28.0506 38.7056 28.3418 38.9124 28.6835C38.9876 28.7975 39.0251 28.9114 39.1129 29.019C39.163 29.1519 39.2695 29.2848 39.3447 29.443C39.4074 29.5759 39.5014 29.7658 39.5703 29.9177C39.6768 30.1519 39.8335 30.4241 39.8585 30.6203C39.7959 30.7405 40.0089 30.8291 40.059 31.0316C40.0778 31.1392 40.0465 31.1392 40.0277 31.1962C40.0465 31.2911 40.0904 31.3734 40.128 31.4557C40.153 31.5633 40.1342 31.6519 40.1843 31.7911L40.1969 31.7595ZM20.5407 30.6013C20.5407 30.6013 20.5344 30.6013 20.5281 30.6139C20.5219 30.5759 20.5783 30.519 20.5407 30.6013ZM20.5407 30.6329C20.4968 30.7532 20.4467 30.9304 20.4028 31.019C20.3965 31.0443 20.4341 31.0063 20.4279 31.0443C20.3965 31.0949 20.3715 31.1519 20.3401 31.2405C20.3026 31.2342 20.384 31.0633 20.3589 31.0443C20.384 30.9747 20.3965 30.943 20.3965 30.9051C20.4592 30.7658 20.4529 30.7278 20.5031 30.6266C20.5093 30.6646 20.5281 30.6139 20.5469 30.6266L20.5407 30.6329Z" fill="white"/>
<path fill-rule="evenodd" clip-rule="evenodd" d="M43.7417 31.0052C43.7417 31.0052 43.7233 31.0179 43.7109 31.0179C43.7109 31.0052 43.7294 30.9926 43.7417 31.0052Z" fill="white"/>
<path fill-rule="evenodd" clip-rule="evenodd" d="M42.9337 29.8984C42.9337 29.8984 42.8906 29.9301 42.8906 29.9048C42.9091 29.8984 42.9214 29.9048 42.9337 29.8984Z" fill="white"/>
<path fill-rule="evenodd" clip-rule="evenodd" d="M42.8634 29.8853C42.8634 29.8853 42.8326 29.898 42.8203 29.898C42.8203 29.8853 42.8511 29.879 42.8634 29.8853Z" fill="white"/>
<path fill-rule="evenodd" clip-rule="evenodd" d="M42.7443 30.1211C42.7443 30.1211 42.7135 30.1464 42.7012 30.1401C42.7012 30.1274 42.732 30.1274 42.7443 30.1211Z" fill="white"/>
<path fill-rule="evenodd" clip-rule="evenodd" d="M42.6021 29.957C42.6021 29.957 42.5645 29.9887 42.5332 29.995C42.5395 29.976 42.5771 29.9697 42.6021 29.957Z" fill="white"/>
<path fill-rule="evenodd" clip-rule="evenodd" d="M42.7206 30.9609C42.6893 30.9736 42.6329 31.0179 42.6016 31.0052C42.6454 31.0052 42.683 30.9609 42.7206 30.9609Z" fill="white"/>
<path fill-rule="evenodd" clip-rule="evenodd" d="M42.4821 30.5938C42.4507 30.6381 42.363 30.6381 42.3129 30.676C42.2941 30.657 42.3943 30.6381 42.4006 30.6191C42.4131 30.6191 42.4257 30.6191 42.4382 30.6191C42.4507 30.6127 42.4633 30.5938 42.4821 30.6001V30.5938Z" fill="white"/>
<path fill-rule="evenodd" clip-rule="evenodd" d="M41.9364 30.7656C41.9364 30.7656 41.9426 30.7846 41.9303 30.7909C41.9303 30.7909 41.918 30.7909 41.918 30.7783L41.9364 30.7656Z" fill="white"/>
<path fill-rule="evenodd" clip-rule="evenodd" d="M41.8051 31.0195C41.7863 31.0575 41.7174 31.1018 41.6672 31.1145C41.6672 31.1145 41.6672 31.1271 41.6547 31.1335C41.6359 31.1524 41.5795 31.1778 41.6296 31.1461C41.686 31.0955 41.7424 31.0765 41.8051 31.0259V31.0195Z" fill="white"/>
<path fill-rule="evenodd" clip-rule="evenodd" d="M41.6675 30.8359C41.6675 30.8359 41.649 30.8549 41.6367 30.8676C41.6367 30.8549 41.6614 30.8359 41.6675 30.8359Z" fill="white"/>
<path fill-rule="evenodd" clip-rule="evenodd" d="M41.9237 31.375C41.9237 31.375 41.8929 31.394 41.8867 31.4066C41.8867 31.394 41.9114 31.375 41.9237 31.375Z" fill="white"/>
<path fill-rule="evenodd" clip-rule="evenodd" d="M41.6668 30.9258C41.6668 30.9258 41.6299 30.9574 41.6175 30.9764C41.5929 30.9701 41.6483 30.9384 41.6668 30.9258Z" fill="white"/>
<path fill-rule="evenodd" clip-rule="evenodd" d="M41.6101 30.8867C41.6101 30.8867 41.5732 30.9184 41.5547 30.9374C41.5608 30.9184 41.5916 30.9057 41.6101 30.8867Z" fill="white"/>
<path fill-rule="evenodd" clip-rule="evenodd" d="M41.9367 31.4922C41.9367 31.4922 41.9244 31.5175 41.9121 31.5238C41.9121 31.5112 41.9244 31.4985 41.9367 31.4922Z" fill="white"/>
<path fill-rule="evenodd" clip-rule="evenodd" d="M41.8631 31.4102C41.8631 31.4102 41.8067 31.4608 41.7754 31.4734C41.8005 31.4418 41.8255 31.4291 41.8631 31.4102Z" fill="white"/>
<path fill-rule="evenodd" clip-rule="evenodd" d="M41.5428 30.9453C41.524 30.977 41.4801 30.9959 41.4551 31.0086C41.4739 30.9833 41.5177 30.977 41.5428 30.9453Z" fill="white"/>
<path fill-rule="evenodd" clip-rule="evenodd" d="M41.5922 31.1641C41.5922 31.1641 41.5738 31.1894 41.5614 31.202C41.5491 31.1894 41.5799 31.1767 41.5922 31.1641Z" fill="white"/>
<path fill-rule="evenodd" clip-rule="evenodd" d="M41.5233 31.1602C41.5233 31.1602 41.5048 31.1791 41.4863 31.1918C41.4863 31.1791 41.511 31.1728 41.5233 31.1602Z" fill="white"/>
<path fill-rule="evenodd" clip-rule="evenodd" d="M41.4491 31.1406C41.4491 31.1406 41.4183 31.1849 41.4121 31.1596C41.4183 31.147 41.4244 31.1596 41.4306 31.1596C41.4429 31.1533 41.4306 31.147 41.4552 31.1406H41.4491Z" fill="white"/>
<path fill-rule="evenodd" clip-rule="evenodd" d="M41.6173 31.6602C41.6173 31.6602 41.5927 31.6918 41.5742 31.7045C41.5804 31.6918 41.6112 31.6665 41.6173 31.6602Z" fill="white"/>
<path fill-rule="evenodd" clip-rule="evenodd" d="M41.6239 31.6914C41.6239 31.6914 41.6055 31.7231 41.6055 31.7041L41.6239 31.6914Z" fill="white"/>
<path fill-rule="evenodd" clip-rule="evenodd" d="M41.7431 31.8984C41.7431 31.8984 41.7369 31.9174 41.7246 31.9238C41.7246 31.9111 41.7369 31.8984 41.7431 31.8984Z" fill="white"/>
<path fill-rule="evenodd" clip-rule="evenodd" d="M41.6547 31.9543C41.6547 31.9486 41.6318 31.9659 41.6547 31.9543Z" fill="white"/>
<path fill-rule="evenodd" clip-rule="evenodd" d="M42.558 31.3867C42.558 31.3867 42.5455 31.4057 42.5392 31.412C42.5204 31.3994 42.4954 31.431 42.4766 31.431C42.4891 31.3994 42.5267 31.412 42.558 31.3867Z" fill="white"/>
<path fill-rule="evenodd" clip-rule="evenodd" d="M41.8505 31.3241C41.8505 31.3241 41.838 31.3241 41.8254 31.3367C41.8254 31.3367 41.8254 31.3304 41.8254 31.3241C41.8004 31.3367 41.7878 31.3494 41.769 31.362V31.3494C41.7565 31.3874 41.7064 31.3747 41.6562 31.4253C41.6938 31.3684 41.8192 31.3051 41.863 31.2734C41.863 31.2924 41.8129 31.3051 41.8192 31.3241C41.8254 31.3367 41.8442 31.3114 41.8505 31.3304V31.3241Z" fill="white"/>
<path fill-rule="evenodd" clip-rule="evenodd" d="M41.5676 30.9939C41.5676 31.0066 41.5491 31.0129 41.543 31.0129C41.543 30.9939 41.6107 30.9623 41.5676 30.9939Z" fill="white"/>
<path fill-rule="evenodd" clip-rule="evenodd" d="M41.2358 31.3029L41.2233 31.2902C41.2233 31.2902 41.1544 31.3598 41.123 31.3661C41.1481 31.3218 41.2421 31.2839 41.2484 31.2396C41.2546 31.2396 41.2672 31.2269 41.2797 31.2269C41.3486 31.1383 41.4614 31.094 41.5429 31.0117C41.5303 31.0813 41.3987 31.0877 41.3799 31.1636C41.3737 31.1636 41.3799 31.1636 41.3799 31.1573C41.3424 31.1889 41.2609 31.2332 41.2358 31.2965V31.3029Z" fill="white"/>
<path fill-rule="evenodd" clip-rule="evenodd" d="M41.6373 31.7273C41.6373 31.7273 41.625 31.7463 41.625 31.7589C41.625 31.7589 41.625 31.7209 41.6373 31.7273Z" fill="white"/>
<path fill-rule="evenodd" clip-rule="evenodd" d="M51.2173 34.4624C51.2173 34.4624 51.2549 34.494 51.2675 34.513C51.2988 34.5637 51.3113 34.6143 51.3489 34.6586C51.3802 34.6966 51.4304 34.7219 51.4617 34.7662C51.4742 34.7852 51.493 34.8042 51.5118 34.8231C51.562 34.8801 51.5807 34.9371 51.6371 34.9434C51.6873 34.975 51.7374 35.0257 51.7813 35.0573C51.7875 35.0573 51.7938 35.0763 51.8001 35.0763C51.9191 35.1523 52.0382 35.1776 52.1447 35.2978C52.176 35.2978 52.2136 35.2978 52.2512 35.3105C52.27 35.3105 52.2888 35.3358 52.3076 35.3421C52.3703 35.3548 52.4329 35.3042 52.4893 35.3485C52.5018 35.3485 52.5018 35.3358 52.5144 35.3295C52.6209 35.2978 52.7023 35.2472 52.7901 35.2345C52.8214 35.1776 52.8841 35.1649 52.9154 35.1206C52.9342 35.089 52.9467 35.0383 52.9655 35.0004C52.9843 34.9561 52.9968 34.9181 53.0156 34.8738C53.047 34.8611 53.0407 34.8168 53.0595 34.7978C53.0595 34.7409 53.072 34.6902 53.072 34.6269C53.0783 34.6143 53.0846 34.6016 53.0971 34.5953C53.1096 34.4624 53.1096 34.3295 53.0595 34.1712C53.0532 34.1523 53.0407 34.1206 53.0344 34.1143C52.9781 34.0067 52.8966 33.8421 52.9029 33.7662C52.8966 33.7472 52.8841 33.7535 52.8778 33.7345C52.8903 33.7092 52.8903 33.6396 52.859 33.589C52.8465 33.5763 52.8089 33.5637 52.7775 33.532C52.7399 33.4877 52.7399 33.4118 52.7023 33.3738C52.6836 33.3548 52.6522 33.3485 52.6272 33.3295C52.5708 33.2852 52.4956 33.1712 52.4705 33.1206C52.4454 33.0826 52.4517 33.0573 52.4329 33.032C52.4078 33.013 52.3765 33.0067 52.3515 33.032C52.2387 33.013 52.1447 32.7978 52.0256 32.7282C51.9818 32.6396 51.8815 32.6016 51.8251 32.532C51.8126 32.5194 51.8063 32.494 51.7938 32.4814C51.7687 32.4561 51.7311 32.4371 51.6998 32.4118C51.6434 32.3675 51.5995 32.3295 51.5494 32.2978C51.5181 32.2029 51.4366 32.1966 51.3802 32.1459C51.3614 32.1269 51.3489 32.0953 51.3301 32.0763C51.3113 32.0573 51.2863 32.051 51.2612 32.032C51.2424 32.013 51.2299 31.9814 51.2111 31.9624C51.1985 31.9497 51.1797 31.9434 51.1672 31.9307C51.1484 31.9181 51.1484 31.8991 51.1296 31.8864C51.1108 31.8738 51.0795 31.8675 51.0607 31.8548C50.9855 31.8042 50.9228 31.7282 50.8414 31.7029C50.7411 31.5826 50.6095 31.5383 50.4842 31.4118C50.4403 31.3928 50.4153 31.3801 50.3777 31.3421C50.3652 31.3421 50.3589 31.3421 50.3464 31.3421C50.2774 31.2788 50.1772 31.2535 50.1083 31.1839C50.1083 31.1839 50.0957 31.1839 50.0895 31.1839C49.9955 31.089 49.8514 31.0004 49.7511 30.9687C49.6947 30.9054 49.6007 30.8801 49.5193 30.8295C49.4817 30.8042 49.4441 30.7725 49.4065 30.7535C49.325 30.7219 49.2373 30.6586 49.1621 30.6206C49.137 30.608 49.112 30.608 49.0932 30.6016C49.0556 30.5826 49.018 30.551 48.9741 30.532C48.8112 30.4624 48.6295 30.3675 48.4916 30.2978C48.4478 30.2788 48.4039 30.2725 48.3538 30.2535C48.2723 30.2219 48.1971 30.1649 48.1094 30.1333C48.0969 30.1333 48.053 30.1206 48.0468 30.1206C47.9966 30.108 47.9528 30.0763 47.8964 30.0573C47.7648 30.013 47.6332 29.975 47.5142 29.9181C47.345 29.8928 47.1194 29.8105 46.9252 29.7599C46.875 29.7725 46.8374 29.7409 46.7936 29.7345C46.6557 29.7092 46.474 29.6966 46.3362 29.6459C45.7221 29.57 45.0454 29.5193 44.4564 29.6143C44.4063 29.6016 44.3373 29.6143 44.2935 29.6333C44.2809 29.6206 44.2559 29.6269 44.2371 29.6206C44.1619 29.6586 44.0679 29.6396 43.9739 29.6586C43.9551 29.6902 43.8925 29.6776 43.8611 29.7029C43.8423 29.6902 43.8799 29.6839 43.8549 29.6839C43.7985 29.7472 43.5917 29.7472 43.504 29.7852C43.5102 29.7852 43.5102 29.7915 43.504 29.7915C43.4789 29.7852 43.4726 29.8105 43.4476 29.8168C43.2847 29.8611 43.1719 29.9307 43.0403 29.9877C43.0215 29.9877 42.9714 29.975 42.9588 30.0004C42.9839 30.0004 43.0152 29.9877 43.0215 30.0067C42.9776 30.0067 42.9275 30.0383 42.9024 30.0573C42.8523 30.0763 42.821 30.07 42.7834 30.0953C42.7709 30.0953 42.8022 30.1143 42.7771 30.1206C42.7019 30.1333 42.6706 30.1649 42.6079 30.1776C42.5954 30.2029 42.5265 30.2345 42.4952 30.2345C42.4764 30.2472 42.5265 30.2409 42.5077 30.2535C42.4513 30.2788 42.4074 30.3105 42.3448 30.3168C42.3385 30.3295 42.3322 30.3485 42.3134 30.3611C42.3009 30.3675 42.3134 30.3421 42.2884 30.3611C42.2758 30.3801 42.3134 30.3738 42.3134 30.3928C42.2884 30.4118 42.3009 30.4181 42.2884 30.4371C42.2445 30.4371 42.2257 30.475 42.1944 30.494C42.1631 30.5194 42.1192 30.532 42.0879 30.551C42.0628 30.57 42.0565 30.589 42.0252 30.608C42.0001 30.6206 41.9688 30.6143 41.9375 30.6333C41.925 30.6459 41.9563 30.6459 41.9375 30.6523C41.8372 30.7156 41.737 30.7725 41.6806 30.8421C41.7746 30.7472 41.8748 30.7345 41.9625 30.6523C41.9876 30.6649 42.0001 30.6206 42.0315 30.6333C42.0315 30.6206 42.0064 30.6206 42.0315 30.6143C42.0377 30.6143 42.044 30.6143 42.0565 30.6143C42.0565 30.6459 42.0753 30.6333 42.0879 30.6459C42.1756 30.6016 42.2382 30.5573 42.3134 30.532C42.326 30.5193 42.3009 30.5257 42.3134 30.513C42.3385 30.5004 42.3636 30.494 42.3949 30.4687C42.4137 30.4814 42.4388 30.4814 42.4325 30.5067C42.326 30.5447 42.2007 30.6333 42.0879 30.6966C42.0503 30.7156 42.0064 30.7156 42.0001 30.7535C42.0503 30.7219 42.1067 30.7282 42.1568 30.7092C42.2194 30.6839 42.2696 30.6269 42.3322 30.608C42.351 30.608 42.3573 30.608 42.3761 30.6016C42.3886 30.6016 42.4012 30.5763 42.42 30.57C42.4325 30.57 42.4388 30.57 42.4513 30.57C42.4764 30.5573 42.4889 30.5383 42.5202 30.5257C42.5703 30.5067 42.6205 30.5067 42.6706 30.4877C42.6831 30.4877 42.6831 30.513 42.6706 30.5194C42.6079 30.5383 42.5954 30.5447 42.5327 30.57C42.539 30.57 42.5453 30.57 42.5515 30.5763C42.5327 30.5826 42.5202 30.5763 42.5139 30.5953C42.5578 30.5763 42.5703 30.608 42.5578 30.6333C42.4262 30.6902 42.4074 30.6966 42.2069 30.7788C42.2069 30.7915 42.2007 30.8042 42.1819 30.8168C42.0816 30.8738 41.9625 30.9244 41.8623 30.994C41.9939 30.9497 42.1192 30.8675 42.257 30.7915C42.2633 30.7915 42.2633 30.8042 42.2758 30.7915C42.3322 30.7535 42.4074 30.7282 42.4576 30.7029L42.5453 30.7345C42.6957 30.6586 42.8398 30.6966 42.9902 30.6523C42.9902 30.6649 43.009 30.6649 43.0152 30.6776C43.009 30.6902 43.0027 30.7092 42.9902 30.7219C42.9651 30.7282 42.94 30.7472 42.915 30.7409C42.8022 30.8231 42.6142 30.8548 42.4764 30.9434C42.4638 30.9687 42.4889 30.9814 42.5077 30.994C42.5829 30.975 42.6393 30.9181 42.727 30.9181C42.7709 30.9624 42.7583 31.0004 42.6957 31.0257C42.6017 31.07 42.4325 31.1269 42.3698 31.1523C42.1129 31.3042 41.8498 31.4497 41.6367 31.6459C41.762 31.5573 41.8811 31.4497 42.0189 31.3864C42.0189 31.3801 42.0189 31.3738 42.0252 31.3675C42.1568 31.2978 42.3009 31.2219 42.4137 31.1523C42.4764 31.1523 42.5641 31.0826 42.6267 31.0953C42.6267 31.1459 42.6017 31.1902 42.5515 31.2219C42.6017 31.1966 42.6581 31.1902 42.7082 31.1776C42.7458 31.1649 42.8084 31.1269 42.8272 31.1333C42.8272 31.1333 42.8272 31.1459 42.8335 31.1459C42.8147 31.1459 42.8586 31.1333 42.8648 31.1333C42.8836 31.1206 42.8774 31.1206 42.9024 31.1143C42.9338 31.108 42.9338 31.108 42.9588 31.1143C43.0654 31.0826 43.1719 31.0447 43.2909 31.0194C43.3097 31.0194 43.3223 31.013 43.3285 31.013C43.341 31.013 43.3285 31.0257 43.3473 31.0194C43.3536 31.0194 43.3473 31.0067 43.3598 31.0067C43.4037 31.0004 43.4538 30.994 43.4977 30.9814C43.6105 30.9561 43.7421 30.9371 43.8298 30.9244C43.8486 30.9244 43.8298 30.9434 43.8549 30.9371C44.0178 30.9244 44.1807 30.9054 44.3561 30.8991C44.3687 30.8991 44.3561 30.9181 44.3812 30.9181C44.4063 30.9181 44.4 30.8991 44.4188 30.8991C44.4313 30.8991 44.4439 30.9118 44.4501 30.9181C44.6444 30.9181 44.8511 30.8991 45.0579 30.8801C45.2396 30.8801 45.4151 30.8864 45.5905 30.8991C45.7284 30.9181 45.86 30.9181 45.979 30.9497C46.1482 30.9624 46.286 31.0067 46.4427 31.0383C46.5555 31.0573 46.6745 31.108 46.7685 31.1333C46.7873 31.1333 46.8061 31.1333 46.8249 31.1333C46.8562 31.1396 46.875 31.1649 46.9064 31.1776C46.9816 31.2029 47.063 31.2092 47.1445 31.2345C47.2259 31.2662 47.3074 31.3042 47.3888 31.3358C47.4327 31.3548 47.4828 31.3611 47.533 31.3738C47.5643 31.3864 47.5893 31.4118 47.6207 31.4244C47.7084 31.4561 47.8024 31.4877 47.8839 31.5257C47.9904 31.5826 48.0969 31.6523 48.2159 31.6902C48.3287 31.7662 48.4728 31.8485 48.5919 31.9054C48.6671 31.9877 48.7799 32.0067 48.8801 32.0826C48.8927 32.089 48.8927 32.1016 48.9052 32.108C49.043 32.2282 49.2436 32.2915 49.3501 32.3991C49.4065 32.4118 49.4315 32.4624 49.4691 32.494C49.513 32.532 49.5631 32.551 49.607 32.5763C49.6195 32.589 49.6258 32.6016 49.6446 32.6143C49.6884 32.6459 49.7386 32.6649 49.7887 32.7029C49.8576 32.7535 49.9077 32.8485 50.0017 32.8928C50.0519 32.9561 50.1271 33.0447 50.2085 33.0826C50.2962 33.2092 50.4341 33.2852 50.5343 33.3991C50.5657 33.4371 50.5907 33.4877 50.6409 33.5067C50.6597 33.5637 50.716 33.6016 50.7536 33.6523C50.7975 33.7029 50.8288 33.7599 50.8727 33.8105C50.9354 33.8864 51.0231 33.9624 51.0293 34.051C50.973 34.1396 51.1233 34.0953 51.1547 34.1649C51.1609 34.2092 51.1359 34.2219 51.1171 34.2599C51.1296 34.2978 51.1547 34.3168 51.1797 34.3358C51.1985 34.3738 51.1797 34.4244 51.2048 34.4687L51.2173 34.4624ZM42.5202 30.3548C42.5202 30.3548 42.5202 30.3485 42.5139 30.3485C42.5139 30.3231 42.5578 30.3485 42.5202 30.3548ZM42.5139 30.3675C42.4638 30.3864 42.4074 30.4371 42.3636 30.4307C42.351 30.4307 42.3824 30.4497 42.3636 30.4624C42.3385 30.4624 42.3134 30.4624 42.2758 30.475C42.257 30.4434 42.3385 30.4307 42.326 30.3991C42.3573 30.3928 42.3698 30.3864 42.3761 30.3675C42.4388 30.3548 42.4388 30.3295 42.4889 30.3231C42.4889 30.3485 42.5014 30.3358 42.5077 30.3611L42.5139 30.3675Z" fill="white"/>
<path fill-rule="evenodd" clip-rule="evenodd" d="M32.012 43.4288C32.012 43.4288 31.9431 43.4351 31.8867 43.4351C31.8993 43.4224 31.9682 43.4161 32.012 43.4288Z" fill="white"/>
<path fill-rule="evenodd" clip-rule="evenodd" d="M30.1196 42.1641C30.082 42.1641 29.963 42.183 29.9755 42.1641C30.0445 42.1641 30.0695 42.1641 30.1196 42.1641Z" fill="white"/>
<path fill-rule="evenodd" clip-rule="evenodd" d="M29.9136 42.1384C29.9136 42.1384 29.8134 42.1384 29.7695 42.1384C29.7695 42.1257 29.8886 42.1257 29.9136 42.1384Z" fill="white"/>
<path fill-rule="evenodd" clip-rule="evenodd" d="M29.3375 42.3298C29.3375 42.3298 29.231 42.3425 29.1934 42.3298C29.2059 42.3172 29.2936 42.3298 29.3375 42.3298Z" fill="white"/>
<path fill-rule="evenodd" clip-rule="evenodd" d="M29.067 42.125C29.0169 42.1377 28.9355 42.1377 28.8164 42.1377C28.854 42.125 28.9793 42.125 29.067 42.125Z" fill="white"/>
<path fill-rule="evenodd" clip-rule="evenodd" d="M28.3473 43.1185C28.222 43.1185 27.9651 43.1375 27.8711 43.1185C28.0277 43.1312 28.2032 43.1122 28.3473 43.1185Z" fill="white"/>
<path fill-rule="evenodd" clip-rule="evenodd" d="M28.0088 42.6899C27.8522 42.7152 27.5702 42.6899 27.3634 42.7026C27.3321 42.6773 27.6579 42.7026 27.7143 42.6836C27.7457 42.6836 27.7895 42.6836 27.8397 42.6963C27.8961 42.6963 27.9462 42.6773 28.0026 42.6963L28.0088 42.6899Z" fill="white"/>
<path fill-rule="evenodd" clip-rule="evenodd" d="M26.0776 42.6211C26.0776 42.6211 26.065 42.6401 26.0149 42.6401C26.0024 42.6401 25.9961 42.6274 25.9961 42.6211H26.0776Z" fill="white"/>
<path fill-rule="evenodd" clip-rule="evenodd" d="M25.2709 42.7773C25.1456 42.7963 24.8511 42.7963 24.6944 42.7773C24.6756 42.7773 24.6694 42.79 24.6318 42.7837C24.5378 42.7837 24.3185 42.7837 24.5315 42.7837C24.7884 42.771 24.9952 42.7837 25.2772 42.7773H25.2709Z" fill="white"/>
<path fill-rule="evenodd" clip-rule="evenodd" d="M25.1754 42.551C25.1754 42.551 25.0939 42.5574 25.0312 42.5574C25.0438 42.5447 25.1503 42.5447 25.1754 42.551Z" fill="white"/>
<path fill-rule="evenodd" clip-rule="evenodd" d="M24.9809 43.1463C24.9809 43.1463 24.8494 43.1463 24.793 43.1463C24.8368 43.1463 24.9308 43.1336 24.9809 43.1463Z" fill="white"/>
<path fill-rule="evenodd" clip-rule="evenodd" d="M25.0188 42.625C24.9687 42.6377 24.8559 42.6313 24.787 42.644C24.7306 42.625 24.9373 42.6313 25.0188 42.625Z" fill="white"/>
<path fill-rule="evenodd" clip-rule="evenodd" d="M24.9245 42.5625C24.8869 42.5752 24.7616 42.5752 24.6738 42.5752C24.724 42.5625 24.843 42.5688 24.9245 42.5625Z" fill="white"/>
<path fill-rule="evenodd" clip-rule="evenodd" d="M24.7808 43.2539C24.7808 43.2539 24.6931 43.2666 24.6367 43.2729C24.6493 43.2602 24.7307 43.2602 24.7808 43.2539Z" fill="white"/>
<path fill-rule="evenodd" clip-rule="evenodd" d="M24.687 43.1448C24.6181 43.1574 24.3862 43.1511 24.2734 43.1511C24.4176 43.1385 24.5303 43.1385 24.687 43.1448Z" fill="white"/>
<path fill-rule="evenodd" clip-rule="evenodd" d="M24.638 42.5701C24.5315 42.589 24.3748 42.5701 24.2871 42.5701C24.3874 42.5574 24.5252 42.5827 24.638 42.5701Z" fill="white"/>
<path fill-rule="evenodd" clip-rule="evenodd" d="M24.3616 42.7862C24.324 42.7925 24.2551 42.7925 24.1924 42.7988C24.1799 42.7798 24.2864 42.7862 24.3616 42.7862Z" fill="white"/>
<path fill-rule="evenodd" clip-rule="evenodd" d="M24.1805 42.74C24.1304 42.7527 24.0865 42.74 24.0176 42.74C24.0364 42.7273 24.1366 42.74 24.1805 42.74Z" fill="white"/>
<path fill-rule="evenodd" clip-rule="evenodd" d="M24.0053 42.6845C24.0053 42.6845 23.8298 42.6972 23.8612 42.6719C23.905 42.6719 23.8988 42.6782 23.8988 42.6845C23.9489 42.6845 23.9426 42.6782 24.0053 42.6845Z" fill="white"/>
<path fill-rule="evenodd" clip-rule="evenodd" d="M23.5664 43.0297C23.8421 43.0423 23.6667 43.0107 23.5664 43.0297Z" fill="white"/>
<path fill-rule="evenodd" clip-rule="evenodd" d="M23.3397 43.1942C23.252 43.2005 23.1706 43.2005 23.0703 43.1942C23.133 43.1942 23.2959 43.1879 23.3397 43.1942Z" fill="white"/>
<path fill-rule="evenodd" clip-rule="evenodd" d="M23.2767 43.2266C23.2767 43.2266 23.1388 43.2392 23.1764 43.2266H23.2767Z" fill="white"/>
<path fill-rule="evenodd" clip-rule="evenodd" d="M23.0836 43.469C23.0836 43.469 22.9896 43.4817 22.9395 43.4753C22.952 43.4627 23.0585 43.4627 23.0836 43.469Z" fill="white"/>
<path fill-rule="evenodd" clip-rule="evenodd" d="M22.5068 43.4414C22.3376 43.4604 22.2749 43.4414 22.5068 43.4414Z" fill="white"/>
<path fill-rule="evenodd" clip-rule="evenodd" d="M27.1494 43.4555C27.1181 43.4555 27.0679 43.4618 27.0429 43.4745C26.9802 43.4555 26.8612 43.4745 26.7734 43.4618C26.88 43.4428 26.9927 43.4618 27.1431 43.4555H27.1494Z" fill="white"/>
<path fill-rule="evenodd" clip-rule="evenodd" d="M24.8446 43.0624C24.7945 43.0624 24.8007 43.056 24.7443 43.0624C24.7443 43.056 24.7631 43.056 24.7694 43.0497C24.6692 43.0497 24.6065 43.0497 24.5188 43.0497C24.5313 43.0497 24.5438 43.0434 24.5438 43.0371C24.4248 43.0624 24.2932 43.0244 24.0488 43.0371C24.2807 43.0117 24.7945 43.0307 25.0012 43.0244C24.9699 43.0434 24.7945 43.0244 24.7694 43.0434C24.7694 43.056 24.8822 43.0434 24.8509 43.0687L24.8446 43.0624Z" fill="white"/>
<path fill-rule="evenodd" clip-rule="evenodd" d="M24.63 42.6345C24.6237 42.6472 24.536 42.6345 24.5234 42.6345C24.5485 42.6219 24.8242 42.6345 24.63 42.6345Z" fill="white"/>
<path fill-rule="evenodd" clip-rule="evenodd" d="M23.0964 42.6834V42.6645C22.9648 42.6645 22.7581 42.6645 22.6641 42.6518C22.8207 42.6391 23.1528 42.6708 23.2656 42.6391C23.3095 42.6391 23.322 42.6391 23.3658 42.6518C23.7293 42.6202 24.124 42.6518 24.5062 42.6328C24.3371 42.6834 23.9486 42.6138 23.7606 42.6645C23.7293 42.6645 23.7606 42.6645 23.7794 42.6645C23.6102 42.6645 23.3095 42.6518 23.0964 42.6834Z" fill="white"/>
<path fill-rule="evenodd" clip-rule="evenodd" d="M23.2272 43.2608C23.1709 43.2671 23.1521 43.2735 23.1019 43.2798C23.0831 43.2798 23.1834 43.2481 23.2272 43.2608Z" fill="white"/>
<path fill-rule="evenodd" clip-rule="evenodd" d="M58.5853 45.5062C58.648 45.5062 58.7545 45.5062 58.8735 45.4999C58.9487 45.4999 59.0114 45.4936 59.049 45.4936C59.2746 45.4936 59.4813 45.5126 59.7069 45.4999C59.8761 45.4872 60.1518 45.4746 60.3084 45.4619C60.4337 45.4556 60.5152 45.4493 60.6217 45.4429C60.9288 45.424 61.1794 45.4366 61.311 45.386C61.5679 45.3543 61.7433 45.3353 61.9814 45.31C62.0128 45.31 62.0754 45.31 62.088 45.31C62.5642 45.2404 62.8587 45.1202 63.4163 45.0695C63.4665 45.0442 63.4978 45.0062 63.5918 44.9683C63.6356 44.9556 63.7296 44.9429 63.761 44.9303C63.8737 44.8733 63.7735 44.8037 63.9865 44.7594C63.9991 44.7467 63.9615 44.7404 63.9489 44.7341C63.9489 44.6202 63.8675 44.5252 63.9239 44.4366C63.7798 44.386 63.8111 44.3227 63.6983 44.2784C63.6294 44.2467 63.4915 44.2214 63.3975 44.1898C63.2973 44.1581 63.1845 44.1328 63.0968 44.0948C63.0968 44.0632 62.9652 44.0569 62.9401 44.0252C62.8023 44.0062 62.6268 43.9746 62.4952 43.9556C62.4764 43.9429 62.4388 43.9366 62.4388 43.924C62.0942 43.867 61.7496 43.791 61.2797 43.7721C61.2295 43.7721 61.1418 43.7721 61.0917 43.7721C60.7408 43.7721 60.2082 43.7594 60.0265 43.7151C59.9638 43.7151 59.9638 43.7214 59.9011 43.7151C59.8636 43.6961 59.6756 43.6518 59.5189 43.6518C59.4625 43.6518 59.3685 43.6834 59.2432 43.6898C59.1555 43.6898 59.0678 43.6898 58.9801 43.6771C58.9237 43.6771 58.9237 43.6708 58.9237 43.6645C58.9237 43.6645 58.9111 43.6898 58.9049 43.6961C58.8986 43.7024 58.8861 43.7088 58.8798 43.6961C58.8798 43.6834 58.8798 43.6771 58.8923 43.6708C58.8923 43.6518 58.9174 43.6391 58.9111 43.6328C58.9111 43.6328 58.8986 43.6328 58.8923 43.6328C58.8798 43.6328 58.861 43.5948 58.8422 43.6138C58.7106 43.329 58.579 42.5695 58.3597 42.1708C58.272 41.848 58.0778 41.5885 57.9524 41.3037C57.9336 41.2594 57.8835 41.1645 57.8585 41.1202C57.8021 41.0252 57.7206 40.9113 57.6454 40.791C57.5138 40.5948 57.3885 40.424 57.2757 40.2721C57.1441 39.9936 56.9436 39.867 56.787 39.6645C56.7243 39.5885 56.6805 39.5062 56.599 39.4303C56.5489 39.386 56.4486 39.2974 56.3922 39.2404C56.3421 39.1898 56.2356 39.0695 56.1917 39.0189C56.1416 38.9683 56.0977 38.9366 56.0476 38.8986C55.9912 38.848 55.9599 38.81 55.891 38.7594C55.8471 38.7341 55.7218 38.6455 55.6779 38.6138C55.4398 38.4113 55.1453 38.2341 54.8821 38.1012C54.4247 37.8164 53.9861 37.6518 53.3908 37.4429C53.2342 37.4113 53.1277 37.3607 52.971 37.329C52.9334 37.329 52.9334 37.3353 52.877 37.329C52.5575 37.2657 52.2191 37.2024 51.887 37.1834C51.8745 37.1834 51.862 37.1898 51.8369 37.1961C51.6113 37.1708 51.3482 37.1518 51.1038 37.1328C50.8594 37.1455 50.6213 37.1645 50.4459 37.1898C50.1639 37.1708 49.8443 37.2531 49.506 37.3227C49.3493 37.3543 49.1864 37.3607 49.036 37.4176C48.7541 37.5252 48.3656 37.6012 48.1087 37.7404C48.0585 37.7657 47.9332 37.8353 47.8831 37.8607C47.7452 37.9303 47.5823 37.9746 47.4507 38.0695C46.9119 38.3986 46.3229 38.8227 45.9407 39.2214C45.8153 39.3353 45.7339 39.4556 45.6086 39.6012C45.4018 39.8353 45.195 40.0885 45.0133 40.3417C44.982 40.3923 44.9256 40.4936 44.9005 40.5379C44.8003 40.6961 44.7 40.8417 44.606 41.0189C44.487 41.2277 44.3867 41.4493 44.2927 41.6708C44.2614 41.7467 44.2301 41.8164 44.205 41.8923C44.1925 41.924 44.1799 41.9493 44.1674 41.9809V42.0189C44.1361 42.0379 44.0859 42.0315 44.0421 42.0379H43.9669H43.7413C43.428 42.0379 43.1022 42.0379 42.814 42.0379C42.6761 42.0632 42.5445 42.0379 42.4004 42.0442C41.9618 42.0569 41.3916 42.0822 40.9342 42.0632C38.904 42.0885 37.0806 42.1138 35.0379 42.1391C34.8876 42.1202 34.6557 42.1328 34.5241 42.1391C34.4928 42.1265 34.4051 42.1265 34.3424 42.1265C34.098 42.1581 33.7973 42.1265 33.4965 42.1391C33.4213 42.1708 33.2333 42.1455 33.1206 42.1708C33.0704 42.1518 33.1895 42.1581 33.1018 42.1455C32.9075 42.1961 32.2371 42.1771 31.9426 42.1898C31.9614 42.1898 31.9676 42.1961 31.9426 42.1961C31.8674 42.1834 31.836 42.2088 31.7546 42.2088C31.2095 42.2088 30.8272 42.2657 30.3636 42.2847C30.3072 42.2784 30.1505 42.2531 30.0941 42.2721C30.1756 42.2721 30.2821 42.2721 30.2758 42.2974C30.138 42.291 29.9563 42.2974 29.8623 42.3164C29.6931 42.3164 29.5991 42.3037 29.4487 42.3227C29.4111 42.3227 29.4863 42.348 29.4049 42.348C29.1668 42.3353 29.0414 42.3543 28.8284 42.348C28.7657 42.367 28.5088 42.3733 28.4336 42.367C28.3647 42.3733 28.5088 42.386 28.4524 42.3923C28.2582 42.3986 28.0765 42.405 27.8948 42.3923C27.8509 42.405 27.8196 42.4176 27.7444 42.4176C27.6943 42.4176 27.7569 42.3986 27.6817 42.405C27.6128 42.4176 27.7381 42.424 27.7193 42.4429C27.6191 42.4493 27.6379 42.4619 27.594 42.4746C27.4562 42.4619 27.3622 42.4872 27.2431 42.4936C27.0739 42.4936 27.005 42.4936 26.8484 42.4999C26.7418 42.4999 26.698 42.5189 26.5789 42.5189C26.4787 42.5189 26.3972 42.4999 26.2907 42.5062C26.2343 42.5062 26.3283 42.5252 26.2468 42.5252C25.8646 42.5252 25.4887 42.5379 25.2067 42.5632C25.639 42.5252 25.9523 42.5632 26.3283 42.5315C26.3847 42.5505 26.4975 42.5189 26.5539 42.5442C26.5789 42.5315 26.4912 42.5252 26.5789 42.5252C26.604 42.5252 26.6165 42.5315 26.6604 42.5252C26.604 42.5505 26.6855 42.5505 26.7168 42.5695C27.0301 42.5695 27.2995 42.5632 27.5627 42.5569C27.6128 42.5569 27.5251 42.5442 27.5877 42.5379C27.7068 42.5379 27.7444 42.5379 27.901 42.5315C27.9386 42.5505 28.0201 42.5569 27.9762 42.5822C27.6003 42.5822 27.0927 42.6138 26.6479 42.6202C26.51 42.6202 26.3722 42.6012 26.297 42.6328C26.4975 42.6265 26.6604 42.6581 26.8296 42.6581C27.0551 42.6581 27.2932 42.6328 27.5126 42.6391C27.5564 42.6391 27.6191 42.6455 27.6567 42.6518C27.7005 42.6518 27.7757 42.6391 27.8259 42.6391C27.8822 42.6391 27.8822 42.6518 27.9261 42.6518C28.0201 42.6518 28.0953 42.6328 28.1955 42.6328C28.371 42.6328 28.5402 42.6518 28.7344 42.6455C28.772 42.6518 28.7532 42.6708 28.7093 42.6771C28.4838 42.6771 28.4462 42.6771 28.2143 42.6771C28.2394 42.6771 28.2582 42.6771 28.2519 42.6898C28.183 42.6898 28.1579 42.6834 28.1078 42.6898C28.277 42.6898 28.2645 42.7214 28.2081 42.7404C27.782 42.7404 27.2557 42.7531 26.9048 42.7404C26.8672 42.7531 26.8421 42.7657 26.7794 42.7657C26.3471 42.7657 25.9711 42.7721 25.52 42.7784C26.0025 42.8037 26.51 42.791 27.0677 42.7784C27.0865 42.7784 27.0677 42.7974 27.1303 42.791C27.3684 42.7784 27.6504 42.7847 27.8321 42.7784C27.9073 42.7974 27.9888 42.8164 28.0702 42.8417C28.6592 42.8227 29.0916 42.905 29.6555 42.905C29.6555 42.9176 29.6994 42.924 29.7119 42.9303C29.668 42.9429 29.6367 42.9556 29.5866 42.9683C29.4926 42.9683 29.3986 42.9746 29.3171 42.9683C28.8409 43.0062 28.1705 42.9809 27.5752 43.0062C27.5063 43.0315 27.5627 43.0442 27.6065 43.0632C27.8885 43.0759 28.1517 43.0442 28.4524 43.0759C28.559 43.1265 28.4524 43.1645 28.2143 43.1708C27.8259 43.1708 27.1617 43.1708 26.911 43.1645C25.6954 43.1771 24.6992 43.1898 23.4961 43.2088C24.1415 43.2214 24.7367 43.1898 25.3132 43.2088C25.3132 43.1961 25.332 43.1961 25.3759 43.1961C25.9461 43.1961 26.5727 43.1961 27.0739 43.1834C27.2807 43.2151 27.688 43.1834 27.8948 43.2088C27.8446 43.2594 27.6692 43.2847 27.4499 43.2974C27.6755 43.2974 27.8822 43.31 28.0702 43.3164C28.2206 43.3164 28.49 43.3037 28.5652 43.3164C28.584 43.3164 28.5464 43.329 28.584 43.329C28.5214 43.329 28.6968 43.329 28.7093 43.329C28.7908 43.329 28.7783 43.3164 28.8723 43.3227C28.9976 43.3227 28.9976 43.3227 29.079 43.3353C29.5365 43.3353 29.9124 43.3353 30.3823 43.3353C30.4325 43.3353 30.5139 43.3353 30.5265 43.3353C30.5703 43.3353 30.5265 43.348 30.5891 43.348C30.6205 43.348 30.6079 43.3353 30.6518 43.3417C30.8272 43.3417 31.0215 43.3417 31.1907 43.348C31.6167 43.348 32.1243 43.348 32.4689 43.3543C32.5441 43.3543 32.4438 43.3733 32.5504 43.3733C33.1644 43.3796 33.7973 43.3923 34.4301 43.3986C34.4803 43.3986 34.4427 43.4176 34.5116 43.4176C34.5993 43.4176 34.5805 43.3986 34.6557 43.3986C34.7058 43.3986 34.7497 43.4113 34.7748 43.424C35.5079 43.4429 36.2661 43.424 37.0305 43.4176C37.7448 43.4176 38.4466 43.4113 39.1171 43.405C39.6434 43.405 40.1509 43.3796 40.6271 43.3986C41.2976 43.3923 41.8177 43.386 42.4067 43.3796C42.8328 43.3796 43.309 43.386 43.6661 43.3796C43.7162 43.3796 43.8228 43.3733 43.8729 43.367C43.9982 43.367 44.2426 43.3796 44.3679 43.3796C44.6248 43.3796 44.8942 43.3796 45.1449 43.367C45.2201 43.1012 45.2953 42.8417 45.3767 42.5948L45.4582 42.3923L45.5083 42.2847C45.5334 42.2151 45.571 42.1518 45.6023 42.0822C45.665 41.9493 45.7339 41.8164 45.8091 41.6898C45.8843 41.5442 45.9595 41.3986 46.0534 41.2594C46.1098 41.1645 46.185 41.0759 46.2539 40.9872C46.4357 40.7277 46.6362 40.4746 46.8429 40.2594C47.1312 39.9809 47.4507 39.7341 47.7703 39.4936C48.1463 39.2657 48.6225 39.0189 49.0298 38.886C49.1989 38.8543 49.3681 38.7974 49.5373 38.7404C49.719 38.7088 49.9007 38.6708 50.095 38.6328C50.12 38.6328 50.1764 38.6265 50.2078 38.6202C50.5524 38.5948 50.8218 38.5822 51.1226 38.5569C51.4233 38.5695 51.7116 38.5822 51.9497 38.6075C52.1314 38.6075 52.2755 38.6708 52.4384 38.7024C52.6139 38.7404 52.783 38.7531 52.946 38.8164C52.9836 38.829 53.0587 38.8607 53.1026 38.8796C53.2655 38.9429 53.441 38.9619 53.6102 39.0505C53.8733 39.1645 54.1365 39.3227 54.4185 39.4936C54.6378 39.6265 54.9072 39.8923 55.1516 40.0569C55.4899 40.424 55.8659 40.7594 56.1416 41.1961C56.2293 41.348 56.317 41.4809 56.4173 41.6265C56.4799 41.7974 56.6178 41.9746 56.7055 42.1771C56.7995 42.3796 56.8872 42.5885 56.9562 42.8037C57.0752 43.1075 57.2068 43.4936 57.2005 43.7277C57.1629 43.7974 57.1943 43.848 57.2319 43.9683C57.2695 44.1771 57.3196 44.3986 57.3321 44.6708C57.3321 44.9683 57.2945 44.9556 57.2632 45.1138C57.2632 45.2341 57.2632 45.3543 57.2632 45.4683C57.376 45.4683 57.5326 45.4683 57.7018 45.4619C57.99 45.4746 58.1905 45.5189 58.5978 45.5189L58.5853 45.5062ZM28.4086 42.4746C28.4086 42.4746 28.4086 42.4683 28.3898 42.4683C28.4336 42.4493 28.5339 42.4809 28.4086 42.4746ZM28.3647 42.4809C28.1955 42.4809 27.9512 42.5062 27.8259 42.4809C27.7945 42.4809 27.8572 42.5062 27.8008 42.5126C27.7256 42.4999 27.6379 42.4936 27.5126 42.4936C27.5063 42.4556 27.7569 42.4809 27.7695 42.4429C27.8634 42.4429 27.9136 42.4429 27.9574 42.4303C28.1579 42.4429 28.2018 42.4176 28.3522 42.4303C28.3146 42.4493 28.3773 42.4493 28.3647 42.4683V42.4809Z" fill="white"/>
<path fill-rule="evenodd" clip-rule="evenodd" d="M31.5476 45.8425C31.5476 45.8425 31.5355 45.8486 31.5234 45.8486C31.5234 45.8365 31.5416 45.8304 31.5476 45.8425Z" fill="white"/>
<path fill-rule="evenodd" clip-rule="evenodd" d="M31.1656 44.5781C31.1656 44.5781 31.1348 44.5971 31.1348 44.5781C31.1471 44.5781 31.1532 44.5781 31.1656 44.5781Z" fill="white"/>
<path fill-rule="evenodd" clip-rule="evenodd" d="M31.1285 44.5446C31.1285 44.5446 31.11 44.5446 31.0977 44.5446C31.0977 44.532 31.1223 44.532 31.1285 44.5446Z" fill="white"/>
<path fill-rule="evenodd" clip-rule="evenodd" d="M31.0093 44.74C31.0093 44.74 30.9908 44.7527 30.9785 44.74C30.9785 44.7273 30.997 44.74 31.0093 44.74Z" fill="white"/>
<path fill-rule="evenodd" clip-rule="evenodd" d="M30.9594 44.5391C30.9594 44.5391 30.9348 44.5517 30.9102 44.5517C30.9163 44.5391 30.941 44.5391 30.9594 44.5391Z" fill="white"/>
<path fill-rule="evenodd" clip-rule="evenodd" d="M30.8166 45.5326C30.8166 45.5326 30.7415 45.5516 30.7227 45.5326C30.754 45.5452 30.7916 45.5263 30.8166 45.5326Z" fill="white"/>
<path fill-rule="evenodd" clip-rule="evenodd" d="M30.7468 45.0962C30.7155 45.1215 30.6591 45.0962 30.6152 45.1088C30.6152 45.0835 30.6716 45.1088 30.6842 45.0898C30.6967 45.0898 30.703 45.0898 30.7092 45.1025C30.7218 45.1025 30.728 45.0835 30.7406 45.1025L30.7468 45.0962Z" fill="white"/>
<path fill-rule="evenodd" clip-rule="evenodd" d="M30.358 45.0312C30.358 45.0312 30.358 45.0502 30.3457 45.0502C30.3457 45.0502 30.3457 45.0376 30.3457 45.0312C30.3457 45.0312 30.358 45.0312 30.3642 45.0312H30.358Z" fill="white"/>
<path fill-rule="evenodd" clip-rule="evenodd" d="M30.1966 45.1836C30.1966 45.1836 30.1151 45.2026 30.0775 45.1836C30.0775 45.1836 30.0775 45.1963 30.065 45.1899C30.0462 45.1899 30.0023 45.1899 30.0462 45.1899C30.0963 45.1773 30.1402 45.1899 30.1966 45.1836Z" fill="white"/>
<path fill-rule="evenodd" clip-rule="evenodd" d="M30.1773 44.9573C30.1773 44.9573 30.1588 44.9636 30.1465 44.9636C30.1465 44.951 30.1711 44.951 30.1773 44.9573Z" fill="white"/>
<path fill-rule="evenodd" clip-rule="evenodd" d="M30.1385 45.5525C30.1385 45.5525 30.1139 45.5525 30.1016 45.5525C30.1077 45.5525 30.1262 45.5398 30.1385 45.5525Z" fill="white"/>
<path fill-rule="evenodd" clip-rule="evenodd" d="M30.1449 45.0312C30.1449 45.0312 30.1141 45.0376 30.1018 45.0502C30.0895 45.0312 30.1326 45.0376 30.1449 45.0312Z" fill="white"/>
<path fill-rule="evenodd" clip-rule="evenodd" d="M30.1254 44.9688C30.1254 44.9688 30.0947 44.9814 30.0762 44.9814C30.0885 44.9688 30.107 44.9751 30.1254 44.9688Z" fill="white"/>
<path fill-rule="evenodd" clip-rule="evenodd" d="M30.0953 45.6602C30.0953 45.6602 30.0768 45.6728 30.0645 45.6791C30.0645 45.6665 30.0829 45.6665 30.0953 45.6602Z" fill="white"/>
<path fill-rule="evenodd" clip-rule="evenodd" d="M30.0776 45.551C30.0776 45.551 30.0149 45.5574 29.9961 45.5574C30.0274 45.5447 30.0462 45.5447 30.0776 45.551Z" fill="white"/>
<path fill-rule="evenodd" clip-rule="evenodd" d="M30.0709 44.9841C30.0709 44.9841 30.0208 44.9841 30.002 44.9841C30.0208 44.9715 30.0521 44.9968 30.0709 44.9841Z" fill="white"/>
<path fill-rule="evenodd" clip-rule="evenodd" d="M30.0132 45.1924C30.0132 45.1924 29.9947 45.1987 29.9824 45.2051C29.9824 45.1861 30.0009 45.1924 30.0132 45.1924Z" fill="white"/>
<path fill-rule="evenodd" clip-rule="evenodd" d="M29.9761 45.1463C29.9761 45.1463 29.9576 45.1463 29.9453 45.1463C29.9453 45.1336 29.97 45.1463 29.9761 45.1463Z" fill="white"/>
<path fill-rule="evenodd" clip-rule="evenodd" d="M29.9377 45.0908C29.9377 45.0908 29.9008 45.1034 29.9069 45.0781C29.9131 45.0781 29.9131 45.0845 29.9131 45.0908C29.9254 45.0908 29.9193 45.0845 29.9316 45.0908H29.9377Z" fill="white"/>
<path fill-rule="evenodd" clip-rule="evenodd" d="M29.8054 45.6083C29.8054 45.6083 29.7746 45.6146 29.75 45.6083C29.7623 45.6083 29.7931 45.602 29.8054 45.6083Z" fill="white"/>
<path fill-rule="evenodd" clip-rule="evenodd" d="M29.7945 45.6328C29.7945 45.6328 29.7703 45.6449 29.7764 45.6328C29.7824 45.6328 29.7885 45.6328 29.7945 45.6328Z" fill="white"/>
<path fill-rule="evenodd" clip-rule="evenodd" d="M29.7574 45.8753C29.7574 45.8753 29.7389 45.8879 29.7266 45.8816C29.7266 45.8689 29.7512 45.8689 29.7574 45.8753Z" fill="white"/>
<path fill-rule="evenodd" clip-rule="evenodd" d="M29.6375 45.8477C29.6005 45.8666 29.5944 45.8477 29.6375 45.8477Z" fill="white"/>
<path fill-rule="evenodd" clip-rule="evenodd" d="M30.5713 45.8617C30.5713 45.8617 30.5525 45.8681 30.5525 45.8807C30.54 45.8617 30.5149 45.8807 30.4961 45.8681C30.5149 45.8491 30.54 45.8681 30.5713 45.8617Z" fill="white"/>
<path fill-rule="evenodd" clip-rule="evenodd" d="M30.1086 45.4686C30.1086 45.4686 30.1024 45.4623 30.0898 45.4686C30.0898 45.4623 30.0898 45.4623 30.0898 45.456C30.071 45.456 30.0585 45.456 30.0397 45.456C30.0397 45.456 30.0397 45.4496 30.0397 45.4433C30.0146 45.4686 29.9896 45.4306 29.9395 45.4433C29.9833 45.418 30.0898 45.437 30.1274 45.4306C30.1274 45.4496 30.0836 45.4306 30.0836 45.4496C30.0836 45.4623 30.1086 45.4496 30.1024 45.475L30.1086 45.4686Z" fill="white"/>
<path fill-rule="evenodd" clip-rule="evenodd" d="M30.0634 45.0408C30.0634 45.0534 30.0449 45.0408 30.0449 45.0408C30.0449 45.0281 30.1065 45.0408 30.0634 45.0408Z" fill="white"/>
<path fill-rule="evenodd" clip-rule="evenodd" d="M29.7576 45.0897C29.7576 45.0897 29.7576 45.077 29.7576 45.0707C29.7326 45.0707 29.6887 45.0707 29.6699 45.058C29.7013 45.0454 29.7702 45.077 29.789 45.0454C29.789 45.0454 29.8015 45.0454 29.8078 45.058C29.883 45.0264 29.9582 45.058 30.0333 45.0391C30.002 45.0897 29.9206 45.0201 29.883 45.0707C29.8516 45.0707 29.789 45.0581 29.7451 45.0897H29.7576Z" fill="white"/>
<path fill-rule="evenodd" clip-rule="evenodd" d="M29.7879 45.6708C29.7879 45.6708 29.7697 45.6829 29.7637 45.689C29.7637 45.689 29.7818 45.6587 29.7879 45.6708Z" fill="white"/>
<path fill-rule="evenodd" clip-rule="evenodd" d="M38.0913 46.0014C38.0913 46.0014 38.1289 45.9824 38.1477 45.9824C38.1916 45.9824 38.2355 46.0014 38.2793 45.9887C38.3169 45.9824 38.3608 45.9571 38.3984 45.9507C38.4297 45.9507 38.4422 45.9381 38.461 45.9318C38.5237 45.9128 38.5738 45.9254 38.5989 45.8748C38.6427 45.8432 38.6929 45.8242 38.7305 45.7989H38.7493C38.8433 45.7292 38.9059 45.609 39.0187 45.5583C39.0312 45.533 39.0375 45.4951 39.0563 45.4571C39.0626 45.4444 39.0814 45.4318 39.0876 45.4191C39.1127 45.3621 39.0876 45.2925 39.1315 45.2482C39.1315 45.2356 39.1315 45.2292 39.1252 45.2229C39.1252 45.109 39.1064 45.014 39.1252 44.9254C39.0939 44.8748 39.1002 44.8115 39.0814 44.7672C39.0688 44.7356 39.0375 44.7102 39.0187 44.6786C38.9999 44.647 38.9748 44.6216 38.956 44.5837C38.956 44.552 38.931 44.5457 38.9247 44.514C38.8934 44.4951 38.8683 44.4634 38.837 44.4444C38.837 44.4318 38.8245 44.4254 38.8245 44.4128C38.7555 44.3558 38.6866 44.2799 38.5926 44.2609C38.5863 44.2609 38.5675 44.2609 38.555 44.2609C38.4861 44.2609 38.3796 44.2482 38.342 44.2039C38.3294 44.2039 38.3294 44.2102 38.3169 44.2039C38.3106 44.1849 38.2731 44.1406 38.2417 44.1406C38.2292 44.1406 38.2104 44.1723 38.1853 44.1786C38.1477 44.1849 38.1164 44.147 38.0851 44.1533C38.0725 44.1533 38.0537 44.1849 38.0412 44.1913C37.9974 44.2039 37.9159 44.1913 37.8846 44.1913C37.8595 44.1849 37.847 44.1596 37.8282 44.1659C37.8094 44.1659 37.7968 44.1913 37.7968 44.2292C37.7467 44.3052 37.6089 44.2482 37.5274 44.2799C37.4647 44.2545 37.4084 44.2989 37.352 44.2925C37.3394 44.2925 37.3269 44.2799 37.3144 44.2799C37.2956 44.2799 37.2705 44.2925 37.2454 44.2989C37.2016 44.3052 37.164 44.3052 37.1264 44.3178C37.07 44.2735 37.0324 44.3242 36.9823 44.3178C36.9635 44.3178 36.9509 44.3052 36.9259 44.3052C36.9071 44.3052 36.8945 44.3178 36.8757 44.3178C36.857 44.3178 36.8382 44.3052 36.8194 44.3052C36.8068 44.3052 36.7943 44.3115 36.788 44.3115C36.7755 44.3115 36.763 44.2989 36.7504 44.2989C36.7379 44.2989 36.7191 44.3178 36.7066 44.3178C36.6502 44.3242 36.5875 44.3052 36.5374 44.3432C36.4434 44.3115 36.3557 44.3621 36.2429 44.3305C36.2116 44.3368 36.1928 44.3432 36.1614 44.3368C36.1552 44.3368 36.1552 44.3495 36.1426 44.3495C36.0862 44.3368 36.0236 44.3748 35.9609 44.3558C35.9609 44.3558 35.9609 44.3685 35.9547 44.3685C35.8732 44.3495 35.7667 44.3432 35.6978 44.3685C35.6476 44.3432 35.585 44.3685 35.5223 44.3685C35.491 44.3685 35.4659 44.3558 35.4346 44.3621C35.3782 44.3748 35.3093 44.3621 35.2591 44.3621C35.2403 44.3621 35.2278 44.3748 35.2153 44.3811C35.1902 44.3811 35.1589 44.3748 35.1276 44.3811C35.0148 44.4064 34.8832 44.3875 34.7829 44.3875C34.7516 44.3875 34.7265 44.4001 34.6889 44.4064C34.6325 44.4128 34.5699 44.3938 34.5135 44.3938C34.501 44.3938 34.4822 44.4064 34.4696 44.4064C34.4383 44.4064 34.4007 44.4064 34.3631 44.4064C34.2754 44.4064 34.1877 44.4318 34.0999 44.4064C33.9934 44.4381 33.8368 44.4254 33.7115 44.4318C33.6864 44.4571 33.6551 44.4318 33.63 44.4381C33.5423 44.4507 33.4295 44.4761 33.3355 44.4571C32.947 44.5014 32.5397 44.4824 32.1512 44.533C32.1199 44.514 32.076 44.5267 32.0447 44.533C32.0447 44.5204 32.0197 44.5204 32.0071 44.5204C31.957 44.552 31.9006 44.5204 31.8379 44.533C31.8254 44.5647 31.7878 44.5394 31.7627 44.5647C31.7502 44.5457 31.7753 44.552 31.7627 44.5394C31.7252 44.59 31.5873 44.571 31.5309 44.5837V44.59C31.5184 44.5773 31.5121 44.6027 31.4933 44.6027C31.3868 44.6027 31.3053 44.6596 31.2113 44.6786C31.1988 44.6723 31.1675 44.647 31.155 44.6659C31.1738 44.6659 31.1926 44.6659 31.1926 44.6913C31.1675 44.6849 31.1299 44.6913 31.1111 44.7102C31.0735 44.7102 31.061 44.6976 31.0296 44.7166C31.0234 44.7166 31.0359 44.7419 31.0234 44.7419C30.9732 44.7292 30.9482 44.7482 30.9043 44.7419C30.8918 44.7609 30.8417 44.7672 30.8229 44.7609C30.8103 44.7672 30.8354 44.7799 30.8229 44.7862C30.7853 44.7925 30.7477 44.7989 30.7101 44.7862C30.7038 44.7989 30.6975 44.8115 30.6787 44.8115C30.6662 44.8115 30.6787 44.7925 30.6662 44.7989C30.6537 44.8115 30.6787 44.8178 30.6725 44.8368C30.6537 44.8432 30.6537 44.8558 30.6474 44.8685C30.6224 44.8558 30.6036 44.8811 30.5785 44.8875C30.5534 44.8938 30.5221 44.8875 30.497 44.8938C30.4782 44.8938 30.4657 44.9128 30.4406 44.9128C30.4218 44.9128 30.403 44.8938 30.3842 44.9001C30.3717 44.9001 30.3905 44.9191 30.378 44.9191C30.3028 44.9191 30.2276 44.9318 30.1712 44.9571C30.2589 44.9191 30.3216 44.9571 30.3968 44.9254C30.4093 44.9444 30.4281 44.9128 30.4406 44.9381C30.4406 44.9254 30.4281 44.9191 30.4406 44.9191C30.4406 44.9191 30.4469 44.9254 30.4594 44.9191C30.4469 44.9444 30.4594 44.9444 30.472 44.9634C30.5346 44.9634 30.5848 44.9508 30.6411 44.9508C30.6537 44.9508 30.6349 44.9381 30.6411 44.9318C30.6599 44.9318 30.6787 44.9318 30.7038 44.9254C30.7101 44.9444 30.7289 44.9508 30.7163 44.9761C30.6411 44.9761 30.5409 45.0077 30.4469 45.014C30.4218 45.014 30.3905 44.9951 30.378 45.0267C30.4156 45.0204 30.4532 45.052 30.4845 45.052C30.5284 45.052 30.5785 45.0267 30.6224 45.033C30.6349 45.033 30.6411 45.0457 30.6537 45.0457C30.6599 45.0457 30.6787 45.033 30.685 45.033C30.6975 45.033 30.6975 45.0457 30.7038 45.0457C30.7226 45.0457 30.7351 45.0267 30.7602 45.0267C30.7978 45.0267 30.8291 45.0457 30.8667 45.0394C30.873 45.0457 30.8667 45.0647 30.8667 45.071C30.8229 45.071 30.8166 45.071 30.7665 45.071C30.7665 45.071 30.7727 45.071 30.7727 45.0837C30.7602 45.0837 30.7539 45.0773 30.7414 45.0837C30.779 45.0837 30.7727 45.1153 30.7602 45.1343C30.6725 45.1343 30.5722 45.147 30.497 45.1343C30.4908 45.147 30.4845 45.1596 30.472 45.1596C30.3905 45.1723 30.3028 45.1596 30.2213 45.1723C30.3153 45.1976 30.4218 45.1849 30.5346 45.1723C30.5346 45.1723 30.5346 45.1913 30.5472 45.1849C30.5973 45.1723 30.6537 45.1786 30.6913 45.1723C30.7101 45.1913 30.7226 45.2102 30.7414 45.2356C30.8605 45.2166 30.9482 45.2989 31.061 45.2989C31.061 45.3115 31.0672 45.3178 31.0735 45.3242C31.0672 45.3368 31.061 45.3495 31.0484 45.3621C31.0296 45.3621 31.0108 45.3685 30.992 45.3621C30.8981 45.4001 30.7602 45.3748 30.6411 45.4001C30.6286 45.4254 30.6411 45.4381 30.6474 45.4571C30.7038 45.4697 30.7539 45.4381 30.8166 45.4697C30.8354 45.5204 30.8166 45.5583 30.7665 45.5647C30.6913 45.5647 30.5534 45.5647 30.5033 45.5583C30.2777 45.59 30.0522 45.5773 29.8203 45.6026C29.9519 45.6153 30.0709 45.5837 30.1837 45.6026C30.1837 45.59 30.1837 45.59 30.1963 45.59C30.3091 45.59 30.4344 45.59 30.5346 45.5773C30.5785 45.609 30.6599 45.5773 30.6975 45.6026C30.685 45.6533 30.6537 45.6786 30.6098 45.6913C30.6537 45.6913 30.6975 45.7039 30.7351 45.7102C30.7665 45.7102 30.8166 45.6976 30.8354 45.7102V45.7229C30.8229 45.7229 30.8605 45.7229 30.8605 45.7229C30.8793 45.7229 30.873 45.7102 30.8918 45.7166C30.9168 45.7166 30.9168 45.7166 30.9356 45.7292C31.0234 45.7356 31.1111 45.7229 31.1988 45.7292C31.2051 45.7292 31.2239 45.7292 31.2301 45.7292C31.2364 45.7292 31.2301 45.7419 31.2427 45.7419C31.2427 45.7419 31.2427 45.7292 31.2552 45.7356C31.2865 45.7356 31.3304 45.7419 31.3617 45.7419C31.4495 45.7419 31.5497 45.7545 31.6186 45.7482C31.6312 45.7482 31.6186 45.7672 31.6374 45.7672C31.7565 45.7799 31.8881 45.7862 32.0134 45.7925C32.0259 45.7925 32.0134 45.8115 32.0322 45.8115C32.051 45.8115 32.0447 45.7925 32.0635 45.7925C32.076 45.7925 32.0823 45.8052 32.0886 45.8178C32.239 45.8368 32.3893 45.8178 32.5397 45.8115C32.6838 45.8052 32.8217 45.8052 32.9595 45.7989C33.0661 45.7989 33.1663 45.7735 33.2603 45.7925C33.3856 45.7799 33.4984 45.7799 33.6175 45.7735C33.7052 45.7735 33.7992 45.7799 33.8681 45.7735C33.8806 45.7735 33.8932 45.7609 33.912 45.7609C33.937 45.7609 33.9558 45.7735 33.9809 45.7735C34.0373 45.7735 34.0999 45.7545 34.1626 45.7545C34.2315 45.7545 34.2942 45.7545 34.3568 45.7545C34.3944 45.7545 34.4258 45.7419 34.4634 45.7419C34.4884 45.7419 34.5135 45.7545 34.5386 45.7545C34.6075 45.7545 34.6827 45.7356 34.7453 45.7356C34.8331 45.7356 34.927 45.7609 35.0148 45.7356C35.115 45.7482 35.2341 45.7482 35.3281 45.7356C35.4033 45.7735 35.4847 45.7356 35.5724 45.7419C35.5787 45.7419 35.585 45.7482 35.5975 45.7545C35.7291 45.7799 35.8732 45.7356 35.986 45.7545C36.0236 45.7292 36.0612 45.7545 36.0988 45.7609C36.1364 45.7609 36.174 45.7482 36.2178 45.7482C36.2304 45.7482 36.2429 45.7545 36.2554 45.7609C36.293 45.7609 36.3306 45.7482 36.3745 45.7482C36.4371 45.7482 36.5061 45.7862 36.5813 45.7609C36.6376 45.7799 36.7254 45.7989 36.788 45.7735C36.9008 45.8052 37.0073 45.7735 37.1264 45.7862C37.164 45.7862 37.2016 45.8178 37.2392 45.7925C37.2768 45.8178 37.3269 45.8052 37.377 45.8052C37.4271 45.8052 37.4773 45.8242 37.5274 45.8305C37.5963 45.8368 37.6903 45.8178 37.7404 45.8685C37.7655 45.9697 37.8156 45.8178 37.872 45.8432C37.9034 45.8621 37.8971 45.8938 37.9096 45.9318C37.9347 45.9444 37.9598 45.9318 37.9911 45.9318C38.0224 45.9444 38.0412 45.9887 38.0851 45.9887L38.0913 46.0014ZM30.8291 44.8875V44.8811C30.8354 44.8621 30.8605 44.8938 30.8291 44.8875ZM30.8229 44.8938C30.7853 44.8938 30.7414 44.9191 30.7163 44.8938C30.7101 44.8938 30.7163 44.9191 30.7163 44.9254C30.7038 44.9128 30.685 44.9064 30.6599 44.9064C30.6599 44.8685 30.7101 44.8938 30.7101 44.8558C30.7289 44.8558 30.7414 44.8558 30.7477 44.8432C30.7853 44.8558 30.7978 44.8305 30.8291 44.8432C30.8229 44.8621 30.8291 44.8621 30.8291 44.8811L30.8229 44.8938Z" fill="white"/>
</g>
<defs>
<clipPath id="clip0_868_5690">
<rect width="59" height="23" fill="white" transform="translate(5 23)"/>
</clipPath>
</defs>
</svg>
