<svg width="70" height="70" viewBox="0 0 70 70" fill="none" xmlns="http://www.w3.org/2000/svg">
<g clip-path="url(#clip0_868_8339)">
<path fill-rule="evenodd" clip-rule="evenodd" d="M36.6562 42.1848C36.704 42.1848 36.7888 42.1797 36.8842 42.1797C36.863 42.1899 36.7305 42.195 36.6562 42.1848Z" fill="white"/>
<path fill-rule="evenodd" clip-rule="evenodd" d="M40.125 43.1334C40.1939 43.1334 40.4113 43.1232 40.3901 43.1334C40.2681 43.1334 40.2098 43.1334 40.125 43.1334Z" fill="white"/>
<path fill-rule="evenodd" clip-rule="evenodd" d="M40.5 43.1523C40.5 43.1523 40.6856 43.1523 40.7651 43.1523C40.7651 43.1625 40.5477 43.1574 40.5 43.1523Z" fill="white"/>
<path fill-rule="evenodd" clip-rule="evenodd" d="M41.5664 43.0098C41.6194 43.0047 41.7679 42.9996 41.8315 43.0098C41.8156 43.0149 41.6459 43.0098 41.5664 43.0098Z" fill="white"/>
<path fill-rule="evenodd" clip-rule="evenodd" d="M42.0547 43.1625C42.1448 43.1523 42.2986 43.1523 42.5106 43.1523C42.4364 43.1625 42.219 43.1574 42.0547 43.1625Z" fill="white"/>
<path fill-rule="evenodd" clip-rule="evenodd" d="M43.375 42.4209C43.6083 42.4209 44.0801 42.4056 44.2444 42.4209C43.9635 42.4107 43.6348 42.426 43.375 42.4209Z" fill="white"/>
<path fill-rule="evenodd" clip-rule="evenodd" d="M43.9941 42.7446C44.2857 42.7242 44.8 42.7446 45.1711 42.7344C45.2241 42.7497 44.6303 42.7344 44.519 42.7497C44.4395 42.7497 44.3705 42.7497 44.2963 42.7446C44.1956 42.7446 44.1002 42.7548 43.9941 42.7446Z" fill="white"/>
<path fill-rule="evenodd" clip-rule="evenodd" d="M47.5463 42.7926C47.5463 42.7926 47.5622 42.7773 47.663 42.7773C47.6895 42.7773 47.7001 42.7875 47.6948 42.7926H47.541H47.5463Z" fill="white"/>
<path fill-rule="evenodd" clip-rule="evenodd" d="M49.0209 42.6794C49.2542 42.6641 49.7896 42.6641 50.0812 42.6794C50.1183 42.6794 50.1236 42.6692 50.1979 42.6743C50.3728 42.6743 50.7704 42.6743 50.3834 42.6743C49.8745 42.6743 49.5458 42.6743 49.0156 42.6794H49.0209Z" fill="white"/>
<path fill-rule="evenodd" clip-rule="evenodd" d="M49.1953 42.8488C49.2536 42.8437 49.3438 42.8438 49.4604 42.8438C49.4339 42.8539 49.2377 42.8539 49.1953 42.8488Z" fill="white"/>
<path fill-rule="evenodd" clip-rule="evenodd" d="M49.5547 42.403C49.5971 42.3928 49.7933 42.403 49.894 42.403C49.8198 42.403 49.6342 42.4132 49.5547 42.403Z" fill="white"/>
<path fill-rule="evenodd" clip-rule="evenodd" d="M49.4805 42.7914C49.5759 42.7812 49.7827 42.7863 49.8993 42.7812C50.0053 42.7965 49.6236 42.7914 49.4805 42.7914Z" fill="white"/>
<path fill-rule="evenodd" clip-rule="evenodd" d="M49.6562 42.8383C49.7305 42.8281 49.9531 42.8332 50.1122 42.8281C50.0168 42.8383 49.8047 42.8332 49.6562 42.8383Z" fill="white"/>
<path fill-rule="evenodd" clip-rule="evenodd" d="M49.9219 42.3239C49.9219 42.3239 50.0862 42.3137 50.1922 42.3086C50.171 42.3188 50.0173 42.3188 49.9219 42.3239Z" fill="white"/>
<path fill-rule="evenodd" clip-rule="evenodd" d="M50.0859 42.4043C50.2079 42.3941 50.6373 42.3992 50.8441 42.4043C50.579 42.4145 50.3775 42.4094 50.0859 42.4043Z" fill="white"/>
<path fill-rule="evenodd" clip-rule="evenodd" d="M50.1855 42.831C50.3817 42.8157 50.668 42.831 50.8323 42.831C50.6521 42.8412 50.3923 42.8259 50.1855 42.831Z" fill="white"/>
<path fill-rule="evenodd" clip-rule="evenodd" d="M50.6895 42.6703C50.8008 42.6703 50.8962 42.6653 50.9969 42.6602C51.0181 42.6754 50.8167 42.6703 50.6895 42.6703Z" fill="white"/>
<path fill-rule="evenodd" clip-rule="evenodd" d="M51.0234 42.7037C51.1136 42.6936 51.1931 42.7037 51.3256 42.7037C51.2938 42.7139 51.1136 42.7037 51.0234 42.7037Z" fill="white"/>
<path fill-rule="evenodd" clip-rule="evenodd" d="M51.3535 42.7454C51.3959 42.7352 51.6822 42.7352 51.6186 42.7505C51.5391 42.7505 51.5497 42.7505 51.5444 42.7403C51.4542 42.7403 51.4595 42.7454 51.3535 42.7403V42.7454Z" fill="white"/>
<path fill-rule="evenodd" clip-rule="evenodd" d="M52.1483 42.4852C51.6394 42.4801 51.9628 42.5005 52.1483 42.4852V42.4852Z" fill="white"/>
<path fill-rule="evenodd" clip-rule="evenodd" d="M52.5664 42.3616C52.7202 42.3565 52.8792 42.3616 53.0594 42.3616C52.9428 42.3616 52.6406 42.3667 52.5664 42.3616Z" fill="white"/>
<path fill-rule="evenodd" clip-rule="evenodd" d="M52.684 42.3436C52.631 42.3334 52.9332 42.3334 52.8749 42.3436H52.684Z" fill="white"/>
<path fill-rule="evenodd" clip-rule="evenodd" d="M53.0449 42.1595C53.0979 42.1545 53.2199 42.1494 53.31 42.1545C53.2835 42.1646 53.0873 42.1646 53.0449 42.1595Z" fill="white"/>
<path fill-rule="evenodd" clip-rule="evenodd" d="M54.0996 42.1787C54.4177 42.1634 54.529 42.1787 54.0996 42.1787V42.1787Z" fill="white"/>
<path fill-rule="evenodd" clip-rule="evenodd" d="M45.5684 42.1715C45.632 42.1715 45.7221 42.1664 45.7645 42.1562C45.8811 42.1715 46.0985 42.1563 46.2523 42.1664C46.0561 42.1817 45.8493 42.1664 45.5684 42.1715Z" fill="white"/>
<path fill-rule="evenodd" clip-rule="evenodd" d="M49.805 42.4648C49.8951 42.4648 49.8845 42.4699 49.9905 42.4648C50.0011 42.4699 49.9534 42.4699 49.9481 42.475C50.139 42.475 50.245 42.475 50.404 42.475C50.3828 42.475 50.3616 42.4801 50.3616 42.4852C50.5737 42.4648 50.8229 42.4954 51.2735 42.4852C50.8441 42.5056 49.9004 42.4852 49.5293 42.4954C49.5823 42.4801 49.911 42.4954 49.9481 42.4801C49.9587 42.4699 49.7361 42.4801 49.7997 42.4648H49.805Z" fill="white"/>
<path fill-rule="evenodd" clip-rule="evenodd" d="M50.2031 42.7858C50.2243 42.7858 50.2455 42.7858 50.2031 42.7858C50.2137 42.7756 50.3727 42.7858 50.3939 42.7858C50.3462 42.796 49.8479 42.7858 50.2031 42.7858Z" fill="white"/>
<path fill-rule="evenodd" clip-rule="evenodd" d="M53.0168 42.7512V42.7665C53.2554 42.7665 53.6424 42.7665 53.8068 42.7767C53.5205 42.7869 52.9108 42.7614 52.704 42.7818C52.6351 42.7818 52.5821 42.7818 52.5185 42.7767C51.8505 42.797 51.1242 42.7767 50.4297 42.7869C50.7425 42.7512 51.4476 42.8021 51.8028 42.7614C51.8611 42.7614 51.8028 42.7614 51.7657 42.7614C52.0732 42.7614 52.6245 42.7716 53.0221 42.7461L53.0168 42.7512Z" fill="white"/>
<path fill-rule="evenodd" clip-rule="evenodd" d="M52.7676 42.3122C52.8577 42.3122 52.916 42.302 53.0008 42.2969C53.038 42.2969 52.8471 42.3173 52.7676 42.3122Z" fill="white"/>
<path fill-rule="evenodd" clip-rule="evenodd" d="M49.4867 47.9963C49.6404 47.9963 49.8578 47.9861 50.0221 47.9861C50.441 47.9861 50.8121 48.0014 51.2362 47.9912C51.5861 47.981 51.989 47.9708 52.3442 47.9658C52.6146 47.9607 52.7259 47.9556 52.9168 47.9556C53.2137 47.9556 53.4575 47.9454 53.6802 47.9454C54.0937 47.9454 54.4277 47.9352 54.6398 47.9148C54.7617 47.9148 54.8836 47.9097 55.0056 47.9046C54.9897 47.2983 54.9738 46.4628 54.9579 46.3151C54.9579 46.2386 54.9579 46.1622 54.9579 46.1316C54.8996 45.291 54.8094 44.7764 54.767 43.783C54.7458 43.6963 54.714 43.6403 54.6875 43.4722C54.6769 43.3958 54.6663 43.2276 54.6557 43.1716C54.6133 42.9678 54.555 43.1461 54.5231 42.7691C54.5125 42.7487 54.5072 42.8149 54.5019 42.8353C54.4118 42.8251 54.3376 42.9729 54.2687 42.8812C54.2263 43.141 54.1838 43.085 54.1414 43.2837C54.1202 43.4059 54.0937 43.6505 54.0725 43.8135C54.046 44.002 54.0248 44.1549 53.9983 44.3383C53.9718 44.3383 53.9665 44.5675 53.9453 44.6134C53.9294 44.8681 53.9082 45.1484 53.8923 45.398C53.8817 45.4235 53.8764 45.4948 53.8658 45.4999C53.8445 45.7699 53.8233 46.0603 53.8021 46.3354C53.8021 46.4119 53.7915 46.4883 53.7862 46.5596C53.7862 46.6105 53.7862 46.6004 53.7809 46.6105V46.6309L53.7544 46.6921H53.7173C53.7173 46.6921 53.6855 46.6819 53.6749 46.6819C53.3939 46.6819 53.0387 46.6768 52.6941 46.6717C52.3283 46.6666 51.9943 46.6564 51.83 46.636C51.7133 46.636 51.7186 46.636 51.602 46.636C51.5278 46.6207 51.1885 46.5902 50.8969 46.5902C50.7962 46.5902 50.6159 46.6105 50.3986 46.6156C50.0699 46.6207 49.7571 46.5902 49.4549 46.5953C49.317 46.5953 49.1739 46.6156 49.0308 46.6207C48.6597 46.6309 47.9015 46.6207 47.5887 46.6207C47.3449 46.6156 47.2495 46.6004 47.0639 46.6004C46.8942 46.6004 46.767 46.6207 46.7829 46.6462C46.3005 46.7023 45.0546 46.6615 44.3071 46.687C43.761 46.6666 43.2362 46.7023 42.7113 46.6972C42.6159 46.6972 42.4728 46.6921 42.372 46.6921C42.2077 46.6921 41.9426 46.7023 41.72 46.7073C41.317 46.7124 41.0096 46.7175 40.6544 46.7226C40.1507 46.687 39.7849 46.7277 39.3661 46.7226C39.2229 46.7226 39.0374 46.7124 38.8783 46.7124C38.7405 46.7124 38.5762 46.7175 38.4224 46.7226C38.274 46.7226 38.0778 46.7124 37.9347 46.7124C37.8233 46.7124 37.7173 46.7124 37.6272 46.7175C37.5106 46.7175 37.4098 46.7175 37.2879 46.7073C37.1713 46.7073 36.9804 46.7175 36.8638 46.7226C36.3495 46.7277 35.7929 46.7124 35.3051 46.7379C34.4251 46.7175 33.6563 46.7532 32.6172 46.7277C32.3575 46.7328 32.1666 46.7379 31.8962 46.7328C31.8379 46.7328 31.8379 46.743 31.7425 46.743C31.2017 46.7328 30.6292 46.7634 30.0725 46.7481C30.0513 46.7481 30.0301 46.7532 29.993 46.7583C29.2243 46.743 28.2488 46.7379 27.6444 46.7583C27.1726 46.743 26.6265 46.7583 26.0487 46.7583C25.7783 46.7583 25.5132 46.7583 25.2534 46.7532C24.7392 46.7532 24.1083 46.7532 23.6206 46.7532C23.4933 46.7532 23.3237 46.7634 23.2017 46.7634C22.9473 46.7634 22.6875 46.7634 22.4065 46.7634C21.3674 46.7838 20.1693 46.7685 19.2574 46.7685C18.9923 46.7685 18.7273 46.7787 18.4198 46.7838C17.8896 46.7838 17.3542 46.7838 16.8293 46.7787C16.7074 46.7787 16.5589 46.7838 16.4476 46.7889C16.3628 46.7889 16.2886 46.7889 16.2037 46.7889C16.1613 46.7889 16.1189 46.7889 16.0712 46.7889V46.7736C16.0712 46.5341 16.0659 46.2947 16.0606 46.0603C16.0606 45.6731 16.0606 45.2961 16.0606 44.9293C16.0553 44.4198 16.05 43.8186 16.0447 43.2174C16.3098 43.2174 16.5748 43.2174 16.8187 43.2174C17.0732 43.1971 17.317 43.2174 17.5768 43.2174C18.388 43.2123 19.4218 43.1869 20.2753 43.2022C23.8803 43.1818 27.5172 43.1665 31.0957 43.1461C31.3714 43.1614 31.8008 43.1512 32.0447 43.1461C32.0977 43.1563 32.2567 43.1563 32.384 43.1563C32.8293 43.1359 33.386 43.1563 33.9426 43.1461C34.0858 43.1257 34.4198 43.141 34.6318 43.1257C34.7219 43.1359 34.5099 43.1359 34.6636 43.141C35.0241 43.1003 36.2488 43.1206 36.7948 43.1104C36.7577 43.1104 36.7471 43.1054 36.7948 43.1054C36.9274 43.1155 36.991 43.0952 37.1394 43.0952C38.1361 43.0952 38.8465 43.0493 39.6948 43.034C39.8008 43.0391 40.0871 43.0544 40.1825 43.0442C40.0288 43.0442 39.8326 43.0442 39.8485 43.0238C40.103 43.0289 40.4423 43.0238 40.6119 43.0086C40.93 43.0086 41.0891 43.0136 41.3701 43.0086C41.439 43.0086 41.3011 42.9933 41.4496 42.9933C41.9161 42.9933 42.0911 42.9933 42.5099 42.9933C42.6265 42.978 43.0931 42.9729 43.2362 42.9831C43.3634 42.978 43.0931 42.9678 43.2044 42.9678C43.5649 42.9678 43.8989 42.9576 44.2276 42.9678C44.3071 42.9627 44.3654 42.9525 44.498 42.9474C44.5881 42.9474 44.4715 42.9627 44.6093 42.9576C44.7365 42.9474 44.5086 42.9423 44.5404 42.9321C44.7206 42.927 44.6835 42.9168 44.7736 42.9067C45.0228 42.9168 45.1978 42.8965 45.4257 42.8914C45.6802 42.8914 45.9082 42.8914 46.1467 42.8863C46.3429 42.8863 46.4224 42.871 46.6451 42.871C46.8094 42.871 46.9897 42.8761 47.1699 42.8812C47.276 42.8812 47.101 42.871 47.2495 42.8659C47.944 42.8659 48.6385 42.8557 49.1527 42.8353C48.3628 42.8608 47.7902 42.8353 47.101 42.8557C46.995 42.8404 46.7882 42.8659 46.6875 42.8455C46.6398 42.8557 46.7988 42.8608 46.6451 42.8608C46.5921 42.8608 46.5762 42.8557 46.4966 42.8608C46.5974 42.8404 46.4489 42.8404 46.3906 42.8302C45.8074 42.8302 45.3409 42.8353 44.832 42.8404C44.7365 42.8404 44.8956 42.8506 44.7895 42.8557C44.5934 42.8557 44.4608 42.8557 44.217 42.8608C44.1481 42.8455 43.9943 42.8404 44.0791 42.8251C44.7471 42.8149 45.7173 42.8048 46.5125 42.7946C46.7617 42.7946 47.0162 42.8099 47.1593 42.7844C46.7935 42.7895 46.4966 42.7691 46.1785 42.764C45.7756 42.764 45.3197 42.7742 44.9221 42.7793C44.8214 42.7793 44.7471 42.7793 44.657 42.7742C44.5881 42.7742 44.429 42.7793 44.3495 42.7844C44.27 42.7844 44.2276 42.7844 44.164 42.7793C44.0102 42.7793 43.8406 42.7895 43.6656 42.7895C43.3528 42.7895 43.0347 42.7844 42.6848 42.7793C42.6212 42.7742 42.6477 42.7589 42.7273 42.7538C43.1408 42.7538 43.215 42.7538 43.6391 42.7538C43.5914 42.7538 43.5649 42.7538 43.5649 42.7436C43.6974 42.7436 43.7398 42.7487 43.83 42.7436C43.5172 42.7436 43.5437 42.7181 43.6497 42.708C44.4343 42.708 45.3674 42.708 46.0407 42.708C46.1096 42.7029 46.1573 42.6927 46.274 42.6876C47.0162 42.6876 47.8008 42.6825 48.5907 42.6774C47.7054 42.657 46.7776 42.6672 45.7491 42.6774C45.712 42.6774 45.7438 42.6672 45.6378 42.6672C45.1713 42.6672 44.6888 42.6774 44.3442 42.6774C44.2011 42.6621 44.0526 42.6468 43.9042 42.6315C42.8227 42.6417 42.0328 42.5857 40.999 42.5857C40.999 42.5755 40.9247 42.5704 40.8929 42.5653C40.9671 42.5551 41.0573 42.5449 41.1262 42.5398C41.2958 42.5398 41.4708 42.5347 41.6192 42.5398C42.4887 42.5093 43.7292 42.5296 44.8108 42.5144C44.9433 42.4991 44.8373 42.4838 44.7471 42.4685C44.2223 42.4583 43.7451 42.4838 43.1938 42.4634C42.9976 42.4227 43.2044 42.3972 43.6338 42.3921C44.3442 42.3921 45.553 42.3921 46.0195 42.3972C48.1348 42.387 50.1388 42.3768 52.2859 42.3666C51.0984 42.3666 50.0434 42.3666 48.9512 42.3666C48.9512 42.3717 48.9141 42.3768 48.8346 42.3768C47.7902 42.3768 46.6345 42.3768 45.7226 42.387C45.3409 42.3615 44.5987 42.387 44.2117 42.3666C44.3071 42.3259 44.6252 42.3106 45.0281 42.3004C44.6305 42.3004 44.2329 42.2902 43.8936 42.2851C43.6126 42.2851 43.1249 42.2953 42.9817 42.2851C42.9499 42.2851 43.0135 42.2749 42.9499 42.2749C43.0665 42.2749 42.7432 42.2749 42.722 42.2749C42.5682 42.2749 42.5947 42.28 42.4198 42.28C42.1865 42.28 42.1918 42.28 42.0434 42.2698C41.2322 42.2698 40.4688 42.2698 39.6577 42.2698C39.5728 42.2698 39.4085 42.2698 39.3926 42.2698C39.3184 42.2698 39.382 42.2596 39.2813 42.2596C39.2229 42.2596 39.2495 42.2647 39.1646 42.2647C38.8465 42.2647 38.4913 42.2647 38.1785 42.2596C37.3939 42.2596 36.4662 42.2596 35.83 42.2545C35.6868 42.2545 35.8724 42.2392 35.6815 42.2392C34.5735 42.2341 33.4125 42.2291 32.2355 42.2189C32.1454 42.2189 32.2196 42.2036 32.0871 42.2036C31.9227 42.2036 31.9652 42.2189 31.8167 42.2189C31.7266 42.2189 31.6418 42.2087 31.5941 42.2036C30.2422 42.1934 28.8532 42.2036 27.4589 42.2087C26.16 42.2087 24.8611 42.2138 23.6259 42.2189C22.6557 42.2189 21.7279 42.2341 20.8585 42.224C19.6762 42.224 18.6795 42.2341 17.5927 42.2341C16.718 42.2341 15.769 42.2341 14.9844 42.2341C14.9844 42.3921 14.9844 42.5347 14.9844 42.6774C14.9844 42.8557 14.9897 43.1206 14.995 43.3244C14.995 43.5231 14.9844 43.7677 14.9844 43.9664C14.9844 44.4809 14.995 45.0261 15.0003 45.5356C15.0003 46.2794 15.0003 46.9978 15.0003 47.7263V47.8282C15.4827 47.8282 15.9917 47.8231 16.4741 47.818C16.6862 47.818 16.93 47.8231 17.1527 47.8282C17.7889 47.8282 18.4463 47.818 19.0506 47.818C19.8618 47.818 20.6941 47.8384 21.5159 47.818C22.4383 47.818 23.5198 47.818 24.3946 47.818C25.0997 47.8435 25.8313 47.818 26.6318 47.8231C26.706 47.8231 26.7803 47.8231 26.8545 47.8282C28.0632 47.8486 29.3992 47.8129 30.38 47.8282C30.7458 47.8078 31.0586 47.8282 31.4032 47.8333C31.7743 47.8333 32.1189 47.8282 32.4688 47.8231C32.5748 47.8231 32.6968 47.8282 32.8081 47.8282C33.1633 47.8282 33.5238 47.8231 33.9108 47.818C34.4993 47.818 35.1302 47.8435 35.8035 47.8282C36.323 47.8384 37.097 47.8537 37.6961 47.8384C38.7034 47.8639 39.7266 47.8384 40.7657 47.8435C41.1156 47.8435 41.4337 47.8639 41.7889 47.8486C42.1547 47.869 42.5894 47.8588 43.04 47.8588C43.4695 47.8639 43.9466 47.869 44.3972 47.8741C45.0546 47.8791 45.8711 47.8639 46.3588 47.9046C46.5815 47.981 47.0162 47.869 47.541 47.8842C47.8167 47.8995 47.7796 47.9199 47.9015 47.9505C48.1507 47.9607 48.384 47.9505 48.6225 47.9505C48.9035 47.9556 49.1103 47.9912 49.4814 47.9912L49.4867 47.9963ZM43.2627 42.8965C43.2627 42.8965 43.268 42.9016 43.2998 42.9016C43.2203 42.9168 43.04 42.8965 43.2627 42.8965ZM43.3422 42.8914C43.655 42.8914 44.1003 42.8761 44.3283 42.8914C44.3919 42.8914 44.2753 42.871 44.3707 42.8659C44.5033 42.8761 44.6623 42.8812 44.8956 42.8812C44.9115 42.9117 44.4502 42.8914 44.429 42.9168C44.2488 42.9168 44.164 42.9168 44.0844 42.927C43.7186 42.9168 43.6391 42.9372 43.3634 42.927C43.4377 42.9117 43.3157 42.9168 43.3369 42.8965L43.3422 42.8914Z" fill="white"/>
<path fill-rule="evenodd" clip-rule="evenodd" d="M19.2453 35.0056C19.2135 35.0056 19.1657 35.0106 19.1074 35.0106C19.1233 35.0005 19.1975 34.9954 19.2453 35.0056Z" fill="white"/>
<path fill-rule="evenodd" clip-rule="evenodd" d="M16.9928 34.5352C16.9609 34.5708 16.8496 34.6778 16.8496 34.6574C16.9132 34.5963 16.945 34.5759 16.9928 34.5352Z" fill="white"/>
<path fill-rule="evenodd" clip-rule="evenodd" d="M16.7804 34.6953C16.7804 34.6953 16.6955 34.7921 16.6584 34.8329C16.6531 34.8227 16.7485 34.7157 16.7804 34.6953Z" fill="white"/>
<path fill-rule="evenodd" clip-rule="evenodd" d="M16.4682 35.3359C16.4576 35.3665 16.4152 35.448 16.3887 35.4837C16.3887 35.4684 16.447 35.3818 16.4682 35.3359Z" fill="white"/>
<path fill-rule="evenodd" clip-rule="evenodd" d="M16.1772 35.5312C16.156 35.5873 16.1189 35.679 16.0605 35.7962C16.0711 35.7503 16.1295 35.623 16.1772 35.5312Z" fill="white"/>
<path fill-rule="evenodd" clip-rule="evenodd" d="M16.5742 36.5352C16.5318 36.6574 16.4629 36.9122 16.4258 36.9988C16.4788 36.8459 16.5212 36.6727 16.5742 36.5352Z" fill="white"/>
<path fill-rule="evenodd" clip-rule="evenodd" d="M16.1395 36.7734C16.1077 36.9416 16.007 37.2269 15.9751 37.4409C15.9486 37.4663 16.0494 37.1352 16.0494 37.0689C16.0653 37.0333 16.0759 36.9874 16.0918 36.9467C16.1077 36.8906 16.113 36.8346 16.1395 36.7734Z" fill="white"/>
<path fill-rule="evenodd" clip-rule="evenodd" d="M15.678 38.7891C15.678 38.7891 15.6939 38.7993 15.678 38.8604C15.678 38.8757 15.6674 38.8808 15.6621 38.8757L15.6727 38.7891H15.678Z" fill="white"/>
<path fill-rule="evenodd" clip-rule="evenodd" d="M15.7089 39.6574C15.7089 39.795 15.693 40.1058 15.6718 40.2739C15.6718 40.2994 15.6771 40.2994 15.6718 40.3401C15.6718 40.442 15.6506 40.6713 15.6612 40.4471C15.6612 40.172 15.6877 39.958 15.7089 39.6523V39.6574Z" fill="white"/>
<path fill-rule="evenodd" clip-rule="evenodd" d="M15.5238 39.7422C15.5238 39.7728 15.5238 39.8288 15.5238 39.9001C15.5185 39.8848 15.5238 39.7677 15.5238 39.7422Z" fill="white"/>
<path fill-rule="evenodd" clip-rule="evenodd" d="M15.9696 39.9844C15.9696 39.9844 15.959 40.1219 15.959 40.178C15.959 40.1321 15.959 40.0302 15.9696 39.9844Z" fill="white"/>
<path fill-rule="evenodd" clip-rule="evenodd" d="M15.5715 39.9102C15.5768 39.9662 15.5662 40.0885 15.5715 40.1547C15.5556 40.2158 15.5715 39.9917 15.5715 39.9102Z" fill="white"/>
<path fill-rule="evenodd" clip-rule="evenodd" d="M15.5134 40.0117C15.5187 40.0576 15.5134 40.1849 15.5081 40.2817C15.5028 40.2257 15.5081 40.0983 15.5134 40.0117Z" fill="white"/>
<path fill-rule="evenodd" clip-rule="evenodd" d="M16.0379 40.1953C16.0379 40.1953 16.0432 40.287 16.0379 40.3482C16.0273 40.3329 16.0379 40.2463 16.0379 40.1953Z" fill="white"/>
<path fill-rule="evenodd" clip-rule="evenodd" d="M15.9475 40.2891C15.9528 40.3604 15.9369 40.6049 15.9316 40.7272C15.9316 40.5744 15.9316 40.4572 15.9475 40.2891Z" fill="white"/>
<path fill-rule="evenodd" clip-rule="evenodd" d="M15.5031 40.3242C15.5137 40.4414 15.4925 40.6044 15.4872 40.7012C15.4819 40.5942 15.5031 40.4465 15.5031 40.3242Z" fill="white"/>
<path fill-rule="evenodd" clip-rule="evenodd" d="M15.6575 40.625C15.6575 40.6658 15.6575 40.7422 15.6575 40.8033C15.6416 40.8135 15.6575 40.7014 15.6575 40.625Z" fill="white"/>
<path fill-rule="evenodd" clip-rule="evenodd" d="M15.6098 40.8125C15.6151 40.8634 15.6098 40.9093 15.6098 40.9908C15.6045 40.9704 15.6098 40.8685 15.6098 40.8125Z" fill="white"/>
<path fill-rule="evenodd" clip-rule="evenodd" d="M15.5614 41C15.5614 41 15.5667 41.1885 15.5508 41.1528C15.5508 41.107 15.5561 41.1121 15.5614 41.1121C15.5614 41.0611 15.5614 41.0611 15.5614 41Z" fill="white"/>
<path fill-rule="evenodd" clip-rule="evenodd" d="M15.8214 41.471C15.8108 41.364 15.832 41.1755 15.8214 41.471V41.471Z" fill="white"/>
<path fill-rule="evenodd" clip-rule="evenodd" d="M15.9535 41.7109C15.9588 41.8026 15.9588 41.8893 15.9535 41.9962C15.9535 41.93 15.9482 41.7568 15.9535 41.7109Z" fill="white"/>
<path fill-rule="evenodd" clip-rule="evenodd" d="M15.9746 41.781C15.9852 41.7504 15.9852 41.9236 15.9746 41.888V41.781Z" fill="white"/>
<path fill-rule="evenodd" clip-rule="evenodd" d="M16.1602 41.9844C16.1655 42.0149 16.1708 42.0812 16.1708 42.1372C16.1602 42.1219 16.1602 42.0098 16.1602 41.9844Z" fill="white"/>
<path fill-rule="evenodd" clip-rule="evenodd" d="M16.1543 42.5859C16.1649 42.8203 16.1755 42.7592 16.1543 42.5859V42.5859Z" fill="white"/>
<path fill-rule="evenodd" clip-rule="evenodd" d="M16.5006 37.7734C16.5006 37.8091 16.49 37.855 16.49 37.8804C16.4634 37.9416 16.4528 38.0638 16.4316 38.1504C16.4316 38.0435 16.4741 37.9314 16.5006 37.7734Z" fill="white"/>
<path fill-rule="evenodd" clip-rule="evenodd" d="M15.8953 40.1189C15.8953 40.1698 15.8846 40.1647 15.8846 40.2259C15.8793 40.2259 15.8846 40.2055 15.874 40.2004C15.874 40.3176 15.8687 40.3736 15.8634 40.4653C15.8634 40.4551 15.8634 40.4398 15.8528 40.4398C15.8634 40.5621 15.8263 40.7048 15.8316 40.9646C15.8157 40.7201 15.8581 40.1749 15.874 39.9609C15.8846 39.9915 15.8581 40.18 15.874 40.2055C15.8846 40.2106 15.8846 40.0832 15.8953 40.124V40.1189Z" fill="white"/>
<path fill-rule="evenodd" clip-rule="evenodd" d="M15.5513 40.336C15.5566 40.3411 15.5513 40.4328 15.546 40.4481C15.5354 40.4226 15.5566 40.1271 15.546 40.336H15.5513Z" fill="white"/>
<path fill-rule="evenodd" clip-rule="evenodd" d="M15.5513 41.9729H15.5354C15.5354 42.1105 15.546 42.3397 15.5354 42.4314C15.5195 42.2633 15.5407 41.9067 15.5195 41.7895C15.5195 41.7436 15.5195 41.7232 15.5248 41.6825C15.5036 41.2902 15.5354 40.8724 15.5407 40.4648C15.5672 40.6483 15.5036 41.0558 15.5407 41.2647C15.5407 41.3004 15.5407 41.2647 15.5407 41.2443C15.5407 41.4227 15.5248 41.7436 15.5513 41.978V41.9729Z" fill="white"/>
<path fill-rule="evenodd" clip-rule="evenodd" d="M16.0009 41.8281C16.0062 41.8842 16.0115 41.9096 16.0168 41.9606C16.0168 41.981 15.9955 41.874 16.0009 41.8281Z" fill="white"/>
<path fill-rule="evenodd" clip-rule="evenodd" d="M53.0959 37.3895C53.1171 37.4608 53.1595 37.5932 53.186 37.6697C53.2496 37.8887 53.2602 38.1027 53.3133 38.3269C53.3557 38.5307 53.4193 38.7141 53.4458 38.9332C53.467 39.0707 53.4829 39.1421 53.4988 39.2541C53.5465 39.57 53.5836 39.8248 53.626 39.9572C53.6685 40.217 53.695 40.4157 53.7321 40.6552C53.7374 40.7112 53.7427 40.7418 53.7427 40.7622C53.8434 41.2564 53.9282 41.5621 53.9813 42.1582C54.0025 42.2091 54.0343 42.2448 54.0608 42.3467C54.0714 42.3925 54.082 42.4944 54.0979 42.525C54.1456 42.6473 54.1986 42.5403 54.2357 42.7644C54.2463 42.7746 54.2516 42.7339 54.2569 42.7237C54.3471 42.7288 54.416 42.6371 54.4849 42.6931C54.522 42.5352 54.5697 42.5708 54.6068 42.4486C54.628 42.3721 54.6492 42.2244 54.6704 42.1276C54.6917 42.0155 54.7129 41.8983 54.7341 41.8015C54.7606 41.8015 54.7606 41.6589 54.7871 41.6283C54.803 41.4755 54.8189 41.292 54.8295 41.1443C54.8348 41.129 54.8401 41.0832 54.8507 41.0781C54.8719 40.7061 54.8984 40.324 54.8825 39.8095C54.8825 39.7636 54.8719 39.6668 54.8666 39.6057C54.8136 39.2236 54.7606 38.6377 54.7606 38.4339C54.7447 38.3626 54.7447 38.3676 54.7341 38.2963C54.7447 38.2505 54.7341 38.0416 54.7023 37.8633C54.6917 37.8021 54.6492 37.7002 54.6174 37.5678C54.5697 37.3691 54.5379 37.1755 54.4902 36.9972C54.4637 36.9156 54.4213 36.8341 54.3948 36.7475C54.3258 36.5284 54.1456 36.075 54.0873 35.8865C54.0237 35.7388 54.0078 35.6776 53.9494 35.5655C53.8964 35.4687 53.8434 35.3974 53.8222 35.4229C53.7374 35.2904 53.5571 35.0459 53.3716 34.786C53.2549 34.6587 53.1489 34.5262 53.0217 34.409C52.8785 34.2969 52.7619 34.1848 52.6188 34.1186C52.5339 34.0677 52.4491 34.0167 52.359 33.9709C52.2636 33.9352 52.1628 33.8995 52.0621 33.869C51.8394 33.8231 51.6804 33.7875 51.3676 33.8231H51.3623H51.357C51.3093 33.8231 51.2139 33.818 51.1608 33.8129C51.076 33.8129 50.8958 33.8231 50.7685 33.8282C50.5194 33.8333 50.3603 33.8384 50.1217 33.8435C49.8196 33.8078 49.5969 33.8486 49.3371 33.8435C49.2576 33.8435 49.1251 33.8333 49.0402 33.8333C48.966 33.8333 48.8494 33.8384 48.7645 33.8435C48.685 33.8435 48.5419 33.8333 48.4677 33.8333C48.4093 33.8333 48.3298 33.8333 48.2821 33.8384C48.2079 33.8384 48.1602 33.8282 48.0754 33.8282C48.017 33.8282 47.8792 33.8384 47.8209 33.8435C47.5081 33.8486 47.1688 33.8333 46.8772 33.8588C46.3418 33.8384 45.8805 33.8741 45.2496 33.8486C45.0906 33.8537 44.974 33.8588 44.8096 33.8486C44.7725 33.8486 44.7725 33.8588 44.7142 33.8588C44.3855 33.8486 44.0409 33.8792 43.7016 33.8639C43.691 33.8639 43.6751 33.8741 43.6539 33.8741C43.1873 33.8588 42.5936 33.8537 42.2278 33.8741C41.9415 33.8588 41.6128 33.8741 41.2629 33.8741C41.1038 33.8741 40.9448 33.8741 40.7805 33.869C40.4518 33.869 40.0913 33.869 39.7891 33.869C39.7254 33.869 39.5982 33.8792 39.5346 33.8792C39.3755 33.8792 39.2377 33.8792 39.0522 33.8792C38.4213 33.8995 37.695 33.8843 37.1436 33.8843C36.9952 33.8843 36.8149 33.8944 36.6347 33.8995C36.3007 33.8995 35.9932 33.8995 35.6698 33.8944C35.6062 33.8944 35.5001 33.8995 35.4365 33.9046C35.2351 33.9046 35.0601 33.9046 34.864 33.9046C34.3709 33.9046 33.8779 33.925 33.4166 33.9046C32.8229 33.925 31.964 33.9199 31.2748 33.925C31.1211 33.9454 30.9726 33.925 30.8136 33.925C30.3205 33.9301 29.695 33.9556 29.1807 33.9403C26.9594 33.9607 24.8388 33.976 22.6174 33.9963C22.4478 33.9811 22.188 33.9912 22.0449 33.9963C22.0131 33.9862 21.9123 33.9862 21.8381 33.9862C21.5677 34.0065 21.2337 33.9862 20.8944 33.9963C20.8096 34.0167 20.6029 34.0014 20.4756 34.0167C20.4226 34.0065 20.5498 34.0065 20.4544 34.0014C20.2371 34.0422 19.4948 34.0218 19.1608 34.032C19.182 34.032 19.1873 34.0371 19.1608 34.0371C19.0813 34.0269 19.0442 34.0473 18.9541 34.0473C18.8109 34.0473 18.6731 34.0524 18.53 34.0575C18.4027 34.0575 18.2702 34.0677 18.1111 34.088C17.8143 34.1237 17.5439 34.2358 17.2947 34.3937C17.2311 34.4294 17.0508 34.5262 17.0137 34.5873C17.0879 34.516 17.2099 34.4447 17.2099 34.4651C17.0508 34.5517 16.8971 34.7198 16.8335 34.8115C16.6956 34.9643 16.6214 35.0408 16.5366 35.1987C16.5101 35.2344 16.5737 35.1732 16.5207 35.2497C16.3669 35.4789 16.3139 35.6114 16.2026 35.8254C16.1814 35.8967 16.086 36.1616 16.0435 36.238C16.0223 36.3145 16.086 36.1616 16.0701 36.2278C16.0011 36.4367 15.9587 36.5641 15.8792 36.8137C15.8739 36.8647 15.8792 36.8953 15.8527 36.9768C15.8421 37.0277 15.8421 36.9564 15.8262 37.0379C15.8156 37.1143 15.858 36.987 15.8633 37.0073C15.8421 37.1143 15.858 37.094 15.8527 37.15C15.8103 37.2927 15.7997 37.3945 15.7838 37.527C15.7626 37.6646 15.7255 37.8123 15.7042 37.9448C15.6936 38.0416 15.683 38.1435 15.6724 38.2352C15.6565 38.3167 15.63 38.4441 15.6141 38.5409C15.6088 38.602 15.63 38.5001 15.6194 38.5867C15.5664 38.9892 15.5346 39.3968 15.5293 39.6974C15.5399 39.2338 15.6088 38.9026 15.6353 38.5001C15.6618 38.4441 15.6512 38.3167 15.683 38.2607C15.683 38.2301 15.6565 38.3218 15.6724 38.2352C15.6777 38.2046 15.683 38.1944 15.6883 38.1486C15.6989 38.2097 15.7095 38.1231 15.7308 38.0925C15.7891 37.7512 15.8315 37.4863 15.9057 37.1959C15.9163 37.1398 15.8845 37.2315 15.9004 37.1704C15.9216 37.0583 15.9481 36.9768 15.9799 36.8443C16.0064 36.8087 16.0382 36.722 16.0382 36.773C15.9163 37.1602 15.8262 37.7002 15.752 38.169C15.7308 38.3116 15.6936 38.4594 15.7042 38.546C15.7308 38.332 15.7785 38.1639 15.8156 37.9855C15.858 37.7512 15.8898 37.4914 15.9534 37.2672C15.9693 37.2162 15.9852 37.1602 15.9958 37.1194C16.0064 37.0736 16.017 36.9921 16.0329 36.9462C16.0488 36.8902 16.0594 36.8902 16.0701 36.8443C16.0966 36.7475 16.1072 36.6711 16.1443 36.5641C16.2026 36.3858 16.2821 36.2177 16.3563 36.0292C16.3775 35.9986 16.3828 36.019 16.3669 36.0648C16.2768 36.289 16.2556 36.3297 16.1814 36.5641C16.192 36.5386 16.2026 36.5233 16.2079 36.5284C16.1814 36.5998 16.1708 36.6252 16.1602 36.6762C16.2185 36.503 16.2397 36.5284 16.2291 36.5896C16.0807 37.0175 15.9693 37.5678 15.8898 37.9346C15.8898 37.9754 15.8951 38.0059 15.8898 38.0722C15.8262 38.4899 15.7573 38.9535 15.7202 39.407C15.7891 38.8975 15.8421 38.3626 15.9534 37.7767C15.964 37.7563 15.9693 37.7767 15.9799 37.7155C16.0223 37.4659 16.0913 37.1755 16.1443 36.987C16.1814 36.9105 16.2185 36.8341 16.2609 36.7526C16.4412 36.1565 16.6797 35.7591 17.019 35.2955C17.0243 35.3057 17.0561 35.27 17.0773 35.2649C17.0561 35.3057 17.0455 35.3312 17.019 35.3821C16.9713 35.4534 16.9448 35.4942 16.8653 35.6063C16.6373 36.0292 16.3669 36.6762 16.245 37.2876C16.245 37.364 16.2715 37.3079 16.298 37.2621C16.3775 36.9768 16.4359 36.7119 16.5631 36.4265C16.6426 36.3399 16.6214 36.452 16.5525 36.6813C16.4253 37.0532 16.2662 37.7257 16.2185 37.9804C16.0329 39.1471 15.9428 40.3291 15.9481 41.5519C15.964 40.8743 15.9693 40.2425 16.0329 39.6413C16.0223 39.6413 16.0223 39.621 16.0329 39.5751C16.086 38.979 16.1761 38.3269 16.2662 37.8174C16.3351 37.6085 16.3934 37.1959 16.4889 36.9972C16.5101 37.0583 16.4836 37.2315 16.4412 37.4557C16.4889 37.2315 16.5631 37.0328 16.6161 36.8494C16.6638 36.7017 16.7433 36.4469 16.7805 36.3807C16.7911 36.3654 16.7805 36.4011 16.7964 36.3654C16.7752 36.4214 16.8335 36.2635 16.8388 36.2482C16.8653 36.1718 16.86 36.1871 16.9024 36.1005C16.9554 35.9884 16.9554 35.9884 16.9978 35.9273C17.1993 35.5604 17.4378 35.2446 17.7294 35.0764C17.7559 35.051 17.8249 35.0306 17.8249 35.0255C17.8567 35.0153 17.8355 35.0306 17.8726 35.0153C17.8938 35.0051 17.8832 35.0051 17.9097 34.9898C17.968 34.9694 18.0369 34.9593 18.1005 34.9389C18.1695 34.9389 18.2384 34.9338 18.302 34.9236C18.7791 34.9236 19.3411 34.9236 19.7281 34.9287C19.8129 34.9287 19.7016 34.944 19.8182 34.944C20.4915 34.9491 21.1966 34.9542 21.907 34.9643C21.96 34.9643 21.9176 34.9796 21.9972 34.9796C22.0979 34.9796 22.0714 34.9643 22.1615 34.9643C22.2145 34.9643 22.2675 34.9745 22.294 34.9796C23.1105 34.9898 23.9587 34.9796 24.8017 34.9745C25.5916 34.9745 26.3762 34.9694 27.1237 34.9643C27.7122 34.9643 28.2742 34.9491 28.8043 34.9593C29.5359 34.9593 30.1244 34.9491 30.7818 34.9491C31.2589 34.9491 31.7626 34.9491 32.1867 34.9491C32.245 34.9491 32.3563 34.944 32.42 34.9389C32.5207 34.9389 32.685 34.9491 32.7858 34.9491C33.1038 34.9491 33.459 34.9389 33.7771 34.9338C34.1429 34.9338 34.4981 34.9338 34.8587 34.9338C35.0495 34.9338 35.2669 34.9236 35.4577 34.9236C35.5797 34.9236 35.744 34.9287 35.8712 34.9338C36.2477 34.9338 36.6612 34.9236 37.0217 34.9236C37.5147 34.9236 38.0184 34.944 38.5167 34.9236C39.0681 34.9338 39.7361 34.9338 40.2609 34.9236C40.6903 34.9491 41.1304 34.9236 41.6181 34.9287C41.6552 34.9287 41.7135 34.9338 41.7559 34.9338C42.4875 34.9542 43.2987 34.9185 43.8924 34.9338C44.1151 34.9134 44.306 34.9338 44.5127 34.9389C44.7354 34.9389 44.9422 34.9338 45.1595 34.9287C45.2178 34.9287 45.308 34.9338 45.3663 34.9338C45.5783 34.9338 45.8063 34.9287 46.0343 34.9236C46.3895 34.9236 46.7712 34.9491 47.1794 34.9338C47.4975 34.944 47.964 34.9593 48.3245 34.944C48.9342 34.9694 49.5545 34.944 50.1854 34.9491C50.3974 34.9491 50.5883 34.9694 50.8056 34.9542C50.9859 34.9694 51.1449 34.9643 51.3941 34.9643L51.4736 34.9542L51.5532 34.944C51.5532 34.944 51.5319 34.9491 51.5532 34.9491C51.6698 34.9491 51.8288 35.0204 51.9826 35.1172C52.2052 35.2649 52.4597 35.5757 52.5551 35.805C52.5551 35.9273 52.746 36.0852 52.8573 36.3348C52.8944 36.4826 52.8679 36.4724 52.8573 36.5386C52.8944 36.666 52.9422 36.7781 52.9952 36.9004C53.0429 37.043 53.027 37.1653 53.08 37.3589L53.0959 37.3895ZM16.1178 36.3145C16.1178 36.3145 16.1125 36.3145 16.1019 36.3348C16.1019 36.2839 16.1655 36.1922 16.1178 36.3145ZM16.1072 36.3603C16.0435 36.5386 15.9799 36.7934 15.9322 36.9207C15.9216 36.9564 15.9587 36.8953 15.9481 36.9513C15.9163 37.0277 15.8898 37.1143 15.8527 37.2468C15.8209 37.2468 15.9004 36.987 15.8845 36.9717C15.9163 36.8698 15.9322 36.8239 15.9322 36.773C16.0011 36.5692 16.0064 36.5183 16.0648 36.3654C16.0648 36.4113 16.086 36.3399 16.1019 36.3603H16.1072Z" fill="white"/>
<path fill-rule="evenodd" clip-rule="evenodd" d="M19.9732 24.4844C19.9732 24.4844 19.9621 24.4954 19.9732 24.4954C19.9621 24.4954 19.9621 24.4844 19.9732 24.4844Z" fill="white"/>
<path fill-rule="evenodd" clip-rule="evenodd" d="M19.0293 26.0977C19.0293 26.1384 19.0399 26.2658 19.0293 26.2505C19.0293 26.1792 19.0293 26.1486 19.0293 26.0977Z" fill="white"/>
<path fill-rule="evenodd" clip-rule="evenodd" d="M19.0081 26.3164C19.0081 26.3164 19.0081 26.4234 19.0081 26.4692C18.9975 26.4692 19.0028 26.3419 19.0081 26.3164Z" fill="white"/>
<path fill-rule="evenodd" clip-rule="evenodd" d="M19.1567 26.9414C19.162 26.972 19.1673 27.0586 19.1567 27.0993C19.1514 27.0892 19.1567 26.9924 19.1567 26.9414Z" fill="white"/>
<path fill-rule="evenodd" clip-rule="evenodd" d="M19.002 27.2188C19.0126 27.2697 19.0126 27.3614 19.0126 27.4837C19.002 27.4429 19.0073 27.3105 19.002 27.2188Z" fill="white"/>
<path fill-rule="evenodd" clip-rule="evenodd" d="M19.7765 27.9961C19.7765 28.1337 19.7924 28.4088 19.7765 28.5056C19.7871 28.3425 19.7712 28.1489 19.7765 27.9961Z" fill="white"/>
<path fill-rule="evenodd" clip-rule="evenodd" d="M19.4369 28.3555C19.4581 28.5236 19.4369 28.8293 19.4475 29.0433C19.4316 29.0738 19.4475 28.7274 19.4316 28.6662C19.4316 28.6255 19.4316 28.5796 19.4369 28.5338C19.4369 28.4726 19.4263 28.4166 19.4369 28.3555Z" fill="white"/>
<path fill-rule="evenodd" clip-rule="evenodd" d="M19.3848 30.4297C19.3848 30.4297 19.4007 30.4399 19.4007 30.501C19.4007 30.5163 19.3901 30.5214 19.3848 30.5214V30.4348V30.4297Z" fill="white"/>
<path fill-rule="evenodd" clip-rule="evenodd" d="M19.5059 31.2852C19.5218 31.4227 19.5218 31.7335 19.5059 31.9067C19.5059 31.9322 19.5165 31.9322 19.5112 31.9729C19.5112 32.0748 19.5112 32.3041 19.5112 32.085C19.5006 31.8099 19.5112 31.5908 19.5059 31.2852Z" fill="white"/>
<path fill-rule="evenodd" clip-rule="evenodd" d="M19.3257 31.3906C19.331 31.4212 19.331 31.4772 19.331 31.5486C19.3204 31.5333 19.3204 31.4161 19.3257 31.3906Z" fill="white"/>
<path fill-rule="evenodd" clip-rule="evenodd" d="M19.7918 31.6016C19.7918 31.6016 19.7918 31.7391 19.7918 31.8003C19.7918 31.7544 19.7812 31.6525 19.7918 31.6016Z" fill="white"/>
<path fill-rule="evenodd" clip-rule="evenodd" d="M19.3837 31.5547C19.3943 31.6107 19.389 31.733 19.3943 31.7992C19.3784 31.8604 19.3837 31.6362 19.3837 31.5547Z" fill="white"/>
<path fill-rule="evenodd" clip-rule="evenodd" d="M19.3359 31.6562C19.3465 31.7021 19.3412 31.8295 19.3465 31.9212C19.3359 31.8651 19.3412 31.7429 19.3359 31.6562Z" fill="white"/>
<path fill-rule="evenodd" clip-rule="evenodd" d="M19.877 31.8164C19.877 31.8164 19.8876 31.9132 19.8929 31.9743C19.8823 31.9591 19.8823 31.8724 19.877 31.8164Z" fill="white"/>
<path fill-rule="evenodd" clip-rule="evenodd" d="M19.7874 31.9102C19.798 31.9815 19.7927 32.2311 19.7874 32.3534C19.7768 32.1955 19.7821 32.0783 19.7874 31.9102Z" fill="white"/>
<path fill-rule="evenodd" clip-rule="evenodd" d="M19.3475 31.9688C19.3634 32.0808 19.3475 32.249 19.3475 32.3458C19.3369 32.2388 19.3528 32.091 19.3475 31.9688Z" fill="white"/>
<path fill-rule="evenodd" clip-rule="evenodd" d="M19.5126 32.2617C19.5179 32.3025 19.5179 32.3789 19.5232 32.44C19.5073 32.4502 19.5126 32.3381 19.5126 32.2617Z" fill="white"/>
<path fill-rule="evenodd" clip-rule="evenodd" d="M19.4754 32.457C19.486 32.508 19.4754 32.5538 19.4754 32.6353C19.4648 32.615 19.4754 32.5131 19.4754 32.457Z" fill="white"/>
<path fill-rule="evenodd" clip-rule="evenodd" d="M19.433 32.6445C19.433 32.6445 19.4436 32.833 19.4277 32.7974C19.4277 32.7515 19.4277 32.7566 19.4383 32.7566C19.4383 32.7057 19.433 32.7057 19.4383 32.6445H19.433Z" fill="white"/>
<path fill-rule="evenodd" clip-rule="evenodd" d="M19.7033 33.1155C19.6874 33.0085 19.7086 32.82 19.7033 33.1155V33.1155Z" fill="white"/>
<path fill-rule="evenodd" clip-rule="evenodd" d="M19.8344 33.3555C19.8397 33.4472 19.8344 33.5389 19.8344 33.6459C19.8344 33.5796 19.8291 33.4013 19.8344 33.3555Z" fill="white"/>
<path fill-rule="evenodd" clip-rule="evenodd" d="M19.8555 33.4254C19.8661 33.3948 19.8661 33.5732 19.8555 33.5375V33.4254Z" fill="white"/>
<path fill-rule="evenodd" clip-rule="evenodd" d="M20.0425 33.6328C20.0478 33.6634 20.0531 33.7347 20.0478 33.7907C20.0372 33.7755 20.0372 33.6583 20.0425 33.6328Z" fill="white"/>
<path fill-rule="evenodd" clip-rule="evenodd" d="M20.0254 34.25C20.0254 34.4996 20.0413 34.4334 20.0254 34.25V34.25Z" fill="white"/>
<path fill-rule="evenodd" clip-rule="evenodd" d="M20.0313 29.2734C20.0313 29.3091 20.0366 29.36 20.0472 29.3855C20.0313 29.4518 20.0472 29.5791 20.0366 29.6708C20.0207 29.5587 20.0366 29.4365 20.0313 29.2734Z" fill="white"/>
<path fill-rule="evenodd" clip-rule="evenodd" d="M19.7291 31.7451C19.7291 31.8011 19.7238 31.7909 19.7291 31.8571C19.7238 31.8622 19.7238 31.8368 19.7185 31.8317C19.7185 31.9489 19.7185 32.0049 19.7185 32.0966C19.7185 32.0864 19.7132 32.0711 19.7079 32.0711C19.7291 32.1934 19.6973 32.3412 19.7079 32.601C19.6867 32.3513 19.7079 31.8011 19.6973 31.582C19.7132 31.6126 19.6973 31.8062 19.7132 31.8266C19.7238 31.8317 19.7132 31.7043 19.7291 31.74V31.7451Z" fill="white"/>
<path fill-rule="evenodd" clip-rule="evenodd" d="M19.3895 31.9766C19.4001 31.9817 19.3895 32.0734 19.3895 32.0887C19.3789 32.0632 19.3895 31.7677 19.3895 31.9766Z" fill="white"/>
<path fill-rule="evenodd" clip-rule="evenodd" d="M19.4316 33.6174H19.4157C19.4157 33.755 19.4157 33.9842 19.4051 34.076C19.3945 33.9078 19.421 33.5512 19.3998 33.434C19.3998 33.3882 19.3998 33.3678 19.4051 33.327C19.3839 32.9347 19.4051 32.5119 19.3945 32.1094C19.4316 32.2928 19.3786 32.7055 19.421 32.9093C19.421 32.9449 19.421 32.9093 19.421 32.8889C19.421 33.0672 19.4104 33.3882 19.4369 33.6225L19.4316 33.6174Z" fill="white"/>
<path fill-rule="evenodd" clip-rule="evenodd" d="M19.8837 33.4766C19.889 33.5326 19.8943 33.5581 19.8996 33.609C19.8996 33.6294 19.8784 33.5173 19.8837 33.4766Z" fill="white"/>
<path fill-rule="evenodd" clip-rule="evenodd" d="M50.0111 28.8195C50.0111 28.901 50.0217 29.0488 50.0217 29.1303C50.0217 29.3748 50.0058 29.5939 50.0164 29.8385C50.027 30.027 50.0376 30.297 50.0482 30.4855C50.0535 30.6332 50.0588 30.7046 50.0588 30.8217C50.0694 31.1478 50.0641 31.4178 50.1013 31.5605C50.1225 31.8305 50.1437 32.0343 50.1596 32.2788C50.1596 32.34 50.1596 32.3655 50.1596 32.3909C50.2179 32.9004 50.308 33.2163 50.3504 33.8175C50.3716 33.8684 50.4034 33.9041 50.43 34.006C50.4406 34.0518 50.4512 34.1537 50.4618 34.1894C50.5042 34.3117 50.5625 34.2047 50.5943 34.4339C50.6049 34.4441 50.6102 34.4034 50.6155 34.3932C50.7056 34.3983 50.7799 34.3117 50.8488 34.3677C50.8912 34.2098 50.9336 34.2454 50.976 34.1232C50.9972 34.0467 51.0237 33.899 51.0449 33.8022C51.0714 33.6901 51.0926 33.5729 51.1191 33.4812C51.1457 33.4812 51.151 33.3386 51.1722 33.3131C51.1881 33.1653 51.2093 32.9819 51.2252 32.8342C51.2358 32.8189 51.2411 32.7781 51.2517 32.773C51.2994 32.4062 51.3524 32.0343 51.3683 31.5299C51.3683 31.479 51.3683 31.3822 51.3683 31.3312C51.3683 30.9593 51.3789 30.3836 51.4107 30.19C51.4107 30.1238 51.4107 30.1238 51.4107 30.0575C51.4266 30.0168 51.4584 29.8181 51.4584 29.6449C51.4584 29.5837 51.4372 29.4818 51.4319 29.3545C51.4266 29.1609 51.4585 28.9774 51.4531 28.8042C51.4531 28.7227 51.4319 28.6412 51.4266 28.5546C51.416 28.3355 51.4266 27.8974 51.4266 27.7139C51.4319 27.5713 51.4478 27.5152 51.4478 27.4083C51.4478 27.3115 51.4266 27.235 51.4001 27.2452C51.3418 26.965 51.3842 26.2365 51.3577 25.7983C51.3789 25.4824 51.3365 25.1309 51.2941 24.7946C51.2941 24.7284 51.2835 24.6418 51.2676 24.5654C51.2411 24.4431 51.1987 24.2852 51.1351 24.1221C51.0343 23.8521 50.8965 23.5821 50.6473 23.363C50.4724 23.1745 50.2338 23.0624 50.0111 23.0268C49.7779 22.9911 49.5817 23.0064 49.3484 23.0675H49.3325C49.3325 23.0675 49.3325 23.0675 49.3166 23.0726C49.3166 23.0726 49.306 23.0726 49.3007 23.0726H49.2901C49.2901 23.0726 49.2477 23.0726 49.2265 23.0726C49.1523 23.0726 49.0357 23.0777 48.9508 23.0828C48.8713 23.0828 48.7282 23.0726 48.6539 23.0726C48.5956 23.0726 48.5161 23.0726 48.4684 23.0777C48.3942 23.0777 48.3412 23.0675 48.2616 23.0675C48.2033 23.0675 48.0655 23.0777 48.0072 23.0828C47.6944 23.0879 47.3551 23.0726 47.0582 23.0981C46.5227 23.0777 46.0562 23.1134 45.4253 23.0879C45.2663 23.093 45.1496 23.0981 44.9853 23.0879C44.9482 23.0879 44.9482 23.0981 44.8899 23.0981C44.5612 23.0879 44.2166 23.1185 43.8773 23.1032C43.8667 23.1032 43.8508 23.1083 43.8296 23.1134C43.363 23.0981 42.7692 23.093 42.4034 23.1134C42.1172 23.0981 41.7885 23.1134 41.4386 23.1134C41.2795 23.1134 41.1205 23.1134 40.9561 23.1083C40.6274 23.1083 40.2669 23.1083 39.9647 23.1083C39.9011 23.1083 39.7739 23.1185 39.7103 23.1185C39.5512 23.1185 39.4134 23.1185 39.2278 23.1185C38.597 23.1388 37.8706 23.1236 37.314 23.1236C37.1655 23.1236 36.9853 23.1338 36.805 23.1388C36.471 23.1388 36.1635 23.1388 35.8402 23.1338C35.7765 23.1338 35.6705 23.1388 35.6069 23.1439C35.4054 23.1439 35.2305 23.1439 35.0343 23.1439C34.5413 23.1439 34.0482 23.1643 33.5817 23.1439C32.9879 23.1643 32.1238 23.1592 31.4399 23.1643C31.2861 23.1847 31.1377 23.1643 30.9787 23.1643C30.4856 23.1694 29.8547 23.1949 29.3405 23.1796C27.1191 23.2 24.9932 23.2153 22.7719 23.2356C22.6023 23.2204 22.3425 23.2306 22.194 23.2356C22.1622 23.2255 22.0615 23.2255 21.9873 23.2255C21.7169 23.2509 21.3882 23.2255 21.0224 23.2458C20.9323 23.2662 20.7096 23.2764 20.5771 23.3019C20.5188 23.2968 20.6566 23.2815 20.5559 23.2866C20.4392 23.3223 20.1795 23.3681 19.8932 23.4598C19.6122 23.5515 19.2888 23.7502 19.151 23.9795C19.1722 23.954 19.1828 23.9489 19.151 23.9795C19.082 24.0814 19.0661 24.1425 19.0343 24.275C18.9866 24.4941 19.0078 24.6673 19.1032 24.8711L19.0714 24.7284C19.0873 25.0901 19.1085 25.5079 19.1245 25.8391C19.1191 25.9002 19.1032 26.0683 19.1138 26.1244C19.1138 26.0327 19.1138 25.9206 19.1351 25.9308C19.1298 26.0785 19.1351 26.2772 19.151 26.374C19.151 26.5574 19.1457 26.6542 19.151 26.8173C19.151 26.858 19.1669 26.7765 19.1669 26.8631C19.1669 27.1535 19.1669 27.2147 19.1669 27.4796C19.1828 27.5458 19.1881 27.8209 19.1775 27.9024C19.1828 27.9789 19.1934 27.8209 19.1934 27.8821C19.1934 28.091 19.204 28.2846 19.1934 28.4782C19.1987 28.524 19.2093 28.5597 19.2146 28.6361C19.2146 28.687 19.1987 28.6208 19.204 28.7023C19.2146 28.7787 19.2199 28.6463 19.2305 28.6616C19.2358 28.7686 19.2464 28.7482 19.257 28.7991C19.2464 28.9469 19.2676 29.0437 19.2729 29.1761C19.2729 29.3443 19.2729 29.4411 19.2729 29.599C19.2729 29.7111 19.2888 29.762 19.2888 29.8894C19.2888 29.976 19.2782 30.1034 19.2782 30.1951C19.2782 30.2562 19.2941 30.1543 19.2941 30.2409C19.2941 30.6485 19.3047 31.051 19.3259 31.3516C19.2994 30.8931 19.3259 30.5568 19.3047 30.1543C19.3206 30.0932 19.2941 29.9709 19.3153 29.9149C19.3047 29.8894 19.2994 29.9811 19.2994 29.8894C19.2994 29.8588 19.2994 29.8486 19.2994 29.8028C19.3206 29.8588 19.3206 29.7722 19.3312 29.7417C19.3312 29.4054 19.3259 29.1252 19.3206 28.8348C19.3206 28.7787 19.31 28.8705 19.3047 28.8093C19.3047 28.687 19.3047 28.631 19.2994 28.4782C19.3153 28.4374 19.3206 28.3508 19.3365 28.3966C19.3418 28.7737 19.3577 29.3697 19.3683 29.8181C19.3683 29.9607 19.3524 30.1136 19.3789 30.1951C19.3736 29.9811 19.3948 29.8079 19.4001 29.6245C19.4001 29.385 19.3789 29.1252 19.3842 28.8908C19.3842 28.8399 19.3895 28.7838 19.3895 28.738C19.3895 28.7023 19.3842 28.5953 19.3789 28.5597C19.3789 28.5036 19.3895 28.4985 19.3842 28.4527C19.3842 28.3508 19.3683 28.2744 19.3736 28.1623C19.3736 27.9738 19.3895 27.7955 19.3842 27.5866C19.3895 27.5509 19.4054 27.5662 19.4107 27.612C19.4107 27.8566 19.4107 27.8974 19.4107 28.1419C19.4107 28.1164 19.4107 28.096 19.4213 28.1011C19.4213 28.1776 19.416 28.203 19.4213 28.2591C19.4213 28.0757 19.4478 28.091 19.4584 28.1572C19.4584 28.6208 19.4584 29.1405 19.4584 29.5532C19.4637 29.5939 19.4744 29.6194 19.4797 29.6907C19.4797 30.139 19.485 30.567 19.4903 31.0408C19.5115 30.5212 19.5009 29.9811 19.4903 29.3799C19.4903 29.3545 19.5009 29.3799 19.5009 29.3137C19.5009 29.0182 19.4903 28.7584 19.4903 28.5597C19.5062 28.4782 19.5221 28.3915 19.538 28.2998C19.5274 27.6681 19.5857 27.2096 19.5857 26.6033C19.5963 26.6033 19.6016 26.5574 19.6069 26.5421C19.6175 26.5931 19.6281 26.6237 19.6334 26.6797C19.6334 26.7765 19.6387 26.8784 19.6334 26.965C19.6652 27.4745 19.644 28.1979 19.6599 28.8297C19.6758 28.9061 19.6917 28.845 19.7076 28.794C19.7182 28.4883 19.6917 28.2132 19.7129 27.8872C19.7553 27.77 19.7818 27.8923 19.7871 28.1419C19.7871 28.5597 19.7871 29.2526 19.7818 29.5328C19.7924 30.8014 19.803 31.9222 19.8136 33.1908C19.8243 32.503 19.7977 31.8611 19.8136 31.2446C19.8083 31.2446 19.803 31.2242 19.803 31.1784C19.803 30.5721 19.803 29.8945 19.7924 29.3646C19.8189 29.1405 19.7924 28.7074 19.8136 28.4833C19.8561 28.5393 19.872 28.7278 19.8826 28.9571C19.8826 28.7176 19.8932 28.4985 19.8985 28.2947C19.8985 28.1317 19.8879 27.8464 19.8985 27.7649C19.8985 27.7445 19.9091 27.7853 19.9091 27.7445C19.9091 27.8107 19.9091 27.6222 19.9091 27.612C19.9091 27.5203 19.9038 27.5407 19.9038 27.4337C19.9038 27.2962 19.9038 27.3013 19.9144 27.2147C19.9144 26.7357 19.9144 26.3078 19.9144 25.8238C19.9144 25.7728 19.9144 25.6811 19.9144 25.6709C19.9144 25.6251 19.925 25.6658 19.925 25.6047C19.925 25.569 19.9197 25.5843 19.9197 25.5385C19.9197 25.35 19.9197 25.1462 19.925 24.9628C19.925 24.8914 19.925 24.815 19.925 24.7335L19.872 24.5144C19.8879 24.5501 19.872 24.4839 19.872 24.4839C19.872 24.4686 19.8773 24.4635 19.8879 24.4482C19.9144 24.4176 19.9939 24.3514 20.1052 24.3157C20.1582 24.2954 20.0946 24.3361 20.1635 24.3055C20.646 24.1527 21.3193 24.168 22.0456 24.1782C22.0986 24.1782 22.0562 24.1935 22.1357 24.1935C22.2364 24.1935 22.2099 24.1782 22.3001 24.1782C22.3531 24.1782 22.4061 24.1884 22.4326 24.1935C23.2543 24.2037 24.0973 24.1935 24.9402 24.1884C25.7355 24.1884 26.5201 24.1833 27.2676 24.1782C27.8561 24.1782 28.4233 24.1629 28.9482 24.1731C29.6798 24.1731 30.2736 24.1629 30.9309 24.1629C31.4081 24.1629 31.9117 24.1629 32.3358 24.1629C32.3942 24.1629 32.5055 24.1578 32.5691 24.1527C32.6698 24.1527 32.8342 24.1629 32.9349 24.1629C33.253 24.1629 33.6082 24.1527 33.9263 24.1476C34.2921 24.1476 34.6473 24.1476 35.0078 24.1476C35.1987 24.1476 35.4213 24.1374 35.6069 24.1374C35.7288 24.1374 35.8932 24.1425 36.0204 24.1476C36.4021 24.1476 36.8103 24.1374 37.1708 24.1374C37.6639 24.1374 38.1675 24.1578 38.6659 24.1374C39.2172 24.1476 39.8852 24.1476 40.4154 24.1374C40.8448 24.1629 41.2901 24.1374 41.7726 24.1425C41.8097 24.1425 41.868 24.1476 41.9104 24.1476C42.642 24.168 43.4584 24.1323 44.0522 24.1476C44.2749 24.1272 44.4657 24.1476 44.6725 24.1527C44.8952 24.1527 45.1019 24.1476 45.3193 24.1425C45.3776 24.1425 45.4677 24.1476 45.526 24.1476C45.7381 24.1476 45.9661 24.1425 46.194 24.1374C46.5545 24.1374 46.9309 24.1629 47.3445 24.1476C47.6626 24.1578 48.1291 24.1731 48.4949 24.1578C48.6539 24.1578 48.7865 24.1629 48.9137 24.168C49.0728 24.168 49.2212 24.168 49.3802 24.168C49.428 24.1578 49.4757 24.1527 49.5234 24.1374C49.5605 24.1221 49.6294 24.1221 49.6665 24.1018C49.7408 24.0916 49.7832 24.0916 49.8521 24.168C49.8998 24.2444 49.9528 24.3412 50.0111 24.4941C50.0429 24.6469 50.0907 24.8609 50.1119 25.0901C50.1278 25.3194 50.1225 25.5538 50.1119 25.834C50.1066 26.2161 50.1225 26.695 50.0801 26.9803C50.0005 27.1128 50.1172 27.3624 50.1013 27.6681C50.0854 27.8311 50.0641 27.8107 50.0323 27.877C50.0217 28.0196 50.0323 28.1572 50.0323 28.2998C50.027 28.4629 49.9899 28.5851 49.9899 28.7991L50.0111 28.8195ZM19.2676 27.9279C19.2676 27.9279 19.2623 27.9279 19.2623 27.9483C19.2464 27.9024 19.2676 27.7955 19.2676 27.9279ZM19.2729 27.9738C19.2729 28.1572 19.2888 28.417 19.2729 28.5495C19.2729 28.5851 19.2941 28.5189 19.2994 28.575C19.2888 28.6514 19.2835 28.7482 19.2835 28.8806C19.2517 28.8908 19.2729 28.6208 19.2464 28.6106C19.2464 28.5087 19.2464 28.4578 19.2358 28.4119C19.2464 28.1979 19.2252 28.1521 19.2358 27.9942C19.2517 28.0349 19.2464 27.9636 19.2676 27.9789L19.2729 27.9738Z" fill="white"/>
<path fill-rule="evenodd" clip-rule="evenodd" d="M23.4355 29.9258C23.4355 29.9258 23.4408 29.9614 23.4408 29.9818C23.4302 29.9767 23.4249 29.9411 23.4355 29.9258Z" fill="white"/>
<path fill-rule="evenodd" clip-rule="evenodd" d="M22.4492 30.8086C22.4492 30.8086 22.4598 30.8799 22.4492 30.8748C22.4492 30.8443 22.4492 30.829 22.4492 30.8086Z" fill="white"/>
<path fill-rule="evenodd" clip-rule="evenodd" d="M22.428 30.9023C22.428 30.9023 22.428 30.9482 22.428 30.9686C22.4174 30.9686 22.4227 30.9125 22.428 30.9023Z" fill="white"/>
<path fill-rule="evenodd" clip-rule="evenodd" d="M22.5766 31.1719C22.5766 31.1719 22.5872 31.2228 22.5766 31.2381C22.5713 31.2381 22.5766 31.1923 22.5766 31.1719Z" fill="white"/>
<path fill-rule="evenodd" clip-rule="evenodd" d="M22.4238 31.2969C22.4238 31.2969 22.4344 31.358 22.4344 31.4141C22.4238 31.3937 22.4291 31.3376 22.4238 31.2969Z" fill="white"/>
<path fill-rule="evenodd" clip-rule="evenodd" d="M23.1964 31.6328C23.1964 31.6939 23.2123 31.8111 23.1964 31.8519C23.207 31.7806 23.1911 31.699 23.1964 31.6328Z" fill="white"/>
<path fill-rule="evenodd" clip-rule="evenodd" d="M22.8569 31.793C22.8781 31.8643 22.8569 31.9968 22.8675 32.0936C22.8516 32.1088 22.8675 31.956 22.8516 31.9305C22.8516 31.9152 22.8516 31.8949 22.8569 31.8745C22.8569 31.849 22.8463 31.8235 22.8569 31.7981V31.793Z" fill="white"/>
<path fill-rule="evenodd" clip-rule="evenodd" d="M22.8047 32.6875C22.8047 32.6875 22.8206 32.6875 22.8206 32.7181C22.8206 32.7232 22.81 32.7283 22.8047 32.7283V32.6875Z" fill="white"/>
<path fill-rule="evenodd" clip-rule="evenodd" d="M22.9258 33.0664C22.9417 33.1275 22.9417 33.26 22.9258 33.3364C22.9258 33.3466 22.9364 33.3466 22.9311 33.367C22.9311 33.4129 22.9311 33.5097 22.9311 33.4129C22.9205 33.2906 22.9311 33.1989 22.9258 33.0664Z" fill="white"/>
<path fill-rule="evenodd" clip-rule="evenodd" d="M22.7457 33.1133C22.7457 33.1133 22.751 33.1489 22.751 33.1795C22.7404 33.1744 22.7404 33.1235 22.7457 33.1133Z" fill="white"/>
<path fill-rule="evenodd" clip-rule="evenodd" d="M23.2137 33.2031C23.2137 33.2031 23.2137 33.2643 23.2137 33.2897C23.2137 33.2694 23.2031 33.2235 23.2137 33.2031Z" fill="white"/>
<path fill-rule="evenodd" clip-rule="evenodd" d="M22.8055 33.1836C22.8055 33.1836 22.8108 33.26 22.8161 33.2906C22.8002 33.3161 22.8055 33.2193 22.8055 33.1836Z" fill="white"/>
<path fill-rule="evenodd" clip-rule="evenodd" d="M22.7578 33.2227C22.7578 33.2227 22.7631 33.2991 22.7684 33.3398C22.7578 33.3144 22.7631 33.2634 22.7578 33.2227Z" fill="white"/>
<path fill-rule="evenodd" clip-rule="evenodd" d="M23.2969 33.2969C23.2969 33.2969 23.3075 33.3376 23.3128 33.3631C23.3022 33.358 23.3022 33.3173 23.2969 33.2969Z" fill="white"/>
<path fill-rule="evenodd" clip-rule="evenodd" d="M23.2073 33.3359C23.2179 33.3665 23.2126 33.4735 23.2073 33.5295C23.1967 33.4633 23.202 33.4124 23.2073 33.3359Z" fill="white"/>
<path fill-rule="evenodd" clip-rule="evenodd" d="M22.7674 33.3633C22.7833 33.4142 22.7674 33.4856 22.7674 33.5263C22.7568 33.4805 22.7727 33.4142 22.7674 33.3633Z" fill="white"/>
<path fill-rule="evenodd" clip-rule="evenodd" d="M22.9325 33.4883C22.9325 33.4883 22.9378 33.5392 22.9431 33.5647C22.9272 33.5698 22.9325 33.5188 22.9325 33.4883Z" fill="white"/>
<path fill-rule="evenodd" clip-rule="evenodd" d="M22.8949 33.5742C22.8949 33.5742 22.8949 33.615 22.8949 33.6506C22.8896 33.6405 22.8949 33.5946 22.8949 33.5742Z" fill="white"/>
<path fill-rule="evenodd" clip-rule="evenodd" d="M22.853 33.6562C22.853 33.6562 22.8636 33.7378 22.8477 33.7225C22.8477 33.7021 22.8477 33.7021 22.8583 33.7021C22.8583 33.6766 22.853 33.6817 22.8583 33.6562H22.853Z" fill="white"/>
<path fill-rule="evenodd" clip-rule="evenodd" d="M23.1232 33.8612C23.1073 33.8153 23.1285 33.7338 23.1232 33.8612V33.8612Z" fill="white"/>
<path fill-rule="evenodd" clip-rule="evenodd" d="M23.2563 33.9609C23.2616 34.0017 23.2563 34.0374 23.2563 34.0883C23.2563 34.0577 23.251 33.9813 23.2563 33.9609Z" fill="white"/>
<path fill-rule="evenodd" clip-rule="evenodd" d="M23.2773 33.9922C23.2773 33.9922 23.2879 34.0533 23.2773 34.038V33.9922Z" fill="white"/>
<path fill-rule="evenodd" clip-rule="evenodd" d="M23.4625 34.0859C23.4625 34.0859 23.4731 34.1318 23.4678 34.1522C23.4572 34.1471 23.4572 34.0961 23.4625 34.0859Z" fill="white"/>
<path fill-rule="evenodd" clip-rule="evenodd" d="M23.4453 34.3555C23.4453 34.4625 23.4612 34.437 23.4453 34.3555V34.3555Z" fill="white"/>
<path fill-rule="evenodd" clip-rule="evenodd" d="M23.4512 32.1914C23.4512 32.1914 23.4565 32.2322 23.4671 32.2424C23.4512 32.2729 23.4671 32.329 23.4565 32.3646C23.4406 32.3137 23.4565 32.2627 23.4512 32.1914Z" fill="white"/>
<path fill-rule="evenodd" clip-rule="evenodd" d="M23.149 33.2666C23.149 33.2666 23.1437 33.287 23.149 33.3125C23.1437 33.3125 23.1437 33.3023 23.1384 33.3023C23.1384 33.3482 23.1384 33.3787 23.1384 33.4195C23.1384 33.4144 23.1331 33.4093 23.1278 33.4093C23.149 33.4653 23.1172 33.5265 23.1278 33.6386C23.1066 33.5316 23.1278 33.2921 23.1172 33.1953C23.1331 33.2106 23.1172 33.2921 23.1331 33.3023C23.1437 33.3023 23.1331 33.2514 23.149 33.2666Z" fill="white"/>
<path fill-rule="evenodd" clip-rule="evenodd" d="M22.8094 33.365C22.82 33.365 22.8094 33.4058 22.8094 33.4109C22.7988 33.4007 22.8094 33.2733 22.8094 33.365Z" fill="white"/>
<path fill-rule="evenodd" clip-rule="evenodd" d="M22.8516 34.0791H22.8357C22.8357 34.1402 22.8357 34.237 22.8251 34.2778C22.8145 34.2065 22.841 34.0485 22.8198 33.9976C22.8198 33.9772 22.8198 33.9721 22.8251 33.9517C22.8039 33.7836 22.8251 33.6002 22.8145 33.4219C22.8516 33.5034 22.7985 33.6817 22.841 33.7683C22.841 33.7836 22.841 33.7683 22.841 33.7581C22.841 33.8346 22.8304 33.9772 22.8569 34.0791H22.8516Z" fill="white"/>
<path fill-rule="evenodd" clip-rule="evenodd" d="M23.3036 34.0195C23.3036 34.0195 23.3089 34.0603 23.3195 34.0807C23.3195 34.0909 23.2983 34.0399 23.3036 34.0195Z" fill="white"/>
<path fill-rule="evenodd" clip-rule="evenodd" d="M32.6973 31.9859C32.6973 32.0267 32.7079 32.0776 32.7079 32.1235C32.7079 32.2305 32.692 32.3222 32.7026 32.4292C32.7079 32.5209 32.7292 32.6126 32.7345 32.7094C32.7345 32.7807 32.7451 32.8062 32.7451 32.8571C32.7557 32.9998 32.7504 33.117 32.7875 33.1781C32.8087 33.3004 32.8246 33.3768 32.8458 33.4889C32.8458 33.5042 32.8458 33.5296 32.8458 33.5347C32.9041 33.7589 32.9942 33.8914 33.0366 34.1563C33.0578 34.1767 33.0897 34.192 33.1162 34.2378C33.1268 34.2582 33.1374 34.3041 33.148 34.3193C33.1904 34.3703 33.2487 34.3244 33.2805 34.4263C33.2911 34.4314 33.2964 34.4161 33.3017 34.411C33.3918 34.411 33.4661 34.3754 33.535 34.4009C33.5774 34.3346 33.6198 34.3499 33.6622 34.2939C33.6834 34.2633 33.7099 34.1971 33.7311 34.1563C33.7577 34.1104 33.7789 34.0595 33.8054 34.0187C33.8319 34.0187 33.8372 33.9576 33.8584 33.9474C33.8743 33.8863 33.8955 33.7997 33.9114 33.7385C33.922 33.7334 33.9273 33.7131 33.9379 33.7131C33.9856 33.5551 34.0386 33.3921 34.0545 33.173C34.0545 33.1475 34.0545 33.1068 34.0545 33.0864C34.0545 32.9234 34.0651 32.6737 34.0969 32.5871C34.0969 32.5565 34.0916 32.5565 34.0969 32.5311C34.1129 32.5107 34.1447 32.4241 34.1447 32.3528C34.1447 32.3273 34.1235 32.2814 34.1182 32.2254C34.1129 32.1439 34.1447 32.0624 34.1394 31.9859C34.1394 31.9503 34.1182 31.9146 34.1129 31.8789C34.1022 31.7821 34.1129 31.5936 34.1129 31.5121C34.1182 31.451 34.1341 31.4255 34.1341 31.3797C34.1341 31.3389 34.1129 31.3032 34.0863 31.3083C34.028 31.1861 34.0704 30.8702 34.0439 30.6817C34.0651 30.5441 34.028 30.4117 34.0333 30.2792C34.0333 30.2639 34.0386 30.2079 34.0439 30.1926C34.0439 30.1467 34.0333 30.0856 34.028 30.0295C34.0227 29.9277 34.0227 29.841 34.0121 29.7595C34.0492 29.6372 34.0015 29.5201 34.0015 29.408C34.0015 29.3621 34.0121 29.3214 34.0068 29.2704C34.0068 29.2246 33.9856 29.1838 33.9803 29.138C33.9803 29.0921 33.9803 29.0412 33.9803 28.9953C33.9803 28.9596 33.9644 28.9342 33.9591 28.9036C33.9538 28.8628 33.9591 28.8374 33.9432 28.7966C33.9326 28.7559 33.9114 28.7151 33.9008 28.6743C33.8531 28.5164 33.8054 28.333 33.6993 28.1852C33.5668 27.8999 33.3017 27.6044 32.7981 27.4618C32.6708 27.4414 32.5807 27.4414 32.4482 27.4414C32.4164 27.4414 32.4217 27.4516 32.374 27.4567C32.3262 27.4567 32.2997 27.4618 32.2149 27.4873L32.3793 27.4618C32.2573 27.4618 32.1301 27.4822 32.0081 27.472C32.0081 27.472 31.9975 27.4822 31.9869 27.4822C31.7855 27.4669 31.5257 27.4618 31.3667 27.4822C31.2447 27.4669 31.0963 27.4822 30.9478 27.4822C30.8736 27.4822 30.8047 27.472 30.7358 27.4771C30.6032 27.4822 30.4336 27.4771 30.3064 27.4771C30.2852 27.4771 30.2162 27.4873 30.195 27.4873C30.1261 27.4873 30.0572 27.4822 29.983 27.4873C29.7073 27.5076 29.3945 27.4924 29.1506 27.4924C29.0764 27.4924 29.0128 27.5025 28.928 27.5076C28.7901 27.5127 28.647 27.4974 28.5091 27.5025C28.4879 27.5025 28.4296 27.5076 28.4084 27.5127C28.3236 27.5127 28.2441 27.5127 28.1592 27.5127C27.9472 27.5127 27.7298 27.5331 27.5284 27.5127C27.2686 27.5331 26.8975 27.528 26.5953 27.5331C26.5264 27.5535 26.4628 27.5331 26.3938 27.5331C26.1818 27.5382 25.9061 27.5637 25.6834 27.5484C25.148 27.5586 24.6973 27.5688 24.2308 27.5841C23.9604 27.5841 23.6688 27.6503 23.3826 27.7573C23.1016 27.8694 22.8259 28.0833 22.6616 28.3534C22.5979 28.4298 22.5343 28.5673 22.5184 28.6489C22.5025 28.6641 22.4813 28.7151 22.4707 28.7559C22.4495 28.9036 22.4071 29.0819 22.4177 29.2602C22.4336 29.2908 22.4336 29.3468 22.4442 29.4131V29.4284C22.4442 29.4284 22.4548 29.4335 22.4548 29.4386C22.4442 29.4487 22.4442 29.4233 22.4389 29.4386C22.4813 29.5048 22.4601 29.8359 22.4707 29.9684C22.4707 29.9582 22.476 29.9582 22.476 29.9684C22.4654 30.0041 22.4866 30.0194 22.4866 30.055C22.4866 30.3098 22.5343 30.4881 22.5502 30.7021C22.5449 30.7275 22.529 30.8039 22.5396 30.8243C22.5396 30.7836 22.5396 30.7377 22.5608 30.7377C22.5555 30.8039 22.5608 30.8855 22.5767 30.9313C22.5767 31.0128 22.5714 31.0536 22.5767 31.1249C22.5767 31.1402 22.5926 31.1096 22.5926 31.1453C22.582 31.2574 22.5979 31.3134 22.5926 31.4153C22.6085 31.4459 22.6138 31.5631 22.6032 31.5987C22.6085 31.6293 22.6191 31.5631 22.6191 31.5885C22.6191 31.6802 22.6298 31.7669 22.6191 31.8484C22.6244 31.8688 22.6351 31.884 22.6404 31.9197C22.6404 31.9452 22.6244 31.9146 22.6298 31.9503C22.6404 31.9808 22.6457 31.9248 22.6563 31.935C22.6616 31.9808 22.6722 31.9706 22.6828 31.9961C22.6722 32.0573 22.6934 32.1031 22.6987 32.1592C22.6987 32.2611 22.6987 32.2509 22.704 32.3426C22.704 32.3935 22.7199 32.4139 22.7199 32.4699C22.7199 32.5158 22.7093 32.5515 22.7093 32.6024C22.7093 32.6279 22.7199 32.582 22.7252 32.6228C22.7252 32.8011 22.7358 32.9743 22.757 33.1068C22.7305 32.9081 22.757 32.7603 22.7358 32.5871C22.7517 32.5616 22.7252 32.5107 22.7464 32.4801C22.7358 32.4699 22.7305 32.5107 22.7305 32.4699C22.7305 32.4547 22.7305 32.4496 22.7305 32.4292C22.7517 32.4547 22.7517 32.419 22.7623 32.4037C22.7623 32.2661 22.757 32.1286 22.7517 32.0063C22.7517 31.9808 22.7411 32.0216 22.7358 31.9961C22.7358 31.935 22.7358 31.9401 22.7305 31.8535C22.7464 31.8382 22.7517 31.7974 22.7676 31.8178C22.7676 31.991 22.7941 32.2305 22.7994 32.4343C22.7994 32.4954 22.7835 32.5616 22.81 32.5973C22.8047 32.5056 22.8259 32.4292 22.8312 32.3477C22.8312 32.2407 22.81 32.1337 22.8153 32.0267C22.8153 31.9961 22.8206 31.9859 22.8206 31.9605C22.8206 31.9401 22.81 31.9044 22.81 31.884C22.81 31.8586 22.8206 31.8586 22.8153 31.8382C22.8153 31.7923 22.7994 31.7618 22.8047 31.7108C22.8047 31.6293 22.8206 31.5478 22.8153 31.4612C22.8206 31.4459 22.8365 31.451 22.8418 31.4714C22.8418 31.5784 22.8418 31.5936 22.8418 31.7006C22.8418 31.6904 22.8418 31.6802 22.8524 31.6802C22.8524 31.7159 22.8471 31.7261 22.8524 31.7465C22.8524 31.665 22.8789 31.6752 22.8895 31.7006C22.8895 31.8993 22.8948 32.1439 22.8895 32.3069C22.8948 32.3273 22.9054 32.3375 22.9107 32.368C22.9107 32.5973 22.9107 32.7196 22.9213 32.9539C22.9425 32.7298 22.9319 32.4954 22.9213 32.2305C22.9213 32.2203 22.9319 32.2305 22.9319 32.1999C22.9213 32.0878 22.9266 31.9605 22.9213 31.8738C22.9372 31.8382 22.9531 31.8025 22.969 31.7618C22.9584 31.4866 23.0168 31.288 23.0168 31.023C23.0274 31.023 23.0327 31.0026 23.038 30.9976C23.0486 31.0179 23.0592 31.0332 23.0645 31.0587C23.0645 31.0994 23.0698 31.1453 23.0645 31.1861C23.0963 31.4051 23.0751 31.721 23.091 31.9961C23.1069 32.0318 23.1228 32.0012 23.1387 31.9808C23.1493 31.8484 23.1228 31.7261 23.144 31.5885C23.1864 31.5376 23.2129 31.5885 23.2182 31.7006C23.2182 31.8789 23.2182 32.1897 23.2129 32.3069C23.2394 32.8317 23.2288 33.3564 23.2447 33.8965C23.2553 33.5959 23.2288 33.3208 23.2447 33.0507C23.2394 33.0507 23.2341 33.0406 23.2341 33.0202C23.2341 32.7552 23.2341 32.4648 23.2235 32.2305C23.25 32.1337 23.2235 31.9452 23.2447 31.8484C23.2871 31.8738 23.303 31.9554 23.3136 32.0573C23.3136 31.9554 23.3243 31.8586 23.3296 31.772C23.3296 31.7006 23.3189 31.5784 23.3296 31.5427C23.3296 31.5325 23.3402 31.5529 23.3402 31.5325C23.3402 31.5631 23.3402 31.4816 23.3402 31.4765C23.3402 31.4357 23.3349 31.4459 23.3349 31.4C23.3349 31.3389 23.3349 31.344 23.3455 31.3032C23.3455 31.0791 23.3455 30.9415 23.3455 30.697C23.3455 30.6715 23.3455 30.6358 23.3455 30.6307C23.3455 30.6103 23.3561 30.6307 23.3561 30.6002C23.3561 30.5849 23.3508 30.59 23.3508 30.5696C23.3508 30.483 23.3508 30.3913 23.3561 30.3199C23.3561 30.1213 23.3561 29.8869 23.3614 29.7239C23.3614 29.6882 23.3773 29.734 23.3773 29.6882C23.3773 29.5965 23.3773 29.5048 23.3826 29.408C23.3826 29.3876 23.3826 29.3723 23.3826 29.3519C23.3826 29.3316 23.3826 29.3163 23.3826 29.2959C23.3826 29.2093 23.3826 29.0717 23.425 28.98C23.4303 28.9698 23.4409 28.98 23.4462 28.9647C23.4568 28.9444 23.4409 28.9444 23.4462 28.9291C23.4515 28.9189 23.4621 28.9138 23.4727 28.9087C23.5522 28.7711 23.6688 28.6743 23.918 28.5979C24.0347 28.5724 24.1619 28.5521 24.305 28.5521C24.4376 28.5419 24.6337 28.5521 24.7875 28.547C25.0419 28.547 25.2911 28.5317 25.5191 28.5419C25.8266 28.5317 26.0916 28.5317 26.3832 28.5317C26.59 28.5317 26.818 28.5368 26.9929 28.5317C27.0247 28.5317 27.0565 28.5215 27.0936 28.5215C27.1254 28.5215 27.2209 28.5317 27.2527 28.5317C27.3746 28.5317 27.5602 28.5215 27.6821 28.5164C27.8411 28.5164 27.9949 28.5164 28.1539 28.5164C28.2229 28.5164 28.3448 28.5062 28.4137 28.5062C28.4561 28.5062 28.5463 28.5113 28.594 28.5164C28.7636 28.5164 28.9333 28.5011 29.0976 28.5062C29.3097 28.5062 29.5323 28.5266 29.7497 28.5062C29.9883 28.5164 30.2799 28.5164 30.5078 28.5062C30.6934 28.5317 30.8895 28.5062 31.0963 28.5113C31.1069 28.5113 31.144 28.5164 31.1546 28.5164C31.4727 28.5368 31.8279 28.5011 32.0877 28.5164C32.1831 28.496 32.2679 28.5164 32.358 28.5215H32.374L32.5383 28.5011C32.4853 28.5164 32.5436 28.496 32.5489 28.5011L32.5595 28.5113C32.5595 28.5113 32.5913 28.5113 32.6178 28.5317C32.6549 28.5623 32.6761 28.6387 32.7398 28.7355C32.761 28.8221 32.7822 28.9647 32.8246 29.087C32.8246 29.3061 32.8723 29.515 32.8564 29.7799C32.8564 29.8665 32.8352 29.948 32.8511 30.0397C32.8299 30.1314 32.8405 30.2435 32.8405 30.3556C32.8405 30.4422 32.8299 30.5951 32.8246 30.7021C32.8193 30.8702 32.8352 31.074 32.7928 31.2013C32.7133 31.2574 32.8299 31.3695 32.814 31.5019C32.7981 31.5733 32.7769 31.5631 32.7451 31.5936C32.7345 31.6548 32.7451 31.7159 32.7451 31.777C32.7398 31.8484 32.7026 31.8993 32.7026 31.9961L32.6973 31.9859ZM22.6934 31.6038C22.6934 31.6038 22.6881 31.6038 22.6881 31.614C22.6722 31.5936 22.6934 31.5478 22.6934 31.6038ZM22.6987 31.6242C22.6987 31.7057 22.7146 31.8178 22.6987 31.8738C22.6987 31.8891 22.7199 31.8586 22.7252 31.884C22.7146 31.9197 22.7093 31.9605 22.7093 32.0165C22.6775 32.0165 22.6987 31.9044 22.6722 31.8993C22.6722 31.8535 22.6722 31.8331 22.6616 31.8127C22.6722 31.721 22.651 31.7006 22.6616 31.6293C22.6775 31.6497 22.6722 31.6191 22.6934 31.6242H22.6987Z" fill="white"/>
<path fill-rule="evenodd" clip-rule="evenodd" d="M37.1659 29.9258C37.1659 29.9258 37.1712 29.9614 37.1712 29.9818C37.1606 29.9767 37.1553 29.9411 37.1659 29.9258Z" fill="white"/>
<path fill-rule="evenodd" clip-rule="evenodd" d="M36.1797 30.8086C36.1797 30.8086 36.1903 30.8799 36.1797 30.8748C36.1797 30.8443 36.1797 30.829 36.1797 30.8086Z" fill="white"/>
<path fill-rule="evenodd" clip-rule="evenodd" d="M36.1585 30.9023C36.1585 30.9023 36.1585 30.9482 36.1585 30.9686C36.1479 30.9686 36.1532 30.9125 36.1585 30.9023Z" fill="white"/>
<path fill-rule="evenodd" clip-rule="evenodd" d="M36.307 31.1719C36.307 31.1719 36.3176 31.2228 36.307 31.2381C36.3017 31.2381 36.307 31.1923 36.307 31.1719Z" fill="white"/>
<path fill-rule="evenodd" clip-rule="evenodd" d="M36.1543 31.2969C36.1543 31.2969 36.1649 31.358 36.1649 31.4141C36.1543 31.3937 36.1596 31.3376 36.1543 31.2969Z" fill="white"/>
<path fill-rule="evenodd" clip-rule="evenodd" d="M36.9269 31.6328C36.9269 31.6939 36.9428 31.8111 36.9269 31.8519C36.9375 31.7806 36.9216 31.699 36.9269 31.6328Z" fill="white"/>
<path fill-rule="evenodd" clip-rule="evenodd" d="M36.5873 31.793C36.6085 31.8643 36.5873 31.9968 36.5979 32.0936C36.582 32.1088 36.5979 31.956 36.582 31.9305C36.582 31.9152 36.582 31.8949 36.5873 31.8745C36.5873 31.849 36.5767 31.8235 36.5873 31.7981V31.793Z" fill="white"/>
<path fill-rule="evenodd" clip-rule="evenodd" d="M36.5352 32.6875C36.5352 32.6875 36.5511 32.6875 36.5511 32.7181C36.5511 32.7232 36.5405 32.7283 36.5352 32.7283V32.6875Z" fill="white"/>
<path fill-rule="evenodd" clip-rule="evenodd" d="M36.6562 33.0664C36.6722 33.1275 36.6722 33.26 36.6562 33.3364C36.6562 33.3466 36.6669 33.3466 36.6616 33.367C36.6616 33.4129 36.6616 33.5097 36.6616 33.4129C36.6509 33.2906 36.6616 33.1989 36.6562 33.0664Z" fill="white"/>
<path fill-rule="evenodd" clip-rule="evenodd" d="M36.4761 33.1133C36.4761 33.1133 36.4814 33.1489 36.4814 33.1795C36.4708 33.1744 36.4708 33.1235 36.4761 33.1133Z" fill="white"/>
<path fill-rule="evenodd" clip-rule="evenodd" d="M36.9442 33.2031C36.9442 33.2031 36.9442 33.2643 36.9442 33.2897C36.9442 33.2694 36.9336 33.2235 36.9442 33.2031Z" fill="white"/>
<path fill-rule="evenodd" clip-rule="evenodd" d="M36.5399 33.1836C36.5399 33.1836 36.5452 33.26 36.5505 33.2906C36.5346 33.3161 36.5399 33.2193 36.5399 33.1836Z" fill="white"/>
<path fill-rule="evenodd" clip-rule="evenodd" d="M36.4883 33.2227C36.4883 33.2227 36.4936 33.2991 36.4989 33.3398C36.4883 33.3144 36.4936 33.2634 36.4883 33.2227Z" fill="white"/>
<path fill-rule="evenodd" clip-rule="evenodd" d="M37.0273 33.2969C37.0273 33.2969 37.0379 33.3376 37.0432 33.3631C37.0326 33.358 37.0326 33.3173 37.0273 33.2969Z" fill="white"/>
<path fill-rule="evenodd" clip-rule="evenodd" d="M36.9436 33.3359C36.9542 33.3665 36.9489 33.4735 36.9436 33.5295C36.933 33.4633 36.9383 33.4124 36.9436 33.3359Z" fill="white"/>
<path fill-rule="evenodd" clip-rule="evenodd" d="M36.4979 33.3633C36.5138 33.4142 36.4979 33.4856 36.4979 33.5263C36.4873 33.4805 36.5032 33.4142 36.4979 33.3633Z" fill="white"/>
<path fill-rule="evenodd" clip-rule="evenodd" d="M36.663 33.4883C36.663 33.4883 36.6683 33.5392 36.6736 33.5647C36.6577 33.5698 36.663 33.5188 36.663 33.4883Z" fill="white"/>
<path fill-rule="evenodd" clip-rule="evenodd" d="M36.6254 33.5742C36.6254 33.5742 36.6254 33.615 36.6254 33.6506C36.6201 33.6405 36.6254 33.5946 36.6254 33.5742Z" fill="white"/>
<path fill-rule="evenodd" clip-rule="evenodd" d="M36.5834 33.6562C36.5834 33.6562 36.594 33.7378 36.5781 33.7225C36.5781 33.7021 36.5781 33.7021 36.5887 33.7021C36.5887 33.6766 36.5834 33.6817 36.5887 33.6562H36.5834Z" fill="white"/>
<path fill-rule="evenodd" clip-rule="evenodd" d="M36.8537 33.8612C36.8378 33.8153 36.859 33.7338 36.8537 33.8612V33.8612Z" fill="white"/>
<path fill-rule="evenodd" clip-rule="evenodd" d="M36.9867 33.9609C36.992 34.0017 36.9867 34.0374 36.9867 34.0883C36.9867 34.0577 36.9814 33.9813 36.9867 33.9609Z" fill="white"/>
<path fill-rule="evenodd" clip-rule="evenodd" d="M37.0078 33.9922C37.0078 33.9922 37.0184 34.0533 37.0078 34.038V33.9922Z" fill="white"/>
<path fill-rule="evenodd" clip-rule="evenodd" d="M37.1929 34.0859C37.1929 34.0859 37.2035 34.1318 37.1982 34.1522C37.1876 34.1471 37.1876 34.0961 37.1929 34.0859Z" fill="white"/>
<path fill-rule="evenodd" clip-rule="evenodd" d="M37.1758 34.3555C37.1758 34.4625 37.1917 34.437 37.1758 34.3555V34.3555Z" fill="white"/>
<path fill-rule="evenodd" clip-rule="evenodd" d="M37.1817 32.1914C37.1817 32.1914 37.187 32.2322 37.1976 32.2424C37.1817 32.2729 37.1976 32.329 37.187 32.3646C37.1711 32.3137 37.187 32.2627 37.1817 32.1914Z" fill="white"/>
<path fill-rule="evenodd" clip-rule="evenodd" d="M36.8795 33.2666C36.8795 33.2666 36.8742 33.287 36.8795 33.3125C36.8742 33.3125 36.8742 33.3023 36.8689 33.3023C36.8689 33.3482 36.8689 33.3787 36.8689 33.4195C36.8689 33.4144 36.8636 33.4093 36.8583 33.4093C36.8795 33.4653 36.8477 33.5265 36.8583 33.6386C36.8371 33.5316 36.8583 33.2921 36.8477 33.1953C36.8636 33.2106 36.8477 33.2921 36.8636 33.3023C36.8742 33.3023 36.8636 33.2514 36.8795 33.2666Z" fill="white"/>
<path fill-rule="evenodd" clip-rule="evenodd" d="M36.5457 33.365C36.5563 33.365 36.5457 33.4058 36.5457 33.4109C36.5351 33.4007 36.5457 33.2733 36.5457 33.365Z" fill="white"/>
<path fill-rule="evenodd" clip-rule="evenodd" d="M36.582 34.0791H36.5661C36.5661 34.1402 36.5661 34.237 36.5555 34.2778C36.5449 34.2065 36.5714 34.0485 36.5502 33.9976C36.5502 33.9772 36.5502 33.9721 36.5555 33.9517C36.5343 33.7836 36.5555 33.6002 36.5449 33.4219C36.582 33.5034 36.529 33.6817 36.5714 33.7683C36.5714 33.7836 36.5714 33.7683 36.5714 33.7581C36.5714 33.8346 36.5608 33.9772 36.5873 34.0791H36.582Z" fill="white"/>
<path fill-rule="evenodd" clip-rule="evenodd" d="M37.0341 34.0195C37.0341 34.0195 37.0394 34.0603 37.05 34.0807C37.05 34.0909 37.0288 34.0399 37.0341 34.0195Z" fill="white"/>
<path fill-rule="evenodd" clip-rule="evenodd" d="M46.4278 31.9859C46.4278 32.0267 46.4384 32.0776 46.4384 32.1235C46.4384 32.2305 46.4225 32.3222 46.4331 32.4292C46.4384 32.5209 46.4596 32.6126 46.4649 32.7094C46.4649 32.7807 46.4755 32.8062 46.4755 32.8571C46.4861 32.9998 46.4808 33.117 46.5179 33.1781C46.5391 33.3004 46.5551 33.3768 46.5763 33.4889C46.5763 33.5042 46.5763 33.5296 46.5763 33.5347C46.6346 33.7589 46.7247 33.8914 46.7671 34.1563C46.7883 34.1767 46.8201 34.192 46.8466 34.2378C46.8572 34.2582 46.8678 34.3041 46.8784 34.3193C46.9209 34.3703 46.9792 34.3244 47.011 34.4263C47.0216 34.4314 47.0269 34.4161 47.0322 34.411C47.1223 34.411 47.1965 34.3754 47.2655 34.4009C47.3079 34.3346 47.3503 34.3499 47.3927 34.2939C47.4139 34.2633 47.4404 34.1971 47.4616 34.1563C47.4881 34.1104 47.5093 34.0595 47.5358 34.0187C47.5623 34.0187 47.5676 33.9576 47.5888 33.9474C47.6048 33.8863 47.626 33.7997 47.6419 33.7385C47.6525 33.7334 47.6578 33.7131 47.6684 33.7131C47.7161 33.5551 47.7691 33.3921 47.785 33.173C47.785 33.1475 47.785 33.1068 47.785 33.0864C47.785 32.9234 47.7956 32.6737 47.8274 32.5871C47.8274 32.5565 47.8221 32.5565 47.8274 32.5311C47.8433 32.5107 47.8751 32.4241 47.8751 32.3528C47.8751 32.3273 47.8539 32.2814 47.8486 32.2254C47.8433 32.1439 47.8751 32.0624 47.8698 31.9859C47.8698 31.9503 47.8486 31.9146 47.8433 31.8789C47.8327 31.7821 47.8433 31.5936 47.8433 31.5121C47.8486 31.451 47.8645 31.4255 47.8645 31.3797C47.8645 31.3389 47.8433 31.3032 47.8168 31.3083C47.7585 31.1861 47.8009 30.8702 47.7744 30.6817C47.7956 30.5441 47.7585 30.4117 47.7638 30.2792C47.7638 30.2639 47.7691 30.2079 47.7744 30.1926C47.7744 30.1467 47.7638 30.0856 47.7585 30.0295C47.7532 29.9277 47.7532 29.841 47.7426 29.7595C47.7797 29.6372 47.732 29.5201 47.732 29.408C47.732 29.3621 47.7426 29.3214 47.7373 29.2704C47.7373 29.2246 47.7161 29.1838 47.7108 29.138C47.7108 29.0921 47.7108 29.0412 47.7108 28.9953C47.7108 28.9596 47.6949 28.9342 47.6896 28.9036C47.6843 28.8628 47.6896 28.8374 47.6737 28.7966C47.6631 28.7559 47.6419 28.7151 47.6313 28.6743C47.5835 28.5164 47.5358 28.333 47.4298 28.1852C47.2973 27.8999 47.0322 27.6044 46.5285 27.4618C46.4013 27.4414 46.3112 27.4414 46.1786 27.4414C46.1468 27.4414 46.1521 27.4516 46.1044 27.4567C46.0567 27.4567 46.0302 27.4618 45.9454 27.4873L46.1097 27.4618C45.9878 27.4618 45.8606 27.4822 45.7386 27.472C45.7386 27.472 45.728 27.4822 45.7174 27.4822C45.516 27.4669 45.2562 27.4618 45.0971 27.4822C44.9752 27.4669 44.8268 27.4822 44.6783 27.4822C44.6041 27.4822 44.5352 27.472 44.4663 27.4771C44.3337 27.4822 44.1641 27.4771 44.0368 27.4771C44.0156 27.4771 43.9467 27.4873 43.9255 27.4873C43.8566 27.4873 43.7877 27.4822 43.7134 27.4873C43.4378 27.5076 43.125 27.4924 42.8811 27.4924C42.8069 27.4924 42.7433 27.5025 42.6584 27.5076C42.5206 27.5127 42.3774 27.4974 42.2396 27.5025C42.2184 27.5025 42.1601 27.5076 42.1389 27.5127C42.0541 27.5127 41.9745 27.5127 41.8897 27.5127C41.6776 27.5127 41.4603 27.5331 41.2588 27.5127C40.9991 27.5331 40.6279 27.528 40.3258 27.5331C40.2568 27.5535 40.1932 27.5331 40.1243 27.5331C39.9122 27.5382 39.6366 27.5637 39.4139 27.5484C38.8784 27.5586 38.4278 27.5688 37.9613 27.5841C37.6909 27.5841 37.3993 27.6503 37.113 27.7573C36.8321 27.8694 36.5564 28.0833 36.392 28.3534C36.3284 28.4298 36.2648 28.5673 36.2489 28.6489C36.233 28.6641 36.2118 28.7151 36.2012 28.7559C36.18 28.9036 36.1376 29.0819 36.1482 29.2602C36.1641 29.2908 36.1641 29.3468 36.1747 29.4131V29.4284C36.1747 29.4284 36.1853 29.4335 36.1853 29.4386C36.1747 29.4487 36.1747 29.4233 36.1694 29.4386C36.2118 29.5048 36.1906 29.8359 36.2012 29.9684C36.2012 29.9582 36.2065 29.9582 36.2065 29.9684C36.1959 30.0041 36.2171 30.0194 36.2171 30.055C36.2171 30.3098 36.2648 30.4881 36.2807 30.7021C36.2754 30.7275 36.2595 30.8039 36.2701 30.8243C36.2701 30.7836 36.2701 30.7377 36.2913 30.7377C36.286 30.8039 36.2913 30.8855 36.3072 30.9313C36.3072 31.0128 36.3019 31.0536 36.3072 31.1249C36.3072 31.1402 36.3231 31.1096 36.3231 31.1453C36.3125 31.2574 36.3284 31.3134 36.3231 31.4153C36.339 31.4459 36.3443 31.5631 36.3337 31.5987C36.339 31.6293 36.3496 31.5631 36.3496 31.5885C36.3496 31.6802 36.3602 31.7669 36.3496 31.8484C36.3549 31.8688 36.3655 31.884 36.3708 31.9197C36.3708 31.9452 36.3549 31.9146 36.3602 31.9503C36.3708 31.9808 36.3761 31.9248 36.3867 31.935C36.392 31.9808 36.4026 31.9706 36.4132 31.9961C36.4026 32.0573 36.4238 32.1031 36.4291 32.1592C36.4291 32.2611 36.4291 32.2509 36.4344 32.3426C36.4344 32.3935 36.4503 32.4139 36.4503 32.4699C36.4503 32.5158 36.4397 32.5515 36.4397 32.6024C36.4397 32.6279 36.4556 32.582 36.4556 32.6228C36.4556 32.8011 36.4662 32.9743 36.4875 33.1068C36.4609 32.9081 36.4875 32.7603 36.4663 32.5871C36.4822 32.5616 36.4556 32.5107 36.4769 32.4801C36.4662 32.4699 36.4609 32.5107 36.4609 32.4699C36.4609 32.4547 36.4609 32.4496 36.4609 32.4292C36.4822 32.4547 36.4822 32.419 36.4928 32.4037C36.4928 32.2661 36.4875 32.1286 36.4822 32.0063C36.4822 31.9808 36.4716 32.0216 36.4663 31.9961C36.4663 31.935 36.4662 31.9401 36.4609 31.8535C36.4769 31.8382 36.4822 31.7974 36.4981 31.8178C36.4981 31.991 36.5246 32.2305 36.5299 32.4343C36.5299 32.4954 36.514 32.5616 36.5405 32.5973C36.5352 32.5056 36.5564 32.4292 36.5617 32.3477C36.5617 32.2407 36.5405 32.1337 36.5458 32.0267C36.5458 31.9961 36.5511 31.9859 36.5511 31.9605C36.5511 31.9401 36.5405 31.9044 36.5405 31.884C36.5405 31.8586 36.5511 31.8586 36.5458 31.8382C36.5458 31.7923 36.5299 31.7618 36.5352 31.7108C36.5352 31.6293 36.5511 31.5478 36.5458 31.4612C36.5511 31.4459 36.567 31.451 36.5723 31.4714C36.5723 31.5784 36.5723 31.5936 36.5723 31.7006C36.5723 31.6904 36.5723 31.6802 36.5829 31.6802C36.5829 31.7159 36.5776 31.7261 36.5829 31.7465C36.5829 31.665 36.6094 31.6752 36.62 31.7006C36.62 31.8993 36.6253 32.1439 36.62 32.3069C36.6253 32.3273 36.6359 32.3375 36.6412 32.368C36.6412 32.5973 36.6412 32.7196 36.6518 32.9539C36.673 32.7298 36.6624 32.4954 36.6518 32.2305C36.6518 32.2203 36.6624 32.2305 36.6624 32.1999C36.6518 32.0878 36.6571 31.9605 36.6518 31.8738C36.6677 31.8382 36.6836 31.8025 36.6995 31.7618C36.6889 31.4866 36.7472 31.288 36.7472 31.023C36.7578 31.023 36.7631 31.0026 36.7684 30.9976C36.779 31.0179 36.7896 31.0332 36.7949 31.0587C36.7949 31.0994 36.8002 31.1453 36.7949 31.1861C36.8268 31.4051 36.8055 31.721 36.8215 31.9961C36.8374 32.0318 36.8533 32.0012 36.8692 31.9808C36.8798 31.8484 36.8533 31.7261 36.8745 31.5885C36.9169 31.5376 36.9434 31.5885 36.9487 31.7006C36.9487 31.8789 36.9487 32.1897 36.9434 32.3069C36.9699 32.8317 36.9593 33.3564 36.9752 33.8965C36.9858 33.5959 36.9593 33.3208 36.9752 33.0507C36.9699 33.0507 36.9646 33.0406 36.9646 33.0202C36.9646 32.7552 36.9646 32.4648 36.954 32.2305C36.9805 32.1337 36.954 31.9452 36.9752 31.8484C37.0176 31.8738 37.0335 31.9554 37.0441 32.0573C37.0441 31.9554 37.0547 31.8586 37.06 31.772C37.06 31.7006 37.0494 31.5784 37.06 31.5427C37.06 31.5325 37.0706 31.5529 37.0706 31.5325C37.0706 31.5631 37.0706 31.4816 37.0706 31.4765C37.0706 31.4357 37.0653 31.4459 37.0653 31.4C37.0653 31.3389 37.0653 31.344 37.0759 31.3032C37.0759 31.0791 37.0759 30.9415 37.0759 30.697C37.0759 30.6715 37.0759 30.6358 37.0759 30.6307C37.0759 30.6103 37.0865 30.6307 37.0865 30.6002C37.0865 30.5849 37.0812 30.59 37.0812 30.5696C37.0812 30.483 37.0812 30.3913 37.0865 30.3199C37.0865 30.1213 37.0865 29.8869 37.0918 29.7239C37.0918 29.6882 37.1077 29.734 37.1077 29.6882C37.1077 29.5965 37.1077 29.5048 37.113 29.408C37.113 29.3876 37.113 29.3723 37.113 29.3519C37.113 29.3316 37.113 29.3163 37.113 29.2959C37.113 29.2093 37.113 29.0717 37.1554 28.98C37.1608 28.9698 37.1714 28.98 37.1767 28.9647C37.1873 28.9444 37.1714 28.9444 37.1767 28.9291C37.182 28.9189 37.1926 28.9138 37.2032 28.9087C37.2827 28.7711 37.3993 28.6743 37.6485 28.5979C37.7651 28.5724 37.8924 28.5521 38.0355 28.5521C38.168 28.5419 38.3642 28.5521 38.5179 28.547C38.7724 28.547 39.0216 28.5317 39.2496 28.5419C39.557 28.5317 39.8221 28.5317 40.1137 28.5317C40.3205 28.5317 40.5484 28.5368 40.7234 28.5317C40.7552 28.5317 40.787 28.5215 40.8241 28.5215C40.8559 28.5215 40.9513 28.5317 40.9831 28.5317C41.1051 28.5317 41.2906 28.5215 41.4126 28.5164C41.5716 28.5164 41.7254 28.5164 41.8844 28.5164C41.9533 28.5164 42.0753 28.5062 42.1442 28.5062C42.1866 28.5062 42.2767 28.5113 42.3244 28.5164C42.4941 28.5164 42.6637 28.5011 42.8281 28.5062C43.0401 28.5062 43.2628 28.5266 43.4802 28.5062C43.7187 28.5164 44.0103 28.5164 44.2383 28.5062C44.4238 28.5317 44.62 28.5062 44.8268 28.5113C44.8374 28.5113 44.8745 28.5164 44.8851 28.5164C45.2032 28.5368 45.5584 28.5011 45.8181 28.5164C45.9136 28.496 45.9984 28.5164 46.0885 28.5215H46.1044L46.2688 28.5011C46.2158 28.5164 46.2741 28.496 46.2794 28.5011L46.29 28.5113C46.29 28.5113 46.3218 28.5113 46.3483 28.5317C46.3854 28.5623 46.4066 28.6387 46.4702 28.7355C46.4914 28.8221 46.5126 28.9647 46.5551 29.087C46.5551 29.3061 46.6028 29.515 46.5869 29.7799C46.5869 29.8665 46.5657 29.948 46.5816 30.0397C46.5604 30.1314 46.571 30.2435 46.571 30.3556C46.571 30.4422 46.5604 30.5951 46.5551 30.7021C46.5497 30.8702 46.5657 31.074 46.5232 31.2013C46.4437 31.2574 46.5604 31.3695 46.5444 31.5019C46.5285 31.5733 46.5073 31.5631 46.4755 31.5936C46.4649 31.6548 46.4755 31.7159 46.4755 31.777C46.4702 31.8484 46.4331 31.8993 46.4331 31.9961L46.4278 31.9859ZM36.4238 31.6038C36.4238 31.6038 36.4185 31.6038 36.4185 31.614C36.4026 31.5936 36.4238 31.5478 36.4238 31.6038ZM36.4291 31.6242C36.4291 31.7057 36.445 31.8178 36.4291 31.8738C36.4291 31.8891 36.4503 31.8586 36.4556 31.884C36.445 31.9197 36.4397 31.9605 36.4397 32.0165C36.4079 32.0165 36.4291 31.9044 36.4026 31.8993C36.4026 31.8535 36.4026 31.8331 36.392 31.8127C36.4026 31.721 36.3814 31.7006 36.392 31.6293C36.4079 31.6497 36.4026 31.6191 36.4238 31.6242H36.4291Z" fill="white"/>
</g>
<defs>
<clipPath id="clip0_868_8339">
<rect width="40" height="25" fill="white" transform="translate(15 23)"/>
</clipPath>
</defs>
</svg>
