<svg width="743" height="369" viewBox="0 0 743 369" fill="none" xmlns="http://www.w3.org/2000/svg">
<path fill-rule="evenodd" clip-rule="evenodd" d="M722.044 83.0018C693.398 66.0089 613.312 40.4271 525.09 76.2675C497.484 87.4823 479.697 100.332 469.03 113.515C458.426 126.621 454.731 140.203 455.515 153.323C457.101 179.881 477.162 205.42 498.43 220.822C509.563 228.883 530.796 244.443 555.368 262.449C595.216 291.65 643.845 327.286 672.418 347.813L667.751 354.31C639.18 333.785 590.396 298.036 550.498 268.799C525.961 250.818 504.785 235.3 493.738 227.301C471.507 211.203 449.318 183.742 447.529 153.8C446.625 138.67 450.962 123.127 462.811 108.483C474.597 93.9166 493.685 80.3909 522.079 68.8557C613.056 31.8961 695.77 58.1143 726.125 76.1214L722.044 83.0018Z" fill="url(#paint0_diamond_308_1670)"/>
<path fill-rule="evenodd" clip-rule="evenodd" d="M703.387 9.64265C688.556 7.60836 673.067 8.1178 660.901 14.0165C656.723 16.0421 653.93 17.9022 652.162 19.5365C650.396 21.1685 649.865 22.373 649.733 23.1078C649.509 24.3522 650.221 26.4686 654.391 29.5161C658.285 32.3621 663.933 35.0557 670.071 37.5268C674.958 39.4942 679.939 41.2381 684.336 42.7775C685.427 43.1594 686.482 43.5286 687.49 43.8856L685.054 51.5018C644.868 39.9953 564.916 38.4287 500.392 69.5208C453.24 92.2416 437.682 123.038 438.092 151.386C438.509 180.177 455.387 207.481 475.105 222.755C499.64 241.761 583.346 301.827 635.348 339.142C643.379 344.905 650.653 350.125 656.837 354.567L652.169 361.064C646.003 356.635 638.741 351.424 630.719 345.667C578.753 308.377 494.873 248.188 470.206 229.079C448.923 212.593 430.551 183.146 430.093 151.502C429.629 119.416 447.571 86.0931 496.919 62.3139C547.763 37.8141 607.649 32.9624 651.724 37.3819C651.01 36.9218 650.324 36.4528 649.67 35.975C645.215 32.7188 640.74 27.9135 641.859 21.6909C642.399 18.6921 644.173 16.0268 646.731 13.6618C649.288 11.299 652.838 9.03475 657.41 6.81798C671.644 -0.0832858 688.989 -0.407178 704.474 1.71686C720.036 3.85139 734.293 8.53805 742.763 12.2543L739.548 19.5801C731.685 16.1298 718.142 11.6664 703.387 9.64265Z" fill="url(#paint1_diamond_308_1670)"/>
<path fill-rule="evenodd" clip-rule="evenodd" d="M5.92785 178.748C52.2382 225.546 136.804 244.062 227.085 244.062C262.002 244.062 293.455 235.704 323.268 227.782C331.553 225.581 339.711 223.413 347.781 221.467C384.609 212.59 419.522 208.444 453.752 229.511L453.935 229.623L454.105 229.755C478.639 248.761 562.34 308.822 614.342 346.138C622.375 351.902 629.652 357.124 635.837 361.567L631.17 368.064C625.004 363.635 617.742 358.424 609.719 352.667C557.873 315.464 474.261 255.466 449.378 236.213C418.094 217.048 386.026 220.478 349.656 229.245C341.926 231.108 333.996 233.217 325.857 235.383C295.924 243.345 263.156 252.062 227.085 252.062C136.365 252.062 48.9311 233.577 0.241455 184.375L5.92785 178.748Z" fill="url(#paint2_linear_308_1670)"/>
<defs>
<radialGradient id="paint0_diamond_308_1670" cx="0" cy="0" r="1" gradientUnits="userSpaceOnUse" gradientTransform="translate(520.585 101.561) rotate(40.1215) scale(336.742 309.263)">
<stop stop-color="#DDB352"/>
<stop offset="0.5" stop-color="#DDB352"/>
<stop offset="0.880208" stop-color="#DDB352" stop-opacity="0"/>
</radialGradient>
<radialGradient id="paint1_diamond_308_1670" cx="0" cy="0" r="1" gradientUnits="userSpaceOnUse" gradientTransform="translate(512.584 104.062) rotate(10.3793) scale(344.131 329.441)">
<stop stop-color="#879ECB"/>
<stop offset="0.640439" stop-color="#879ECB"/>
<stop offset="1" stop-color="#879ECB" stop-opacity="0"/>
</radialGradient>
<linearGradient id="paint2_linear_308_1670" x1="599.585" y1="381.561" x2="-2.9153" y2="160.561" gradientUnits="userSpaceOnUse">
<stop stop-color="#889FCC" stop-opacity="0"/>
<stop offset="0.182292" stop-color="#889FCC"/>
<stop offset="0.8125" stop-color="#889FCC"/>
<stop offset="1" stop-color="#889FCC" stop-opacity="0"/>
</linearGradient>
</defs>
</svg>
