<svg width="70" height="70" viewBox="0 0 70 70" fill="none" xmlns="http://www.w3.org/2000/svg">
<g clip-path="url(#clip0_868_3587)">
<path fill-rule="evenodd" clip-rule="evenodd" d="M14.0523 42.9206C14.0523 42.9206 14.0449 42.8264 14.0449 42.7539C14.0597 42.7684 14.067 42.8626 14.0523 42.9206Z" fill="white"/>
<path fill-rule="evenodd" clip-rule="evenodd" d="M15.5235 40.3997C15.5235 40.349 15.5014 40.1896 15.5235 40.2041C15.5235 40.291 15.5235 40.3345 15.5235 40.3997Z" fill="white"/>
<path fill-rule="evenodd" clip-rule="evenodd" d="M15.5547 40.1332C15.5547 40.1332 15.5547 39.9955 15.5547 39.9375C15.5694 39.9375 15.5694 40.0969 15.5547 40.1332Z" fill="white"/>
<path fill-rule="evenodd" clip-rule="evenodd" d="M15.3327 39.3558C15.3254 39.3123 15.318 39.2109 15.3327 39.1602C15.3475 39.1746 15.3327 39.2978 15.3327 39.3558Z" fill="white"/>
<path fill-rule="evenodd" clip-rule="evenodd" d="M15.5694 39.0013C15.5547 38.9361 15.5547 38.8201 15.5547 38.668C15.5694 38.7187 15.5694 38.8781 15.5694 39.0013Z" fill="white"/>
<path fill-rule="evenodd" clip-rule="evenodd" d="M14.4122 38.0367C14.4122 37.87 14.3901 37.5222 14.4122 37.4062C14.3974 37.6091 14.4195 37.8483 14.4122 38.0367Z" fill="white"/>
<path fill-rule="evenodd" clip-rule="evenodd" d="M14.9132 37.5877C14.8837 37.3776 14.9132 37.0008 14.8984 36.7326C14.9279 36.6964 14.8984 37.1239 14.9205 37.2037C14.9205 37.2544 14.9205 37.3051 14.9058 37.3703C14.9058 37.4428 14.9279 37.5153 14.9058 37.5877H14.9132Z" fill="white"/>
<path fill-rule="evenodd" clip-rule="evenodd" d="M14.9947 35.0099C14.9947 35.0099 14.9727 34.9954 14.9727 34.9229C14.9727 34.9012 14.9874 34.8939 14.9947 34.9012V35.0099Z" fill="white"/>
<path fill-rule="evenodd" clip-rule="evenodd" d="M14.8095 33.9367C14.7874 33.77 14.7874 33.3787 14.8095 33.1613C14.8095 33.1324 14.7948 33.1324 14.8022 33.0744C14.8022 32.944 14.8022 32.6613 14.8022 32.9367C14.8169 33.2773 14.8022 33.5526 14.8095 33.9295V33.9367Z" fill="white"/>
<path fill-rule="evenodd" clip-rule="evenodd" d="M15.0835 33.805C15.0762 33.7615 15.0762 33.6963 15.0762 33.6094C15.0909 33.6311 15.0909 33.7688 15.0835 33.805Z" fill="white"/>
<path fill-rule="evenodd" clip-rule="evenodd" d="M14.3828 33.5433C14.3828 33.5433 14.3828 33.3693 14.3828 33.2969C14.3828 33.3548 14.3975 33.4853 14.3828 33.5433Z" fill="white"/>
<path fill-rule="evenodd" clip-rule="evenodd" d="M14.9869 33.6015C14.9722 33.5363 14.9796 33.3841 14.9648 33.2972C14.9869 33.2247 14.9796 33.5 14.9869 33.6015Z" fill="white"/>
<path fill-rule="evenodd" clip-rule="evenodd" d="M15.0675 33.4779C15.0527 33.4271 15.0527 33.2605 15.0527 33.1445C15.0675 33.217 15.0601 33.3692 15.0675 33.4779Z" fill="white"/>
<path fill-rule="evenodd" clip-rule="evenodd" d="M14.2584 33.2855C14.2584 33.2855 14.2437 33.1696 14.2363 33.0898C14.2511 33.1043 14.2511 33.2203 14.2584 33.2855Z" fill="white"/>
<path fill-rule="evenodd" clip-rule="evenodd" d="M14.3901 33.1601C14.3753 33.0731 14.3827 32.7615 14.3827 32.6094C14.3974 32.805 14.3974 32.95 14.3901 33.1601Z" fill="white"/>
<path fill-rule="evenodd" clip-rule="evenodd" d="M15.0528 33.0882C15.0307 32.9433 15.0528 32.7404 15.0528 32.6172C15.0675 32.7476 15.0381 32.936 15.0528 33.0882Z" fill="white"/>
<path fill-rule="evenodd" clip-rule="evenodd" d="M14.8018 32.7256C14.7945 32.6749 14.7945 32.5807 14.7871 32.501C14.8092 32.4865 14.8018 32.6314 14.8018 32.7256Z" fill="white"/>
<path fill-rule="evenodd" clip-rule="evenodd" d="M14.8542 32.4869C14.8395 32.4217 14.8542 32.3637 14.8542 32.2695C14.8689 32.2913 14.8542 32.4217 14.8542 32.4869Z" fill="white"/>
<path fill-rule="evenodd" clip-rule="evenodd" d="M14.9197 32.2462C14.9197 32.2462 14.905 32.0071 14.9344 32.0578C14.9344 32.1158 14.9271 32.1086 14.9197 32.1086C14.9197 32.1738 14.9271 32.1665 14.9197 32.2462Z" fill="white"/>
<path fill-rule="evenodd" clip-rule="evenodd" d="M14.5153 31.668C14.5374 31.8056 14.5006 32.0375 14.5153 31.668Z" fill="white"/>
<path fill-rule="evenodd" clip-rule="evenodd" d="M14.3239 31.3629C14.3165 31.2469 14.3165 31.1382 14.3239 31.0078C14.3239 31.0948 14.3312 31.3122 14.3239 31.3629Z" fill="white"/>
<path fill-rule="evenodd" clip-rule="evenodd" d="M14.2942 31.2763C14.2795 31.3125 14.2795 31.0951 14.2942 31.1386V31.2763Z" fill="white"/>
<path fill-rule="evenodd" clip-rule="evenodd" d="M14.0143 31.016C14.007 30.9797 13.9996 30.8928 14.007 30.8203C14.0217 30.8421 14.0217 30.9797 14.0143 31.016Z" fill="white"/>
<path fill-rule="evenodd" clip-rule="evenodd" d="M14.0372 30.2479C14.0372 29.9363 14.0151 30.016 14.0372 30.2479Z" fill="white"/>
<path fill-rule="evenodd" clip-rule="evenodd" d="M14.0221 36.442C14.0221 36.3985 14.0147 36.3333 14 36.3043C14.0221 36.2173 14 36.0652 14.0147 35.9492C14.0368 36.0869 14.0147 36.2391 14.0221 36.4492V36.442Z" fill="white"/>
<path fill-rule="evenodd" clip-rule="evenodd" d="M14.4781 33.3693C14.4781 33.3041 14.4854 33.3114 14.4781 33.2317C14.4854 33.2317 14.4854 33.2606 14.4928 33.2606C14.4928 33.1157 14.4928 33.0433 14.4928 32.9273C14.4928 32.9418 14.5002 32.9563 14.5075 32.9563C14.4781 32.8041 14.5223 32.623 14.5075 32.2969C14.537 32.6085 14.5149 33.2969 14.5223 33.565C14.5002 33.5215 14.5223 33.2896 14.5002 33.2606C14.4854 33.2606 14.5002 33.4128 14.4707 33.3693H14.4781Z" fill="white"/>
<path fill-rule="evenodd" clip-rule="evenodd" d="M14.9792 33.083C14.9645 33.0757 14.9792 32.9598 14.9792 32.9453C14.9939 32.9815 14.9792 33.3439 14.9792 33.083Z" fill="white"/>
<path fill-rule="evenodd" clip-rule="evenodd" d="M14.9199 31.0295H14.942C14.942 30.8556 14.942 30.573 14.9567 30.457C14.9715 30.6672 14.9347 31.1092 14.9715 31.2541C14.9715 31.3121 14.9715 31.3338 14.9567 31.3918C14.9936 31.8773 14.9567 32.4063 14.9788 32.9063C14.9199 32.6817 15.0009 32.1672 14.942 31.9063C14.942 31.8628 14.942 31.9063 14.942 31.9353C14.942 31.7107 14.9567 31.3121 14.9199 31.0222V31.0295Z" fill="white"/>
<path fill-rule="evenodd" clip-rule="evenodd" d="M14.2506 31.2121C14.2432 31.1396 14.2359 31.1106 14.2285 31.0454C14.2285 31.0236 14.2653 31.1541 14.2506 31.2121Z" fill="white"/>
<path fill-rule="evenodd" clip-rule="evenodd" d="M48.901 54.0012C48.9967 54.0012 49.1955 53.9867 49.2986 53.9794C49.608 53.9794 49.8804 54.0012 50.1898 53.9867C50.4254 53.9722 50.7789 53.9577 51.0072 53.9432C51.184 53.936 51.2871 53.9287 51.427 53.9215C51.8394 53.8997 52.1782 53.9142 52.3623 53.8563C52.7084 53.82 52.9515 53.7983 53.2681 53.7693C53.305 53.7693 53.3933 53.7693 53.4081 53.7693C54.0561 53.6896 54.4538 53.5519 55.2124 53.4939C55.2787 53.465 55.3228 53.4215 55.4554 53.378C55.5143 53.3635 55.6469 53.349 55.6837 53.3345C55.8384 53.2693 55.7058 53.1896 55.993 53.1389C56.0077 53.1244 55.9562 53.1171 55.9415 53.1099C55.9488 52.9794 55.8384 52.8708 55.9046 52.7693C55.7058 52.7113 55.75 52.6389 55.5953 52.5881C55.4996 52.5519 55.3155 52.5229 55.1903 52.4867C55.0504 52.4505 54.9031 52.4215 54.7852 52.378C54.7852 52.3418 54.6085 52.3345 54.5717 52.2983C54.3875 52.2765 54.1519 52.2403 53.9678 52.2186C53.9457 52.2041 53.8941 52.1968 53.8868 52.1823C53.4228 52.1171 52.9515 52.0302 52.3181 52.0084C52.2518 52.0084 52.134 52.0084 52.0677 52.0084C51.5964 52.0084 50.8673 51.9939 50.6243 51.9432C50.5359 51.9432 50.5433 51.9505 50.4549 51.9432C50.4033 51.9215 50.1529 51.8708 49.932 51.8708C49.8584 51.8708 49.7258 51.907 49.5638 51.9142C49.3207 51.9215 49.0851 51.878 48.8715 51.8852C48.7684 51.8852 48.6653 51.9215 48.5548 51.9287C48.2823 51.9432 47.7226 51.9287 47.4943 51.9287C47.3102 51.9215 47.2439 51.8925 47.104 51.8997C46.9788 51.8997 46.8831 51.9287 46.8978 51.9722C46.5369 52.0592 45.6164 51.9939 45.0714 52.0302C44.6663 52.0012 44.2834 52.0519 43.8931 52.0447C43.8342 52.0447 43.7016 52.0374 43.6427 52.0302C43.5396 52.0302 43.3186 52.0447 43.164 52.0519C42.8547 52.0592 42.6779 52.0664 42.376 52.0737C42.0077 52.0229 41.7353 52.0809 41.4259 52.0737C41.3376 52.0737 41.1608 52.0592 41.0651 52.0592C40.9767 52.0592 40.8294 52.0664 40.7263 52.0737C40.6306 52.0737 40.4538 52.0592 40.3654 52.0592C40.2992 52.0592 40.1961 52.0592 40.1372 52.0664C40.0414 52.0664 39.9825 52.0519 39.8868 52.0519C39.8205 52.0519 39.6437 52.0737 39.5774 52.0737C39.1945 52.0809 38.7821 52.0592 38.4286 52.1026C37.7805 52.0664 37.2134 52.1244 36.4401 52.0881C36.2487 52.0954 36.1087 52.1026 35.9099 52.0954C35.8657 52.0954 35.8657 52.1099 35.7921 52.1099C35.3944 52.0954 34.9746 52.1389 34.5622 52.1171C34.5475 52.1171 34.5327 52.1316 34.5033 52.1316C33.9362 52.1099 33.2145 52.1026 32.7652 52.1316C32.4191 52.1026 32.0141 52.1316 31.5869 52.1316C31.3881 52.1316 31.1892 52.1171 30.9977 52.1244C30.5853 52.1244 30.1582 52.1244 29.79 52.1244C29.7163 52.1244 29.5543 52.1389 29.4807 52.1461C29.2965 52.1461 29.0903 52.1389 28.8915 52.1461C28.1256 52.1751 27.2418 52.1534 26.5643 52.1534C26.3581 52.1534 26.1813 52.1679 25.9457 52.1751C25.5627 52.1823 25.1577 52.1606 24.7747 52.1606C24.7011 52.1606 24.5685 52.1679 24.4949 52.1751C24.2445 52.1751 24.0383 52.1751 23.7952 52.1751C23.1987 52.1751 22.5948 52.2041 22.0277 52.1751C21.306 52.2113 20.2602 52.1968 19.4207 52.2041C19.2292 52.2331 19.0525 52.2041 18.861 52.2113C18.2644 52.2258 17.4985 52.2548 16.8725 52.2331C16.4528 52.2403 16.033 52.2476 15.6206 52.2621C15.5985 50.4939 15.5838 48.7693 15.5617 46.9577C15.5838 46.7548 15.569 46.4432 15.5617 46.2693C15.5764 46.2331 15.5764 46.1099 15.5764 46.0229C15.5396 45.7041 15.5764 45.2983 15.5617 44.8925C15.5248 44.791 15.5543 44.5447 15.5248 44.3925C15.5469 44.3273 15.5396 44.4794 15.5543 44.3708C15.4954 44.1099 15.5175 43.2186 15.5027 42.82C15.5027 42.849 15.4954 42.8563 15.4954 42.82C15.5101 42.7258 15.4806 42.6751 15.4806 42.5664C15.4806 41.8418 15.4144 41.3273 15.3923 40.7113C15.3996 40.6316 15.4291 40.4287 15.407 40.3563C15.407 40.465 15.407 40.6099 15.3775 40.6026C15.3849 40.4142 15.3775 40.1751 15.3555 40.0519C15.3555 39.82 15.3702 39.7041 15.3481 39.5012C15.3481 39.4505 15.3186 39.5519 15.3186 39.4432C15.3334 39.1244 15.3113 38.9577 15.3186 38.6751C15.2965 38.5881 15.2892 38.2548 15.3039 38.1461C15.2965 38.0519 15.2818 38.2476 15.2744 38.1679C15.2671 37.907 15.2597 37.6606 15.2744 37.4215C15.2597 37.3635 15.245 37.32 15.245 37.2258C15.245 37.1606 15.2671 37.2476 15.2597 37.1461C15.245 37.0519 15.2376 37.2186 15.2155 37.1968C15.2082 37.0664 15.1934 37.0954 15.1787 37.0229C15.1934 36.8418 15.164 36.7186 15.1566 36.5519C15.1566 36.3345 15.1566 36.2258 15.1492 36.0302C15.1492 35.8925 15.1272 35.8273 15.1272 35.6679C15.1272 35.5374 15.1492 35.4287 15.1419 35.2838C15.1419 35.2041 15.1198 35.3345 15.1198 35.2258C15.1198 34.7186 15.1051 34.2113 15.0756 33.8418C15.1198 34.4142 15.0756 34.8345 15.1124 35.3345C15.0903 35.407 15.1272 35.5592 15.0977 35.6389C15.1124 35.6751 15.1198 35.5592 15.1198 35.6679C15.1198 35.7041 15.1124 35.7186 15.1198 35.7766C15.0903 35.7041 15.0903 35.8128 15.0682 35.8563C15.0682 36.2766 15.0756 36.6244 15.083 36.9867C15.083 37.0519 15.0977 36.936 15.1051 37.0157C15.1051 37.1679 15.1051 37.2331 15.1124 37.4287C15.0903 37.4794 15.083 37.5881 15.0535 37.5302C15.0388 37.0737 15.024 36.3128 15.0093 35.7621C15.0093 35.5809 15.0314 35.3925 14.9946 35.291C15.002 35.5592 14.9651 35.7693 14.9651 36.0012C14.9651 36.2983 14.9946 36.6171 14.9872 36.9142C14.9872 36.9794 14.9799 37.0519 14.9725 37.1026C14.9725 37.1389 14.9872 37.2838 14.9872 37.3273C14.9872 37.3997 14.9725 37.3997 14.9725 37.465C14.9725 37.5881 14.9946 37.6896 14.9946 37.8273C14.9946 38.0592 14.9725 38.2838 14.9799 38.5447C14.9725 38.5881 14.9504 38.5737 14.943 38.5084C14.943 38.2041 14.943 38.1534 14.943 37.849C14.943 37.8852 14.943 37.907 14.9283 37.8997C14.9283 37.8055 14.9357 37.7693 14.9283 37.7041C14.9283 37.936 14.8915 37.9142 14.8694 37.8345C14.8694 37.2621 14.8547 36.5664 14.8694 36.0954C14.8547 36.0447 14.8399 36.0084 14.8399 35.9287C14.8399 35.3635 14.8326 34.8418 14.8252 34.2476C14.7957 34.8925 14.8105 35.5664 14.8252 36.3128C14.8252 36.3418 14.8031 36.3128 14.8105 36.3925C14.8252 36.7113 14.8252 37.0809 14.8252 37.3345C14.8031 37.436 14.781 37.5447 14.7516 37.6534C14.7737 38.436 14.6779 39.0157 14.6779 39.7621C14.6632 39.7621 14.6558 39.82 14.6485 39.8418C14.6337 39.7838 14.619 39.7403 14.6043 39.6679C14.6043 39.5447 14.5969 39.4215 14.6043 39.3128C14.5601 38.6823 14.5895 37.7838 14.5601 36.9939C14.5306 36.8997 14.5159 36.9722 14.4938 37.0374C14.4791 37.4142 14.5159 37.7621 14.4791 38.1679C14.4202 38.3128 14.376 38.1679 14.3686 37.849C14.3686 37.3345 14.3686 36.4505 14.376 36.1171C14.3612 34.5229 14.3465 33.1534 14.3244 31.5664C14.3097 32.4287 14.3465 33.2186 14.3244 33.9939C14.3391 33.9939 14.3391 34.0157 14.3391 34.0809C14.3391 34.8345 14.3391 35.6751 14.3539 36.3418C14.317 36.6171 14.3539 37.1606 14.3244 37.436C14.2655 37.3635 14.236 37.1316 14.2213 36.8418C14.2213 37.1389 14.2066 37.4142 14.1992 37.6679C14.1992 37.8708 14.2139 38.2258 14.1992 38.3273C14.1992 38.349 14.1845 38.3055 14.1845 38.349C14.1845 38.2621 14.1845 38.5012 14.1845 38.5157C14.1845 38.6244 14.1992 38.6099 14.1919 38.7403C14.1919 38.907 14.1919 38.907 14.1771 39.0157C14.1771 39.6171 14.1771 40.1389 14.1771 40.7476C14.1771 40.8128 14.1771 40.9287 14.1771 40.9432C14.1771 41.0012 14.1624 40.9505 14.1624 41.0229C14.1624 41.0664 14.1771 41.0447 14.1698 41.1099C14.1698 41.3418 14.1698 41.6026 14.1624 41.8273C14.1624 42.3997 14.1624 43.0664 14.155 43.5374C14.155 43.6389 14.1329 43.5012 14.1329 43.6461C14.1256 44.4577 14.1108 45.3055 14.1035 46.1461C14.1035 46.2113 14.0814 46.1606 14.0814 46.2548C14.0814 46.3708 14.1035 46.3418 14.1035 46.4505C14.1035 46.5157 14.0887 46.5737 14.074 46.6099C14.0519 47.5881 14.074 48.6026 14.0814 49.6171C14.0814 50.7041 14.0887 51.7765 14.0961 52.8055V53.791C14.5601 53.791 15.0167 53.791 15.4512 53.7838C15.7826 53.7838 16.0919 53.7838 16.4307 53.7838C17.3291 53.7838 18.0435 53.7693 18.8389 53.7621C19.4133 53.7621 20.0246 53.7621 20.5475 53.7621C20.6137 53.7621 20.7537 53.7548 20.8273 53.7476C20.9451 53.7476 21.1513 53.7621 21.2692 53.7621C21.6521 53.7621 22.094 53.7476 22.477 53.7403C22.9188 53.7403 23.3533 53.7403 23.7952 53.7403C24.0235 53.7403 24.296 53.7258 24.5243 53.7258C24.6716 53.7258 24.8704 53.7331 25.0251 53.7403C25.4817 53.7403 25.9899 53.7258 26.4244 53.7186C27.0209 53.7186 27.6395 53.7476 28.2434 53.7186C28.9136 53.7331 29.731 53.7331 30.3718 53.7186C30.8946 53.7621 31.4323 53.7186 32.0214 53.7258C32.0656 53.7258 32.1393 53.7331 32.1908 53.7403C33.0819 53.7693 34.0688 53.7186 34.7979 53.7403C35.0703 53.7113 35.2986 53.7403 35.5564 53.7476C35.8289 53.7476 36.0793 53.7331 36.3444 53.7331C36.4107 53.7331 36.5285 53.7403 36.5948 53.7476C36.8599 53.7476 37.1177 53.7331 37.4123 53.7331C37.8468 53.7331 38.3107 53.7765 38.8115 53.7476C39.1945 53.7693 39.7689 53.791 40.2108 53.7621C40.9546 53.7983 41.7132 53.7621 42.4791 53.7765C42.7368 53.7765 42.9725 53.8128 43.2376 53.7838C43.5101 53.8128 43.8268 53.7983 44.1582 53.7983C44.4601 53.8055 44.8357 53.8128 45.1598 53.8273C45.6458 53.8345 46.2497 53.8128 46.6106 53.8708C46.7726 53.9867 47.0966 53.8128 47.4796 53.8418C47.6858 53.8635 47.6563 53.8997 47.7447 53.9432C47.9288 53.9577 48.0982 53.9432 48.275 53.9432C48.4812 53.9577 48.6358 54.0084 48.9083 54.0084L48.901 54.0012ZM15.164 38.1171C15.164 38.1171 15.1713 38.1171 15.1713 38.0881C15.1934 38.1461 15.1566 38.2766 15.164 38.1171ZM15.1566 38.0592C15.1566 37.8273 15.1272 37.5084 15.1566 37.3418C15.1566 37.2983 15.1271 37.3852 15.1198 37.3128C15.1345 37.2186 15.1419 37.1026 15.1419 36.9287C15.1861 36.9215 15.1566 37.2548 15.2008 37.2693C15.2008 37.3997 15.2008 37.465 15.2155 37.5229C15.2008 37.7838 15.2303 37.849 15.2155 38.0447C15.1934 37.9939 15.1934 38.0809 15.1713 38.0664L15.1566 38.0592Z" fill="white"/>
<path fill-rule="evenodd" clip-rule="evenodd" d="M29.7535 36.674C29.7535 36.674 29.6946 36.6664 29.6504 36.6513C29.6651 36.6437 29.724 36.6513 29.7535 36.674Z" fill="white"/>
<path fill-rule="evenodd" clip-rule="evenodd" d="M29.0242 34.832C29.0242 34.832 28.9285 34.7957 28.9506 34.7812C28.9874 34.803 28.9948 34.8175 29.0242 34.832Z" fill="white"/>
<path fill-rule="evenodd" clip-rule="evenodd" d="M28.9287 34.7378C28.9287 34.7378 28.8771 34.7016 28.8477 34.6943C28.855 34.6798 28.9139 34.7233 28.9287 34.7378Z" fill="white"/>
<path fill-rule="evenodd" clip-rule="evenodd" d="M28.4931 34.7226C28.4931 34.7226 28.4268 34.6936 28.4121 34.6719C28.4268 34.6719 28.471 34.7081 28.4931 34.7226Z" fill="white"/>
<path fill-rule="evenodd" clip-rule="evenodd" d="M28.4939 34.4424C28.4939 34.4424 28.4202 34.4062 28.3613 34.3555C28.3908 34.3555 28.4423 34.4134 28.4939 34.4424Z" fill="white"/>
<path fill-rule="evenodd" clip-rule="evenodd" d="M27.3593 34.9913C27.2783 34.9334 27.131 34.7957 27.1016 34.7305C27.1752 34.8247 27.2783 34.9116 27.3593 34.9913Z" fill="white"/>
<path fill-rule="evenodd" clip-rule="evenodd" d="M27.5287 34.4548C27.4256 34.3968 27.3151 34.2302 27.1973 34.1359C27.1973 34.107 27.3446 34.2881 27.3887 34.3026C27.4035 34.3171 27.4182 34.3461 27.4403 34.3751C27.4698 34.4041 27.5066 34.4186 27.5287 34.4548Z" fill="white"/>
<path fill-rule="evenodd" clip-rule="evenodd" d="M26.7258 33.3554C26.7258 33.3554 26.7037 33.3554 26.6816 33.3264C26.6816 33.3119 26.6816 33.3047 26.689 33.3047L26.7185 33.3554H26.7258Z" fill="white"/>
<path fill-rule="evenodd" clip-rule="evenodd" d="M26.2854 32.9569C26.2191 32.8917 26.1233 32.7033 26.0939 32.5873C26.0865 32.5728 26.0792 32.5801 26.0644 32.5511C26.035 32.4931 25.9761 32.3482 26.035 32.4786C26.1307 32.638 26.1675 32.783 26.278 32.9496L26.2854 32.9569Z" fill="white"/>
<path fill-rule="evenodd" clip-rule="evenodd" d="M26.4827 32.7745C26.4827 32.7745 26.4459 32.731 26.4238 32.6875C26.4386 32.6875 26.4754 32.7527 26.4827 32.7745Z" fill="white"/>
<path fill-rule="evenodd" clip-rule="evenodd" d="M25.7987 32.9552C25.7987 32.9552 25.7545 32.8683 25.7324 32.832C25.7545 32.8538 25.7913 32.919 25.7987 32.9552Z" fill="white"/>
<path fill-rule="evenodd" clip-rule="evenodd" d="M26.3579 32.7167C26.3579 32.7167 26.299 32.6153 26.2695 32.579C26.2695 32.5356 26.3284 32.666 26.3579 32.7167Z" fill="white"/>
<path fill-rule="evenodd" clip-rule="evenodd" d="M26.395 32.6209C26.395 32.6209 26.3361 32.5267 26.3066 32.4688C26.3361 32.4977 26.3656 32.5702 26.395 32.6209Z" fill="white"/>
<path fill-rule="evenodd" clip-rule="evenodd" d="M25.621 32.8676C25.621 32.8676 25.5768 32.8097 25.5547 32.7734C25.5768 32.7734 25.5989 32.8314 25.621 32.8676Z" fill="white"/>
<path fill-rule="evenodd" clip-rule="evenodd" d="M25.7107 32.7514C25.6739 32.7079 25.6002 32.5485 25.5781 32.4688C25.6297 32.563 25.6665 32.6427 25.7107 32.7514Z" fill="white"/>
<path fill-rule="evenodd" clip-rule="evenodd" d="M26.2984 32.4473C26.2469 32.3893 26.2174 32.2879 26.1953 32.2227C26.2321 32.2806 26.2542 32.3821 26.2984 32.4473Z" fill="white"/>
<path fill-rule="evenodd" clip-rule="evenodd" d="M25.9906 32.3684C25.9906 32.3684 25.9537 32.3032 25.9316 32.2597C25.9537 32.2452 25.9685 32.3177 25.9906 32.3684Z" fill="white"/>
<path fill-rule="evenodd" clip-rule="evenodd" d="M25.9895 32.2298C25.9895 32.2298 25.96 32.1718 25.9453 32.1211C25.96 32.1211 25.9748 32.2008 25.9895 32.2298Z" fill="white"/>
<path fill-rule="evenodd" clip-rule="evenodd" d="M26.0045 32.0862C26.0045 32.0862 25.9456 31.9775 25.975 31.9847C25.9898 32.0137 25.975 32.0137 25.975 32.0137C25.9824 32.0499 25.9971 32.0427 26.0045 32.0789V32.0862Z" fill="white"/>
<path fill-rule="evenodd" clip-rule="evenodd" d="M25.5117 31.9258C25.5706 32.1214 25.5559 31.991 25.5117 31.9258Z" fill="white"/>
<path fill-rule="evenodd" clip-rule="evenodd" d="M25.2753 31.8324C25.2458 31.7744 25.2311 31.7092 25.209 31.6367C25.2311 31.6802 25.2679 31.7961 25.2753 31.8324Z" fill="white"/>
<path fill-rule="evenodd" clip-rule="evenodd" d="M25.2314 31.7906C25.2314 31.7906 25.1872 31.6964 25.2093 31.7181L25.2314 31.7906Z" fill="white"/>
<path fill-rule="evenodd" clip-rule="evenodd" d="M24.9153 31.722C24.9153 31.722 24.8785 31.6568 24.8711 31.6133C24.8858 31.6205 24.9153 31.7002 24.9153 31.722Z" fill="white"/>
<path fill-rule="evenodd" clip-rule="evenodd" d="M24.8263 31.2874C24.7895 31.1353 24.7748 31.186 24.8263 31.2874Z" fill="white"/>
<path fill-rule="evenodd" clip-rule="evenodd" d="M26.4239 34.5645C26.4239 34.5645 26.3723 34.521 26.3576 34.5138C26.3429 34.463 26.2692 34.3978 26.2324 34.3398C26.3061 34.3906 26.3355 34.4848 26.4239 34.5717V34.5645Z" fill="white"/>
<path fill-rule="evenodd" clip-rule="evenodd" d="M25.8429 32.8191C25.8429 32.8191 25.8429 32.7829 25.8135 32.7467C25.8135 32.7467 25.8282 32.7539 25.8356 32.7539C25.8061 32.6814 25.784 32.6452 25.7546 32.5872C25.7619 32.5872 25.7693 32.6017 25.7766 32.5945C25.7104 32.5293 25.7177 32.4133 25.6367 32.2539C25.7251 32.4061 25.865 32.7612 25.9387 32.8916C25.9092 32.8771 25.8724 32.7539 25.8429 32.7467C25.8282 32.7467 25.8797 32.8264 25.8429 32.8119V32.8191Z" fill="white"/>
<path fill-rule="evenodd" clip-rule="evenodd" d="M26.2326 32.4715C26.2179 32.4715 26.2031 32.4135 26.2031 32.4062C26.2252 32.4135 26.2989 32.5947 26.2399 32.4715H26.2326Z" fill="white"/>
<path fill-rule="evenodd" clip-rule="evenodd" d="M25.7989 31.4846H25.821C25.7915 31.3904 25.7474 31.2527 25.7547 31.1875C25.7915 31.2889 25.8284 31.5208 25.8799 31.5861C25.8799 31.6223 25.8799 31.6223 25.8946 31.6585C26.0051 31.8904 26.0714 32.1585 26.1966 32.3976C26.0935 32.3107 26.0714 32.0281 25.9609 31.9266C25.9609 31.9049 25.9609 31.9266 25.9683 31.9411C25.9315 31.8324 25.8652 31.6295 25.7989 31.4918V31.4846Z" fill="white"/>
<path fill-rule="evenodd" clip-rule="evenodd" d="M25.179 31.7687C25.179 31.7687 25.1495 31.7035 25.1348 31.6818C25.1348 31.6673 25.1863 31.7325 25.179 31.7687Z" fill="white"/>
<path fill-rule="evenodd" clip-rule="evenodd" d="M48.8783 35.3191C48.9372 35.2684 48.9887 35.1959 49.0477 35.138C49.1876 35.0075 49.3128 34.8843 49.438 34.7394C49.5484 34.609 49.6147 34.4568 49.7178 34.3191C49.7915 34.2104 49.8136 34.1742 49.8504 34.1017C49.9682 33.8771 50.0934 33.7104 50.0934 33.5945C50.145 33.4278 50.2334 33.2322 50.2628 33.08C50.2628 33.0583 50.2923 33.0148 50.2923 33.0075C50.3733 32.638 50.3291 32.3771 50.4101 31.9713C50.3954 31.9278 50.3585 31.8916 50.3438 31.8119C50.3438 31.7756 50.3438 31.7104 50.3438 31.6814C50.307 31.58 50.2039 31.6235 50.2039 31.4641C50.1892 31.4496 50.1744 31.4785 50.1671 31.4785C50.0419 31.4351 49.9167 31.4568 49.8357 31.3916C49.7473 31.4713 49.6884 31.4278 49.6074 31.4858C49.5558 31.522 49.4969 31.6017 49.4453 31.6452C49.3864 31.6959 49.3349 31.7539 49.276 31.7974C49.2391 31.7829 49.2023 31.8626 49.1655 31.8698C49.1066 31.9423 49.0329 32.0365 48.9814 32.109C48.9666 32.109 48.9519 32.1307 48.9298 32.1307C48.7752 32.3046 48.6131 32.4641 48.4511 32.6959C48.4364 32.7249 48.3996 32.7684 48.3922 32.7901C48.2891 32.9713 48.0903 33.2249 47.9798 33.2684C47.9577 33.2974 47.9651 33.3046 47.943 33.3264C47.9135 33.3264 47.8031 33.3771 47.7441 33.4423C47.722 33.4641 47.7147 33.5293 47.6705 33.5872C47.6116 33.6742 47.5011 33.6959 47.4348 33.7612C47.4054 33.7901 47.3906 33.8409 47.3685 33.8771C47.2949 33.9641 47.0887 34.0872 47.0077 34.138C46.9414 34.1742 46.8972 34.1669 46.853 34.2032C46.8088 34.2322 46.7867 34.2756 46.8162 34.3119C46.7352 34.4785 46.3375 34.58 46.1239 34.7104C45.9398 34.7322 45.7925 34.8409 45.6231 34.8916C45.5937 34.9061 45.5421 34.8916 45.5053 34.9061C45.4464 34.9206 45.3728 34.9496 45.2917 34.9785C45.1445 35.022 45.1076 35.0293 44.9382 35.0727C44.7541 35.0438 44.6363 35.1162 44.489 35.1307C44.4375 35.1307 44.3785 35.1307 44.3196 35.1307C44.2681 35.138 44.2165 35.1525 44.1576 35.1525C44.0987 35.1525 44.0398 35.138 43.9809 35.138C43.9367 35.138 43.9072 35.1525 43.8704 35.1525C43.8262 35.1525 43.7967 35.138 43.7526 35.1525C43.701 35.1525 43.6568 35.1814 43.6053 35.1814C43.4211 35.2032 43.2444 35.1525 43.075 35.1814C42.7731 35.1452 42.5227 35.138 42.1913 35.0438C42.1029 35.0438 42.044 35.0293 41.963 34.9858C41.9409 34.9858 41.9409 34.993 41.9114 34.9858C41.7568 34.9061 41.5506 34.9133 41.4106 34.8046C41.4033 34.8046 41.3959 34.8046 41.3812 34.8046C41.2781 34.7322 41.1602 34.6669 41.0424 34.609C40.9393 34.5293 40.8288 34.4641 40.7405 34.4206C40.5048 34.2249 40.468 34.1887 40.3575 34.0945C40.2912 34.0365 40.247 33.9641 40.1881 33.9061C40.0776 33.7901 39.9451 33.6235 39.8641 33.493C39.8346 33.4568 39.7978 33.4278 39.7683 33.3916C39.7094 33.3264 39.6947 33.2467 39.6358 33.1597C39.3927 32.8046 39.2381 32.2467 39.1055 31.7104C38.9656 31.6597 38.833 31.6162 38.7152 31.5727C38.6416 31.5365 38.5753 31.5293 38.5016 31.493C38.3985 31.4351 38.3175 31.3481 38.2733 31.2974C38.2586 31.2829 38.2512 31.2684 38.2439 31.2539C38.2144 31.2756 38.1776 31.3119 38.126 31.3409C38.0008 31.4133 37.8167 31.522 37.5148 31.5438C37.4485 31.5583 37.3822 31.58 37.3233 31.5872C37.1981 31.9568 37.0066 32.2467 36.8299 32.5655C36.7415 32.7249 36.6458 32.8771 36.5427 33.0003C36.4911 33.0727 36.4322 33.1452 36.3806 33.2104C36.3512 33.2974 36.2702 33.3409 36.2113 33.4133C36.0419 33.638 35.7915 33.8988 35.5632 34.0727C35.1066 34.4858 34.5469 34.7901 33.9651 35.0293C33.6631 35.1235 33.3685 35.2394 33.0519 35.2829C32.8972 35.3119 32.7426 35.3554 32.5879 35.3771C32.4332 35.3916 32.2786 35.4061 32.1166 35.4206C32.0135 35.4061 31.8662 35.4278 31.7778 35.4423C31.7557 35.4278 31.7042 35.4278 31.66 35.4206C31.4979 35.4423 31.3065 35.4061 31.1076 35.4061C31.0561 35.4423 30.9382 35.4061 30.8646 35.4061C30.8351 35.3843 30.9088 35.3988 30.8572 35.3771C30.7247 35.4061 30.2975 35.3264 30.1134 35.2756C30.1281 35.2756 30.1281 35.2901 30.1134 35.2829C30.0766 35.2539 30.0471 35.2829 29.9956 35.2612C29.8262 35.2104 29.6789 35.1887 29.5316 35.1525C29.3917 35.109 29.2591 35.0655 29.1192 35.0148C29.0897 34.993 29.0087 34.9278 28.9645 34.9278C29.0087 34.9568 29.075 34.9785 29.0603 35.0003C28.9793 34.9568 28.8762 34.9061 28.8099 34.8843C28.7141 34.8264 28.67 34.7829 28.5742 34.7467C28.5521 34.7322 28.5742 34.7829 28.5374 34.7467C28.4048 34.6525 28.3312 34.6162 28.2355 34.5148C28.1913 34.5075 28.0513 34.4061 28.0219 34.3626C27.9777 34.3409 28.0513 34.4133 28.0145 34.3916C27.904 34.3191 27.8157 34.2322 27.742 34.138C27.7126 34.1235 27.6905 34.1235 27.6537 34.0872C27.6316 34.0655 27.6757 34.08 27.6389 34.051C27.5947 34.0293 27.6463 34.0945 27.6242 34.0945C27.5726 34.051 27.5726 34.0727 27.5358 34.0583C27.4843 33.9858 27.418 33.9568 27.3591 33.8916C27.3002 33.8264 27.2412 33.7467 27.1823 33.6887C27.1308 33.638 27.0939 33.6235 27.0498 33.5583C27.0129 33.5003 26.9982 33.4423 26.954 33.3843C26.9319 33.3554 26.954 33.4206 26.9172 33.3698C26.7625 33.1597 26.63 32.9351 26.5121 32.7756C26.6889 33.022 26.7625 33.2249 26.9393 33.4206C26.9393 33.4641 27.0129 33.5075 27.0129 33.5583C27.035 33.5583 27.0129 33.5075 27.0424 33.5583C27.0498 33.5727 27.0498 33.5872 27.0719 33.609C27.0277 33.5945 27.0571 33.638 27.0571 33.6669C27.2044 33.8336 27.3075 33.9785 27.4474 34.109C27.4769 34.1307 27.4474 34.08 27.4769 34.109C27.5432 34.167 27.5358 34.1669 27.6316 34.2539C27.6316 34.2901 27.6684 34.3336 27.6316 34.3336C27.4401 34.1525 27.1823 33.9133 26.9908 33.6669C26.9319 33.5945 26.9025 33.5003 26.8436 33.4713C26.9246 33.5872 26.9614 33.6959 27.0424 33.7901C27.1381 33.9133 27.2633 34.0365 27.3664 34.1452C27.3959 34.1742 27.4033 34.1959 27.4254 34.2249C27.4474 34.2467 27.4916 34.2756 27.5211 34.2974C27.5432 34.3264 27.5432 34.3336 27.5653 34.3554C27.6095 34.3988 27.661 34.4278 27.7126 34.4785C27.8009 34.5655 27.882 34.6525 27.9924 34.7322C28.0072 34.7539 27.9851 34.7684 27.9556 34.7467C27.8304 34.6452 27.8157 34.6307 27.6831 34.522C27.6978 34.5365 27.6978 34.551 27.6905 34.551C27.6537 34.5148 27.6463 34.493 27.6168 34.4785C27.7052 34.5655 27.6684 34.5872 27.6242 34.5727C27.4106 34.3481 27.1381 34.0945 26.9982 33.8771C26.9688 33.8626 26.9467 33.8554 26.9172 33.8264C26.7331 33.609 26.5637 33.3336 26.409 33.0727C26.549 33.3916 26.7699 33.6887 27.035 33.993C27.035 34.0075 27.0203 34.0075 27.0498 34.0365C27.1602 34.1669 27.3075 34.3119 27.4033 34.4061C27.4254 34.4641 27.4474 34.522 27.4769 34.58C27.8083 34.8554 27.9851 35.138 28.3533 35.3554C28.3459 35.3698 28.368 35.3916 28.3754 35.4061C28.3386 35.3988 28.3091 35.4061 28.2723 35.3916C28.2134 35.3554 28.1471 35.3264 28.1029 35.2829C27.7789 35.1162 27.4106 34.7612 27.0939 34.4496C27.035 34.4278 27.0498 34.4713 27.0571 34.5148C27.2044 34.6742 27.3517 34.8046 27.5137 34.9713C27.5358 35.0727 27.4401 35.051 27.3002 34.9278C27.0792 34.7249 26.7331 34.3409 26.63 34.1742C26.0629 33.5075 25.6726 32.7322 25.3633 31.9133C25.5106 32.3843 25.7241 32.7829 25.9156 33.1814C25.923 33.1814 25.9377 33.1814 25.9524 33.2177C26.1513 33.6017 26.4311 34.0075 26.6889 34.2901C26.7552 34.4496 27.0056 34.6452 27.0939 34.7901C27.0203 34.8046 26.9025 34.7249 26.7773 34.609C26.9025 34.7322 27.0056 34.8626 27.1087 34.9785C27.1897 35.0727 27.3664 35.1959 27.4033 35.2394C27.4106 35.2539 27.3812 35.2394 27.4033 35.2612C27.3664 35.2249 27.4769 35.3191 27.4843 35.3191C27.5432 35.3554 27.5358 35.3481 27.5947 35.3988C27.6757 35.4641 27.6684 35.4641 27.7126 35.5148C28.0072 35.7177 28.2944 35.9133 28.611 36.0655C28.6479 36.0872 28.7068 36.109 28.7141 36.1162C28.7436 36.1307 28.7141 36.1307 28.751 36.1525C28.7731 36.1669 28.7657 36.1525 28.8025 36.1669C28.9277 36.2249 29.0676 36.3119 29.2002 36.3481C29.5316 36.4423 29.9146 36.6162 30.1871 36.6452C30.246 36.6597 30.165 36.6597 30.246 36.6814C30.7173 36.8046 31.2181 36.8409 31.7336 36.8698C31.7704 36.8698 31.741 36.8916 31.7999 36.8916C31.8735 36.8988 31.8514 36.8698 31.9177 36.8698C31.9545 36.8698 31.9914 36.8771 32.0135 36.8916C32.308 36.8843 32.6026 36.8698 32.9046 36.8409C33.1918 36.7829 33.5085 36.7177 33.8031 36.6597C34.0829 36.5727 34.348 36.4858 34.6205 36.3988C34.8783 36.2829 35.136 36.1669 35.3791 36.0583C35.7473 35.8409 36.0934 35.6235 36.3954 35.3916C36.6016 35.2394 36.771 35.0727 36.9403 34.9133C37.1171 34.7612 37.2718 34.5945 37.419 34.4133C37.5369 34.2901 37.6547 34.1597 37.7504 34.022C37.8904 33.8409 37.8536 33.8916 37.883 33.8409C37.883 33.8336 37.883 33.8119 37.8977 33.7974C37.9051 33.7829 37.9272 33.7829 37.9419 33.7684C37.9493 33.7539 37.9567 33.7322 37.964 33.7177C37.9787 33.6814 37.9935 33.638 38.0082 33.609C38.0377 33.5583 38.0598 33.5148 38.0819 33.4641C38.0892 33.4423 38.1039 33.3626 38.1187 33.3409C38.1187 33.3409 38.1187 33.4133 38.126 33.4423C38.1334 33.5003 38.1629 33.522 38.1776 33.5945C38.185 33.638 38.1997 33.6814 38.2144 33.7249C38.2291 33.7684 38.2439 33.8046 38.2733 33.8336C38.2807 33.8626 38.2881 33.8771 38.3028 33.9061L38.347 33.993C38.3764 34.0438 38.3985 34.0872 38.428 34.138C38.5532 34.3191 38.671 34.5003 38.7962 34.6525C38.9656 34.9206 39.2086 35.1452 39.4811 35.3916C39.4958 35.4061 39.5327 35.4496 39.5474 35.4713C39.7389 35.6742 39.9966 35.8191 40.2249 35.9713C40.468 36.1017 40.711 36.2104 40.9025 36.3264C41.0645 36.3698 41.1897 36.4351 41.337 36.493C41.4916 36.551 41.6463 36.5945 41.8009 36.6235C41.8304 36.6307 41.9188 36.6525 41.9482 36.6669C42.1029 36.7032 42.2575 36.7177 42.4343 36.7467C42.6921 36.7974 42.9572 36.8336 43.2591 36.8336C43.4874 36.8771 43.8188 36.8843 44.0619 36.8481C44.489 36.8843 44.9161 36.7684 45.358 36.7322C45.5053 36.7032 45.6452 36.7032 45.7925 36.6452C45.9545 36.638 46.1387 36.5872 46.3228 36.522C46.4774 36.4785 46.7278 36.4061 46.8972 36.3554C47.1697 36.2394 47.5011 36.0945 47.7147 36.0148C47.862 36.0655 47.9503 35.8191 48.1565 35.7104C48.2744 35.6597 48.2817 35.6959 48.348 35.6959C48.4511 35.6452 48.5321 35.5727 48.6132 35.5003C48.731 35.4351 48.8267 35.4061 48.9593 35.2901L48.8783 35.3191ZM27.8967 34.4713C27.8967 34.4713 27.8967 34.4641 27.8967 34.4568C27.9335 34.4568 27.963 34.5293 27.8967 34.4713ZM27.8672 34.4568C27.7715 34.3916 27.6463 34.2756 27.6021 34.2032C27.5874 34.1887 27.5947 34.2394 27.5653 34.2177C27.5432 34.1742 27.5064 34.1235 27.4474 34.0583C27.4769 34.022 27.58 34.1669 27.6095 34.1452C27.6537 34.1959 27.6757 34.2177 27.7052 34.2249C27.7936 34.3264 27.823 34.3409 27.8967 34.4133C27.8599 34.4133 27.8967 34.4423 27.8746 34.4568H27.8672Z" fill="white"/>
<path fill-rule="evenodd" clip-rule="evenodd" d="M27.1883 45.75C27.1883 45.75 27.1073 45.7727 27.041 45.7878C27.0557 45.7727 27.1368 45.75 27.1883 45.75Z" fill="white"/>
<path fill-rule="evenodd" clip-rule="evenodd" d="M25.0748 44.4409C25.038 44.4409 24.9201 44.4485 24.9349 44.4258C25.0011 44.4258 25.0306 44.4333 25.0748 44.4409Z" fill="white"/>
<path fill-rule="evenodd" clip-rule="evenodd" d="M24.8763 44.3973C24.8763 44.3973 24.7805 44.3973 24.7363 44.3973C24.7363 44.3822 24.8542 44.3973 24.8763 44.3973Z" fill="white"/>
<path fill-rule="evenodd" clip-rule="evenodd" d="M24.2884 44.5359C24.2884 44.5359 24.1779 44.5359 24.1484 44.5132C24.1632 44.5057 24.2515 44.5284 24.2884 44.5359Z" fill="white"/>
<path fill-rule="evenodd" clip-rule="evenodd" d="M24.0896 44.2578C24.0381 44.265 23.9644 44.2505 23.8613 44.207C23.9055 44.207 24.0013 44.2505 24.0896 44.2578Z" fill="white"/>
<path fill-rule="evenodd" clip-rule="evenodd" d="M23.0281 45.127C22.8882 45.0908 22.6157 44.9676 22.5273 44.9023C22.682 44.9893 22.8735 45.069 23.0281 45.127Z" fill="white"/>
<path fill-rule="evenodd" clip-rule="evenodd" d="M22.8818 44.5196C22.7198 44.4761 22.4547 44.3312 22.2779 44.2153C22.2632 44.179 22.543 44.3819 22.6167 44.3819C22.6461 44.3964 22.6903 44.4254 22.7271 44.4472C22.7787 44.4689 22.8376 44.4761 22.8892 44.5196H22.8818Z" fill="white"/>
<path fill-rule="evenodd" clip-rule="evenodd" d="M21.2751 43.3113C21.2751 43.3113 21.253 43.3186 21.2162 43.2751C21.2088 43.2606 21.2162 43.2533 21.2162 43.2461L21.2751 43.3041V43.3113Z" fill="white"/>
<path fill-rule="evenodd" clip-rule="evenodd" d="M20.5906 42.78C20.4875 42.6858 20.3181 42.4249 20.2371 42.2728C20.2224 42.2583 20.215 42.2583 20.1929 42.222C20.1414 42.1351 20.0383 41.9322 20.1487 42.1206C20.296 42.3525 20.4065 42.5336 20.5906 42.78Z" fill="white"/>
<path fill-rule="evenodd" clip-rule="evenodd" d="M20.7446 42.5495C20.7446 42.5495 20.6931 42.4843 20.6562 42.4336C20.6783 42.4336 20.7373 42.5278 20.7446 42.5495Z" fill="white"/>
<path fill-rule="evenodd" clip-rule="evenodd" d="M20.0534 42.7599C20.0534 42.7599 19.9724 42.6367 19.9355 42.5859C19.965 42.6222 20.0387 42.7091 20.0534 42.7599Z" fill="white"/>
<path fill-rule="evenodd" clip-rule="evenodd" d="M20.5841 42.4692C20.5473 42.433 20.481 42.3315 20.4368 42.2808C20.4221 42.2228 20.5399 42.404 20.5841 42.4692Z" fill="white"/>
<path fill-rule="evenodd" clip-rule="evenodd" d="M20.5902 42.3474C20.5902 42.3474 20.4871 42.217 20.4355 42.1445C20.4724 42.1808 20.5387 42.2822 20.5902 42.3474Z" fill="white"/>
<path fill-rule="evenodd" clip-rule="evenodd" d="M19.8238 42.6343C19.8238 42.6343 19.7502 42.5619 19.7207 42.5039C19.7428 42.5039 19.787 42.5909 19.8238 42.6343Z" fill="white"/>
<path fill-rule="evenodd" clip-rule="evenodd" d="M19.8763 42.4845C19.8247 42.4265 19.7069 42.1946 19.6406 42.0859C19.729 42.2236 19.7879 42.3323 19.8763 42.4845Z" fill="white"/>
<path fill-rule="evenodd" clip-rule="evenodd" d="M20.4209 42.1085C20.3472 42.0215 20.2883 41.8766 20.2441 41.7969C20.3031 41.8766 20.3546 42.0143 20.4209 42.1085Z" fill="white"/>
<path fill-rule="evenodd" clip-rule="evenodd" d="M20.0684 41.9759C20.0684 41.9759 20.0021 41.8817 19.9727 41.831C19.9874 41.8092 20.0316 41.9179 20.0684 41.9759Z" fill="white"/>
<path fill-rule="evenodd" clip-rule="evenodd" d="M20.0244 41.7805C19.9875 41.737 19.9802 41.6936 19.9434 41.6211C19.9581 41.6356 19.9949 41.7298 20.0244 41.7805Z" fill="white"/>
<path fill-rule="evenodd" clip-rule="evenodd" d="M20.0007 41.585C20.0007 41.585 19.905 41.4256 19.9492 41.4473C19.9712 41.4908 19.9565 41.4836 19.9492 41.4908C19.9712 41.5416 19.9786 41.5271 20.0007 41.585Z" fill="white"/>
<path fill-rule="evenodd" clip-rule="evenodd" d="M19.4414 41.3164C19.5445 41.599 19.5003 41.4106 19.4414 41.3164Z" fill="white"/>
<path fill-rule="evenodd" clip-rule="evenodd" d="M19.1617 41.1498C19.1175 41.0628 19.0954 40.9759 19.0586 40.8672C19.0881 40.9324 19.147 41.1063 19.1617 41.1498Z" fill="white"/>
<path fill-rule="evenodd" clip-rule="evenodd" d="M19.1108 41.0924C19.1108 41.1287 19.0445 40.9548 19.074 40.9837L19.1108 41.0924Z" fill="white"/>
<path fill-rule="evenodd" clip-rule="evenodd" d="M18.7718 40.9758C18.7718 40.9758 18.7203 40.8744 18.7129 40.8164C18.7276 40.8309 18.7718 40.9468 18.7718 40.9758Z" fill="white"/>
<path fill-rule="evenodd" clip-rule="evenodd" d="M18.6095 40.3311C18.5506 40.1065 18.5432 40.1645 18.6095 40.3311Z" fill="white"/>
<path fill-rule="evenodd" clip-rule="evenodd" d="M21.585 44.8044C21.5482 44.7899 21.4966 44.7609 21.4672 44.7537C21.4083 44.6957 21.2904 44.6232 21.2168 44.5508C21.3273 44.616 21.423 44.7247 21.5924 44.8117L21.585 44.8044Z" fill="white"/>
<path fill-rule="evenodd" clip-rule="evenodd" d="M20.052 42.5867C20.0225 42.5433 20.0299 42.5433 19.9931 42.4853C19.9931 42.478 20.0152 42.4998 20.0225 42.4998C19.9562 42.3911 19.9268 42.3404 19.8826 42.2679C19.89 42.2751 19.9047 42.2824 19.9047 42.2824C19.8237 42.1809 19.7721 42.036 19.6543 41.7969C19.7869 42.0143 20.052 42.5143 20.1919 42.6954C20.1551 42.6809 20.0667 42.507 20.0299 42.4998C20.0152 42.4998 20.0962 42.6085 20.052 42.5867Z" fill="white"/>
<path fill-rule="evenodd" clip-rule="evenodd" d="M20.3543 42.1294C20.3396 42.1294 20.3101 42.0496 20.3027 42.0352C20.3248 42.0496 20.4574 42.3033 20.3617 42.1294H20.3543Z" fill="white"/>
<path fill-rule="evenodd" clip-rule="evenodd" d="M19.6485 40.7082H19.6706C19.619 40.5778 19.5601 40.3676 19.5527 40.2734C19.6043 40.4256 19.6779 40.7662 19.7516 40.8604C19.7516 40.8894 19.7737 40.9329 19.7737 40.9618C19.9431 41.3024 20.0756 41.6937 20.2892 42.0198C20.1493 41.8966 20.0388 41.5053 19.9062 41.3459C19.8915 41.3169 19.9062 41.3459 19.921 41.3604C19.8547 41.201 19.7442 40.9111 19.6485 40.7082Z" fill="white"/>
<path fill-rule="evenodd" clip-rule="evenodd" d="M19.0507 41.0631C19.0507 41.0631 19.0065 40.9689 18.9844 40.9327C18.9844 40.911 19.0507 41.0124 19.0507 41.0631Z" fill="white"/>
<path fill-rule="evenodd" clip-rule="evenodd" d="M52.4339 45.3894C52.5002 45.3532 52.6769 45.259 52.7432 45.2155C52.9936 45.0996 53.2145 44.9764 53.4502 44.8315C53.6491 44.6865 53.8258 44.5271 54.0246 44.3677C54.1646 44.2445 54.2088 44.1938 54.3045 44.1068C54.5696 43.846 54.7832 43.6286 54.8495 43.4764C54.9894 43.259 55.1809 42.9909 55.2766 42.7807C55.2913 42.7518 55.3355 42.6865 55.3429 42.672C55.5712 42.1431 55.6227 41.7807 55.7627 41.1431C55.7479 41.0778 55.7259 41.0344 55.7111 40.9184C55.7111 40.8677 55.7185 40.759 55.7111 40.7228C55.6743 40.5851 55.5712 40.672 55.5712 40.4402C55.5565 40.4257 55.5417 40.4619 55.527 40.4764C55.4018 40.4474 55.2692 40.5126 55.1809 40.4402C55.0925 40.5706 55.0262 40.5271 54.9452 40.6213C54.901 40.6793 54.8347 40.7952 54.7685 40.8677C54.7022 40.9474 54.6433 41.0344 54.577 41.0923C54.5402 41.0778 54.4812 41.1865 54.4444 41.1938C54.3634 41.317 54.2898 41.4039 54.194 41.5199C54.1719 41.5199 54.1498 41.5489 54.1351 41.5489C53.9363 41.788 53.6785 41.9836 53.3987 42.2807C53.3766 42.3097 53.3103 42.3605 53.2808 42.3967C53.0746 42.6213 52.699 42.9184 52.5296 42.9619C52.4855 42.9909 52.4928 42.9981 52.4413 43.0271C52.3971 43.0271 52.2424 43.0778 52.1172 43.1503C52.073 43.172 52.0215 43.2445 51.9331 43.3097C51.7932 43.3894 51.6385 43.4112 51.5133 43.4836C51.4544 43.5126 51.4029 43.5633 51.3366 43.5923C51.1819 43.6865 50.8211 43.7807 50.6664 43.8097C50.5486 43.8387 50.497 43.817 50.4087 43.846C50.3276 43.8677 50.2761 43.9039 50.2908 43.9402C50.0772 44.0923 49.4365 44.0851 49.0609 44.1286C48.7885 44.0996 48.5822 44.1286 48.3466 44.0851C48.3024 44.0706 48.2508 44.0489 48.2067 44.0344C48.133 44.0126 48.0225 44.0199 47.9268 43.9836C47.7427 43.9184 47.6617 43.8822 47.4776 43.817C47.3082 43.6503 47.1241 43.6358 46.9694 43.4981C46.9105 43.4547 46.8589 43.3967 46.7927 43.346C46.7337 43.3097 46.6748 43.2662 46.6159 43.2155C46.557 43.1576 46.5128 43.0923 46.4539 43.0416C46.4097 43.0054 46.3729 42.9836 46.3361 42.9474C46.2919 42.8967 46.2771 42.8604 46.233 42.817C46.2035 42.788 46.1004 42.701 46.0709 42.6793C45.9016 42.4836 45.7395 42.2518 45.5701 42.0633C45.4965 41.9547 45.2166 41.4691 45.0178 41.1068C44.8116 40.6793 44.6128 40.2373 44.3845 39.5561C44.2666 39.2662 44.1782 39.0489 44.0604 38.6938C44.031 38.6286 44.031 38.6648 43.9868 38.5489C43.8837 38.2662 43.8174 38.0923 43.7216 37.8242C43.5965 38.1793 43.486 38.6068 43.3461 38.9619C43.3461 38.9981 43.3313 39.0344 43.324 39.0851C43.0294 39.8894 42.6538 41.0489 42.3887 41.5851C42.3297 41.6938 42.2782 41.788 42.1972 41.9112C42.1677 41.9619 42.1309 42.0199 42.0941 42.0778C42.0278 42.1938 41.9468 42.2952 41.8658 42.4112C41.7848 42.5199 41.6817 42.5996 41.608 42.6938C41.4534 42.8749 41.2103 43.0778 41.0189 43.2083C40.9894 43.2373 40.901 43.317 40.8642 43.346C40.7611 43.4184 40.6359 43.4619 40.5328 43.5416C40.0983 43.8097 39.5239 44.0054 39.0599 44.0851C38.92 44.1141 38.8021 44.172 38.6401 44.1938C38.3676 44.23 38.0878 44.2662 37.8079 44.2662C37.7564 44.2662 37.6533 44.2807 37.6091 44.288C37.4471 44.288 37.2777 44.3097 37.1083 44.288C36.9094 44.2807 36.6959 44.2735 36.4897 44.2662C36.2908 44.2373 36.0993 44.1938 35.9152 44.1503C35.4439 44.0633 34.7885 43.8097 34.376 43.4547C34.2582 43.4112 34.1993 43.2952 34.0962 43.2228C33.7942 42.9619 33.4702 42.6068 33.264 42.1793C33.0431 41.8242 32.9031 41.346 32.7706 40.8604C32.2035 40.6576 32.0709 40.4764 31.9678 40.2807C31.8353 40.4329 31.6217 40.6068 31.0915 40.7373C30.9515 41.1213 30.7674 41.3822 30.598 41.6865C30.5244 41.8315 30.4066 41.9909 30.3329 42.0851L30.1709 42.3097C30.0531 42.4474 29.9352 42.5851 29.81 42.7228C29.6848 42.846 29.5523 42.9764 29.4197 43.0996C29.2945 43.172 29.1251 43.3097 29.0367 43.4039C29.0073 43.4039 28.941 43.4619 28.8895 43.4909C28.7053 43.6213 28.4623 43.7807 28.1972 43.8894C28.1456 43.9474 27.9763 43.9981 27.8879 44.0633C27.8363 44.0633 27.9394 44.0199 27.8658 44.0489C27.7111 44.172 27.0999 44.3532 26.8127 44.3894C26.8347 44.3894 26.8347 44.3894 26.8127 44.3967C26.739 44.3967 26.7169 44.4329 26.6359 44.4402C26.3781 44.5054 26.1498 44.5126 25.9363 44.5489C25.7153 44.5851 25.5091 44.6213 25.2808 44.6068C25.2219 44.5923 25.0746 44.5561 25.0157 44.5778C25.0967 44.5851 25.1998 44.5923 25.1925 44.6141C25.0525 44.5996 24.8758 44.5996 24.78 44.6141C24.6107 44.6068 24.5296 44.5633 24.375 44.5561C24.3382 44.5561 24.4044 44.5923 24.3308 44.5706C24.1025 44.5054 23.9699 44.5271 23.7711 44.4402C23.7048 44.4402 23.4618 44.3749 23.3955 44.3387C23.3219 44.3242 23.4618 44.3822 23.4029 44.3677C23.2114 44.3242 23.0494 44.2373 22.8947 44.1576C22.8505 44.1503 22.8137 44.1503 22.7474 44.1213C22.7032 44.0996 22.7695 44.1068 22.7032 44.0851C22.637 44.0706 22.7401 44.1286 22.718 44.1358C22.6222 44.0996 22.637 44.1213 22.5854 44.1141C22.4749 44.0271 22.3866 44.0054 22.2761 43.9402C22.1656 43.8749 22.0404 43.8025 21.9447 43.7228C21.8563 43.6576 21.8121 43.6431 21.7164 43.5706C21.6427 43.5054 21.5838 43.4474 21.5102 43.3677C21.466 43.3315 21.5249 43.4112 21.466 43.3532C21.1788 43.0923 20.9357 42.7952 20.7369 42.5851C20.8916 42.7445 21.0094 42.8967 21.1199 43.0344C21.2451 43.1648 21.3703 43.2952 21.5175 43.4184C21.5396 43.4764 21.6575 43.5199 21.6796 43.5778C21.709 43.5778 21.6501 43.5199 21.709 43.5778C21.7311 43.5996 21.7311 43.6068 21.7679 43.6358C21.709 43.6213 21.7679 43.672 21.7827 43.7083C22.0257 43.9257 22.2761 44.0271 22.5044 44.1865C22.5486 44.2083 22.4823 44.1503 22.5339 44.1865C22.6296 44.23 22.7032 44.2662 22.8211 44.317C22.8432 44.3532 22.9168 44.3967 22.8653 44.4039C22.6885 44.3242 22.4749 44.2373 22.2761 44.1068C22.0699 43.9909 21.8563 43.8604 21.6796 43.7083C21.5691 43.6213 21.466 43.5199 21.3923 43.4836C21.5249 43.6068 21.7017 43.7735 21.7974 43.8677C21.9741 44.0271 22.2172 44.1141 22.4013 44.2445C22.4528 44.2807 22.4676 44.3025 22.5265 44.3315C22.5707 44.3532 22.6443 44.3677 22.6885 44.3967C22.7401 44.4184 22.7327 44.4329 22.7769 44.4547C22.8653 44.4909 22.9389 44.5126 23.042 44.5561C23.204 44.6358 23.3734 44.6938 23.5649 44.7518C23.5943 44.7735 23.5723 44.788 23.5281 44.7807C23.2998 44.701 23.2556 44.701 23.0346 44.6141C23.0567 44.6286 23.0715 44.6358 23.0641 44.6431C22.9978 44.6068 22.9757 44.5923 22.9242 44.5851C23.0862 44.6648 23.0567 44.6938 22.9978 44.6793C22.799 44.5778 22.5559 44.4836 22.3497 44.3605C22.1435 44.23 21.9447 44.1141 21.7974 43.9909C21.7606 43.9764 21.7311 43.9691 21.6722 43.9257C21.3334 43.672 20.9947 43.3387 20.7148 42.9909C21.002 43.4184 21.4218 43.7807 21.9152 44.1213C21.93 44.1358 21.9079 44.1431 21.9594 44.172C22.1877 44.2952 22.4307 44.4691 22.6222 44.5416C22.6885 44.5996 22.7548 44.6576 22.8284 44.7155C23.4176 44.9547 23.8521 45.1576 24.4707 45.2518C24.4707 45.2662 24.5149 45.2807 24.5296 45.2952C24.4781 45.2952 24.4413 45.3097 24.3824 45.3097C24.2792 45.2952 24.1761 45.2807 24.0878 45.2518C23.5502 45.2228 22.8432 44.9184 22.2466 44.6358C22.1656 44.6141 22.2098 44.6648 22.2466 44.7155C22.5339 44.8604 22.8063 44.9836 23.123 45.1141C23.2188 45.2083 23.0788 45.2228 22.8284 45.1213C22.6296 45.0271 22.3424 44.9112 22.0993 44.7662C21.8637 44.6068 21.6354 44.4691 21.5249 44.3749C20.4497 43.6068 19.6985 42.5126 19.2051 41.317C19.4628 41.9909 19.8237 42.5706 20.1919 43.1068C20.1993 43.0996 20.2214 43.1068 20.2508 43.1576C20.6264 43.6865 21.1788 44.1793 21.6648 44.4981C21.8489 44.6648 22.2614 44.8822 22.4823 45.0054C22.4013 45.0271 22.1951 44.9836 21.9668 44.8532C22.1877 44.9981 22.416 45.0996 22.6149 45.2083C22.7769 45.3025 23.0788 45.3749 23.1672 45.4184C23.1893 45.4257 23.1451 45.4257 23.1819 45.4402C23.1083 45.4184 23.3071 45.4764 23.3219 45.4836C23.4176 45.5054 23.4029 45.4981 23.5133 45.5344C23.5943 45.5633 23.5943 45.5633 23.7416 45.6141C24.0068 45.6648 24.2498 45.7083 24.4928 45.7518C24.7432 45.7807 24.9936 45.7807 25.244 45.8097C25.3029 45.8097 25.3987 45.817 25.4134 45.817C25.4576 45.817 25.4134 45.8315 25.4797 45.8387C25.5165 45.8387 25.5018 45.8315 25.5533 45.8315C25.7595 45.8242 25.9805 45.817 26.1719 45.8025C26.4223 45.8025 26.6875 45.759 26.9452 45.7083C27.203 45.6576 27.4534 45.6358 27.6448 45.5633C27.7332 45.5416 27.6228 45.5923 27.7406 45.5561C28.4329 45.3894 29.1251 45.0489 29.7732 44.6431C29.8174 44.6068 29.7953 44.6576 29.8616 44.6068C29.9499 44.5489 29.9131 44.5416 29.9868 44.4836C30.0383 44.4547 30.0825 44.4257 30.1193 44.4184C30.3034 44.2952 30.4655 44.1503 30.6275 43.9981C30.7969 43.8532 30.9515 43.6938 31.0915 43.5271C31.2461 43.3677 31.386 43.1938 31.5112 43.0126L31.5628 42.9474L31.5775 42.9257L31.607 42.8749L31.6438 42.8097C31.6953 42.7228 31.7395 42.6141 31.769 42.5344C31.769 42.5561 31.7764 42.5778 31.7837 42.5996C31.7984 42.672 31.8279 42.73 31.8574 42.8025C31.8721 42.8315 31.8868 42.8677 31.8942 42.9039L31.9236 42.9474C31.9531 42.9909 31.9752 43.0416 32.0047 43.0851C32.093 43.2373 32.2035 43.3822 32.2992 43.5271C32.5128 43.8097 32.7264 44.0851 32.9989 44.3242C33.1903 44.5054 33.3966 44.6865 33.6249 44.8387C33.8384 45.0054 34.0667 45.1286 34.2656 45.2155C34.3171 45.2373 34.4497 45.2952 34.5012 45.317C34.6191 45.3822 34.7443 45.4329 34.8695 45.4764C35.0388 45.5344 35.2156 45.5923 35.3923 45.6431C35.5838 45.6793 35.7606 45.7083 35.9226 45.7373C36.3129 45.8315 36.6811 45.8242 37.0641 45.8605C37.285 45.8822 37.4691 45.8387 37.6827 45.8315C37.8006 45.8315 37.9847 45.8315 38.1025 45.8315C38.5002 45.7807 38.9052 45.7373 39.2808 45.6431C39.7816 45.5489 40.3119 45.4184 40.7832 45.172C41.3355 44.9691 41.9542 44.5561 42.3739 44.1793C42.7569 43.9112 43.0441 43.5126 43.3534 43.1068C43.3755 43.0851 43.4197 43.0271 43.4418 42.9909C43.4933 42.9112 43.5449 42.846 43.5891 42.7807C43.5964 42.7735 43.6112 42.7518 43.6185 42.73C43.6406 42.6938 43.6554 42.6576 43.6701 42.6141C43.6996 42.5344 43.729 42.4402 43.7585 42.4039C43.7658 42.3387 43.7806 42.2952 43.7879 42.3315C43.7879 42.3532 43.7953 42.3749 43.8027 42.3894C43.8174 42.4474 43.8395 42.4547 43.8616 42.4981C43.8616 42.5126 43.8689 42.5416 43.8763 42.5561C43.891 42.6068 43.9279 42.6213 43.9573 42.672C43.9794 42.701 44.0089 42.7662 44.0015 42.7735C44.1046 42.9402 44.2151 43.1068 44.3476 43.2735C44.5244 43.5489 44.819 43.9329 45.1062 44.1938C45.5407 44.6793 46.1078 45.0633 46.7264 45.4039C46.9473 45.5054 47.1388 45.6141 47.3745 45.6793C47.6101 45.7662 47.9121 45.846 48.2214 45.8894C48.5233 45.9112 48.8695 45.9836 49.1493 45.9619C49.5691 45.9619 50.0846 45.8822 50.4087 45.8894C50.5707 45.9764 50.8211 45.759 51.1451 45.6938C51.3219 45.6648 51.3145 45.7083 51.3955 45.7228C51.5575 45.6938 51.7048 45.6431 51.8447 45.5778C52.0215 45.5199 52.1688 45.5271 52.3971 45.4329L52.4339 45.3894ZM23.3513 44.4547C23.3513 44.4547 23.3513 44.4474 23.3366 44.4402C23.3881 44.4329 23.4691 44.4981 23.3513 44.4547ZM23.3071 44.4547C23.1377 44.4039 22.9168 44.3097 22.8063 44.2445C22.7769 44.23 22.8211 44.2807 22.7695 44.2662C22.7106 44.2155 22.6296 44.1865 22.5191 44.1141C22.5265 44.0778 22.7474 44.2155 22.7695 44.1793C22.8579 44.2228 22.8947 44.2445 22.9463 44.2445C23.123 44.3387 23.1672 44.346 23.3071 44.4039C23.2629 44.4184 23.3292 44.4329 23.3071 44.4547Z" fill="white"/>
<path fill-rule="evenodd" clip-rule="evenodd" d="M27.7051 15.125C27.7051 15.125 27.7419 15.125 27.764 15.1326C27.7566 15.1401 27.7198 15.1326 27.7051 15.125Z" fill="white"/>
<path fill-rule="evenodd" clip-rule="evenodd" d="M27.8008 16.7422C27.8008 16.7422 27.8533 16.7497 27.8383 16.7724C27.8158 16.7649 27.8158 16.7497 27.8008 16.7422Z" fill="white"/>
<path fill-rule="evenodd" clip-rule="evenodd" d="M27.8379 16.7969C27.8379 16.7969 27.8679 16.812 27.8754 16.812C27.8679 16.8271 27.8379 16.8044 27.8379 16.7969Z" fill="white"/>
<path fill-rule="evenodd" clip-rule="evenodd" d="M28.1113 16.7188C28.1113 16.7188 28.1482 16.7263 28.1555 16.7414C28.1482 16.7414 28.1261 16.7188 28.1113 16.7188Z" fill="white"/>
<path fill-rule="evenodd" clip-rule="evenodd" d="M28.0293 16.9492C28.0293 16.9492 28.0735 16.9643 28.0956 16.987C28.0735 16.987 28.0514 16.9643 28.0293 16.9492Z" fill="white"/>
<path fill-rule="evenodd" clip-rule="evenodd" d="M29.002 16.2773C29.0461 16.3136 29.1345 16.386 29.1419 16.4295C29.1051 16.3715 29.0388 16.3281 29.002 16.2773Z" fill="white"/>
<path fill-rule="evenodd" clip-rule="evenodd" d="M28.7363 16.7266C28.7952 16.7483 28.8468 16.8498 28.9057 16.9005C28.891 16.9222 28.8321 16.8135 28.8026 16.8135C28.7952 16.799 28.7879 16.7845 28.7805 16.77C28.7658 16.7555 28.7363 16.7555 28.7363 16.7266Z" fill="white"/>
<path fill-rule="evenodd" clip-rule="evenodd" d="M29.0977 17.3489C29.0977 17.3489 29.1202 17.3413 29.1277 17.364C29.1277 17.3716 29.1202 17.3791 29.1127 17.3791L29.0977 17.3489Z" fill="white"/>
<path fill-rule="evenodd" clip-rule="evenodd" d="M29.3917 17.5469C29.4285 17.5831 29.4727 17.6918 29.4727 17.757C29.4727 17.757 29.4874 17.757 29.4874 17.7788C29.5022 17.815 29.5095 17.8947 29.4874 17.8222C29.4432 17.728 29.4285 17.6556 29.377 17.5541L29.3917 17.5469Z" fill="white"/>
<path fill-rule="evenodd" clip-rule="evenodd" d="M29.1562 17.6758C29.1562 17.6758 29.1783 17.6975 29.1857 17.7193C29.171 17.7193 29.1562 17.683 29.1562 17.6758Z" fill="white"/>
<path fill-rule="evenodd" clip-rule="evenodd" d="M29.8335 17.5078C29.8335 17.5078 29.8556 17.5585 29.863 17.5875C29.8482 17.573 29.8261 17.5368 29.8335 17.5078Z" fill="white"/>
<path fill-rule="evenodd" clip-rule="evenodd" d="M29.2598 17.6992C29.2598 17.6992 29.2892 17.7499 29.304 17.7717C29.2892 17.8007 29.2671 17.7282 29.2598 17.6992Z" fill="white"/>
<path fill-rule="evenodd" clip-rule="evenodd" d="M29.2012 17.7539C29.2012 17.7539 29.2306 17.8046 29.2454 17.8336C29.2233 17.8191 29.2159 17.7829 29.2012 17.7539Z" fill="white"/>
<path fill-rule="evenodd" clip-rule="evenodd" d="M29.9824 17.5508C29.9824 17.5508 30.0119 17.587 30.0266 17.6088C30.0119 17.6088 29.9972 17.5725 29.9824 17.5508Z" fill="white"/>
<path fill-rule="evenodd" clip-rule="evenodd" d="M29.8711 17.6328C29.8711 17.6328 29.9153 17.756 29.93 17.8067C29.9006 17.7488 29.8932 17.698 29.8711 17.6328Z" fill="white"/>
<path fill-rule="evenodd" clip-rule="evenodd" d="M29.252 17.8477C29.252 17.8477 29.2814 17.9346 29.2888 17.9708C29.2667 17.9419 29.2814 17.8839 29.252 17.8477Z" fill="white"/>
<path fill-rule="evenodd" clip-rule="evenodd" d="M29.5098 17.8789C29.5098 17.8789 29.5319 17.9151 29.5392 17.9369C29.5171 17.9441 29.5171 17.9006 29.5098 17.8789Z" fill="white"/>
<path fill-rule="evenodd" clip-rule="evenodd" d="M29.4805 17.957C29.4805 17.957 29.4952 17.9933 29.5026 18.015C29.4878 18.015 29.4878 17.9715 29.4805 17.957Z" fill="white"/>
<path fill-rule="evenodd" clip-rule="evenodd" d="M29.4297 18.0391C29.4297 18.0391 29.4591 18.097 29.4297 18.097C29.4297 18.0825 29.4297 18.0825 29.4444 18.0825C29.4444 18.0608 29.4297 18.068 29.4297 18.0463V18.0391Z" fill="white"/>
<path fill-rule="evenodd" clip-rule="evenodd" d="M29.8647 18.1387C29.8647 18.0227 29.8352 18.1025 29.8647 18.1387Z" fill="white"/>
<path fill-rule="evenodd" clip-rule="evenodd" d="M30.0703 18.2031C30.085 18.2394 30.0924 18.2756 30.0924 18.3263C30.0924 18.2973 30.0703 18.2249 30.0703 18.2031Z" fill="white"/>
<path fill-rule="evenodd" clip-rule="evenodd" d="M30.1074 18.2344C30.1074 18.2344 30.1295 18.2923 30.1074 18.2779V18.2344Z" fill="white"/>
<path fill-rule="evenodd" clip-rule="evenodd" d="M30.3935 18.293C30.3935 18.293 30.4082 18.3364 30.4082 18.3654C30.3935 18.3654 30.3861 18.3075 30.3935 18.293Z" fill="white"/>
<path fill-rule="evenodd" clip-rule="evenodd" d="M30.3867 18.5742C30.4162 18.6612 30.3867 18.6902 30.3867 18.5742Z" fill="white"/>
<path fill-rule="evenodd" clip-rule="evenodd" d="M29.6582 16.4492C29.6582 16.4492 29.6877 16.4782 29.7098 16.4782C29.7098 16.5144 29.7613 16.5507 29.776 16.5941C29.7318 16.5652 29.7171 16.4999 29.6582 16.4492Z" fill="white"/>
<path fill-rule="evenodd" clip-rule="evenodd" d="M29.7616 17.5948C29.7616 17.5948 29.7616 17.6166 29.769 17.6383C29.7616 17.6383 29.7542 17.6383 29.7542 17.6383C29.7763 17.6963 29.7837 17.718 29.7911 17.7398C29.7911 17.7398 29.7837 17.7398 29.7763 17.7398C29.8131 17.7832 29.7911 17.8484 29.8279 17.9427C29.7763 17.8557 29.7395 17.6383 29.6953 17.5586C29.7174 17.5586 29.7248 17.6383 29.7542 17.6456C29.769 17.6456 29.7395 17.5948 29.769 17.6021L29.7616 17.5948Z" fill="white"/>
<path fill-rule="evenodd" clip-rule="evenodd" d="M29.3194 17.8266C29.3342 17.8266 29.3268 17.8555 29.3268 17.8628C29.3121 17.8628 29.29 17.7613 29.3121 17.8266H29.3194Z" fill="white"/>
<path fill-rule="evenodd" clip-rule="evenodd" d="M29.4886 18.3789H29.4665C29.4665 18.4296 29.4813 18.5093 29.4665 18.5383C29.4445 18.4804 29.4813 18.3572 29.4371 18.3209C29.4371 18.3137 29.4371 18.2919 29.4371 18.2847C29.3855 18.1543 29.3929 18.0093 29.334 17.8789C29.4003 17.9224 29.3708 18.0818 29.4371 18.1398C29.4445 18.205 29.4518 18.3137 29.496 18.3862L29.4886 18.3789Z" fill="white"/>
<path fill-rule="evenodd" clip-rule="evenodd" d="M30.1514 18.2461C30.1514 18.2461 30.1735 18.2896 30.1808 18.3041C30.1808 18.3113 30.144 18.2678 30.1514 18.2461Z" fill="white"/>
<path fill-rule="evenodd" clip-rule="evenodd" d="M29.6502 21.1248C29.6502 21.1248 29.6944 21.0379 29.7238 20.9944C29.7901 20.9002 29.8785 20.835 29.93 20.7263C29.9742 20.6321 30.0037 20.5379 30.0479 20.4437C30.0773 20.3712 30.0847 20.3422 30.0994 20.2915C30.151 20.1466 30.2025 20.0306 30.1731 19.9509C30.1731 19.8422 30.2025 19.7118 30.1878 19.6103C30.1878 19.5958 30.1952 19.5669 30.1952 19.5596C30.1731 19.3132 30.0552 19.1611 30.0184 18.9074C29.989 18.8857 29.9448 18.864 29.9079 18.8205C29.8932 18.7987 29.8785 18.7625 29.8638 18.748C29.7975 18.6973 29.7165 18.7408 29.6649 18.6538C29.6502 18.6538 29.6428 18.6611 29.6355 18.6683C29.5029 18.6683 29.3924 18.6973 29.2893 18.6756C29.223 18.7263 29.1568 18.7118 29.0978 18.748C29.061 18.7698 29.0242 18.8132 28.9874 18.835C28.9506 18.864 28.9137 18.8929 28.8695 18.9147C28.8327 18.9147 28.818 18.9437 28.7812 18.9509C28.7517 18.9871 28.7075 19.0306 28.6781 19.0596C28.6633 19.0596 28.656 19.0669 28.6412 19.0669C28.5455 19.1393 28.4571 19.2045 28.3835 19.306C28.3835 19.3132 28.3688 19.335 28.3614 19.3495C28.3246 19.4292 28.2583 19.5451 28.1846 19.5524C28.1699 19.5596 28.1846 19.5669 28.1699 19.5814C28.1405 19.5814 28.0815 19.5814 28.0594 19.6176C28.0594 19.6248 28.0594 19.6611 28.0594 19.69C28.0373 19.7263 27.9784 19.7335 27.9637 19.7698C27.9563 19.7843 27.9637 19.8205 27.9637 19.835C27.949 19.8857 27.868 19.9437 27.8311 19.9654C27.8017 19.9799 27.7796 19.9654 27.7649 19.9871C27.7501 20.0089 27.7575 20.0379 27.787 20.0669C27.787 20.1756 27.6102 20.219 27.5439 20.2987C27.4629 20.2987 27.4187 20.3857 27.3524 20.4074C27.3377 20.4074 27.3156 20.4074 27.3009 20.4074C27.2788 20.4147 27.2493 20.4437 27.2272 20.4582C27.1831 20.4871 27.1315 20.4944 27.0873 20.5161C27.0063 20.4871 26.9695 20.5451 26.9106 20.5524C26.8885 20.5524 26.8664 20.5451 26.8369 20.5524C26.8148 20.5524 26.8001 20.5669 26.7706 20.5741C26.7486 20.5741 26.7191 20.5596 26.697 20.5596C26.6823 20.5596 26.6675 20.5741 26.6528 20.5741C26.6381 20.5741 26.6234 20.5596 26.6086 20.5669C26.5865 20.5669 26.5718 20.5886 26.5497 20.5886C26.4761 20.5886 26.4024 20.5741 26.3288 20.5886C26.2109 20.5379 26.0931 20.5669 25.9605 20.4871C25.9237 20.4871 25.8943 20.4871 25.8574 20.4582C25.8501 20.4582 25.8427 20.4727 25.828 20.4582C25.7691 20.4074 25.666 20.4219 25.607 20.3567C25.607 20.3567 25.5923 20.3567 25.5923 20.364C25.5039 20.2915 25.4008 20.2045 25.3125 20.1756C25.283 20.1103 25.1946 20.0886 25.1431 20.0234C25.1136 19.9944 25.0989 19.9582 25.0694 19.9364C25.0179 19.8857 24.9663 19.806 24.9221 19.748C24.9074 19.7335 24.8853 19.719 24.8706 19.7045C24.8485 19.6756 24.8411 19.6321 24.8117 19.6031C24.7159 19.4799 24.6644 19.3132 24.6349 19.1828C24.6276 19.1466 24.5981 19.1103 24.5834 19.0669C24.5613 18.9944 24.576 18.9074 24.5613 18.835C24.5613 18.8132 24.5466 18.7987 24.5466 18.777C24.5466 18.7335 24.5466 18.6828 24.5466 18.6393C24.5466 18.5234 24.5245 18.3929 24.576 18.2843C24.5613 18.1321 24.6349 17.9292 24.7086 17.777C24.7012 17.7335 24.738 17.7045 24.7528 17.6683C24.7969 17.5596 24.8632 17.4074 24.9663 17.3205C25.2756 16.8567 25.8353 16.5741 26.3877 16.4654C26.4319 16.4799 26.4982 16.4654 26.5423 16.4509C26.5497 16.4654 26.5792 16.4654 26.5939 16.4654C26.6675 16.4292 26.7559 16.4654 26.8443 16.4654C26.8738 16.4292 26.9179 16.4654 26.9621 16.4509C26.9769 16.4727 26.94 16.4654 26.9621 16.4799C27.0284 16.4219 27.2199 16.4944 27.3156 16.5016C27.3156 16.5016 27.3156 16.4871 27.3156 16.4944C27.3304 16.5161 27.3524 16.4944 27.3745 16.4944C27.5366 16.5379 27.6691 16.5379 27.809 16.5886C27.8238 16.6031 27.8459 16.6538 27.8753 16.6393C27.8532 16.6248 27.8238 16.6103 27.8385 16.5886C27.8753 16.6176 27.9269 16.6393 27.9637 16.6393C28.0153 16.6611 28.0226 16.6973 28.0742 16.7118C28.0815 16.719 28.0742 16.6828 28.1036 16.6973C28.1552 16.7553 28.2067 16.7553 28.2509 16.8132C28.2804 16.8132 28.3467 16.8567 28.3614 16.8857C28.3835 16.8929 28.3614 16.8567 28.3761 16.864C28.435 16.9002 28.4792 16.9437 28.5087 16.9944C28.5308 16.9944 28.5455 16.9944 28.5676 17.0089C28.5823 17.0234 28.5455 17.0234 28.5676 17.0306C28.5971 17.0379 28.5676 17.0016 28.5897 16.9944C28.6191 17.0161 28.6265 16.9944 28.6486 17.0016C28.6633 17.0451 28.7075 17.0524 28.7443 17.0814C28.7812 17.1103 28.8033 17.1538 28.8327 17.1828C28.8548 17.2118 28.8843 17.2118 28.9064 17.248C28.9211 17.277 28.9211 17.3132 28.9432 17.3422C28.9579 17.3567 28.9506 17.3205 28.9726 17.3422C29.0389 17.4582 29.1052 17.5741 29.1715 17.6538C29.0758 17.5306 29.0684 17.4074 28.9653 17.3132C28.9726 17.2843 28.9211 17.2698 28.9358 17.2335C28.9211 17.2335 28.9285 17.2625 28.9137 17.2335C28.9137 17.2263 28.9137 17.219 28.9064 17.2045C28.9432 17.2045 28.9285 17.1828 28.9358 17.1611C28.8695 17.0669 28.8033 17.0089 28.7443 16.9292C28.7296 16.9219 28.7443 16.9509 28.7223 16.9292C28.6928 16.9074 28.6781 16.8785 28.6412 16.8567C28.6412 16.835 28.6412 16.806 28.6633 16.7987C28.7591 16.8929 28.899 17.0161 28.9947 17.1538C29.0242 17.1973 29.0316 17.248 29.0757 17.2553C29.0316 17.1973 29.0316 17.1321 28.9947 17.0741C28.9506 17.0016 28.8695 16.9509 28.8254 16.8857C28.8106 16.864 28.8106 16.8567 28.8033 16.835C28.7885 16.8205 28.7591 16.8132 28.7517 16.7987C28.737 16.7843 28.7517 16.777 28.737 16.7625C28.7149 16.7408 28.6781 16.7335 28.656 16.7045C28.6118 16.6538 28.575 16.6031 28.5234 16.5596C28.5234 16.5451 28.5381 16.5306 28.5529 16.5379C28.6191 16.5958 28.6265 16.6031 28.6928 16.6611C28.6928 16.6538 28.6928 16.6466 28.6928 16.6393C28.7075 16.6611 28.7149 16.6683 28.7296 16.6756C28.6854 16.6321 28.7149 16.6031 28.7443 16.6103C28.8548 16.7335 28.9947 16.8785 29.061 16.9944C29.0831 16.9944 29.0978 16.9944 29.1126 17.0161C29.2083 17.1393 29.282 17.2915 29.363 17.4364C29.3114 17.2553 29.2009 17.0814 29.061 16.9147C29.061 16.9074 29.0758 16.9002 29.061 16.8857C28.9947 16.8205 28.9285 16.7335 28.8769 16.6828L28.8622 16.5669C28.6854 16.4147 28.6118 16.2335 28.4203 16.0958C28.4277 16.0814 28.4203 16.0669 28.4203 16.0524C28.4424 16.0524 28.4645 16.0524 28.4866 16.0524C28.516 16.0741 28.5529 16.0886 28.575 16.1176C28.7664 16.1973 28.9506 16.4219 29.1347 16.5886C29.1715 16.5958 29.1789 16.5669 29.1789 16.5306C29.1052 16.4292 29.0095 16.3712 28.9358 16.2553C28.9358 16.1828 29.0095 16.1756 29.0905 16.2553C29.223 16.3712 29.3998 16.6103 29.4587 16.7045C29.7827 17.1031 29.9595 17.5886 30.07 18.1031C30.0405 17.8132 29.9227 17.5596 29.849 17.3132C29.8417 17.3132 29.8269 17.3132 29.8269 17.2915C29.7238 17.0524 29.5839 16.806 29.4366 16.6393C29.4145 16.5379 29.2672 16.4219 29.223 16.335C29.282 16.3132 29.363 16.3495 29.4366 16.4219C29.3924 16.364 29.2967 16.2408 29.2599 16.19C29.2157 16.1321 29.1126 16.0596 29.0905 16.0306C29.0905 16.0234 29.1052 16.0306 29.0905 16.0161C29.1126 16.0379 29.0463 15.9799 29.0463 15.9799C29.0095 15.9582 29.0168 15.9654 28.98 15.9364C28.9358 15.8929 28.9358 15.8929 28.9137 15.864C28.7517 15.7263 28.575 15.6321 28.3982 15.5161C28.3835 15.5016 28.3393 15.4799 28.3393 15.4799C28.3246 15.4654 28.3393 15.4654 28.3246 15.4509C28.3098 15.4437 28.3098 15.4509 28.2951 15.4509C28.2215 15.4147 28.1405 15.364 28.0668 15.335C27.8753 15.2625 27.647 15.1683 27.485 15.1393C27.4482 15.1248 27.4997 15.1176 27.4556 15.1103C27.1757 15.0379 26.8664 14.9944 26.5497 14.9944C26.5276 14.9944 26.5497 14.9727 26.5129 14.9727C26.4687 14.9727 26.4834 14.9944 26.4392 14.9944C26.4171 14.9944 26.3951 14.9799 26.3803 14.9727C26.0195 14.9799 25.6439 15.0741 25.3051 15.219C24.9884 15.3495 24.6791 15.5161 24.4214 15.719C24.2151 15.8712 24.0531 16.0596 23.8911 16.219C23.6996 16.4582 23.5523 16.6756 23.4124 16.9292C23.3167 17.1103 23.2136 17.3132 23.1767 17.4871C23.1767 17.5016 23.162 17.5741 23.162 17.5886C23.1473 17.6393 23.1178 17.6828 23.1031 17.7335C23.0589 17.8712 23.0589 18.0161 23.0442 18.1538C23.0147 18.306 23.0147 18.4582 23 18.6103C23 18.6973 23.0221 18.777 23.0295 18.864C23.0295 18.9219 23.0221 18.9799 23.0295 19.0379C23.0516 19.2045 23.1031 19.364 23.1399 19.5161C23.1841 19.719 23.2357 19.9364 23.3535 20.1176C23.4419 20.335 23.5892 20.5886 23.7365 20.7553C23.8101 20.9292 23.9721 21.0451 24.112 21.1973C24.1268 21.2118 24.1341 21.2263 24.1489 21.248C24.3551 21.4944 24.6865 21.6393 24.9001 21.7915C24.9958 21.8132 25.0621 21.8712 25.1357 21.9147C25.2167 21.9654 25.3125 21.9799 25.4008 22.0089C25.4303 22.0161 25.4524 22.0379 25.4819 22.0524C25.5702 22.0886 25.666 22.0958 25.7691 22.1176C25.9164 22.1538 26.0784 22.219 26.2551 22.219C26.3877 22.248 26.5939 22.2915 26.7559 22.2553C27.0284 22.2843 27.2935 22.2118 27.566 22.1538C27.6544 22.1321 27.7501 22.1466 27.8311 22.0886C27.9342 22.0814 28.0373 22.0306 28.1478 21.9871C28.2583 21.9364 28.3761 21.9074 28.4866 21.8495C28.6486 21.7698 28.818 21.6321 28.9579 21.5958C29.0831 21.6538 29.0684 21.4437 29.1862 21.3712C29.2599 21.3422 29.2746 21.3712 29.3261 21.3785C29.3924 21.3495 29.4292 21.2915 29.4661 21.2335C29.525 21.1828 29.606 21.1756 29.6796 21.1031L29.6502 21.1248ZM28.4571 16.7987C28.4571 16.7987 28.4571 16.806 28.4571 16.8132C28.4277 16.8205 28.4277 16.7698 28.4571 16.7987ZM28.4719 16.7987C28.516 16.835 28.5897 16.8857 28.6044 16.9292C28.6118 16.9364 28.6191 16.9002 28.6412 16.9147C28.6412 16.9437 28.6633 16.9727 28.6928 17.0016C28.6633 17.0306 28.6265 16.9509 28.5897 16.9727C28.5676 16.9437 28.5602 16.9292 28.5381 16.9364C28.5013 16.8785 28.4719 16.8857 28.4498 16.835C28.4792 16.8277 28.4498 16.8132 28.4792 16.7987H28.4719Z" fill="white"/>
<path fill-rule="evenodd" clip-rule="evenodd" d="M20.4446 31.4844C20.4446 31.4844 20.4446 31.5206 20.4446 31.5423C20.4299 31.5351 20.4299 31.4989 20.4446 31.4844Z" fill="white"/>
<path fill-rule="evenodd" clip-rule="evenodd" d="M18.8468 32.1758C18.8468 32.1758 18.8541 32.2555 18.832 32.2482C18.832 32.212 18.8394 32.1975 18.8468 32.1758Z" fill="white"/>
<path fill-rule="evenodd" clip-rule="evenodd" d="M18.8015 32.2773C18.8015 32.2773 18.8015 32.3281 18.8015 32.3498C18.7867 32.3498 18.8015 32.2918 18.8015 32.2773Z" fill="white"/>
<path fill-rule="evenodd" clip-rule="evenodd" d="M18.9929 32.5938C18.9929 32.5938 19.0002 32.6517 18.9929 32.6662C18.9781 32.6662 18.9929 32.6155 18.9929 32.5938Z" fill="white"/>
<path fill-rule="evenodd" clip-rule="evenodd" d="M18.7507 32.7031C18.7507 32.7031 18.7654 32.7756 18.7507 32.8336C18.736 32.8118 18.7507 32.7538 18.7507 32.7031Z" fill="white"/>
<path fill-rule="evenodd" clip-rule="evenodd" d="M19.878 33.1367C19.878 33.1947 19.8927 33.3179 19.8633 33.3614C19.8854 33.2889 19.8633 33.2019 19.878 33.1367Z" fill="white"/>
<path fill-rule="evenodd" clip-rule="evenodd" d="M19.3697 33.2773C19.3992 33.3571 19.355 33.4947 19.3697 33.5962C19.3403 33.6107 19.3697 33.4513 19.3477 33.4223C19.3477 33.4005 19.355 33.3788 19.3624 33.3643C19.3624 33.3353 19.3477 33.3136 19.3624 33.2846L19.3697 33.2773Z" fill="white"/>
<path fill-rule="evenodd" clip-rule="evenodd" d="M19.2656 34.226C19.2656 34.226 19.2877 34.226 19.2877 34.255C19.2877 34.2622 19.273 34.2622 19.2656 34.2622V34.2188V34.226Z" fill="white"/>
<path fill-rule="evenodd" clip-rule="evenodd" d="M19.457 34.6172C19.4791 34.6752 19.4939 34.8201 19.4791 34.8998C19.4791 34.907 19.4939 34.907 19.4939 34.9288C19.4939 34.9723 19.4939 35.081 19.4939 34.9795C19.4718 34.8563 19.4791 34.7549 19.4644 34.6172H19.457Z" fill="white"/>
<path fill-rule="evenodd" clip-rule="evenodd" d="M19.1934 34.6758C19.1934 34.6758 19.2081 34.7193 19.2081 34.7482C19.1934 34.7482 19.1934 34.6903 19.1934 34.6758Z" fill="white"/>
<path fill-rule="evenodd" clip-rule="evenodd" d="M19.8917 34.7383C19.8917 34.7383 19.8917 34.7963 19.8991 34.8252C19.8917 34.8035 19.8844 34.76 19.8917 34.7383Z" fill="white"/>
<path fill-rule="evenodd" clip-rule="evenodd" d="M19.2891 34.7461C19.2891 34.7461 19.3038 34.8258 19.3112 34.8548C19.2891 34.8838 19.2891 34.7823 19.2891 34.7461Z" fill="white"/>
<path fill-rule="evenodd" clip-rule="evenodd" d="M19.2148 34.7969C19.2148 34.7969 19.2296 34.8766 19.2369 34.9201C19.2222 34.8911 19.2222 34.8404 19.2148 34.7969Z" fill="white"/>
<path fill-rule="evenodd" clip-rule="evenodd" d="M20.0254 34.832C20.0254 34.832 20.0401 34.8755 20.0475 34.8972C20.0328 34.8972 20.0328 34.8538 20.0254 34.832Z" fill="white"/>
<path fill-rule="evenodd" clip-rule="evenodd" d="M19.9004 34.8789C19.9004 34.8789 19.9151 35.0166 19.9225 35.0746C19.9078 35.0093 19.9004 34.9514 19.9004 34.8789Z" fill="white"/>
<path fill-rule="evenodd" clip-rule="evenodd" d="M19.2363 34.9414C19.2658 34.9921 19.2511 35.0718 19.2511 35.1153C19.2363 35.0646 19.2511 34.9994 19.2363 34.9414Z" fill="white"/>
<path fill-rule="evenodd" clip-rule="evenodd" d="M19.4863 35.0586C19.4863 35.0586 19.5011 35.1093 19.5084 35.1383C19.4863 35.1383 19.4937 35.0948 19.4863 35.0586Z" fill="white"/>
<path fill-rule="evenodd" clip-rule="evenodd" d="M19.4434 35.1523C19.4434 35.1523 19.4507 35.1958 19.4507 35.2321C19.436 35.2248 19.4507 35.1741 19.4434 35.1523Z" fill="white"/>
<path fill-rule="evenodd" clip-rule="evenodd" d="M19.3848 35.2461C19.3848 35.2461 19.4069 35.3331 19.3848 35.3186C19.3848 35.2968 19.3848 35.2968 19.3995 35.2968C19.3995 35.2751 19.3921 35.2751 19.3921 35.2461H19.3848Z" fill="white"/>
<path fill-rule="evenodd" clip-rule="evenodd" d="M19.8041 35.4205C19.8041 35.29 19.7746 35.377 19.8041 35.4205Z" fill="white"/>
<path fill-rule="evenodd" clip-rule="evenodd" d="M20.0098 35.5078C20.0245 35.544 20.0245 35.5803 20.0245 35.631C20.0172 35.602 20.0025 35.5296 20.0098 35.5078Z" fill="white"/>
<path fill-rule="evenodd" clip-rule="evenodd" d="M20.0469 35.5273C20.0469 35.5273 20.069 35.5853 20.0469 35.5708V35.5273Z" fill="white"/>
<path fill-rule="evenodd" clip-rule="evenodd" d="M20.3349 35.5859C20.3349 35.5859 20.3496 35.6294 20.3496 35.6439C20.3349 35.6439 20.3276 35.5932 20.3349 35.5859Z" fill="white"/>
<path fill-rule="evenodd" clip-rule="evenodd" d="M20.3333 35.8034C20.3333 35.8034 20.3701 35.8034 20.3112 35.8251C20.2817 35.8251 20.2522 35.8396 20.2302 35.8468H20.2228L20.348 35.8251V35.8178V35.8034C20.348 35.8034 20.3333 35.7671 20.3333 35.7454C20.3185 35.7092 20.3112 35.6802 20.2964 35.6512C20.2375 35.5352 20.1786 35.4773 20.1639 35.47C20.1491 35.4628 20.1786 35.4845 20.2449 35.586C20.2743 35.6367 20.3112 35.7092 20.3333 35.7961C20.3333 35.8613 20.3406 35.7961 20.3333 35.8106V35.8034Z" fill="white"/>
<path fill-rule="evenodd" clip-rule="evenodd" d="M20.2393 33.7188C20.2393 33.7188 20.2467 33.755 20.2614 33.7695C20.2393 33.7985 20.2614 33.8564 20.2467 33.8927C20.2246 33.8419 20.254 33.7912 20.2467 33.7188H20.2393Z" fill="white"/>
<path fill-rule="evenodd" clip-rule="evenodd" d="M19.7957 34.8113C19.7957 34.8113 19.7883 34.8331 19.7957 34.862C19.7883 34.862 19.7883 34.8548 19.781 34.8548C19.781 34.9055 19.7883 34.9345 19.7883 34.9707C19.7883 34.9707 19.781 34.9635 19.7736 34.9635C19.8031 35.0142 19.7662 35.0867 19.7883 35.2026C19.7515 35.0939 19.7589 34.8475 19.7441 34.7461C19.7662 34.7606 19.7441 34.8475 19.7736 34.8548C19.7883 34.8548 19.7736 34.7968 19.7957 34.8186V34.8113Z" fill="white"/>
<path fill-rule="evenodd" clip-rule="evenodd" d="M19.3021 34.9441C19.3168 34.9441 19.3021 34.9875 19.3021 34.9948C19.2873 34.9803 19.2873 34.8499 19.3021 34.9441Z" fill="white"/>
<path fill-rule="evenodd" clip-rule="evenodd" d="M19.4279 35.689H19.4058C19.4132 35.7542 19.4353 35.8556 19.4206 35.9064C19.3911 35.8339 19.4132 35.6672 19.369 35.6165C19.369 35.5948 19.369 35.5875 19.369 35.5658C19.3175 35.3919 19.3396 35.1962 19.3027 35.0078C19.369 35.0875 19.3027 35.2832 19.369 35.3701C19.369 35.3846 19.369 35.3701 19.369 35.3629C19.3764 35.4426 19.3764 35.5948 19.4279 35.6962V35.689Z" fill="white"/>
<path fill-rule="evenodd" clip-rule="evenodd" d="M20.0908 35.5508C20.0908 35.5508 20.1055 35.587 20.1203 35.6088C20.1203 35.616 20.0835 35.5725 20.0908 35.5508Z" fill="white"/>
<path fill-rule="evenodd" clip-rule="evenodd" d="M30.8945 27.4929C30.8945 27.4929 30.9534 27.5364 30.9681 27.5726C31.0049 27.6523 31.027 27.7248 31.0786 27.7973C31.1228 27.8625 31.1817 27.9132 31.2259 27.9784C31.2627 28.0292 31.2701 28.0509 31.2921 28.0871C31.3511 28.1958 31.3732 28.2973 31.4394 28.3263C31.4984 28.3987 31.5573 28.4929 31.6162 28.5581C31.6235 28.5654 31.6309 28.5944 31.6383 28.5944C31.7561 28.7755 31.9181 28.877 32.0212 29.1161C32.0581 29.1306 32.1022 29.1379 32.1538 29.1813C32.1759 29.1958 32.1906 29.2393 32.2127 29.2538C32.2864 29.2973 32.36 29.2393 32.4336 29.3335C32.4484 29.3335 32.4557 29.319 32.4631 29.3118C32.5957 29.2973 32.6988 29.2465 32.8019 29.261C32.8461 29.1813 32.9197 29.1886 32.9639 29.1234C32.9934 29.0799 33.0154 29.0074 33.0375 28.9567C33.067 28.8987 33.0817 28.8335 33.1186 28.7828C33.1554 28.7828 33.1554 28.7031 33.1848 28.6886C33.1922 28.6016 33.2143 28.5292 33.2217 28.435C33.2364 28.4205 33.2364 28.3987 33.2511 28.3987C33.2953 28.2031 33.2953 27.9929 33.2364 27.7248C33.229 27.6958 33.2143 27.6379 33.2069 27.6234C33.148 27.435 33.0449 27.1379 33.0302 27.0219C33.0154 26.9857 33.0081 26.9929 32.9934 26.9567C33.0081 26.9277 32.9934 26.8045 32.9492 26.7176C32.9344 26.6886 32.8755 26.6523 32.8313 26.5944C32.7724 26.5002 32.7651 26.3842 32.6914 26.3118C32.6619 26.2755 32.603 26.2538 32.5736 26.2176C32.4852 26.1306 32.3379 25.9205 32.279 25.8335C32.2348 25.761 32.2348 25.7176 32.1833 25.6813C32.1391 25.6451 32.0875 25.6306 32.0581 25.6668C31.8666 25.6234 31.6309 25.261 31.3879 25.1668C31.2553 25.0364 31.0786 24.9857 30.9386 24.8842C30.9092 24.8625 30.8797 24.8407 30.8429 24.8263C30.7914 24.7973 30.7103 24.7828 30.6441 24.7538C30.5262 24.7103 30.4231 24.6523 30.32 24.6234C30.1875 24.5147 30.0549 24.5364 29.9297 24.4857C29.8855 24.4712 29.8413 24.435 29.7898 24.4205C29.7456 24.406 29.694 24.406 29.6498 24.3842C29.5983 24.3697 29.5541 24.3407 29.5026 24.3335C29.4657 24.3263 29.4363 24.3335 29.4068 24.319C29.37 24.3118 29.3479 24.29 29.3037 24.2828C29.2595 24.2755 29.2153 24.2828 29.1712 24.2828C29.0091 24.2465 28.8398 24.2176 28.6851 24.2321C28.42 24.1596 28.1769 24.2031 27.8603 24.1523C27.7793 24.1596 27.7203 24.1668 27.6393 24.1596C27.6172 24.1596 27.6246 24.1741 27.5951 24.1741C27.4258 24.1523 27.2564 24.2176 27.087 24.2031C27.087 24.2031 27.0723 24.2176 27.0649 24.2176C26.9471 24.2176 26.8145 24.2176 26.6819 24.2393C26.6525 24.2393 26.623 24.2465 26.5862 24.2538C26.5715 24.2538 26.5641 24.2538 26.5567 24.261C26.5346 24.261 26.5126 24.2683 26.4831 24.2755C26.3432 24.2538 26.1811 24.29 26.0118 24.2973C25.9308 24.2973 25.8497 24.29 25.7761 24.2973C25.6288 24.3263 25.4373 24.3335 25.29 24.3625C25.2459 24.3697 25.209 24.3915 25.1648 24.3987C25.0912 24.4132 25.0102 24.3987 24.9292 24.4277C24.6272 24.5292 24.2664 24.5654 24.0086 24.6596C23.9276 24.6886 23.8613 24.7248 23.7729 24.761C23.6257 24.8118 23.4563 24.848 23.3163 24.9205C23.3016 24.9277 23.2353 24.9712 23.2132 24.9784C23.1249 25.0219 23.0365 25.0509 22.9481 25.0871C22.7272 25.2031 22.5283 25.3552 22.3074 25.4494C22.0791 25.6451 21.7182 25.8842 21.4678 26.1234C21.431 26.1958 21.3574 26.2248 21.2985 26.2828C21.1364 26.4639 21.0039 26.6161 20.7608 26.8915C20.1128 27.7393 19.612 28.7176 19.3469 29.6886C19.3027 29.7538 19.2732 29.877 19.2732 29.9494C19.2585 29.9567 19.2437 30.0074 19.229 30.0364C19.229 30.1668 19.1554 30.3118 19.1259 30.4639C19.148 30.5074 19.1038 30.5944 19.1185 30.6596C19.0965 30.6813 19.1112 30.6234 19.0891 30.6596C19.1259 30.7683 19.0228 31.1016 19.0154 31.2538C19.0154 31.2465 19.0302 31.2393 19.0228 31.2538C19.0007 31.29 19.0228 31.3118 19.0228 31.348C18.9786 31.6234 19.0154 31.8263 19.0081 32.0654C18.9934 32.0944 18.9639 32.1668 18.9786 32.1958C18.986 32.1523 18.9934 32.1016 19.0154 32.1089C19.0007 32.1813 19.0007 32.2683 19.0154 32.319C19.0154 32.406 18.986 32.4494 19.0007 32.5292C19.0007 32.5509 19.0302 32.5147 19.0228 32.5509C19.0007 32.6741 19.0228 32.7321 18.9934 32.8407C19.0154 32.877 19.0081 33.0002 18.9934 33.0364C19.0007 33.0726 19.0154 33.0002 19.0228 33.0292C19.0228 33.1306 19.0302 33.2176 19.0081 33.3118C19.0154 33.3335 19.0302 33.348 19.0375 33.3842C19.0375 33.406 19.0154 33.377 19.0228 33.4132C19.0375 33.4494 19.0449 33.3842 19.067 33.3987C19.067 33.4494 19.0891 33.4422 19.1038 33.4639C19.0891 33.5292 19.1185 33.5799 19.1259 33.6378C19.1333 33.7031 19.1259 33.7755 19.1259 33.8335C19.1259 33.8842 19.148 33.906 19.148 33.9712C19.148 34.0219 19.1259 34.0581 19.1333 34.1161C19.1333 34.1451 19.1554 34.0944 19.1554 34.1378C19.1554 34.3263 19.1775 34.5147 19.2143 34.6523C19.1701 34.4422 19.2069 34.2828 19.1701 34.0944C19.1922 34.0654 19.1554 34.0074 19.1848 33.9857C19.1701 33.9712 19.1627 34.0147 19.1627 33.9712C19.1627 33.9567 19.1701 33.9494 19.1627 33.9277C19.1922 33.9567 19.1922 33.9132 19.2143 33.8987C19.2143 33.761 19.2143 33.5944 19.2143 33.4784C19.2143 33.4494 19.1996 33.4929 19.1922 33.4639C19.1922 33.3915 19.1922 33.4132 19.1922 33.3118C19.2143 33.2973 19.229 33.2538 19.2511 33.2755C19.2364 33.4567 19.2732 33.7103 19.2732 33.935C19.2732 34.0002 19.2511 34.0726 19.2879 34.1089C19.2806 34.0074 19.3174 33.9277 19.3174 33.848C19.3174 33.7393 19.2953 33.6161 19.3027 33.5074C19.3027 33.4784 19.3174 33.4639 19.3174 33.435C19.3174 33.4132 19.3027 33.377 19.31 33.3552C19.31 33.3263 19.3248 33.3263 19.3248 33.3045C19.3248 33.261 19.31 33.2248 19.31 33.1741C19.31 33.0871 19.3395 33.0074 19.3395 32.9132C19.3469 32.8987 19.3763 32.906 19.3763 32.9277C19.3689 33.0364 19.3689 33.0581 19.3616 33.1741C19.3616 33.1596 19.3689 33.1523 19.3763 33.1523C19.3763 33.1886 19.3689 33.1958 19.3763 33.2248C19.3763 33.1379 19.4205 33.1523 19.4352 33.1813C19.4131 33.3915 19.4279 33.6451 19.4058 33.819C19.4131 33.8407 19.4279 33.848 19.4352 33.8842C19.45 34.0799 19.4352 34.29 19.4573 34.5002C19.4794 34.261 19.4573 34.0219 19.4573 33.7465C19.4573 33.7393 19.4794 33.7465 19.472 33.7176C19.4573 33.6016 19.472 33.4639 19.472 33.377L19.5457 33.261C19.5457 32.9712 19.6562 32.7755 19.6783 32.5002C19.693 32.5002 19.7003 32.4857 19.7151 32.4784C19.7224 32.5002 19.7445 32.5147 19.7519 32.5436C19.7519 32.5871 19.7519 32.6306 19.7372 32.6741C19.7666 32.906 19.7077 33.2248 19.7224 33.5074C19.7445 33.5436 19.7666 33.5147 19.7887 33.4929C19.8108 33.3552 19.7814 33.2321 19.8182 33.0871C19.8845 33.0364 19.9213 33.0944 19.9213 33.2031C19.9139 33.3987 19.8992 33.6523 19.8918 33.819C19.9213 34.3552 19.9213 34.8915 20.0023 35.4277C19.9876 35.1306 19.936 34.848 19.9507 34.5726C19.936 34.5726 19.936 34.5654 19.936 34.5436C19.936 34.2755 19.936 33.9784 19.9139 33.7393C19.9581 33.6379 19.9139 33.4494 19.9581 33.348C20.017 33.377 20.0391 33.4567 20.0538 33.5581C20.0538 33.4567 20.0759 33.3552 20.0833 33.2683C20.0833 33.1958 20.0833 33.0726 20.0907 33.0364C20.0907 33.0292 20.1054 33.0436 20.1054 33.0292C20.1054 33.0581 20.1054 32.9784 20.1054 32.9712C20.1054 32.935 20.098 32.935 20.1054 32.8915C20.1128 32.8335 20.1128 32.8335 20.1275 32.7973C20.1496 32.5944 20.157 32.3915 20.1938 32.1958C20.1938 32.1668 20.2011 32.1378 20.2011 32.1306C20.2011 32.1089 20.2159 32.1306 20.2232 32.1016C20.2232 32.0871 20.2159 32.0944 20.2232 32.0726C20.238 31.9929 20.2601 31.906 20.2674 31.8263C20.2895 31.6306 20.3558 31.406 20.3779 31.2465C20.3853 31.2103 20.4 31.261 20.4073 31.2176C20.481 30.9494 20.5546 30.6741 20.643 30.3915C20.6504 30.3697 20.6651 30.3915 20.6725 30.3625C20.6872 30.3263 20.6577 30.3263 20.6725 30.29C20.6872 30.2683 20.7019 30.2538 20.7167 30.2465C20.8419 29.935 20.9376 29.6161 21.0628 29.2973C21.188 29.0074 21.3353 28.7321 21.4826 28.4784C21.6151 28.29 21.7035 28.0799 21.8508 27.9422C22.0055 27.7103 22.1748 27.5436 22.3442 27.3625C22.4768 27.2393 22.6388 27.1161 22.7493 27.0074C22.7714 26.9929 22.7861 26.9639 22.8156 26.9422C22.8524 26.9132 22.9039 26.906 22.9407 26.877C23.0439 26.8045 23.1322 26.7103 23.2501 26.6523C23.3753 26.5871 23.4931 26.5147 23.6183 26.4567C23.6919 26.4277 23.7508 26.3842 23.8245 26.348C23.854 26.3335 23.9423 26.3045 23.9791 26.2973C24.1117 26.2248 24.2664 26.1741 24.3989 26.1306C24.583 26.0726 24.7892 26.0509 24.9734 25.9857C25.1869 25.9422 25.4594 25.9205 25.673 25.8842C25.8497 25.8987 26.0265 25.848 26.2253 25.8552C26.2474 25.8552 26.2622 25.8625 26.2843 25.8625C26.3579 25.8625 26.4389 25.8625 26.5126 25.8625C26.6525 25.8625 26.8366 25.8335 26.8734 25.819C27.006 25.7973 27.1459 25.7755 27.2637 25.7828C27.3521 25.7538 27.4258 25.7828 27.5068 25.7828C27.5951 25.7828 27.6762 25.7755 27.7645 25.7683C27.794 25.7683 27.8161 25.7755 27.8455 25.7828C27.9339 25.79 28.0149 25.7828 28.1107 25.7828C28.2506 25.7828 28.3905 25.848 28.5525 25.848C28.6777 25.877 28.8397 25.9422 28.9797 25.9494C29.2006 26.0292 29.4215 26.0799 29.6351 26.1741C29.7014 26.2176 29.753 26.2683 29.834 26.2828C29.8929 26.348 29.996 26.3625 30.0623 26.4205C30.1138 26.4639 30.2243 26.5509 30.2832 26.6016C30.401 26.6741 30.5189 26.7973 30.5631 26.8987C30.5041 27.0147 30.7103 26.9422 30.7619 27.0509C30.7766 27.1161 30.7472 27.1306 30.7251 27.1741C30.7398 27.2248 30.7766 27.2538 30.8134 27.29C30.8355 27.3407 30.8134 27.406 30.865 27.4639L30.8945 27.4929ZM19.1333 33.0654C19.1333 33.0654 19.1259 33.0654 19.1185 33.0726C19.0965 33.0509 19.1333 33.0002 19.1333 33.0654ZM19.1406 33.0871C19.1406 33.1741 19.1554 33.2973 19.1406 33.3552C19.1406 33.3697 19.1701 33.3407 19.1775 33.3697C19.1627 33.406 19.148 33.4494 19.148 33.5147C19.1038 33.5147 19.1333 33.3915 19.0965 33.3842C19.0965 33.3335 19.1038 33.3118 19.0891 33.29C19.1112 33.1886 19.0891 33.1668 19.1038 33.0944C19.1259 33.1161 19.1259 33.0799 19.1554 33.0944L19.1406 33.0871Z" fill="white"/>
</g>
<defs>
<clipPath id="clip0_868_3587">
<rect width="42" height="39" fill="white" transform="translate(14 15)"/>
</clipPath>
</defs>
</svg>
