<svg width="70" height="70" viewBox="0 0 70 70" fill="none" xmlns="http://www.w3.org/2000/svg">
<g clip-path="url(#clip0_868_2979)">
<path fill-rule="evenodd" clip-rule="evenodd" d="M46.2203 45.4999C46.1505 45.5069 46.0388 45.5069 45.9062 45.5069C45.9411 45.4928 46.1156 45.4858 46.2203 45.4999Z" fill="white"/>
<path fill-rule="evenodd" clip-rule="evenodd" d="M41.2937 44.125C41.1472 44.125 40.6936 44.1462 40.7285 44.125C40.9867 44.125 41.1053 44.125 41.2937 44.125Z" fill="white"/>
<path fill-rule="evenodd" clip-rule="evenodd" d="M40.4854 44.088C40.4854 44.088 40.2342 44.088 40.0597 44.088C40.0597 44.1434 40.0597 44.1849 40.0597 44.2263C40.0597 44.2194 40.0527 44.1572 40.0527 44.0742C40.1993 44.0742 40.4156 44.0742 40.4923 44.0742L40.4854 44.088Z" fill="white"/>
<path fill-rule="evenodd" clip-rule="evenodd" d="M40.2622 45.8438C40.2693 45.9198 40.2765 46.1203 40.2622 46.2102C40.2479 46.1826 40.2622 45.9544 40.2622 45.8438Z" fill="white"/>
<path fill-rule="evenodd" clip-rule="evenodd" d="M40.0371 46.5156C40.0514 46.6401 40.0514 46.8545 40.0514 47.1449C40.0371 47.0412 40.0371 46.7438 40.0371 46.5156Z" fill="white"/>
<path fill-rule="evenodd" clip-rule="evenodd" d="M41.1399 48.3272C41.1399 48.4863 41.1399 48.7283 41.1471 48.9565C41.1471 49.074 41.1471 49.1847 41.1471 49.2815C41.1471 49.3921 41.1471 49.4889 41.1328 49.6134C41.1328 49.1294 41.1328 48.756 41.1328 48.3203L41.1399 48.3272Z" fill="white"/>
<path fill-rule="evenodd" clip-rule="evenodd" d="M40.6591 49.1797C40.68 49.4701 40.666 49.9611 40.666 50.3967C40.5125 50.3967 40.366 50.3967 40.2055 50.3967C40.1567 50.3829 40.4009 50.3829 40.6591 50.3898C40.6591 50.1893 40.6591 49.9887 40.6521 49.9196C40.6521 49.8089 40.6591 49.7121 40.666 49.6084C40.666 49.4632 40.6451 49.3249 40.666 49.1797H40.6591Z" fill="white"/>
<path fill-rule="evenodd" clip-rule="evenodd" d="M36.9044 50.2695C36.9044 50.2695 36.8765 50.2907 36.7439 50.2907C36.7021 50.2907 36.6881 50.2766 36.6951 50.2695H36.9044Z" fill="white"/>
<path fill-rule="evenodd" clip-rule="evenodd" d="M34.8595 50.4184C34.5386 50.4396 33.7989 50.4325 33.3872 50.4043C33.3314 50.4043 33.3314 50.4184 33.2267 50.4114C32.9825 50.4114 32.4382 50.3973 32.9685 50.4043C33.6663 50.4043 34.1269 50.4114 34.8595 50.4184Z" fill="white"/>
<path fill-rule="evenodd" clip-rule="evenodd" d="M34.6159 50.159C34.5392 50.159 34.4066 50.1661 34.2461 50.159C34.288 50.1449 34.5531 50.1449 34.6159 50.159Z" fill="white"/>
<path fill-rule="evenodd" clip-rule="evenodd" d="M34.1132 50.8117C34.0574 50.8258 33.7852 50.8117 33.6387 50.8117C33.7433 50.8117 33.9945 50.8047 34.1132 50.8117Z" fill="white"/>
<path fill-rule="evenodd" clip-rule="evenodd" d="M34.2255 50.2433C34.0999 50.2574 33.8069 50.2433 33.6464 50.2574C33.4998 50.2363 34.0301 50.2433 34.2255 50.2433Z" fill="white"/>
<path fill-rule="evenodd" clip-rule="evenodd" d="M33.9885 50.1664C33.8838 50.1805 33.5838 50.1664 33.3535 50.1664C33.4861 50.1523 33.7792 50.1664 33.9885 50.1664Z" fill="white"/>
<path fill-rule="evenodd" clip-rule="evenodd" d="M33.6042 50.9219C33.6042 50.9219 33.3809 50.936 33.2344 50.936C33.2693 50.9219 33.4786 50.9289 33.6042 50.9219Z" fill="white"/>
<path fill-rule="evenodd" clip-rule="evenodd" d="M33.3818 50.7961C33.2074 50.8102 32.6212 50.7961 32.3281 50.7961C32.698 50.7891 32.9771 50.7961 33.3818 50.7961Z" fill="white"/>
<path fill-rule="evenodd" clip-rule="evenodd" d="M33.2487 50.1762C32.9765 50.1973 32.5857 50.1762 32.3555 50.1691C32.6067 50.1621 32.9626 50.1903 33.2487 50.1762Z" fill="white"/>
<path fill-rule="evenodd" clip-rule="evenodd" d="M32.5507 50.3952C32.446 50.4023 32.2716 50.3952 32.125 50.4023C32.0971 50.3811 32.3693 50.3952 32.5507 50.3952Z" fill="white"/>
<path fill-rule="evenodd" clip-rule="evenodd" d="M32.0906 50.3422C31.965 50.3563 31.8533 50.3422 31.6719 50.3422C31.7137 50.3281 31.965 50.3422 32.0906 50.3422Z" fill="white"/>
<path fill-rule="evenodd" clip-rule="evenodd" d="M31.636 50.2719C31.5802 50.286 31.1824 50.279 31.2732 50.2578C31.3848 50.2578 31.3709 50.2649 31.3709 50.2719C31.4965 50.2719 31.4895 50.2649 31.636 50.2719Z" fill="white"/>
<path fill-rule="evenodd" clip-rule="evenodd" d="M30.5273 50.6428C31.2321 50.664 30.7855 50.6217 30.5273 50.6428Z" fill="white"/>
<path fill-rule="evenodd" clip-rule="evenodd" d="M29.9475 50.8164C29.7312 50.8235 29.5149 50.8164 29.2637 50.8164C29.4242 50.8164 29.8428 50.8164 29.9475 50.8164Z" fill="white"/>
<path fill-rule="evenodd" clip-rule="evenodd" d="M29.7879 50.8438C29.8646 50.8579 29.439 50.8579 29.5227 50.8438H29.7879Z" fill="white"/>
<path fill-rule="evenodd" clip-rule="evenodd" d="M29.2839 51.1004C29.2071 51.1075 29.0466 51.1075 28.9141 51.1004C28.9559 51.0863 29.2211 51.0863 29.2839 51.1004Z" fill="white"/>
<path fill-rule="evenodd" clip-rule="evenodd" d="M27.8269 51.0598C27.3873 51.0809 27.2338 51.0527 27.8269 51.0598Z" fill="white"/>
<path fill-rule="evenodd" clip-rule="evenodd" d="M39.6686 51.2132C39.4942 51.2132 39.4383 51.2203 39.3546 51.2273C39.1941 51.2062 38.8941 51.2203 38.6777 51.2062C38.9638 51.185 39.1941 51.2203 39.6686 51.2062V51.2132Z" fill="white"/>
<path fill-rule="evenodd" clip-rule="evenodd" d="M33.7708 50.7143C33.6452 50.7143 33.6592 50.7005 33.5126 50.7074C33.4987 50.7005 33.5615 50.7005 33.5685 50.6935C33.3033 50.6935 33.1568 50.6935 32.9404 50.6935C32.9684 50.6935 32.9963 50.6866 32.9963 50.6797C32.7032 50.7005 32.3543 50.659 31.7402 50.659C32.3334 50.6382 33.6382 50.6728 34.1546 50.6728C34.0779 50.6935 33.6243 50.6728 33.5685 50.6866C33.5545 50.7005 33.8615 50.6866 33.7708 50.7143Z" fill="white"/>
<path fill-rule="evenodd" clip-rule="evenodd" d="M33.2281 50.2367C33.2001 50.2367 33.1653 50.2367 33.2281 50.2367C33.2141 50.2508 32.9978 50.2367 32.9629 50.2367C33.0257 50.2226 33.7165 50.2367 33.2281 50.2367Z" fill="white"/>
<path fill-rule="evenodd" clip-rule="evenodd" d="M29.3327 50.2445V50.2238C29.0047 50.2238 28.4674 50.2238 28.2441 50.1961C28.6419 50.1892 29.4862 50.2307 29.7653 50.203C29.8561 50.203 29.9328 50.2099 30.0235 50.2168C30.9516 50.1961 31.9495 50.2445 32.9124 50.2307C32.4798 50.2791 31.5029 50.1961 31.0144 50.2445C30.9376 50.2445 31.0144 50.2445 31.0702 50.2445C30.6446 50.2445 29.884 50.2168 29.3327 50.2445Z" fill="white"/>
<path fill-rule="evenodd" clip-rule="evenodd" d="M29.6687 50.8868C29.5501 50.8868 29.4664 50.8938 29.3477 50.9009C29.2989 50.9009 29.5641 50.8727 29.6687 50.8868Z" fill="white"/>
<path fill-rule="evenodd" clip-rule="evenodd" d="M19.3272 46.1013C19.5435 46.1013 19.8435 46.0944 20.0668 46.0875C20.646 46.0875 21.1624 46.1152 21.7415 46.1083C22.23 46.1013 22.7813 46.0875 23.2767 46.0806C23.6535 46.0806 23.8 46.0737 24.0722 46.0668C24.8467 46.0529 25.4817 46.0668 25.8237 46.0184C25.9702 46.0184 26.1098 46.0045 26.2493 45.9976H26.4726C26.5145 45.9838 26.5075 45.9838 26.5215 45.9769C26.5843 45.963 26.6471 45.9492 26.7029 45.9354V45.9838L26.7308 46.0668L26.7448 46.1152C26.7448 46.1152 26.7587 46.1221 26.7587 46.212C26.7797 46.4609 26.8006 46.7237 26.8215 46.9795C26.8634 47.4912 26.8983 48.0306 26.9192 48.7359C26.9471 48.8604 26.989 48.9434 27.0239 49.1854C27.0378 49.296 27.0448 49.5381 27.0588 49.6141C27.1146 49.9045 27.1983 49.6487 27.2402 50.188C27.2542 50.2157 27.2611 50.1189 27.2751 50.0912C27.4007 50.112 27.5054 49.8976 27.6031 50.029C27.6659 49.6625 27.7287 49.7455 27.7915 49.4551C27.8263 49.2753 27.8682 48.9295 27.9031 48.7013C27.945 48.4317 27.9799 48.2173 28.0148 47.9545C28.0496 47.9545 28.0636 47.6226 28.0985 47.5604C28.1334 47.1939 28.1613 46.8067 28.1962 46.4402C28.2101 46.3987 28.2171 46.3019 28.2311 46.295C28.266 45.6588 28.3078 44.988 28.3497 44.3311C27.4286 44.2966 26.5703 44.262 25.7469 44.2343C25.6353 44.2343 25.405 44.2343 25.2794 44.2274C24.3932 44.2274 23.0325 44.1998 22.5719 44.1444C22.4114 44.1444 22.4114 44.1444 22.2579 44.1444C22.1602 44.1168 21.6857 44.0684 21.281 44.0684C21.1414 44.0684 20.8972 44.096 20.5902 44.1029C20.1296 44.1029 19.697 44.0615 19.2853 44.0684C19.0969 44.0684 18.8945 44.096 18.6991 44.1029C18.4409 44.1029 18.0502 44.1029 17.6734 44.1029C17.1361 44.096 16.6057 44.0891 16.2778 44.0822C15.8172 44.0684 15.4055 44.0545 15.1055 44.0476C15.1055 44.1375 15.1055 44.2205 15.1055 44.3311C15.1055 44.7944 15.1334 45.154 15.1752 45.1263C15.1822 45.3407 15.1962 45.5274 15.2032 45.6934C15.2032 45.887 15.2101 46.0668 15.2171 46.2466C15.2171 46.5301 15.2171 46.8274 15.2171 47.1455C15.2171 47.7817 15.2101 48.4662 15.2241 48.9779C15.1962 49.7317 15.245 50.4439 15.2381 51.163C15.2381 51.2944 15.2311 51.4881 15.2241 51.6263C15.2241 51.9375 15.2381 52.4285 15.245 52.8434C15.245 53.2513 15.245 53.6248 15.252 53.9843C15.7823 53.9843 16.2708 53.9774 16.7941 53.9705C17.0802 53.9774 17.2686 53.9843 17.4361 53.9912C17.5896 53.9912 17.7292 53.9912 17.8827 53.9912C18.1688 53.9843 18.4409 53.9705 18.734 53.9705C18.9364 53.9705 19.1876 53.9843 19.4109 53.9843C19.6063 53.9843 19.8296 53.9774 20.0459 53.9705C20.2552 53.9705 20.5274 53.9843 20.7228 53.9843C20.8763 53.9843 21.0228 53.9843 21.1484 53.9774C21.3089 53.9774 21.4485 53.9843 21.6159 53.9912C21.7764 53.9912 22.0346 53.9774 22.2021 53.9705C22.9138 53.9636 23.6884 53.9843 24.3583 53.9428C25.5794 53.9774 26.6401 53.9221 28.0776 53.9567C28.4404 53.9498 28.6986 53.9428 29.0754 53.9498C29.1591 53.9498 29.1591 53.9359 29.2917 53.9359C30.0384 53.9498 30.8269 53.9083 31.6014 53.929C31.6294 53.929 31.6573 53.9152 31.7131 53.9152C32.7807 53.9359 34.1275 53.9428 34.9648 53.9152C35.6138 53.9428 36.3674 53.9152 37.1699 53.9152C37.5397 53.9152 37.9095 53.9152 38.2724 53.9221C38.9842 53.9221 39.8564 53.9221 40.5263 53.9221C40.7007 53.9221 40.938 53.9083 41.1124 53.9013C41.4683 53.9013 41.8242 53.9013 42.215 53.9013C43.6524 53.8737 45.3132 53.8944 46.5692 53.8944C46.9391 53.8875 47.3019 53.8806 47.7276 53.8737C48.4603 53.8737 49.1999 53.8806 49.9257 53.8875C50.0931 53.8875 50.2955 53.8806 50.456 53.8737C50.8956 53.8737 51.3073 53.8737 51.7678 53.8737C52.4098 53.8737 53.0588 53.8737 53.7077 53.8668C53.7077 53.2721 53.7077 52.6843 53.7007 52.1035C53.7007 51.7646 53.7007 51.4327 53.7077 51.0801C53.6728 49.7455 53.6868 47.7955 53.6798 46.2396C53.6519 45.887 53.6798 45.5551 53.6728 45.1955C53.6589 44.0822 53.631 42.6646 53.6519 41.496C53.6379 39.2003 53.631 36.8907 53.617 34.5742C52.0818 34.5742 50.5397 34.5811 49.0046 34.588C49.0185 36.545 49.0255 38.4811 49.0394 40.4104C49.0185 40.7907 49.0325 41.3785 49.0394 41.7104C49.0255 41.7795 49.0255 42.0077 49.0255 42.1737C49.0394 42.4779 49.0464 42.8168 49.0394 43.1833C49.0394 43.4253 49.0394 43.6742 49.0394 43.937C49.0534 43.9785 49.0534 44.0407 49.0604 44.1099C48.9697 44.1099 48.865 44.1099 48.7882 44.1237C48.7254 44.1029 48.858 44.1099 48.7603 44.096C48.7324 44.1029 48.6975 44.1099 48.6557 44.1168H48.5789L48.4044 44.1306C48.1532 44.1306 47.8741 44.1306 47.588 44.1375C47.0089 44.1375 46.4157 44.1375 46.018 44.1444C46.0738 44.1444 46.0808 44.1513 46.018 44.1513C45.8365 44.1375 45.7458 44.1652 45.5435 44.1652C44.1618 44.1652 43.1779 44.2274 42.0056 44.2482C41.9289 44.2482 41.7823 44.2343 41.6637 44.2343C41.4823 44.2343 41.2869 44.2343 41.1962 44.2343C41.3427 44.2343 41.5032 44.2343 41.6428 44.2343C41.7335 44.2343 41.7963 44.2412 41.7893 44.2551C41.5521 44.2551 41.3078 44.2551 41.0496 44.2551C40.7845 44.2551 40.5542 44.2689 40.4007 44.2758C40.3449 44.2758 40.2821 44.2758 40.2402 44.2758C40.2402 44.7668 40.2332 45.0641 40.2472 45.5412C40.2472 45.6657 40.2751 45.4237 40.2751 45.6865C40.2751 46.3226 40.2751 46.5646 40.2751 47.1386C40.296 47.2976 40.303 47.9338 40.296 48.1343C40.303 48.3141 40.317 47.9407 40.3239 48.0928C40.3239 48.3418 40.3239 48.5838 40.3309 48.812C40.3309 48.9295 40.3309 49.0402 40.3309 49.1577C40.3309 49.2476 40.3309 49.3444 40.3239 49.4482C40.3379 49.5311 40.3518 49.5865 40.3518 49.7248C40.3518 49.8146 40.3309 49.6833 40.3379 49.8285C40.3518 49.9668 40.3588 49.7455 40.3798 49.787C40.3867 49.9806 40.4007 49.9529 40.4146 50.0636C40.4146 50.0912 40.4146 50.1189 40.4146 50.1396C40.1774 50.1327 40.0239 50.1535 39.7936 50.1604C39.4587 50.1604 39.1586 50.1604 38.8376 50.1604C38.5655 50.1604 38.4538 50.1811 38.1468 50.1742C37.9165 50.1673 37.6723 50.1604 37.4141 50.1466C37.2676 50.1466 37.5118 50.1673 37.3025 50.1673C36.3395 50.1673 35.3765 50.1535 34.6648 50.1811C35.7534 50.1535 36.5488 50.2088 37.5048 50.1811C37.6514 50.2019 37.9375 50.1742 38.077 50.2019C38.1398 50.188 37.9235 50.1811 38.1328 50.1811C38.2026 50.1811 38.2305 50.188 38.3422 50.188C38.2096 50.2157 38.405 50.2157 38.4887 50.2365C39.2493 50.2365 39.8564 50.2365 40.5054 50.2434V50.2226C40.5054 50.1051 40.4914 50.2849 40.4844 50.1535C40.4844 49.9184 40.4844 49.7593 40.4774 49.4689C40.4984 49.3998 40.5054 49.1923 40.5333 49.3029C40.5333 49.5934 40.5333 49.9184 40.5403 50.2779C39.8215 50.2779 39.0121 50.2779 38.3073 50.2779C37.9654 50.2779 37.6095 50.2503 37.4141 50.2779C37.9235 50.2779 38.3282 50.3125 38.7678 50.3194C39.3191 50.3194 39.9401 50.3194 40.4844 50.3194C40.5263 50.3194 40.5612 50.3194 40.5961 50.3194C40.5961 50.2365 40.5961 50.1604 40.6031 50.0774C40.6031 49.9806 40.5891 49.7662 40.5891 49.6556C40.5891 49.5242 40.6031 49.5173 40.6031 49.4067C40.6031 49.1923 40.5891 48.9641 40.5821 48.729C40.5821 48.3003 40.5891 47.8646 40.5961 47.3806C40.6031 47.2907 40.624 47.3322 40.631 47.4428C40.631 48.0099 40.631 48.1067 40.631 48.6944C40.631 48.6322 40.631 48.5907 40.6449 48.5976C40.6449 48.7774 40.6379 48.8396 40.6449 48.9641C40.6449 48.5285 40.6798 48.57 40.7007 48.7221C40.7007 49.2684 40.7007 49.863 40.7007 50.4439C40.0588 50.437 39.4517 50.4232 38.9423 50.4162C38.8446 50.4232 38.7818 50.437 38.6213 50.4439C37.5955 50.437 36.507 50.4301 35.4184 50.4162C36.6465 50.4577 37.9305 50.4577 39.354 50.4646C39.4098 50.4646 39.3679 50.4854 39.5075 50.4785C39.9262 50.4785 40.3518 50.4785 40.7426 50.4785C40.7426 50.1881 40.7426 49.9322 40.7426 49.7109C40.7635 49.4966 40.7845 49.2822 40.8124 49.0609C40.8054 48.321 40.8194 47.6779 40.8403 47.0487C40.8473 46.7306 40.8612 46.4056 40.8682 46.0944C40.8682 45.804 40.8752 45.5274 40.8822 45.237C40.8961 45.2508 40.9031 45.1748 40.9101 45.1471C40.924 45.2232 40.938 45.32 40.952 45.3891C40.952 45.4652 40.952 45.5482 40.952 45.6242C40.952 45.7279 40.952 45.8109 40.952 45.9285C40.9729 46.5232 40.9799 47.2492 40.9799 48.0099C40.9799 48.8811 40.9868 49.7801 40.9938 50.6652V50.7274C40.9171 50.7412 40.952 50.7482 41.0357 50.762C41.0427 50.7136 41.0496 50.6583 41.0566 50.6029C41.0566 50.0912 41.0566 49.6418 41.0566 49.1646C41.0566 48.8189 41.0566 48.4662 41.0706 48.0859C41.1264 47.8162 41.1683 48.0998 41.1752 48.6875C41.1752 49.296 41.1752 50.112 41.1752 50.9003C40.289 50.8865 39.4377 50.8726 38.9772 50.8657C36.0604 50.845 33.2762 50.8311 30.3105 50.8104C31.9503 50.8311 33.4227 50.845 34.923 50.8657C34.923 50.8519 34.9718 50.8519 35.0835 50.8519C36.5279 50.8726 38.1259 50.8934 39.3889 50.8865C39.5005 50.9003 39.8285 50.9072 40.1634 50.9141C40.4984 50.9141 40.8543 50.921 41.1962 50.9279C41.1962 50.4162 41.1962 49.9322 41.2101 49.5795C41.259 49.7593 41.2869 50.3056 41.3009 51.0317C41.1613 51.0317 41.0217 51.0317 40.8752 51.0317C41.0217 51.0317 41.1683 51.0317 41.3078 51.0317C41.3078 50.3333 41.3218 49.6349 41.3288 49.0333C41.3288 48.646 41.3148 47.9822 41.3288 47.7817C41.3288 47.7333 41.3427 47.8232 41.3427 47.7333C41.3427 47.8923 41.3427 47.4498 41.3427 47.4221C41.3427 47.2146 41.3288 47.2492 41.3357 47.0072C41.3357 46.6891 41.3357 46.696 41.3497 46.4955C41.3497 46.1083 41.3497 45.7418 41.3497 45.3615C41.58 45.3615 41.8102 45.3615 42.0475 45.3615C42.1661 45.3615 42.3964 45.3615 42.4173 45.3615C42.522 45.3615 42.4313 45.3753 42.5708 45.3753C42.6476 45.3753 42.6127 45.3615 42.7313 45.3684C43.171 45.3684 43.6594 45.3684 44.092 45.3753C45.1736 45.3753 46.4576 45.3753 47.3438 45.3822C47.5392 45.3822 47.281 45.4029 47.5462 45.4029C48.4672 45.4029 49.4023 45.4099 50.4141 45.4168C50.4141 44.3173 50.4211 43.1418 50.4281 41.9662C50.4281 41.8418 50.449 41.9386 50.449 41.7657C50.449 41.5444 50.4281 41.5998 50.4281 41.3992C50.4281 41.2748 50.442 41.1641 50.456 41.095C50.456 40.1615 50.456 39.2279 50.456 38.2806C50.456 37.5407 50.449 36.7939 50.442 36.0471V35.9987C51.0282 35.9987 51.6143 35.9987 52.1656 35.9918C52.1656 36.296 52.1656 36.5795 52.1656 36.863C52.1656 38.1976 52.1935 39.47 52.1726 40.6593C52.1726 42.2774 52.1865 43.6466 52.1935 45.1333C52.1935 46.212 52.1935 47.3806 52.1935 48.3072C52.1935 48.4524 52.2005 48.6668 52.2075 48.8327C52.2075 49.0886 52.1935 49.3998 52.1935 49.6625C52.1935 50.3955 52.2075 51.17 52.2144 51.9029C52.2144 52.062 52.2144 52.221 52.2144 52.3732C52.0609 52.3732 51.9144 52.3732 51.7609 52.3732C51.3073 52.3732 50.8398 52.387 50.3932 52.387C50.0931 52.387 49.7582 52.3801 49.4511 52.3732C48.5719 52.3732 47.6578 52.387 46.8204 52.3939C45.697 52.3939 44.5456 52.3662 43.4082 52.3939C42.1382 52.3939 40.631 52.3939 39.4238 52.3939C38.4469 52.3524 37.435 52.3939 36.3325 52.387C36.2279 52.387 36.1232 52.3801 36.0185 52.3732C34.3508 52.3455 32.4946 52.3939 31.1409 52.3732C30.6315 52.4008 30.1989 52.3732 29.7244 52.3662C29.208 52.3662 28.7335 52.3732 28.252 52.3801C28.1055 52.3801 27.931 52.3732 27.7845 52.3662C27.296 52.3662 26.7936 52.3732 26.2563 52.3801C25.4399 52.3801 24.5746 52.3386 23.6396 52.3662C22.9208 52.3455 21.8462 52.3248 21.0228 52.3524C20.325 52.3317 19.6202 52.3386 18.9155 52.3386H17.8478C17.5268 52.3455 17.0035 52.3386 17.0523 52.3386L16.9267 52.3248C16.9267 52.2694 16.9267 52.2279 16.9267 52.1795V52.1381L16.9407 52.1173V52.0136C16.9407 51.8753 16.9407 51.737 16.9407 51.5918C16.9407 51.3013 16.9407 51.004 16.9407 50.6928C16.9477 50.0982 16.9546 49.4551 16.9686 48.8258C16.9756 47.9269 16.9546 46.8067 17.0105 46.1359C17.0314 46.0529 17.0454 46.0668 17.0454 46.0599C17.0454 46.0599 17.0454 46.046 17.0454 46.0391C17.0314 46.0184 17.0105 45.9769 16.9895 45.9285C17.0035 45.9146 17.0244 45.9077 17.0593 45.9146C17.1291 45.9354 17.1221 45.97 17.1361 46.0115C17.478 46.0322 17.799 46.0253 18.1339 46.0115C18.5247 46.0253 18.8038 46.0806 19.3202 46.0806L19.3272 46.1013ZM40.4216 48.1758C40.4216 48.1758 40.4146 48.1827 40.4146 48.2242C40.3937 48.1136 40.4286 47.8716 40.4216 48.1758ZM40.4286 48.2865C40.4286 48.7013 40.4565 49.3721 40.4286 49.5795C40.4286 49.6487 40.4565 49.5242 40.4635 49.6418C40.4495 49.7801 40.4426 49.946 40.4426 50.1811C40.4286 50.1811 40.4077 50.1811 40.3867 50.1811C40.3728 50.1742 40.3867 50.1673 40.4216 50.1604C40.4077 50.0152 40.4216 49.7109 40.3867 49.6833C40.3867 49.4966 40.3867 49.3998 40.3728 49.3099C40.3867 48.812 40.3588 48.7013 40.3728 48.321C40.3937 48.4178 40.3937 48.2519 40.4146 48.2795L40.4286 48.2865Z" fill="white"/>
<path fill-rule="evenodd" clip-rule="evenodd" d="M22.9766 20.0352C22.9766 20.0352 22.9208 20.0628 22.8789 20.0766C22.8859 20.0628 22.9417 20.0352 22.9766 20.0352Z" fill="white"/>
<path fill-rule="evenodd" clip-rule="evenodd" d="M21.0076 19.1914C21.0076 19.1914 20.882 19.2478 20.889 19.2196C20.9448 19.1985 20.9657 19.1985 21.0076 19.1914Z" fill="white"/>
<path fill-rule="evenodd" clip-rule="evenodd" d="M20.8257 19.2109C20.8257 19.2109 20.7419 19.2386 20.707 19.2524C20.707 19.2386 20.8047 19.2109 20.8257 19.2109Z" fill="white"/>
<path fill-rule="evenodd" clip-rule="evenodd" d="M20.4077 19.5586C20.4077 19.5586 20.324 19.6001 20.2891 19.6001C20.2891 19.5863 20.3728 19.5724 20.4077 19.5586Z" fill="white"/>
<path fill-rule="evenodd" clip-rule="evenodd" d="M20.1281 19.418C20.0933 19.4456 20.0235 19.4664 19.9258 19.494C19.9537 19.4664 20.0584 19.4456 20.1281 19.418Z" fill="white"/>
<path fill-rule="evenodd" clip-rule="evenodd" d="M19.8498 20.6367C19.7451 20.6713 19.5357 20.7543 19.459 20.7543C19.5916 20.7266 19.7311 20.6644 19.8498 20.6367Z" fill="white"/>
<path fill-rule="evenodd" clip-rule="evenodd" d="M19.4316 20.2695C19.313 20.3387 19.0687 20.3802 18.9083 20.4493C18.8803 20.4355 19.1525 20.3733 19.1944 20.3387C19.2223 20.3387 19.2572 20.3249 19.299 20.3179C19.3479 20.3041 19.3828 20.2764 19.4316 20.2695Z" fill="white"/>
<path fill-rule="evenodd" clip-rule="evenodd" d="M17.812 20.6836C17.812 20.6836 17.812 20.7047 17.7631 20.7188C17.7492 20.7188 17.7422 20.7188 17.7422 20.7047L17.812 20.6836Z" fill="white"/>
<path fill-rule="evenodd" clip-rule="evenodd" d="M17.198 21.0508C17.1003 21.1061 16.8561 21.1822 16.7235 21.2029C16.7096 21.2098 16.7096 21.2167 16.6747 21.2306C16.5979 21.2582 16.4165 21.2997 16.591 21.2513C16.8003 21.1683 16.9747 21.1338 17.205 21.0508H17.198Z" fill="white"/>
<path fill-rule="evenodd" clip-rule="evenodd" d="M17.0444 20.8359C17.0444 20.8359 16.9816 20.8636 16.9258 20.8843C16.9328 20.8705 17.0235 20.8429 17.0444 20.8359Z" fill="white"/>
<path fill-rule="evenodd" clip-rule="evenodd" d="M17.0734 21.5078C17.0734 21.5078 16.9688 21.5424 16.9199 21.5562C16.9548 21.5424 17.0316 21.5078 17.0734 21.5078Z" fill="white"/>
<path fill-rule="evenodd" clip-rule="evenodd" d="M16.9403 20.9531C16.9054 20.9808 16.8078 21.0015 16.7589 21.0292C16.7031 21.0292 16.8775 20.9739 16.9403 20.9531Z" fill="white"/>
<path fill-rule="evenodd" clip-rule="evenodd" d="M16.843 20.9062C16.843 20.9062 16.7104 20.9547 16.6406 20.9823C16.6825 20.9547 16.7802 20.9339 16.843 20.9062Z" fill="white"/>
<path fill-rule="evenodd" clip-rule="evenodd" d="M16.9468 21.668C16.9468 21.668 16.877 21.7025 16.8281 21.7233C16.8281 21.7025 16.9049 21.6887 16.9468 21.668Z" fill="white"/>
<path fill-rule="evenodd" clip-rule="evenodd" d="M16.8361 21.5781C16.7872 21.6058 16.5918 21.6611 16.4941 21.6888C16.6128 21.6404 16.7035 21.6127 16.8361 21.5781Z" fill="white"/>
<path fill-rule="evenodd" clip-rule="evenodd" d="M16.6056 20.9961C16.5218 21.0445 16.3893 21.0652 16.3125 21.086C16.3893 21.0514 16.5149 21.0376 16.6056 20.9961Z" fill="white"/>
<path fill-rule="evenodd" clip-rule="evenodd" d="M16.4446 21.2852C16.4446 21.2852 16.3608 21.3197 16.312 21.3405C16.298 21.3197 16.3887 21.3059 16.4446 21.2852Z" fill="white"/>
<path fill-rule="evenodd" clip-rule="evenodd" d="M16.2849 21.2812C16.25 21.302 16.2082 21.3089 16.1523 21.3297C16.1663 21.3158 16.25 21.302 16.2849 21.2812Z" fill="white"/>
<path fill-rule="evenodd" clip-rule="evenodd" d="M16.1169 21.2734C16.1169 21.2734 15.9773 21.3369 15.9982 21.3016C16.0331 21.2875 16.0331 21.3016 16.0331 21.3016C16.075 21.2946 16.068 21.2805 16.1169 21.2734Z" fill="white"/>
<path fill-rule="evenodd" clip-rule="evenodd" d="M15.873 21.7409C16.1033 21.6786 15.9498 21.6925 15.873 21.7409Z" fill="white"/>
<path fill-rule="evenodd" clip-rule="evenodd" d="M15.7389 21.9766C15.6691 22.0042 15.5994 22.025 15.5156 22.0457C15.5645 22.025 15.704 21.9835 15.7389 21.9766Z" fill="white"/>
<path fill-rule="evenodd" clip-rule="evenodd" d="M15.6917 22.0195C15.6917 22.0195 15.5801 22.0689 15.608 22.0477L15.6917 22.0195Z" fill="white"/>
<path fill-rule="evenodd" clip-rule="evenodd" d="M15.6069 22.3164C15.6069 22.3164 15.5301 22.351 15.4883 22.3648C15.4953 22.351 15.586 22.3233 15.6069 22.3164Z" fill="white"/>
<path fill-rule="evenodd" clip-rule="evenodd" d="M15.126 22.4414C14.9935 22.5036 14.9307 22.4967 15.126 22.4414Z" fill="white"/>
<path fill-rule="evenodd" clip-rule="evenodd" d="M18.9711 21.2812C18.9711 21.2812 18.9083 21.3089 18.8874 21.3297C18.8315 21.3297 18.7338 21.3711 18.6641 21.385C18.7478 21.3366 18.8455 21.3366 18.9711 21.2812Z" fill="white"/>
<path fill-rule="evenodd" clip-rule="evenodd" d="M16.9336 21.4541C16.8917 21.4679 16.8917 21.4541 16.8498 21.4748C16.8498 21.4748 16.8638 21.461 16.8638 21.4541C16.78 21.4748 16.7312 21.4956 16.6614 21.5232C16.6684 21.5232 16.6754 21.5094 16.6754 21.5025C16.5847 21.5578 16.4591 21.5509 16.2637 21.6269C16.4451 21.544 16.8777 21.4333 17.0452 21.3711C17.0243 21.3988 16.8708 21.4264 16.8638 21.4541C16.8638 21.4679 16.9615 21.4264 16.9405 21.4541H16.9336Z" fill="white"/>
<path fill-rule="evenodd" clip-rule="evenodd" d="M16.6189 21.0575C16.6189 21.0713 16.5421 21.0852 16.5352 21.0852C16.5491 21.0644 16.7794 21.0022 16.6189 21.0575Z" fill="white"/>
<path fill-rule="evenodd" clip-rule="evenodd" d="M15.3629 21.5026V21.4819C15.2512 21.5165 15.0768 21.5718 15 21.5787C15.1256 21.5234 15.4117 21.475 15.4954 21.4196C15.5373 21.4127 15.5443 21.4127 15.5862 21.4058C15.8792 21.2814 16.2142 21.2191 16.5212 21.1016C16.3956 21.1984 16.0537 21.2191 15.9141 21.3228C15.8862 21.3228 15.9141 21.3228 15.9281 21.3159C15.7885 21.3574 15.5373 21.4196 15.3698 21.5095L15.3629 21.5026Z" fill="white"/>
<path fill-rule="evenodd" clip-rule="evenodd" d="M15.6638 22.067C15.6638 22.067 15.594 22.1016 15.5661 22.1154C15.5522 22.1154 15.6289 22.0601 15.6638 22.067Z" fill="white"/>
<path fill-rule="evenodd" clip-rule="evenodd" d="M49.3738 21.3488C49.4227 21.3626 49.5692 21.3903 49.6181 21.4041C49.8065 21.4594 49.967 21.5286 50.1623 21.577C50.3298 21.6185 50.4973 21.6392 50.6717 21.6876C50.8043 21.7222 50.8462 21.7291 50.9369 21.7498C51.1951 21.8052 51.3975 21.8812 51.5231 21.8605C51.7464 21.895 51.8929 21.9158 52.1022 21.9435C52.1301 21.9435 52.179 21.9642 52.186 21.9642C52.6046 22.0057 52.8838 21.9573 53.3652 22.0403C53.4141 22.0264 53.456 21.9919 53.5467 21.978C53.5885 21.978 53.6723 21.9849 53.7002 21.978C53.8118 21.9435 53.756 21.8466 53.9444 21.8536C53.9584 21.8397 53.9305 21.8259 53.9235 21.8121C53.9654 21.6945 53.9235 21.577 53.9933 21.494C53.8886 21.4041 53.9374 21.3488 53.8537 21.2727C53.8049 21.2243 53.7002 21.1621 53.6374 21.1067C53.5606 21.0445 53.4769 20.9892 53.4211 20.9339C53.435 20.8993 53.3234 20.8578 53.3164 20.8232C53.2117 20.7679 53.0722 20.6919 52.9675 20.6365C52.9605 20.6227 52.9256 20.602 52.9326 20.5881C52.6674 20.4429 52.4023 20.2839 52.0185 20.1456C51.9766 20.1317 51.8999 20.1041 51.865 20.0972C51.5789 20.0142 51.1323 19.869 50.9997 19.7722C50.9509 19.7514 50.9439 19.7653 50.895 19.7445C50.8671 19.7099 50.7276 19.62 50.595 19.5855C50.5461 19.5716 50.4624 19.5855 50.3577 19.5578C50.2042 19.5232 50.0786 19.4403 49.9391 19.4057C49.8763 19.3919 49.7995 19.3988 49.7367 19.3849C49.5622 19.3504 49.2273 19.2397 49.0877 19.1844C48.9761 19.1429 48.9412 19.1083 48.8575 19.0876C48.7807 19.0669 48.7179 19.0738 48.7109 19.1153C48.4667 19.1291 47.9224 18.9009 47.5805 18.8387C47.3432 18.7349 47.092 18.7142 46.8548 18.6381C46.8199 18.6243 46.7362 18.5966 46.7082 18.5828C46.6245 18.5621 46.5129 18.5413 46.4082 18.5206C46.2268 18.4791 46.0732 18.4307 45.9197 18.3961C45.7104 18.2786 45.522 18.2855 45.3336 18.2302C45.2638 18.2094 45.194 18.1748 45.1173 18.1472C45.0475 18.1264 44.9777 18.1195 44.9079 18.0988C44.8381 18.078 44.7614 18.0365 44.6916 18.0158C44.6567 18.0089 44.58 17.9881 44.552 17.9812C44.4962 17.9605 44.4613 17.9397 44.4055 17.9259C44.3427 17.9121 44.2729 17.9052 44.2101 17.8913C43.9729 17.8291 43.7286 17.7323 43.4984 17.7046C43.1076 17.5594 42.7517 17.5041 42.2912 17.3312C42.1725 17.3036 42.0818 17.2897 41.9632 17.2413C41.9353 17.2413 41.9283 17.2413 41.8865 17.2344C41.6492 17.1445 41.3771 17.1099 41.1328 17.02C41.1189 17.02 41.1119 17.02 41.091 17.02C40.749 16.8956 40.3094 16.7573 40.0303 16.7089C39.8279 16.619 39.5698 16.5775 39.3116 16.5014C39.186 16.4669 39.0743 16.4185 38.9557 16.3839C38.7254 16.3286 38.4393 16.2248 38.216 16.1695C38.1742 16.1626 38.0625 16.1419 38.0206 16.128C37.902 16.1004 37.7904 16.045 37.6648 16.0174C37.1833 15.9067 36.653 15.727 36.2413 15.6025C36.1157 15.5679 36.004 15.5472 35.8575 15.5126C35.6202 15.4504 35.383 15.3536 35.1457 15.2913C35.1038 15.2844 35.0131 15.2637 34.9713 15.2498C34.7759 15.1876 34.6293 15.1461 34.4549 15.0908C34.3572 15.0631 34.2665 15.0355 34.1618 15.0078C33.5408 15.2014 33.3733 15.2706 33.0453 15.3536C32.6127 15.5195 31.9707 15.7062 31.4613 15.8653C31.3567 15.9275 31.238 15.9344 31.1194 15.9759C30.7566 16.1004 30.303 16.2663 29.9122 16.3631C28.3212 16.8956 26.6395 17.3865 25.0625 17.9259C24.9299 17.9466 24.7415 18.0158 24.6369 18.0642C24.6089 18.0642 24.5392 18.0849 24.4764 18.0919C24.288 18.1817 24.0298 18.2371 23.7786 18.32C23.7227 18.3685 23.5622 18.3961 23.4785 18.4445C23.4297 18.4445 23.5274 18.4099 23.4576 18.4238C23.311 18.5275 22.7528 18.6727 22.5086 18.7626C22.5225 18.7626 22.5295 18.7626 22.5086 18.7695C22.4458 18.7695 22.4248 18.811 22.3551 18.8317C21.9085 18.977 21.6084 19.1291 21.2316 19.2674C21.1827 19.2674 21.0432 19.2881 21.0083 19.3227C21.0781 19.302 21.1688 19.2743 21.1688 19.302C21.0502 19.3296 20.9036 19.3849 20.8338 19.4264C20.6943 19.4748 20.6175 19.4817 20.4919 19.5371C20.464 19.544 20.5268 19.5509 20.464 19.5716C20.2617 19.62 20.164 19.6685 19.9825 19.7169C19.9407 19.7514 19.7313 19.8275 19.6615 19.8344C19.6057 19.8621 19.7313 19.8344 19.6825 19.8552C19.522 19.9105 19.3754 19.9658 19.2219 20.0004C19.187 20.0211 19.1661 20.0419 19.1103 20.0626C19.0684 20.0764 19.1103 20.0349 19.0545 20.0626C18.9986 20.0903 19.1033 20.0695 19.0963 20.0903C19.0196 20.1248 19.0405 20.1317 18.9986 20.1525C18.88 20.1732 18.8102 20.2216 18.7125 20.2631C18.559 20.3115 18.5311 20.3254 18.3916 20.3669C18.3078 20.4014 18.2729 20.4291 18.1752 20.4567C18.0915 20.4844 18.0217 20.4844 17.931 20.5121C17.8822 20.5328 17.9659 20.519 17.9031 20.5397C17.5891 20.6435 17.2821 20.7403 17.0588 20.844C17.4007 20.6988 17.6728 20.6573 17.9729 20.5328C18.0287 20.5397 18.1055 20.4775 18.1613 20.4913C18.1752 20.4706 18.1055 20.4913 18.1752 20.4637C18.1962 20.4637 18.2101 20.4637 18.245 20.4498C18.2101 20.4913 18.2729 20.4706 18.3078 20.4775C18.559 20.3945 18.7893 20.3185 19.0056 20.2493C19.0475 20.2286 18.9707 20.2493 19.0196 20.2216C19.1173 20.1871 19.1382 20.1802 19.2708 20.1387C19.3057 20.1456 19.3824 20.1387 19.3475 20.1732C19.0405 20.2631 18.6288 20.4291 18.2659 20.5466C18.1543 20.5812 18.0357 20.595 17.9799 20.6504C18.1403 20.5881 18.2869 20.5812 18.4264 20.5397C18.6148 20.4844 18.8033 20.3945 18.9847 20.3461C19.0335 20.3323 19.0614 20.3323 19.1033 20.3185C19.1382 20.3046 19.194 20.277 19.2359 20.2631C19.2778 20.2493 19.2847 20.2631 19.3266 20.2493C19.4034 20.2216 19.4592 20.1871 19.5429 20.1663C19.6895 20.1248 19.836 20.0972 19.9895 20.0419C20.0244 20.0419 20.0174 20.0695 19.9825 20.0833C19.7941 20.1387 19.7662 20.1525 19.5708 20.2078C19.5918 20.2078 19.6057 20.2078 19.6057 20.2078C19.5429 20.2216 19.522 20.2216 19.4871 20.2493C19.6267 20.2078 19.6267 20.2493 19.5848 20.277C19.2289 20.3807 18.8033 20.5259 18.5102 20.602C18.4823 20.6227 18.4683 20.6435 18.4125 20.6642C18.0427 20.7817 17.7635 20.8716 17.3728 20.9961C17.7845 20.9062 18.1962 20.761 18.6567 20.6089C18.6776 20.6089 18.6637 20.6227 18.7125 20.6089C18.9079 20.5328 19.1382 20.4706 19.2917 20.4153C19.3615 20.4153 19.4383 20.4153 19.508 20.4153C19.9895 20.2493 20.3733 20.2286 20.8338 20.0833C20.8338 20.0972 20.8757 20.0903 20.8897 20.0972C20.8548 20.1179 20.8338 20.1456 20.792 20.1663C20.7152 20.1871 20.6385 20.2216 20.5687 20.2355C20.1919 20.3945 19.6197 20.5397 19.1452 20.7126C19.0963 20.7541 19.1452 20.761 19.194 20.7679C19.4313 20.7126 19.6406 20.6089 19.8988 20.5674C20.0035 20.595 19.9267 20.6642 19.7313 20.7264C19.4173 20.8302 18.8591 20.9892 18.6567 21.0445C17.7286 21.3626 16.8006 21.6323 15.8516 21.9504C16.3889 21.7982 16.8703 21.6185 17.3518 21.494C17.3518 21.4871 17.3658 21.4732 17.4007 21.4663C17.8682 21.328 18.3916 21.169 18.7963 21.0238C18.9777 21.003 19.2987 20.8647 19.4871 20.844C19.4592 20.9131 19.3266 20.9823 19.1452 21.0514C19.3266 20.9892 19.508 20.9546 19.6615 20.9131C19.7872 20.8786 20.0035 20.7956 20.0732 20.7887C20.0872 20.7887 20.0663 20.8094 20.0942 20.7956C20.0453 20.8094 20.1849 20.761 20.1989 20.761C20.2686 20.7333 20.2547 20.7333 20.3314 20.7126C20.4361 20.6849 20.4361 20.6849 20.5059 20.678C20.8897 20.5605 21.1758 20.4775 21.5805 20.353C21.6224 20.3392 21.6921 20.3185 21.6991 20.3185C21.734 20.3115 21.7061 20.3323 21.7549 20.3185C21.7829 20.3185 21.7689 20.3046 21.8038 20.2908C21.9573 20.2493 22.1108 20.2009 22.2504 20.1663C22.6063 20.0626 23.0249 19.9381 23.311 19.8552C23.3738 19.8413 23.2971 19.8828 23.3808 19.8552C23.8972 19.7099 24.4205 19.5578 24.9369 19.4057C24.9788 19.3919 24.9509 19.4264 25.0067 19.4057C25.0834 19.3849 25.0555 19.3711 25.1253 19.3504C25.1672 19.3504 25.2091 19.3365 25.23 19.3504C25.844 19.1844 26.4651 18.97 27.0861 18.7764C27.6793 18.5897 28.2515 18.4099 28.8097 18.2371C29.2493 18.0988 29.661 17.9536 30.0518 17.8498C30.5751 17.677 31.0287 17.5387 31.5172 17.3865C31.873 17.2759 32.2638 17.1722 32.5569 17.0685C32.6057 17.0477 32.6685 17.02 32.7243 17.0062C32.7872 16.9924 32.9407 16.9578 33.0035 16.9371C33.2268 16.861 33.5129 16.7711 33.7362 16.695C33.8757 16.6536 34.0083 16.6121 34.1479 16.5775L34.1897 16.5913C34.2944 16.619 34.4409 16.6536 34.5456 16.6812C34.6293 16.7089 34.7619 16.7573 34.8457 16.7849C35.1318 16.8679 35.4388 16.9371 35.7109 17.02C36.0738 17.1376 36.4436 17.269 36.8204 17.352C37.2252 17.4833 37.7206 17.6355 38.1183 17.7461C38.4254 17.8775 38.7673 17.9397 39.1232 18.0573C39.1441 18.0642 39.1999 18.0849 39.2209 18.0988C39.7582 18.2924 40.3792 18.4169 40.8118 18.5759C40.9863 18.6036 41.1189 18.6727 41.2724 18.7211C41.4399 18.7764 41.5934 18.8041 41.7539 18.8525C41.7888 18.8663 41.8655 18.894 41.9004 18.9078C42.0609 18.9562 42.2214 18.9908 42.4028 19.0392C42.668 19.1153 42.9401 19.2397 43.2541 19.302C43.4844 19.3919 43.8263 19.5163 44.1055 19.5716C44.552 19.7445 45.0265 19.8413 45.4871 19.9935C45.6406 20.0488 45.7802 20.111 45.9476 20.1387C46.1081 20.2147 46.3035 20.2562 46.5059 20.3185C46.6734 20.3738 46.9246 20.4567 47.113 20.5259C47.406 20.6227 47.7829 20.7126 47.9852 20.8302C48.055 20.9685 48.2992 20.8647 48.5295 20.9615C48.6481 21.0238 48.6202 21.0445 48.6621 21.0998C48.7668 21.1482 48.8784 21.169 48.99 21.1966C49.1157 21.245 49.1924 21.3211 49.3599 21.3695L49.3738 21.3488ZM19.6895 19.945C19.6895 19.945 19.6895 19.9381 19.6685 19.945C19.6964 19.9105 19.7872 19.9174 19.6895 19.945ZM19.6546 19.9658C19.515 20.0142 19.3196 20.0903 19.215 20.1041C19.187 20.111 19.2498 20.1248 19.208 20.1456C19.1452 20.1456 19.0684 20.1663 18.9637 20.194C18.9428 20.1594 19.1591 20.1179 19.1591 20.0764C19.2429 20.0557 19.2778 20.0419 19.3126 20.0142C19.4801 19.9796 19.508 19.945 19.6406 19.9174C19.6127 19.952 19.6685 19.9312 19.6685 19.9589L19.6546 19.9658Z" fill="white"/>
<path fill-rule="evenodd" clip-rule="evenodd" d="M19.5507 28.969C19.5507 28.969 19.5361 28.9764 19.5215 28.9764C19.5215 28.9616 19.5434 28.9542 19.5507 28.969Z" fill="white"/>
<path fill-rule="evenodd" clip-rule="evenodd" d="M18.6842 27.6953C18.6842 27.6953 18.6074 27.7376 18.6074 27.7094C18.6423 27.6953 18.6563 27.6953 18.6842 27.6953Z" fill="white"/>
<path fill-rule="evenodd" clip-rule="evenodd" d="M18.5659 27.6953C18.5659 27.6953 18.517 27.7165 18.4961 27.7306C18.4961 27.7165 18.5519 27.6953 18.5659 27.6953Z" fill="white"/>
<path fill-rule="evenodd" clip-rule="evenodd" d="M18.3714 28C18.3714 28 18.3295 28.0353 18.3086 28.0353C18.3086 28.0212 18.3505 28.0141 18.3714 28Z" fill="white"/>
<path fill-rule="evenodd" clip-rule="evenodd" d="M18.1546 27.8633C18.1546 27.8633 18.0988 27.9117 18.043 27.9324C18.0569 27.9117 18.1127 27.884 18.1546 27.8633Z" fill="white"/>
<path fill-rule="evenodd" clip-rule="evenodd" d="M18.4133 28.9609C18.3714 28.9817 18.3016 29.0577 18.2598 29.0577C18.3156 29.037 18.3575 28.9748 18.4133 28.9609Z" fill="white"/>
<path fill-rule="evenodd" clip-rule="evenodd" d="M18.0368 28.6367C17.9949 28.699 17.8763 28.7404 17.8204 28.8096C17.7925 28.7958 17.9181 28.7335 17.9321 28.699C17.953 28.692 17.967 28.6851 17.9809 28.6782C18.0019 28.6644 18.0088 28.6367 18.0368 28.6367Z" fill="white"/>
<path fill-rule="evenodd" clip-rule="evenodd" d="M17.3326 29.1016C17.3326 29.1016 17.3475 29.1237 17.3251 29.1385C17.3176 29.1385 17.3102 29.1385 17.3027 29.1311L17.3326 29.109V29.1016Z" fill="white"/>
<path fill-rule="evenodd" clip-rule="evenodd" d="M17.2066 29.4609C17.1857 29.5163 17.095 29.6062 17.0391 29.6407C17.0391 29.6476 17.0391 29.6546 17.0252 29.6684C16.9973 29.703 16.9275 29.7583 16.9903 29.696C17.0531 29.6062 17.1229 29.5508 17.2066 29.4609Z" fill="white"/>
<path fill-rule="evenodd" clip-rule="evenodd" d="M16.9969 29.3164C16.9969 29.3164 16.976 29.351 16.9551 29.3648C16.9551 29.351 16.983 29.3164 16.9969 29.3164Z" fill="white"/>
<path fill-rule="evenodd" clip-rule="evenodd" d="M17.4082 29.8281C17.4082 29.8281 17.3733 29.8696 17.3594 29.8834C17.3594 29.8696 17.3873 29.835 17.4082 29.8281Z" fill="white"/>
<path fill-rule="evenodd" clip-rule="evenodd" d="M17.0043 29.418C17.0043 29.418 16.9624 29.4733 16.9484 29.5009C16.9205 29.5009 16.9833 29.4387 17.0043 29.418Z" fill="white"/>
<path fill-rule="evenodd" clip-rule="evenodd" d="M16.9261 29.3984C16.9261 29.3984 16.8842 29.4538 16.8633 29.4883C16.8703 29.4607 16.9051 29.4261 16.9261 29.3984Z" fill="white"/>
<path fill-rule="evenodd" clip-rule="evenodd" d="M17.4362 29.9648C17.4362 29.9648 17.4219 29.9994 17.4077 30.0202C17.4005 30.0063 17.4219 29.9856 17.4362 29.9648Z" fill="white"/>
<path fill-rule="evenodd" clip-rule="evenodd" d="M17.3245 29.9102C17.3245 29.9102 17.2478 30.007 17.2129 30.0415C17.2408 29.9931 17.2757 29.9586 17.3245 29.9102Z" fill="white"/>
<path fill-rule="evenodd" clip-rule="evenodd" d="M16.8508 29.5C16.8368 29.5484 16.774 29.583 16.7461 29.6106C16.767 29.5691 16.8229 29.5415 16.8508 29.5Z" fill="white"/>
<path fill-rule="evenodd" clip-rule="evenodd" d="M16.941 29.7422C16.941 29.7422 16.9201 29.7837 16.9061 29.8044C16.8852 29.7906 16.9271 29.7629 16.941 29.7422Z" fill="white"/>
<path fill-rule="evenodd" clip-rule="evenodd" d="M16.8505 29.7656C16.8505 29.7656 16.8295 29.8002 16.8086 29.8209C16.8086 29.8071 16.8435 29.7864 16.8505 29.7656Z" fill="white"/>
<path fill-rule="evenodd" clip-rule="evenodd" d="M16.752 29.7852C16.752 29.7852 16.7101 29.8543 16.7031 29.8266C16.7171 29.8128 16.7171 29.8197 16.7241 29.8266C16.738 29.8128 16.7241 29.8059 16.752 29.7921V29.7852Z" fill="white"/>
<path fill-rule="evenodd" clip-rule="evenodd" d="M16.9199 30.1712C17.0037 30.0882 16.9339 30.1228 16.9199 30.1712Z" fill="white"/>
<path fill-rule="evenodd" clip-rule="evenodd" d="M17.0034 30.3594C17.0034 30.3594 16.9615 30.4147 16.9336 30.4424C16.9475 30.4216 16.9894 30.3663 17.0034 30.3594Z" fill="white"/>
<path fill-rule="evenodd" clip-rule="evenodd" d="M17.0109 30.4023C17.0109 30.4023 16.9824 30.4577 16.9824 30.4369L17.0109 30.4023Z" fill="white"/>
<path fill-rule="evenodd" clip-rule="evenodd" d="M17.1652 30.6289C17.1652 30.6289 17.151 30.6635 17.1367 30.6773C17.1367 30.6635 17.1581 30.6289 17.1652 30.6289Z" fill="white"/>
<path fill-rule="evenodd" clip-rule="evenodd" d="M16.9969 30.793C16.9684 30.8621 16.9327 30.869 16.9969 30.793Z" fill="white"/>
<path fill-rule="evenodd" clip-rule="evenodd" d="M18.259 29.5078C18.259 29.5078 18.238 29.5355 18.238 29.5493C18.2101 29.5493 18.1822 29.5908 18.1543 29.6046C18.1683 29.5631 18.2171 29.5562 18.259 29.5147V29.5078Z" fill="white"/>
<path fill-rule="evenodd" clip-rule="evenodd" d="M17.3028 29.7996C17.3028 29.7996 17.2819 29.7996 17.2679 29.8273C17.261 29.8273 17.2679 29.8134 17.2679 29.8134C17.233 29.8411 17.2261 29.8619 17.1982 29.8895V29.8757C17.1842 29.931 17.1144 29.9379 17.0586 30.0278C17.1005 29.9379 17.261 29.7927 17.3168 29.7305C17.3168 29.7512 17.261 29.7927 17.2679 29.8134C17.2749 29.8273 17.3028 29.7789 17.3098 29.8134L17.3028 29.7996Z" fill="white"/>
<path fill-rule="evenodd" clip-rule="evenodd" d="M16.8912 29.5435C16.8912 29.5504 16.8633 29.5712 16.8633 29.5781C16.8633 29.5574 16.947 29.4813 16.8912 29.5435Z" fill="white"/>
<path fill-rule="evenodd" clip-rule="evenodd" d="M16.5009 30.0808L16.4869 30.067C16.452 30.1085 16.3962 30.1845 16.3613 30.2053C16.3892 30.143 16.5079 30.0531 16.5148 29.9978C16.5358 29.984 16.5358 29.984 16.5497 29.9702C16.6265 29.8319 16.7661 29.7212 16.8637 29.5898C16.8498 29.6797 16.6893 29.7558 16.6753 29.8526C16.6614 29.8595 16.6753 29.8526 16.6753 29.8457C16.6265 29.901 16.5358 29.9909 16.5009 30.0808Z" fill="white"/>
<path fill-rule="evenodd" clip-rule="evenodd" d="M17.0253 30.4414C17.0253 30.4414 17.011 30.476 17.0039 30.4898C17.0039 30.4898 17.0039 30.4414 17.0253 30.4414Z" fill="white"/>
<path fill-rule="evenodd" clip-rule="evenodd" d="M31.7615 30.8154C31.8034 30.7877 31.8383 30.7393 31.8801 30.7116C31.9848 30.6425 32.0755 30.5872 32.1662 30.5111C32.243 30.442 32.2988 30.3521 32.3756 30.2829C32.4314 30.2276 32.4453 30.2068 32.4802 30.1654C32.5779 30.0478 32.6756 29.9717 32.6826 29.8888C32.7314 29.792 32.8012 29.6813 32.8431 29.5983C32.8431 29.5845 32.871 29.5638 32.871 29.5568C32.9617 29.3356 32.9478 29.1489 33.0664 28.9207C33.0594 28.8861 33.0315 28.8446 33.0315 28.7893C33.0315 28.7616 33.0455 28.7271 33.0455 28.6994C33.0245 28.6233 32.9338 28.6095 32.9547 28.5058C32.9478 28.492 32.9338 28.5058 32.9199 28.5058C32.8222 28.4297 32.7175 28.3951 32.6547 28.3191C32.571 28.3329 32.5291 28.2845 32.4523 28.2845C32.4105 28.2845 32.3477 28.3122 32.2988 28.326C32.243 28.3329 32.1941 28.3537 32.1383 28.3606C32.1104 28.3398 32.0685 28.3744 32.0406 28.3606C31.9848 28.3951 31.922 28.409 31.8662 28.4505C31.8522 28.4505 31.8383 28.4505 31.8243 28.4505C31.6847 28.5127 31.5382 28.5611 31.3917 28.6717C31.3777 28.6856 31.3498 28.7063 31.3358 28.7201C31.2451 28.817 31.0846 28.9345 31.0079 28.9414C30.987 28.9553 30.9939 28.9622 30.98 28.976C30.9521 28.9691 30.8753 28.976 30.8334 29.0037C30.8195 29.0175 30.8125 29.059 30.7846 29.0935C30.7427 29.135 30.6729 29.1281 30.6311 29.1627C30.6101 29.1765 30.6101 29.2111 30.5892 29.2318C30.5404 29.2802 30.4287 29.3287 30.3799 29.3425C30.345 29.3563 30.324 29.3356 30.2961 29.3425C30.2752 29.3563 30.2682 29.384 30.2822 29.4185C30.2403 29.5292 30.0589 29.5084 29.9891 29.5499C29.9263 29.5292 29.8705 29.5707 29.8146 29.5638C29.8077 29.5638 29.7937 29.543 29.7798 29.543C29.7588 29.543 29.7309 29.5499 29.71 29.5499C29.6681 29.543 29.6332 29.5223 29.5914 29.5292C29.5634 29.4462 29.4937 29.4877 29.4448 29.4462C29.4239 29.4324 29.4169 29.4047 29.396 29.3909C29.382 29.3771 29.3541 29.3771 29.3332 29.3563C29.3122 29.3356 29.3053 29.3079 29.2843 29.2872C29.2704 29.2733 29.2494 29.2733 29.2425 29.2595C29.2285 29.2457 29.2285 29.2249 29.2076 29.2111C29.1866 29.1904 29.1587 29.1834 29.1378 29.1696C29.068 29.1074 29.0052 28.9967 28.9075 28.9414C28.8028 28.7685 28.6633 28.6579 28.5098 28.4297C28.4539 28.3813 28.426 28.3537 28.3772 28.2914C28.3632 28.2845 28.3562 28.2914 28.3353 28.2707C28.2446 28.1462 28.0911 28.0563 27.9725 27.9318C27.9655 27.9318 27.9515 27.9318 27.9445 27.9318C27.7631 27.759 27.4631 27.5654 27.2328 27.5308C27.0793 27.4409 26.863 27.4409 26.6536 27.4132C26.5559 27.4132 26.4513 27.4063 26.3605 27.4132C26.1791 27.4271 25.9349 27.4824 25.7744 27.5446C25.7255 27.5654 25.6907 27.5999 25.6488 27.6207C25.572 27.6622 25.4743 27.6898 25.4046 27.7382C25.1115 27.9388 24.8673 28.1531 24.6858 28.326C24.63 28.3813 24.6021 28.4366 24.5532 28.4989C24.4625 28.6026 24.3648 28.6787 24.2811 28.7824C24.2602 28.81 24.2462 28.8377 24.2323 28.8584C24.1904 28.9138 24.1346 28.9622 24.0857 29.0175C23.9671 29.1489 23.8624 29.2872 23.7438 29.3701C23.6252 29.5154 23.4228 29.6467 23.2902 29.7021C23.2693 29.7366 23.2274 29.7159 23.1995 29.7297C23.1088 29.7712 22.9692 29.792 22.8646 29.7574C22.6482 29.7297 22.404 29.5707 22.1389 29.2802C21.8737 29.0037 21.6016 28.651 21.2317 28.3329C21.1898 28.2638 21.0922 28.1946 21.0294 28.16C21.0294 28.1393 20.9875 28.1116 20.9596 28.0909C20.8409 28.0356 20.7153 27.9249 20.5618 27.8489C20.513 27.8489 20.4292 27.7866 20.3525 27.7866C20.3316 27.759 20.3944 27.7866 20.3525 27.759C20.2339 27.759 19.871 27.6345 19.7035 27.6414C19.7175 27.6414 19.7175 27.6483 19.7035 27.6483C19.6617 27.6276 19.6407 27.6553 19.5989 27.6483C19.2988 27.6414 19.0965 27.7313 18.8732 27.8074C18.8452 27.8074 18.7615 27.8074 18.7406 27.835C18.7824 27.8281 18.8383 27.8074 18.8383 27.835C18.7685 27.8489 18.6778 27.8834 18.6429 27.918C18.5661 27.9526 18.5173 27.9526 18.4545 28.001C18.4405 28.001 18.4824 28.0148 18.4475 28.0287C18.3359 28.0632 18.294 28.1116 18.1963 28.1462C18.1823 28.1808 18.0846 28.2499 18.0428 28.2568C18.0218 28.2845 18.0846 28.2568 18.0637 28.2707C17.987 28.3191 17.9241 28.3744 17.8474 28.409C17.8334 28.4297 17.8334 28.4505 17.8055 28.4712C17.7846 28.485 17.7985 28.4505 17.7706 28.4712C17.7497 28.4989 17.8055 28.4712 17.8055 28.492C17.7706 28.5265 17.7846 28.5265 17.7776 28.5542C17.7218 28.5818 17.7009 28.6303 17.666 28.6717C17.6241 28.7132 17.5683 28.7409 17.5334 28.7893C17.4985 28.8239 17.4985 28.8515 17.4566 28.8861C17.4217 28.9138 17.3868 28.9207 17.345 28.9553C17.331 28.976 17.3729 28.9552 17.345 28.9829C17.2263 29.1005 17.1077 29.218 17.0449 29.3287C17.1496 29.1696 17.2822 29.1074 17.3799 28.9691C17.4148 28.9691 17.4287 28.9068 17.4636 28.9138C17.4636 28.8999 17.4287 28.9138 17.4636 28.893C17.4776 28.893 17.4845 28.893 17.4915 28.8723C17.4915 28.9068 17.5194 28.8861 17.5404 28.893C17.645 28.7962 17.7288 28.7271 17.8265 28.651C17.8404 28.6303 17.8055 28.651 17.8265 28.6302C17.8613 28.6026 17.8962 28.5818 17.9381 28.5473C17.966 28.5542 18.0009 28.5473 17.9939 28.5749C17.8544 28.6648 17.7009 28.8308 17.5543 28.9553C17.5124 28.9967 17.4496 29.0175 17.4427 29.0659C17.5055 29.0037 17.5822 28.9829 17.6381 28.9345C17.7148 28.8723 17.7776 28.7893 17.8613 28.734C17.8823 28.7201 17.8962 28.7201 17.9172 28.7063C17.9311 28.6925 17.9521 28.6648 17.966 28.651C17.987 28.6372 17.9939 28.651 18.0079 28.6372C18.0428 28.6095 18.0567 28.5818 18.0986 28.5542C18.1614 28.5196 18.2382 28.492 18.3079 28.4435C18.3289 28.4435 18.3289 28.4643 18.3149 28.4781C18.2312 28.5265 18.2172 28.5334 18.1335 28.5888C18.1474 28.5888 18.1544 28.5888 18.1544 28.5888C18.1265 28.6026 18.1126 28.6026 18.1056 28.6233C18.1684 28.5818 18.1823 28.6233 18.1684 28.6441C18.0149 28.734 17.8404 28.8792 17.7218 28.9622C17.7218 28.9829 17.7218 28.9967 17.7009 29.0175C17.5822 29.135 17.4287 29.2526 17.3101 29.384C17.4776 29.2595 17.6241 29.1074 17.8055 28.9483C17.8125 28.9483 17.8195 28.9622 17.8334 28.9483C17.9032 28.8723 18.0009 28.81 18.0637 28.7616H18.1823C18.3777 28.6164 18.5731 28.6026 18.7824 28.5265C18.7824 28.5404 18.8034 28.5404 18.8173 28.5473C18.8034 28.568 18.8034 28.5818 18.7894 28.6026C18.7545 28.6164 18.7266 28.6372 18.6917 28.6372C18.5452 28.7547 18.301 28.8584 18.1265 29.0175C18.1195 29.0521 18.1474 29.059 18.1754 29.0659C18.273 29.0175 18.3359 28.9276 18.4545 28.893C18.5173 28.9207 18.5033 28.9829 18.4335 29.0244C18.3079 29.1143 18.1405 29.2249 18.0218 29.3079C17.7009 29.6191 17.3729 29.9302 17.0868 30.3106C17.2682 30.117 17.4078 29.9164 17.5892 29.7712C17.5822 29.7643 17.5892 29.7574 17.5962 29.7435C17.7497 29.5983 17.8613 29.4946 18.0846 29.2872C18.1684 29.2664 18.2661 29.135 18.3568 29.1281C18.3707 29.1904 18.3359 29.2388 18.28 29.301C18.3428 29.2457 18.4196 29.2249 18.4754 29.1904C18.5243 29.1627 18.594 29.1005 18.6219 29.1005C18.6289 29.1005 18.6219 29.1143 18.6359 29.1074C18.615 29.1212 18.6708 29.0866 18.6708 29.0797C18.6917 29.059 18.6847 29.059 18.7196 29.0451C18.7615 29.0313 18.7615 29.0313 18.7894 29.0313C18.922 28.9691 19.0406 28.9138 19.1732 28.893C19.1872 28.893 19.2151 28.8861 19.2151 28.8861C19.229 28.8861 19.2151 28.8999 19.236 28.8999C19.243 28.8999 19.236 28.8861 19.25 28.8861C19.2988 28.8861 19.3546 28.8723 19.3965 28.8723C19.5082 28.8584 19.6338 28.8861 19.7175 28.9068C19.7314 28.9138 19.7035 28.9276 19.7314 28.9276C19.864 28.976 19.9966 29.0382 20.1432 29.1696C20.1501 29.1765 20.1292 29.1904 20.1432 29.1973C20.1641 29.218 20.1711 29.1973 20.192 29.2111C20.199 29.2249 20.206 29.2388 20.206 29.2595C20.3664 29.4255 20.5688 29.626 20.7921 29.8749C20.9945 30.1031 21.2247 30.3728 21.5248 30.6148C21.762 30.8084 22.0551 30.9675 22.3552 31.0712C22.7739 31.1957 23.1507 31.1957 23.5414 31.1058C23.8206 31.0435 24.1066 30.9191 24.2811 30.8015C24.309 30.7808 24.3439 30.7462 24.3788 30.7255C24.4346 30.6909 24.4974 30.6701 24.5393 30.6287C24.6719 30.5318 24.7835 30.4074 24.8812 30.3106C25.0068 30.193 25.1045 30.0893 25.2162 29.9787C25.272 29.9164 25.3138 29.8473 25.3627 29.792C25.3976 29.7505 25.4464 29.7228 25.4813 29.6813C25.579 29.5707 25.6627 29.4531 25.7535 29.3632C25.8791 29.2457 26.0047 29.1627 26.1024 29.059C26.228 28.9967 26.3536 28.9138 26.4373 28.8999C26.4792 28.8999 26.5071 28.8999 26.5489 28.8999C26.5838 28.8861 26.6257 28.8792 26.6676 28.8999C26.6746 28.8999 26.6815 28.9068 26.6885 28.9138C26.7862 28.9622 26.9467 28.9898 27.0514 29.1212C27.1142 29.142 27.1351 29.1973 27.17 29.2526C27.2119 29.3079 27.2677 29.3425 27.3165 29.3978C27.3305 29.4185 27.3375 29.4393 27.3514 29.46C27.3933 29.5154 27.4631 29.5707 27.5189 29.6398C27.6096 29.7435 27.6654 29.8888 27.805 30.0063C27.8748 30.117 28.0004 30.2967 28.1469 30.4005C28.3283 30.6356 28.6284 30.8154 28.9494 30.9813C29.061 31.0297 29.1587 31.1058 29.2913 31.1196C29.4099 31.1749 29.5704 31.2026 29.7309 31.2164C29.8914 31.2372 30.0519 31.251 30.2124 31.2441C30.4496 31.2302 30.7078 31.1404 30.8753 31.1404C30.987 31.2233 31.0567 31.0159 31.2102 30.9675C31.294 30.9467 31.301 30.9813 31.3498 31.0021C31.4266 30.9813 31.4894 30.9398 31.5452 30.8914C31.6219 30.8568 31.7057 30.8707 31.8034 30.8084L31.7615 30.8154ZM18.0637 28.3467C18.0637 28.3467 18.0637 28.3467 18.0498 28.3467C18.0498 28.3191 18.1126 28.326 18.0637 28.3467ZM18.0498 28.3675C17.98 28.409 17.9032 28.492 17.8474 28.5058C17.8334 28.5127 17.8753 28.5196 17.8613 28.5404C17.8265 28.5473 17.7916 28.5611 17.7427 28.5957C17.7148 28.5611 17.8195 28.5196 17.8055 28.485C17.8474 28.4643 17.8613 28.4505 17.8683 28.4228C17.9521 28.3813 17.9521 28.3537 18.0218 28.326C18.0218 28.3537 18.0428 28.3329 18.0498 28.3606V28.3675Z" fill="white"/>
<path fill-rule="evenodd" clip-rule="evenodd" d="M19.5507 36.0549C19.5507 36.0549 19.5361 36.0623 19.5215 36.0623C19.5215 36.0475 19.5434 36.0402 19.5507 36.0549Z" fill="white"/>
<path fill-rule="evenodd" clip-rule="evenodd" d="M18.6842 34.7813C18.6842 34.7813 18.6074 34.8236 18.6074 34.7953C18.6423 34.7812 18.6563 34.7813 18.6842 34.7813Z" fill="white"/>
<path fill-rule="evenodd" clip-rule="evenodd" d="M18.5659 34.7812C18.5659 34.7812 18.517 34.8024 18.4961 34.8165C18.4961 34.8024 18.5519 34.7812 18.5659 34.7812Z" fill="white"/>
<path fill-rule="evenodd" clip-rule="evenodd" d="M18.3714 35.0859C18.3714 35.0859 18.3295 35.1212 18.3086 35.1212C18.3086 35.1071 18.3505 35.1 18.3714 35.0859Z" fill="white"/>
<path fill-rule="evenodd" clip-rule="evenodd" d="M18.1546 34.9492C18.1546 34.9492 18.0988 34.9976 18.043 35.0184C18.0569 34.9976 18.1127 34.97 18.1546 34.9492Z" fill="white"/>
<path fill-rule="evenodd" clip-rule="evenodd" d="M18.4133 36.0469C18.3714 36.0676 18.3016 36.1437 18.2598 36.1437C18.3156 36.1229 18.3575 36.0607 18.4133 36.0469Z" fill="white"/>
<path fill-rule="evenodd" clip-rule="evenodd" d="M18.0368 35.7148C17.9949 35.7771 17.8763 35.8186 17.8204 35.8877C17.7925 35.8739 17.9181 35.8117 17.9321 35.7771C17.953 35.7702 17.967 35.7632 17.9809 35.7563C18.0019 35.7425 18.0088 35.7148 18.0368 35.7148Z" fill="white"/>
<path fill-rule="evenodd" clip-rule="evenodd" d="M17.3326 36.1797C17.3326 36.1797 17.3475 36.2019 17.3251 36.2166C17.3176 36.2166 17.3102 36.2166 17.3027 36.2092L17.3326 36.1871V36.1797Z" fill="white"/>
<path fill-rule="evenodd" clip-rule="evenodd" d="M17.2066 36.5391C17.1857 36.5944 17.095 36.6843 17.0391 36.7188C17.0391 36.7258 17.0391 36.7327 17.0252 36.7465C16.9973 36.7811 16.9275 36.8364 16.9903 36.7742C17.0531 36.6843 17.1229 36.629 17.2066 36.5391Z" fill="white"/>
<path fill-rule="evenodd" clip-rule="evenodd" d="M16.9969 36.3945C16.9969 36.3945 16.976 36.4291 16.9551 36.4429C16.9551 36.4291 16.983 36.3945 16.9969 36.3945Z" fill="white"/>
<path fill-rule="evenodd" clip-rule="evenodd" d="M17.4082 36.9062C17.4082 36.9062 17.3733 36.9477 17.3594 36.9616C17.3594 36.9477 17.3873 36.9132 17.4082 36.9062Z" fill="white"/>
<path fill-rule="evenodd" clip-rule="evenodd" d="M17.0043 36.4961C17.0043 36.4961 16.9624 36.5514 16.9484 36.5791C16.9205 36.5791 16.9833 36.5168 17.0043 36.4961Z" fill="white"/>
<path fill-rule="evenodd" clip-rule="evenodd" d="M16.9261 36.4844C16.9261 36.4844 16.8842 36.5397 16.8633 36.5743C16.8703 36.5466 16.9051 36.512 16.9261 36.4844Z" fill="white"/>
<path fill-rule="evenodd" clip-rule="evenodd" d="M17.4362 37.043C17.4362 37.043 17.4219 37.0775 17.4077 37.0983C17.4005 37.0845 17.4219 37.0637 17.4362 37.043Z" fill="white"/>
<path fill-rule="evenodd" clip-rule="evenodd" d="M17.3245 36.9883C17.3245 36.9883 17.2478 37.0851 17.2129 37.1197C17.2408 37.0713 17.2757 37.0367 17.3245 36.9883Z" fill="white"/>
<path fill-rule="evenodd" clip-rule="evenodd" d="M16.8508 36.582C16.8368 36.6304 16.774 36.665 16.7461 36.6927C16.767 36.6512 16.8229 36.6235 16.8508 36.582Z" fill="white"/>
<path fill-rule="evenodd" clip-rule="evenodd" d="M16.941 36.8281C16.941 36.8281 16.9201 36.8696 16.9061 36.8904C16.8852 36.8765 16.9271 36.8489 16.941 36.8281Z" fill="white"/>
<path fill-rule="evenodd" clip-rule="evenodd" d="M16.8505 36.8516C16.8505 36.8516 16.8295 36.8861 16.8086 36.9069C16.8086 36.8931 16.8435 36.8723 16.8505 36.8516Z" fill="white"/>
<path fill-rule="evenodd" clip-rule="evenodd" d="M16.752 36.8633C16.752 36.8633 16.7101 36.9324 16.7031 36.9048C16.7171 36.8909 16.7171 36.8979 16.7241 36.9048C16.738 36.8909 16.7241 36.884 16.752 36.8702V36.8633Z" fill="white"/>
<path fill-rule="evenodd" clip-rule="evenodd" d="M16.9199 37.2532C17.0037 37.1702 16.9339 37.2048 16.9199 37.2532Z" fill="white"/>
<path fill-rule="evenodd" clip-rule="evenodd" d="M17.0034 37.4453C17.0034 37.4453 16.9615 37.5006 16.9336 37.5283C16.9475 37.5075 16.9894 37.4522 17.0034 37.4453Z" fill="white"/>
<path fill-rule="evenodd" clip-rule="evenodd" d="M17.0109 37.4805C17.0109 37.4805 16.9824 37.5358 16.9824 37.515L17.0109 37.4805Z" fill="white"/>
<path fill-rule="evenodd" clip-rule="evenodd" d="M17.1652 37.707C17.1652 37.707 17.151 37.7416 17.1367 37.7554C17.1367 37.7416 17.1581 37.707 17.1652 37.707Z" fill="white"/>
<path fill-rule="evenodd" clip-rule="evenodd" d="M16.9969 37.875C16.9684 37.9441 16.9327 37.9511 16.9969 37.875Z" fill="white"/>
<path fill-rule="evenodd" clip-rule="evenodd" d="M18.259 36.5938C18.259 36.5938 18.238 36.6214 18.238 36.6352C18.2101 36.6352 18.1822 36.6767 18.1543 36.6906C18.1683 36.6491 18.2171 36.6422 18.259 36.6007V36.5938Z" fill="white"/>
<path fill-rule="evenodd" clip-rule="evenodd" d="M17.3028 36.8856C17.3028 36.8856 17.2819 36.8856 17.2679 36.9132C17.261 36.9132 17.2679 36.8994 17.2679 36.8994C17.233 36.927 17.2261 36.9478 17.1982 36.9754V36.9616C17.1842 37.0169 17.1144 37.0239 17.0586 37.1137C17.1005 37.0239 17.261 36.8786 17.3168 36.8164C17.3168 36.8372 17.261 36.8786 17.2679 36.8994C17.2749 36.9132 17.3028 36.8648 17.3098 36.8994L17.3028 36.8856Z" fill="white"/>
<path fill-rule="evenodd" clip-rule="evenodd" d="M16.8912 36.6295C16.8912 36.6364 16.8633 36.6571 16.8633 36.664C16.8633 36.6433 16.947 36.5672 16.8912 36.6295Z" fill="white"/>
<path fill-rule="evenodd" clip-rule="evenodd" d="M16.5009 37.1628L16.4869 37.149C16.452 37.1905 16.3962 37.2666 16.3613 37.2873C16.3892 37.2251 16.5079 37.1352 16.5148 37.0799C16.5358 37.066 16.5358 37.066 16.5497 37.0522C16.6265 36.9139 16.7661 36.8033 16.8637 36.6719C16.8498 36.7618 16.6893 36.8378 16.6753 36.9346C16.6614 36.9416 16.6753 36.9346 16.6753 36.9277C16.6265 36.983 16.5358 37.0729 16.5009 37.1628Z" fill="white"/>
<path fill-rule="evenodd" clip-rule="evenodd" d="M17.0253 37.5195C17.0253 37.5195 17.011 37.5541 17.0039 37.5679C17.0039 37.5679 17.0039 37.5195 17.0253 37.5195Z" fill="white"/>
<path fill-rule="evenodd" clip-rule="evenodd" d="M31.7615 37.9013C31.8034 37.8736 31.8383 37.8252 31.8801 37.7976C31.9848 37.7284 32.0755 37.6731 32.1662 37.597C32.243 37.5279 32.2988 37.438 32.3756 37.3688C32.4314 37.3135 32.4453 37.2928 32.4802 37.2513C32.5779 37.1337 32.6756 37.0577 32.6826 36.9747C32.7314 36.8779 32.8012 36.7673 32.8431 36.6843C32.8431 36.6704 32.871 36.6497 32.871 36.6428C32.9617 36.4215 32.9478 36.2348 33.0664 36.0066C33.0594 35.972 33.0315 35.9305 33.0315 35.8752C33.0315 35.8476 33.0455 35.813 33.0455 35.7853C33.0245 35.7093 32.9338 35.6954 32.9547 35.5917C32.9478 35.5779 32.9338 35.5917 32.9199 35.5917C32.8222 35.5157 32.7175 35.4811 32.6547 35.405C32.571 35.4188 32.5291 35.3704 32.4523 35.3704C32.4105 35.3704 32.3477 35.3981 32.2988 35.4119C32.243 35.4188 32.1941 35.4396 32.1383 35.4465C32.1104 35.4258 32.0685 35.4603 32.0406 35.4465C31.9848 35.4811 31.922 35.4949 31.8662 35.5364C31.8522 35.5364 31.8383 35.5364 31.8243 35.5364C31.6847 35.5986 31.5382 35.647 31.3917 35.7577C31.3777 35.7715 31.3498 35.7923 31.3358 35.8061C31.2451 35.9029 31.0846 36.0204 31.0079 36.0274C30.987 36.0412 30.9939 36.0481 30.98 36.0619C30.9521 36.055 30.8753 36.0619 30.8334 36.0896C30.8195 36.1034 30.8125 36.1449 30.7846 36.1795C30.7427 36.221 30.6729 36.2141 30.6311 36.2486C30.6101 36.2625 30.6101 36.297 30.5892 36.3178C30.5404 36.3662 30.4287 36.4146 30.3799 36.4284C30.345 36.4423 30.324 36.4215 30.2961 36.4284C30.2752 36.4423 30.2682 36.4699 30.2822 36.5045C30.2403 36.6151 30.0589 36.5944 29.9891 36.6359C29.9263 36.6151 29.8705 36.6566 29.8146 36.6497C29.8077 36.6497 29.7937 36.629 29.7798 36.629C29.7588 36.629 29.7309 36.6359 29.71 36.6359C29.6681 36.629 29.6332 36.6082 29.5914 36.6151C29.5634 36.5321 29.4937 36.5736 29.4448 36.5321C29.4239 36.5183 29.4169 36.4907 29.396 36.4768C29.382 36.463 29.3541 36.463 29.3332 36.4423C29.3122 36.4215 29.3053 36.3938 29.2843 36.3731C29.2704 36.3593 29.2494 36.3593 29.2425 36.3454C29.2285 36.3316 29.2285 36.3109 29.2076 36.297C29.1866 36.2763 29.1587 36.2694 29.1378 36.2555C29.068 36.1933 29.0052 36.0827 28.9075 36.0274C28.8028 35.8545 28.6633 35.7438 28.5098 35.5157C28.4539 35.4673 28.426 35.4396 28.3772 35.3774C28.3632 35.3704 28.3562 35.3774 28.3353 35.3566C28.2446 35.2321 28.0911 35.1423 27.9725 35.0178C27.9655 35.0178 27.9515 35.0178 27.9445 35.0178C27.7631 34.8449 27.4631 34.6513 27.2328 34.6167C27.0793 34.5268 26.863 34.5268 26.6536 34.4992C26.5559 34.4992 26.4513 34.4923 26.3605 34.4992C26.1791 34.513 25.9349 34.5683 25.7744 34.6305C25.7255 34.6513 25.6907 34.6859 25.6488 34.7066C25.572 34.7481 25.4743 34.7758 25.4046 34.8242C25.1115 35.0247 24.8673 35.2391 24.6858 35.4119C24.63 35.4673 24.6021 35.5226 24.5532 35.5848C24.4625 35.6885 24.3648 35.7646 24.2811 35.8683C24.2602 35.896 24.2462 35.9236 24.2323 35.9444C24.1904 35.9997 24.1346 36.0481 24.0857 36.1034C23.9671 36.2348 23.8624 36.3731 23.7438 36.4561C23.6252 36.6013 23.4228 36.7327 23.2902 36.788C23.2693 36.8226 23.2274 36.8018 23.1995 36.8157C23.1088 36.8571 22.9692 36.8779 22.8646 36.8433C22.6482 36.8157 22.404 36.6566 22.1389 36.3662C21.8737 36.0896 21.6016 35.7369 21.2317 35.4188C21.1898 35.3497 21.0922 35.2806 21.0294 35.246C21.0294 35.2252 20.9875 35.1976 20.9596 35.1768C20.8409 35.1215 20.7153 35.0109 20.5618 34.9348C20.513 34.9348 20.4292 34.8726 20.3525 34.8726C20.3316 34.8449 20.3944 34.8726 20.3525 34.8449C20.2339 34.8449 19.871 34.7204 19.7035 34.7274C19.7175 34.7274 19.7175 34.7343 19.7035 34.7343C19.6617 34.7135 19.6407 34.7412 19.5989 34.7343C19.2988 34.7274 19.0965 34.8173 18.8732 34.8933C18.8452 34.8933 18.7615 34.8933 18.7406 34.921C18.7824 34.9141 18.8383 34.8933 18.8383 34.921C18.7685 34.9348 18.6778 34.9694 18.6429 35.004C18.5661 35.0385 18.5173 35.0385 18.4545 35.0869C18.4405 35.0869 18.4824 35.1008 18.4475 35.1146C18.3359 35.1492 18.294 35.1976 18.1963 35.2321C18.1823 35.2667 18.0846 35.3359 18.0428 35.3428C18.0218 35.3704 18.0846 35.3428 18.0637 35.3566C17.987 35.405 17.9241 35.4603 17.8474 35.4949C17.8334 35.5157 17.8334 35.5364 17.8055 35.5571C17.7846 35.571 17.7985 35.5364 17.7706 35.5571C17.7497 35.5848 17.8055 35.5571 17.8055 35.5779C17.7706 35.6125 17.7846 35.6125 17.7776 35.6401C17.7218 35.6678 17.7009 35.7162 17.666 35.7577C17.6241 35.7992 17.5683 35.8268 17.5334 35.8752C17.4985 35.9098 17.4985 35.9375 17.4566 35.972C17.4217 35.9997 17.3868 36.0066 17.345 36.0412C17.331 36.0619 17.3729 36.0412 17.345 36.0688C17.2263 36.1864 17.1077 36.304 17.0449 36.4146C17.1496 36.2555 17.2822 36.1933 17.3799 36.055C17.4148 36.055 17.4287 35.9928 17.4636 35.9997C17.4636 35.9859 17.4287 35.9997 17.4636 35.979C17.4776 35.979 17.4845 35.979 17.4915 35.9582C17.4915 35.9928 17.5194 35.972 17.5404 35.979C17.645 35.8821 17.7288 35.813 17.8265 35.7369C17.8404 35.7162 17.8055 35.7369 17.8265 35.7162C17.8613 35.6885 17.8962 35.6678 17.9381 35.6332C17.966 35.6401 18.0009 35.6332 17.9939 35.6609C17.8544 35.7508 17.7009 35.9167 17.5543 36.0412C17.5124 36.0827 17.4496 36.1034 17.4427 36.1518C17.5055 36.0896 17.5822 36.0688 17.6381 36.0204C17.7148 35.9582 17.7776 35.8752 17.8613 35.8199C17.8823 35.8061 17.8962 35.8061 17.9172 35.7923C17.9311 35.7784 17.9521 35.7508 17.966 35.7369C17.987 35.7231 17.9939 35.7369 18.0079 35.7231C18.0428 35.6954 18.0567 35.6678 18.0986 35.6401C18.1614 35.6055 18.2382 35.5779 18.3079 35.5295C18.3289 35.5295 18.3289 35.5502 18.3149 35.5641C18.2312 35.6125 18.2172 35.6194 18.1335 35.6747C18.1474 35.6747 18.1544 35.6747 18.1544 35.6747C18.1265 35.6885 18.1126 35.6885 18.1056 35.7093C18.1684 35.6678 18.1823 35.7093 18.1684 35.73C18.0149 35.8199 17.8404 35.9651 17.7218 36.0481C17.7218 36.0688 17.7218 36.0827 17.7009 36.1034C17.5822 36.221 17.4287 36.3385 17.3101 36.4699C17.4776 36.3454 17.6241 36.1933 17.8055 36.0343C17.8125 36.0343 17.8195 36.0481 17.8334 36.0343C17.9032 35.9582 18.0009 35.896 18.0637 35.8476H18.1823C18.3777 35.7024 18.5731 35.6885 18.7824 35.6125C18.7824 35.6263 18.8034 35.6263 18.8173 35.6332C18.8034 35.654 18.8034 35.6678 18.7894 35.6885C18.7545 35.7024 18.7266 35.7231 18.6917 35.7231C18.5452 35.8407 18.301 35.9444 18.1265 36.1034C18.1195 36.138 18.1474 36.1449 18.1754 36.1518C18.273 36.1034 18.3359 36.0135 18.4545 35.979C18.5173 36.0066 18.5033 36.0688 18.4335 36.1103C18.3079 36.2002 18.1405 36.3109 18.0218 36.3938C17.7009 36.705 17.3729 37.0162 17.0868 37.3965C17.2682 37.2029 17.4078 37.0024 17.5892 36.8571C17.5822 36.8502 17.5892 36.8433 17.5962 36.8295C17.7497 36.6843 17.8613 36.5805 18.0846 36.3731C18.1684 36.3524 18.2661 36.221 18.3568 36.2141C18.3707 36.2763 18.3359 36.3247 18.28 36.3869C18.3428 36.3316 18.4196 36.3109 18.4754 36.2763C18.5243 36.2486 18.594 36.1864 18.6219 36.1864C18.6289 36.1864 18.6219 36.2002 18.6359 36.1933C18.615 36.2071 18.6708 36.1726 18.6708 36.1657C18.6917 36.1449 18.6847 36.1449 18.7196 36.1311C18.7615 36.1173 18.7615 36.1173 18.7894 36.1173C18.922 36.055 19.0406 35.9997 19.1732 35.979C19.1872 35.979 19.2151 35.972 19.2151 35.972C19.229 35.972 19.2151 35.9859 19.236 35.9859C19.243 35.9859 19.236 35.972 19.25 35.972C19.2988 35.972 19.3546 35.9582 19.3965 35.9582C19.5082 35.9444 19.6338 35.972 19.7175 35.9928C19.7314 35.9997 19.7035 36.0135 19.7314 36.0135C19.864 36.0619 19.9966 36.1242 20.1432 36.2555C20.1501 36.2625 20.1292 36.2763 20.1432 36.2832C20.1641 36.304 20.1711 36.2832 20.192 36.297C20.199 36.3109 20.206 36.3247 20.206 36.3454C20.3664 36.5114 20.5688 36.7119 20.7921 36.9609C20.9945 37.1891 21.2247 37.4587 21.5248 37.7008C21.762 37.8944 22.0551 38.0534 22.3552 38.1571C22.7739 38.2816 23.1507 38.2816 23.5414 38.1917C23.8206 38.1295 24.1066 38.005 24.2811 37.8875C24.309 37.8667 24.3439 37.8321 24.3788 37.8114C24.4346 37.7768 24.4974 37.7561 24.5393 37.7146C24.6719 37.6178 24.7835 37.4933 24.8812 37.3965C25.0068 37.279 25.1045 37.1752 25.2162 37.0646C25.272 37.0024 25.3138 36.9332 25.3627 36.8779C25.3976 36.8364 25.4464 36.8087 25.4813 36.7673C25.579 36.6566 25.6627 36.5391 25.7535 36.4492C25.8791 36.3316 26.0047 36.2486 26.1024 36.1449C26.228 36.0827 26.3536 35.9997 26.4373 35.9859C26.4792 35.9859 26.5071 35.9859 26.5489 35.9859C26.5838 35.972 26.6257 35.9651 26.6676 35.9859C26.6746 35.9859 26.6815 35.9928 26.6885 35.9997C26.7862 36.0481 26.9467 36.0758 27.0514 36.2071C27.1142 36.2279 27.1351 36.2832 27.17 36.3385C27.2119 36.3938 27.2677 36.4284 27.3165 36.4837C27.3305 36.5045 27.3375 36.5252 27.3514 36.546C27.3933 36.6013 27.4631 36.6566 27.5189 36.7258C27.6096 36.8295 27.6654 36.9747 27.805 37.0923C27.8748 37.2029 28.0004 37.3827 28.1469 37.4864C28.3283 37.7215 28.6284 37.9013 28.9494 38.0673C29.061 38.1157 29.1587 38.1917 29.2913 38.2056C29.4099 38.2609 29.5704 38.2885 29.7309 38.3024C29.8914 38.3231 30.0519 38.3369 30.2124 38.33C30.4496 38.3162 30.7078 38.2263 30.8753 38.2263C30.987 38.3093 31.0567 38.1018 31.2102 38.0534C31.294 38.0327 31.301 38.0673 31.3498 38.088C31.4266 38.0673 31.4894 38.0258 31.5452 37.9774C31.6219 37.9428 31.7057 37.9566 31.8034 37.8944L31.7615 37.9013ZM18.0637 35.4327C18.0637 35.4327 18.0637 35.4327 18.0498 35.4327C18.0498 35.405 18.1126 35.4119 18.0637 35.4327ZM18.0498 35.4534C17.98 35.4949 17.9032 35.5779 17.8474 35.5917C17.8334 35.5986 17.8753 35.6055 17.8613 35.6263C17.8265 35.6332 17.7916 35.647 17.7427 35.6816C17.7148 35.647 17.8195 35.6055 17.8055 35.571C17.8474 35.5502 17.8613 35.5364 17.8683 35.5087C17.9521 35.4673 17.9521 35.4396 18.0218 35.4119C18.0218 35.4396 18.0428 35.4188 18.0498 35.4465V35.4534Z" fill="white"/>
</g>
<defs>
<clipPath id="clip0_868_2979">
<rect width="39" height="39" fill="white" transform="translate(15 15)"/>
</clipPath>
</defs>
</svg>
