<svg width="70" height="70" viewBox="0 0 70 70" fill="none" xmlns="http://www.w3.org/2000/svg">
<g clip-path="url(#clip0_868_2278)">
<path fill-rule="evenodd" clip-rule="evenodd" d="M27.6393 30.2461C27.6139 30.2959 27.5631 30.3707 27.5039 30.4621C27.5039 30.4372 27.58 30.3126 27.6393 30.2461Z" fill="white"/>
<path fill-rule="evenodd" clip-rule="evenodd" d="M24.3313 33.5039C24.3059 33.587 24.2298 33.8529 24.2129 33.8196C24.2636 33.6701 24.289 33.6119 24.3313 33.5039Z" fill="white"/>
<path fill-rule="evenodd" clip-rule="evenodd" d="M24.1452 33.9375C24.1452 33.9375 24.0691 34.1618 24.0352 34.2615C24.0183 34.2532 24.1114 33.9957 24.1452 33.9375Z" fill="white"/>
<path fill-rule="evenodd" clip-rule="evenodd" d="M23.9342 35.293C23.9173 35.3594 23.8665 35.5339 23.8242 35.6087C23.8242 35.5838 23.9088 35.3927 23.9342 35.293Z" fill="white"/>
<path fill-rule="evenodd" clip-rule="evenodd" d="M23.468 35.7656C23.4426 35.8736 23.375 36.0564 23.2734 36.2891C23.2904 36.1977 23.4003 35.9484 23.468 35.7656Z" fill="white"/>
<path fill-rule="evenodd" clip-rule="evenodd" d="M23.9502 37.832C23.7979 38.1062 23.468 38.6795 23.2734 38.8374C23.5611 38.5466 23.7472 38.1394 23.9502 37.832Z" fill="white"/>
<path fill-rule="evenodd" clip-rule="evenodd" d="M23.0205 38.2422C22.919 38.4 22.7498 38.5995 22.5806 38.8155C22.3945 39.0149 22.1661 39.1977 21.9969 39.3638C21.9208 39.3804 22.5214 38.8986 22.5806 38.7656C22.6398 38.6908 22.7075 38.6244 22.7752 38.5496C22.8598 38.4416 22.919 38.3419 23.0205 38.2422Z" fill="white"/>
<path fill-rule="evenodd" clip-rule="evenodd" d="M19.3398 40.8516C19.3398 40.8516 19.3313 40.8848 19.2129 40.9346C19.179 40.943 19.1621 40.9346 19.1621 40.9346L19.3398 40.8599V40.8516Z" fill="white"/>
<path fill-rule="evenodd" clip-rule="evenodd" d="M17.6489 41.7383C17.3698 41.8629 16.7099 42.0789 16.3377 42.1703C16.2869 42.1869 16.2869 42.1952 16.1939 42.2202C15.9739 42.2866 15.4748 42.4196 15.957 42.2783C16.5407 42.0955 17.0145 41.9626 17.6489 41.7383Z" fill="white"/>
<path fill-rule="evenodd" clip-rule="evenodd" d="M17.3273 41.5312C17.2596 41.5645 17.1497 41.5977 17.0059 41.6476C17.0397 41.6226 17.2766 41.5396 17.3273 41.5312Z" fill="white"/>
<path fill-rule="evenodd" clip-rule="evenodd" d="M17.1326 42.4219C17.0819 42.4551 16.8365 42.5216 16.7012 42.5631C16.7942 42.5216 17.0226 42.4468 17.1326 42.4219Z" fill="white"/>
<path fill-rule="evenodd" clip-rule="evenodd" d="M17.0143 41.7383C16.9044 41.7881 16.6421 41.8712 16.5068 41.9294C16.3714 41.946 16.8367 41.8047 17.0143 41.7383Z" fill="white"/>
<path fill-rule="evenodd" clip-rule="evenodd" d="M16.7771 41.7305C16.6925 41.7803 16.4218 41.8634 16.2188 41.9216C16.4472 41.8468 16.5994 41.7969 16.7771 41.7305Z" fill="white"/>
<path fill-rule="evenodd" clip-rule="evenodd" d="M16.7173 42.7031C16.7173 42.7031 16.5143 42.7779 16.3789 42.8278C16.4043 42.8028 16.5989 42.753 16.7173 42.7031Z" fill="white"/>
<path fill-rule="evenodd" clip-rule="evenodd" d="M16.4644 42.6289C16.3121 42.6871 15.7707 42.8449 15.5 42.9031C15.8891 42.7868 16.1006 42.7286 16.4644 42.6289Z" fill="white"/>
<path fill-rule="evenodd" clip-rule="evenodd" d="M16.1253 41.9453C15.8884 42.0367 15.5331 42.1281 15.3301 42.1696C15.55 42.1032 15.88 42.0284 16.1253 41.9453Z" fill="white"/>
<path fill-rule="evenodd" clip-rule="evenodd" d="M15.5752 42.3867C15.4821 42.42 15.3298 42.4615 15.1945 42.503C15.1606 42.4864 15.4144 42.4283 15.5752 42.3867Z" fill="white"/>
<path fill-rule="evenodd" clip-rule="evenodd" d="M15.1444 42.4375C15.0344 42.479 14.9329 42.4957 14.7637 42.5372C14.7975 42.5123 15.0344 42.4707 15.1444 42.4375Z" fill="white"/>
<path fill-rule="evenodd" clip-rule="evenodd" d="M14.7122 42.4688C14.6614 42.502 14.3061 42.5851 14.3738 42.5352C14.4753 42.5103 14.4668 42.5269 14.4668 42.5352C14.5683 42.5103 14.5683 42.5103 14.7037 42.4688H14.7122Z" fill="white"/>
<path fill-rule="evenodd" clip-rule="evenodd" d="M13.8086 43.1497C14.46 43.0167 14.0455 43.0749 13.8086 43.1497Z" fill="white"/>
<path fill-rule="evenodd" clip-rule="evenodd" d="M13.3181 43.4766C13.1235 43.5347 12.9205 43.568 12.6836 43.6012C12.8782 43.5596 13.1912 43.5015 13.3181 43.4766Z" fill="white"/>
<path fill-rule="evenodd" clip-rule="evenodd" d="M13.173 43.543C13.2492 43.543 12.8516 43.6261 12.9277 43.5928L13.173 43.543Z" fill="white"/>
<path fill-rule="evenodd" clip-rule="evenodd" d="M12.7668 43.9414C12.6991 43.9663 12.5468 43.9996 12.4199 44.0162C12.4538 43.9913 12.7075 43.9414 12.7668 43.9414Z" fill="white"/>
<path fill-rule="evenodd" clip-rule="evenodd" d="M11.3799 44.1562C10.9569 44.2476 10.7962 44.2393 11.3799 44.1562Z" fill="white"/>
<path fill-rule="evenodd" clip-rule="evenodd" d="M22.2002 40.4609C22.1325 40.5191 22.031 40.5939 21.9887 40.6437C21.8364 40.7268 21.5995 40.9179 21.3965 41.0093C21.6164 40.8597 21.8787 40.7102 22.2002 40.4609Z" fill="white"/>
<path fill-rule="evenodd" clip-rule="evenodd" d="M16.7934 42.4123C16.6919 42.4372 16.6834 42.4455 16.5565 42.4787C16.5396 42.4787 16.5988 42.4538 16.5988 42.4455C16.3535 42.5203 16.2266 42.5535 16.0236 42.6117C16.049 42.6034 16.0743 42.5867 16.0743 42.5784C15.8121 42.6864 15.4822 42.728 14.9238 42.8858C15.4568 42.7197 16.6581 42.4123 17.1233 42.2461C17.0641 42.2876 16.6411 42.404 16.6073 42.4455C16.6073 42.4704 16.8695 42.3624 16.8019 42.4123H16.7934Z" fill="white"/>
<path fill-rule="evenodd" clip-rule="evenodd" d="M16.1255 42.0228C16.1002 42.0394 16.0748 42.0394 16.1255 42.0228C16.1171 42.0394 15.9225 42.0809 15.8887 42.0892C15.9394 42.056 16.5654 41.8898 16.1255 42.0145V42.0228Z" fill="white"/>
<path fill-rule="evenodd" clip-rule="evenodd" d="M12.607 42.9275V42.9026C12.3024 42.9607 11.8033 43.0521 11.5918 43.0688C11.9556 42.994 12.7338 42.8943 12.9876 42.8029C13.0807 42.7863 13.1399 42.778 13.2245 42.7696C14.062 42.5619 14.9841 42.3792 15.8385 42.1133C15.4663 42.2878 14.5611 42.429 14.1297 42.5952C14.0536 42.6118 14.1297 42.5952 14.1804 42.5786C13.7913 42.6699 13.0892 42.8029 12.5985 42.9358L12.607 42.9275Z" fill="white"/>
<path fill-rule="evenodd" clip-rule="evenodd" d="M13.0726 43.6172C12.9541 43.6504 12.8865 43.667 12.7765 43.7003C12.7342 43.7003 12.9711 43.6255 13.0726 43.6172Z" fill="white"/>
<path fill-rule="evenodd" clip-rule="evenodd" d="M32.546 44.1149C32.3937 44.0733 32.2753 43.9902 32.1315 43.9321C31.8608 43.7161 31.6324 43.5167 31.4293 43.1677C31.2348 42.8852 31.0486 42.5695 30.9218 42.179C30.8118 41.8965 30.7864 41.7885 30.7272 41.5808C30.6426 41.2817 30.5749 40.9909 30.5241 40.7167C30.4734 40.4508 30.4142 40.2348 30.3634 40.0936C30.2365 39.6117 30.1181 39.0135 30.025 38.5897C30.0081 38.4817 29.9912 38.3986 29.9912 38.3571C29.7543 37.2853 29.509 36.6372 29.3652 35.366C29.3229 35.258 29.2721 35.1832 29.2129 34.9672C29.1875 34.8675 29.1706 34.6515 29.1537 34.585C29.0776 34.3275 28.976 34.5518 28.9337 34.0782C28.9168 34.0533 28.9084 34.1364 28.8914 34.1613C28.7392 34.1364 28.6123 34.3358 28.4938 34.2112C28.4177 34.5601 28.3416 34.4853 28.2823 34.7595C28.2485 34.9257 28.2231 35.258 28.1893 35.474C28.1639 35.7316 28.1385 35.931 28.1132 36.1886C28.0624 36.1886 28.0878 36.5043 28.0539 36.5708C28.0539 36.9529 28.0539 37.2437 28.0709 37.6342C28.0624 37.6758 28.0624 37.7672 28.0455 37.7755C28.0709 38.5897 28.0878 39.4206 28.24 40.5256C28.257 40.6253 28.2908 40.8413 28.3077 40.9576C28.3669 41.3481 28.4854 41.8965 28.6038 42.4116C28.7476 42.9267 28.8745 43.3837 28.976 43.633C29.0522 43.7908 29.0522 43.7908 29.1368 43.9487C29.1368 44.065 29.3821 44.5635 29.6782 44.954C29.7966 45.0786 30.0166 45.2947 30.3042 45.5356C30.7441 45.8929 31.1925 46.2335 31.6662 46.3997C31.8862 46.4828 32.123 46.5326 32.3514 46.5742C32.9521 46.7403 34.0772 46.8234 34.5002 46.8151C34.8555 46.8317 34.9739 46.84 35.2277 46.8317C35.4646 46.8151 35.6253 46.7736 35.5999 46.732C35.9214 46.6656 36.4882 46.6157 37.0804 46.5742L37.3003 46.5576H37.4103L37.5964 46.5243C37.8417 46.4994 38.0786 46.4329 38.2986 46.3498C38.7385 46.1837 39.0684 45.9261 39.3053 45.7018C40.0328 45.062 40.3627 44.3309 40.6757 43.6662C40.7349 43.5333 40.8195 43.3754 40.8787 43.2342C40.9718 43.0015 41.0649 42.6858 41.1579 42.3867C41.3102 41.8716 41.4371 41.4229 41.5217 40.9992C41.7332 40.3594 41.7586 39.8692 41.8601 39.3292C41.8854 39.2045 41.9277 39.0218 41.9531 38.8805C41.9531 38.8473 41.9531 38.8057 41.9531 38.7642C41.9531 38.7227 41.9785 38.706 41.987 38.6728C41.987 38.6479 41.987 38.6063 41.987 38.5897C41.987 38.5648 42.0039 38.5731 42.0039 38.5399C42.0039 38.4983 41.9954 38.4235 41.9954 38.382V38.2241L42.0123 38.1494L42.0377 38.1992C42.0377 38.1992 42.0546 38.2158 42.0631 38.2241C42.1054 38.3903 42.1477 38.4568 42.2154 38.5482C42.2492 38.5897 42.2746 38.6479 42.3169 38.6977C42.3338 38.7227 42.3592 38.7476 42.3761 38.7725C42.4692 38.8971 42.5707 39.0218 42.6722 39.1547C42.9006 39.4455 43.129 39.595 43.3913 39.8692C43.4589 39.9274 43.4674 39.9108 43.5605 40.0022C43.7127 40.1434 43.8396 40.2597 43.9834 40.3927C44.1357 40.509 44.3049 40.617 44.4656 40.725C44.7956 40.9327 45.1086 41.1903 45.447 41.3731C45.4723 41.3731 45.5062 41.3897 45.5485 41.4063C46.0138 41.6722 46.5382 41.9879 47.0712 42.179C47.3335 42.287 47.5872 42.3867 47.841 42.4864C48.0694 42.5529 48.2979 42.6193 48.5178 42.6775C49.1184 42.9184 49.8544 43.0431 50.6158 43.2009C50.9711 43.2674 51.3264 43.3256 51.6733 43.392C52.1216 43.4419 52.5954 43.4917 53.0776 43.5416C53.6951 43.5665 54.3042 43.5914 54.8372 43.6164C55.1417 43.6247 55.387 43.5914 55.6662 43.5914C55.92 43.5914 56.1738 43.5831 56.4445 43.5748C56.6729 43.5499 56.8844 43.525 57.1213 43.5C57.9334 43.3505 58.3564 43.1428 58.7032 42.8769C58.7878 42.8021 58.8809 42.719 58.9485 42.5695C58.9824 42.4947 59.0078 42.3867 59.0078 42.3036C59.0078 42.2039 58.9655 42.2205 58.9401 42.1707C58.8301 42.0544 58.7286 41.938 58.6271 41.83C58.5679 41.7636 58.5002 41.7054 58.4325 41.6389L58.3225 41.5392L58.2633 41.4894C58.2633 41.4894 58.2379 41.4561 58.1364 41.4229C57.1297 41.0075 56.2415 40.5671 55.1671 40.1351C54.9133 40.0437 54.5749 39.9108 54.338 39.8277C54.0166 39.6864 53.7289 39.5618 53.4159 39.4289C53.2383 39.3458 53.0522 39.271 52.8661 39.1796C51.944 38.7476 51.0134 38.3072 50.2267 37.7921C49.1692 37.2188 47.7311 36.1636 46.9443 35.1583C46.7328 34.9589 46.6059 34.718 46.479 34.4853C46.4198 34.3939 46.3944 34.3025 46.3437 34.2112L46.3014 34.0865V34.0533L46.2675 33.9287C46.1914 33.6046 46.1068 33.3221 46.0138 33.023C45.8361 32.4331 45.6246 31.8432 45.4216 31.3115C44.9478 30.2148 44.3895 29.1097 43.442 28.146C43.2136 27.905 42.926 27.689 42.6299 27.4896L42.1308 27.232C41.97 27.1573 41.8685 27.1157 41.7247 27.0576C41.2087 26.8415 40.6842 26.5757 40.0835 26.343C38.8738 25.8611 37.5626 25.7448 36.3698 25.7365C35.16 25.7199 33.9926 25.803 32.8421 25.9027C32.4783 25.9193 31.9369 25.9525 31.5901 26.0273C31.5139 26.0273 31.294 26.0605 31.1163 26.0855C30.5072 26.1935 29.7289 26.4095 29.0183 26.7584C28.8576 26.8914 28.4092 27.0825 28.1808 27.2819C28.0709 27.34 28.3077 27.1573 28.1301 27.2819C28.037 27.3733 27.8847 27.5145 27.6986 27.6724C27.5971 27.7555 27.4956 27.8385 27.3941 27.9299C27.301 28.038 27.1995 28.1377 27.1065 28.2457C26.6835 28.6611 26.3535 29.1762 26.1505 29.4919C26.1844 29.4504 26.1928 29.4421 26.159 29.5002C26.0321 29.6415 26.0405 29.7329 25.939 29.9074C25.2792 31.0789 25.0338 31.9845 24.687 33.0147C24.6362 33.1394 24.4755 33.48 24.467 33.6046C24.5347 33.4218 24.6193 33.1809 24.6447 33.2058C24.5263 33.5132 24.3994 33.9204 24.3486 34.1364C24.2217 34.5186 24.1371 34.7014 24.0356 35.042C24.0018 35.1251 24.0948 34.9755 24.0356 35.15C23.8326 35.6734 23.7395 35.931 23.5449 36.3797C23.5111 36.5209 23.2658 37.0443 23.1727 37.1939C23.105 37.3351 23.2742 37.0527 23.215 37.169C22.9951 37.5429 22.8174 37.925 22.5382 38.2075C22.4875 38.2906 22.4621 38.3571 22.3606 38.4817C22.2929 38.5648 22.3606 38.4402 22.2675 38.5731C22.166 38.6894 22.3691 38.5066 22.3521 38.5399C22.2168 38.7143 22.2422 38.6811 22.1829 38.7725C21.9376 38.9636 21.8276 39.1547 21.5908 39.3209C21.3539 39.4953 21.1001 39.6947 20.8548 39.8443C20.6433 39.9772 20.5672 40.0437 20.3303 40.1849C20.1357 40.3013 19.9496 40.3594 19.7212 40.4757C19.6028 40.5422 19.8142 40.4591 19.6451 40.5422C18.8498 40.941 18.0208 41.2567 17.4117 41.506C18.3423 41.1155 19.0613 40.9078 19.8227 40.4674C19.9496 40.4259 20.1695 40.2846 20.3049 40.2431C20.3472 40.2016 20.1695 40.293 20.3387 40.1933C20.398 40.16 20.4233 40.1517 20.5079 40.1019C20.4149 40.1933 20.5756 40.1019 20.6517 40.0769C20.9817 39.8942 21.2524 39.7031 21.5062 39.5037C21.7769 39.3292 21.9884 39.1132 22.2252 38.8971C22.3098 38.814 22.1491 38.9387 22.2506 38.8473C22.4367 38.6894 22.5382 38.5399 22.7159 38.3155C22.792 38.2657 22.9189 38.1244 22.8766 38.2158C22.3944 38.9387 21.4639 39.7031 20.5502 40.2182C20.2795 40.3927 19.9665 40.5007 19.8227 40.617C20.2457 40.4093 20.5925 40.2431 20.9478 40.0437C21.3962 39.7612 21.8446 39.4123 22.2168 39.0633C22.3098 38.9802 22.3944 38.9138 22.4706 38.8473C22.5552 38.7808 22.6313 38.623 22.7159 38.5399C22.792 38.4402 22.809 38.4485 22.8766 38.3654C23.0204 38.1992 23.0966 38.0497 23.215 37.8336C23.435 37.493 23.638 37.1524 23.8241 36.7369C23.8664 36.6705 23.8749 36.712 23.841 36.8034C23.6126 37.2853 23.5788 37.3684 23.2912 37.8253C23.325 37.7755 23.3504 37.7423 23.3588 37.7589C23.2742 37.9001 23.2319 37.95 23.1896 38.0497C23.4011 37.7007 23.4181 37.7589 23.3673 37.8918C22.8513 38.7725 21.8869 39.62 21.1678 40.0437C21.0917 40.1019 21.0494 40.1434 20.9225 40.2265C20.1273 40.7416 19.1459 41.1487 18.2069 41.5226C19.2982 41.1404 20.4064 40.6419 21.5062 39.8609C21.5485 39.836 21.5316 39.8692 21.6331 39.7944C21.8699 39.6283 22.1068 39.4372 22.3183 39.2212C22.5382 39.0301 22.7413 38.8307 22.8682 38.6396C23.012 38.5066 23.1473 38.3654 23.2996 38.2325C24.061 37.0277 24.4924 36.0889 24.9492 34.8509C24.9662 34.8592 25.0085 34.7678 25.0338 34.7346C25.0169 34.8426 25.0085 34.9174 24.9746 35.0337C24.8985 35.2414 24.8308 35.4491 24.7547 35.6319C24.4078 36.6871 23.7734 38.2491 22.6651 39.3042C22.5552 39.4455 22.6651 39.3707 22.7836 39.3042C23.0627 39.0716 23.2489 38.7642 23.4773 38.49C23.6549 38.2158 23.7987 37.9832 24.0525 37.5844C24.2302 37.3767 24.171 37.6509 23.858 38.1577C23.7903 38.2657 23.7226 38.3737 23.6549 38.4983C23.5619 38.6146 23.4688 38.731 23.3673 38.8556C23.2658 38.9802 23.1643 39.1048 23.0627 39.2295C22.9528 39.3458 22.8259 39.4538 22.7074 39.5618C22.2506 40.0188 21.743 40.3013 21.4893 40.4924C19.0867 42.0211 16.4304 42.7523 13.7148 43.3837C15.246 43.0763 16.625 42.6526 17.9616 42.2122C17.9531 42.2039 17.9954 42.179 18.1054 42.1457C19.4082 41.6888 20.8294 41.0324 21.853 40.2763C22.3183 40.0188 23.0881 39.3042 23.4434 38.8556C23.4096 39.0051 23.1558 39.404 22.7244 39.7861C23.1727 39.4123 23.5365 38.9636 23.8495 38.5731C24.061 38.2325 24.4078 37.6342 24.484 37.4681C24.5093 37.4265 24.484 37.5179 24.5178 37.4348C24.4501 37.5761 24.6362 37.1773 24.6532 37.1524C24.7378 36.9529 24.7293 36.9696 24.8139 36.7702C24.9323 36.4877 24.9323 36.4877 25.0169 36.3132C25.423 35.3245 25.7106 34.3607 26.0659 33.4218C26.0998 33.3221 26.1674 33.1311 26.1759 33.1061C26.2097 33.0147 26.1928 33.0978 26.2436 32.9815C26.269 32.915 26.2436 32.94 26.2859 32.8486C26.4381 32.4913 26.5904 32.0759 26.7512 31.7435C27.1149 30.8628 27.6986 29.9572 28.1808 29.4338C28.2908 29.3175 28.1639 29.4836 28.3077 29.3258C29.1368 28.4368 30.2873 27.8552 31.6324 27.689C31.7339 27.6724 31.6577 27.7139 31.8016 27.689C31.9877 27.6641 31.9284 27.6391 32.1061 27.6225C32.2245 27.6225 32.3261 27.6225 32.3937 27.6225C34.1026 27.5062 35.896 27.3483 37.5456 27.4896C38.3155 27.5644 39.0007 27.7056 39.6859 27.9964C40.0328 28.1377 40.3965 28.3121 40.7857 28.4866L41.3694 28.7359C41.5555 28.8189 41.6232 28.8688 41.7586 28.927C42.503 29.4172 43.1375 30.3643 43.5435 31.2866C43.8481 31.9014 44.085 32.5162 44.2795 33.131C44.381 33.4385 44.4656 33.7459 44.5418 34.045C44.5925 34.2278 44.5756 34.2444 44.6687 34.585C44.7448 34.826 44.8294 35.0254 44.9309 35.2165C45.5062 36.3215 46.3944 37.144 47.0966 37.7339C47.2066 37.817 47.3927 37.9583 47.5196 38.0497C47.7311 38.2325 47.951 38.3903 48.171 38.5482C48.467 38.7642 48.7801 38.9636 49.1015 39.1464C49.4145 39.3375 49.7275 39.5286 50.049 39.6947C50.7511 40.1019 51.4448 40.4342 52.1554 40.7749C52.35 40.8746 52.5615 40.9493 52.7561 41.0324C52.8153 41.049 52.8745 41.074 52.9253 41.0906C53.0014 41.1238 53.0522 41.1653 53.1199 41.1903C53.3398 41.2651 53.5682 41.3398 53.7797 41.4146L53.9489 41.4811C53.9489 41.4811 54.0927 41.4977 54.0673 41.5808C53.9574 41.6805 53.8051 41.6639 53.7205 41.6888C53.3567 41.6888 53.0183 41.6805 52.7222 41.6639C52.7476 41.6306 52.1216 41.5891 51.7071 41.5143C51.2587 41.4395 50.785 41.3814 50.3112 41.2484C50.2351 41.2235 50.1336 41.1986 50.049 41.1737C48.6193 40.7915 47.1135 40.2016 46.1491 39.5535C45.7853 39.3209 45.4808 39.1048 45.1847 38.8473C44.8802 38.5482 44.5587 38.3072 44.2795 38.0081C44.2118 37.9167 44.1188 37.7921 44.0427 37.6924C43.9411 37.5761 43.8481 37.4598 43.755 37.3351C43.6197 37.1939 43.5097 36.9945 43.3913 36.8117L43.2136 36.5292L43.036 36.1221C42.9175 35.8396 42.7906 35.5571 42.6722 35.2663C42.3423 34.4853 41.9785 33.6212 41.6401 32.7738C41.3271 31.9596 41.0395 31.2118 40.7011 30.356C40.6926 30.464 40.6842 30.5803 40.6673 30.705C40.6334 30.8379 40.6165 31.2533 40.5911 31.6272C40.5657 32.0426 40.5404 32.4664 40.515 32.8901C40.4727 33.7708 40.4304 34.5767 40.3881 35.4823C40.3373 36.1055 40.2697 36.6871 40.202 37.277L40.0835 38.1494L39.982 38.814C39.8805 39.4372 39.7621 40.0603 39.6013 40.6668C39.4914 41.0823 39.356 41.4395 39.2545 41.8466C39.0853 42.2455 38.9246 42.7357 38.6877 43.1677C38.4593 43.5914 38.1717 43.9985 37.884 44.2063C37.7825 44.2893 37.681 44.3475 37.5879 44.3807C37.5372 44.3807 37.4949 44.4306 37.4526 44.4223C37.3849 44.4223 37.4018 44.4389 37.258 44.4472C36.8012 44.4721 36.3782 44.497 36.0568 44.4804C35.7691 44.3641 35.2277 44.6051 34.6017 44.5801C34.2718 44.5469 34.3141 44.522 34.1787 44.4638C33.8995 44.4306 33.6458 44.4223 33.4004 44.3973C33.1213 44.3309 32.9267 44.2395 32.6306 44.1149H32.546ZM23.2658 37.3102C23.2658 37.3102 23.2489 37.3102 23.2319 37.3434C23.2658 37.2437 23.3927 37.061 23.2658 37.3102ZM23.2235 37.4016C23.1304 37.5595 23.0035 37.7755 22.8936 37.9666C22.7751 38.1577 22.6313 38.3072 22.5382 38.4152C22.4875 38.4734 22.6059 38.382 22.5382 38.4817C22.4283 38.6063 22.2929 38.7476 22.073 38.9304C22.0307 38.9138 22.4621 38.5399 22.4283 38.4734C22.5636 38.3072 22.6398 38.2241 22.6821 38.1411C22.9697 37.8004 22.9612 37.6758 23.1643 37.4016C23.1389 37.493 23.215 37.3601 23.2319 37.4016H23.2235Z" fill="white"/>
<path fill-rule="evenodd" clip-rule="evenodd" d="M24.0703 42.9766C24.1211 42.9766 24.2057 43.0015 24.2987 43.0264C24.2733 43.0264 24.138 43.0098 24.0703 42.9766Z" fill="white"/>
<path fill-rule="evenodd" clip-rule="evenodd" d="M26.7344 45.6602C26.8021 45.6768 26.9966 45.7432 26.9628 45.7599C26.8528 45.7183 26.8105 45.6934 26.7344 45.6602Z" fill="white"/>
<path fill-rule="evenodd" clip-rule="evenodd" d="M27.0469 45.832C27.0469 45.832 27.2161 45.8985 27.2837 45.9234C27.2753 45.9317 27.0892 45.857 27.0469 45.832Z" fill="white"/>
<path fill-rule="evenodd" clip-rule="evenodd" d="M28.0879 46.0156C28.1386 46.0322 28.274 46.0821 28.3248 46.1153C28.2994 46.1153 28.164 46.0406 28.0879 46.0156Z" fill="white"/>
<path fill-rule="evenodd" clip-rule="evenodd" d="M28.4004 46.4492C28.485 46.4741 28.6288 46.524 28.8065 46.6154C28.7388 46.5988 28.5442 46.5074 28.4004 46.4492Z" fill="white"/>
<path fill-rule="evenodd" clip-rule="evenodd" d="M30.1348 45.8242C30.3378 45.9239 30.7692 46.1067 30.8961 46.2064C30.6593 46.0652 30.3547 45.9572 30.1348 45.8242Z" fill="white"/>
<path fill-rule="evenodd" clip-rule="evenodd" d="M30.4141 46.5977C30.6848 46.689 31.1078 46.9632 31.4377 47.1045C31.4715 47.1543 30.9639 46.8635 30.8624 46.8386C30.8032 46.8054 30.744 46.7638 30.6763 46.7306C30.5833 46.689 30.4987 46.6641 30.4141 46.606V46.5977Z" fill="white"/>
<path fill-rule="evenodd" clip-rule="evenodd" d="M33.4258 48.2857C33.4258 48.2857 33.4512 48.269 33.5358 48.3189C33.5611 48.3355 33.5611 48.3521 33.5527 48.3521L33.4258 48.2773V48.2857Z" fill="white"/>
<path fill-rule="evenodd" clip-rule="evenodd" d="M34.7702 48.8086C34.9817 48.9 35.43 49.1576 35.6669 49.3154C35.7007 49.332 35.7092 49.3237 35.7684 49.3653C35.9207 49.4483 36.2422 49.6478 35.9207 49.465C35.5146 49.2489 35.2101 49.0495 34.7617 48.8086H34.7702Z" fill="white"/>
<path fill-rule="evenodd" clip-rule="evenodd" d="M34.7715 49.1484C34.8222 49.1651 34.9068 49.2149 34.9999 49.2648C34.9661 49.2648 34.8053 49.1734 34.7715 49.1484Z" fill="white"/>
<path fill-rule="evenodd" clip-rule="evenodd" d="M35.4727 48.6484C35.515 48.6567 35.6757 48.7648 35.7603 48.8146C35.6926 48.7814 35.5319 48.7066 35.4727 48.6484Z" fill="white"/>
<path fill-rule="evenodd" clip-rule="evenodd" d="M35.0586 49.1992C35.1432 49.2325 35.3208 49.3405 35.4224 49.382C35.4985 49.4568 35.177 49.2657 35.0586 49.1992Z" fill="white"/>
<path fill-rule="evenodd" clip-rule="evenodd" d="M35.1602 49.3555C35.2363 49.3721 35.4139 49.4884 35.5493 49.5632C35.4562 49.5299 35.2871 49.4219 35.1602 49.3555Z" fill="white"/>
<path fill-rule="evenodd" clip-rule="evenodd" d="M35.8535 48.707C35.8535 48.707 35.9973 48.7735 36.0904 48.8233C36.065 48.8233 35.9297 48.7486 35.8535 48.707Z" fill="white"/>
<path fill-rule="evenodd" clip-rule="evenodd" d="M35.9219 48.9062C36.0319 48.9561 36.3956 49.1638 36.5648 49.2718C36.3364 49.1472 36.1672 49.0475 35.9219 48.9062Z" fill="white"/>
<path fill-rule="evenodd" clip-rule="evenodd" d="M35.6172 49.6055C35.7948 49.6802 36.0232 49.8381 36.1586 49.9212C35.9979 49.8464 35.7948 49.6886 35.6172 49.6055Z" fill="white"/>
<path fill-rule="evenodd" clip-rule="evenodd" d="M36.1836 49.6055C36.2513 49.6304 36.3528 49.6969 36.4458 49.7467C36.4458 49.7799 36.2851 49.6719 36.1836 49.6055Z" fill="white"/>
<path fill-rule="evenodd" clip-rule="evenodd" d="M36.4297 49.8203C36.5143 49.8535 36.5735 49.8951 36.6835 49.9699C36.6496 49.9699 36.5058 49.8619 36.4297 49.8203Z" fill="white"/>
<path fill-rule="evenodd" clip-rule="evenodd" d="M36.666 50.0547C36.7083 50.0547 36.9452 50.2042 36.8775 50.1959C36.8098 50.1544 36.8267 50.1544 36.8267 50.1461C36.7506 50.0962 36.7506 50.1128 36.666 50.0547Z" fill="white"/>
<path fill-rule="evenodd" clip-rule="evenodd" d="M37.5716 50.0624C37.4024 49.9876 37.1571 49.7965 37.5716 50.0624Z" fill="white"/>
<path fill-rule="evenodd" clip-rule="evenodd" d="M38.0371 50.0859C38.1725 50.1524 38.2994 50.2355 38.4516 50.3352C38.3501 50.2853 38.0963 50.1275 38.0371 50.0859Z" fill="white"/>
<path fill-rule="evenodd" clip-rule="evenodd" d="M38.1555 50.1128C38.1216 50.0712 38.3754 50.2208 38.3162 50.2125L38.1555 50.1128Z" fill="white"/>
<path fill-rule="evenodd" clip-rule="evenodd" d="M38.6191 50.0273C38.6699 50.044 38.7714 50.1021 38.8475 50.152C38.8137 50.152 38.653 50.0523 38.6191 50.0273Z" fill="white"/>
<path fill-rule="evenodd" clip-rule="evenodd" d="M39.4824 50.6016C39.8377 50.8342 39.7616 50.7428 39.4824 50.6016Z" fill="white"/>
<path fill-rule="evenodd" clip-rule="evenodd" d="M32.2585 46.4141C32.3177 46.439 32.3938 46.4722 32.4361 46.4805C32.5292 46.5553 32.7237 46.6384 32.8506 46.7215C32.673 46.655 32.5122 46.5221 32.25 46.4141H32.2585Z" fill="white"/>
<path fill-rule="evenodd" clip-rule="evenodd" d="M35.6249 48.8677C35.701 48.9093 35.6841 48.9176 35.7772 48.9674C35.7772 48.9841 35.7433 48.9591 35.7349 48.9674C35.9041 49.0672 35.9886 49.1087 36.124 49.1835C36.1071 49.1835 36.0817 49.1752 36.0817 49.1835C36.2763 49.2582 36.4624 49.4327 36.8431 49.6404C36.4708 49.4576 35.6841 48.9674 35.3711 48.793C35.4303 48.793 35.6926 48.9758 35.7433 48.9758C35.7602 48.9674 35.5657 48.8677 35.6333 48.8761L35.6249 48.8677Z" fill="white"/>
<path fill-rule="evenodd" clip-rule="evenodd" d="M35.6674 49.5402C35.6843 49.5402 35.8112 49.615 35.8282 49.6316C35.7774 49.6316 35.3629 49.3741 35.6674 49.5402Z" fill="white"/>
<path fill-rule="evenodd" clip-rule="evenodd" d="M38.0446 50.8869L38.0276 50.9035C38.2307 51.0281 38.5521 51.2192 38.6706 51.3189C38.4252 51.186 37.943 50.837 37.7569 50.7706C37.6977 50.729 37.6723 50.7124 37.6047 50.6626C37.0294 50.3552 36.4457 49.9647 35.8535 49.6406C36.1496 49.7403 36.691 50.1641 37.0209 50.2804C37.0632 50.3136 37.0209 50.2804 36.9871 50.2638C37.2409 50.4133 37.6893 50.7041 38.0361 50.8786L38.0446 50.8869Z" fill="white"/>
<path fill-rule="evenodd" clip-rule="evenodd" d="M38.248 50.1133C38.3073 50.1299 38.3919 50.1881 38.4511 50.213C38.4765 50.2296 38.2988 50.1631 38.248 50.1133Z" fill="white"/>
<path fill-rule="evenodd" clip-rule="evenodd" d="M47.8919 51.3254C47.7481 51.3753 47.5958 51.4417 47.4435 51.4833C47.3589 51.5082 47.2743 51.5248 47.1813 51.5497C47.139 51.5497 47.1897 51.5497 47.139 51.5497C46.9529 51.5497 46.7921 51.5664 46.5806 51.5747C46.2338 51.5996 45.9123 51.6328 45.5486 51.6328C45.3117 51.6328 45.1932 51.6411 45.0156 51.6494C44.4911 51.6577 44.0681 51.6245 43.8397 51.6661C43.4759 51.6827 43.0107 51.6661 42.6977 51.6577C42.6469 51.6577 42.5454 51.6411 42.52 51.6411C41.7163 51.6079 41.1918 51.6827 40.3036 51.45C40.219 51.45 40.1513 51.4833 39.9906 51.4666C39.9144 51.4666 39.7706 51.4085 39.7199 51.4002C39.5168 51.3836 39.6268 51.5414 39.28 51.4251C39.2546 51.4251 39.3053 51.4666 39.3138 51.4833C39.2207 51.6079 39.2969 51.7824 39.1531 51.8405C39.3561 52.0233 39.2715 52.0732 39.4322 52.231C39.5337 52.3307 39.7706 52.4554 39.9144 52.5551C40.0836 52.6714 40.2782 52.7545 40.422 52.8459C40.4051 52.8874 40.6504 52.9705 40.6843 53.0203C40.9719 53.1117 41.1918 53.2197 41.4964 53.2945C41.5218 53.3111 41.5894 53.3361 41.5979 53.3527C42.2239 53.5521 42.8668 53.7182 43.7382 53.8096C43.8228 53.8096 43.992 53.8346 44.085 53.8429C44.7364 53.8844 45.7262 53.9093 46.0646 53.9592C46.183 53.9592 46.183 53.9509 46.293 53.9509C46.3691 53.9758 46.716 54.0257 47.0121 54.009C47.1305 53.9924 47.2236 53.9924 47.7058 53.8927C48.1203 53.7764 48.3995 53.7432 48.704 53.6352C48.8394 53.5853 48.9747 53.5105 49.1101 53.4441C49.4738 53.2945 50.2098 53.012 50.5144 52.8708C50.7512 52.7628 50.8612 52.7545 51.0304 52.6465C51.1911 52.5551 51.2926 52.4554 51.2588 52.4221C51.6649 52.0981 52.8746 51.4002 53.3906 50.586C53.5937 50.3118 53.7798 50.0127 53.9151 49.6969C53.9997 49.3563 54.1605 49.0323 54.1605 48.675C54.1689 48.5338 54.1943 48.3676 54.1943 48.218C54.2281 47.9688 54.1097 47.678 54.0505 47.3872C53.9997 47.1379 53.9236 46.9136 53.8221 46.7391C53.729 46.548 53.636 46.3736 53.5429 46.1991C53.4414 45.9083 53.2637 45.7421 53.1284 45.5427C52.9677 45.3599 52.8577 45.1771 52.6631 45.011C52.5278 44.878 52.4093 44.7451 52.257 44.6038C52.1302 44.4792 51.9863 44.3878 51.8171 44.2798C51.648 44.1718 51.4872 44.0472 51.318 43.9475C51.1996 43.8644 51.0812 43.8561 50.9712 43.8062C50.8274 43.7481 50.7428 43.6982 50.5905 43.6484C50.4298 43.5819 50.2606 43.557 50.0914 43.5321C49.4907 43.3991 48.8224 43.3326 48.281 43.4324C47.2828 43.4739 46.4707 43.7481 45.4386 44.122C45.1509 44.2549 45.0325 44.313 44.7449 44.446C44.6857 44.4792 44.6941 44.4875 44.6095 44.5291C44.3473 44.6537 44.102 44.7949 43.8482 44.9528C43.7044 45.0442 43.6282 45.094 43.4336 45.227C43.2898 45.335 43.2137 45.3932 43.1037 45.4762C43.0953 45.4929 43.0783 45.5095 43.053 45.5344C42.4608 45.9415 41.691 46.4483 41.2257 46.7973C40.8281 47.005 40.422 47.3207 39.9483 47.5949C39.7368 47.7195 39.5168 47.8442 39.2969 47.9688C38.8908 48.2014 38.3409 48.5005 37.9433 48.7082C37.8503 48.7581 37.6895 48.8578 37.5965 48.9076C37.3765 49.0156 37.182 49.1153 36.9197 49.24C36.0484 49.6969 34.9909 50.1207 34.1873 50.4198C33.9758 50.5029 33.7135 50.6026 33.4513 50.7023C32.9944 50.8851 32.4953 50.9931 32.0216 51.1343C31.9201 51.1675 31.7763 51.2174 31.6832 51.2506C31.404 51.3503 31.1249 51.3753 30.8203 51.45C30.0843 51.6328 29.3399 51.7491 28.6293 51.8156C28.1809 51.8821 27.631 51.8904 27.0558 51.9236C26.4805 51.907 25.8714 51.8987 25.3469 51.8488C25.1101 51.8488 24.8901 51.8073 24.6448 51.7824C23.8919 51.7159 22.9529 51.5497 22.2169 51.3088C20.6857 50.8518 19.1883 50.021 18.41 48.7415C18.317 48.5836 18.2324 48.4257 18.1647 48.2679C18.1393 48.2014 18.0886 48.0768 18.0886 48.0602C18.0716 47.9854 18.0547 47.894 18.0378 47.8026C17.9786 47.4453 17.9786 47.0715 18.0293 46.7225C18.1224 46.0246 18.4439 45.4264 18.9937 45.0193C19.0953 44.9694 19.2052 44.903 19.3152 44.8282C19.4167 44.7783 19.5352 44.7119 19.6451 44.662C19.6959 44.662 19.8059 44.5955 19.9074 44.5789C20.085 44.5125 20.2881 44.446 20.508 44.4044C20.7364 44.3712 20.9733 44.338 21.2271 44.3047C21.3455 44.2715 21.6331 44.3047 21.8108 44.2798C21.8869 44.3047 21.7093 44.2964 21.8362 44.313C21.98 44.2632 22.3438 44.313 22.716 44.3795C23.0882 44.4211 23.4858 44.5374 23.7396 44.6038C23.7058 44.5955 23.6973 44.5789 23.7396 44.5955C23.858 44.6454 23.9173 44.6288 24.0526 44.662C24.5094 44.77 24.8901 44.9113 25.2623 45.011C25.6346 45.1107 25.9983 45.227 26.379 45.3682C26.4721 45.4181 26.7089 45.5427 26.8104 45.5593C26.6751 45.5012 26.5059 45.4347 26.5228 45.4098C26.7428 45.5095 27.0473 45.6175 27.2081 45.659C27.4872 45.7753 27.6226 45.8584 27.8764 45.9498C27.9356 45.9747 27.8341 45.8917 27.961 45.9498C28.3416 46.1409 28.5531 46.1991 28.8915 46.3735C29.0015 46.3985 29.4076 46.5896 29.526 46.6643C29.6444 46.7059 29.416 46.5813 29.5091 46.6228C29.8221 46.7641 30.1182 46.897 30.3973 47.0548C30.4735 47.0798 30.5327 47.0881 30.6427 47.1462C30.7188 47.1878 30.6088 47.1629 30.7273 47.2127C30.8457 47.2543 30.6511 47.1462 30.6934 47.1379C30.8542 47.2127 30.8288 47.1795 30.9134 47.2044C31.1249 47.329 31.2856 47.3789 31.4886 47.4703C31.6917 47.5617 31.9116 47.6863 32.1146 47.786C32.2838 47.8691 32.3684 47.8857 32.5545 47.9937C32.7068 48.0768 32.8253 48.1682 32.9944 48.2513C33.0875 48.2928 32.9437 48.2014 33.0706 48.2679C33.6628 48.5836 34.2549 48.9076 34.7033 49.1237C34.0096 48.7913 33.5528 48.4673 32.9437 48.1931C32.8676 48.1183 32.673 48.0685 32.5968 47.9854C32.5461 47.9854 32.6814 48.0602 32.5461 47.9854C32.5038 47.9605 32.4869 47.9439 32.4192 47.9106C32.5207 47.9272 32.3938 47.8608 32.36 47.8109C31.8609 47.5367 31.4548 47.354 31.0149 47.1213C30.9303 47.0881 31.0656 47.1629 30.9641 47.1213C30.7865 47.0299 30.7019 46.9884 30.465 46.8804C30.4143 46.8305 30.2874 46.7557 30.372 46.7557C30.9641 47.0632 31.7932 47.4287 32.4869 47.8026C32.6984 47.9189 32.9014 48.0519 33.0452 48.0851C32.7237 47.9272 32.4953 47.7528 32.2246 47.6032C31.8778 47.4038 31.4717 47.2459 31.1333 47.0632C31.0572 47.0216 30.9726 46.9718 30.9134 46.9385C30.8626 46.9136 30.7019 46.8471 30.6427 46.8139C30.5581 46.7724 30.5581 46.7557 30.4904 46.7225C30.3381 46.6477 30.2112 46.6145 30.0505 46.5314C29.7713 46.3985 29.5091 46.2406 29.1961 46.0994C29.1453 46.0661 29.1791 46.0495 29.2553 46.0828C29.619 46.2572 29.6783 46.2905 30.0505 46.4649C30.0082 46.44 29.9913 46.4234 29.9913 46.4151C30.1012 46.4733 30.1435 46.4982 30.2281 46.5231C29.949 46.3902 29.9997 46.3569 30.1012 46.3902C30.7865 46.7308 31.6155 47.1462 32.1654 47.4537C32.2331 47.4786 32.2754 47.4786 32.3854 47.5284C33.0114 47.8442 33.6966 48.243 34.3649 48.6002C33.6374 48.1433 32.8337 47.7361 31.9454 47.2709C31.9116 47.2459 31.9454 47.2459 31.8609 47.2044C31.421 46.9801 31.0318 46.7973 30.7357 46.6477C30.6257 46.5646 30.5073 46.4733 30.3889 46.3819C29.4329 45.9332 28.79 45.5095 27.8594 45.1024C27.8679 45.0857 27.8002 45.0525 27.7748 45.0276C27.851 45.0442 27.9102 45.0525 28.0033 45.0774C28.1555 45.1439 28.3163 45.2021 28.4432 45.2768C29.2468 45.5759 30.3212 46.1409 31.2687 46.5979C31.3956 46.6311 31.3194 46.5646 31.2518 46.4982C30.8119 46.2489 30.372 46.0744 29.8982 45.8086C29.7544 45.659 29.9574 45.7089 30.3381 45.8833C30.9641 46.1741 32.0216 46.7391 32.4107 46.9551C34.2211 47.8691 35.9553 48.8827 37.7488 49.9379C36.7674 49.3231 35.8284 48.8246 34.9402 48.2845C34.9402 48.3011 34.8979 48.2845 34.8302 48.243C33.9504 47.7361 32.9606 47.1961 32.1569 46.7973C31.8439 46.5896 31.1756 46.2988 30.8626 46.0911C30.981 46.0744 31.2687 46.1908 31.624 46.3569C31.2856 46.1741 30.9303 45.9831 30.6427 45.8335C30.3973 45.7089 29.9574 45.5178 29.839 45.443C29.8136 45.4264 29.8728 45.443 29.8136 45.4098C29.9151 45.4596 29.6275 45.3267 29.6106 45.3184C29.4752 45.2602 29.4922 45.2768 29.3399 45.1937C29.1284 45.094 29.1368 45.094 29.01 45.0193C28.2909 44.6786 27.5803 44.3795 26.8358 44.0804C26.7597 44.0472 26.6074 43.989 26.5905 43.9807C26.5228 43.9475 26.5905 43.9641 26.4974 43.9226C26.4467 43.8976 26.4636 43.9226 26.3875 43.8893C26.0998 43.773 25.753 43.6484 25.4569 43.5487C25.0847 43.4157 24.6786 43.2745 24.2641 43.1665C23.858 43.0502 23.4774 42.9255 23.139 42.884C22.9867 42.8508 23.1897 42.8674 22.9867 42.8341C22.6906 42.7843 22.4114 42.7095 22.0984 42.6929C21.7685 42.6846 21.4386 42.6763 21.1087 42.668C20.7872 42.6846 20.4742 42.7427 20.1527 42.7843C19.8312 42.8508 19.5013 42.9421 19.1799 43.0419C19.0783 43.0834 19.146 43.0252 19.0107 43.0917C18.833 43.1665 18.8838 43.1748 18.723 43.2413C18.6215 43.2745 18.5285 43.3077 18.4692 43.3243C17.7333 43.6982 17.048 44.3463 16.6589 45.1356C16.2613 45.9249 16.1682 46.7807 16.2105 47.57C16.2444 47.9522 16.2697 48.2845 16.4305 48.7415C16.5743 49.1237 16.7519 49.4643 16.955 49.7717C17.361 50.3949 17.8686 50.9017 18.4016 51.3337C19.2475 52.0067 20.1696 52.4138 21.0241 52.7545C22.1915 53.1699 23.2236 53.3693 24.3318 53.5105C25.1354 53.6185 26.0152 53.6684 26.6836 53.6767C26.802 53.6767 26.9373 53.6767 27.0727 53.6601C27.2503 53.6601 27.5211 53.6601 27.6902 53.6601C27.961 53.6435 28.2401 53.6269 28.5362 53.6102C28.8238 53.5687 29.103 53.5355 29.3653 53.4939C29.6698 53.4524 29.9744 53.4108 30.2704 53.3693L31.1502 53.1865C31.4802 53.1117 31.8016 53.0453 32.1231 52.9372C32.3261 52.8874 32.5799 52.8209 32.783 52.7628C33.409 52.5966 34.0096 52.339 34.5933 52.1479C35.3547 51.8738 36.1414 51.5913 36.869 51.2174C37.698 50.8601 38.6793 50.3699 39.4322 49.9462C40.0752 49.6554 40.6758 49.2483 41.3526 48.8412C41.4033 48.8079 41.4879 48.7664 41.5471 48.7332C42.5877 48.1349 43.6367 47.3373 44.4403 46.7557C44.5926 46.6062 44.9056 46.4566 45.1594 46.332C45.447 46.1825 45.7177 46.0329 46.0054 45.9083C46.0815 45.875 46.2084 45.8335 46.2845 45.8003C46.5806 45.7006 46.8598 45.5676 47.1897 45.4845C47.6804 45.3433 48.2133 45.3101 48.7463 45.2851C49.1693 45.2934 49.7361 45.443 50.1421 45.6009C50.7851 45.9332 51.3772 46.5065 51.7579 47.221C51.8679 47.462 51.961 47.678 52.0033 47.8857C52.054 48.1266 52.0456 48.3676 52.0033 48.6252C51.9356 48.8744 51.7833 49.1237 51.5803 49.3729C51.3011 49.7385 50.7512 50.1539 50.3705 50.3284C50.1337 50.3035 49.9306 50.6773 49.4907 50.8435C49.2539 50.9266 49.2708 50.8767 49.1524 50.8767C48.9409 50.9432 48.7548 51.0346 48.5602 51.126C48.3149 51.2008 48.1287 51.2091 47.8073 51.3088L47.8919 51.3254ZM29.6529 46.5397C29.6529 46.5397 29.6529 46.548 29.6783 46.5646C29.5937 46.5563 29.4583 46.44 29.6529 46.5397ZM29.729 46.5646C29.9997 46.6976 30.4058 46.8554 30.5919 46.9801C30.6427 47.005 30.5581 46.9219 30.6511 46.9635C30.7611 47.0382 30.888 47.113 31.091 47.221C31.0826 47.2709 30.7019 47.0382 30.6596 47.0715C30.5073 46.9884 30.4396 46.9468 30.355 46.9302C30.0505 46.7641 29.9659 46.7557 29.729 46.6228C29.8052 46.6228 29.6952 46.5813 29.729 46.5646Z" fill="white"/>
<path fill-rule="evenodd" clip-rule="evenodd" d="M36.2871 15.2266C36.2871 15.2266 36.3463 15.2266 36.3886 15.2436C36.3717 15.2521 36.3209 15.2436 36.2871 15.2266Z" fill="white"/>
<path fill-rule="evenodd" clip-rule="evenodd" d="M36.8457 17.2695C36.8457 17.2695 36.9388 17.3028 36.9134 17.3194C36.8795 17.3028 36.8626 17.2861 36.8457 17.2695Z" fill="white"/>
<path fill-rule="evenodd" clip-rule="evenodd" d="M36.9297 17.3711C36.9297 17.3711 36.9804 17.4043 37.0058 17.4126C36.9974 17.4293 36.9381 17.3877 36.9297 17.3711Z" fill="white"/>
<path fill-rule="evenodd" clip-rule="evenodd" d="M37.3691 17.3594C37.3691 17.3594 37.4368 17.3843 37.4453 17.4092C37.4284 17.4092 37.3945 17.376 37.3691 17.3594Z" fill="white"/>
<path fill-rule="evenodd" clip-rule="evenodd" d="M37.3359 17.668C37.3359 17.668 37.4121 17.7012 37.4628 17.7511C37.429 17.7511 37.3867 17.6929 37.3359 17.668Z" fill="white"/>
<path fill-rule="evenodd" clip-rule="evenodd" d="M38.5879 17.0195C38.664 17.086 38.8078 17.2189 38.8332 17.2854C38.7655 17.1857 38.6556 17.1026 38.5879 17.0195Z" fill="white"/>
<path fill-rule="evenodd" clip-rule="evenodd" d="M38.3424 17.5942C38.444 17.6524 38.5539 17.8186 38.647 17.9183C38.6385 17.9515 38.5201 17.7604 38.4693 17.7438C38.4524 17.7189 38.4355 17.6939 38.4186 17.669C38.3932 17.6441 38.3509 17.6275 38.334 17.5859L38.3424 17.5942Z" fill="white"/>
<path fill-rule="evenodd" clip-rule="evenodd" d="M39.0527 18.707C39.0527 18.707 39.0776 18.707 39.0942 18.732C39.0942 18.7403 39.0942 18.7486 39.0776 18.7569L39.0527 18.707Z" fill="white"/>
<path fill-rule="evenodd" clip-rule="evenodd" d="M39.4766 19.1211C39.5358 19.1959 39.6035 19.387 39.6288 19.5033C39.6373 19.5199 39.6458 19.5116 39.6542 19.5448C39.6711 19.6113 39.705 19.7608 39.6627 19.6196C39.595 19.4534 39.5527 19.3122 39.4766 19.1294V19.1211Z" fill="white"/>
<path fill-rule="evenodd" clip-rule="evenodd" d="M39.2129 19.2969C39.2129 19.2969 39.246 19.3467 39.2543 19.38C39.2377 19.38 39.2129 19.3135 39.2129 19.2969Z" fill="white"/>
<path fill-rule="evenodd" clip-rule="evenodd" d="M40.0098 19.1484C40.0098 19.1484 40.0436 19.2398 40.0605 19.2814C40.0436 19.2564 40.0098 19.19 40.0098 19.1484Z" fill="white"/>
<path fill-rule="evenodd" clip-rule="evenodd" d="M39.3496 19.3555C39.3496 19.3555 39.4004 19.4552 39.4257 19.4967C39.4173 19.5383 39.375 19.4053 39.3496 19.3555Z" fill="white"/>
<path fill-rule="evenodd" clip-rule="evenodd" d="M39.2891 19.4453C39.2891 19.4453 39.3398 19.545 39.3652 19.5949C39.3398 19.5699 39.3144 19.4952 39.2891 19.4453Z" fill="white"/>
<path fill-rule="evenodd" clip-rule="evenodd" d="M40.1953 19.2461C40.1953 19.2461 40.2376 19.3043 40.2545 19.3458C40.2292 19.3458 40.2122 19.2793 40.1953 19.2461Z" fill="white"/>
<path fill-rule="evenodd" clip-rule="evenodd" d="M40.0859 19.3633C40.1198 19.4048 40.1621 19.5793 40.179 19.6624C40.1367 19.5627 40.1198 19.4713 40.0859 19.3633Z" fill="white"/>
<path fill-rule="evenodd" clip-rule="evenodd" d="M39.3652 19.6211C39.4075 19.6793 39.416 19.7873 39.4245 19.8454C39.3906 19.7873 39.3991 19.6876 39.3652 19.6211Z" fill="white"/>
<path fill-rule="evenodd" clip-rule="evenodd" d="M39.6875 19.7188C39.6875 19.7188 39.7206 19.7935 39.7289 19.8268C39.7041 19.8434 39.6958 19.7686 39.6875 19.7188Z" fill="white"/>
<path fill-rule="evenodd" clip-rule="evenodd" d="M39.6621 19.8633C39.6621 19.8633 39.687 19.9214 39.6952 19.9713C39.6787 19.963 39.6704 19.8965 39.6621 19.8633Z" fill="white"/>
<path fill-rule="evenodd" clip-rule="evenodd" d="M39.6191 19.9961C39.6191 19.9961 39.6688 20.1124 39.6274 20.0958C39.6274 20.0626 39.6274 20.0709 39.644 20.0626C39.644 20.0293 39.6274 20.0376 39.6191 19.9961Z" fill="white"/>
<path fill-rule="evenodd" clip-rule="evenodd" d="M40.1363 20.2206C40.1198 20.0129 40.1032 20.1459 40.1363 20.2206Z" fill="white"/>
<path fill-rule="evenodd" clip-rule="evenodd" d="M40.3809 20.3594C40.3974 20.4258 40.414 20.484 40.414 20.5671C40.414 20.5172 40.3809 20.3926 40.3809 20.3594Z" fill="white"/>
<path fill-rule="evenodd" clip-rule="evenodd" d="M40.4238 20.4023C40.4238 20.4023 40.457 20.502 40.4321 20.4854V20.4023H40.4238Z" fill="white"/>
<path fill-rule="evenodd" clip-rule="evenodd" d="M40.7611 20.5273C40.7611 20.5273 40.7776 20.6021 40.7776 20.6437C40.7611 20.6354 40.7528 20.544 40.7611 20.5273Z" fill="white"/>
<path fill-rule="evenodd" clip-rule="evenodd" d="M40.7617 20.9922C40.7949 21.1334 40.7617 21.1833 40.7617 20.9922Z" fill="white"/>
<path fill-rule="evenodd" clip-rule="evenodd" d="M39.543 17.4531C39.543 17.4531 39.5937 17.503 39.6106 17.5113C39.6191 17.5694 39.7037 17.6276 39.7291 17.6941C39.6614 17.6359 39.6276 17.5445 39.543 17.4531Z" fill="white"/>
<path fill-rule="evenodd" clip-rule="evenodd" d="M39.9414 19.2784C39.9414 19.2784 39.9414 19.3116 39.9583 19.3532C39.9583 19.3532 39.9414 19.3449 39.9329 19.3449C39.9583 19.4196 39.9752 19.4529 39.9921 19.5193C39.9921 19.5193 39.9752 19.5027 39.9667 19.511C40.0175 19.5858 40.0006 19.7021 40.0598 19.8683C39.9837 19.7104 39.9075 19.3282 39.8398 19.1953C39.8737 19.2119 39.8991 19.3366 39.9244 19.3449C39.9414 19.3449 39.8991 19.2618 39.9329 19.2784H39.9414Z" fill="white"/>
<path fill-rule="evenodd" clip-rule="evenodd" d="M39.4502 19.6032C39.4667 19.6032 39.4667 19.6613 39.4667 19.6696C39.4502 19.653 39.4005 19.4785 39.4419 19.6032H39.4502Z" fill="white"/>
<path fill-rule="evenodd" clip-rule="evenodd" d="M39.7219 20.6097H39.6965C39.6965 20.7011 39.7134 20.8424 39.6965 20.9088C39.6711 20.8008 39.7134 20.5765 39.6542 20.5017C39.6542 20.4685 39.6542 20.4685 39.6542 20.4353C39.5865 20.1943 39.5696 19.9284 39.4766 19.6875C39.5612 19.7872 39.5612 20.0531 39.6373 20.1694C39.6373 20.1943 39.6373 20.1694 39.6373 20.1528C39.6542 20.2691 39.6711 20.4685 39.7304 20.6097H39.7219Z" fill="white"/>
<path fill-rule="evenodd" clip-rule="evenodd" d="M40.4819 20.4336C40.4819 20.4336 40.5067 20.5001 40.515 20.5333C40.515 20.5499 40.4653 20.4751 40.4819 20.4336Z" fill="white"/>
<path fill-rule="evenodd" clip-rule="evenodd" d="M39.4675 25.1876C39.5182 25.1295 39.5521 25.0464 39.6028 24.9799C39.7128 24.822 39.8482 24.7057 39.9412 24.5313C40.0174 24.3817 40.085 24.2321 40.1612 24.0743C40.2119 23.958 40.2289 23.9081 40.2542 23.8333C40.3557 23.6007 40.4319 23.4096 40.415 23.285C40.4403 23.1022 40.4911 22.8945 40.4826 22.7366C40.4826 22.7117 40.4996 22.6618 40.4996 22.6535C40.508 22.2547 40.3811 22.0055 40.3557 21.5734C40.3219 21.5319 40.2711 21.507 40.2289 21.4322C40.2119 21.399 40.2035 21.3242 40.1781 21.3076C40.1104 21.2245 40.0089 21.2909 39.9581 21.1414C39.9412 21.1331 39.9328 21.158 39.9158 21.1663C39.7636 21.1663 39.6367 21.2162 39.5182 21.1829C39.4421 21.2743 39.366 21.2577 39.2983 21.3242C39.256 21.3657 39.2137 21.4488 39.1714 21.4987C39.1291 21.5568 39.0868 21.6233 39.0276 21.6648C38.9853 21.6648 38.9599 21.7313 38.9176 21.7479C38.8753 21.8227 38.8246 21.9141 38.7823 21.9889C38.7653 21.9889 38.7569 22.0138 38.7315 22.0138C38.5961 22.1883 38.4777 22.3461 38.3508 22.5705C38.3424 22.5954 38.317 22.6452 38.3085 22.6618C38.2324 22.8363 38.097 23.0939 37.987 23.1354C37.9617 23.1604 37.9786 23.1687 37.9532 23.1936C37.9194 23.1936 37.8179 23.2517 37.7756 23.3265C37.7586 23.3514 37.7586 23.4096 37.7248 23.4678C37.674 23.5509 37.581 23.5924 37.5302 23.6589C37.5048 23.6921 37.5048 23.7419 37.4795 23.7752C37.4287 23.8749 37.2595 24.0161 37.1834 24.066C37.1242 24.1075 37.0819 24.0992 37.048 24.1408C37.0142 24.1823 37.0057 24.2238 37.0396 24.2571C36.9888 24.4232 36.642 24.5728 36.4643 24.714C36.3036 24.7556 36.1851 24.8802 36.0413 24.9301C36.0075 24.9384 35.9737 24.9384 35.9398 24.955C35.8891 24.9716 35.8298 25.0131 35.7622 25.0464C35.6522 25.0962 35.5507 25.1128 35.4576 25.1544C35.2969 25.1378 35.2038 25.2125 35.0769 25.2375C35.0262 25.2375 34.9839 25.2375 34.9247 25.2375C34.8824 25.2458 34.8401 25.2624 34.7893 25.2624C34.7385 25.2624 34.6878 25.2458 34.637 25.2458C34.6032 25.2458 34.5778 25.2624 34.544 25.2624C34.5017 25.2624 34.4848 25.2541 34.4425 25.2541C34.4002 25.2541 34.3579 25.2707 34.3156 25.279C34.1548 25.279 33.9856 25.2541 33.8418 25.2624C33.5796 25.1876 33.3342 25.1959 33.0466 25.0547C32.9705 25.0381 32.9113 25.0298 32.8351 24.9882C32.8182 24.9882 32.8097 25.0048 32.7844 24.9882C32.649 24.8968 32.4544 24.8802 32.3191 24.7722C32.3106 24.7722 32.3022 24.7722 32.2852 24.7722C32.0907 24.631 31.8538 24.4565 31.6846 24.3651C31.6 24.2405 31.4393 24.174 31.3209 24.0327C31.2616 23.9746 31.2193 23.8998 31.1601 23.85C31.0501 23.7419 30.9402 23.5675 30.8556 23.4511C30.8302 23.4179 30.7964 23.3847 30.771 23.3514C30.7287 23.285 30.6948 23.2102 30.6441 23.1437C30.4664 22.8779 30.3395 22.5289 30.2719 22.2547C30.2465 22.1716 30.2126 22.1052 30.1788 22.0138C30.145 21.8559 30.145 21.6898 30.1196 21.5236C30.1196 21.4987 30.1027 21.4322 30.0942 21.4073C30.0857 21.3076 30.0942 21.2162 30.0857 21.1165C30.0857 20.8672 30.0773 20.6096 30.145 20.377C30.145 20.0696 30.2972 19.6459 30.4495 19.3301C30.4495 19.2471 30.5172 19.1889 30.5426 19.1141C30.6525 18.8898 30.8048 18.5907 30.9909 18.3996C31.6677 17.4774 32.8013 16.8875 33.9349 16.713C34.0279 16.7296 34.1633 16.713 34.2479 16.688C34.2648 16.7047 34.3156 16.6964 34.3579 16.7047C34.5017 16.6548 34.6878 16.7047 34.8654 16.7047C34.9162 16.6631 35.0177 16.7213 35.0938 16.7047C35.1192 16.7296 35.0516 16.713 35.0938 16.7379C35.2292 16.6714 35.6099 16.8044 35.796 16.8293C35.7875 16.8293 35.7875 16.8127 35.796 16.821C35.8298 16.8542 35.8637 16.821 35.906 16.8459C36.219 16.9456 36.4643 16.9872 36.735 17.0952C36.7604 17.1201 36.8281 17.1949 36.8704 17.1949C36.8281 17.1616 36.7689 17.1284 36.7858 17.1118C36.8535 17.1616 36.9634 17.2115 37.0226 17.2198C37.1157 17.2696 37.1495 17.3278 37.2426 17.361C37.2595 17.3777 37.2426 17.3195 37.2849 17.361C37.3949 17.4607 37.4795 17.4857 37.5725 17.5937C37.6233 17.5937 37.7502 17.7017 37.7756 17.7432C37.8179 17.7681 37.7586 17.6934 37.7925 17.71C37.894 17.7848 37.9786 17.8679 38.0463 17.9676C38.0716 17.9759 38.1055 17.9842 38.1393 18.0174C38.1647 18.0423 38.1139 18.0257 38.1478 18.0589C38.1901 18.0839 38.1478 18.0174 38.1647 18.0091C38.2155 18.0506 38.2155 18.034 38.2493 18.0423C38.2916 18.1254 38.3508 18.1503 38.41 18.2085C38.4692 18.2667 38.52 18.3497 38.5708 18.4079C38.6131 18.4661 38.6469 18.4744 38.6892 18.5408C38.723 18.599 38.7315 18.6488 38.7738 18.7153C38.7992 18.7486 38.7738 18.6821 38.8076 18.7319C38.8922 18.8815 38.9599 18.9895 39.1545 19.3301C39.0022 19.0892 38.9599 18.8732 38.7907 18.6821C38.7907 18.6405 38.7146 18.599 38.7315 18.5408C38.7061 18.5408 38.7315 18.5907 38.7061 18.5408C38.7061 18.5242 38.7061 18.5159 38.6807 18.491C38.723 18.5076 38.6977 18.4578 38.7061 18.4328C38.5877 18.25 38.4608 18.1337 38.3593 17.9842C38.3339 17.9592 38.3593 18.0174 38.3339 17.9842C38.2662 17.9177 38.2831 17.9343 38.1901 17.8429C38.1901 17.8097 38.1647 17.7598 38.207 17.7598C38.3846 17.9426 38.63 18.1836 38.7992 18.4328C38.8499 18.5076 38.8753 18.599 38.9345 18.6322C38.8499 18.5242 38.833 18.4079 38.7738 18.3082C38.6892 18.1836 38.5538 18.0756 38.4692 17.9509C38.4439 17.9177 38.4439 17.8928 38.4185 17.8679C38.4016 17.8429 38.3508 17.818 38.3254 17.7931C38.3001 17.7681 38.3085 17.7515 38.2916 17.7349C38.2493 17.6934 38.1985 17.6684 38.1478 17.6186C38.0716 17.5272 37.9955 17.4441 37.894 17.361C37.8855 17.3361 37.9109 17.3278 37.9363 17.3444C38.0463 17.4524 38.0801 17.4607 38.1901 17.5771C38.1816 17.5604 38.1732 17.5521 38.1901 17.5438C38.2239 17.5854 38.2324 17.602 38.2578 17.6103C38.1732 17.5272 38.2155 17.5023 38.2578 17.5106C38.4608 17.7266 38.7061 18.0008 38.8415 18.2085C38.8668 18.2251 38.8922 18.2251 38.9176 18.2667C39.0868 18.491 39.2222 18.7652 39.3575 19.031C39.2475 18.707 39.053 18.3996 38.8076 18.0922C38.8076 18.0756 38.8246 18.0756 38.7992 18.0506C38.6807 17.926 38.5708 17.7681 38.4692 17.6768C38.4523 17.6186 38.4354 17.5604 38.41 17.494C38.1055 17.2032 37.9363 16.929 37.5979 16.688C37.6064 16.6714 37.5894 16.6548 37.581 16.6299C37.6148 16.6299 37.6487 16.6299 37.6825 16.6465C37.7417 16.688 37.8009 16.7213 37.8432 16.7628C38.1647 16.9207 38.5031 17.3029 38.8161 17.6103C38.8753 17.6352 38.8668 17.5854 38.8584 17.5438C38.723 17.3777 38.5708 17.253 38.4269 17.0702C38.41 16.9622 38.52 16.9788 38.6469 17.1118C38.8668 17.3195 39.1799 17.7183 39.2814 17.8845C39.8228 18.5741 40.1358 19.4132 40.305 20.2939C40.2542 19.7954 40.0681 19.3634 39.9328 18.9396C39.9243 18.9396 39.9074 18.9396 39.8989 18.8981C39.7213 18.4993 39.4844 18.0673 39.2306 17.7681C39.1714 17.6103 38.9345 17.3943 38.8499 17.253C38.9261 17.2364 39.053 17.3112 39.1714 17.4441C39.0868 17.3361 38.9345 17.1533 38.8584 17.0619C38.7823 16.9622 38.6131 16.8376 38.5708 16.7877C38.5623 16.7711 38.5961 16.7877 38.5708 16.7628C38.6046 16.7961 38.5031 16.7047 38.4946 16.6964C38.4354 16.6548 38.4439 16.6714 38.3846 16.6133C38.3085 16.5468 38.317 16.5468 38.2747 16.4886C38.004 16.2643 37.7079 16.0898 37.4033 15.9071C37.3695 15.8821 37.3103 15.8489 37.3018 15.8489C37.2764 15.8323 37.3018 15.8323 37.268 15.8073C37.2426 15.799 37.2511 15.8073 37.2172 15.799C37.0988 15.7326 36.955 15.6578 36.8281 15.6079C36.5066 15.4833 36.1175 15.3421 35.8383 15.2839C35.7791 15.2673 35.8637 15.2673 35.7791 15.2424C35.3053 15.1177 34.7808 15.0513 34.2563 15.0679C34.214 15.0679 34.2479 15.043 34.1887 15.043C34.1125 15.043 34.1379 15.0679 34.0702 15.0679C34.0279 15.0679 33.9941 15.0513 33.9687 15.043C33.3596 15.0679 32.7421 15.2091 32.1584 15.4501C31.6169 15.6661 31.1009 15.9486 30.6695 16.2809C30.3226 16.5385 30.035 16.8376 29.7727 17.1118C29.4428 17.5023 29.189 17.8762 28.9606 18.2916C28.7999 18.599 28.6391 18.9396 28.5545 19.2221C28.5545 19.2554 28.5207 19.3634 28.5207 19.3883C28.5038 19.4298 28.4446 19.596 28.4361 19.6376C28.3684 19.8702 28.3515 20.1111 28.3177 20.3438C28.2669 20.6013 28.2754 20.8589 28.25 21.1165C28.25 21.266 28.2838 21.399 28.2923 21.5485C28.3008 21.6399 28.2838 21.7479 28.3008 21.8476C28.3431 22.1218 28.4107 22.4043 28.4784 22.6535C28.5545 22.9942 28.6645 23.3514 28.8422 23.6672C28.9944 24.0327 29.2398 24.4565 29.4851 24.7473C29.6289 25.0298 29.8912 25.2375 30.128 25.4867C30.1365 25.495 30.1788 25.5449 30.1957 25.5615C30.551 25.9686 31.1009 26.2262 31.4562 26.4754C31.6169 26.5253 31.7269 26.6084 31.8623 26.6831C32.0061 26.7662 32.1584 26.7912 32.3106 26.8493C32.336 26.8576 32.4206 26.8992 32.446 26.9158C32.5898 26.9823 32.7505 26.9906 32.9197 27.0321C33.1735 27.0986 33.4442 27.1817 33.7488 27.1983C33.9772 27.2315 34.324 27.2897 34.5947 27.2481C35.0516 27.2814 35.4999 27.1733 35.9567 27.0736C36.109 27.0404 36.2613 27.0404 36.3966 26.9573C36.5574 26.9324 36.7435 26.8576 36.9296 26.7745C37.1072 26.6915 37.3103 26.625 37.4964 26.5336C37.7586 26.4007 38.0547 26.1763 38.2662 26.0932C38.4354 26.1431 38.4692 25.8689 38.6554 25.7277C38.7653 25.6612 38.7823 25.7027 38.8584 25.7027C38.9599 25.6446 39.0276 25.5532 39.0868 25.4701C39.1799 25.387 39.2983 25.3538 39.4083 25.2292L39.4675 25.1876ZM37.9532 17.602C37.9532 17.602 37.9532 17.6103 37.9532 17.6186C37.9109 17.6186 37.894 17.5438 37.9532 17.602ZM37.9786 17.6103C38.0632 17.6851 38.1901 17.7848 38.2239 17.8595C38.2408 17.8762 38.2324 17.8263 38.2662 17.8429C38.2831 17.8928 38.317 17.9343 38.3762 18.0008C38.3424 18.034 38.2578 17.8928 38.2155 17.9177C38.1732 17.8679 38.1562 17.8429 38.1224 17.8429C38.0463 17.7349 38.0124 17.7349 37.9532 17.6601C37.9955 17.6601 37.9532 17.6352 37.987 17.6186L37.9786 17.6103Z" fill="white"/>
</g>
<defs>
<clipPath id="clip0_868_2278">
<rect width="48" height="39" fill="white" transform="translate(11 15)"/>
</clipPath>
</defs>
</svg>
