<svg width="70" height="70" viewBox="0 0 70 70" fill="none" xmlns="http://www.w3.org/2000/svg">
<g clip-path="url(#clip0_868_542)">
<path fill-rule="evenodd" clip-rule="evenodd" d="M14.0524 47.2274C14.0524 47.2274 14.0449 47.1376 14.0449 47.0703C14.0598 47.0853 14.0673 47.175 14.0524 47.2274Z" fill="white"/>
<path fill-rule="evenodd" clip-rule="evenodd" d="M15.5451 44.834C15.5451 44.7891 15.5227 44.6321 15.5451 44.6545C15.5451 44.7368 15.5451 44.7742 15.5451 44.834Z" fill="white"/>
<path fill-rule="evenodd" clip-rule="evenodd" d="M15.5742 44.574C15.5742 44.574 15.5742 44.4469 15.5742 44.3945C15.5891 44.3945 15.5891 44.5441 15.5742 44.574Z" fill="white"/>
<path fill-rule="evenodd" clip-rule="evenodd" d="M15.3504 43.8432C15.343 43.8058 15.3355 43.7086 15.3504 43.6562C15.3653 43.6712 15.3504 43.7834 15.3504 43.8432Z" fill="white"/>
<path fill-rule="evenodd" clip-rule="evenodd" d="M15.5891 43.5055C15.5742 43.4457 15.5742 43.3335 15.5742 43.1914C15.5891 43.2438 15.5891 43.3933 15.5891 43.5055Z" fill="white"/>
<path fill-rule="evenodd" clip-rule="evenodd" d="M14.4181 42.5905C14.4181 42.4334 14.3958 42.1044 14.4181 41.9922C14.4032 42.1866 14.4256 42.411 14.4181 42.5905Z" fill="white"/>
<path fill-rule="evenodd" clip-rule="evenodd" d="M14.9251 42.1652C14.8952 41.9633 14.9251 41.6118 14.9102 41.3501C14.94 41.3127 14.9102 41.724 14.9325 41.7988C14.9325 41.8436 14.9325 41.896 14.9176 41.9558C14.9176 42.0231 14.94 42.0904 14.9176 42.1652H14.9251Z" fill="white"/>
<path fill-rule="evenodd" clip-rule="evenodd" d="M15.0068 39.7208C15.0068 39.7208 14.9844 39.7058 14.9844 39.6385C14.9844 39.6161 14.9993 39.6086 15.0068 39.6161V39.7208Z" fill="white"/>
<path fill-rule="evenodd" clip-rule="evenodd" d="M14.8215 38.7047C14.7991 38.5402 14.7991 38.1737 14.8215 37.9718C14.8215 37.9419 14.8066 37.9419 14.814 37.8895C14.814 37.7699 14.814 37.4931 14.814 37.7624C14.8289 38.0914 14.814 38.3457 14.8215 38.7047Z" fill="white"/>
<path fill-rule="evenodd" clip-rule="evenodd" d="M15.0973 38.5854C15.0898 38.548 15.0898 38.4807 15.0898 38.3984C15.1048 38.4209 15.1048 38.5555 15.0973 38.5854Z" fill="white"/>
<path fill-rule="evenodd" clip-rule="evenodd" d="M14.3887 38.3295C14.3887 38.3295 14.3887 38.165 14.3887 38.0977C14.3887 38.15 14.4036 38.2771 14.3887 38.3295Z" fill="white"/>
<path fill-rule="evenodd" clip-rule="evenodd" d="M14.9989 38.3908C14.984 38.3235 14.9915 38.1814 14.9766 38.0992C14.9989 38.0244 14.9915 38.2861 14.9989 38.3908Z" fill="white"/>
<path fill-rule="evenodd" clip-rule="evenodd" d="M15.0813 38.2633C15.0664 38.211 15.0664 38.0614 15.0664 37.9492C15.0813 38.0165 15.0739 38.1661 15.0813 38.2633Z" fill="white"/>
<path fill-rule="evenodd" clip-rule="evenodd" d="M14.2607 38.0815C14.2607 38.0815 14.2457 37.9693 14.2383 37.8945C14.2532 37.9095 14.2532 38.0142 14.2607 38.0815Z" fill="white"/>
<path fill-rule="evenodd" clip-rule="evenodd" d="M14.396 37.9688C14.3811 37.8866 14.3886 37.5874 14.3886 37.4453C14.4035 37.6323 14.4035 37.7669 14.396 37.9688Z" fill="white"/>
<path fill-rule="evenodd" clip-rule="evenodd" d="M15.0666 37.8944C15.0442 37.7597 15.0666 37.5653 15.0666 37.4531C15.0815 37.5803 15.0517 37.7597 15.0666 37.8944Z" fill="white"/>
<path fill-rule="evenodd" clip-rule="evenodd" d="M14.8137 37.5504C14.8063 37.498 14.8063 37.4158 14.7988 37.341C14.8212 37.326 14.8137 37.4606 14.8137 37.5504Z" fill="white"/>
<path fill-rule="evenodd" clip-rule="evenodd" d="M14.866 37.3188C14.8511 37.2589 14.866 37.1991 14.866 37.1094C14.8809 37.1318 14.866 37.2589 14.866 37.3188Z" fill="white"/>
<path fill-rule="evenodd" clip-rule="evenodd" d="M14.9334 37.0956C14.9334 37.0956 14.9185 36.8712 14.9483 36.9161C14.9483 36.9759 14.9409 36.9684 14.9334 36.9684C14.9334 37.0283 14.9409 37.0283 14.9334 37.1031V37.0956Z" fill="white"/>
<path fill-rule="evenodd" clip-rule="evenodd" d="M14.5232 36.5508C14.5455 36.6779 14.5082 36.9023 14.5232 36.5508Z" fill="white"/>
<path fill-rule="evenodd" clip-rule="evenodd" d="M14.3279 36.2584C14.3204 36.1537 14.3204 36.0415 14.3279 35.9219C14.3279 36.0041 14.3353 36.2061 14.3279 36.2584Z" fill="white"/>
<path fill-rule="evenodd" clip-rule="evenodd" d="M14.2983 36.1764C14.2834 36.2138 14.2834 36.0044 14.2983 36.0493V36.1764Z" fill="white"/>
<path fill-rule="evenodd" clip-rule="evenodd" d="M14.0154 35.9292C14.0154 35.9292 14.0005 35.8095 14.0079 35.7422C14.0229 35.7646 14.0229 35.8992 14.0154 35.9292Z" fill="white"/>
<path fill-rule="evenodd" clip-rule="evenodd" d="M14.0373 35.2034C14.0373 34.9118 14.0149 34.9866 14.0373 35.2034Z" fill="white"/>
<path fill-rule="evenodd" clip-rule="evenodd" d="M14.0224 41.0805C14.0224 41.0357 14.0149 40.9758 14 40.9459C14.0224 40.8636 14 40.7141 14.0149 40.6094C14.0373 40.744 14.0149 40.8861 14.0224 41.0805Z" fill="white"/>
<path fill-rule="evenodd" clip-rule="evenodd" d="M14.484 38.1659C14.484 38.106 14.4915 38.1135 14.484 38.0387C14.4915 38.0387 14.4915 38.0612 14.4989 38.0686C14.4989 37.9415 14.4989 37.8667 14.4989 37.7545C14.4989 37.7695 14.5064 37.7845 14.5139 37.7845C14.484 37.6349 14.5288 37.4629 14.5139 37.1562C14.5437 37.4479 14.5213 38.106 14.5288 38.3603C14.5064 38.3229 14.5288 38.0986 14.5064 38.0686C14.4915 38.0686 14.5064 38.2107 14.4766 38.1659H14.484Z" fill="white"/>
<path fill-rule="evenodd" clip-rule="evenodd" d="M14.993 37.8885C14.978 37.881 14.993 37.7763 14.993 37.7539C15.0079 37.7838 14.993 38.1278 14.993 37.8885Z" fill="white"/>
<path fill-rule="evenodd" clip-rule="evenodd" d="M14.9316 35.9444H14.954C14.954 35.7798 14.954 35.5106 14.9689 35.3984C14.9839 35.5929 14.9466 36.0192 14.9839 36.1613C14.9839 36.2211 14.9839 36.236 14.9689 36.2884C15.0062 36.7521 14.9689 37.2457 14.9913 37.7243C14.9316 37.5074 15.0137 37.0213 14.954 36.782C14.954 36.7446 14.954 36.782 14.954 36.8119C14.954 36.6025 14.9689 36.2211 14.9316 35.9444Z" fill="white"/>
<path fill-rule="evenodd" clip-rule="evenodd" d="M14.2528 36.1167C14.2454 36.0494 14.2379 36.0195 14.2305 35.9597C14.2305 35.9372 14.2678 36.0644 14.2528 36.1167Z" fill="white"/>
<path fill-rule="evenodd" clip-rule="evenodd" d="M48.3907 56.0013C48.4802 56.0013 48.6667 55.9863 48.7563 55.9788C49.0397 55.9788 49.3008 56.0013 49.5918 55.9863C49.8081 55.9714 50.1513 55.9564 50.3527 55.9414C50.5168 55.934 50.6138 55.9265 50.7481 55.919C51.136 55.8966 51.4493 55.9115 51.6134 55.8517C51.9342 55.8143 52.1655 55.7919 52.4564 55.762C52.4937 55.762 52.5758 55.762 52.5907 55.762C53.1949 55.6797 53.5605 55.5376 54.2692 55.4778C54.3288 55.4478 54.3736 55.403 54.493 55.3581C54.5452 55.3431 54.672 55.3282 54.7093 55.3132C54.851 55.2459 54.7242 55.1637 54.9928 55.1113C55.0077 55.0964 54.9555 55.0889 54.948 55.0814C54.9555 54.9468 54.851 54.8346 54.9182 54.7299C54.7317 54.6701 54.7765 54.5953 54.6273 54.5429C54.5377 54.5055 54.3662 54.4756 54.2468 54.4382C54.12 54.4008 53.9782 54.3709 53.8663 54.3261C53.8663 54.2887 53.7022 54.2812 53.6724 54.2438C53.5008 54.2214 53.277 54.184 53.1129 54.1615C53.0905 54.1466 53.0457 54.1391 53.0383 54.1241C52.6056 54.0568 52.1655 53.9671 51.5761 53.9446C51.5164 53.9446 51.4045 53.9446 51.3449 53.9446C50.9047 53.9446 50.2259 53.9297 49.9946 53.8773C49.9125 53.8773 49.92 53.8848 49.8379 53.8773C49.7857 53.8549 49.5545 53.8026 49.3531 53.8026C49.2859 53.8026 49.1591 53.8399 49.0099 53.8474C48.7786 53.8549 48.5698 53.81 48.3609 53.8175C48.2639 53.8175 48.1669 53.8549 48.0699 53.8624C47.8163 53.8773 47.2941 53.8624 47.0778 53.8624C46.9062 53.8549 46.8465 53.825 46.7197 53.8325C46.6003 53.8325 46.5183 53.8624 46.5257 53.9073C46.19 53.997 45.3321 53.9297 44.8248 53.9671C44.4518 53.9372 44.0863 53.9895 43.7282 53.982C43.6686 53.982 43.5492 53.9746 43.497 53.9671C43.4075 53.9671 43.1911 53.982 43.0494 53.9895C42.7584 53.997 42.6018 54.0045 42.3183 54.012C41.9751 53.9596 41.7215 54.0194 41.4306 54.012C41.3485 54.012 41.1844 53.997 41.0949 53.997C41.0128 53.997 40.8711 54.0045 40.7815 54.012C40.6995 54.012 40.5279 53.997 40.4458 53.997C40.3862 53.997 40.2892 53.997 40.237 54.0045C40.1474 54.0045 40.0952 53.9895 40.0057 53.9895C39.946 53.9895 39.7744 54.012 39.7148 54.012C39.3567 54.0194 38.9762 53.997 38.6405 54.0419C38.0363 54.0045 37.5066 54.0643 36.7905 54.0269C36.6114 54.0344 36.4771 54.0419 36.2906 54.0344C36.2459 54.0344 36.2459 54.0493 36.1862 54.0493C35.8132 54.0344 35.4253 54.0793 35.0374 54.0568C35.0224 54.0568 35.0075 54.0718 34.9851 54.0718C34.4555 54.0493 33.7841 54.0419 33.3663 54.0718C33.0456 54.0419 32.6651 54.0718 32.2697 54.0718C32.0832 54.0718 31.8967 54.0568 31.7251 54.0643C31.3372 54.0643 30.9493 54.0643 30.6061 54.0643C30.539 54.0643 30.3823 54.0793 30.3152 54.0867C30.1436 54.0867 29.9571 54.0793 29.7706 54.0867C29.0545 54.1167 28.2339 54.0942 27.6072 54.0942C27.4133 54.0942 27.2492 54.1092 27.0328 54.1167C26.6747 54.1241 26.3017 54.1017 25.9362 54.1017C25.8691 54.1017 25.7422 54.1092 25.6751 54.1167C25.4438 54.1167 25.2499 54.1167 25.0261 54.1167C24.4666 54.1167 23.9071 54.1466 23.3849 54.1167C22.7135 54.154 21.7362 54.1391 20.9604 54.1466C20.7888 54.1765 20.6172 54.1466 20.4382 54.154C19.8787 54.169 19.17 54.1989 18.5881 54.1765C17.581 54.1914 16.6187 54.2064 15.6489 54.2139C15.634 53.1669 15.6191 52.1348 15.6041 51.0429C15.6265 50.856 15.6116 50.5568 15.6041 50.3923C15.6191 50.3549 15.6191 50.2427 15.6191 50.1605C15.5818 49.8538 15.6191 49.4724 15.6041 49.0835C15.5668 48.9863 15.5967 48.7545 15.5668 48.6049C15.5892 48.5451 15.5818 48.6872 15.5967 48.5825C15.537 48.3357 15.5594 47.4906 15.5445 47.1092C15.5445 47.1391 15.537 47.1391 15.537 47.1092C15.5519 47.0194 15.5221 46.9746 15.5221 46.8699C15.5221 46.1818 15.4549 45.6957 15.4326 45.1049C15.44 45.0301 15.4699 44.8357 15.4475 44.7684C15.4475 44.8731 15.4475 45.0077 15.4176 45.0002C15.4251 44.8207 15.4176 44.5889 15.3953 44.4767C15.3953 44.2598 15.4102 44.1476 15.3878 43.9532C15.3878 43.9083 15.358 43.9981 15.358 43.9008C15.3729 43.5942 15.3505 43.4446 15.358 43.1679C15.3356 43.0857 15.3281 42.7641 15.3356 42.6669C15.3281 42.5771 15.3132 42.7641 15.3057 42.6893C15.2983 42.4425 15.2908 42.2107 15.3057 41.9863C15.2908 41.9265 15.2759 41.8891 15.2759 41.7993C15.2759 41.7395 15.2983 41.8143 15.2908 41.7246C15.2759 41.6348 15.2684 41.7919 15.2461 41.7694C15.2386 41.6423 15.2237 41.6722 15.2088 41.6049C15.2237 41.4329 15.1938 41.3132 15.1864 41.1562C15.1864 40.9468 15.1864 40.8496 15.1789 40.6551C15.1789 40.5205 15.1565 40.4607 15.1565 40.3111C15.1565 40.1914 15.1789 40.0867 15.1715 39.9446C15.1715 39.8699 15.1491 39.9895 15.1491 39.8923C15.1491 39.4137 15.1342 38.935 15.1043 38.5761C15.1491 39.122 15.1043 39.5184 15.1416 39.9895C15.1192 40.0643 15.1565 40.2064 15.1267 40.2737C15.1416 40.3036 15.1491 40.1989 15.1491 40.3036C15.1491 40.341 15.1416 40.356 15.1491 40.4083C15.1192 40.341 15.1192 40.4382 15.0969 40.4831C15.0969 40.8795 15.1043 41.216 15.1118 41.5526C15.1118 41.6199 15.1267 41.5077 15.1342 41.5825C15.1342 41.732 15.1342 41.7844 15.1416 41.9788C15.1192 42.0237 15.1118 42.1284 15.0819 42.0761C15.067 41.6423 15.0521 40.9094 15.0372 40.4008C15.0372 40.2288 15.0596 40.0568 15.0223 39.9521C15.0297 40.2064 14.9924 40.4083 14.9924 40.6252C14.9924 40.9094 15.0223 41.216 15.0148 41.4927C15.0148 41.5525 15.0073 41.6273 14.9999 41.6722C14.9999 41.7246 15.0148 41.8218 15.0148 41.8816C15.0148 41.9489 14.9999 41.9564 14.9999 42.0087C14.9999 42.1284 15.0223 42.2181 15.0223 42.3528C15.0223 42.5696 14.9999 42.7865 15.0073 43.0333C14.9999 43.0782 14.9775 43.0558 14.97 43.0034C14.97 42.7192 14.97 42.6669 14.97 42.3752C14.97 42.4051 14.97 42.4275 14.9551 42.4275C14.9551 42.3378 14.9626 42.3079 14.9551 42.2406C14.9551 42.4575 14.9178 42.435 14.8954 42.3602C14.8954 41.8218 14.8805 41.1562 14.8954 40.7149C14.8805 40.6626 14.8656 40.6327 14.8656 40.5579C14.8656 40.0194 14.8581 39.5333 14.8507 38.9649C14.8208 39.5782 14.8358 40.2139 14.8507 40.9243C14.8507 40.9543 14.8283 40.9243 14.8358 40.9991C14.8507 41.2983 14.8432 41.6573 14.8507 41.8891C14.8283 41.9863 14.8059 42.091 14.7761 42.1957C14.7985 42.9436 14.7015 43.482 14.7015 44.2C14.6866 44.2 14.6791 44.2523 14.6716 44.2748C14.6567 44.2149 14.6418 44.1775 14.6269 44.1102C14.6269 43.9906 14.6194 43.8709 14.6269 43.7737C14.5821 43.1754 14.612 42.3228 14.5821 41.575C14.5523 41.4852 14.5374 41.5526 14.515 41.6199C14.5001 41.9788 14.5374 42.3079 14.5001 42.6893C14.4404 42.8239 14.3956 42.6893 14.3882 42.3902C14.3882 41.904 14.3882 41.059 14.3956 40.7449C14.3807 39.2192 14.3658 37.9404 14.3434 36.4297C14.3285 37.2449 14.3658 38.0002 14.3434 38.7256C14.3583 38.7256 14.3583 38.7481 14.3583 38.8079C14.3583 39.5258 14.3583 40.3261 14.3732 40.9543C14.3359 41.216 14.3732 41.7246 14.3434 41.9938C14.2837 41.9265 14.2539 41.7096 14.239 41.4329C14.239 41.7171 14.224 41.9788 14.2166 42.2107C14.2166 42.4051 14.2315 42.7417 14.2166 42.8389C14.2166 42.8613 14.2017 42.8164 14.2017 42.8613C14.2017 42.779 14.2017 43.0034 14.2017 43.0184C14.2017 43.1231 14.2166 43.1081 14.2091 43.2278C14.2091 43.3848 14.2091 43.3848 14.1942 43.4895C14.1942 44.0654 14.1942 44.544 14.1942 45.1348C14.1942 45.1946 14.1942 45.3068 14.1942 45.3143C14.1942 45.3667 14.1793 45.3218 14.1793 45.3891C14.1793 45.4265 14.1942 45.4115 14.1867 45.4714C14.1867 45.6957 14.1867 45.9425 14.1793 46.1519C14.1793 46.6904 14.1793 47.3335 14.1718 47.7673C14.1718 47.8645 14.1494 47.7374 14.1494 47.872C14.142 48.6423 14.1271 49.4425 14.1196 50.2427C14.1196 50.3025 14.0972 50.2577 14.0972 50.3474C14.0972 50.4596 14.1196 50.4297 14.1196 50.5344C14.1196 50.5942 14.1047 50.654 14.0898 50.684C14.0674 51.6113 14.0898 52.5761 14.0972 53.5333C14.0972 54.2887 14.0972 55.044 14.1047 55.7545C14.8581 55.7545 15.5743 55.7545 16.2681 55.7545C16.9395 55.7545 17.5736 55.7246 18.1704 55.747C19.0133 55.7395 19.6698 55.732 20.4158 55.7246C20.9529 55.7246 21.5497 55.732 22.0048 55.7246C22.0645 55.7246 22.1988 55.7171 22.2659 55.7096C22.3778 55.7096 22.5718 55.7246 22.6837 55.7246C23.0343 55.7246 23.452 55.7096 23.8101 55.7021C24.2279 55.7021 24.6232 55.7021 25.0335 55.7021C25.2424 55.7021 25.5035 55.6872 25.7124 55.6872C25.8467 55.6872 26.0406 55.6946 26.1824 55.7021C26.6076 55.7021 27.0776 55.6872 27.4879 55.6797C28.0474 55.6797 28.6143 55.7096 29.1813 55.6797C29.8079 55.6946 30.5614 55.6946 31.1582 55.6797C31.6431 55.7246 32.1504 55.6797 32.6949 55.6872C32.7322 55.6872 32.8068 55.6946 32.8516 55.7021C33.6797 55.732 34.6047 55.6797 35.2761 55.7021C35.5297 55.6722 35.7461 55.7021 35.9773 55.7096C36.231 55.7096 36.4622 55.6946 36.7084 55.6946C36.7681 55.6946 36.88 55.7021 36.9397 55.7096C37.1858 55.7096 37.4246 55.6946 37.7006 55.6946C38.1034 55.6946 38.5361 55.7395 38.9986 55.7096C39.3567 55.732 39.8863 55.7545 40.2966 55.7246C40.9904 55.762 41.6917 55.7246 42.4078 55.7395C42.6465 55.7395 42.8703 55.7769 43.1091 55.747C43.3627 55.7769 43.6611 55.762 43.9669 55.762C44.243 55.7694 44.601 55.7769 44.8994 55.7919C45.347 55.7993 45.914 55.7769 46.2497 55.8367C46.4064 55.9564 46.7048 55.7769 47.0628 55.8068C47.2568 55.8293 47.227 55.8667 47.309 55.9115C47.4806 55.9265 47.6373 55.9115 47.8014 55.9115C47.9953 55.9265 48.1371 55.9788 48.3907 55.9788V56.0013ZM15.1789 42.6669C15.1789 42.6669 15.1864 42.6669 15.1864 42.6444C15.2088 42.7043 15.1715 42.8239 15.1789 42.6669ZM15.1715 42.6145C15.1715 42.3976 15.1416 42.091 15.1715 41.934C15.1715 41.8891 15.1416 41.9714 15.1342 41.904C15.1491 41.8143 15.1565 41.7021 15.1565 41.5451C15.2013 41.5376 15.1715 41.8517 15.2162 41.8667C15.2162 41.9863 15.2162 42.0461 15.2311 42.106C15.2162 42.3602 15.2461 42.4126 15.2311 42.5996C15.2088 42.5472 15.2088 42.637 15.1864 42.622L15.1715 42.6145Z" fill="white"/>
<path fill-rule="evenodd" clip-rule="evenodd" d="M30.0682 45.8491C30.0682 45.8491 29.9936 45.8716 29.9414 45.8791C29.9489 45.8641 30.0235 45.8417 30.0682 45.8491Z" fill="white"/>
<path fill-rule="evenodd" clip-rule="evenodd" d="M28.2408 44.4837C28.2408 44.4837 28.114 44.4987 28.1214 44.4688C28.1736 44.4688 28.196 44.4762 28.2408 44.4837Z" fill="white"/>
<path fill-rule="evenodd" clip-rule="evenodd" d="M28.0842 44.4363C28.0842 44.4363 28.0021 44.4363 27.9648 44.4363C27.9648 44.4214 28.0618 44.4363 28.0842 44.4363Z" fill="white"/>
<path fill-rule="evenodd" clip-rule="evenodd" d="M27.5764 44.5946C27.5764 44.5946 27.4869 44.5946 27.457 44.5797C27.4645 44.5722 27.5391 44.5946 27.5764 44.5946Z" fill="white"/>
<path fill-rule="evenodd" clip-rule="evenodd" d="M27.4205 44.3156C27.3758 44.3231 27.3086 44.3156 27.2266 44.2782C27.2639 44.2707 27.3459 44.3156 27.4205 44.3156Z" fill="white"/>
<path fill-rule="evenodd" clip-rule="evenodd" d="M26.4581 45.2527C26.3387 45.2228 26.1 45.1106 26.0254 45.0508C26.1597 45.1256 26.3238 45.1929 26.4581 45.2527Z" fill="white"/>
<path fill-rule="evenodd" clip-rule="evenodd" d="M26.3603 44.6458C26.2185 44.6084 25.9947 44.4813 25.8381 44.384C25.8306 44.3466 26.0619 44.5261 26.129 44.5261C26.1514 44.5411 26.1887 44.5635 26.226 44.586C26.2707 44.6084 26.323 44.6084 26.3603 44.6458Z" fill="white"/>
<path fill-rule="evenodd" clip-rule="evenodd" d="M25.0034 43.5833C25.0034 43.5833 24.981 43.5907 24.9512 43.5534C24.9512 43.5384 24.9512 43.5309 24.9512 43.5234L25.0034 43.5758V43.5833Z" fill="white"/>
<path fill-rule="evenodd" clip-rule="evenodd" d="M24.391 43.1445C24.3015 43.0697 24.1597 42.8379 24.0926 42.7033C24.0777 42.6883 24.0702 42.6883 24.0553 42.6584C24.0105 42.5836 23.921 42.4041 24.018 42.5761C24.1448 42.7781 24.2418 42.9426 24.3985 43.1445H24.391Z" fill="white"/>
<path fill-rule="evenodd" clip-rule="evenodd" d="M24.5629 42.9172C24.5629 42.9172 24.5181 42.8649 24.4883 42.8125C24.5032 42.8125 24.5629 42.8948 24.5629 42.9172Z" fill="white"/>
<path fill-rule="evenodd" clip-rule="evenodd" d="M23.8837 43.1652C23.8837 43.1652 23.8166 43.0605 23.7793 43.0156C23.8091 43.0455 23.8688 43.1203 23.8837 43.1652Z" fill="white"/>
<path fill-rule="evenodd" clip-rule="evenodd" d="M24.4143 42.8586C24.4143 42.8586 24.3248 42.739 24.2875 42.6941C24.2801 42.6418 24.377 42.7988 24.4143 42.8586Z" fill="white"/>
<path fill-rule="evenodd" clip-rule="evenodd" d="M24.4292 42.7459C24.4292 42.7459 24.3397 42.6337 24.2949 42.5664C24.3322 42.5963 24.3844 42.6861 24.4292 42.7459Z" fill="white"/>
<path fill-rule="evenodd" clip-rule="evenodd" d="M23.6673 43.0614C23.6673 43.0614 23.6002 42.9941 23.5703 42.9492C23.5927 42.9492 23.63 43.024 23.6673 43.0614Z" fill="white"/>
<path fill-rule="evenodd" clip-rule="evenodd" d="M23.7268 42.9179C23.682 42.8655 23.5776 42.6636 23.5254 42.5664C23.6075 42.6861 23.6522 42.7833 23.7268 42.9179Z" fill="white"/>
<path fill-rule="evenodd" clip-rule="evenodd" d="M24.2801 42.5388C24.2129 42.4715 24.1682 42.3368 24.1309 42.2695C24.1831 42.3368 24.2204 42.464 24.2801 42.5388Z" fill="white"/>
<path fill-rule="evenodd" clip-rule="evenodd" d="M23.943 42.439C23.943 42.439 23.8834 42.3568 23.8535 42.3119C23.8684 42.2895 23.9057 42.3867 23.943 42.439Z" fill="white"/>
<path fill-rule="evenodd" clip-rule="evenodd" d="M23.9148 42.2674C23.9148 42.2674 23.87 42.1926 23.8477 42.1328C23.8626 42.1403 23.8924 42.23 23.9148 42.2674Z" fill="white"/>
<path fill-rule="evenodd" clip-rule="evenodd" d="M23.906 42.0947C23.906 42.0947 23.824 41.9526 23.8613 41.9751C23.8837 42.0125 23.8613 42.0125 23.8613 42.0125C23.8762 42.0573 23.8837 42.0498 23.906 42.0947Z" fill="white"/>
<path fill-rule="evenodd" clip-rule="evenodd" d="M23.3691 41.8867C23.4587 42.141 23.4288 41.969 23.3691 41.8867Z" fill="white"/>
<path fill-rule="evenodd" clip-rule="evenodd" d="M23.1012 41.7507C23.0639 41.6759 23.0416 41.5936 23.0117 41.5039C23.0416 41.5637 23.0863 41.7133 23.1012 41.7507Z" fill="white"/>
<path fill-rule="evenodd" clip-rule="evenodd" d="M23.048 41.7016C23.048 41.7016 22.9883 41.5819 23.0181 41.6044L23.048 41.7016Z" fill="white"/>
<path fill-rule="evenodd" clip-rule="evenodd" d="M22.7202 41.6108C22.7202 41.6108 22.6754 41.5211 22.668 41.4688C22.6829 41.4837 22.7202 41.5809 22.7202 41.6108Z" fill="white"/>
<path fill-rule="evenodd" clip-rule="evenodd" d="M22.5862 41.0332C22.5415 40.8388 22.5266 40.8911 22.5862 41.0332Z" fill="white"/>
<path fill-rule="evenodd" clip-rule="evenodd" d="M25.1818 45.0131C25.1818 45.0131 25.0997 44.9757 25.0773 44.9682C25.0326 44.9159 24.9207 44.8486 24.8535 44.7812C24.9505 44.8411 25.0326 44.9383 25.1818 45.0131Z" fill="white"/>
<path fill-rule="evenodd" clip-rule="evenodd" d="M23.8916 42.9995C23.8618 42.9621 23.8767 42.9547 23.8394 42.9098C23.8394 42.9023 23.8543 42.9247 23.8618 42.9173C23.8021 42.82 23.7797 42.7752 23.735 42.7079C23.7424 42.7153 23.7499 42.7228 23.7574 42.7153C23.6828 42.6256 23.6455 42.4985 23.541 42.2891C23.6604 42.476 23.8842 42.9247 24.0035 43.0818C23.9737 43.0668 23.8916 42.9173 23.8618 42.9098C23.8469 42.9098 23.9215 43.007 23.8842 42.9921L23.8916 42.9995Z" fill="white"/>
<path fill-rule="evenodd" clip-rule="evenodd" d="M24.2205 42.5666C24.2056 42.5666 24.1758 42.4993 24.1758 42.4844C24.1982 42.4993 24.3101 42.7162 24.2205 42.5666Z" fill="white"/>
<path fill-rule="evenodd" clip-rule="evenodd" d="M23.6 41.3345H23.6224C23.5776 41.2149 23.5254 41.0354 23.5254 40.9531C23.5776 41.0877 23.6298 41.3794 23.697 41.4617C23.697 41.4841 23.7119 41.529 23.7193 41.5514C23.8685 41.8431 23.973 42.1871 24.1595 42.4713C24.0327 42.3666 23.9506 42.0226 23.8312 41.888C23.8238 41.858 23.8312 41.888 23.8462 41.9029C23.7865 41.7608 23.697 41.5065 23.6075 41.3345H23.6Z" fill="white"/>
<path fill-rule="evenodd" clip-rule="evenodd" d="M22.9972 41.6687C22.9972 41.6687 22.9599 41.5864 22.9375 41.5565C22.9375 41.5415 22.9972 41.6238 22.9972 41.6687Z" fill="white"/>
<path fill-rule="evenodd" clip-rule="evenodd" d="M51.6422 45.5587C51.6944 45.5288 51.8585 45.4391 51.9107 45.4017C52.1345 45.3045 52.321 45.1923 52.5299 45.0577C52.7089 44.9305 52.8581 44.781 53.0297 44.6389C53.1565 44.5267 53.1938 44.4818 53.2684 44.407C53.4997 44.1752 53.6862 43.9807 53.7384 43.8386C53.8578 43.6367 54.0219 43.4049 54.0965 43.2104C54.1114 43.1805 54.1487 43.1282 54.1562 43.1132C54.3501 42.6346 54.3725 42.3055 54.4844 41.7371C54.4695 41.6773 54.4397 41.6399 54.4247 41.5352C54.4173 41.4904 54.4247 41.3931 54.4173 41.3557C54.38 41.2286 54.2755 41.3109 54.2681 41.1015C54.2532 41.0865 54.2382 41.1239 54.2308 41.1314C54.104 41.1015 53.9771 41.1538 53.8802 41.0865C53.7906 41.1987 53.731 41.1538 53.6564 41.2361C53.6116 41.2884 53.5519 41.3856 53.4922 41.438C53.4251 41.5053 53.3729 41.5726 53.3132 41.625C53.2759 41.61 53.2237 41.6998 53.1864 41.7072C53.1118 41.8119 53.0521 41.8792 52.9626 41.9765C52.9477 41.9765 52.9253 41.9989 52.9104 41.9989C52.7313 42.1933 52.515 42.3504 52.2763 42.5897C52.2539 42.6121 52.2017 42.657 52.1793 42.6795C52.0152 42.8664 51.7018 43.1132 51.5526 43.1431C51.5153 43.1656 51.5228 43.173 51.4855 43.203C51.4482 43.203 51.3139 43.2329 51.2095 43.2927C51.1722 43.3151 51.1349 43.3824 51.0603 43.4273C50.9484 43.4946 50.8141 43.5096 50.7097 43.5619C50.6649 43.5918 50.6201 43.6367 50.5679 43.6666C50.4411 43.7489 50.1427 43.8237 50.0159 43.8461C49.9189 43.8686 49.8742 43.8461 49.7996 43.8686C49.7324 43.8835 49.6877 43.9284 49.7026 43.9658C49.531 44.1079 48.9939 44.0929 48.688 44.1378C48.4568 44.1079 48.3001 44.1378 48.1061 44.1079C48.0688 44.1004 48.0315 44.078 47.9942 44.063C47.9346 44.048 47.845 44.0555 47.763 44.0256C47.6138 43.9733 47.5541 43.9508 47.3974 43.891C47.2632 43.7414 47.1065 43.7414 46.9797 43.6292C46.9275 43.5918 46.8902 43.5395 46.8379 43.4946C46.7932 43.4647 46.741 43.4348 46.6887 43.3824C46.644 43.3376 46.6067 43.2777 46.5545 43.2329C46.5172 43.203 46.4799 43.188 46.4575 43.1506C46.4276 43.1132 46.4127 43.0758 46.3754 43.0384C46.3381 42.9936 46.2784 42.9636 46.2411 42.9262C46.0919 42.7468 45.98 42.5897 45.801 42.3803C45.5996 42.0662 45.428 41.7072 45.2415 41.3557C45.0625 40.9594 44.8984 40.5181 44.6969 39.9124C44.5925 39.6581 44.5179 39.4711 44.406 39.1495C44.3836 39.0972 44.3836 39.1271 44.3463 39.0299C44.2643 38.7906 44.1897 38.5812 44.1151 38.3867C44.0106 38.7083 43.9062 39.0822 43.7943 39.3963C43.7943 39.4337 43.7868 39.4711 43.7719 39.516C43.5108 40.2115 43.1751 41.2809 42.9737 41.8045C42.8767 41.9989 42.7648 42.1634 42.6604 42.3654C42.6007 42.485 42.5708 42.5224 42.541 42.5673C42.5037 42.6196 42.4739 42.6645 42.444 42.7094C42.3769 42.7991 42.2874 42.8664 42.2277 42.9487C42.1009 43.1057 41.8994 43.2703 41.7428 43.3824C41.7204 43.4049 41.6458 43.4797 41.6234 43.5021C41.5414 43.5619 41.4369 43.5993 41.3474 43.6666C40.9893 43.8985 40.5119 44.0555 40.1314 44.1303C40.0121 44.1527 39.9226 44.2051 39.7808 44.2275C39.5496 44.2574 39.3183 44.2874 39.087 44.2874C39.0497 44.2874 38.9528 44.3023 38.9155 44.3098C38.7812 44.3098 38.632 44.3248 38.4977 44.3098C38.341 44.3098 38.1545 44.2948 37.983 44.2948C37.8188 44.2724 37.6622 44.235 37.5055 44.1976C37.1176 44.1303 36.5805 43.9134 36.2373 43.6218C36.1329 43.5918 36.0881 43.4946 36.0061 43.4273C35.8792 43.3301 35.7599 43.1805 35.6256 43.0459C35.5659 42.9711 35.5137 42.8889 35.4615 42.8141L35.4242 42.7542L35.4018 42.7243C35.372 42.672 35.3645 42.657 35.357 42.6346C35.3272 42.5598 35.2899 42.4775 35.2451 42.3803C35.1855 42.2457 35.1183 42.126 35.0586 41.9839C35.0139 41.8194 34.9691 41.6624 34.9244 41.4978C34.3798 41.3034 34.1933 41.1164 34.1038 40.9295C33.9695 41.079 33.7681 41.251 33.216 41.3782C33.0818 41.6324 32.9549 41.9241 32.8281 42.141C32.7013 42.3205 32.5446 42.5673 32.4402 42.6944C32.2612 42.9188 32.0672 43.1207 31.8658 43.3151C31.7613 43.375 31.6196 43.4946 31.545 43.5694C31.5152 43.5694 31.4629 43.6218 31.4182 43.6442C31.269 43.7639 31.0601 43.891 30.8438 43.9882C30.799 44.048 30.6573 44.078 30.5901 44.1453C30.5454 44.1453 30.6349 44.1079 30.5677 44.1228C30.4409 44.235 29.9262 44.3846 29.6875 44.422C29.7024 44.422 29.7098 44.422 29.6875 44.4295C29.6278 44.4295 29.6054 44.4594 29.5383 44.4743C29.3219 44.5267 29.128 44.5416 28.9489 44.5715C28.7624 44.6015 28.5909 44.6389 28.3969 44.6314C28.3521 44.6164 28.2179 44.5865 28.1731 44.6089C28.2402 44.6164 28.3298 44.6239 28.3223 44.6463C28.2029 44.6314 28.0537 44.6314 27.9717 44.6463C27.8299 44.6463 27.7628 44.6015 27.6285 44.6015C27.5987 44.6015 27.6509 44.6314 27.5912 44.6239C27.3973 44.5715 27.2854 44.594 27.1212 44.5117C27.0616 44.5117 26.8601 44.4594 26.8005 44.4295C26.7408 44.422 26.8527 44.4668 26.8005 44.4594C26.6363 44.422 26.5021 44.3547 26.3752 44.2799C26.3379 44.2799 26.3081 44.2799 26.2484 44.2574C26.2111 44.2425 26.2708 44.2425 26.2111 44.2201C26.1514 44.2051 26.241 44.2649 26.2186 44.2724C26.1365 44.2425 26.144 44.2649 26.1067 44.2574C26.0172 44.1827 25.9351 44.1602 25.8381 44.1154C25.7411 44.063 25.6367 43.9957 25.5546 43.9284C25.48 43.876 25.4353 43.8611 25.3607 43.7938C25.301 43.7339 25.2488 43.6816 25.1891 43.6143C25.1518 43.5844 25.1966 43.6517 25.1518 43.5993C24.9131 43.375 24.7042 43.1207 24.5252 42.9412C24.7788 43.2179 24.928 43.4498 25.1891 43.6592C25.204 43.7115 25.3085 43.7414 25.3234 43.8012C25.3458 43.8012 25.301 43.7489 25.3532 43.8012C25.3681 43.8162 25.3756 43.8312 25.4054 43.8536C25.3532 43.8461 25.4054 43.891 25.4054 43.9209C25.6143 44.1154 25.8232 44.1976 26.0246 44.3322C26.0619 44.3472 26.0097 44.3023 26.0545 44.3248C26.1365 44.3621 26.2037 44.3921 26.3006 44.4369C26.323 44.4668 26.3827 44.5117 26.3379 44.5192C26.1887 44.4444 26.0097 44.3771 25.8381 44.2649C25.6591 44.1677 25.48 44.0555 25.3308 43.9209C25.2413 43.8461 25.1518 43.7564 25.0847 43.7265C25.2189 43.8386 25.3085 43.9583 25.4278 44.063C25.577 44.1976 25.7859 44.2724 25.9426 44.3921C25.9873 44.422 26.0022 44.4444 26.047 44.4668C26.0843 44.4818 26.1514 44.4968 26.1887 44.5192C26.2335 44.5416 26.226 44.5491 26.2633 44.5715C26.3379 44.6089 26.4051 44.6164 26.4871 44.6613C26.6289 44.7286 26.7706 44.7809 26.9347 44.8333C26.9646 44.8557 26.9347 44.8707 26.9049 44.8632C26.7109 44.7959 26.6736 44.7959 26.4797 44.7211C26.5021 44.7361 26.5095 44.7436 26.5021 44.751C26.4424 44.7211 26.4275 44.7062 26.3827 44.6987C26.5244 44.766 26.4946 44.7959 26.4424 44.7884C26.2708 44.6987 26.0694 44.6164 25.8829 44.5117C25.7113 44.3995 25.5323 44.2948 25.4129 44.1901C25.3756 44.1752 25.3532 44.1752 25.301 44.1378C25.0101 43.9209 24.7191 43.6218 24.4804 43.3226C24.7266 43.6965 25.0847 44.0181 25.5099 44.3098C25.5248 44.3248 25.5024 44.3248 25.5472 44.3547C25.7411 44.4594 25.95 44.6164 26.1141 44.6762C26.1664 44.7286 26.226 44.781 26.2857 44.8408C26.793 45.0427 27.166 45.2371 27.6882 45.3194C27.6882 45.3344 27.7255 45.3493 27.7404 45.3643C27.6957 45.3643 27.6658 45.3792 27.6136 45.3867C27.5241 45.3718 27.4346 45.3643 27.36 45.3344C26.8974 45.3119 26.2857 45.0502 25.771 44.8034C25.6964 44.7884 25.7337 44.8333 25.771 44.8856C26.0172 45.0128 26.2559 45.1175 26.5244 45.2371C26.6065 45.3269 26.4797 45.3418 26.2633 45.2596C26.0843 45.1773 25.8381 45.0726 25.6292 44.9455C25.4204 44.8109 25.2264 44.6837 25.1294 44.6015C24.1895 43.9284 23.5479 42.9562 23.1152 41.9092C23.3316 42.5074 23.6524 43.0085 23.9731 43.4946C23.9806 43.4871 23.9955 43.4946 24.0254 43.532C24.3461 44.0032 24.831 44.4369 25.2562 44.7136C25.4129 44.8632 25.7784 45.0502 25.9649 45.1624C25.8903 45.1848 25.7038 45.1624 25.5099 45.0352C25.7038 45.1624 25.8978 45.2596 26.0694 45.3493C26.2111 45.4316 26.4797 45.4989 26.5468 45.5363C26.5617 45.5438 26.5244 45.5438 26.5617 45.5587C26.5021 45.5363 26.6736 45.5886 26.6886 45.5961C26.7706 45.6186 26.7557 45.6036 26.8527 45.641C26.9198 45.6634 26.9124 45.6634 27.0541 45.7158C27.2704 45.7607 27.4942 45.8055 27.7106 45.8429C27.9269 45.8579 28.1209 45.8728 28.3671 45.8953C28.4193 45.8953 28.5013 45.9027 28.5163 45.9027C28.561 45.9027 28.5163 45.9177 28.5759 45.9252C28.6058 45.9252 28.5909 45.9177 28.6356 45.9177C28.8221 45.9177 29.0086 45.9027 29.1727 45.8953C29.3891 45.8953 29.6203 45.8579 29.8441 45.813C30.0679 45.7681 30.2843 45.7457 30.4558 45.6859C30.5304 45.6634 30.4409 45.7158 30.5379 45.6859C31.1422 45.5438 31.7464 45.2371 32.3134 44.8782C32.3581 44.8483 32.3358 44.8931 32.3954 44.8483C32.47 44.7959 32.4402 44.7884 32.5073 44.7361C32.5521 44.7136 32.5969 44.6912 32.6267 44.6837C32.94 44.4594 33.2235 44.1901 33.4771 43.891L33.6711 43.6666L33.7233 43.5918C33.7681 43.532 33.783 43.5021 33.7979 43.4722L33.8128 43.4498C33.8651 43.36 33.9098 43.2553 33.9322 43.173V43.2329C33.9546 43.3077 33.9919 43.36 34.0217 43.4423C34.0217 43.4572 34.0292 43.4722 34.0366 43.4946C34.1336 43.6367 34.2157 43.7489 34.2903 43.8686C34.4768 44.1153 34.6633 44.3621 34.902 44.579C35.0661 44.7436 35.2526 44.9081 35.4466 45.0352C35.6331 45.1848 35.8345 45.2895 36.0135 45.3718C36.0583 45.3942 36.1776 45.4465 36.2224 45.4615C36.3268 45.5213 36.4313 45.5662 36.5432 45.6111C36.6924 45.6634 36.849 45.7158 36.9982 45.7532C37.1698 45.7831 37.319 45.813 37.4608 45.8354C37.8039 45.9252 38.1247 45.9102 38.4529 45.9401C38.6394 45.9551 38.8036 45.9177 38.9826 45.9102C39.0796 45.9102 39.2437 45.9102 39.3481 45.9102C39.6913 45.8653 40.0419 45.8205 40.3701 45.7382C40.8028 45.6559 41.2653 45.5438 41.6756 45.3194C42.1605 45.1399 42.6977 44.7735 43.0632 44.4369C43.4064 44.1976 43.6525 43.8461 43.9211 43.4797C43.9584 43.4348 43.9584 43.4423 43.9733 43.4273C44.0405 43.3525 44.0703 43.2927 44.0927 43.2179C44.1225 43.1431 44.1449 43.0609 44.1673 43.0309C44.1673 42.9711 44.1822 42.9337 44.1971 42.9636C44.1971 42.9861 44.2046 43.0085 44.212 43.0235C44.227 43.0758 44.2419 43.0758 44.2643 43.1132C44.2643 43.1282 44.2717 43.1506 44.2792 43.1656C44.2941 43.2104 44.3239 43.2179 44.3463 43.2553C44.3687 43.2852 44.3762 43.3301 44.3911 43.36C44.3911 43.375 44.406 43.3974 44.4209 43.4124C44.4433 43.4423 44.5104 43.547 44.5701 43.6068C44.7193 43.8536 44.973 44.1976 45.2266 44.422C45.5996 44.8557 46.0994 45.1923 46.644 45.4989C46.8379 45.5886 47.0095 45.6933 47.2109 45.7457C47.4198 45.828 47.6884 45.8953 47.9569 45.9327C48.218 45.9551 48.5314 46.0149 48.7701 46C49.1356 46 49.5832 45.9252 49.8667 45.9401C50.0159 46.0299 50.2248 45.8205 50.5082 45.7607C50.6649 45.7382 50.6574 45.7756 50.732 45.8055C50.8738 45.7831 51.0006 45.7382 51.1274 45.6709C51.2841 45.6186 51.4109 45.6335 51.6123 45.5438L51.6422 45.5587ZM26.7781 44.5566C26.7781 44.5566 26.7781 44.5491 26.7632 44.5416C26.8079 44.5267 26.8751 44.594 26.7781 44.5566ZM26.7408 44.5566C26.599 44.5192 26.4051 44.4295 26.3156 44.3696C26.2932 44.3547 26.323 44.407 26.2783 44.3921C26.226 44.3472 26.1589 44.3173 26.0694 44.2574C26.0843 44.2201 26.2633 44.3397 26.2857 44.3098C26.3603 44.3472 26.3976 44.3696 26.4349 44.3621C26.5841 44.4444 26.6214 44.4519 26.7408 44.4968C26.696 44.5117 26.7557 44.5192 26.7408 44.5491V44.5566Z" fill="white"/>
<path fill-rule="evenodd" clip-rule="evenodd" d="M24.832 27.5273C24.832 27.5273 24.8693 27.5273 24.8843 27.5273C24.8768 27.5348 24.847 27.5348 24.832 27.5273Z" fill="white"/>
<path fill-rule="evenodd" clip-rule="evenodd" d="M24.8184 29.1445C24.8184 29.1445 24.8641 29.1445 24.8488 29.1674C24.8336 29.1674 24.8336 29.1522 24.8184 29.1445Z" fill="white"/>
<path fill-rule="evenodd" clip-rule="evenodd" d="M24.8477 29.2031C24.8477 29.2031 24.8705 29.2184 24.8781 29.2184C24.8705 29.2337 24.8477 29.2184 24.8477 29.2031Z" fill="white"/>
<path fill-rule="evenodd" clip-rule="evenodd" d="M25.0938 29.0977C25.0938 29.0977 25.1242 29.0977 25.1318 29.1206C25.1242 29.1282 25.109 29.1053 25.0938 29.0977Z" fill="white"/>
<path fill-rule="evenodd" clip-rule="evenodd" d="M25.0039 29.332C25.0039 29.332 25.0412 29.332 25.0561 29.3619C25.0412 29.3619 25.0188 29.3395 25.0039 29.332Z" fill="white"/>
<path fill-rule="evenodd" clip-rule="evenodd" d="M25.9512 28.6055C25.9512 28.6055 26.0705 28.7027 26.078 28.7476C26.0482 28.6952 25.9885 28.6578 25.9512 28.6055Z" fill="white"/>
<path fill-rule="evenodd" clip-rule="evenodd" d="M25.668 29.0547C25.7276 29.0696 25.7649 29.1594 25.8172 29.2043C25.8022 29.2267 25.7575 29.1295 25.7276 29.1295C25.7202 29.1145 25.7127 29.107 25.7127 29.0921C25.6978 29.0771 25.6754 29.0771 25.6754 29.0547H25.668Z" fill="white"/>
<path fill-rule="evenodd" clip-rule="evenodd" d="M25.9668 29.5996C25.9668 29.5996 25.9897 29.5919 25.9973 29.6072C25.9973 29.6072 25.9897 29.6225 25.982 29.6225V29.5996H25.9668Z" fill="white"/>
<path fill-rule="evenodd" clip-rule="evenodd" d="M26.2418 29.7575C26.2791 29.7874 26.3164 29.8846 26.3164 29.937C26.3164 29.937 26.3314 29.937 26.3314 29.9519C26.3388 29.9818 26.3537 30.0566 26.3314 29.9893C26.2941 29.9071 26.2791 29.8397 26.2344 29.75L26.2418 29.7575Z" fill="white"/>
<path fill-rule="evenodd" clip-rule="evenodd" d="M26.004 29.8906C26.004 29.8906 26.0192 29.9135 26.0268 29.9288C26.0116 29.9288 25.9964 29.8983 26.004 29.8906Z" fill="white"/>
<path fill-rule="evenodd" clip-rule="evenodd" d="M26.6836 29.707C26.6836 29.707 26.706 29.7519 26.7134 29.7743C26.6985 29.7594 26.6836 29.7295 26.6836 29.707Z" fill="white"/>
<path fill-rule="evenodd" clip-rule="evenodd" d="M26.1016 29.8984C26.1016 29.8984 26.1314 29.9433 26.1463 29.9583C26.1314 29.9807 26.1165 29.9209 26.1016 29.8984Z" fill="white"/>
<path fill-rule="evenodd" clip-rule="evenodd" d="M26.041 29.9531C26.041 29.9531 26.0709 29.998 26.0783 30.0204C26.0634 30.0055 26.0485 29.9756 26.041 29.9531Z" fill="white"/>
<path fill-rule="evenodd" clip-rule="evenodd" d="M26.832 29.7422C26.832 29.7422 26.8619 29.7721 26.8693 29.7945C26.8544 29.7945 26.8395 29.7646 26.832 29.7422Z" fill="white"/>
<path fill-rule="evenodd" clip-rule="evenodd" d="M26.7207 29.8164C26.7207 29.8164 26.7655 29.9286 26.7729 29.9735C26.7431 29.9211 26.7356 29.8762 26.7207 29.8164Z" fill="white"/>
<path fill-rule="evenodd" clip-rule="evenodd" d="M26.0859 30.0352C26.0859 30.0352 26.1083 30.1099 26.1158 30.1399C26.0934 30.1174 26.1158 30.0651 26.0859 30.0352Z" fill="white"/>
<path fill-rule="evenodd" clip-rule="evenodd" d="M26.3477 30.0508C26.3477 30.0508 26.37 30.0807 26.3775 30.1031C26.3551 30.1106 26.3551 30.0732 26.3477 30.0508Z" fill="white"/>
<path fill-rule="evenodd" clip-rule="evenodd" d="M26.3105 30.125C26.3105 30.125 26.3255 30.1549 26.3255 30.1774C26.3105 30.1774 26.318 30.14 26.3105 30.125Z" fill="white"/>
<path fill-rule="evenodd" clip-rule="evenodd" d="M26.2578 30.1992C26.2578 30.1992 26.2877 30.2516 26.2578 30.2441C26.2578 30.2291 26.2578 30.2291 26.2727 30.2291C26.2727 30.2142 26.2578 30.2142 26.2578 30.1992Z" fill="white"/>
<path fill-rule="evenodd" clip-rule="evenodd" d="M26.9 30.3242C26.9 30.3242 26.9223 30.3915 26.9149 30.4289C26.9149 30.4065 26.8925 30.3392 26.9 30.3242Z" fill="white"/>
<path fill-rule="evenodd" clip-rule="evenodd" d="M26.9355 30.3477C26.9355 30.3477 26.9579 30.4 26.9355 30.3925V30.3477Z" fill="white"/>
<path fill-rule="evenodd" clip-rule="evenodd" d="M27.2275 30.4023C27.2275 30.4023 27.2425 30.4397 27.2425 30.4697C27.2275 30.4697 27.2201 30.4173 27.2275 30.4023Z" fill="white"/>
<path fill-rule="evenodd" clip-rule="evenodd" d="M27.2129 30.6641C27.2427 30.7388 27.2129 30.7688 27.2129 30.6641Z" fill="white"/>
<path fill-rule="evenodd" clip-rule="evenodd" d="M26.5703 28.7344C26.5703 28.7344 26.6002 28.7568 26.6151 28.7568C26.6151 28.7942 26.6598 28.8241 26.6748 28.8615C26.63 28.8316 26.6225 28.7792 26.5703 28.7344Z" fill="white"/>
<path fill-rule="evenodd" clip-rule="evenodd" d="M26.6082 29.7874C26.6082 29.7874 26.6082 29.8098 26.6156 29.8248C26.6082 29.8248 26.6007 29.8248 26.6007 29.8248C26.6231 29.8771 26.6231 29.8921 26.6305 29.9145C26.6305 29.9145 26.6231 29.9145 26.6156 29.9145C26.6529 29.9519 26.6231 30.0118 26.6604 30.094C26.6082 30.0118 26.5858 29.8248 26.541 29.75C26.5634 29.75 26.5709 29.8248 26.5932 29.8248C26.6082 29.8248 26.5783 29.7799 26.6082 29.7874Z" fill="white"/>
<path fill-rule="evenodd" clip-rule="evenodd" d="M26.1536 30.0206C26.1686 30.0206 26.1611 30.0505 26.1611 30.0505C26.1462 30.0505 26.1238 29.9607 26.1462 30.0206H26.1536Z" fill="white"/>
<path fill-rule="evenodd" clip-rule="evenodd" d="M26.3101 30.4884H26.2877C26.2877 30.5333 26.3026 30.6006 26.2877 30.6305C26.2653 30.5857 26.3026 30.4735 26.2653 30.4436C26.2653 30.4361 26.2653 30.4211 26.2653 30.4062C26.2205 30.294 26.228 30.1669 26.1758 30.0547C26.2429 30.0921 26.2056 30.2267 26.2653 30.279C26.2728 30.3314 26.2802 30.4286 26.3175 30.4959L26.3101 30.4884Z" fill="white"/>
<path fill-rule="evenodd" clip-rule="evenodd" d="M26.9815 30.3633C26.9815 30.3633 26.9964 30.4007 27.0113 30.4156C27.0113 30.4231 26.974 30.3857 26.9815 30.3633Z" fill="white"/>
<path fill-rule="evenodd" clip-rule="evenodd" d="M26.5782 32.9882C26.5782 32.9882 26.6155 32.9059 26.6454 32.8686C26.7051 32.7863 26.7871 32.719 26.8319 32.6218C26.8692 32.5395 26.899 32.4498 26.9363 32.36C26.9662 32.2927 26.9662 32.2703 26.9811 32.2254C27.0258 32.0908 27.0781 31.9861 27.0408 31.9113C27.0408 31.8066 27.0557 31.6869 27.0408 31.5972C27.0408 31.5822 27.0482 31.5598 27.0408 31.5523C27.0109 31.328 26.8916 31.1859 26.8468 30.9615C26.817 30.9391 26.7722 30.9241 26.7349 30.8867C26.72 30.8718 26.7051 30.8344 26.6901 30.8194C26.623 30.7745 26.5409 30.8119 26.4887 30.7371C26.4738 30.7371 26.4663 30.7446 26.4589 30.7521C26.3246 30.7521 26.2127 30.7745 26.1083 30.7521C26.0486 30.797 25.974 30.782 25.9143 30.8119C25.877 30.8269 25.8397 30.8643 25.8099 30.8867C25.7726 30.9092 25.7353 30.9316 25.6905 30.954C25.6532 30.954 25.6383 30.9765 25.601 30.9839C25.5712 31.0213 25.5339 31.0363 25.504 31.0737C25.4891 31.0737 25.4816 31.0812 25.4667 31.0737C25.3772 31.1335 25.2877 31.1784 25.228 31.2532C25.228 31.2532 25.2131 31.2756 25.2131 31.2831C25.1832 31.3429 25.131 31.4327 25.0639 31.4327C25.0564 31.4401 25.0639 31.4476 25.0564 31.4551C25.0266 31.4551 24.9744 31.4551 24.9594 31.4775C24.9594 31.485 24.9744 31.5149 24.9594 31.5374C24.9445 31.5673 24.8923 31.5673 24.8774 31.5897C24.8774 31.6047 24.8774 31.6346 24.8774 31.6495C24.8699 31.6944 24.8028 31.7393 24.7729 31.7468C24.7506 31.7542 24.7282 31.7468 24.7133 31.7617C24.7058 31.7767 24.7133 31.8066 24.7431 31.8365C24.758 31.9412 24.6088 31.9562 24.5641 32.031C24.4969 32.031 24.4745 32.0983 24.4149 32.1207C24.4074 32.1207 24.385 32.1207 24.3776 32.1207C24.3626 32.1207 24.3403 32.1506 24.3179 32.1656C24.2806 32.1955 24.2433 32.1955 24.2134 32.2179C24.1463 32.1805 24.1239 32.2478 24.0717 32.2478C24.0568 32.2478 24.0344 32.2329 24.0195 32.2404C24.0046 32.2404 23.9896 32.2553 23.9673 32.2553C23.9523 32.2553 23.93 32.2404 23.915 32.2404C23.9001 32.2404 23.8927 32.2553 23.8852 32.2553C23.8703 32.2553 23.8628 32.2404 23.8479 32.2478C23.833 32.2478 23.8181 32.2703 23.8031 32.2703C23.7435 32.2703 23.6838 32.2553 23.6241 32.2777C23.5346 32.2329 23.4376 32.2628 23.3406 32.188C23.3108 32.188 23.2884 32.188 23.2586 32.1656C23.2511 32.1656 23.2436 32.1805 23.2362 32.173C23.1914 32.1282 23.1094 32.1506 23.0646 32.0983C23.0646 32.0983 23.0571 32.1057 23.0497 32.1057C22.9825 32.0384 22.9005 31.9711 22.8259 31.9487C22.8035 31.8889 22.7364 31.8739 22.6916 31.8215C22.6692 31.7991 22.6618 31.7692 22.6394 31.7468C22.5946 31.7094 22.5573 31.6421 22.52 31.5972C22.5126 31.5822 22.4902 31.5822 22.4753 31.5673C22.4529 31.5448 22.4529 31.5074 22.4305 31.485C22.3484 31.3878 22.3111 31.2532 22.2888 31.1485C22.2813 31.1186 22.2589 31.0961 22.244 31.0587C22.2291 30.9989 22.244 30.9316 22.2291 30.8718C22.2291 30.8568 22.2142 30.8418 22.2142 30.8269C22.2142 30.7895 22.2142 30.7521 22.2142 30.7147C22.2142 30.6175 22.1918 30.5128 22.2365 30.4305C22.2216 30.3109 22.2813 30.1463 22.3335 30.0192C22.3186 29.9818 22.3559 29.9594 22.3634 29.9295C22.4007 29.8397 22.4454 29.7126 22.5275 29.6378C22.7737 29.2489 23.2213 29.0245 23.6614 28.9273C23.6987 28.9423 23.7509 28.9273 23.7882 28.9124C23.7957 28.9273 23.8181 28.9273 23.833 28.9273C23.8927 28.8899 23.9598 28.9273 24.0344 28.9198C24.0568 28.8824 24.0941 28.9198 24.1314 28.8974C24.1388 28.9198 24.1165 28.9124 24.1314 28.9273C24.1911 28.8675 24.3403 28.9348 24.4223 28.9348V28.9273C24.4372 28.9498 24.4522 28.9273 24.4671 28.9273C24.5939 28.9647 24.7133 28.9498 24.8326 28.9871C24.8401 29.0021 24.8625 29.047 24.8848 29.032C24.8699 29.0171 24.8401 29.0021 24.855 28.9797C24.8848 29.0096 24.9296 29.0245 24.9594 29.0171C25.0042 29.0395 25.0117 29.0694 25.0564 29.0769C25.0639 29.0769 25.0639 29.047 25.0788 29.0619C25.1236 29.1143 25.1683 29.1143 25.1982 29.1666C25.228 29.1666 25.2802 29.204 25.2877 29.2265C25.3101 29.2265 25.2877 29.1965 25.3026 29.204C25.3474 29.2339 25.3847 29.2713 25.4145 29.3162C25.4294 29.3162 25.4518 29.3162 25.4667 29.3237C25.4742 29.3312 25.4443 29.3386 25.4667 29.3461C25.4891 29.3461 25.4742 29.3162 25.4891 29.3087C25.5115 29.3237 25.5189 29.3087 25.5413 29.3087C25.5562 29.3461 25.5935 29.3536 25.6234 29.376C25.6532 29.3985 25.6681 29.4433 25.698 29.4658C25.7204 29.4882 25.7427 29.4882 25.7577 29.5181C25.7726 29.5406 25.7651 29.5705 25.7875 29.6004C25.8024 29.6154 25.8024 29.578 25.8099 29.6004C25.8696 29.6976 25.9292 29.7948 25.9889 29.8621C25.8994 29.7574 25.8994 29.6527 25.8099 29.5705C25.8248 29.5406 25.7726 29.5331 25.7875 29.5032C25.7726 29.5032 25.78 29.5331 25.7651 29.5032C25.7651 29.4957 25.7651 29.4882 25.7577 29.4807C25.7875 29.4807 25.78 29.4583 25.7875 29.4359C25.7353 29.3536 25.6756 29.3012 25.6234 29.2339C25.6085 29.2265 25.6234 29.2489 25.601 29.2414C25.5786 29.219 25.5637 29.1965 25.5339 29.1741C25.5413 29.1517 25.5339 29.1218 25.5637 29.1143C25.6383 29.1965 25.7726 29.3012 25.8472 29.4134C25.8696 29.4508 25.877 29.4957 25.9143 29.5032C25.8696 29.4583 25.877 29.391 25.8546 29.3386C25.8173 29.2788 25.7427 29.2339 25.7054 29.1741C25.698 29.1592 25.698 29.1442 25.6831 29.1292C25.6756 29.1218 25.6458 29.1143 25.6383 29.0993C25.6308 29.0844 25.6383 29.0769 25.6234 29.0694C25.601 29.047 25.5712 29.047 25.5488 29.0171C25.5115 28.9722 25.4816 28.9273 25.4369 28.8899C25.4369 28.875 25.4518 28.86 25.4667 28.8675C25.5189 28.9198 25.5264 28.9198 25.5861 28.9797C25.5861 28.9722 25.5861 28.9647 25.5861 28.9572C25.601 28.9722 25.601 28.9871 25.6234 28.9871C25.5861 28.9498 25.6234 28.9198 25.6458 28.9198C25.7427 29.0245 25.8621 29.1517 25.9218 29.2564C25.9367 29.2564 25.9591 29.2564 25.974 29.2713C26.056 29.376 26.1232 29.5107 26.1903 29.6378C26.153 29.4733 26.0486 29.3312 25.9292 29.1816C25.9292 29.1741 25.9441 29.1666 25.9292 29.1517C25.8695 29.0918 25.8173 29.0171 25.7651 28.9722V28.86C25.6085 28.7254 25.5562 28.5609 25.3921 28.4337C25.3996 28.4188 25.3921 28.4038 25.3921 28.3963C25.4145 28.3963 25.4294 28.3889 25.4518 28.3963C25.4816 28.4188 25.5115 28.4262 25.5264 28.4562C25.698 28.5235 25.8546 28.7254 26.0188 28.875C26.0561 28.875 26.056 28.8525 26.0635 28.8226C26.0038 28.7329 25.9143 28.6805 25.8472 28.5758C25.8621 28.501 25.9218 28.4936 25.9889 28.5609C26.1008 28.6656 26.2649 28.8824 26.3097 28.9647C26.6006 29.3162 26.7573 29.7574 26.8543 30.2136C26.8319 29.9519 26.7274 29.7275 26.6603 29.5032C26.6528 29.5032 26.6454 29.5032 26.6379 29.4882C26.5484 29.2788 26.429 29.047 26.2873 28.9049C26.2724 28.8151 26.1381 28.7104 26.1083 28.6282C26.1679 28.6057 26.2425 28.6357 26.3097 28.703C26.2724 28.6581 26.1903 28.5384 26.153 28.4936C26.1157 28.4412 26.0187 28.3814 26.0038 28.344C26.0038 28.3365 26.0187 28.344 26.0038 28.329C26.0262 28.344 25.9665 28.2991 25.9591 28.2991C25.9292 28.2842 25.9292 28.2916 25.8994 28.2617C25.8621 28.2243 25.8621 28.2243 25.8472 28.1944C25.7054 28.0673 25.5488 27.985 25.3921 27.8803C25.3772 27.8654 25.3399 27.8504 25.3399 27.8504C25.325 27.8429 25.3399 27.8354 25.325 27.828C25.3101 27.828 25.3101 27.828 25.2951 27.828C25.2355 27.7906 25.1609 27.7532 25.0937 27.7233C24.9221 27.656 24.7207 27.5737 24.579 27.5438C24.5491 27.5288 24.5939 27.5213 24.5491 27.5139C24.303 27.4465 24.0269 27.4017 23.7435 27.4092C23.7211 27.4092 23.7435 27.3867 23.7062 27.3867C23.6689 27.3867 23.6763 27.4092 23.6465 27.4092C23.6241 27.4092 23.6017 27.3942 23.5943 27.3867C23.2735 27.3867 22.9378 27.4765 22.6394 27.6111C22.3559 27.7307 22.0799 27.8803 21.8486 28.0673C21.6621 28.2094 21.5204 28.3739 21.3786 28.5235C21.2071 28.7404 21.0802 28.9423 20.9534 29.1666C20.8714 29.3312 20.7744 29.5181 20.7446 29.6677C20.7446 29.6827 20.7296 29.75 20.7296 29.7574C20.7147 29.8023 20.6849 29.8472 20.6774 29.8921C20.6401 30.0192 20.6401 30.1463 20.6252 30.2735C20.6028 30.4156 20.5954 30.5502 20.5879 30.6923C20.5879 30.7671 20.6103 30.8418 20.6177 30.9241C20.6177 30.9765 20.6103 31.0288 20.6177 31.0812C20.6401 31.2307 20.6849 31.3803 20.7222 31.5149C20.7595 31.7019 20.8042 31.8963 20.9087 32.0609C20.9833 32.2628 21.1101 32.4871 21.2444 32.6442C21.304 32.8087 21.4607 32.9059 21.5801 33.0406C21.595 33.0555 21.595 33.0705 21.6099 33.0854C21.7889 33.3098 22.0948 33.4369 22.2738 33.5715C22.3634 33.5865 22.4156 33.6463 22.4827 33.6837C22.5573 33.7286 22.6394 33.7361 22.7214 33.766C22.7438 33.7735 22.7662 33.7959 22.796 33.8034C22.8706 33.8408 22.9602 33.8408 23.0497 33.8557C23.184 33.8931 23.3257 33.953 23.4824 33.9455C23.6017 33.9754 23.7882 34.0128 23.9225 33.9829C24.1612 34.0128 24.3999 33.938 24.6387 33.8931C24.7207 33.8782 24.8028 33.8931 24.8774 33.8333C24.9669 33.8333 25.0639 33.7809 25.1609 33.7436C25.2578 33.6987 25.3623 33.6688 25.4667 33.6239C25.6085 33.5491 25.7577 33.4295 25.8845 33.3995C26.0038 33.4668 25.974 33.2574 26.0859 33.1901C26.153 33.1602 26.1679 33.1901 26.2202 33.2051C26.2798 33.1752 26.3097 33.1303 26.347 33.078C26.3992 33.0331 26.4813 33.0331 26.5409 32.9658L26.5782 32.9882ZM25.407 29.1442C25.407 29.1442 25.407 29.1517 25.407 29.1592C25.3772 29.1666 25.3847 29.1218 25.407 29.1442ZM25.422 29.1442C25.4593 29.1741 25.5264 29.219 25.5339 29.2564C25.5339 29.2564 25.5488 29.2265 25.5637 29.2339C25.5637 29.2564 25.5786 29.2863 25.601 29.3162C25.5712 29.3461 25.5413 29.2713 25.5115 29.2938C25.4966 29.2713 25.4891 29.2564 25.4667 29.2639C25.4369 29.2115 25.4145 29.219 25.3921 29.1816C25.422 29.1741 25.3996 29.1592 25.422 29.1442Z" fill="white"/>
<path fill-rule="evenodd" clip-rule="evenodd" d="M18.7378 41.9102C18.7378 41.9102 18.7378 41.9401 18.7378 41.9625C18.7228 41.9625 18.7228 41.9251 18.7378 41.9102Z" fill="white"/>
<path fill-rule="evenodd" clip-rule="evenodd" d="M17.1419 42.4727C17.1419 42.4727 17.1493 42.5474 17.127 42.5325C17.127 42.5026 17.1344 42.4876 17.1419 42.4727Z" fill="white"/>
<path fill-rule="evenodd" clip-rule="evenodd" d="M17.0965 42.5625C17.0965 42.5625 17.0965 42.6074 17.0965 42.6298C17.0816 42.6298 17.0965 42.5775 17.0965 42.5625Z" fill="white"/>
<path fill-rule="evenodd" clip-rule="evenodd" d="M17.2976 42.8359C17.2976 42.8359 17.3126 42.8883 17.2976 42.9032C17.2827 42.9032 17.2976 42.8584 17.2976 42.8359Z" fill="white"/>
<path fill-rule="evenodd" clip-rule="evenodd" d="M17.0516 42.9336C17.0516 42.9336 17.0665 42.9934 17.0516 43.0458C17.0366 43.0233 17.0516 42.971 17.0516 42.9336Z" fill="white"/>
<path fill-rule="evenodd" clip-rule="evenodd" d="M18.2005 43.3242C18.2005 43.3766 18.2154 43.4813 18.1855 43.5187C18.2079 43.4588 18.1855 43.384 18.2005 43.3242Z" fill="white"/>
<path fill-rule="evenodd" clip-rule="evenodd" d="M17.6786 43.4375C17.7085 43.5048 17.6637 43.6245 17.6786 43.7142C17.6562 43.7292 17.6786 43.5871 17.6562 43.5646C17.6562 43.5422 17.6637 43.5272 17.6712 43.5123C17.6712 43.4898 17.6562 43.4674 17.6712 43.445L17.6786 43.4375Z" fill="white"/>
<path fill-rule="evenodd" clip-rule="evenodd" d="M17.582 44.2656C17.582 44.2656 17.6049 44.2656 17.6049 44.2962C17.6049 44.2962 17.5896 44.3038 17.582 44.3038V44.2656Z" fill="white"/>
<path fill-rule="evenodd" clip-rule="evenodd" d="M17.7754 44.6016C17.8052 44.6539 17.8052 44.7736 17.7903 44.8484C17.7903 44.8558 17.8052 44.8558 17.8052 44.8708C17.8052 44.9082 17.8052 45.0054 17.8052 44.9157C17.7829 44.811 17.8052 44.7212 17.7829 44.6016H17.7754Z" fill="white"/>
<path fill-rule="evenodd" clip-rule="evenodd" d="M17.5059 44.6562C17.5059 44.6562 17.5208 44.6936 17.5208 44.7161C17.5059 44.7161 17.5059 44.6637 17.5059 44.6562Z" fill="white"/>
<path fill-rule="evenodd" clip-rule="evenodd" d="M18.2156 44.707C18.2156 44.707 18.2156 44.7594 18.2156 44.7818C18.2082 44.7669 18.2007 44.722 18.2156 44.707Z" fill="white"/>
<path fill-rule="evenodd" clip-rule="evenodd" d="M17.6035 44.7148C17.6035 44.7148 17.6184 44.7822 17.6259 44.8121C17.6035 44.8345 17.6035 44.7448 17.6035 44.7148Z" fill="white"/>
<path fill-rule="evenodd" clip-rule="evenodd" d="M17.5293 44.7578C17.5293 44.7578 17.5442 44.8251 17.5442 44.8625C17.5293 44.8401 17.5293 44.7877 17.5293 44.7578Z" fill="white"/>
<path fill-rule="evenodd" clip-rule="evenodd" d="M18.3418 44.7812C18.3418 44.7812 18.3567 44.8186 18.3642 44.8411C18.3493 44.8411 18.3493 44.8037 18.3418 44.7812Z" fill="white"/>
<path fill-rule="evenodd" clip-rule="evenodd" d="M18.2158 44.8281C18.2158 44.8281 18.2307 44.9478 18.2307 44.9927C18.2158 44.9328 18.2084 44.888 18.2158 44.8281Z" fill="white"/>
<path fill-rule="evenodd" clip-rule="evenodd" d="M17.543 44.8867C17.5653 44.9316 17.5579 44.9989 17.5579 45.0363C17.543 44.9914 17.5579 44.9316 17.543 44.8867Z" fill="white"/>
<path fill-rule="evenodd" clip-rule="evenodd" d="M17.8047 44.9844C17.8047 44.9844 17.8196 45.0292 17.8271 45.0517C17.8047 45.0517 17.8121 45.0143 17.8047 44.9844Z" fill="white"/>
<path fill-rule="evenodd" clip-rule="evenodd" d="M17.752 45.0664C17.752 45.0664 17.7594 45.1038 17.7594 45.1337C17.7445 45.1337 17.7594 45.0814 17.752 45.0664Z" fill="white"/>
<path fill-rule="evenodd" clip-rule="evenodd" d="M17.6934 45.1484C17.6934 45.1484 17.7157 45.2232 17.6934 45.2083C17.6934 45.1933 17.6934 45.1933 17.7083 45.1933C17.7083 45.1709 17.7008 45.1709 17.7008 45.1484H17.6934Z" fill="white"/>
<path fill-rule="evenodd" clip-rule="evenodd" d="M18.1174 45.2897C18.1174 45.1775 18.095 45.2523 18.1174 45.2897Z" fill="white"/>
<path fill-rule="evenodd" clip-rule="evenodd" d="M18.3204 45.3672C18.3204 45.3672 18.3353 45.427 18.3353 45.4719C18.3279 45.4495 18.3129 45.3896 18.3204 45.3672Z" fill="white"/>
<path fill-rule="evenodd" clip-rule="evenodd" d="M18.3574 45.3867C18.3574 45.3867 18.3803 45.4402 18.3574 45.4249V45.3867Z" fill="white"/>
<path fill-rule="evenodd" clip-rule="evenodd" d="M18.6475 45.4258C18.6475 45.4258 18.6624 45.4557 18.6624 45.4781C18.6475 45.4781 18.64 45.4333 18.6475 45.4258Z" fill="white"/>
<path fill-rule="evenodd" clip-rule="evenodd" d="M18.5816 45.4029C18.5816 45.4029 18.5592 45.3506 18.5443 45.3281C18.4399 45.3655 18.2459 45.4702 18.1489 45.5375C17.9177 45.6871 17.7983 45.8142 17.7685 45.8367C17.7386 45.8666 17.8058 45.7918 18.0072 45.6422C18.1116 45.5674 18.2459 45.4702 18.4399 45.3805C18.5816 45.3057 18.5443 45.3506 18.5592 45.358C18.5667 45.373 18.5742 45.388 18.5891 45.4029H18.5816Z" fill="white"/>
<path fill-rule="evenodd" clip-rule="evenodd" d="M18.5655 43.8242C18.5655 43.8242 18.5729 43.8541 18.5879 43.8691C18.5655 43.8915 18.5879 43.9439 18.5729 43.9738C18.5506 43.9289 18.5804 43.884 18.5729 43.8242H18.5655Z" fill="white"/>
<path fill-rule="evenodd" clip-rule="evenodd" d="M18.1186 44.7672C18.1186 44.7672 18.1112 44.7822 18.1186 44.8121C18.1112 44.8121 18.1112 44.8046 18.1037 44.8046C18.1037 44.8495 18.1037 44.8719 18.1037 44.9093C18.1037 44.9093 18.0962 44.9018 18.0888 44.9018C18.1186 44.9467 18.0813 45.0065 18.1037 45.1037C18.0664 45.014 18.0739 44.7971 18.0664 44.7148C18.0888 44.7298 18.0664 44.8046 18.0962 44.8121C18.1112 44.8121 18.0962 44.7672 18.1261 44.7747L18.1186 44.7672Z" fill="white"/>
<path fill-rule="evenodd" clip-rule="evenodd" d="M17.6102 44.8881C17.6251 44.8881 17.6102 44.9255 17.6102 44.933C17.5953 44.9255 17.6027 44.8059 17.6102 44.8881Z" fill="white"/>
<path fill-rule="evenodd" clip-rule="evenodd" d="M17.7307 45.5319H17.7083C17.7158 45.5917 17.7307 45.6815 17.7158 45.7188C17.6934 45.6515 17.7158 45.5094 17.671 45.4646C17.671 45.4421 17.671 45.4421 17.671 45.4197C17.6262 45.2701 17.6486 45.0981 17.6113 44.9336C17.671 45.0009 17.6113 45.1729 17.671 45.2477C17.671 45.2627 17.671 45.2477 17.671 45.2402C17.671 45.315 17.671 45.4421 17.7232 45.5319H17.7307Z" fill="white"/>
<path fill-rule="evenodd" clip-rule="evenodd" d="M18.4014 45.3945C18.4014 45.3945 18.4163 45.4244 18.4312 45.4394C18.4312 45.4394 18.3939 45.4095 18.4014 45.3945Z" fill="white"/>
<path fill-rule="evenodd" clip-rule="evenodd" d="M27.3614 38.5075C27.3614 38.5075 27.4137 38.5449 27.4286 38.5674C27.4584 38.6272 27.4733 38.6945 27.5106 38.7543C27.5479 38.8067 27.6002 38.8441 27.6375 38.9039C27.6673 38.9413 27.6748 38.9637 27.6897 38.9937C27.7419 39.0834 27.7568 39.1657 27.8239 39.1881C27.8836 39.2479 27.9358 39.3302 27.9881 39.3825C27.9955 39.39 28.003 39.4125 28.003 39.4125C28.1149 39.562 28.2715 39.6443 28.3685 39.8462C28.4058 39.8612 28.4506 39.8687 28.4953 39.8986C28.5177 39.9135 28.5326 39.9509 28.555 39.9584C28.6296 39.9958 28.7042 39.9434 28.7714 40.0257C28.7863 40.0257 28.7937 40.0108 28.8012 40.0033C28.9355 39.9883 29.0399 39.9434 29.1444 39.9509C29.1966 39.8761 29.2637 39.8836 29.3159 39.8238C29.3458 39.7864 29.3682 39.7191 29.398 39.6742C29.4278 39.6219 29.4502 39.5695 29.4801 39.5172C29.5174 39.5172 29.5174 39.4499 29.5472 39.4274C29.5547 39.3452 29.5845 39.2853 29.592 39.2031C29.6069 39.1956 29.6069 39.1731 29.6218 39.1657C29.6666 38.9862 29.6815 38.7992 29.6367 38.5599C29.6293 38.53 29.6143 38.4851 29.6143 38.4702C29.5621 38.2981 29.4726 38.0364 29.4651 37.9242C29.4502 37.8943 29.4428 37.9018 29.4278 37.8644C29.4428 37.8345 29.4353 37.7223 29.398 37.6475C29.3831 37.6176 29.3309 37.5877 29.2936 37.5353C29.2413 37.4531 29.2413 37.3484 29.1742 37.281C29.1444 37.2511 29.0921 37.2287 29.0623 37.1988C28.9802 37.1165 28.8534 36.9296 28.8012 36.8473C28.7639 36.78 28.7639 36.7426 28.7191 36.7052C28.6818 36.6753 28.6296 36.6678 28.6072 36.6977C28.4357 36.6678 28.2268 36.3387 28.0104 36.2565C27.8985 36.1368 27.7344 36.0919 27.6151 36.0022C27.5927 35.9872 27.5628 35.9573 27.533 35.9424C27.4882 35.9199 27.4137 35.905 27.354 35.8825C27.2495 35.8452 27.16 35.7928 27.0705 35.7704C26.9586 35.6657 26.8392 35.6956 26.7273 35.6507C26.6826 35.6358 26.6527 35.6058 26.6005 35.5909C26.5632 35.5759 26.5185 35.5759 26.4737 35.561C26.4289 35.546 26.3916 35.5236 26.3469 35.5086C26.317 35.5086 26.2872 35.5086 26.2648 35.5011C26.235 35.4937 26.2126 35.4712 26.1753 35.4712C26.138 35.4712 26.0932 35.4712 26.0559 35.4712C25.9142 35.4413 25.7725 35.4114 25.6307 35.4263C25.3995 35.3516 25.1906 35.4039 24.9146 35.3516C24.8474 35.359 24.7952 35.3665 24.7206 35.359C24.7057 35.359 24.7057 35.374 24.6833 35.374C24.5416 35.3516 24.3924 35.4189 24.2432 35.4039C24.2432 35.4039 24.2357 35.4189 24.2208 35.4189C24.1163 35.4189 24.0044 35.4189 23.8851 35.4338C23.8552 35.4338 23.8329 35.4413 23.803 35.4488C23.7806 35.4488 23.706 35.4712 23.7433 35.4637C23.7583 35.4637 23.803 35.4637 23.7359 35.4787C23.6165 35.4637 23.4748 35.5011 23.3256 35.5161C23.2584 35.5161 23.1838 35.5161 23.1242 35.5236C22.9973 35.546 22.8258 35.546 22.7064 35.561C22.6691 35.561 22.6393 35.5834 22.602 35.5909C22.5348 35.6058 22.4677 35.5909 22.4006 35.6133C22.1395 35.7105 21.8336 35.7704 21.6023 35.8377C21.5277 35.8601 21.4755 35.89 21.4009 35.9199C21.2666 35.9573 21.1249 35.9872 21.0055 36.062C20.9906 36.0695 20.9384 36.1069 20.9235 36.1219C20.8489 36.1667 20.7743 36.1892 20.6922 36.234C20.4983 36.3313 20.3192 36.4584 20.1253 36.5332C19.9388 36.7202 19.6329 36.9445 19.4016 37.139C19.3718 37.2063 19.2972 37.2212 19.2524 37.2736C19.1182 37.4456 18.9615 37.6699 18.7974 37.8195C18.6407 37.999 18.5139 38.1934 18.402 38.4028C18.2826 38.6122 18.1633 38.8142 18.0514 39.0086C17.8798 39.4349 17.6635 39.8537 17.5814 40.2875C17.5366 40.3473 17.5217 40.452 17.5217 40.5118C17.5068 40.5193 17.4919 40.5567 17.477 40.5866C17.477 40.6988 17.4024 40.8259 17.3875 40.9605C17.4173 41.0054 17.3725 41.0802 17.3875 41.1325C17.3651 41.1475 17.38 41.1026 17.3576 41.1325C17.4024 41.2372 17.3129 41.5214 17.2979 41.656C17.2979 41.6486 17.3129 41.6486 17.3054 41.656C17.283 41.686 17.3054 41.7084 17.3054 41.7383C17.2681 41.9776 17.3129 42.1571 17.3054 42.3665C17.2905 42.389 17.2606 42.4563 17.2756 42.4787C17.283 42.4413 17.2905 42.3964 17.3129 42.4039C17.2979 42.4637 17.2979 42.546 17.3129 42.5909C17.3129 42.6657 17.283 42.7031 17.2979 42.7704C17.2979 42.7853 17.3278 42.7554 17.3203 42.7928C17.2979 42.8975 17.3203 42.9499 17.2979 43.0471C17.3203 43.077 17.3203 43.1892 17.2979 43.2191C17.3054 43.249 17.3203 43.1892 17.3278 43.2191C17.3278 43.3013 17.3278 43.3836 17.3129 43.4659C17.3203 43.4883 17.3352 43.4958 17.3427 43.5332C17.3427 43.5556 17.3203 43.5332 17.3278 43.5556C17.3427 43.5855 17.3576 43.5332 17.3725 43.5407C17.3725 43.5855 17.3949 43.5781 17.4098 43.6005C17.3949 43.6603 17.4248 43.6977 17.4322 43.7575C17.4397 43.8099 17.4322 43.8772 17.4322 43.9296C17.4322 43.9744 17.4546 43.9969 17.4546 44.0492C17.4546 44.0941 17.4322 44.124 17.4322 44.1763C17.4322 44.1988 17.4546 44.1614 17.4546 44.1913C17.4546 44.3558 17.477 44.5204 17.5143 44.64C17.4695 44.4531 17.4993 44.3184 17.4695 44.1614C17.4919 44.139 17.4546 44.0866 17.4919 44.0642C17.477 44.0567 17.4695 44.0941 17.4695 44.0567C17.4695 44.0417 17.477 44.0417 17.4695 44.0193C17.4993 44.0417 17.4993 44.0118 17.5217 43.9969C17.5217 43.8847 17.5143 43.7276 17.5068 43.6304C17.5068 43.608 17.4919 43.6454 17.4844 43.6229C17.4844 43.5631 17.4844 43.5855 17.4844 43.4883C17.5068 43.4734 17.5217 43.436 17.5441 43.4584C17.5292 43.6155 17.5739 43.8398 17.5739 44.0268C17.5739 44.0866 17.5516 44.1464 17.5889 44.1763C17.5814 44.0941 17.6187 44.0193 17.6187 43.9445C17.6187 43.8473 17.5889 43.7426 17.5963 43.6528C17.5963 43.6229 17.6112 43.6155 17.6112 43.593C17.6112 43.5781 17.5963 43.5407 17.6038 43.5182C17.6038 43.4958 17.6187 43.4958 17.6187 43.4734C17.6187 43.436 17.6038 43.3986 17.6038 43.3537C17.6038 43.2789 17.6336 43.2041 17.6336 43.1293C17.6411 43.1144 17.6709 43.1293 17.6709 43.1443C17.6709 43.2415 17.6709 43.2565 17.656 43.3537C17.656 43.3462 17.6635 43.3387 17.6709 43.3387C17.6709 43.3687 17.6635 43.3761 17.6709 43.3986C17.6709 43.3238 17.7157 43.3313 17.7306 43.3612C17.7082 43.5407 17.7306 43.765 17.7082 43.9146C17.7231 43.9296 17.7381 43.9445 17.7381 43.9669C17.753 44.1315 17.7306 44.3184 17.753 44.4979C17.7754 44.296 17.7604 44.0791 17.753 43.8398C17.753 43.8323 17.7754 43.8398 17.7679 43.8174C17.753 43.7127 17.753 43.6005 17.7604 43.5182L17.835 43.421C17.835 43.1742 17.932 42.9947 17.9544 42.7629C17.9693 42.7629 17.9768 42.7479 17.9917 42.7405C17.9992 42.7629 18.0215 42.7778 18.029 42.8003C18.029 42.8377 18.029 42.8825 18.0215 42.9125C18.0588 43.1144 17.9992 43.3911 18.0215 43.6379C18.0514 43.6678 18.0663 43.6454 18.0887 43.6229C18.1111 43.5033 18.0812 43.3986 18.1185 43.2789C18.1857 43.2415 18.223 43.2864 18.223 43.3836C18.2155 43.5556 18.2006 43.7575 18.1931 43.9146C18.2155 44.3783 18.223 44.8419 18.2901 45.2981C18.2826 45.0364 18.2304 44.8046 18.2453 44.5652C18.2304 44.5652 18.2304 44.5652 18.2304 44.5428C18.2304 44.311 18.2304 44.0567 18.2155 43.8473C18.2528 43.765 18.2155 43.593 18.2603 43.5107C18.3199 43.5332 18.3423 43.608 18.3572 43.6977C18.3572 43.608 18.3796 43.5257 18.3871 43.4509C18.3871 43.3911 18.3871 43.2789 18.402 43.249C18.402 43.249 18.4169 43.2565 18.4169 43.249C18.4169 43.2714 18.4169 43.2041 18.4169 43.1966C18.4169 43.1593 18.4095 43.1667 18.4169 43.1293C18.4169 43.077 18.4169 43.077 18.4393 43.0471C18.4542 42.8676 18.4617 42.7031 18.499 42.5311C18.499 42.5086 18.499 42.4862 18.5064 42.4712C18.5064 42.4563 18.5214 42.4712 18.5288 42.4488C18.5288 42.4338 18.5214 42.4413 18.5288 42.4189C18.5437 42.3516 18.5587 42.2768 18.5661 42.2095C18.581 42.0375 18.6482 41.8505 18.6706 41.7159C18.678 41.686 18.6929 41.7308 18.7004 41.686C18.7601 41.4541 18.8198 41.2148 18.9018 40.983C18.9093 40.968 18.9242 40.983 18.9317 40.9605C18.9466 40.9306 18.9167 40.9306 18.9317 40.9007C18.9466 40.8858 18.954 40.8708 18.969 40.8633C19.0212 40.7287 19.0585 40.5941 19.1032 40.452C19.1555 40.3249 19.2077 40.1828 19.2599 40.0556C19.3121 39.9285 19.3643 39.8088 19.4166 39.6892C19.4837 39.577 19.5508 39.4723 19.6105 39.3676C19.715 39.2105 19.7672 39.0086 19.9089 38.9039C20.0432 38.7244 20.1775 38.5749 20.3118 38.4103C20.4237 38.3056 20.5729 38.2234 20.6624 38.1336C20.6773 38.1187 20.6922 38.0887 20.7146 38.0738C20.7444 38.0513 20.7892 38.0364 20.819 38.014C20.9011 37.9541 20.9682 37.8569 21.0652 37.8195L21.3785 37.6699C21.4382 37.64 21.483 37.5952 21.5427 37.5652C21.58 37.5428 21.6247 37.5353 21.6695 37.5129C21.7739 37.4381 21.9082 37.4157 22.0201 37.3783C22.1768 37.3409 22.3483 37.3184 22.4975 37.2511C22.6691 37.1988 22.9004 37.1913 23.0794 37.1689C23.2286 37.1988 23.3778 37.1464 23.5419 37.139C23.5568 37.139 23.5718 37.139 23.5867 37.1464C23.6464 37.1464 23.7135 37.1464 23.7806 37.1464C23.8552 37.1464 23.9597 37.1315 24.0343 37.1165L24.1089 37.1016C24.2208 37.0791 24.3327 37.0567 24.4297 37.0716C24.5043 37.0417 24.5639 37.0716 24.6311 37.0716C24.7057 37.0716 24.7728 37.0642 24.84 37.0567C24.8623 37.0567 24.8847 37.0642 24.9071 37.0716C24.9742 37.0791 25.0488 37.0716 25.1234 37.0716C25.2428 37.0716 25.3547 37.139 25.489 37.124C25.5934 37.1539 25.7277 37.2137 25.8396 37.2137C26.0186 37.2885 26.2051 37.3184 26.3767 37.4007C26.4289 37.4381 26.4662 37.483 26.5334 37.4905C26.5781 37.5503 26.6602 37.5578 26.7199 37.6101C26.7572 37.64 26.8467 37.7223 26.8989 37.7672C26.9959 37.827 27.0929 37.9242 27.1153 38.0214C27.0556 38.1336 27.2421 38.0439 27.2794 38.1411C27.2868 38.1934 27.257 38.2159 27.2346 38.2533C27.2421 38.2981 27.2719 38.3206 27.3092 38.343C27.3241 38.3879 27.3092 38.4477 27.3391 38.4926L27.3614 38.5075ZM17.4471 43.2565C17.4471 43.2565 17.4397 43.2565 17.4322 43.264C17.4098 43.2415 17.4471 43.2041 17.4471 43.2565ZM17.4546 43.2789C17.4546 43.3537 17.4695 43.4584 17.4471 43.5107C17.4471 43.5257 17.477 43.4958 17.4844 43.5257C17.4695 43.5556 17.4546 43.593 17.4546 43.6454C17.4098 43.6454 17.4397 43.5407 17.4024 43.5332C17.4024 43.4883 17.4098 43.4734 17.3949 43.4509C17.4173 43.3687 17.3949 43.3462 17.4098 43.2789C17.4322 43.3013 17.4322 43.2714 17.462 43.2789H17.4546Z" fill="white"/>
<path fill-rule="evenodd" clip-rule="evenodd" d="M33.6645 29.2266C33.6645 29.2266 33.672 29.2714 33.6645 29.3013C33.6496 29.2939 33.6421 29.249 33.6645 29.2266Z" fill="white"/>
<path fill-rule="evenodd" clip-rule="evenodd" d="M32.1286 30.25C32.1286 30.25 32.1435 30.3397 32.1211 30.3323C32.1211 30.2949 32.1211 30.2799 32.1286 30.25Z" fill="white"/>
<path fill-rule="evenodd" clip-rule="evenodd" d="M32.0828 30.3711C32.0828 30.3711 32.0828 30.4309 32.0828 30.4534C32.0679 30.4534 32.0754 30.3861 32.0828 30.3711Z" fill="white"/>
<path fill-rule="evenodd" clip-rule="evenodd" d="M32.2918 30.7227C32.2918 30.7227 32.2992 30.79 32.2918 30.8049C32.2769 30.8049 32.2918 30.7451 32.2918 30.7227Z" fill="white"/>
<path fill-rule="evenodd" clip-rule="evenodd" d="M32.0457 30.8633C32.0457 30.8633 32.0606 30.9455 32.0457 31.0129C32.0308 30.9904 32.0457 30.9156 32.0457 30.8633Z" fill="white"/>
<path fill-rule="evenodd" clip-rule="evenodd" d="M33.1946 31.3398C33.1946 31.4146 33.2021 31.5642 33.1797 31.6166C33.2021 31.5268 33.1797 31.4221 33.1946 31.3398Z" fill="white"/>
<path fill-rule="evenodd" clip-rule="evenodd" d="M32.6731 31.5153C32.703 31.6125 32.6582 31.7696 32.6731 31.8892C32.6433 31.9042 32.6731 31.7172 32.6582 31.6798C32.6582 31.6499 32.6657 31.6275 32.6731 31.605C32.6731 31.5751 32.6582 31.5377 32.6731 31.5078V31.5153Z" fill="white"/>
<path fill-rule="evenodd" clip-rule="evenodd" d="M32.5371 32.6445C32.5371 32.6445 32.5595 32.6445 32.5595 32.6819C32.5595 32.6894 32.5446 32.6969 32.5371 32.6894V32.6445Z" fill="white"/>
<path fill-rule="evenodd" clip-rule="evenodd" d="M32.6951 33.1211C32.7175 33.1959 32.71 33.3679 32.6876 33.4576C32.6876 33.4726 32.7026 33.4726 32.6951 33.495C32.6951 33.5549 32.6802 33.6745 32.6876 33.5549C32.6802 33.4053 32.7026 33.2856 32.7026 33.1211H32.6951Z" fill="white"/>
<path fill-rule="evenodd" clip-rule="evenodd" d="M32.4194 33.168C32.4194 33.168 32.4269 33.2128 32.4194 33.2502C32.4045 33.2428 32.4045 33.1754 32.4194 33.168Z" fill="white"/>
<path fill-rule="evenodd" clip-rule="evenodd" d="M33.1127 33.3164C33.1127 33.3164 33.1127 33.3912 33.1127 33.4286C33.1127 33.4061 33.1052 33.3463 33.1127 33.3164Z" fill="white"/>
<path fill-rule="evenodd" clip-rule="evenodd" d="M32.509 33.2578C32.509 33.2578 32.509 33.355 32.5239 33.3924C32.5015 33.4223 32.509 33.3027 32.509 33.2578Z" fill="white"/>
<path fill-rule="evenodd" clip-rule="evenodd" d="M32.4266 33.3086C32.4266 33.3086 32.4266 33.4058 32.4266 33.4582C32.4116 33.4283 32.4266 33.3609 32.4266 33.3086Z" fill="white"/>
<path fill-rule="evenodd" clip-rule="evenodd" d="M33.2402 33.4375C33.2402 33.4375 33.2552 33.4899 33.2552 33.5272C33.2402 33.5198 33.2477 33.4674 33.2402 33.4375Z" fill="white"/>
<path fill-rule="evenodd" clip-rule="evenodd" d="M33.1049 33.4805C33.1198 33.5179 33.1049 33.6525 33.1049 33.7198C33.0974 33.6375 33.1049 33.5702 33.1049 33.4805Z" fill="white"/>
<path fill-rule="evenodd" clip-rule="evenodd" d="M32.4329 33.4805C32.4553 33.5403 32.4329 33.63 32.4255 33.6824C32.4106 33.6226 32.4478 33.5403 32.4329 33.4805Z" fill="white"/>
<path fill-rule="evenodd" clip-rule="evenodd" d="M32.6728 33.6523C32.6728 33.6523 32.6728 33.7197 32.6803 33.7496C32.6579 33.7496 32.6728 33.6897 32.6728 33.6523Z" fill="white"/>
<path fill-rule="evenodd" clip-rule="evenodd" d="M32.6121 33.7578C32.6121 33.7578 32.6121 33.8102 32.6121 33.855C32.5972 33.8476 32.6121 33.7877 32.6121 33.7578Z" fill="white"/>
<path fill-rule="evenodd" clip-rule="evenodd" d="M32.5462 33.8555C32.5462 33.8555 32.5611 33.9602 32.5312 33.9377C32.5312 33.9153 32.5387 33.9153 32.5462 33.9153C32.5462 33.8854 32.5387 33.8854 32.5462 33.8555Z" fill="white"/>
<path fill-rule="evenodd" clip-rule="evenodd" d="M32.9401 34.1313C32.9624 33.9667 32.9177 34.0714 32.9401 34.1313Z" fill="white"/>
<path fill-rule="evenodd" clip-rule="evenodd" d="M33.127 34.2734C33.1344 34.3258 33.127 34.3707 33.127 34.4305C33.127 34.3931 33.127 34.2959 33.127 34.2734Z" fill="white"/>
<path fill-rule="evenodd" clip-rule="evenodd" d="M33.1582 34.3164C33.1582 34.3164 33.1731 34.3987 33.1582 34.3762V34.3164Z" fill="white"/>
<path fill-rule="evenodd" clip-rule="evenodd" d="M33.4331 34.4453C33.4331 34.4453 33.4405 34.4977 33.4331 34.5276C33.4181 34.5201 33.4181 34.4528 33.4331 34.4453Z" fill="white"/>
<path fill-rule="evenodd" clip-rule="evenodd" d="M33.3879 34.7812C33.4103 34.886 33.3805 34.9159 33.3879 34.7812Z" fill="white"/>
<path fill-rule="evenodd" clip-rule="evenodd" d="M33.5461 32.0664C33.5461 32.0664 33.5535 32.1188 33.561 32.1262C33.5386 32.1636 33.5535 32.2309 33.5386 32.2833C33.5162 32.2235 33.5535 32.1561 33.5386 32.0664H33.5461Z" fill="white"/>
<path fill-rule="evenodd" clip-rule="evenodd" d="M33.0164 33.3905C33.0164 33.3905 33.0015 33.413 33.0089 33.4504C33.0015 33.4504 33.0015 33.4354 32.994 33.4354C32.9866 33.4952 32.994 33.5326 32.994 33.5775C32.994 33.5775 32.9866 33.5625 32.9791 33.5625C33.0015 33.6298 32.9567 33.7121 32.9642 33.8542C32.9418 33.7196 32.9791 33.413 32.9791 33.3008C33.0015 33.3232 32.9791 33.4204 32.994 33.4354C33.0089 33.4354 32.994 33.3681 33.0239 33.3905H33.0164Z" fill="white"/>
<path fill-rule="evenodd" clip-rule="evenodd" d="M32.5008 33.4893C32.5157 33.4893 32.5008 33.5417 32.5008 33.5492C32.4859 33.5342 32.5008 33.3772 32.5008 33.4893Z" fill="white"/>
<path fill-rule="evenodd" clip-rule="evenodd" d="M32.516 34.3848H32.4936C32.4936 34.4596 32.4936 34.5867 32.4637 34.6316C32.4563 34.5419 32.501 34.3474 32.4637 34.2801C32.4637 34.2502 32.4712 34.2502 32.4787 34.2203C32.4563 34.0034 32.501 33.779 32.4936 33.5547C32.5458 33.6594 32.4563 33.8763 32.5085 33.9959C32.5085 34.0109 32.5085 33.9959 32.5085 33.981C32.5085 34.0782 32.4787 34.2502 32.5085 34.3848H32.516Z" fill="white"/>
<path fill-rule="evenodd" clip-rule="evenodd" d="M33.2014 34.3477C33.2014 34.3477 33.2089 34.4 33.2164 34.4224C33.2164 34.4299 33.1865 34.3701 33.2014 34.3477Z" fill="white"/>
<path fill-rule="evenodd" clip-rule="evenodd" d="M40.3555 32.0223C40.3629 32.0747 40.3928 32.127 40.4077 32.1869C40.4301 32.314 40.4375 32.4411 40.4674 32.5683C40.4972 32.6805 40.5494 32.7852 40.5793 32.9048C40.6016 32.9946 40.6166 33.0245 40.6315 33.0768C40.6837 33.2488 40.6986 33.3909 40.7732 33.4582C40.8329 33.5779 40.8851 33.7275 40.9373 33.8247C40.9448 33.8396 40.9523 33.877 40.9523 33.8845C41.0865 34.1463 41.2581 34.2809 41.3775 34.595C41.4148 34.6174 41.4595 34.6249 41.5118 34.6772C41.5341 34.6997 41.5565 34.752 41.5789 34.767C41.6535 34.8193 41.7281 34.7446 41.8027 34.8567C41.8176 34.8567 41.8176 34.8343 41.8325 34.8268C41.9668 34.8044 42.0638 34.7371 42.1757 34.7446C42.2205 34.6473 42.2951 34.6548 42.3398 34.58C42.3697 34.5352 42.3846 34.4454 42.407 34.3856C42.4368 34.3183 42.4517 34.251 42.4816 34.1911C42.5189 34.1911 42.5114 34.1089 42.5412 34.0864C42.5487 34.0042 42.5636 33.892 42.5711 33.8172C42.586 33.8023 42.586 33.7798 42.6009 33.7798C42.6308 33.5704 42.6755 33.3535 42.6531 33.0768C42.6531 33.0469 42.6457 32.9871 42.6382 32.9721C42.6009 32.7702 42.5562 32.4636 42.586 32.3439C42.586 32.3065 42.5711 32.3065 42.5711 32.2766C42.5935 32.2467 42.6158 32.1345 42.6009 32.0448C42.6009 32.0149 42.5487 31.9625 42.5338 31.8952C42.5039 31.7905 42.5338 31.6858 42.5039 31.5961C42.489 31.5512 42.4517 31.5138 42.4368 31.4689C42.3995 31.3567 42.3622 31.1174 42.3547 31.0202C42.3547 30.9379 42.3697 30.908 42.3547 30.8482C42.3398 30.7958 42.3025 30.7584 42.2652 30.7734C42.1459 30.6388 42.1384 30.2349 42.0563 30.0106C42.0563 29.8311 41.9743 29.6815 41.9444 29.517C41.9444 29.4871 41.9444 29.4422 41.937 29.4123C41.9221 29.3525 41.8922 29.2852 41.8773 29.2104C41.84 29.0907 41.8251 28.9785 41.7878 28.8813C41.8102 28.7168 41.7281 28.6121 41.7057 28.4775C41.6983 28.4251 41.7057 28.3728 41.6908 28.3204C41.6833 28.2755 41.661 28.2307 41.646 28.1783C41.6386 28.126 41.646 28.0736 41.6311 28.0213C41.6311 27.9839 41.6087 27.954 41.6013 27.924C41.6013 27.8867 41.6013 27.8567 41.5938 27.8193C41.5864 27.7745 41.5565 27.7371 41.5416 27.6922C41.5043 27.5352 41.4894 27.3557 41.4222 27.2061C41.3999 26.9219 41.3029 26.6975 41.273 26.361C41.2432 26.2787 41.2283 26.2264 41.2208 26.1367C41.2134 26.1217 41.1984 26.1217 41.1984 26.0918C41.1835 25.9198 41.1015 25.7478 41.0865 25.5683C41.0865 25.5683 41.0716 25.5608 41.0642 25.5458C41.0492 25.314 40.9821 24.9625 40.8777 24.7307C40.8478 24.5362 40.7359 24.3193 40.5867 24.0725C40.5121 23.9529 40.4301 23.8183 40.3256 23.7211C40.1317 23.5266 39.8183 23.3172 39.5572 23.2499C39.4826 23.2275 39.3931 23.22 39.3334 23.2125C39.2141 23.1901 39.0947 23.1602 38.9828 23.1602C38.3935 23.1602 38.1921 23.1602 37.9086 23.1602C37.8191 23.1602 37.737 23.1826 37.64 23.1901C37.4685 23.205 37.2969 23.1826 37.1253 23.1901C37.1029 23.1901 37.0283 23.205 36.9985 23.2125C36.894 23.22 36.7971 23.2125 36.6926 23.22C36.4315 23.2349 36.1704 23.2798 35.9168 23.2723C35.6035 23.3247 35.1409 23.3546 34.7754 23.392C34.6933 23.4294 34.6187 23.4144 34.5292 23.4219C34.2681 23.4593 33.8877 23.5341 33.5221 23.6388C33.1491 23.7734 32.709 24.1025 32.515 24.5213C32.2987 24.955 32.2838 25.3215 32.2614 25.6431C32.239 26.2414 32.2166 26.8022 32.2166 27.3706C32.1868 27.4604 32.1943 27.595 32.2092 27.6698C32.1943 27.6847 32.1943 27.7371 32.1868 27.7745C32.2166 27.9166 32.1793 28.0961 32.1793 28.2681C32.2092 28.3129 32.1793 28.4176 32.2017 28.4924C32.1793 28.5223 32.1868 28.455 32.1719 28.4999C32.2316 28.6196 32.1719 29.0084 32.1868 29.1805C32.1868 29.1655 32.1943 29.1655 32.1943 29.1805C32.1793 29.2253 32.2092 29.2403 32.2017 29.2926C32.1943 29.6067 32.239 29.8386 32.2539 30.1153C32.2465 30.1452 32.2092 30.2349 32.2316 30.2723C32.2316 30.22 32.239 30.1602 32.2689 30.1676C32.2539 30.2499 32.2689 30.3546 32.2763 30.4144C32.2763 30.5117 32.2539 30.564 32.2763 30.6537C32.2763 30.6762 32.3062 30.6313 32.2987 30.6837C32.2763 30.8258 32.2987 30.8931 32.2763 31.0202C32.2987 31.0576 32.2987 31.2072 32.2763 31.252C32.2838 31.2969 32.2987 31.2072 32.3062 31.2446C32.3062 31.3567 32.3062 31.4689 32.2912 31.5736C32.2987 31.6035 32.3136 31.6185 32.3211 31.6634C32.3211 31.6933 32.2987 31.6559 32.3062 31.7008C32.3211 31.7456 32.336 31.6708 32.3509 31.6783C32.3509 31.7381 32.3733 31.7232 32.3808 31.7531C32.3584 31.8354 32.3882 31.8877 32.3957 31.9625C32.3957 32.0373 32.3882 32.1196 32.3957 32.1943C32.3957 32.2542 32.4181 32.2841 32.4106 32.3514C32.4106 32.4112 32.3882 32.4561 32.3808 32.5159C32.3808 32.5458 32.4031 32.4935 32.4031 32.5458C32.4031 32.7702 32.3957 32.9871 32.4181 33.1516C32.3882 32.8973 32.4404 32.7178 32.4181 32.4935C32.4404 32.4636 32.4106 32.3963 32.4404 32.3589C32.4255 32.3439 32.4181 32.3963 32.4181 32.3439C32.4181 32.329 32.4255 32.3215 32.4255 32.299C32.4554 32.329 32.4554 32.2841 32.4777 32.2691C32.4777 32.1046 32.4777 31.9176 32.4852 31.7755C32.4852 31.7456 32.4703 31.798 32.4628 31.7606C32.4628 31.6783 32.4628 31.7008 32.4628 31.5811C32.4852 31.5587 32.5001 31.5138 32.5225 31.5362C32.5076 31.7531 32.5374 32.0522 32.5225 32.314C32.5225 32.3963 32.4927 32.4711 32.5225 32.5234C32.5225 32.4037 32.5598 32.314 32.5673 32.2093C32.5822 32.0747 32.5523 31.9401 32.5673 31.8055C32.5673 31.7681 32.5822 31.7531 32.5822 31.7232C32.5822 31.7008 32.5673 31.6559 32.5747 31.626C32.5747 31.5961 32.5896 31.5961 32.5896 31.5661C32.5896 31.5138 32.5747 31.4689 32.5747 31.4091C32.5747 31.3044 32.6046 31.2072 32.6046 31.095C32.612 31.0725 32.6419 31.0875 32.6419 31.1099C32.6419 31.2446 32.6419 31.2595 32.6269 31.4016C32.6269 31.3867 32.6344 31.3792 32.6419 31.3792C32.6419 31.424 32.6269 31.4315 32.6419 31.4614C32.6419 31.3642 32.6866 31.3717 32.7015 31.4091C32.6792 31.6559 32.6866 31.9625 32.6568 32.1719C32.6642 32.1943 32.6792 32.2093 32.6866 32.2467C32.6792 32.5533 32.6717 32.673 32.6642 32.9871C32.709 32.7029 32.709 32.4112 32.709 32.0822C32.709 32.0672 32.7314 32.0822 32.7239 32.0448C32.7165 31.9027 32.7239 31.7381 32.7239 31.6334C32.7463 31.5886 32.7761 31.5437 32.806 31.4988C32.806 31.1548 32.9104 30.908 32.9328 30.579C32.9477 30.579 32.9552 30.5565 32.9701 30.549C32.985 30.579 32.9999 30.5939 33.0074 30.6238C33.0074 30.6762 33.0074 30.736 32.9999 30.7809C33.0298 31.0576 32.9776 31.454 32.985 31.798C33.0074 31.8428 33.0298 31.8129 33.0522 31.783C33.0745 31.6185 33.0522 31.4614 33.0895 31.2894C33.1566 31.2296 33.1939 31.2969 33.1939 31.4315C33.1939 31.6559 33.1641 32.0448 33.1417 32.1943C33.1417 32.8599 33.0969 33.5106 33.0895 34.1911C33.1193 33.8172 33.1044 33.4657 33.1491 33.1292C33.1342 33.1292 33.1342 33.1142 33.1342 33.0918C33.1566 32.7627 33.179 32.3888 33.1715 32.0971C33.2163 31.9775 33.1864 31.7381 33.2312 31.6185C33.2909 31.6559 33.3132 31.7531 33.3207 31.8802C33.3207 31.7531 33.3506 31.626 33.358 31.5213C33.3655 31.4315 33.358 31.2745 33.3729 31.2296C33.3729 31.2221 33.3878 31.2371 33.3878 31.2221C33.3878 31.2595 33.3878 31.1548 33.3878 31.1473C33.3878 31.095 33.3804 31.1099 33.3878 31.0501C33.3878 30.9753 33.3879 30.9753 33.4102 30.9305C33.4326 30.6762 33.4251 30.4219 33.455 30.1676C33.455 30.1377 33.455 30.0928 33.455 30.0854C33.455 30.0629 33.4699 30.0854 33.4699 30.048C33.4699 30.033 33.4624 30.0405 33.4624 30.0106C33.4699 29.9134 33.4848 29.8012 33.4848 29.6965C33.4998 29.4497 33.5221 29.1505 33.5296 28.9486C33.5296 28.9037 33.552 28.9636 33.552 28.9037C33.5818 28.5298 33.6116 28.1634 33.6415 27.8119C33.6415 27.782 33.6639 27.8119 33.6639 27.767C33.6639 27.7146 33.6415 27.7296 33.6489 27.6773C33.6564 27.6473 33.6639 27.6249 33.6788 27.6099C33.7235 27.1837 33.7235 26.7349 33.7385 26.2937C33.7534 25.8674 33.7683 25.4561 33.8205 25.3065C33.8429 25.2168 33.8727 25.1644 33.9399 25.142C34.0592 25.0597 34.3129 25.0149 34.6411 24.9775C34.8873 24.9475 35.1559 24.9401 35.3573 24.9102C35.3946 24.9102 35.4319 24.8877 35.4766 24.8877C35.5363 24.8877 35.6035 24.8952 35.6631 24.8877C35.8273 24.8728 35.9988 24.8428 36.1704 24.8354L36.7225 24.8129C36.7971 24.8129 36.9537 24.7905 37.0283 24.783C37.0731 24.783 37.1924 24.783 37.2372 24.783C37.4386 24.783 37.64 24.7456 37.8265 24.7531C38.0802 24.7531 38.3413 24.7755 38.5874 24.7531C38.7217 24.7606 38.8411 24.7681 38.9231 24.783C39.0127 24.798 39.0127 24.8055 39.0649 24.8204C39.0947 24.8952 39.1395 24.8653 39.1992 25.0074C39.1992 25.0223 39.1992 25.0298 39.1992 25.0523C39.2588 25.2617 39.3782 25.6505 39.4155 25.9796C39.4677 26.0918 39.4528 26.1965 39.4677 26.3012C39.4826 26.4208 39.5199 26.5181 39.5423 26.6302C39.5423 26.6676 39.5423 26.705 39.5498 26.7349C39.5647 26.8471 39.602 26.9518 39.6318 27.079C39.6691 27.2659 39.6617 27.4678 39.7363 27.6773C39.7512 27.8418 39.7736 28.0886 39.8333 28.2755C39.8556 28.5971 39.9601 28.9112 40.0048 29.2403C40.0198 29.3525 40.0048 29.4572 40.0571 29.5619C40.0571 29.6815 40.0944 29.8161 40.1167 29.9582C40.1317 30.0629 40.154 30.2649 40.169 30.392C40.1988 30.6014 40.2734 30.8482 40.2436 31.0127C40.1391 31.1025 40.3405 31.2072 40.348 31.3792C40.3405 31.4689 40.3032 31.4689 40.2659 31.5138C40.2659 31.5961 40.2883 31.6634 40.3107 31.7381C40.3107 31.8279 40.2734 31.9027 40.2958 32.0223H40.3555ZM32.433 31.267C32.433 31.267 32.4255 31.267 32.4181 31.2745C32.3957 31.2446 32.433 31.1922 32.433 31.267ZM32.4404 31.2894C32.4404 31.3867 32.4554 31.5287 32.433 31.6035C32.433 31.626 32.4628 31.5886 32.4703 31.6185C32.4554 31.6634 32.4404 31.7082 32.4404 31.783C32.3957 31.783 32.433 31.6409 32.3882 31.6334C32.3882 31.5736 32.3957 31.5512 32.3808 31.5213C32.4031 31.4091 32.3808 31.3792 32.3957 31.2894C32.4181 31.3119 32.4181 31.2745 32.4479 31.2894H32.4404Z" fill="white"/>
<path fill-rule="evenodd" clip-rule="evenodd" d="M39.0658 16.5216C39.0658 16.5216 39.0506 16.5368 39.043 16.5445C39.043 16.5292 39.043 16.5139 39.0658 16.5216Z" fill="white"/>
<path fill-rule="evenodd" clip-rule="evenodd" d="M37.3134 16.9688C37.3134 16.9688 37.3134 17.1108 37.291 17.0959C37.291 17.0361 37.3059 17.0061 37.3134 16.9688Z" fill="white"/>
<path fill-rule="evenodd" clip-rule="evenodd" d="M37.2541 17.1484C37.2541 17.1484 37.2466 17.2382 37.2466 17.2756C37.2317 17.2756 37.2466 17.1709 37.2541 17.1484Z" fill="white"/>
<path fill-rule="evenodd" clip-rule="evenodd" d="M37.433 17.6641C37.433 17.6641 37.433 17.7538 37.433 17.7837C37.4255 17.7762 37.433 17.7015 37.433 17.6641Z" fill="white"/>
<path fill-rule="evenodd" clip-rule="evenodd" d="M37.1785 17.8594C37.186 17.9042 37.186 17.9716 37.1785 18.0688C37.1636 18.0314 37.1785 17.9342 37.1785 17.8594Z" fill="white"/>
<path fill-rule="evenodd" clip-rule="evenodd" d="M38.2834 18.5703C38.2759 18.675 38.2759 18.8919 38.2461 18.9592C38.2759 18.8321 38.261 18.6825 38.2834 18.5703Z" fill="white"/>
<path fill-rule="evenodd" clip-rule="evenodd" d="M37.7463 18.8008C37.7687 18.9354 37.709 19.1672 37.7165 19.3318C37.6867 19.3542 37.7389 19.085 37.7165 19.0401C37.7165 19.0177 37.7314 18.9803 37.7389 18.9429C37.7389 18.898 37.7314 18.8531 37.7463 18.8083V18.8008Z" fill="white"/>
<path fill-rule="evenodd" clip-rule="evenodd" d="M37.5211 20.3945C37.5211 20.3945 37.5435 20.402 37.5361 20.4469C37.5361 20.4618 37.5211 20.4618 37.5137 20.4618V20.3945H37.5211Z" fill="white"/>
<path fill-rule="evenodd" clip-rule="evenodd" d="M37.6404 21.0742C37.6553 21.1789 37.6404 21.4257 37.6031 21.5529C37.6031 21.5678 37.6105 21.5753 37.6031 21.6052C37.6031 21.6875 37.5732 21.8595 37.5882 21.6875C37.5882 21.4706 37.6255 21.3061 37.6329 21.0742H37.6404Z" fill="white"/>
<path fill-rule="evenodd" clip-rule="evenodd" d="M37.3641 21.1289C37.3641 21.1289 37.3641 21.1962 37.3641 21.2486C37.3491 21.2336 37.3641 21.1439 37.3641 21.1289Z" fill="white"/>
<path fill-rule="evenodd" clip-rule="evenodd" d="M38.0504 21.3516C38.0504 21.3516 38.043 21.4563 38.043 21.5086C38.043 21.4712 38.043 21.389 38.0504 21.3516Z" fill="white"/>
<path fill-rule="evenodd" clip-rule="evenodd" d="M37.4474 21.2617C37.4549 21.3066 37.4474 21.3963 37.4474 21.4562C37.4251 21.501 37.4474 21.329 37.4474 21.2617Z" fill="white"/>
<path fill-rule="evenodd" clip-rule="evenodd" d="M37.3568 21.3359C37.3568 21.3359 37.3568 21.4706 37.3568 21.5453C37.3494 21.5005 37.3568 21.4032 37.3568 21.3359Z" fill="white"/>
<path fill-rule="evenodd" clip-rule="evenodd" d="M38.1641 21.5312C38.1641 21.5312 38.1715 21.606 38.1715 21.6509C38.1566 21.636 38.1715 21.5686 38.1641 21.5312Z" fill="white"/>
<path fill-rule="evenodd" clip-rule="evenodd" d="M38.0224 21.5898C38.0298 21.6497 38.0075 21.8366 38 21.9339C38 21.8142 38.0075 21.7245 38.0224 21.5898Z" fill="white"/>
<path fill-rule="evenodd" clip-rule="evenodd" d="M37.3505 21.5781C37.3654 21.6679 37.3356 21.795 37.3281 21.8698C37.3281 21.7875 37.358 21.6753 37.3505 21.5781Z" fill="white"/>
<path fill-rule="evenodd" clip-rule="evenodd" d="M37.5822 21.8242C37.5822 21.8242 37.5822 21.914 37.5822 21.9663C37.5598 21.9663 37.5822 21.884 37.5822 21.8242Z" fill="white"/>
<path fill-rule="evenodd" clip-rule="evenodd" d="M37.5135 21.9727C37.5209 22.0175 37.5135 22.0474 37.506 22.1073C37.4985 22.0923 37.5135 22.01 37.5135 21.9727Z" fill="white"/>
<path fill-rule="evenodd" clip-rule="evenodd" d="M37.4325 22.1133C37.4325 22.1133 37.4325 22.2629 37.4102 22.2329C37.4102 22.1955 37.4176 22.203 37.4325 22.203C37.4325 22.1656 37.4325 22.1656 37.4325 22.1133Z" fill="white"/>
<path fill-rule="evenodd" clip-rule="evenodd" d="M37.8059 22.5127C37.8357 22.2809 37.791 22.423 37.8059 22.5127Z" fill="white"/>
<path fill-rule="evenodd" clip-rule="evenodd" d="M37.9837 22.7148C37.9837 22.7896 37.9837 22.8569 37.9688 22.9392C37.9688 22.8869 37.9762 22.7522 37.9837 22.7148Z" fill="white"/>
<path fill-rule="evenodd" clip-rule="evenodd" d="M38.0133 22.7734C38.0133 22.7734 38.0133 22.8856 38.0059 22.8557V22.7734H38.0133Z" fill="white"/>
<path fill-rule="evenodd" clip-rule="evenodd" d="M38.2742 22.9609C38.2742 22.9609 38.2742 23.0432 38.2742 23.0806C38.2593 23.0656 38.2742 22.9759 38.2742 22.9609Z" fill="white"/>
<path fill-rule="evenodd" clip-rule="evenodd" d="M38.2077 23.4297C38.2152 23.5718 38.1853 23.6241 38.2077 23.4297Z" fill="white"/>
<path fill-rule="evenodd" clip-rule="evenodd" d="M38.5809 19.5938C38.5809 19.5938 38.5809 19.6611 38.5959 19.6835C38.566 19.7358 38.5809 19.8331 38.566 19.9004C38.5511 19.8106 38.5884 19.7209 38.5884 19.5938H38.5809Z" fill="white"/>
<path fill-rule="evenodd" clip-rule="evenodd" d="M37.9386 21.4553C37.9386 21.5001 37.9237 21.4927 37.9237 21.5375C37.9162 21.5375 37.9162 21.5226 37.9088 21.5151C37.8939 21.5974 37.9013 21.6497 37.8939 21.7245C37.8939 21.717 37.8939 21.7021 37.8789 21.7021C37.9013 21.7993 37.8416 21.9115 37.8342 22.1134C37.8193 21.9189 37.8864 21.4927 37.8939 21.3281C37.9088 21.358 37.8789 21.5001 37.8939 21.5226C37.9088 21.5226 37.9088 21.4253 37.9237 21.4627L37.9386 21.4553Z" fill="white"/>
<path fill-rule="evenodd" clip-rule="evenodd" d="M37.4239 21.5902C37.4388 21.5902 37.4239 21.665 37.4164 21.6725C37.4015 21.6501 37.4313 21.4257 37.4164 21.5828L37.4239 21.5902Z" fill="white"/>
<path fill-rule="evenodd" clip-rule="evenodd" d="M37.366 22.8616H37.3436C37.3361 22.9663 37.3212 23.1458 37.2988 23.2131C37.2988 23.086 37.3585 22.8093 37.3361 22.7121C37.3436 22.6747 37.3436 22.6672 37.3585 22.6298C37.3585 22.3232 37.4182 22.0016 37.4256 21.6875C37.4704 21.8296 37.3585 22.1437 37.4033 22.3082C37.4033 22.3307 37.4033 22.3082 37.4033 22.2933C37.3883 22.4354 37.3585 22.6822 37.3734 22.8616H37.366Z" fill="white"/>
<path fill-rule="evenodd" clip-rule="evenodd" d="M38.0513 22.8164C38.0513 22.8164 38.0513 22.8912 38.0588 22.9211C38.0588 22.9361 38.0289 22.8463 38.0513 22.8164Z" fill="white"/>
<path fill-rule="evenodd" clip-rule="evenodd" d="M48.7489 31.598C48.7563 31.6429 48.7936 31.7925 48.8011 31.8373C48.8309 32.0243 48.8309 32.2038 48.8682 32.3907C48.9055 32.5553 48.9577 32.7123 48.995 32.8843C49.0174 33.0115 49.0323 33.0563 49.0547 33.1386C49.1144 33.3929 49.1368 33.6023 49.2114 33.6995C49.286 33.9089 49.3307 34.0435 49.3979 34.238C49.4053 34.2604 49.4128 34.3127 49.4202 34.3202C49.5694 34.7016 49.7559 34.9185 49.9051 35.3672C49.9424 35.4046 49.9947 35.4196 50.0469 35.4869C50.0693 35.5168 50.0991 35.5991 50.1215 35.614C50.2035 35.6963 50.2707 35.5991 50.3527 35.7636C50.3677 35.7636 50.3677 35.7337 50.3751 35.7262C50.5094 35.7038 50.6064 35.614 50.7108 35.6365C50.7481 35.5019 50.8227 35.5168 50.86 35.4121C50.8824 35.3448 50.8973 35.2326 50.9122 35.1504C50.9346 35.0606 50.9495 34.9634 50.9719 34.8886C51.0092 34.8886 51.0018 34.7764 51.0241 34.7465C51.0241 34.6343 51.0316 34.4848 51.0391 34.3726C51.0465 34.3576 51.054 34.3277 51.0689 34.3202C51.0838 34.0286 51.1211 33.7369 51.0838 33.3555C51.0838 33.3106 51.0689 33.2433 51.0614 33.2059C51.0167 32.9217 50.957 32.488 50.9868 32.3309C50.9868 32.2786 50.9719 32.2786 50.9645 32.2337C50.9868 32.1963 51.0092 32.0392 50.9868 31.9121C50.9868 31.8672 50.9346 31.7924 50.9122 31.6952C50.8824 31.5531 50.9122 31.4036 50.8824 31.2764C50.8675 31.2166 50.8302 31.1568 50.8153 31.0969C50.7705 30.9324 50.7481 30.5959 50.7407 30.4613C50.7407 30.3491 50.7556 30.3042 50.7407 30.2219C50.7257 30.1472 50.6884 30.0948 50.6511 30.1098C50.5318 29.9078 50.5392 29.3469 50.4646 29.0179C50.4646 28.7711 50.39 28.5467 50.3751 28.3074C50.3751 28.2775 50.3751 28.1877 50.3751 28.1578C50.3677 28.0756 50.3378 27.9709 50.3229 27.8736C50.2931 27.6792 50.2856 27.6119 50.2558 27.4025C50.2931 27.1781 50.2185 27.0136 50.211 26.8266C50.211 26.7593 50.2185 26.6845 50.211 26.6098C50.211 26.5424 50.1886 26.4826 50.1812 26.4078C50.1812 26.363 50.1812 26.2283 50.1812 26.191C50.1812 26.161 50.1662 26.0863 50.1662 26.0563C50.1662 25.9965 50.1737 25.9666 50.1662 25.9068C50.1662 25.8469 50.1364 25.7796 50.1289 25.7198C50.1066 25.488 50.114 25.2412 50.0618 25.0243C50.0842 24.6279 50.0096 24.2914 50.032 23.8202C50.017 23.708 50.0096 23.6183 50.017 23.4986C50.017 23.4687 50.0021 23.4687 50.0021 23.4313C50.017 23.192 49.9574 22.9377 49.9797 22.6835C49.9797 22.676 49.9648 22.661 49.9648 22.6461C49.9872 22.3021 49.9872 21.8683 49.9648 21.5916C49.9947 21.3822 49.9648 21.1354 49.9648 20.8811C49.9648 20.7615 49.9797 20.6418 49.9797 20.5296C49.9723 20.3053 49.9947 20.0136 49.9947 19.7967C49.9947 19.7593 49.9797 19.6472 49.9797 19.6098C49.9797 19.4976 49.9947 19.3779 49.9947 19.2508C49.9947 18.7871 50.0245 18.2486 50.0543 17.8448C50.0618 17.7177 50.0543 17.613 50.0543 17.4709C50.0543 17.2241 50.0991 17.0221 50.1066 16.7305C50.1066 16.6856 50.0991 16.5734 50.0991 16.5286C50.0991 16.364 50.0991 16.207 50.0842 16.02C50.0618 15.7957 50.017 15.5638 49.935 15.3245C49.8604 15.1001 49.7112 14.786 49.5321 14.5692C49.2785 14.2999 48.8757 14.0457 48.4057 14.0083C47.876 13.9783 47.697 14.0382 47.4135 14.0531C47.3016 14.0905 47.1897 14.0756 47.0704 14.0905C46.7048 14.1354 46.2423 14.2102 45.8618 14.2177C44.2579 14.4046 42.5869 14.5318 41.0054 14.7262C40.8786 14.7113 40.6846 14.7486 40.5802 14.7711C40.5578 14.7561 40.4832 14.7711 40.4235 14.7711C40.2296 14.8234 39.9759 14.816 39.7223 14.8459C39.6626 14.8833 39.4985 14.8758 39.394 14.9132C39.3493 14.8982 39.4537 14.8907 39.3717 14.8907C39.215 14.958 38.5362 15.0553 38.2378 15.3021C38.2601 15.2871 38.2676 15.3021 38.2378 15.3095C38.1557 15.3395 38.1408 15.3918 38.0662 15.4516C37.5664 15.9004 37.5216 16.3715 37.4545 16.7828C37.4321 16.8352 37.3873 16.9698 37.4022 17.0221C37.4172 16.9474 37.4321 16.8501 37.4545 16.8651C37.4246 16.9922 37.4172 17.1568 37.4246 17.239C37.4097 17.3886 37.3948 17.4634 37.3948 17.5905C37.3948 17.6204 37.4246 17.5606 37.4172 17.6279C37.3873 17.8224 37.3948 17.9271 37.3649 18.1066C37.3873 18.1589 37.3649 18.3683 37.35 18.4356C37.35 18.4954 37.3799 18.3758 37.3799 18.4207C37.3799 18.5852 37.3724 18.7348 37.3351 18.8843C37.3426 18.9217 37.3575 18.9516 37.3575 19.0115C37.3575 19.0563 37.3351 18.9965 37.3351 19.0563C37.3426 19.1162 37.3649 19.0115 37.3799 19.0264C37.3799 19.1087 37.3948 19.0937 37.4097 19.1386C37.3873 19.2508 37.4097 19.333 37.4097 19.4303C37.3948 19.5948 37.3948 19.6098 37.3873 19.7593C37.3873 19.8491 37.4022 19.8865 37.3873 19.9837C37.3799 20.066 37.3575 20.1333 37.35 20.223C37.35 20.2679 37.3724 20.1931 37.3649 20.2604C37.3426 20.5745 37.3202 20.8886 37.3276 21.1204C37.3202 20.7615 37.3873 20.5072 37.3799 20.1931C37.4097 20.1482 37.3799 20.051 37.4172 20.0061C37.4022 19.9837 37.3873 20.0585 37.3948 19.9837C37.3948 19.9613 37.4022 19.9538 37.4097 19.9164C37.4321 19.9613 37.4395 19.8939 37.4619 19.8715C37.4768 19.6247 37.4992 19.3854 37.5141 19.1685C37.5141 19.1236 37.4918 19.1984 37.4918 19.1461C37.4918 19.0414 37.4918 19.0339 37.5067 18.8918C37.5291 18.8619 37.544 18.7946 37.5738 18.832C37.544 19.1386 37.544 19.5649 37.5141 19.9313C37.5067 20.0435 37.4694 20.1557 37.4992 20.223C37.4992 20.0585 37.5514 19.9239 37.5738 19.7818C37.5962 19.5948 37.5738 19.3929 37.6037 19.2134C37.6037 19.161 37.6186 19.1386 37.626 19.0937C37.626 19.0563 37.626 18.9965 37.626 18.9516C37.626 18.9068 37.641 18.9068 37.6484 18.8694C37.6484 18.7946 37.6484 18.7273 37.6484 18.645C37.6633 18.5029 37.6932 18.3608 37.7006 18.2038C37.7156 18.1739 37.7379 18.1888 37.7379 18.2262C37.723 18.4132 37.7156 18.4431 37.7006 18.6375C37.7006 18.6151 37.7081 18.6001 37.723 18.6076C37.723 18.6674 37.7081 18.6899 37.723 18.7273C37.7379 18.5852 37.7752 18.6001 37.7902 18.6525C37.7529 19.004 37.7305 19.4377 37.6857 19.7294C37.6932 19.7593 37.7081 19.7818 37.7081 19.8341C37.6783 20.2155 37.6559 20.4773 37.626 20.8811C37.6932 20.4848 37.7156 20.066 37.7454 19.6023C37.7454 19.5873 37.7678 19.6023 37.7678 19.5574C37.7678 19.3555 37.7976 19.1311 37.8051 18.9741C37.8349 18.9142 37.8648 18.8469 37.8946 18.7796C37.917 18.2935 38.0513 17.942 38.0886 17.4783C38.1035 17.4783 38.1109 17.4484 38.1259 17.4335C38.1333 17.4709 38.1482 17.5008 38.1557 17.5382C38.1557 17.613 38.1557 17.6952 38.1333 17.7625C38.1408 18.1589 38.0587 18.7123 38.0438 19.2059C38.0662 19.2657 38.0886 19.2209 38.1184 19.1835C38.1557 18.9516 38.1408 18.7348 38.193 18.488C38.2676 18.4057 38.2974 18.5029 38.2825 18.6974C38.2601 19.0189 38.2005 19.5649 38.1706 19.7743C38.1184 20.7166 38.0214 21.6439 37.9543 22.6012C38.014 22.0702 38.0289 21.5766 38.096 21.098C38.0811 21.098 38.0811 21.083 38.0886 21.0457C38.1408 20.5745 38.1855 20.0585 38.2079 19.6397C38.2601 19.4677 38.2452 19.1311 38.3049 18.9591C38.3646 19.0115 38.372 19.1536 38.372 19.333C38.3869 19.1461 38.4242 18.9816 38.4392 18.8245C38.4541 18.6974 38.4541 18.4805 38.4765 18.4132C38.4765 18.3982 38.4914 18.4281 38.4914 18.3982C38.4914 18.4506 38.4914 18.3085 38.4914 18.2935C38.4914 18.2262 38.4914 18.2337 38.4914 18.1589C38.5063 18.0542 38.5063 18.0542 38.5212 17.9944C38.566 17.6279 38.5734 17.2689 38.6406 16.9997C38.6406 16.9698 38.6555 16.9174 38.663 16.91C38.6704 16.8875 38.6779 16.91 38.6853 16.8801C38.6853 16.8651 38.6779 16.8651 38.6853 16.8427C38.7152 16.7529 38.7525 16.6632 38.7898 16.6108C38.8644 16.4687 38.9614 16.4313 39.1479 16.364C39.1852 16.364 39.1479 16.3865 39.1926 16.3715C39.491 16.3042 40.0729 16.2892 40.5951 16.2444C40.6324 16.2444 40.6026 16.2668 40.6622 16.2593C40.7368 16.2593 40.7145 16.2294 40.7816 16.2294C40.8264 16.2294 40.8637 16.2369 40.886 16.2519C41.4978 16.2219 42.1169 16.1397 42.7436 16.0798C43.3404 16.0275 43.9073 15.9677 44.4668 15.9153C44.907 15.8704 45.3173 15.8181 45.7126 15.7957C46.2348 15.7358 46.6899 15.691 47.1823 15.6461C47.503 15.6162 47.8089 15.5937 48.1371 15.5638C48.1521 15.5638 48.167 15.5489 48.1819 15.5489C48.2043 15.5489 48.2192 15.5713 48.2416 15.5863C48.2938 15.6087 48.3535 15.6386 48.3833 15.6984C48.4206 15.7657 48.4728 15.9751 48.4878 16.1696C48.4952 16.2892 48.5176 16.4014 48.5176 16.5286C48.5176 16.6108 48.5027 16.7006 48.4952 16.7903C48.4803 17.0745 48.4803 17.3811 48.4579 17.6504C48.4281 18.0168 48.3908 18.3982 48.3982 18.7796C48.3609 19.191 48.3535 19.6995 48.346 20.0959C48.2938 20.4174 48.3386 20.754 48.3236 21.1204C48.3236 21.1429 48.3162 21.1952 48.3087 21.2251C48.264 21.7786 48.3386 22.3918 48.3087 22.8405C48.3386 23.0051 48.3087 23.1546 48.3087 23.3117C48.3087 23.4837 48.3311 23.6333 48.3311 23.7978C48.3311 23.8277 48.3311 23.9174 48.3236 23.9548C48.3236 24.1194 48.346 24.2764 48.3609 24.4559C48.3759 24.7251 48.3386 25.0168 48.3833 25.3234C48.3833 25.5627 48.3759 25.9217 48.4132 26.191C48.3982 26.6546 48.4878 27.1183 48.5027 27.5969C48.5101 27.754 48.5027 27.9036 48.5325 28.0606C48.5176 28.2326 48.5549 28.4271 48.5698 28.629C48.5773 28.801 48.5922 29.0627 48.6071 29.2497C48.6295 29.5489 48.6892 29.9228 48.6593 30.1472C48.5474 30.2668 48.7563 30.4388 48.7563 30.6781C48.7489 30.8053 48.7116 30.7978 48.6743 30.8576C48.6743 30.9698 48.6966 31.0745 48.719 31.1867C48.719 31.3138 48.6817 31.4185 48.7041 31.583L48.7489 31.598ZM37.5291 18.4506C37.5291 18.4506 37.5216 18.4506 37.5141 18.4655C37.4918 18.4281 37.5365 18.3533 37.5291 18.4506ZM37.5291 18.488C37.5216 18.6301 37.5291 18.832 37.4918 18.9367C37.4918 18.9666 37.5216 18.9142 37.5291 18.9591C37.5067 19.0189 37.4918 19.0863 37.4843 19.191C37.4395 19.191 37.4843 18.989 37.447 18.9741C37.4545 18.8918 37.4619 18.8544 37.447 18.817C37.4768 18.6525 37.447 18.6151 37.4768 18.4954C37.4992 18.5328 37.4992 18.473 37.5291 18.488Z" fill="white"/>
</g>
<defs>
<clipPath id="clip0_868_542">
<rect width="41" height="42" fill="white" transform="translate(14 14)"/>
</clipPath>
</defs>
</svg>
