<svg width="70" height="70" viewBox="0 0 70 70" fill="none" xmlns="http://www.w3.org/2000/svg">
<g clip-path="url(#clip0_868_1652)">
<path fill-rule="evenodd" clip-rule="evenodd" d="M35.5603 26.3906C35.5603 26.3906 35.5672 26.4668 35.5672 26.5292C35.5534 26.5153 35.5465 26.4391 35.5603 26.3906Z" fill="white"/>
<path fill-rule="evenodd" clip-rule="evenodd" d="M34.2148 28.5234C34.2217 28.565 34.2355 28.7035 34.2148 28.6897C34.2148 28.6135 34.2148 28.5789 34.2148 28.5234Z" fill="white"/>
<path fill-rule="evenodd" clip-rule="evenodd" d="M34.1881 28.7617C34.1881 28.7617 34.1881 28.8795 34.195 28.928C34.1812 28.928 34.1812 28.7964 34.1881 28.7617Z" fill="white"/>
<path fill-rule="evenodd" clip-rule="evenodd" d="M34.4219 29.4102C34.4219 29.4102 34.4426 29.5348 34.4357 29.5764C34.4219 29.5625 34.4357 29.4586 34.4219 29.4102Z" fill="white"/>
<path fill-rule="evenodd" clip-rule="evenodd" d="M34.2148 29.7148C34.2286 29.7703 34.2355 29.8672 34.2424 29.9988C34.2286 29.9504 34.2217 29.8187 34.2148 29.7148Z" fill="white"/>
<path fill-rule="evenodd" clip-rule="evenodd" d="M35.3398 30.4727C35.3467 30.6112 35.395 30.8952 35.3812 30.9922C35.3812 30.8259 35.3398 30.632 35.3398 30.4727Z" fill="white"/>
<path fill-rule="evenodd" clip-rule="evenodd" d="M34.8926 30.8858C34.934 31.059 34.9409 31.3776 34.996 31.5993C34.9754 31.6339 34.9478 31.2737 34.9202 31.2045C34.9202 31.1629 34.9202 31.1144 34.9202 31.0659C34.9133 31.0036 34.8926 30.9482 34.8995 30.8789L34.8926 30.8858Z" fill="white"/>
<path fill-rule="evenodd" clip-rule="evenodd" d="M35.2715 33.0352C35.2715 33.0352 35.2922 33.0352 35.3129 33.0975C35.3129 33.1183 35.3129 33.1252 35.2991 33.1252L35.2715 33.0352Z" fill="white"/>
<path fill-rule="evenodd" clip-rule="evenodd" d="M35.753 33.8086C35.8289 33.9264 35.9737 34.2242 36.0358 34.3905C36.0496 34.4112 36.0565 34.4043 36.0772 34.4459C36.1324 34.5359 36.2358 34.7576 36.1255 34.5498C35.9737 34.3073 35.8909 34.0926 35.7461 33.8086H35.753Z" fill="white"/>
<path fill-rule="evenodd" clip-rule="evenodd" d="M35.5742 34.0195C35.5742 34.0195 35.6225 34.1027 35.6501 34.165C35.6294 34.1511 35.5811 34.0472 35.5742 34.0195Z" fill="white"/>
<path fill-rule="evenodd" clip-rule="evenodd" d="M36.25 33.9336C36.25 33.9336 36.3121 34.0583 36.3397 34.1137C36.3121 34.0791 36.2569 33.9821 36.25 33.9336Z" fill="white"/>
<path fill-rule="evenodd" clip-rule="evenodd" d="M35.7266 34.1367C35.7611 34.1852 35.8162 34.303 35.8576 34.3584C35.8714 34.4277 35.7679 34.2129 35.7266 34.1367Z" fill="white"/>
<path fill-rule="evenodd" clip-rule="evenodd" d="M35.7051 34.2656C35.7396 34.3003 35.7948 34.4249 35.843 34.515C35.8016 34.4665 35.7465 34.3487 35.7051 34.2656Z" fill="white"/>
<path fill-rule="evenodd" clip-rule="evenodd" d="M36.4512 34.0742C36.4512 34.0742 36.5064 34.1504 36.5408 34.2058C36.5202 34.2058 36.4788 34.1227 36.4512 34.0742Z" fill="white"/>
<path fill-rule="evenodd" clip-rule="evenodd" d="M36.3887 34.2109C36.437 34.2664 36.5473 34.488 36.6094 34.5988C36.5197 34.4672 36.4645 34.3633 36.3887 34.2109Z" fill="white"/>
<path fill-rule="evenodd" clip-rule="evenodd" d="M35.8711 34.5586C35.947 34.6556 36.0159 34.8218 36.0642 34.9049C35.9953 34.8149 35.9401 34.6625 35.8711 34.5586Z" fill="white"/>
<path fill-rule="evenodd" clip-rule="evenodd" d="M36.2227 34.7188C36.2502 34.7534 36.2916 34.8157 36.3261 34.8711C36.3123 34.8919 36.264 34.7811 36.2227 34.7188Z" fill="white"/>
<path fill-rule="evenodd" clip-rule="evenodd" d="M36.2773 34.9102C36.3118 34.9517 36.3325 34.9933 36.3739 35.0695C36.3532 35.0626 36.3049 34.9586 36.2773 34.9102Z" fill="white"/>
<path fill-rule="evenodd" clip-rule="evenodd" d="M36.3262 35.1172C36.3262 35.1172 36.4434 35.2765 36.402 35.2627C36.3745 35.2211 36.3883 35.2211 36.3883 35.2142C36.3607 35.1657 36.3538 35.1726 36.3262 35.1172Z" fill="white"/>
<path fill-rule="evenodd" clip-rule="evenodd" d="M36.905 35.3183C36.8291 35.2352 36.7463 35.062 36.905 35.3183Z" fill="white"/>
<path fill-rule="evenodd" clip-rule="evenodd" d="M37.1953 35.418C37.2574 35.4872 37.3057 35.5634 37.3678 35.6535C37.3195 35.605 37.2229 35.4595 37.1953 35.418Z" fill="white"/>
<path fill-rule="evenodd" clip-rule="evenodd" d="M37.2637 35.4585C37.2637 35.4238 37.3602 35.5693 37.3258 35.5485L37.2637 35.4585Z" fill="white"/>
<path fill-rule="evenodd" clip-rule="evenodd" d="M37.5957 35.4648C37.5957 35.4648 37.6647 35.5341 37.6923 35.5826C37.6716 35.5826 37.6026 35.4926 37.5957 35.4648Z" fill="white"/>
<path fill-rule="evenodd" clip-rule="evenodd" d="M37.9473 35.957C38.099 36.1441 38.0783 36.0817 37.9473 35.957Z" fill="white"/>
<path fill-rule="evenodd" clip-rule="evenodd" d="M35.8359 31.6914C35.8359 31.6914 35.8635 31.7676 35.8773 31.7884C35.8704 31.8577 35.9118 31.9546 35.9256 32.0447C35.8773 31.9477 35.8842 31.8369 35.8359 31.6914Z" fill="white"/>
<path fill-rule="evenodd" clip-rule="evenodd" d="M36.2364 34.1021C36.264 34.1506 36.2502 34.1506 36.2778 34.206C36.2778 34.213 36.264 34.1922 36.2571 34.1922C36.3054 34.2961 36.3399 34.3446 36.3882 34.4277C36.3813 34.4208 36.3675 34.4069 36.3606 34.4138C36.4433 34.5108 36.4778 34.6632 36.6227 34.8849C36.464 34.684 36.2157 34.1783 36.1191 33.9844C36.1536 34.0052 36.2226 34.1853 36.2502 34.1991C36.264 34.1991 36.195 34.0883 36.2364 34.1091V34.1021Z" fill="white"/>
<path fill-rule="evenodd" clip-rule="evenodd" d="M35.9335 34.5305C35.9473 34.5305 35.9818 34.6205 35.9887 34.6344C35.9611 34.6136 35.8231 34.3434 35.9266 34.5305H35.9335Z" fill="white"/>
<path fill-rule="evenodd" clip-rule="evenodd" d="M36.8985 35.9693H36.8848C36.9744 36.094 37.1193 36.288 37.1745 36.3711C37.0503 36.2395 36.8503 35.9209 36.7606 35.8377C36.733 35.7962 36.7261 35.7823 36.7054 35.7408C36.4433 35.4221 36.2364 35.0204 36.0156 34.6602C36.1467 34.8056 36.3122 35.2143 36.4778 35.3667C36.4985 35.4013 36.4778 35.3667 36.464 35.3529C36.5675 35.5122 36.7468 35.7962 36.9192 35.9763L36.8985 35.9693Z" fill="white"/>
<path fill-rule="evenodd" clip-rule="evenodd" d="M37.3203 35.4727C37.3203 35.4727 37.3824 35.5419 37.4169 35.5696C37.4307 35.5835 37.341 35.5142 37.3203 35.4727Z" fill="white"/>
<path fill-rule="evenodd" clip-rule="evenodd" d="M40.8439 33.3804C40.8232 33.4358 40.8163 33.4843 40.8025 33.5051C40.7749 33.5328 40.7059 33.5743 40.699 33.5743C40.6231 33.609 40.4507 33.6782 40.2507 33.706C40.1265 33.7267 40.0437 33.7406 39.9403 33.7614C39.6299 33.8099 39.3539 33.8168 39.216 33.8722C38.9884 33.9207 38.6917 33.9484 38.4848 33.983C38.4503 33.983 38.3813 33.983 38.3675 33.99C37.8433 34.08 37.5191 34.2047 36.8914 34.267C36.8362 34.2947 36.8017 34.3363 36.6914 34.3779C36.6431 34.3917 36.5327 34.4056 36.4982 34.4194C36.3672 34.4818 36.4844 34.558 36.243 34.6065C36.2292 34.6203 36.2706 34.6272 36.2844 34.6342C36.2775 34.7589 36.3672 34.8628 36.312 34.9597C36.4775 35.0152 36.4431 35.0844 36.5672 35.1329C36.65 35.1675 36.8017 35.1953 36.9052 35.2299C37.0225 35.2645 37.1466 35.2922 37.2432 35.3338C37.2432 35.3684 37.395 35.3754 37.4225 35.41C37.5812 35.4308 37.7743 35.4654 37.933 35.4862C37.9537 35.5 37.9951 35.507 38.002 35.5208C38.3951 35.5762 38.7883 35.6455 39.3401 35.6455C39.3953 35.6455 39.4988 35.6455 39.554 35.6455C39.8575 35.6247 40.2162 35.6039 40.8715 35.5624C40.9542 35.5485 40.9542 35.5347 41.0439 35.5208C41.0991 35.5277 41.4026 35.5208 41.7406 35.3269C41.8579 35.2507 41.9751 35.1398 42.1476 34.9667C42.4097 34.7034 42.6166 34.4125 42.7063 34.177C42.7477 34.0662 42.7615 33.9484 42.7891 33.8445C42.8856 33.4982 42.9822 33.1518 43.0512 32.9094C43.0926 32.757 43.134 32.7085 43.1546 32.5907C43.1753 32.4868 43.1684 32.4037 43.1271 32.4037C43.1133 32.092 43.3409 31.3577 43.403 30.8936C43.5064 30.568 43.5271 30.2425 43.5961 29.9238C43.6099 29.8754 43.6375 29.7715 43.6513 29.723C43.672 29.6121 43.6858 29.4667 43.7134 29.3212C43.7548 29.0788 43.7961 28.8709 43.8237 28.6701C43.9341 28.3722 43.9203 28.1367 43.9686 27.8735C43.9893 27.7765 44.0238 27.6864 44.0376 27.5756C44.0445 27.5063 44.0652 27.3678 44.0721 27.2847C44.0859 27.2085 44.1203 27.0492 44.1341 26.973C44.1341 26.9175 44.1479 26.8206 44.1548 26.7721C44.1686 26.689 44.1824 26.6405 44.1962 26.5504C44.2031 26.4604 44.1962 26.3565 44.1962 26.2595C44.2169 25.8785 44.2169 25.5044 44.1686 25.1997C44.1686 24.6247 44.0652 24.126 43.9617 23.4402C43.9134 23.274 43.8789 23.1493 43.8444 22.9692C43.8306 22.9276 43.8168 22.9345 43.803 22.8722C43.7272 22.5259 43.5478 22.1379 43.4444 21.8262C43.4375 21.8193 43.4237 21.8055 43.4099 21.7847C43.265 21.3344 43.0236 20.6971 42.6718 20.2954C42.4787 19.9698 42.0096 19.6512 41.7406 19.4919C41.7061 19.4711 41.6785 19.4364 41.6578 19.4087C41.6371 19.381 41.6164 19.3325 41.6233 19.291C41.6233 19.2702 41.6302 19.2494 41.6371 19.2286C41.6509 19.1594 41.6716 19.097 41.6854 19.0347C41.7061 18.9446 41.713 18.8476 41.7337 18.7507C41.7682 18.5706 41.8165 18.4043 41.8303 18.1827C41.8441 17.9264 41.8234 17.7393 41.8165 17.5869C41.8165 17.4207 41.8096 17.2614 41.8027 17.1021C41.8027 16.7765 41.8027 16.4578 41.8096 16.1808C41.8096 16.0422 41.8027 15.8413 41.7958 15.6682C41.7958 15.5019 41.8165 15.3426 41.7751 15.0309C41.7406 14.7538 41.5957 14.4906 41.4371 14.2828C41.3612 14.1858 41.2715 14.1027 41.1888 14.0334C40.9749 13.8464 40.7611 13.7078 40.5404 13.597C40.2645 13.4654 40.0161 13.3823 39.7885 13.2992C39.5471 13.216 39.285 13.1191 38.9815 13.0429C38.7883 13.0152 38.5469 12.9874 38.2641 13.029C37.9882 13.0636 37.6847 13.1883 37.4501 13.3615C36.9466 13.7217 36.7259 14.2689 36.6017 14.5945C36.5603 14.7815 36.4844 14.9478 36.4431 15.1348C36.2982 15.7374 36.381 16.4925 36.4086 16.9912C36.4568 17.4761 36.4844 17.9679 36.4775 18.4597C36.4775 18.7091 36.4637 18.9516 36.45 19.2009L36.4224 19.5403C36.4155 19.6096 36.4155 19.6581 36.4017 19.7066L36.3327 19.762L36.2223 19.8659C36.1051 19.9837 35.9878 20.1014 35.8774 20.2261C35.6567 20.4755 35.4567 20.7456 35.2842 21.0296C34.9255 21.6046 34.7117 22.2419 34.5737 22.8445C34.5048 23.0177 34.4634 23.2878 34.4427 23.4471C34.422 23.4749 34.4082 23.5788 34.3875 23.655C34.3737 23.939 34.2909 24.2853 34.2564 24.6455C34.2771 24.7425 34.2288 24.9503 34.2426 25.0888C34.2219 25.1442 34.2357 25.0126 34.2151 25.1096C34.2495 25.3451 34.1875 26.114 34.2013 26.4604C34.2013 26.4396 34.2082 26.4327 34.2082 26.4604C34.1944 26.5435 34.2219 26.5851 34.2219 26.6751C34.2219 27.2985 34.2978 27.7419 34.3323 28.2614C34.3323 28.3306 34.3047 28.5038 34.3323 28.5662C34.3323 28.4692 34.3323 28.3514 34.353 28.3584C34.353 28.5177 34.3668 28.7255 34.3875 28.8294C34.3944 29.0233 34.3875 29.1272 34.4082 29.3004C34.4082 29.342 34.4289 29.2589 34.4358 29.3489C34.4358 29.626 34.4634 29.7576 34.4565 30.007C34.4841 30.0762 34.5048 30.3672 34.4979 30.4572C34.5117 30.5403 34.5117 30.3672 34.5186 30.4364C34.5392 30.6581 34.5668 30.8659 34.5668 31.0737C34.5806 31.1222 34.6013 31.1568 34.6151 31.24C34.622 31.2954 34.5875 31.2261 34.6082 31.3092C34.6289 31.3854 34.622 31.2469 34.6427 31.2607C34.6634 31.3716 34.6772 31.3508 34.691 31.4062C34.691 31.5655 34.7393 31.6694 34.7738 31.808C34.8083 31.9534 34.8359 32.1128 34.8772 32.2513C34.9117 32.3691 34.9393 32.4175 34.9807 32.5492C35.0083 32.66 35.0221 32.75 35.0566 32.8678C35.0773 32.9301 35.0566 32.8193 35.0911 32.9094C35.229 33.318 35.4015 33.7198 35.5601 33.9969C35.3256 33.5674 35.2359 33.2141 35.0704 32.8124C35.0704 32.7431 35.0014 32.6323 35.0152 32.563C34.9945 32.5353 35.0152 32.6392 34.9876 32.5422C34.9807 32.5076 34.9876 32.5007 34.9669 32.4522C35.0083 32.5007 34.9876 32.4175 34.9945 32.376C34.8979 32.0227 34.8359 31.7387 34.7945 31.427C34.7807 31.3716 34.7876 31.4686 34.7738 31.4062C34.7531 31.2746 34.7531 31.2261 34.7255 31.0529C34.7393 31.0114 34.7393 30.9144 34.7738 30.9629C34.8083 31.3854 34.9255 31.9604 35.0704 32.4383C35.1118 32.5838 35.1394 32.7431 35.1945 32.8193C35.1187 32.6046 35.1049 32.4175 35.0566 32.2305C35.0014 31.9811 34.9186 31.7248 34.891 31.4755C34.891 31.427 34.8841 31.3577 34.8841 31.3162C34.8841 31.2677 34.8566 31.1845 34.8497 31.1291C34.8497 31.0668 34.8497 31.0668 34.8497 31.0114C34.8359 30.9075 34.8152 30.8243 34.8083 30.7066C34.7945 30.5126 34.8083 30.3187 34.7807 30.1039C34.7807 30.0624 34.8083 30.0832 34.8152 30.1317C34.829 30.3879 34.8359 30.4295 34.8497 30.6927C34.8497 30.665 34.8497 30.6442 34.8634 30.6442C34.8634 30.7274 34.8634 30.7551 34.8772 30.8105C34.8634 30.6165 34.8979 30.6304 34.9255 30.6997C34.9531 31.1776 35.0428 31.7595 35.1256 32.1405C35.1463 32.182 35.167 32.2028 35.1876 32.2721C35.3049 32.6946 35.4498 33.1726 35.6429 33.6021C35.4636 33.0964 35.2635 32.563 35.1256 31.9604C35.1256 31.9327 35.1394 31.9534 35.1256 31.8911C35.0566 31.6348 35.0221 31.3231 35.0014 31.1222C35.0152 31.0322 35.029 30.9421 35.0428 30.8451C34.9738 30.1871 35.0428 29.7022 35.0221 29.0649C35.0359 29.0649 35.0428 29.0164 35.0497 28.9956C35.0635 29.0441 35.0842 29.0788 35.0911 29.1411C35.0911 29.245 35.1049 29.3489 35.098 29.4459C35.167 29.9793 35.1601 30.7343 35.2704 31.3716C35.3049 31.4478 35.3187 31.3854 35.3325 31.3231C35.3118 31.0183 35.2497 30.7343 35.2635 30.4018C35.3118 30.2771 35.3601 30.4018 35.3808 30.6581C35.4084 31.0876 35.498 31.7803 35.5601 32.0296C35.8705 33.1864 36.3741 34.3017 37.0914 35.313C36.7121 34.7381 36.3741 34.1908 36.1464 33.6159C36.1395 33.6159 36.1258 33.6021 36.1051 33.5605C35.8705 33.0063 35.6636 32.3552 35.5394 31.8565C35.5256 31.6417 35.4291 31.2261 35.4429 30.9906C35.5049 31.0391 35.5463 31.2261 35.5946 31.4478C35.5601 31.2192 35.5532 30.9975 35.5394 30.7966C35.5256 30.6304 35.4912 30.3464 35.498 30.2563C35.498 30.2356 35.5118 30.2771 35.5118 30.2356C35.5118 30.3048 35.5049 30.1109 35.498 30.097C35.4843 30.007 35.4843 30.0208 35.4774 29.9169C35.4774 29.7784 35.4774 29.7784 35.4774 29.6883C35.4636 29.1965 35.436 28.7186 35.4291 28.2267C35.4291 28.1713 35.4291 28.0743 35.4291 28.0605C35.4291 28.012 35.4429 28.0536 35.4429 27.9912C35.4429 27.9566 35.4291 27.9704 35.4291 27.922C35.4291 27.7211 35.4291 27.5133 35.4291 27.3262C35.4222 26.8552 35.436 26.301 35.4498 25.9201C35.4567 25.8369 35.4705 25.9478 35.4774 25.8369C35.5187 25.1858 35.5946 24.5208 35.7326 23.842C35.7464 23.7935 35.7602 23.842 35.7671 23.7589C35.7878 23.6688 35.7671 23.6827 35.7809 23.6065C35.7947 23.558 35.8153 23.5095 35.8291 23.4887C36.0154 22.7267 36.2292 22.0687 36.6707 21.4868C36.7879 21.3344 36.9121 21.182 37.0432 21.0435C37.119 20.9673 37.1535 20.9257 37.2708 20.8218C37.4225 20.6971 37.5743 20.5655 37.7192 20.4408C37.7536 20.1499 37.7812 19.8659 37.8157 19.5888C37.8295 19.4087 37.8433 19.2356 37.8502 19.0624C37.8847 18.432 37.864 17.8294 37.8502 17.2683C37.7812 16.4856 37.7123 15.973 37.8226 15.4811C37.8571 15.308 37.933 15.1209 38.0158 14.927C38.0916 14.7538 38.1606 14.6568 38.2158 14.6014C38.2365 14.5806 38.2503 14.5529 38.2779 14.5391C38.3193 14.5114 38.3538 14.5183 38.3882 14.5044C38.471 14.4767 38.678 14.4767 38.947 14.5668C39.2367 14.6707 39.623 14.8162 39.8575 14.9339C39.9954 15.0032 40.1058 15.0586 40.1817 15.1279C40.23 15.1764 40.2576 15.2318 40.2714 15.2595C40.2851 15.2803 40.292 15.308 40.2989 15.3288C40.2989 15.3426 40.3058 15.3842 40.3127 15.4881C40.3127 15.689 40.3127 15.876 40.3127 16.0561C40.2989 16.5618 40.2714 17.0813 40.3127 17.6146C40.3127 17.7532 40.3196 17.9333 40.3127 18.0026C40.3127 18.0649 40.2851 18.2104 40.2645 18.3351C40.2369 18.4667 40.2093 18.5913 40.1748 18.7299C40.1472 18.8338 40.0644 19.1524 40.0644 19.3602C40.0368 19.7343 40.1679 20.1222 40.43 20.4131C40.5611 20.5586 40.7266 20.6833 40.8922 20.7941C41.0094 20.8634 41.0922 20.9188 41.1543 20.9673C41.1819 20.9881 41.1957 21.0089 41.2233 21.0296C41.3957 21.189 41.5268 21.376 41.6716 21.6738C41.8096 21.9648 41.9406 22.2903 42.0372 22.5743C42.1407 22.7683 42.1614 22.9345 42.2165 23.1216C42.2648 23.3225 42.3338 23.5026 42.3752 23.6965C42.389 23.7589 42.389 23.8212 42.4028 23.8835C42.4373 24.0844 42.4856 24.2784 42.52 24.5C42.5683 24.8325 42.5545 25.1997 42.589 25.5945C42.589 25.9131 42.5476 26.2595 42.5131 26.6266C42.3959 27.2016 42.32 27.818 42.1821 28.4345C42.1338 28.6424 42.0717 28.8294 42.051 29.0441C41.982 29.2589 41.9406 29.5221 41.8785 29.7853C41.8165 30.0277 41.7406 30.3325 41.6785 30.5958C41.5819 30.9837 41.4992 31.4824 41.375 31.7595C41.2371 31.8703 41.3405 32.1682 41.2439 32.466C41.1819 32.6184 41.1543 32.5907 41.0991 32.6531C41.0508 32.7916 41.0232 32.9163 40.9956 33.0479C40.9404 33.1864 40.8646 33.2765 40.8094 33.4012L40.8439 33.3804ZM34.6289 30.4572C34.6289 30.4572 34.622 30.4572 34.622 30.478C34.5944 30.4295 34.622 30.3187 34.6289 30.4572ZM34.6427 30.5057C34.6565 30.6997 34.7048 30.9767 34.6979 31.1153C34.6979 31.1568 34.7255 31.0806 34.7324 31.143C34.7324 31.2261 34.7324 31.33 34.7462 31.4755C34.7048 31.4893 34.6979 31.1984 34.6565 31.1915C34.6496 31.0806 34.6427 31.0252 34.622 30.9767C34.622 30.7482 34.5875 30.6997 34.5875 30.5265C34.6151 30.568 34.6013 30.4919 34.6289 30.5057H34.6427Z" fill="white"/>
<path fill-rule="evenodd" clip-rule="evenodd" d="M39.2518 29.5C39.2518 29.5 39.2035 29.5762 39.1621 29.6316C39.1621 29.6178 39.2035 29.5485 39.2518 29.5Z" fill="white"/>
<path fill-rule="evenodd" clip-rule="evenodd" d="M36.8659 30.2891C36.8659 30.2891 36.8107 30.386 36.7969 30.3653C36.8245 30.3237 36.8452 30.3168 36.8659 30.2891Z" fill="white"/>
<path fill-rule="evenodd" clip-rule="evenodd" d="M36.7483 30.3867C36.7483 30.3867 36.7069 30.4421 36.6862 30.4698C36.6793 30.4629 36.7276 30.3936 36.7483 30.3867Z" fill="white"/>
<path fill-rule="evenodd" clip-rule="evenodd" d="M36.6519 30.8438C36.6519 30.8438 36.6174 30.913 36.5898 30.9269C36.5898 30.913 36.6312 30.8715 36.6519 30.8438Z" fill="white"/>
<path fill-rule="evenodd" clip-rule="evenodd" d="M36.3613 30.8555C36.3475 30.8901 36.313 30.9386 36.2578 31.0009C36.2578 30.9663 36.3199 30.904 36.3613 30.8555Z" fill="white"/>
<path fill-rule="evenodd" clip-rule="evenodd" d="M36.8935 31.9375C36.8383 32.0068 36.7349 32.1661 36.6797 32.2007C36.7625 32.1245 36.8176 32.0068 36.8935 31.9375Z" fill="white"/>
<path fill-rule="evenodd" clip-rule="evenodd" d="M36.3685 31.8359C36.3202 31.9398 36.1685 32.0784 36.0926 32.21C36.0581 32.21 36.2237 32.0437 36.2306 31.9953C36.2444 31.9814 36.272 31.9537 36.2926 31.9329C36.3133 31.8983 36.3271 31.8636 36.3616 31.8359H36.3685Z" fill="white"/>
<path fill-rule="evenodd" clip-rule="evenodd" d="M35.4505 32.875C35.4505 32.875 35.4643 32.8958 35.4367 32.9235C35.4298 32.9235 35.416 32.9235 35.416 32.9235L35.4505 32.875Z" fill="white"/>
<path fill-rule="evenodd" clip-rule="evenodd" d="M35.2236 33.4336C35.1822 33.5167 35.058 33.683 34.9683 33.7661C34.9614 33.7799 34.9683 33.7869 34.9476 33.8076C34.9063 33.8631 34.8028 33.9808 34.8994 33.8631C35.0028 33.7107 35.1063 33.6068 35.2236 33.4405V33.4336Z" fill="white"/>
<path fill-rule="evenodd" clip-rule="evenodd" d="M34.9829 33.332C34.9829 33.332 34.9553 33.3874 34.9277 33.4221C34.9277 33.4082 34.9691 33.3459 34.9829 33.332Z" fill="white"/>
<path fill-rule="evenodd" clip-rule="evenodd" d="M35.4031 33.8516C35.4031 33.8516 35.3479 33.9278 35.3203 33.9555C35.3341 33.9278 35.3686 33.8654 35.4031 33.8516Z" fill="white"/>
<path fill-rule="evenodd" clip-rule="evenodd" d="M34.9826 33.4688C34.9688 33.5034 34.9136 33.5657 34.8929 33.6073C34.8516 33.6281 34.9481 33.5103 34.9826 33.4688Z" fill="white"/>
<path fill-rule="evenodd" clip-rule="evenodd" d="M34.8847 33.4766C34.8847 33.4766 34.8226 33.5735 34.7812 33.622C34.795 33.5874 34.8502 33.5251 34.8847 33.4766Z" fill="white"/>
<path fill-rule="evenodd" clip-rule="evenodd" d="M35.4096 34.0312C35.4096 34.0312 35.382 34.0936 35.3613 34.1282C35.3613 34.1144 35.3958 34.0659 35.4096 34.0312Z" fill="white"/>
<path fill-rule="evenodd" clip-rule="evenodd" d="M35.279 34.0078C35.2583 34.0563 35.1548 34.181 35.0996 34.2433C35.1548 34.1533 35.2031 34.0909 35.279 34.0078Z" fill="white"/>
<path fill-rule="evenodd" clip-rule="evenodd" d="M34.7689 33.6484C34.7413 33.7246 34.6586 33.8008 34.6172 33.8493C34.6517 33.787 34.7345 33.7246 34.7689 33.6484Z" fill="white"/>
<path fill-rule="evenodd" clip-rule="evenodd" d="M34.8225 33.9453C34.8225 33.9453 34.7811 34.0146 34.7604 34.0492C34.7397 34.0423 34.7949 33.9869 34.8225 33.9453Z" fill="white"/>
<path fill-rule="evenodd" clip-rule="evenodd" d="M34.7057 34.0156C34.6919 34.0503 34.6712 34.071 34.6367 34.1126C34.6367 34.0987 34.685 34.0433 34.7057 34.0156Z" fill="white"/>
<path fill-rule="evenodd" clip-rule="evenodd" d="M34.5759 34.0859C34.5759 34.0859 34.5069 34.1968 34.5 34.1621C34.5207 34.1344 34.5207 34.1483 34.5276 34.1483C34.5483 34.1206 34.5414 34.1136 34.569 34.0859H34.5759Z" fill="white"/>
<path fill-rule="evenodd" clip-rule="evenodd" d="M34.6777 34.5624C34.8088 34.41 34.7053 34.4932 34.6777 34.5624Z" fill="white"/>
<path fill-rule="evenodd" clip-rule="evenodd" d="M34.7208 34.8047C34.6932 34.8601 34.6518 34.9017 34.6035 34.9571C34.6242 34.9155 34.7001 34.8255 34.7208 34.8047Z" fill="white"/>
<path fill-rule="evenodd" clip-rule="evenodd" d="M34.7123 34.8594C34.7123 34.8594 34.6641 34.9425 34.6641 34.9148L34.7123 34.8594Z" fill="white"/>
<path fill-rule="evenodd" clip-rule="evenodd" d="M34.8364 35.1328C34.8364 35.1328 34.8019 35.1952 34.7812 35.2229C34.7812 35.209 34.8226 35.1467 34.8364 35.1328Z" fill="white"/>
<path fill-rule="evenodd" clip-rule="evenodd" d="M34.5611 35.4414C34.499 35.5522 34.4576 35.573 34.5611 35.4414Z" fill="white"/>
<path fill-rule="evenodd" clip-rule="evenodd" d="M36.6382 32.8398C36.6382 32.8398 36.6106 32.8953 36.6037 32.9091C36.5623 32.9299 36.5209 33.0061 36.4727 33.0546C36.5002 32.9784 36.5761 32.9368 36.6313 32.8398H36.6382Z" fill="white"/>
<path fill-rule="evenodd" clip-rule="evenodd" d="M35.2778 33.8647C35.2778 33.8647 35.2502 33.8855 35.2295 33.9202C35.2226 33.9202 35.2295 33.9063 35.2295 33.8994C35.1812 33.9548 35.1606 33.9894 35.1192 34.0379C35.1192 34.031 35.1192 34.0171 35.1192 34.0171C35.0916 34.1003 34.995 34.1487 34.8984 34.2942C34.9812 34.1487 35.2295 33.8717 35.3123 33.7539C35.3123 33.7816 35.2226 33.8717 35.2295 33.8994C35.2364 33.9132 35.2847 33.837 35.2847 33.8717L35.2778 33.8647Z" fill="white"/>
<path fill-rule="evenodd" clip-rule="evenodd" d="M34.81 33.6993C34.81 33.7131 34.7686 33.7547 34.7617 33.7547C34.7617 33.7339 34.8928 33.5815 34.8031 33.6924L34.81 33.6993Z" fill="white"/>
<path fill-rule="evenodd" clip-rule="evenodd" d="M34.1689 34.5899L34.1551 34.5761C34.0999 34.6523 34.0034 34.77 33.9551 34.8116C34.0172 34.7146 34.1896 34.5484 34.2172 34.4652C34.2448 34.4445 34.2448 34.4375 34.2724 34.4168C34.4103 34.1951 34.6104 33.9942 34.769 33.7656C34.7345 33.8972 34.5069 34.0635 34.4655 34.209C34.4517 34.2228 34.4655 34.209 34.4655 34.1951C34.3896 34.2921 34.2448 34.4514 34.1758 34.5899H34.1689Z" fill="white"/>
<path fill-rule="evenodd" clip-rule="evenodd" d="M34.7263 34.9102C34.7263 34.9102 34.6918 34.9656 34.6849 34.9933C34.678 35.0002 34.6987 34.924 34.7263 34.9102Z" fill="white"/>
<path fill-rule="evenodd" clip-rule="evenodd" d="M29.519 35.5677C29.5673 35.6231 29.7466 35.8101 29.8018 35.8655C29.8846 36.0387 30.057 35.9971 30.2088 36.0041C30.3605 36.0041 30.5192 36.0041 30.6778 36.0041C30.8503 36.0041 30.8917 35.9902 30.9675 35.9833C31.0365 35.9764 31.1124 35.9694 31.1883 35.9625C31.2986 35.9625 31.34 35.9486 31.409 35.9417C31.6297 35.9209 31.8091 35.9348 31.8987 35.8794C32.085 35.8447 32.2022 35.824 32.3816 35.7963C32.4023 35.7963 32.4506 35.7963 32.4575 35.7963C32.8024 35.7201 33.0093 35.5884 33.4094 35.533C33.4439 35.5053 33.4645 35.4638 33.5335 35.4222C33.5611 35.4083 33.6301 35.3945 33.6577 35.3806C33.7405 35.3183 33.6646 35.2421 33.8232 35.1936C33.8301 35.1798 33.8025 35.1728 33.7956 35.1659C33.7956 35.0412 33.7405 34.9373 33.775 34.8403C33.6715 34.7849 33.6922 34.7157 33.6094 34.6672C33.5611 34.6325 33.4576 34.6048 33.3956 34.5702C33.3197 34.5355 33.2438 34.5078 33.1817 34.4663C33.1817 34.4316 33.0852 34.4247 33.0714 34.3901C32.9748 34.3693 32.8437 34.3347 32.7541 34.3139C32.7403 34.3 32.7127 34.2931 32.7127 34.2793C32.4644 34.2169 32.216 34.1338 31.8849 34.113C31.8505 34.113 31.7815 34.113 31.7539 34.113C31.5056 34.113 31.1193 34.0992 30.9882 34.0507C30.9399 34.0507 30.9468 34.0576 30.8986 34.0507C30.8986 34.0368 30.8158 34.023 30.8296 34.0091C30.8296 33.9952 30.8296 33.9883 30.8296 33.9883C30.8296 33.9883 30.8227 34.023 30.8158 34.0299C30.8089 34.0299 30.8296 33.9952 30.8227 34.0022C30.8227 34.0022 30.8089 34.0368 30.7813 34.016C30.6709 33.9191 30.4847 33.6835 30.4157 33.5866C30.3605 33.5104 30.3536 33.4619 30.2984 33.4134C30.2502 33.3649 30.2019 33.3441 30.1743 33.3787C29.988 33.2887 29.7121 32.88 29.4914 32.6791C29.3741 32.499 29.2017 32.3743 29.0706 32.215C29.0568 32.1942 29.0085 32.125 28.9879 32.1042C28.9396 32.0488 28.8706 31.9934 28.8016 31.9241C28.6912 31.8133 28.6016 31.7094 28.5119 31.6193C28.4153 31.4392 28.2843 31.363 28.1739 31.2383C28.1325 31.1898 28.1049 31.1344 28.0566 31.079C28.0153 31.0374 27.967 31.0028 27.9256 30.9543C27.8842 30.9058 27.8497 30.8435 27.8083 30.795C27.7876 30.7742 27.7393 30.7257 27.7255 30.7119C27.6911 30.6703 27.6842 30.6426 27.6428 30.601C27.6083 30.5595 27.5531 30.5318 27.5186 30.4902C27.3807 30.3447 27.2496 30.1646 27.0978 30.0469C27.0496 29.9776 26.9944 29.9083 26.9392 29.846C26.8978 29.7975 26.8012 29.6867 26.8081 29.7075C26.7874 29.6867 26.7599 29.6659 26.753 29.6382C26.7323 29.6313 26.7116 29.6174 26.7116 29.6036C26.7047 29.6036 26.6909 29.6036 26.684 29.5966C26.684 29.5689 26.5805 29.5135 26.5736 29.4858C26.5598 29.4858 26.5529 29.4789 26.5391 29.4719C26.5391 29.4512 26.5253 29.4304 26.5046 29.4027C26.5253 29.3888 26.5598 29.3888 26.5598 29.368C26.6426 29.3888 26.6495 29.368 26.7116 29.3611C26.7392 29.3611 26.7736 29.375 26.7943 29.3611C26.8357 29.3473 26.9047 29.3611 26.9461 29.3611C26.9599 29.3611 26.9737 29.3473 26.9875 29.3403C27.0427 29.3403 27.1806 29.3473 27.2772 29.3403C27.6842 29.3126 28.1463 29.3265 28.505 29.3265C28.6154 29.3265 28.705 29.3126 28.8292 29.3057C29.0292 29.2988 29.2431 29.3265 29.45 29.3196C29.4845 29.3196 29.5673 29.3126 29.6018 29.3057C29.7259 29.3057 29.8432 29.3057 29.9673 29.3057C30.2846 29.3057 30.6019 29.278 30.8986 29.3057C31.2779 29.278 31.8298 29.2918 32.2781 29.2849C32.3747 29.2572 32.4713 29.2849 32.5747 29.2849C32.892 29.278 33.2921 29.2503 33.6232 29.2711C34.3199 29.2503 35.0304 29.2503 35.7408 29.2503C36.0857 29.2503 36.4306 29.2503 36.7755 29.2503C36.9204 29.2434 37.0652 29.2364 37.2308 29.2226C37.2515 29.2434 37.3411 29.2295 37.4032 29.2226C37.3963 29.2364 37.4239 29.2364 37.4377 29.2364C37.4998 29.2226 37.5481 29.2226 37.5895 29.2226C37.6239 29.2226 37.6998 29.2157 37.6446 29.2641C37.6929 29.2572 37.6101 29.3196 37.6308 29.3334C37.5895 29.3611 37.617 29.3334 37.5826 29.3542C37.6446 29.368 37.4515 29.5689 37.4101 29.6451C37.4101 29.6451 37.4239 29.6382 37.4239 29.6451C37.3894 29.6659 37.4239 29.6728 37.3963 29.7005C37.3411 29.7767 37.2997 29.8529 37.2653 29.9291C37.2446 29.9707 37.2377 29.9984 37.1963 30.0607C37.148 30.1369 37.0997 30.2062 37.0652 30.2616C37.0307 30.2893 36.9411 30.3586 36.9342 30.4071C36.9755 30.3655 37.0169 30.3032 37.0376 30.324C36.9686 30.4002 36.8928 30.5041 36.8721 30.5733C36.7962 30.6703 36.7479 30.7119 36.6927 30.8088C36.6789 30.8296 36.7272 30.8089 36.6927 30.8504C36.5755 30.9751 36.541 31.0582 36.4306 31.176C36.4237 31.2245 36.3134 31.3699 36.2651 31.4115C36.2444 31.46 36.3134 31.3769 36.2927 31.4115C36.2099 31.5293 36.1409 31.6332 36.0443 31.7232C36.0305 31.7578 36.0305 31.7786 36.003 31.8271C35.9823 31.8548 35.9892 31.8063 35.9616 31.8548C35.9409 31.9033 36.003 31.841 36.0098 31.8548C35.9754 31.9172 35.9892 31.9102 35.9823 31.9449C35.9133 32.0141 35.8926 32.0834 35.8443 32.1596C35.796 32.2358 35.727 32.312 35.6719 32.3882C35.6305 32.4505 35.6236 32.4852 35.5684 32.5544C35.527 32.6099 35.4718 32.6445 35.4304 32.7068C35.4097 32.7415 35.4649 32.6999 35.4304 32.7415C35.2649 32.9562 35.0993 33.1779 35.0028 33.351C35.1614 33.0878 35.3339 32.9354 35.4787 32.6999C35.5201 32.6791 35.5408 32.596 35.5891 32.5821C35.5891 32.5614 35.5477 32.6029 35.5891 32.5544C35.6029 32.5406 35.6098 32.5406 35.6305 32.5129C35.6305 32.5614 35.665 32.5129 35.6925 32.5129C35.8236 32.3397 35.9478 32.1735 36.0581 32.028C36.0788 31.9934 36.0305 32.0418 36.0581 32.0003C36.1133 31.9241 36.1133 31.9241 36.1892 31.8202C36.2237 31.8133 36.2651 31.7717 36.2651 31.8133C36.0995 32.0211 35.8995 32.3328 35.7063 32.5821C35.6443 32.6583 35.5684 32.7276 35.5615 32.79C35.6443 32.6722 35.7408 32.6029 35.8236 32.506C35.9271 32.3813 36.0099 32.2289 36.1133 32.1111C36.1409 32.0765 36.1616 32.0696 36.1823 32.0349C36.203 32.0072 36.2237 31.9587 36.2444 31.931C36.272 31.9033 36.2789 31.9033 36.2996 31.8825C36.3409 31.8271 36.3616 31.7786 36.403 31.7163C36.4789 31.6193 36.5755 31.5362 36.6513 31.4253C36.672 31.4115 36.6858 31.4323 36.6651 31.46C36.5617 31.5916 36.5479 31.6054 36.4444 31.7371C36.4582 31.7232 36.4651 31.7163 36.472 31.7232C36.4375 31.7648 36.4237 31.7717 36.4099 31.8063C36.4858 31.7094 36.5065 31.744 36.4996 31.7856C36.3065 32.0211 36.0857 32.3259 35.9202 32.5129C35.9133 32.5406 35.9133 32.5614 35.8857 32.6029C35.6788 32.8731 35.5477 33.0393 35.3339 33.3164C35.5753 33.0601 35.7822 32.7692 36.0236 32.4436C36.0374 32.4367 36.0374 32.4505 36.065 32.4159C36.1616 32.2704 36.2858 32.118 36.3685 32.0072C36.4168 31.9795 36.472 31.9449 36.5272 31.9102C36.7755 31.5708 37.0376 31.3838 37.286 31.0651C37.2997 31.079 37.3204 31.0513 37.3342 31.0513C37.3204 31.0859 37.3204 31.1136 37.3066 31.1483C37.2653 31.2037 37.2308 31.2591 37.1825 31.3007C37.0031 31.5985 36.6789 31.9518 36.4375 32.3051C36.4237 32.3605 36.4651 32.3397 36.5065 32.3259C36.6445 32.1735 36.7341 32.0072 36.8928 31.8548C36.9893 31.834 36.9687 31.9172 36.8652 32.0557C36.6996 32.2774 36.3961 32.6445 36.2789 32.783C35.8029 33.4411 35.2925 34.0645 34.7958 34.7295C35.0924 34.3762 35.3339 34.016 35.6098 33.7112C35.6029 33.7112 35.6098 33.6905 35.6236 33.6697C35.8788 33.351 36.1616 32.9978 36.3685 32.7068C36.4927 32.6099 36.6376 32.3605 36.7617 32.2635C36.7824 32.3259 36.7272 32.4436 36.6376 32.5752C36.7341 32.4505 36.8445 32.3397 36.9273 32.2427C36.9962 32.1596 37.0997 32.0003 37.148 31.9657C37.1618 31.9587 37.148 31.9864 37.1687 31.9657C37.1411 32.0003 37.217 31.9033 37.2239 31.8895C37.2584 31.841 37.2446 31.841 37.2928 31.7925C37.348 31.7232 37.348 31.7232 37.3963 31.6886C37.6101 31.4184 37.755 31.2452 37.9757 30.9612C37.9964 30.9335 38.0309 30.892 38.0378 30.8781C38.0585 30.8573 38.0516 30.8781 38.0792 30.8504C38.093 30.8366 38.0792 30.8366 38.0999 30.8088C38.2379 30.6426 38.3689 30.4764 38.4862 30.3378C38.8173 29.9222 39.2104 29.4304 39.4864 29.091C39.5484 29.0148 39.5002 29.1117 39.5829 29.0078L40.3348 28.0866L40.4314 27.9688L40.4797 27.9065C40.4797 27.9065 40.4452 27.8995 40.4314 27.8926H40.1348L39.5346 27.8718C39.4726 27.8718 39.5553 27.851 39.4588 27.851C39.3484 27.851 39.3415 27.8718 39.2449 27.8649C39.1898 27.858 39.1415 27.851 39.1208 27.8372C38.6586 27.8233 38.1689 27.8164 37.6791 27.8164C37.286 27.8164 36.8721 27.8164 36.472 27.8164C35.9547 27.8164 35.458 27.8164 34.9752 27.8164C34.5958 27.8164 34.2302 27.8372 33.8922 27.8164C33.437 27.8303 33.0438 27.8233 32.6161 27.8233C32.3057 27.8233 31.9746 27.8095 31.7125 27.8233C31.6711 27.8233 31.6159 27.8372 31.5607 27.8372C31.5125 27.8372 31.3745 27.8233 31.3262 27.8164C31.14 27.8164 30.8779 27.8303 30.6916 27.8303C30.4571 27.8303 30.2295 27.8303 29.9949 27.8233C29.8915 27.8233 29.7121 27.8372 29.6087 27.8372C29.5397 27.8372 29.4155 27.8303 29.3465 27.8233C29.0982 27.8233 28.843 27.8441 28.6016 27.8372C28.2843 27.8372 27.9601 27.8095 27.6359 27.8372C27.4358 27.8372 27.2496 27.8372 27.0634 27.8303C26.7461 27.8303 26.4425 27.8372 26.139 27.8441C25.8907 27.8303 25.6424 27.8303 25.401 27.8441C25.1596 27.858 24.9112 27.8787 24.7457 27.948C24.725 27.948 24.6698 27.9757 24.6422 27.9827C24.5801 28.0727 24.5456 28.1697 24.5043 28.2459L24.4491 28.3567L24.4215 28.4052L24.4077 28.4329V28.4468L24.4008 28.4537V28.4606C24.2835 28.4121 24.6629 28.5784 24.1387 28.3429C24.2145 28.5784 24.2973 28.7931 24.3387 28.9732C24.4146 29.1187 24.4146 29.2295 24.4491 29.3542C24.4491 29.3819 24.4836 29.4304 24.5318 29.4789C24.5732 29.5204 24.6146 29.5689 24.6629 29.6174C24.7526 29.7144 24.8491 29.8183 24.9181 29.8945C24.9457 29.9291 25.0285 30.04 25.063 30.0746C25.2285 30.2685 25.401 30.4486 25.5872 30.6495C25.7528 30.8366 25.7804 30.885 25.87 30.9959C25.9459 31.0929 26.0287 31.1898 26.1184 31.2799C26.2356 31.4461 26.4219 31.6886 26.5874 31.8479C26.815 32.1665 27.1116 32.4367 27.36 32.7553C27.4427 32.8592 27.5048 32.9701 27.6152 33.0601C27.6911 33.1848 27.8083 33.3026 27.9256 33.4342C28.0153 33.545 28.1532 33.7251 28.2567 33.8498C28.4153 34.0507 28.643 34.2723 28.7257 34.4524C28.6981 34.591 28.9327 34.6117 29.0499 34.778C29.1051 34.875 29.0706 34.8819 29.0706 34.9442C29.1189 35.0274 29.1879 35.0897 29.2569 35.152C29.2914 35.1936 29.3052 35.2421 29.3327 35.2906C29.3672 35.3529 29.45 35.4638 29.5397 35.5677H29.519ZM36.3616 31.4669C36.3616 31.4669 36.3547 31.4669 36.3478 31.4669C36.3478 31.4253 36.4168 31.3976 36.3616 31.4669ZM36.3478 31.4946C36.272 31.5916 36.1823 31.744 36.1133 31.7994C36.0995 31.8202 36.1478 31.7994 36.1271 31.834C36.0857 31.8687 36.0374 31.9102 35.9823 31.9795C35.9478 31.9587 36.0788 31.834 36.0512 31.8063C36.0995 31.7509 36.1202 31.7301 36.1271 31.6955C36.2237 31.5916 36.2237 31.55 36.3065 31.4738C36.3065 31.5085 36.334 31.4738 36.3478 31.4946Z" fill="white"/>
<path fill-rule="evenodd" clip-rule="evenodd" d="M37.8164 54.9691C37.8509 54.9553 37.913 54.9483 37.9889 54.9414C37.9751 54.9553 37.8785 54.976 37.8164 54.9691Z" fill="white"/>
<path fill-rule="evenodd" clip-rule="evenodd" d="M40.7285 55.9171C40.7837 55.8963 40.9492 55.8478 40.9355 55.8755C40.8389 55.9032 40.7975 55.9032 40.7285 55.9171Z" fill="white"/>
<path fill-rule="evenodd" clip-rule="evenodd" d="M41.0312 55.8844C41.0312 55.8844 41.1761 55.8498 41.2382 55.8359C41.2382 55.8498 41.0726 55.8844 41.0312 55.8844Z" fill="white"/>
<path fill-rule="evenodd" clip-rule="evenodd" d="M41.8184 55.4842C41.8597 55.4634 41.9701 55.4288 42.0253 55.4219C42.0115 55.4357 41.8804 55.4634 41.8184 55.4842Z" fill="white"/>
<path fill-rule="evenodd" clip-rule="evenodd" d="M42.252 55.5874C42.3209 55.5528 42.4382 55.5181 42.6037 55.4766C42.5486 55.5043 42.3761 55.5528 42.252 55.5874Z" fill="white"/>
<path fill-rule="evenodd" clip-rule="evenodd" d="M42.9414 54.2499C43.107 54.1875 43.4449 54.049 43.576 54.0352C43.3691 54.0906 43.1345 54.1945 42.9414 54.2499Z" fill="white"/>
<path fill-rule="evenodd" clip-rule="evenodd" d="M43.5566 54.5408C43.7636 54.4438 44.1568 54.326 44.4189 54.1875C44.4672 54.1875 44.0257 54.3607 43.9567 54.4092C43.8946 54.4369 43.8395 54.4438 43.7843 54.4577C43.7084 54.4854 43.6394 54.5269 43.5566 54.5408Z" fill="white"/>
<path fill-rule="evenodd" clip-rule="evenodd" d="M46.1367 53.4239C46.1367 53.4239 46.1367 53.3962 46.2057 53.3546C46.2264 53.3477 46.2402 53.3546 46.2402 53.3546L46.1367 53.417V53.4239Z" fill="white"/>
<path fill-rule="evenodd" clip-rule="evenodd" d="M47.0059 52.6355C47.1438 52.5108 47.468 52.2545 47.6336 52.0952C47.6543 52.0744 47.6474 52.0675 47.6887 52.0259C47.7853 51.929 48.0129 51.7212 47.7991 51.929C47.5508 52.1991 47.3301 52.3931 47.0059 52.6355Z" fill="white"/>
<path fill-rule="evenodd" clip-rule="evenodd" d="M47.2676 52.7518C47.2676 52.7518 47.3572 52.6687 47.4331 52.6133C47.4262 52.6341 47.3021 52.731 47.2676 52.7518Z" fill="white"/>
<path fill-rule="evenodd" clip-rule="evenodd" d="M47.0801 52.0755C47.1835 51.9785 47.2111 51.9508 47.2594 51.9023C47.2249 51.9439 47.1353 52.0478 47.0801 52.0755Z" fill="white"/>
<path fill-rule="evenodd" clip-rule="evenodd" d="M47.3906 52.5471C47.4458 52.4986 47.57 52.3808 47.6252 52.3116C47.6941 52.2631 47.4872 52.4847 47.3906 52.5471Z" fill="white"/>
<path fill-rule="evenodd" clip-rule="evenodd" d="M47.5508 52.5171C47.5853 52.4617 47.7163 52.344 47.806 52.2539C47.7577 52.3162 47.6336 52.434 47.5508 52.5171Z" fill="white"/>
<path fill-rule="evenodd" clip-rule="evenodd" d="M47.1914 51.8056C47.1914 51.8056 47.2673 51.7156 47.3156 51.6602C47.3156 51.6809 47.2328 51.7571 47.1914 51.8056Z" fill="white"/>
<path fill-rule="evenodd" clip-rule="evenodd" d="M47.3633 51.8119C47.4116 51.7357 47.6599 51.5348 47.7427 51.4102C47.6392 51.5695 47.5081 51.6595 47.3633 51.8119Z" fill="white"/>
<path fill-rule="evenodd" clip-rule="evenodd" d="M47.8457 52.2061C47.9354 52.0745 48.1285 51.9429 48.2044 51.832C48.1285 51.9636 47.9492 52.0745 47.8457 52.2061Z" fill="white"/>
<path fill-rule="evenodd" clip-rule="evenodd" d="M47.9707 51.7682C47.9983 51.7197 48.0604 51.6435 48.1087 51.5742C48.1363 51.5742 48.0328 51.692 47.9707 51.7682Z" fill="white"/>
<path fill-rule="evenodd" clip-rule="evenodd" d="M48.1641 51.605C48.1986 51.5427 48.2399 51.4942 48.3089 51.418C48.3089 51.4457 48.2054 51.5496 48.1641 51.605Z" fill="white"/>
<path fill-rule="evenodd" clip-rule="evenodd" d="M48.3711 51.4362C48.3711 51.4362 48.5159 51.2284 48.5091 51.2769C48.4677 51.3254 48.4677 51.3184 48.4608 51.3115C48.4125 51.3669 48.4263 51.3669 48.3711 51.4293V51.4362Z" fill="white"/>
<path fill-rule="evenodd" clip-rule="evenodd" d="M48.3778 50.7227C48.3295 50.8543 48.1915 51.0344 48.3778 50.7227Z" fill="white"/>
<path fill-rule="evenodd" clip-rule="evenodd" d="M48.3574 50.3859C48.4057 50.2405 48.4264 50.185 48.4609 50.0742C48.4402 50.1504 48.3919 50.3444 48.3574 50.3859Z" fill="white"/>
<path fill-rule="evenodd" clip-rule="evenodd" d="M48.3633 50.3005C48.3633 50.3005 48.3978 50.1411 48.3978 50.1827L48.3633 50.3005Z" fill="white"/>
<path fill-rule="evenodd" clip-rule="evenodd" d="M48.1836 49.9961C48.1836 49.9961 48.2043 49.8922 48.225 49.8438C48.225 49.8645 48.1974 49.9754 48.1836 49.9961Z" fill="white"/>
<path fill-rule="evenodd" clip-rule="evenodd" d="M48.3301 49.3926C48.3646 49.1432 48.3301 49.2125 48.3301 49.3926Z" fill="white"/>
<path fill-rule="evenodd" clip-rule="evenodd" d="M44.3691 53.3154C44.4105 53.2877 44.4726 53.26 44.4933 53.2392C44.583 53.2254 44.714 53.1353 44.8244 53.0938C44.7071 53.1838 44.5554 53.2254 44.3691 53.3154Z" fill="white"/>
<path fill-rule="evenodd" clip-rule="evenodd" d="M47.2746 52.0198C47.3228 51.9713 47.3228 51.9851 47.378 51.9297C47.3918 51.9297 47.3642 51.9574 47.3642 51.9644C47.4677 51.8605 47.5229 51.805 47.6056 51.7288C47.5987 51.7427 47.5919 51.7566 47.5919 51.7635C47.6953 51.6388 47.8471 51.528 48.0333 51.2578C47.8885 51.5418 47.3504 52.0129 47.1504 52.1999C47.178 52.1652 47.3573 52.0059 47.3642 51.9713C47.3642 51.9574 47.247 52.0752 47.2677 52.0267L47.2746 52.0198Z" fill="white"/>
<path fill-rule="evenodd" clip-rule="evenodd" d="M47.8123 52.1508C47.8123 52.1369 47.9089 52.0538 47.9227 52.0469C47.9089 52.0815 47.6123 52.3517 47.8192 52.1577L47.8123 52.1508Z" fill="white"/>
<path fill-rule="evenodd" clip-rule="evenodd" d="M48.9918 50.2871H49.0125C49.0401 50.204 49.0815 50.0862 49.116 49.9754C49.1505 49.8646 49.1505 49.7537 49.1712 49.6914C49.1988 49.9338 48.9642 50.3702 48.9573 50.5365C48.9435 50.5711 48.916 50.6404 48.8884 50.6681C48.6814 51.1599 48.3158 51.624 47.9434 52.0258C48.0192 51.9288 48.1572 51.7764 48.2814 51.6171C48.4055 51.4578 48.5573 51.3054 48.5987 51.1599C48.6262 51.1184 48.5987 51.1599 48.5849 51.1876C48.6952 50.9729 48.9573 50.6058 48.9918 50.2871Z" fill="white"/>
<path fill-rule="evenodd" clip-rule="evenodd" d="M48.3438 50.2337C48.3438 50.1922 48.3644 50.1298 48.3713 50.0883C48.3782 50.0675 48.3713 50.1922 48.3438 50.2337Z" fill="white"/>
<path fill-rule="evenodd" clip-rule="evenodd" d="M43.7629 45.0643C43.8595 45.099 44.0388 45.1682 44.1354 45.2029C44.4251 45.3137 44.6665 45.4522 44.9425 45.5908C45.1839 45.7085 45.4391 45.7916 45.6667 45.944C45.8254 46.0341 45.9082 46.0756 46.0254 46.1449C46.3772 46.3458 46.6117 46.5675 46.7842 46.6298C47.0256 46.7753 47.267 47.0108 47.4671 47.1493C47.4947 47.177 47.5361 47.2394 47.5498 47.2463C47.7568 47.4541 47.9775 47.5996 48.1155 47.8005C48.2051 47.9113 48.2879 48.0152 48.3707 48.1122C48.4397 48.2715 48.5086 48.41 48.5638 48.5347C48.6052 48.5832 48.6811 48.6109 48.7225 48.7287C48.7432 48.7772 48.7639 48.9018 48.7846 48.9365C48.8604 49.0819 48.9225 48.9365 49.0053 49.2274C49.026 49.2413 49.0191 49.1928 49.026 49.172C49.1501 49.1789 49.2398 49.0542 49.3433 49.1235C49.3778 48.8949 49.4468 48.9434 49.4812 48.7495C49.5019 48.6317 49.5157 48.4031 49.4812 48.2576C49.4605 48.0775 49.4468 47.939 49.4192 47.752C49.4605 47.7381 49.3847 47.5303 49.3847 47.4818C49.2743 47.2394 49.2122 47.0385 49.0812 46.7961C49.0812 46.7683 49.0398 46.7129 49.0536 46.6991C48.9018 46.4636 48.7639 46.1934 48.5707 45.951C48.3707 45.7224 48.1569 45.4453 47.8671 45.2098C47.812 45.1613 47.6947 45.0712 47.6326 45.0228C47.1981 44.6556 46.4738 44.24 46.2531 44.0461C46.1703 43.9976 46.1634 44.0114 46.0806 43.9629C46.0392 43.9144 45.7978 43.7413 45.5771 43.6304C45.5012 43.5889 45.3563 43.5473 45.177 43.485C44.9149 43.3811 44.6941 43.2425 44.4596 43.1525C44.3492 43.1109 44.232 43.0901 44.1147 43.0624C43.8181 42.9793 43.2318 42.7507 42.9835 42.6676C42.7903 42.6052 42.7214 42.5637 42.5765 42.5221C42.4385 42.4875 42.3351 42.4875 42.3351 42.5221C41.935 42.4806 40.9486 42.1966 40.3416 42.1134C39.907 42.0095 39.4794 41.9818 39.0517 41.9126C38.9827 41.8987 38.8517 41.8779 38.7758 41.871C38.6585 41.8641 38.4171 41.8433 38.2447 41.8294C37.9274 41.8017 37.6445 41.7602 37.3824 41.7602C36.9824 41.684 36.6789 41.7186 36.334 41.6909C36.2029 41.677 36.0787 41.6632 35.9408 41.6563C35.8373 41.6563 35.6787 41.6563 35.5683 41.6563C35.4579 41.6493 35.2717 41.6355 35.1682 41.6285C35.0855 41.6285 34.9889 41.6285 34.9199 41.6285C34.8164 41.6285 34.7544 41.6078 34.644 41.6147C34.5681 41.6216 34.3819 41.6424 34.2991 41.6493C33.8783 41.6701 33.43 41.6493 33.0368 41.7117C32.3194 41.7325 31.7055 41.8086 30.8571 41.8918C30.6501 41.9264 30.4984 41.9541 30.2777 41.968C30.2294 41.9749 30.2294 41.9887 30.1535 42.0026C29.7189 42.0649 29.2637 42.1758 28.8153 42.245C28.8015 42.252 28.7808 42.2658 28.7532 42.2728C28.1324 42.3836 27.353 42.5568 26.8908 42.7299C26.5114 42.7992 26.0907 42.9654 25.6492 43.1317C25.4423 43.2079 25.2215 43.2564 25.0284 43.3464C24.6559 43.5265 24.1455 43.6997 23.7937 43.9006C23.7178 43.9491 23.5661 44.0322 23.4902 44.0807C23.3039 44.1777 23.0901 44.2677 22.9039 44.3993C22.152 44.8496 21.3381 45.4938 20.7793 46.0757C20.6207 46.2696 20.4965 46.4566 20.3241 46.6852C20.0758 47.087 19.7792 47.5095 19.655 48.0013C19.6274 48.1052 19.586 48.2576 19.5584 48.3546C19.5239 48.6594 19.4688 48.9503 19.4688 49.269C19.5032 50.0656 19.7723 50.8206 20.1309 51.4163C20.6138 52.1783 21.5243 53.0442 22.3176 53.5775C22.5176 53.6676 22.6762 53.7923 22.8625 53.91C23.4488 54.2564 24.2352 54.6027 24.8767 54.8867C27.6151 55.9396 30.6157 56.4453 33.4576 56.5076C33.6783 56.5353 34.0232 56.5284 34.2232 56.5215C34.2646 56.5353 34.3957 56.5353 34.4922 56.5423C34.8509 56.5146 35.2993 56.5215 35.7476 56.5076C35.858 56.473 36.1339 56.4938 36.2995 56.4592C36.3753 56.473 36.2029 56.4799 36.3271 56.4799C36.6168 56.3899 37.5963 56.376 38.0377 56.2929C38.0101 56.2929 38.0032 56.2929 38.0377 56.286C38.1481 56.286 38.1895 56.2513 38.3136 56.2375C39.1138 56.1474 39.6656 55.9743 40.3347 55.8427C40.4244 55.8427 40.652 55.808 40.721 55.7734C40.5968 55.7942 40.4451 55.8357 40.452 55.808C40.652 55.7734 40.9141 55.7041 41.0452 55.6556C41.2935 55.6002 41.4246 55.5794 41.6384 55.5171C41.6936 55.5032 41.5832 55.5032 41.6936 55.4755C42.0799 55.3647 42.1626 55.3439 42.5144 55.2469C42.5972 55.1984 42.9559 55.0945 43.0663 55.0599C43.1628 55.0183 42.949 55.0807 43.0318 55.0461C43.3008 54.9422 43.5491 54.8452 43.8112 54.7759C43.8664 54.7413 43.9078 54.7136 44.0044 54.6789C44.0733 54.6512 43.9906 54.7066 44.094 54.6581C44.1837 54.6027 44.0113 54.6651 44.0319 54.6443C44.163 54.5819 44.1285 54.5819 44.1906 54.5404C44.3837 54.478 44.4941 54.3949 44.6597 54.3187C44.8321 54.2356 45.0252 54.1663 45.1839 54.0763C45.3218 54.0001 45.3701 53.9516 45.5288 53.8754C45.6598 53.8131 45.7702 53.7715 45.9151 53.6953C45.984 53.6537 45.8599 53.7092 45.9633 53.6468C46.4393 53.349 46.9083 53.0511 47.205 52.7602C46.7359 53.1896 46.3082 53.3767 45.853 53.6953C45.7702 53.7161 45.6391 53.82 45.5495 53.8338C45.5219 53.8615 45.6391 53.8131 45.5288 53.8685C45.4943 53.8823 45.4736 53.8893 45.4184 53.917C45.4736 53.8546 45.3701 53.917 45.3218 53.917C44.908 54.1456 44.57 54.2772 44.1975 54.4365C44.1285 54.4711 44.2527 54.4365 44.1768 54.4711C44.0388 54.5335 43.9285 54.5819 43.756 54.6443C43.7009 54.6443 43.5767 54.672 43.6319 54.6304C43.894 54.5473 44.1837 54.4088 44.4872 54.2702C44.7976 54.1386 45.108 53.9793 45.3908 53.8269C45.5633 53.7369 45.7564 53.6607 45.8392 53.5845C45.584 53.723 45.3632 53.7992 45.1356 53.91C44.8459 54.0624 44.5286 54.2079 44.232 54.3326C44.163 54.3534 44.094 54.3811 44.0388 54.4018C43.9837 54.4296 43.8871 54.485 43.8181 54.5058C43.7422 54.5335 43.7353 54.5196 43.6733 54.5473C43.5422 54.5958 43.4525 54.6443 43.3077 54.6928C43.0663 54.769 42.8317 54.8452 42.5627 54.9214C42.5144 54.9214 42.5282 54.9006 42.5903 54.8798C42.9076 54.7967 42.9559 54.762 43.2732 54.6512C43.2387 54.6581 43.2111 54.6651 43.2111 54.6512C43.3077 54.6166 43.3491 54.6097 43.4111 54.575C43.1766 54.6581 43.1835 54.6166 43.2594 54.575C43.8526 54.3949 44.5355 54.0763 45.0045 53.8754C45.0528 53.8408 45.0735 53.8131 45.1563 53.7646C45.6667 53.5083 46.2186 53.1966 46.7152 52.8433C46.3703 53.0511 46.1013 53.2173 45.8047 53.4044C45.4736 53.5706 45.1425 53.7646 44.7769 53.9377C44.7493 53.9447 44.7631 53.9239 44.6941 53.9585C44.3837 54.104 44.0113 54.2633 43.7629 54.3603C43.6457 54.3741 43.5353 54.3949 43.4111 54.4088C42.6179 54.7136 41.9971 54.7898 41.2107 54.9837C41.2107 54.9699 41.1486 54.9837 41.1211 54.9699C41.1831 54.9421 41.2176 54.9214 41.2935 54.8937C41.4108 54.866 41.4797 54.8452 41.666 54.8036C42.3075 54.5889 43.2456 54.3395 44.0113 53.9932C44.094 53.9308 44.0113 53.9447 43.9423 53.9516C43.5698 54.0971 43.2249 54.2287 42.811 54.3464C42.6455 54.3464 42.7903 54.2495 43.0938 54.1386C43.6112 53.9724 44.4734 53.6052 44.7907 53.4667C45.4874 53.0996 46.1841 52.7255 46.7773 52.2337C47.1015 52.012 47.3429 51.728 47.6188 51.4648C47.8465 51.167 48.0879 50.883 48.2327 50.5505C47.8534 51.257 47.3015 51.8597 46.6531 52.303C46.66 52.303 46.6393 52.3307 46.591 52.3653C46.2944 52.6078 45.9151 52.7948 45.584 53.0165C45.2253 53.1966 44.8804 53.3905 44.57 53.5429C44.2803 53.6191 43.7905 53.8962 43.4939 53.9516C43.5491 53.8754 43.7629 53.7646 44.0388 53.633C43.756 53.7646 43.4801 53.8477 43.2318 53.9239C43.0318 53.9932 42.68 54.1317 42.5765 54.1525C42.5489 54.1525 42.5972 54.1317 42.5489 54.1456C42.6317 54.1248 42.3972 54.194 42.3834 54.194C42.273 54.2356 42.2937 54.2287 42.1626 54.2633C41.9902 54.3118 41.9902 54.3049 41.8798 54.3257C41.2866 54.4988 40.7003 54.6166 40.1002 54.7413C40.0312 54.7551 39.9139 54.769 39.9001 54.7759C39.845 54.7759 39.8863 54.762 39.8105 54.7759C39.7691 54.7759 39.7898 54.7898 39.7277 54.8036C39.4863 54.8452 39.2173 54.8867 38.9827 54.9214C38.3826 54.9976 37.679 55.0876 37.1824 55.1153C37.072 55.1153 37.2169 55.0945 37.0651 55.1015C36.2167 55.1638 35.32 55.1777 34.4095 55.1707C34.3405 55.1707 34.3957 55.15 34.2922 55.15C34.168 55.15 34.1956 55.1707 34.0853 55.1638C34.0163 55.1569 33.9542 55.15 33.9128 55.1361C32.8712 55.1015 31.8021 55.0253 30.7398 54.9006C30.2432 54.8452 29.7534 54.7482 29.2706 54.672C28.7877 54.5681 28.3187 54.4711 27.8565 54.3603C27.5047 54.2633 27.1529 54.1663 26.808 54.0763C26.477 53.9585 26.1665 53.8546 25.8424 53.7369C25.4285 53.5845 25.0491 53.4251 24.6835 53.2658C24.3317 53.0788 23.9661 52.9264 23.6281 52.7047C23.1246 52.4138 22.6211 52.0259 22.2762 51.7211C22.2279 51.6796 22.1313 51.5895 22.0761 51.541C21.9727 51.444 21.8761 51.3401 21.8002 51.2293C21.6899 51.0908 21.5726 50.9453 21.4553 50.7998C21.3657 50.6405 21.276 50.4881 21.1932 50.3427C21.1173 50.1695 21.0759 49.9894 21.0139 49.8162C20.9794 49.6361 20.9794 49.4629 20.9518 49.2828C20.9656 49.0819 20.9725 48.888 21.0001 48.6871C21.0484 48.5555 21.1035 48.4239 21.1449 48.2853C21.207 48.0914 21.3381 47.9182 21.4208 47.7312C21.5243 47.5511 21.6761 47.3848 21.8002 47.2186C21.9796 47.0039 22.2141 46.8238 22.4141 46.616C22.6418 46.4359 22.8556 46.2765 23.1177 46.0687C23.6833 45.7155 24.4007 45.3137 25.0008 45.0505C25.256 44.9673 25.5044 44.8565 25.7596 44.7457C26.0286 44.6487 26.2976 44.5517 26.5873 44.4478C26.6287 44.434 26.7046 44.4132 26.7529 44.3993C27.6358 44.1569 28.6222 43.866 29.3671 43.7482C29.6431 43.672 29.8845 43.6651 30.1397 43.6235C30.4156 43.575 30.6777 43.5335 30.9468 43.4988C31.0226 43.4988 31.133 43.485 31.2089 43.478C31.4848 43.4573 31.7469 43.388 32.0504 43.3741C32.485 43.3534 32.8712 43.3326 33.5058 43.2979C33.9059 43.3118 34.506 43.2979 34.9682 43.2979C35.3545 43.3257 35.7476 43.3326 36.1408 43.3395C36.534 43.3603 36.9272 43.388 37.3273 43.4226C37.5963 43.4434 37.8377 43.5127 38.1067 43.5127C38.3826 43.575 38.7206 43.5889 39.0586 43.6512C39.369 43.7136 39.7484 43.7828 40.0795 43.8521C40.5692 43.9699 41.1831 44.0738 41.528 44.2262C41.6591 44.3855 42.0247 44.3093 42.3972 44.4409C42.5972 44.5171 42.5558 44.5517 42.6248 44.6141C42.7972 44.6903 42.9628 44.7387 43.1352 44.7872C43.3284 44.8704 43.4663 44.9535 43.7146 45.0712L43.7629 45.0643ZM43.0869 54.9491C43.0869 54.9491 43.0938 54.9491 43.1145 54.9491C43.0594 54.9906 42.9145 55.0045 43.0869 54.9491ZM43.1421 54.9214C43.3767 54.8382 43.7078 54.6997 43.8871 54.6581C43.9354 54.6443 43.8388 54.6443 43.9078 54.6166C44.0182 54.5958 44.1354 54.5473 44.3079 54.478C44.3355 54.5127 43.9837 54.6374 43.9837 54.672C43.8457 54.7136 43.7836 54.7343 43.7284 54.7759C43.4456 54.859 43.3973 54.9006 43.1835 54.9629C43.2318 54.9214 43.1421 54.9629 43.149 54.9283L43.1421 54.9214Z" fill="white"/>
<path fill-rule="evenodd" clip-rule="evenodd" d="M38.5898 55.3667C38.6381 55.3528 38.714 55.3459 38.8106 55.332C38.7899 55.3459 38.6657 55.3667 38.5898 55.3667Z" fill="white"/>
<path fill-rule="evenodd" clip-rule="evenodd" d="M42.1562 56.2108C42.2252 56.1901 42.4322 56.1277 42.4184 56.1554C42.3011 56.1831 42.2459 56.1901 42.1562 56.2108Z" fill="white"/>
<path fill-rule="evenodd" clip-rule="evenodd" d="M42.5293 56.16C42.5293 56.16 42.7086 56.1184 42.7914 56.0977C42.7914 56.1115 42.5845 56.1531 42.5293 56.16Z" fill="white"/>
<path fill-rule="evenodd" clip-rule="evenodd" d="M43.5156 55.7168C43.5639 55.696 43.7019 55.6476 43.7708 55.6406C43.757 55.6545 43.5915 55.6891 43.5156 55.7168Z" fill="white"/>
<path fill-rule="evenodd" clip-rule="evenodd" d="M44.0391 55.8026C44.1218 55.768 44.2736 55.7195 44.4805 55.6641C44.4115 55.6987 44.1977 55.7541 44.0391 55.8026Z" fill="white"/>
<path fill-rule="evenodd" clip-rule="evenodd" d="M44.9707 54.3795C45.1776 54.3033 45.6053 54.1371 45.764 54.1094C45.5018 54.1856 45.2121 54.3103 44.9707 54.3795Z" fill="white"/>
<path fill-rule="evenodd" clip-rule="evenodd" d="M45.6944 54.6395C45.9565 54.5287 46.4394 54.3694 46.7636 54.2031C46.8187 54.2031 46.2738 54.4109 46.1841 54.4733C46.1014 54.5079 46.0393 54.5218 45.9703 54.5356C45.8737 54.5703 45.791 54.6187 45.6875 54.6395H45.6944Z" fill="white"/>
<path fill-rule="evenodd" clip-rule="evenodd" d="M48.8887 53.2365C48.8887 53.2365 48.8887 53.2088 48.9783 53.1603C49.0059 53.1465 49.0128 53.1534 49.0197 53.1603L48.8956 53.2365H48.8887Z" fill="white"/>
<path fill-rule="evenodd" clip-rule="evenodd" d="M49.9922 52.2967C50.1646 52.1443 50.5716 51.8257 50.7716 51.6248C50.7992 51.5971 50.7923 51.5902 50.8475 51.5417C50.9717 51.4239 51.2476 51.1607 50.9855 51.417C50.6682 51.7495 50.3992 51.9919 49.9922 52.2967Z" fill="white"/>
<path fill-rule="evenodd" clip-rule="evenodd" d="M50.2812 52.385C50.3226 52.3434 50.3916 52.288 50.4882 52.2188C50.4744 52.2465 50.3226 52.3642 50.2812 52.385Z" fill="white"/>
<path fill-rule="evenodd" clip-rule="evenodd" d="M50.1504 51.6679C50.2608 51.564 50.3159 51.5155 50.378 51.4531C50.3297 51.5016 50.2194 51.6332 50.1504 51.6679Z" fill="white"/>
<path fill-rule="evenodd" clip-rule="evenodd" d="M50.4551 52.1516C50.5241 52.0892 50.6758 51.9507 50.7517 51.8606C50.8345 51.7983 50.5792 52.0754 50.4551 52.1516Z" fill="white"/>
<path fill-rule="evenodd" clip-rule="evenodd" d="M50.6348 52.0951C50.6762 52.0328 50.8417 51.8804 50.9521 51.7695C50.89 51.8457 50.7382 51.9912 50.6348 52.0951Z" fill="white"/>
<path fill-rule="evenodd" clip-rule="evenodd" d="M50.3164 51.355C50.3164 51.355 50.413 51.2442 50.482 51.168C50.482 51.1957 50.3785 51.2857 50.3164 51.355Z" fill="white"/>
<path fill-rule="evenodd" clip-rule="evenodd" d="M50.5098 51.3347C50.5718 51.2377 50.8822 50.9883 50.9926 50.8359C50.8547 51.0368 50.696 51.1477 50.5098 51.3347Z" fill="white"/>
<path fill-rule="evenodd" clip-rule="evenodd" d="M51.0059 51.7141C51.1231 51.5548 51.3577 51.3885 51.4542 51.25C51.3645 51.4093 51.1369 51.5548 51.0059 51.7141Z" fill="white"/>
<path fill-rule="evenodd" clip-rule="evenodd" d="M51.1934 51.2151C51.2347 51.1528 51.3037 51.0558 51.3658 50.9727C51.3934 50.9727 51.2692 51.1181 51.1934 51.2151Z" fill="white"/>
<path fill-rule="evenodd" clip-rule="evenodd" d="M51.4336 50.9933C51.475 50.9171 51.5302 50.8617 51.6129 50.7578C51.606 50.7855 51.4888 50.9241 51.4336 50.9933Z" fill="white"/>
<path fill-rule="evenodd" clip-rule="evenodd" d="M51.6758 50.7776C51.6896 50.736 51.862 50.5144 51.8413 50.5836C51.793 50.646 51.793 50.6321 51.7861 50.6321C51.731 50.7014 51.7448 50.7014 51.6758 50.7845V50.7776Z" fill="white"/>
<path fill-rule="evenodd" clip-rule="evenodd" d="M51.7718 49.9414C51.7097 50.1007 51.5373 50.3432 51.7718 49.9414Z" fill="white"/>
<path fill-rule="evenodd" clip-rule="evenodd" d="M51.7852 49.5307C51.8334 49.406 51.861 49.2744 51.9162 49.1289C51.8886 49.2259 51.8265 49.4753 51.7852 49.5307Z" fill="white"/>
<path fill-rule="evenodd" clip-rule="evenodd" d="M51.799 49.4302C51.7714 49.4648 51.8473 49.2224 51.8473 49.2778L51.799 49.4302Z" fill="white"/>
<path fill-rule="evenodd" clip-rule="evenodd" d="M51.6406 49.0564C51.6406 49.0148 51.6682 48.9247 51.6958 48.8555C51.6958 48.8762 51.6544 49.0286 51.6406 49.0564Z" fill="white"/>
<path fill-rule="evenodd" clip-rule="evenodd" d="M51.8262 48.2571C51.8676 47.9315 51.8331 48.0147 51.8262 48.2571Z" fill="white"/>
<path fill-rule="evenodd" clip-rule="evenodd" d="M46.7921 53.2927C46.8403 53.265 46.9162 53.2304 46.9507 53.2027C47.0611 53.1819 47.2335 53.071 47.3646 53.0156C47.2128 53.1195 47.0335 53.1819 46.7852 53.2927H46.7921Z" fill="white"/>
<path fill-rule="evenodd" clip-rule="evenodd" d="M50.3784 51.5822C50.4405 51.5198 50.4405 51.5337 50.5095 51.4644C50.5233 51.4644 50.4888 51.4921 50.4888 51.499C50.6199 51.3674 50.6888 51.3051 50.7923 51.2012C50.7785 51.215 50.7716 51.2358 50.7716 51.2358C50.9096 51.0834 51.0889 50.938 51.3303 50.6055C51.1372 50.9587 50.475 51.5545 50.2129 51.79C50.2474 51.7484 50.475 51.5406 50.4888 51.506C50.4888 51.4852 50.344 51.6376 50.3715 51.5822H50.3784Z" fill="white"/>
<path fill-rule="evenodd" clip-rule="evenodd" d="M50.9719 51.659C50.9719 51.6451 51.0892 51.5412 51.1099 51.5273C51.0892 51.5689 50.7236 51.9083 50.9788 51.659H50.9719Z" fill="white"/>
<path fill-rule="evenodd" clip-rule="evenodd" d="M52.4483 49.3467H52.469C52.5035 49.2427 52.5518 49.0973 52.6001 48.9587C52.6415 48.8202 52.6415 48.6817 52.6622 48.6055C52.6898 48.9033 52.4139 49.4506 52.3932 49.6584C52.3794 49.7069 52.338 49.783 52.3104 49.8246C52.0414 50.4342 51.5999 51.0091 51.1309 51.5079C51.2274 51.3901 51.3999 51.2031 51.5516 51.0022C51.7034 50.8013 51.8965 50.6074 51.9517 50.4411C51.9793 50.3926 51.9517 50.4411 51.9379 50.4757C52.069 50.2056 52.3932 49.7553 52.4483 49.3605V49.3467Z" fill="white"/>
<path fill-rule="evenodd" clip-rule="evenodd" d="M51.7852 49.3456C51.799 49.2694 51.8127 49.2278 51.8265 49.1516C51.8334 49.1239 51.8196 49.2833 51.7852 49.3456Z" fill="white"/>
<path fill-rule="evenodd" clip-rule="evenodd" d="M46.0398 42.6402C46.164 42.6887 46.3709 42.7649 46.5089 42.8203C46.8745 42.9658 47.178 43.1321 47.5229 43.3052C47.8333 43.4576 48.1437 43.5685 48.4334 43.7624C48.6403 43.8802 48.7369 43.9356 48.8886 44.0256C49.337 44.2819 49.6267 44.5659 49.8474 44.6491C50.144 44.843 50.4545 45.1478 50.7028 45.3348C50.7373 45.3695 50.7924 45.4457 50.8062 45.4595C51.0615 45.7366 51.3305 45.9306 51.5029 46.2007C51.6133 46.3462 51.7168 46.4847 51.8133 46.6163C51.8961 46.8172 51.9789 46.9973 52.0479 47.1635C52.0961 47.2328 52.172 47.2675 52.2203 47.4129C52.241 47.4753 52.2686 47.6346 52.2893 47.6831C52.3721 47.8632 52.4341 47.6831 52.5169 48.0502C52.5376 48.071 52.5307 48.0017 52.5376 47.9879C52.6618 48.0017 52.7514 47.8424 52.8549 47.9324C52.8825 47.6554 52.9515 47.7108 52.986 47.4822C53.0067 47.3367 53.0136 47.0596 52.9653 46.8865C52.9308 46.6717 52.9032 46.4986 52.8756 46.2838C52.917 46.263 52.8204 46.0206 52.8135 45.9652C52.6756 45.6743 52.5928 45.4318 52.4341 45.1409C52.4272 45.1062 52.3858 45.0439 52.3927 45.03C52.1996 44.746 52.0341 44.4274 51.7926 44.1434C51.5443 43.8732 51.2822 43.5408 50.9304 43.2498C50.8614 43.1944 50.7235 43.0836 50.6476 43.0212C50.3786 42.8065 50.0337 42.5502 49.7095 42.3493C49.3853 42.1415 49.1025 41.9337 48.9576 41.8367C48.8473 41.7813 48.8542 41.7882 48.7438 41.7328C48.6886 41.6774 48.392 41.4765 48.1161 41.338C48.0195 41.2895 47.8471 41.2341 47.6332 41.151C47.3159 41.0263 47.0331 40.86 46.7503 40.7492C46.6193 40.6938 46.4744 40.6661 46.3295 40.6245C45.964 40.5206 45.2397 40.2435 44.9362 40.1465C44.6948 40.0703 44.612 40.0219 44.4326 39.9734C44.2671 39.9318 44.136 39.918 44.1429 39.9595C43.6532 39.8902 42.4392 39.5578 41.6942 39.44C41.1562 39.3222 40.625 39.2738 40.1077 39.1906C40.018 39.1768 39.8663 39.156 39.7697 39.1421C39.6179 39.1283 39.3351 39.1075 39.1213 39.0867C38.7281 39.0521 38.3832 39.0036 38.0521 38.9967C37.5555 38.9135 37.183 38.9413 36.7622 38.9135C36.6036 38.8997 36.4518 38.8858 36.2725 38.8789C36.1414 38.8789 35.9621 38.8789 35.8103 38.8789C35.6724 38.872 35.4517 38.8581 35.3206 38.8512C35.2171 38.8512 35.0999 38.8512 35.0171 38.8512C34.8929 38.8512 34.8102 38.8304 34.6791 38.8374C34.5756 38.8443 34.3618 38.8651 34.2583 38.872C33.741 38.8928 33.1823 38.872 32.6994 38.9413C31.8165 38.9759 31.0508 39.059 30.0093 39.1698C29.754 39.2114 29.5609 39.2391 29.2919 39.2668C29.2298 39.2807 29.2367 39.2945 29.1401 39.3084C28.6021 39.3846 28.0434 39.5162 27.4847 39.6062C27.464 39.6132 27.4433 39.627 27.4088 39.6409C26.6431 39.7794 25.6843 39.9942 25.1118 40.2089C24.6427 40.3059 24.1254 40.4998 23.5805 40.7007C23.3184 40.7977 23.0562 40.86 22.8217 40.9709C22.3596 41.1856 21.7319 41.4003 21.3042 41.6497C21.2007 41.712 21.0283 41.8021 20.9248 41.8644C20.6972 41.9891 20.4351 42.093 20.2074 42.2593C19.2831 42.8065 18.2898 43.5962 17.6069 44.3027C17.4138 44.5452 17.2621 44.7599 17.0551 45.037C16.8758 45.2586 16.7516 45.5426 16.5999 45.792C16.4343 46.0414 16.3446 46.3392 16.255 46.6232C16.2205 46.7479 16.1722 46.928 16.1377 47.0458C16.0963 47.406 16.0342 47.7523 16.0273 48.1402C16.0825 48.6113 16.1032 49.0892 16.2826 49.5118C16.3653 49.7265 16.4136 49.9551 16.5171 50.1491C16.6137 50.3361 16.7171 50.5231 16.8206 50.724C17.4 51.6522 18.5037 52.7051 19.4832 53.3562C19.7246 53.474 19.9177 53.6264 20.1523 53.7649C20.8696 54.1944 21.8353 54.6239 22.6217 54.9633C25.9947 56.2725 29.7058 56.8959 33.2237 56.979C33.4996 57.0067 33.9272 56.9998 34.1687 56.9929C34.2238 57.0067 34.3825 57.0067 34.5067 57.0137C35.1757 56.9929 35.5206 56.986 36.0587 56.9721C36.1966 56.9306 36.5346 56.9583 36.7416 56.9167C36.8312 56.9306 36.6243 56.9375 36.776 56.9375C37.1347 56.8405 38.3487 56.8197 38.8868 56.7158C38.8523 56.7158 38.8385 56.7158 38.8868 56.7089C39.0178 56.7089 39.0799 56.6743 39.2248 56.6535C40.2112 56.5496 40.9009 56.3418 41.7287 56.1894C41.8322 56.1894 42.115 56.1409 42.2046 56.0993C42.0529 56.127 41.8666 56.1755 41.8735 56.1478C42.1219 56.0993 42.4461 56.0162 42.6116 55.9608C42.9151 55.8915 43.0807 55.8707 43.3497 55.7876C43.4187 55.7738 43.2807 55.7807 43.4187 55.746C43.8808 55.6144 44.0188 55.5798 44.4326 55.462C44.5361 55.4066 44.9776 55.2819 45.1155 55.2334C45.2328 55.185 44.9776 55.2612 45.0741 55.2196C45.4121 55.0949 45.7225 54.9772 46.0329 54.8802C46.1088 54.8455 46.1502 54.8109 46.2744 54.7624C46.3571 54.7278 46.2606 54.7901 46.3847 54.7347C46.4951 54.6724 46.2882 54.7486 46.3089 54.7209C46.4675 54.6447 46.433 54.6447 46.5089 54.5962C46.7434 54.513 46.8883 54.423 47.0952 54.326C47.3021 54.229 47.5505 54.139 47.7436 54.0212C47.916 53.9243 47.9781 53.8758 48.1713 53.7788C48.3092 53.7164 48.4886 53.6264 48.6472 53.5571C48.7369 53.5017 48.5782 53.5779 48.7093 53.5017C49.2956 53.1346 49.8819 52.7675 50.2544 52.4142C49.6681 52.9406 49.137 53.1831 48.5713 53.5641C48.4679 53.5918 48.3023 53.7164 48.1989 53.7372C48.1644 53.7719 48.3092 53.7026 48.1713 53.7719C48.123 53.7926 48.1023 53.7996 48.0333 53.8342C48.1092 53.7649 47.9781 53.8342 47.9229 53.8342C47.4125 54.1182 46.9848 54.2775 46.5296 54.4784C46.4468 54.52 46.5917 54.4646 46.502 54.513C46.3295 54.5962 46.1916 54.6447 45.9778 54.7278C45.9088 54.7278 45.7639 54.7693 45.826 54.7278C46.1502 54.6308 46.5089 54.4576 46.8883 54.2845C47.0814 54.2013 47.2746 54.1113 47.4608 54.0282C47.6539 53.9243 47.8333 53.8342 48.0057 53.7372C48.2196 53.6264 48.4541 53.5294 48.5644 53.4324C48.2471 53.6056 47.9712 53.7095 47.6953 53.8481C47.3366 54.042 46.9366 54.2083 46.5779 54.3676C46.4882 54.4022 46.4123 54.4299 46.3364 54.4576C46.2675 54.4923 46.1433 54.5546 46.0605 54.5823C45.9709 54.61 45.9571 54.6031 45.8812 54.6308C45.7225 54.6862 45.6053 54.7486 45.4259 54.8109C45.1293 54.9079 44.8327 55.0049 44.5016 55.1018C44.4395 55.1088 44.4602 55.0811 44.5361 55.0533C44.9293 54.9494 44.9914 54.901 45.3845 54.7693C45.3432 54.7832 45.3087 54.7901 45.3156 54.7763C45.4397 54.7347 45.4811 54.7278 45.5639 54.6862C45.2742 54.7901 45.288 54.7416 45.3776 54.6862C46.1088 54.4576 46.9641 54.0628 47.5436 53.8204C47.5987 53.7788 47.6332 53.7442 47.7367 53.6887C48.3713 53.3701 49.0611 52.9822 49.675 52.5458C49.3163 52.7813 48.93 52.996 48.5438 53.2454C48.1368 53.4532 47.716 53.6887 47.2677 53.9035C47.2332 53.9173 47.2539 53.8896 47.1642 53.9312C46.771 54.1044 46.3158 54.3122 46.0053 54.4299C45.8674 54.4576 45.7225 54.4853 45.5777 54.5061C44.5913 54.8802 43.8187 54.9979 42.8461 55.2404C42.8461 55.2265 42.7703 55.2404 42.7358 55.2404C42.8116 55.2127 42.8599 55.185 42.9496 55.1503C43.1014 55.1157 43.2048 55.088 43.4118 55.0395C43.8118 54.901 44.3085 54.7693 44.8189 54.6031C45.3225 54.4161 45.8674 54.2637 46.3364 54.042C46.4468 53.9727 46.3433 53.9935 46.2537 54.0074C45.7846 54.1944 45.3569 54.3537 44.8465 54.5061C44.6465 54.5061 44.8258 54.4091 45.2121 54.2706C45.8605 54.0628 46.9366 53.6056 47.3366 53.4324C48.2058 52.9753 49.0818 52.5042 49.8268 51.8877C50.2268 51.6107 50.5441 51.2505 50.8959 50.918C51.1856 50.5439 51.496 50.1768 51.6823 49.7542C51.1994 50.6617 50.4889 51.4167 49.6819 51.9778C49.6888 51.9778 49.6681 52.0124 49.606 52.054C49.2335 52.3657 48.7576 52.5943 48.3437 52.8783C47.8954 53.1069 47.4677 53.3493 47.0745 53.5363C46.7227 53.6402 46.095 53.9727 45.7294 54.0559C45.7984 53.9797 46.0743 53.8411 46.4192 53.6749C46.0674 53.8342 45.7156 53.945 45.4052 54.042C45.15 54.1251 44.7155 54.2983 44.5844 54.326C44.5499 54.326 44.612 54.3052 44.5499 54.326C44.6534 54.2983 44.3637 54.3814 44.343 54.3884C44.205 54.4368 44.2326 54.4299 44.0671 54.4784C43.8532 54.5338 43.8532 54.5338 43.7153 54.5615C42.9772 54.7832 42.2391 54.9287 41.4873 55.088C41.4045 55.1018 41.2527 55.1295 41.2389 55.1295C41.1631 55.1365 41.2251 55.1157 41.1286 55.1295C41.0734 55.1365 41.101 55.1434 41.0182 55.1573C40.7147 55.2057 40.3767 55.2612 40.087 55.3096C39.342 55.3997 38.4591 55.5175 37.8383 55.5521C37.7003 55.5521 37.8797 55.5313 37.6935 55.5382C36.6381 55.6144 35.5137 55.6352 34.3825 55.6283C34.2997 55.6283 34.3687 55.6075 34.2376 55.6075C34.079 55.6006 34.1204 55.6283 33.9755 55.6214C33.8858 55.6144 33.81 55.6006 33.7617 55.5937C32.4649 55.559 31.1336 55.4551 29.8023 55.2958C29.1815 55.2265 28.5745 55.1018 27.9675 55.0049C27.3674 54.8802 26.7742 54.7486 26.2017 54.61C25.7602 54.4923 25.3187 54.3676 24.8911 54.2498C24.4772 54.1044 24.084 53.9658 23.6839 53.8273C23.1666 53.6333 22.6907 53.4324 22.2354 53.2316C21.8008 52.996 21.3318 52.809 20.911 52.525C20.2764 52.1579 19.6418 51.673 19.2003 51.2782C19.1314 51.2158 19.021 51.1188 18.9451 51.0496C18.8141 50.9249 18.6899 50.7933 18.5933 50.6478C18.4485 50.4677 18.3036 50.2807 18.1519 50.0936C18.0346 49.8858 17.9242 49.6919 17.8139 49.4979C17.7104 49.2693 17.6621 49.0338 17.5794 48.8052C17.5311 48.5697 17.5311 48.3411 17.4966 48.1056C17.5104 47.8424 17.5242 47.5861 17.5656 47.3159C17.6207 47.1428 17.6966 46.9696 17.7518 46.7964C17.8346 46.5471 18.0001 46.3185 18.1105 46.076C18.2484 45.8405 18.4416 45.6327 18.5933 45.4249C18.821 45.1478 19.1176 44.9192 19.3728 44.656C19.6694 44.4274 19.9453 44.2127 20.2695 43.9633C20.98 43.513 21.8836 43.0143 22.6355 42.6818C22.9528 42.571 23.2632 42.4324 23.5874 42.3008C23.9185 42.1831 24.2634 42.0584 24.6221 41.9337C24.6841 41.9129 24.76 41.8921 24.829 41.8714C25.4222 41.7051 25.9671 41.5527 26.5259 41.4003C27.0915 41.2756 27.6295 41.1302 28.0986 41.0609C28.4435 40.9778 28.7401 40.957 29.0643 40.9016C29.4091 40.8392 29.7333 40.7908 30.0713 40.7492C30.1679 40.7423 30.299 40.7284 30.3955 40.7215C30.7404 40.6938 31.0715 40.6176 31.4509 40.5899C32.0027 40.5622 32.5201 40.5275 33.2719 40.486C33.7755 40.4998 34.5204 40.486 35.093 40.479C35.5758 40.5067 36.0656 40.5206 36.5553 40.5275C37.0451 40.5622 37.5279 40.5968 38.0383 40.6314C38.3763 40.6522 38.6729 40.7353 39.0109 40.7423C39.3558 40.8185 39.7766 40.8323 40.1974 40.9085C40.5974 40.9847 41.0527 41.0678 41.4735 41.151C42.0805 41.2895 42.853 41.435 43.2876 41.6081C43.46 41.7744 43.9015 41.7259 44.3775 41.8852C44.6258 41.9753 44.5775 42.0099 44.6741 42.0792C44.8879 42.1692 45.1017 42.2316 45.3156 42.3008C45.557 42.4047 45.7294 42.4948 46.0467 42.6402H46.0398ZM45.0948 55.0949C45.0948 55.0949 45.1017 55.0949 45.1293 55.0949C45.0603 55.1434 44.881 55.1711 45.0948 55.0949ZM45.1638 55.0603C45.4604 54.9564 45.8674 54.7901 46.0881 54.7347C46.1433 54.7139 46.026 54.7278 46.1157 54.6862C46.2468 54.6585 46.3916 54.5962 46.6055 54.513C46.6331 54.5477 46.2054 54.7001 46.1985 54.7416C46.0329 54.797 45.9502 54.8248 45.8812 54.8663C45.5363 54.9702 45.4673 55.0256 45.2052 55.1018C45.2673 55.0533 45.15 55.1018 45.1638 55.0672V55.0603Z" fill="white"/>
</g>
<defs>
<clipPath id="clip0_868_1652">
<rect width="37" height="44" fill="white" transform="translate(16 13)"/>
</clipPath>
</defs>
</svg>
