<svg width="70" height="70" viewBox="0 0 70 70" fill="none" xmlns="http://www.w3.org/2000/svg">
<g clip-path="url(#clip0_868_1997)">
<path fill-rule="evenodd" clip-rule="evenodd" d="M33.2253 28.1278C33.1817 28.134 33.107 28.134 33.0137 28.134C33.0323 28.1217 33.1506 28.1155 33.2253 28.1278Z" fill="white"/>
<path fill-rule="evenodd" clip-rule="evenodd" d="M30.0447 26.8906C29.9825 26.8906 29.7833 26.9092 29.802 26.8906C29.914 26.8906 29.9638 26.8906 30.0447 26.8906Z" fill="white"/>
<path fill-rule="evenodd" clip-rule="evenodd" d="M29.7095 26.8686C29.7095 26.8686 29.5415 26.8686 29.4668 26.8686C29.4668 26.8563 29.666 26.8563 29.7095 26.8686Z" fill="white"/>
<path fill-rule="evenodd" clip-rule="evenodd" d="M28.733 27.0524C28.6832 27.0585 28.5525 27.0647 28.4902 27.0524C28.5089 27.04 28.6583 27.0524 28.733 27.0524Z" fill="white"/>
<path fill-rule="evenodd" clip-rule="evenodd" d="M28.2842 26.8555C28.2033 26.8678 28.0601 26.8678 27.8672 26.8678C27.9357 26.8555 28.1348 26.8555 28.2842 26.8555Z" fill="white"/>
<path fill-rule="evenodd" clip-rule="evenodd" d="M27.076 27.8255C26.8644 27.8255 26.4287 27.844 26.2793 27.8255C26.5407 27.8379 26.8332 27.8193 27.076 27.8255Z" fill="white"/>
<path fill-rule="evenodd" clip-rule="evenodd" d="M26.5096 27.3968C26.242 27.4215 25.769 27.3968 25.4329 27.4092C25.3831 27.3844 25.9308 27.4092 26.0304 27.3906C26.0989 27.3906 26.1673 27.3968 26.2358 27.403C26.3291 27.403 26.4163 27.3844 26.5159 27.403L26.5096 27.3968Z" fill="white"/>
<path fill-rule="evenodd" clip-rule="evenodd" d="M23.2616 27.3359C23.2616 27.3359 23.2429 27.3545 23.1558 27.3545C23.1309 27.3545 23.1184 27.3421 23.1246 27.3359H23.2616Z" fill="white"/>
<path fill-rule="evenodd" clip-rule="evenodd" d="M21.9114 27.4844C21.6998 27.5029 21.2081 27.5029 20.9404 27.4844C20.9031 27.4844 20.9031 27.4967 20.8346 27.4906C20.6728 27.4906 20.3118 27.4906 20.6604 27.4906C21.1458 27.4906 21.4197 27.4906 21.9114 27.4844Z" fill="white"/>
<path fill-rule="evenodd" clip-rule="evenodd" d="M21.7486 27.2619C21.6988 27.268 21.6117 27.268 21.5059 27.268C21.5308 27.2557 21.7113 27.2557 21.7486 27.2619Z" fill="white"/>
<path fill-rule="evenodd" clip-rule="evenodd" d="M21.4186 27.8492C21.3813 27.8616 21.2008 27.8492 21.1074 27.8492C21.1759 27.8492 21.3439 27.8369 21.4186 27.8492Z" fill="white"/>
<path fill-rule="evenodd" clip-rule="evenodd" d="M21.4875 27.3359C21.4004 27.3483 21.2074 27.3421 21.1016 27.3545C21.0083 27.3359 21.3568 27.3421 21.4875 27.3359Z" fill="white"/>
<path fill-rule="evenodd" clip-rule="evenodd" d="M21.3311 27.2734C21.2626 27.2858 21.0634 27.2858 20.9141 27.2858C21.0012 27.2734 21.2004 27.2796 21.3311 27.2734Z" fill="white"/>
<path fill-rule="evenodd" clip-rule="evenodd" d="M21.0829 27.9531C21.0829 27.9531 20.9336 27.9655 20.834 27.9717C20.8527 27.9593 20.9958 27.9593 21.0829 27.9531Z" fill="white"/>
<path fill-rule="evenodd" clip-rule="evenodd" d="M20.9334 27.8439C20.8214 27.8563 20.4293 27.8501 20.2363 27.8501C20.4791 27.8377 20.6658 27.8377 20.9334 27.8439Z" fill="white"/>
<path fill-rule="evenodd" clip-rule="evenodd" d="M20.8393 27.2887C20.6588 27.3072 20.3974 27.2887 20.248 27.2887C20.4099 27.2764 20.6526 27.3011 20.8393 27.2887Z" fill="white"/>
<path fill-rule="evenodd" clip-rule="evenodd" d="M20.3791 27.4971C20.3106 27.5033 20.1986 27.5033 20.099 27.5094C20.0803 27.4909 20.2608 27.4971 20.3791 27.4971Z" fill="white"/>
<path fill-rule="evenodd" clip-rule="evenodd" d="M20.0809 27.4469C20 27.4592 19.9253 27.4469 19.8008 27.4469C19.8319 27.4345 19.9937 27.4469 20.0809 27.4469Z" fill="white"/>
<path fill-rule="evenodd" clip-rule="evenodd" d="M19.776 27.3991C19.7386 27.4114 19.4772 27.4114 19.5332 27.3867C19.6079 27.3867 19.5955 27.3929 19.6017 27.3991C19.6826 27.3991 19.6764 27.3929 19.776 27.3991Z" fill="white"/>
<path fill-rule="evenodd" clip-rule="evenodd" d="M19.0469 27.7366C19.5137 27.7489 19.2211 27.718 19.0469 27.7366Z" fill="white"/>
<path fill-rule="evenodd" clip-rule="evenodd" d="M18.6672 27.8973C18.5241 27.9035 18.3809 27.9035 18.2129 27.8973C18.3187 27.8973 18.5926 27.8911 18.6672 27.8973Z" fill="white"/>
<path fill-rule="evenodd" clip-rule="evenodd" d="M18.5567 27.9219C18.6065 27.9342 18.3264 27.9342 18.3824 27.9219H18.5567Z" fill="white"/>
<path fill-rule="evenodd" clip-rule="evenodd" d="M18.233 28.1564C18.1832 28.1626 18.0774 28.1688 17.9902 28.1626C18.0151 28.1502 18.1956 28.1502 18.233 28.1564Z" fill="white"/>
<path fill-rule="evenodd" clip-rule="evenodd" d="M17.2618 28.1406C16.9755 28.1592 16.8697 28.1406 17.2618 28.1406Z" fill="white"/>
<path fill-rule="evenodd" clip-rule="evenodd" d="M25.0658 28.1468C25.0097 28.1468 24.9288 28.153 24.8915 28.1654C24.7857 28.1468 24.5865 28.1654 24.4434 28.153C24.6176 28.1345 24.8106 28.153 25.072 28.1468H25.0658Z" fill="white"/>
<path fill-rule="evenodd" clip-rule="evenodd" d="M21.1944 27.7646C21.1072 27.7646 21.1197 27.7584 21.0201 27.7646C21.0139 27.7584 21.0512 27.7584 21.0574 27.7522C20.8769 27.7522 20.7836 27.7522 20.6404 27.7522C20.6591 27.7522 20.6778 27.746 20.6778 27.7399C20.4848 27.7646 20.2545 27.7275 19.8438 27.7399C20.2359 27.7151 21.101 27.7337 21.4433 27.7275C21.3935 27.746 21.0948 27.7275 21.0574 27.746C21.0512 27.7584 21.2504 27.746 21.1881 27.7707L21.1944 27.7646Z" fill="white"/>
<path fill-rule="evenodd" clip-rule="evenodd" d="M20.8286 27.3492C20.8099 27.3492 20.7912 27.3492 20.8286 27.3492C20.8161 27.3616 20.673 27.3492 20.6543 27.3492C20.6979 27.3369 21.1522 27.3492 20.8286 27.3492Z" fill="white"/>
<path fill-rule="evenodd" clip-rule="evenodd" d="M18.2513 27.3932V27.3746C18.0334 27.3746 17.6787 27.3746 17.5293 27.3623C17.7907 27.3499 18.3509 27.3808 18.5376 27.3499C18.6061 27.3499 18.6434 27.3499 18.7119 27.3623C19.3218 27.3314 19.9878 27.3623 20.6227 27.3438C20.3364 27.3932 19.689 27.3252 19.3654 27.3746C19.3094 27.3746 19.3654 27.3746 19.4027 27.3746C19.1227 27.3746 18.6185 27.3623 18.2513 27.3932Z" fill="white"/>
<path fill-rule="evenodd" clip-rule="evenodd" d="M18.4809 27.9599C18.3938 27.9661 18.3502 27.9723 18.2693 27.9785C18.2382 27.9785 18.4125 27.9476 18.4809 27.9599Z" fill="white"/>
<path fill-rule="evenodd" clip-rule="evenodd" d="M24.3195 32.3083C24.2137 32.228 24.0456 32.0921 23.9336 32.0057C23.6411 31.7586 23.3921 31.5301 23.0934 31.2893C22.8506 31.0978 22.5394 30.857 22.2967 30.6655C22.11 30.5173 22.0228 30.4494 21.8859 30.3444C21.4813 30.0294 21.1639 29.7515 20.9647 29.6465C20.6349 29.4056 20.3548 29.2018 20.056 28.9857C19.9938 28.9363 19.944 28.8992 19.9191 28.8745C19.2593 28.4175 18.8112 28.189 18.0581 27.627C17.9772 27.5961 17.9087 27.5899 17.7656 27.5096C17.7033 27.4726 17.5726 27.3799 17.5228 27.3552C17.3423 27.275 17.4232 27.4355 17.1245 27.2379C17.0996 27.2379 17.1494 27.2811 17.1556 27.2997C17.0747 27.3799 17.1245 27.5405 17 27.5467C17.1556 27.7443 17.0747 27.7505 17.1929 27.9111C17.2614 28.0099 17.4232 28.1766 17.5228 28.3001C17.6349 28.436 17.7593 28.5719 17.8465 28.6892C17.8216 28.7139 17.9896 28.8622 18.0021 28.9116C18.1701 29.0783 18.3631 29.2759 18.5311 29.4427C18.5436 29.4674 18.5871 29.5168 18.5871 29.5292C18.9917 29.9429 19.39 30.3691 19.9751 30.8878C20.0311 30.9373 20.1432 31.0361 20.2116 31.0917C20.6598 31.4622 21.3382 32.0489 21.5436 32.2836C21.6245 32.3515 21.6245 32.3454 21.7054 32.4133C21.7427 32.475 21.9544 32.7036 22.1598 32.8703C22.2282 32.9321 22.3714 33.0124 22.5332 33.1359C22.7697 33.3211 22.9627 33.5373 23.1743 33.7041C23.2739 33.7843 23.3921 33.8461 23.4917 33.9264C23.7593 34.1302 24.2822 34.581 24.4938 34.7725C24.6618 34.9207 24.7116 34.9948 24.8485 35.0998C24.9668 35.1986 25.0726 35.2542 25.0851 35.2171C25.471 35.4457 26.305 36.2176 26.8465 36.6314C27.2137 36.9711 27.6058 37.2428 27.973 37.5578C28.0353 37.6134 28.1411 37.706 28.2033 37.7616C28.3154 37.8481 28.5145 38.0025 28.6701 38.126C28.9564 38.3607 29.168 38.5212 29.4295 38.7374C29.7531 39.0647 30.0394 39.2438 30.332 39.4909C30.4253 39.5711 30.5622 39.6947 30.6618 39.7873C30.7552 39.8614 30.8859 39.9602 30.9917 40.0467C31.0851 40.1332 31.2344 40.2628 31.3216 40.3431C31.3963 40.4049 31.4772 40.4666 31.5394 40.5161C31.6266 40.5902 31.6763 40.6458 31.7697 40.7199C31.8444 40.7754 32 40.8928 32.0809 40.9484C32.4481 41.2448 32.8216 41.5845 33.1826 41.8439C33.2635 41.9118 33.332 41.9736 33.4004 42.0353C33.5187 42.1341 33.6369 42.233 33.749 42.3318C34.0104 42.5479 34.2656 42.7579 34.5332 42.9802C34.8071 42.7394 35.0809 42.4985 35.3734 42.2453C35.5602 42.0847 35.7593 41.918 35.9959 41.7204C36.1701 41.5598 36.2946 41.4363 36.4876 41.2819C36.5249 41.2448 36.5187 41.2386 36.5871 41.1769C36.9668 40.8619 37.334 40.4914 37.7324 40.1702C37.7448 40.1517 37.7573 40.1393 37.7759 40.1146C38.3174 39.67 38.9896 39.0894 39.3942 38.7065C39.7303 38.441 40.0913 38.0951 40.4896 37.7493L41.0436 37.2799C41.4046 36.9649 41.8278 36.5944 42.1639 36.2979C42.2448 36.2238 42.3631 36.1065 42.444 36.0324C42.6245 35.878 42.7925 35.7297 42.9917 35.5568C43.6888 34.9145 44.5228 34.2105 45.1515 33.667C45.3257 33.5064 45.5124 33.3335 45.7178 33.1482C46.0913 32.8271 46.4523 32.5183 46.8195 32.2033C46.8942 32.1292 47 32.0304 47.0747 31.9625C47.2988 31.771 47.4979 31.5919 47.7282 31.4004C48.2822 30.9125 48.8299 30.4061 49.3651 29.9615C49.5394 29.8009 49.7199 29.6403 49.9066 29.4674C50.2303 29.1833 50.5664 28.8869 50.9087 28.5904C51.6183 27.9666 52.3527 27.3305 53.0062 26.7624L53.0187 26.75C52.5768 26.7747 52.2656 26.75 51.8672 26.75C51.251 26.75 50.529 26.7624 49.8195 26.7685C49.4834 26.7685 49.1598 26.7685 48.8423 26.7685C48.6369 26.7685 48.4378 26.7685 48.2324 26.7624C44.9149 26.7871 41.6349 26.8118 38.3299 26.8365C38.0747 26.8179 37.6826 26.8303 37.4647 26.8365C37.4149 26.8241 37.2656 26.8241 37.1535 26.8241C36.749 26.855 36.2386 26.8241 35.7282 26.8365C35.5975 26.8673 35.2925 26.8426 35.0996 26.8673C35.0187 26.8488 35.2116 26.855 35.0685 26.8426C34.7386 26.892 33.6183 26.8735 33.1141 26.8859C33.1515 26.8859 33.1577 26.892 33.1141 26.892C32.9896 26.8797 32.9336 26.9044 32.7967 26.9044C31.888 26.9044 31.2344 26.96 30.4564 26.9785C30.3568 26.9723 30.0954 26.9476 30.0083 26.9662C30.1515 26.9662 30.3257 26.9662 30.3133 26.9909C30.0768 26.9847 29.7718 26.9909 29.6162 27.0094C29.3299 27.0094 29.1805 26.997 28.9191 27.0156C28.8568 27.0156 28.9813 27.0403 28.8444 27.0403C28.4025 27.0403 28.2718 27.0403 27.8734 27.0403C27.7676 27.0588 27.3444 27.065 27.2137 27.0588C27.0954 27.065 27.3444 27.0773 27.2448 27.0835C26.9149 27.0897 26.61 27.0958 26.305 27.0835C26.2303 27.0958 26.1805 27.1082 26.056 27.1082C25.9751 27.1082 26.0809 27.0897 25.9564 27.0958C25.8382 27.1082 26.0498 27.1144 26.0187 27.1329C25.8568 27.1391 25.888 27.1514 25.8071 27.1638C25.5768 27.1514 25.4212 27.1761 25.2158 27.1823C24.973 27.1823 24.7863 27.1823 24.556 27.1885C24.3755 27.1885 24.3008 27.207 24.1017 27.207C23.9585 27.207 23.778 27.1947 23.6162 27.1947C23.5228 27.1947 23.6784 27.2132 23.5415 27.2132C22.9066 27.2132 22.2656 27.2255 21.7988 27.2502C22.5207 27.2132 23.0436 27.2502 23.6784 27.2194C23.7718 27.2379 23.9647 27.207 24.0581 27.2317C24.1017 27.2194 23.9523 27.2132 24.0954 27.2132C24.1452 27.2132 24.1577 27.2194 24.2324 27.2132C24.1452 27.2379 24.2759 27.2379 24.3257 27.2564C24.861 27.2564 25.2905 27.2502 25.751 27.2441C25.8382 27.2441 25.6888 27.2317 25.7884 27.2255C25.9751 27.2255 26.0809 27.2255 26.3112 27.2194C26.3734 27.2379 26.5166 27.2441 26.4419 27.2688C25.8382 27.2811 24.9357 27.2935 24.2137 27.3058C23.9896 27.3058 23.7531 27.2873 23.6224 27.3182C23.9585 27.312 24.2261 27.3429 24.5187 27.3429C24.8983 27.3429 25.2967 27.3182 25.6701 27.3244C25.7573 27.3244 25.8319 27.3305 25.9129 27.3367C25.9689 27.3367 26.1245 27.3244 26.1929 27.3244C26.2801 27.3244 26.2863 27.3367 26.3672 27.3367C26.5041 27.3367 26.6722 27.3244 26.8216 27.3182C27.1141 27.3182 27.4004 27.3367 27.7241 27.3305C27.7801 27.3367 27.7552 27.3552 27.6805 27.3614C27.3008 27.3614 27.2386 27.3614 26.8465 27.3614C26.89 27.3614 26.9149 27.3614 26.9149 27.3738C26.7967 27.3738 26.7531 27.3676 26.6722 27.3738C26.9585 27.3738 26.9336 27.4046 26.834 27.4232C26.112 27.4232 25.2718 27.4232 24.6494 27.4232C24.5871 27.4355 24.5436 27.4479 24.4378 27.4479C23.7531 27.4479 23.0498 27.4541 22.3216 27.4602C23.1307 27.4849 23.9834 27.4726 24.9232 27.4602C24.9606 27.4602 24.9295 27.4788 25.0228 27.4726C25.4647 27.4726 25.8942 27.4602 26.2054 27.4602C26.3361 27.4788 26.473 27.4973 26.61 27.522C27.5996 27.5035 28.3216 27.5837 29.2676 27.5837C29.2676 27.5961 29.3361 27.6023 29.3672 27.6084C29.2925 27.6208 29.2427 27.6332 29.1494 27.6455C28.9938 27.6455 28.8319 27.6517 28.7012 27.6455C27.9046 27.6826 26.7718 27.6579 25.7822 27.6826C25.6639 27.7073 25.7573 27.7196 25.8382 27.7381C26.3174 27.7505 26.7531 27.7196 27.2573 27.7505C27.4378 27.7999 27.251 27.837 26.8589 27.8431C26.2116 27.8431 25.11 27.8431 24.6743 27.837C22.7199 27.8493 20.9149 27.8678 18.9419 27.8802C20.0249 27.8925 21.027 27.8617 21.9917 27.8802C21.9917 27.8678 22.0228 27.8678 22.0975 27.8678C23.0498 27.8678 24.1079 27.8678 24.9481 27.8555C25.2967 27.8864 25.9751 27.8555 26.3299 27.8802C26.2427 27.9296 25.9502 27.9543 25.583 27.9666C25.9564 27.9666 26.305 27.979 26.6224 27.9852C26.8776 27.9852 27.3257 27.9728 27.4564 27.9852C27.4876 27.9852 27.4253 27.9975 27.4876 27.9975C27.3817 27.9975 27.6743 27.9975 27.6992 27.9975C27.8423 27.9975 27.8112 27.9852 27.9793 27.9914C28.1909 27.9914 28.1909 27.9914 28.3216 28.0037C29.0685 28.0037 29.7531 28.0037 30.5062 28.0037C30.5871 28.0037 30.7365 28.0037 30.749 28.0037C30.8174 28.0037 30.7614 28.0161 30.8485 28.0161C30.8983 28.0161 30.8797 28.0037 30.9544 28.0099C31.2469 28.0099 31.5705 28.0099 31.8568 28.0161C32.5726 28.0161 33.4191 28.0161 34.0042 28.0222C34.1349 28.0222 33.9606 28.0408 34.1411 28.0408C35.1556 28.0469 36.2199 28.0593 37.2905 28.0655C37.3714 28.0655 37.3091 28.084 37.4274 28.084C37.5768 28.084 37.5394 28.0655 37.6763 28.0655C37.7573 28.0655 37.8382 28.0778 37.8817 28.0902C39.1203 28.1087 40.39 28.0902 41.666 28.084C42.861 28.084 44.0436 28.0778 45.1701 28.0716C46.0602 28.0716 46.9066 28.0469 47.7033 28.0655C48.3133 28.0655 48.8237 28.0531 49.3776 28.0469H49.5456C49.4523 28.1272 49.3589 28.2013 49.2967 28.2693C49.278 28.2878 49.2718 28.3063 49.2469 28.3249C49.2095 28.3557 49.1598 28.3804 49.1286 28.4051C48.7925 28.7078 48.4253 29.0351 48.0892 29.3315C47.6722 29.6897 47.2676 30.0417 46.8631 30.3938C46.6452 30.5914 46.4087 30.8014 46.1909 30.999C46.0415 31.1225 45.8672 31.2708 45.7178 31.4004C45.2884 31.7834 44.834 32.1848 44.4232 32.5492C43.8631 33.0309 43.278 33.5126 42.7241 34.0252C42.0954 34.5625 41.3361 35.2233 40.7386 35.7483C40.2282 36.1435 39.749 36.6129 39.195 37.0823C39.1452 37.1193 39.083 37.1687 39.0332 37.212C38.1867 37.916 37.2967 38.7559 36.6058 39.3241C36.3693 39.5588 36.1328 39.7317 35.8963 39.9293C35.6411 40.1455 35.417 40.3617 35.1743 40.5716C35.1058 40.6272 35.0062 40.7075 34.9378 40.7693C34.6079 41.0534 34.6515 41.0348 34.5705 41.1089L34.5456 41.1275C34.4959 41.0842 34.4523 41.0348 34.4025 40.9916C34.2095 40.8249 33.9917 40.6396 33.7676 40.4667C33.4129 40.1455 32.8838 39.6823 32.4544 39.3488C31.7697 38.7312 31.029 38.163 30.3133 37.5455C30.0705 37.3355 29.8651 37.1317 29.6037 36.9402C29.361 36.7055 29.0498 36.4647 28.7386 36.1991C28.4461 35.9459 28.11 35.6556 27.805 35.3839C27.3506 34.9948 26.7656 34.5316 26.4544 34.2043C26.361 33.9943 25.9627 33.8523 25.6079 33.5311C25.4274 33.352 25.471 33.352 25.4149 33.2532C25.2531 33.0988 25.0851 32.9691 24.9108 32.8333C24.7178 32.6603 24.6058 32.5059 24.3444 32.2898L24.3195 32.3083ZM27.1763 27.1947C27.1763 27.1947 27.1701 27.1885 27.1452 27.1885C27.2199 27.17 27.3817 27.2008 27.1763 27.1947ZM27.1017 27.2008C26.8154 27.2008 26.4108 27.2255 26.1992 27.2008C26.1432 27.2008 26.249 27.2255 26.1556 27.2317C26.0311 27.2194 25.888 27.2132 25.6763 27.2132C25.6639 27.1761 26.0809 27.2008 26.0996 27.1638C26.2614 27.1638 26.3423 27.1638 26.417 27.1514C26.7531 27.1638 26.8216 27.1391 27.0768 27.1514C27.0083 27.17 27.1203 27.17 27.1017 27.1885V27.2008Z" fill="white"/>
<path fill-rule="evenodd" clip-rule="evenodd" d="M33.7679 46.9875C33.7679 46.9875 33.7617 46.9505 33.7617 46.9258C33.7742 46.932 33.7804 46.969 33.7679 46.9875Z" fill="white"/>
<path fill-rule="evenodd" clip-rule="evenodd" d="M35.0122 46.0237C35.0122 46.0237 34.9935 45.9434 35.0122 45.9496C35.0122 45.9866 35.0122 45.999 35.0122 46.0237Z" fill="white"/>
<path fill-rule="evenodd" clip-rule="evenodd" d="M35.0371 45.9179C35.0371 45.9179 35.0371 45.8685 35.0371 45.8438C35.0496 45.8438 35.0496 45.9055 35.0371 45.9179Z" fill="white"/>
<path fill-rule="evenodd" clip-rule="evenodd" d="M34.8493 45.621C34.8493 45.621 34.8368 45.5654 34.8493 45.5469C34.8617 45.5469 34.8493 45.5963 34.8493 45.621Z" fill="white"/>
<path fill-rule="evenodd" clip-rule="evenodd" d="M35.0496 45.4852C35.0496 45.4852 35.0371 45.4172 35.0371 45.3555C35.0496 45.374 35.0496 45.4358 35.0496 45.4852Z" fill="white"/>
<path fill-rule="evenodd" clip-rule="evenodd" d="M34.0728 45.1159C34.0728 45.0541 34.0541 44.9182 34.0728 44.875C34.0603 44.9553 34.079 45.0417 34.0728 45.1159Z" fill="white"/>
<path fill-rule="evenodd" clip-rule="evenodd" d="M34.5007 44.9413C34.4758 44.861 34.5007 44.7127 34.4883 44.6139C34.5132 44.6016 34.4883 44.7683 34.507 44.793C34.507 44.8177 34.507 44.8363 34.4945 44.8548C34.4945 44.8857 34.5132 44.9104 34.4945 44.9413H34.5007Z" fill="white"/>
<path fill-rule="evenodd" clip-rule="evenodd" d="M34.5636 43.9495C34.5636 43.9495 34.5449 43.9495 34.5449 43.9186C34.5449 43.9124 34.5574 43.9062 34.5636 43.9062V43.9495Z" fill="white"/>
<path fill-rule="evenodd" clip-rule="evenodd" d="M34.4144 43.5417C34.3957 43.4737 34.3957 43.3255 34.4144 43.2452C34.4144 43.2329 34.4019 43.2329 34.4082 43.2143C34.4082 43.1649 34.4082 43.0538 34.4082 43.1649C34.4206 43.2946 34.4082 43.3996 34.4144 43.5478V43.5417Z" fill="white"/>
<path fill-rule="evenodd" clip-rule="evenodd" d="M34.639 43.4921C34.639 43.4921 34.6328 43.4488 34.6328 43.418C34.6453 43.4241 34.6453 43.4797 34.639 43.4921Z" fill="white"/>
<path fill-rule="evenodd" clip-rule="evenodd" d="M34.0469 43.3856C34.0469 43.3856 34.0469 43.3177 34.0469 43.293C34.0469 43.3115 34.0593 43.3671 34.0469 43.3856Z" fill="white"/>
<path fill-rule="evenodd" clip-rule="evenodd" d="M34.5636 43.412C34.5636 43.412 34.5574 43.3255 34.5449 43.2947C34.5636 43.2638 34.5574 43.3688 34.5636 43.412Z" fill="white"/>
<path fill-rule="evenodd" clip-rule="evenodd" d="M34.6257 43.3602C34.6257 43.3602 34.6133 43.2799 34.6133 43.2305C34.6257 43.2552 34.6195 43.3169 34.6257 43.3602Z" fill="white"/>
<path fill-rule="evenodd" clip-rule="evenodd" d="M33.9405 43.289C33.9405 43.289 33.9281 43.2457 33.9219 43.2148C33.9343 43.221 33.9343 43.2643 33.9405 43.289Z" fill="white"/>
<path fill-rule="evenodd" clip-rule="evenodd" d="M34.0527 43.2373C34.0403 43.2003 34.0465 43.0829 34.0465 43.0273C34.0589 43.1015 34.0589 43.157 34.0527 43.2373Z" fill="white"/>
<path fill-rule="evenodd" clip-rule="evenodd" d="M34.6138 43.2143C34.5951 43.1587 34.6138 43.0784 34.6138 43.0352C34.6262 43.0846 34.6013 43.1587 34.6138 43.2143Z" fill="white"/>
<path fill-rule="evenodd" clip-rule="evenodd" d="M34.4011 43.0708C34.4011 43.0708 34.3949 43.0153 34.3887 42.9844C34.4073 42.9844 34.4011 43.0338 34.4011 43.0708Z" fill="white"/>
<path fill-rule="evenodd" clip-rule="evenodd" d="M34.4512 42.9771C34.4512 42.9771 34.4512 42.9277 34.4512 42.8906C34.4636 42.8968 34.4512 42.9524 34.4512 42.9771Z" fill="white"/>
<path fill-rule="evenodd" clip-rule="evenodd" d="M34.5012 42.8852C34.5012 42.8852 34.4887 42.7925 34.5136 42.811C34.5136 42.8357 34.5074 42.8296 34.5012 42.8296C34.5012 42.8543 34.5074 42.8543 34.5012 42.8852Z" fill="white"/>
<path fill-rule="evenodd" clip-rule="evenodd" d="M34.1593 42.6641C34.178 42.7135 34.1468 42.8061 34.1593 42.6641Z" fill="white"/>
<path fill-rule="evenodd" clip-rule="evenodd" d="M33.9969 42.546C33.9906 42.5028 33.9906 42.4596 33.9969 42.4102C33.9969 42.441 34.0031 42.5275 33.9969 42.546Z" fill="white"/>
<path fill-rule="evenodd" clip-rule="evenodd" d="M33.9723 42.5141C33.9723 42.5141 33.9599 42.4462 33.9723 42.4585V42.5141Z" fill="white"/>
<path fill-rule="evenodd" clip-rule="evenodd" d="M33.7365 42.4179C33.7365 42.4179 33.724 42.3685 33.7303 42.3438C33.7427 42.3499 33.7427 42.4055 33.7365 42.4179Z" fill="white"/>
<path fill-rule="evenodd" clip-rule="evenodd" d="M33.7544 42.1198C33.7544 42.0025 33.7357 42.0334 33.7544 42.1198Z" fill="white"/>
<path fill-rule="evenodd" clip-rule="evenodd" d="M33.7491 44.504C33.7491 44.504 33.7429 44.4607 33.7305 44.4484C33.7491 44.4175 33.7305 44.3557 33.7429 44.3125C33.7616 44.3681 33.7429 44.4237 33.7491 44.504Z" fill="white"/>
<path fill-rule="evenodd" clip-rule="evenodd" d="M34.1351 43.3161C34.1351 43.3161 34.1414 43.2914 34.1351 43.2605C34.1414 43.2605 34.1414 43.2729 34.1476 43.2729C34.1476 43.2173 34.1476 43.1926 34.1476 43.1432C34.1476 43.1432 34.1538 43.1556 34.16 43.1556C34.1351 43.0938 34.1725 43.0259 34.16 42.9023C34.1849 43.0197 34.1663 43.2852 34.1725 43.3902C34.1538 43.3717 34.1725 43.2853 34.1538 43.2729C34.1414 43.2729 34.1538 43.3285 34.1289 43.3161H34.1351Z" fill="white"/>
<path fill-rule="evenodd" clip-rule="evenodd" d="M34.5505 43.2079C34.538 43.2079 34.5505 43.1585 34.5505 43.1523C34.5629 43.1647 34.5505 43.3067 34.5505 43.2079Z" fill="white"/>
<path fill-rule="evenodd" clip-rule="evenodd" d="M34.5078 42.4216H34.5265C34.5265 42.3536 34.5265 42.2486 34.5389 42.1992C34.5514 42.2795 34.5203 42.4463 34.5514 42.508C34.5514 42.5327 34.5514 42.5327 34.5389 42.5574C34.5701 42.7427 34.5389 42.9465 34.5576 43.138C34.5078 43.0515 34.5763 42.8539 34.5265 42.755C34.5265 42.7365 34.5265 42.7551 34.5265 42.7674C34.5265 42.6809 34.5389 42.5265 34.5078 42.4154V42.4216Z" fill="white"/>
<path fill-rule="evenodd" clip-rule="evenodd" d="M33.9347 42.4893C33.9347 42.4893 33.9222 42.4461 33.916 42.4276C33.916 42.4152 33.9471 42.4708 33.9347 42.4893Z" fill="white"/>
<path fill-rule="evenodd" clip-rule="evenodd" d="M29.9145 58.1788C29.8647 58.1788 29.8149 58.1973 29.7651 58.1973C29.6469 58.1973 29.5411 58.1788 29.4228 58.1911C29.317 58.1973 29.2174 58.222 29.1116 58.2282C29.0307 58.2282 29.0058 58.2406 28.9498 58.2467C28.7942 58.2653 28.6635 58.2529 28.595 58.3023C28.483 58.3332 28.346 58.3517 28.2465 58.3764C28.234 58.3764 28.1967 58.3764 28.1904 58.3764C27.9415 58.4444 27.7921 58.5617 27.5058 58.6111C27.4809 58.6358 27.4622 58.6729 27.4124 58.7099C27.3875 58.7223 27.3377 58.7346 27.3253 58.747C27.2693 58.8026 27.3191 58.8705 27.207 58.9137C27.207 58.9261 27.2195 58.9323 27.2257 58.9384C27.2257 59.0496 27.263 59.1422 27.2382 59.2287C27.3128 59.2781 27.3004 59.3399 27.3564 59.3831C27.3938 59.414 27.4622 59.4387 27.512 59.4696C27.568 59.5004 27.624 59.5251 27.6676 59.5622C27.6676 59.5931 27.7361 59.5992 27.7485 59.6301C27.817 59.6487 27.9104 59.6795 27.9788 59.6981C27.985 59.7104 28.0099 59.7166 28.0099 59.7289C28.1842 59.7845 28.3647 59.8586 28.6074 59.8772C28.6323 59.8772 28.6821 59.8772 28.7008 59.8772C28.8813 59.8772 29.1552 59.8895 29.2547 59.9327C29.2859 59.9327 29.2859 59.9266 29.317 59.9327C29.3357 59.9513 29.4352 59.9945 29.5162 59.9945C29.5473 59.9945 29.5971 59.9636 29.6593 59.9575C29.7527 59.9513 29.8398 59.9883 29.9269 59.9822C29.9643 59.9822 30.0079 59.9513 30.0452 59.9451C30.151 59.9327 30.3626 59.9451 30.4498 59.9451C30.5182 59.9513 30.5431 59.976 30.5991 59.9698C30.6489 59.9698 30.6801 59.9451 30.6801 59.908C30.817 59.8339 31.1655 59.8895 31.3772 59.8586C31.5328 59.8833 31.6759 59.8401 31.8253 59.8463C31.8564 59.8463 31.8875 59.8586 31.9186 59.8586C31.9684 59.8586 32.0369 59.8463 32.0991 59.8401C32.2112 59.8339 32.3045 59.8339 32.3979 59.8216C32.5411 59.8648 32.6406 59.8154 32.7589 59.8216C32.8025 59.8216 32.846 59.8339 32.8958 59.8339C32.9394 59.8339 32.9767 59.8216 33.0265 59.8216C33.0701 59.8216 33.1199 59.8339 33.1635 59.8339C33.1946 59.8339 33.2195 59.8278 33.2506 59.8278C33.2879 59.8278 33.3066 59.8401 33.344 59.8401C33.3813 59.8401 33.4249 59.8216 33.4622 59.8216C33.5494 59.8154 33.9104 59.8339 34.1344 59.7969C34.5203 59.8216 34.8377 59.7969 35.2485 59.7969C35.2485 59.7413 35.2485 59.6734 35.2547 59.5684C35.2485 59.4325 35.2423 59.3337 35.2485 59.204C35.2485 59.1731 35.2361 59.1669 35.2361 59.1175C35.2485 58.852 35.2112 58.5617 35.2299 58.29C35.2299 58.2776 35.2174 58.2714 35.2174 58.2529C35.2361 57.975 35.2423 57.7465 35.2174 57.5612C35.2423 57.4315 35.2174 57.2771 35.2174 57.1165C35.2174 57.0424 35.2299 56.9683 35.2236 56.8942C35.2112 56.7522 35.2236 56.5731 35.2236 56.4372C35.2236 56.4187 35.2112 56.3384 35.205 56.3199C35.205 56.2519 35.2112 56.1716 35.205 56.0975C35.1801 55.8073 35.1987 55.4738 35.1987 55.2205C35.1987 55.1403 35.1863 55.0723 35.1801 54.9859C35.1738 54.8376 35.1925 54.6894 35.1925 54.5412C35.1925 54.5227 35.1801 54.4547 35.1801 54.4362C35.1801 54.3497 35.1801 54.2633 35.1801 54.1706C35.1801 53.9421 35.1552 53.7136 35.1801 53.5036C35.1489 53.2319 35.1614 52.8366 35.1552 52.5155C35.1303 52.4414 35.1552 52.3796 35.1489 52.3055C35.1365 52.077 35.1116 51.7929 35.1303 51.5521C35.0867 50.5577 35.1054 49.5202 35.0556 48.5321C35.0743 48.4579 35.0618 48.3344 35.0556 48.2665C35.068 48.2541 35.068 48.2047 35.068 48.1739C35.0369 48.0503 35.068 47.8959 35.0556 47.7415C35.0245 47.7045 35.0494 47.6057 35.0245 47.5501C35.0431 47.5254 35.0369 47.581 35.0494 47.5439C34.9996 47.4451 35.0182 47.0992 35.0058 46.951C35.0058 46.9634 34.9996 46.9634 34.9996 46.951C35.012 46.914 34.9871 46.8954 34.9871 46.8522C34.9871 46.5743 34.9311 46.3767 34.9124 46.1358C34.9187 46.1049 34.9435 46.0246 34.9249 45.9999C34.9249 46.0432 34.9249 46.0988 34.9 46.0926C34.9062 46.0185 34.9 45.9258 34.8813 45.8826C34.8813 45.7961 34.8938 45.7467 34.8751 45.6726C34.8751 45.6541 34.8502 45.6911 34.8502 45.6479C34.8626 45.5244 34.844 45.4626 34.8502 45.3515C34.8315 45.3206 34.8253 45.1909 34.8315 45.1477C34.8253 45.1106 34.8128 45.1847 34.8066 45.1538C34.8004 45.055 34.7942 44.9624 34.8066 44.8698C34.7942 44.845 34.7817 44.8327 34.7817 44.7956C34.7817 44.7709 34.8004 44.8018 34.7942 44.7648C34.7817 44.7277 34.7755 44.7895 34.7568 44.7833C34.7506 44.7339 34.7382 44.7401 34.7257 44.7154C34.7382 44.6474 34.7133 44.598 34.707 44.5363C34.7008 44.4683 34.707 44.4004 34.7008 44.3324C34.7008 44.2769 34.6821 44.2522 34.6821 44.1966C34.6821 44.1472 34.7008 44.1039 34.6946 44.0484C34.6946 44.0175 34.6759 44.0669 34.6759 44.0237C34.6759 43.8322 34.6635 43.6346 34.6386 43.4925C34.6759 43.7149 34.6386 43.8754 34.6697 44.0669C34.651 44.0978 34.6821 44.1533 34.6572 44.1842C34.6697 44.1966 34.6759 44.1533 34.6759 44.1966C34.6759 44.2089 34.6697 44.2151 34.6759 44.2398C34.651 44.2151 34.651 44.2522 34.6323 44.2707C34.6323 44.4189 34.6386 44.5795 34.6448 44.703C34.6448 44.7277 34.6572 44.6845 34.6635 44.7154C34.6635 44.7833 34.6635 44.7709 34.6697 44.8759C34.651 44.8945 34.6448 44.9377 34.6199 44.913C34.6199 44.7215 34.5888 44.4621 34.5826 44.2336C34.5826 44.1657 34.6012 44.0916 34.5701 44.0545C34.5763 44.1595 34.5452 44.2398 34.5452 44.3263C34.5452 44.4436 34.5701 44.5671 34.5639 44.6783C34.5639 44.7092 34.5514 44.7215 34.5514 44.7524C34.5514 44.7771 34.5639 44.8142 34.5639 44.8389C34.5639 44.8636 34.5514 44.8698 34.5514 44.8883C34.5514 44.9377 34.5701 44.9747 34.5701 45.0241C34.5701 45.1106 34.5514 45.2033 34.5577 45.2959C34.5514 45.3144 34.5328 45.3082 34.5265 45.2835C34.5265 45.1662 34.5265 45.1477 34.5265 45.0303C34.5265 45.0427 34.5265 45.0489 34.5141 45.0489C34.5141 45.0118 34.5203 44.9994 34.5141 44.9747C34.5141 45.0612 34.483 45.055 34.4643 45.0241C34.4643 44.808 34.4518 44.5363 34.4643 44.3572C34.4518 44.3386 34.4394 44.3263 34.4394 44.2892C34.4394 44.0298 34.4332 43.9063 34.4269 43.6407C34.4021 43.8878 34.4145 44.1472 34.4269 44.4374C34.4269 44.4498 34.4083 44.4374 34.4145 44.4683C34.4269 44.5918 34.4207 44.7339 34.4269 44.8265C34.4083 44.8636 34.3896 44.9068 34.3647 44.95C34.3834 45.2527 34.3025 45.475 34.3025 45.7591C34.29 45.7591 34.2838 45.7776 34.2776 45.79C34.2651 45.7653 34.2527 45.7529 34.2402 45.722C34.2402 45.6726 34.234 45.6232 34.2402 45.5862C34.2029 45.3453 34.2278 44.9994 34.2029 44.6968C34.178 44.6598 34.1655 44.6906 34.1469 44.7154C34.1344 44.8636 34.1655 44.9933 34.1344 45.1477C34.0846 45.2032 34.0473 45.1477 34.0411 45.0241C34.0411 44.8265 34.0411 44.4868 34.0473 44.3572C34.0162 43.7766 34.0286 43.2023 34.0037 42.6094C33.9913 42.9367 34.0224 43.2455 34.0037 43.5419C34.0162 43.5419 34.0162 43.5543 34.0162 43.5728C34.0162 43.8631 34.0162 44.1842 34.0286 44.4436C33.9975 44.5486 34.0286 44.7586 34.0037 44.8636C33.9539 44.8389 33.929 44.7462 33.9166 44.6351C33.9166 44.7462 33.9041 44.8574 33.8979 44.95C33.8979 45.0303 33.9104 45.1662 33.8979 45.2032C33.8979 45.2156 33.8855 45.1971 33.8855 45.2156C33.8855 45.1847 33.8855 45.2712 33.8855 45.2774C33.8855 45.3206 33.8979 45.3144 33.8917 45.3638C33.8917 45.4318 33.8917 45.4256 33.8792 45.4688C33.873 45.6911 33.8855 45.9135 33.8792 46.1358C33.8792 46.1667 33.8792 46.1976 33.8792 46.2099C33.8792 46.2284 33.8668 46.2099 33.8668 46.2408C33.8668 46.2593 33.8792 46.247 33.873 46.2717C33.873 46.3705 33.873 46.4693 33.8668 46.5434C33.8668 46.7657 33.8668 47.019 33.8606 47.1981C33.8606 47.2351 33.8419 47.1857 33.8419 47.2413C33.8357 47.5686 33.8232 47.8898 33.817 48.2047C33.817 48.2294 33.7983 48.2047 33.7983 48.248C33.7983 48.2912 33.817 48.285 33.817 48.3221C33.817 48.3468 33.8045 48.3715 33.7921 48.3838C33.7734 48.7606 33.7921 49.1496 33.7983 49.5387C33.7983 49.9155 33.8045 50.2613 33.8108 50.6072C33.8108 50.8789 33.8357 51.1383 33.817 51.3791C33.8294 51.7065 33.8294 51.9844 33.8357 52.2932C33.8357 52.5155 33.8294 52.7564 33.8357 52.9416C33.8357 52.9725 33.8481 53.0096 33.8481 53.0466C33.8481 53.1022 33.8357 53.1578 33.8357 53.2134C33.8357 53.3369 33.8481 53.5407 33.8543 53.6704C33.8543 53.8371 33.8543 54.0039 33.8543 54.1645C33.8543 54.2571 33.8668 54.3497 33.8668 54.4424C33.8668 54.4856 33.8606 54.5844 33.8543 54.6338C33.8543 54.8129 33.873 54.992 33.873 55.165C33.873 55.3935 33.8481 55.622 33.873 55.8505C33.8606 56.1037 33.8606 56.4125 33.873 56.6533C33.8357 56.851 33.873 57.0548 33.8668 57.2771C33.8668 57.3018 33.8606 57.3142 33.8543 57.3389C33.8419 57.5056 33.8481 57.6847 33.8543 57.8576C33.8543 58.0244 33.8668 58.222 33.8543 58.2097C33.8792 58.2406 33.8543 58.2591 33.8481 58.2776C33.8481 58.2961 33.8606 58.327 33.8606 58.3579C33.8606 58.3641 33.8543 58.3641 33.8481 58.3702V58.3888C33.8481 58.3888 33.8232 58.4011 33.8045 58.4011C33.761 58.4011 33.705 58.3641 33.6676 58.3888C33.6987 58.3702 33.4 58.3517 33.2506 58.3764C32.9643 58.3455 32.678 58.3764 32.3855 58.3641C32.2859 58.3641 32.1987 58.3332 32.0991 58.3579C31.9933 58.3332 31.8751 58.3455 31.7506 58.3455C31.6572 58.3455 31.483 58.327 31.3709 58.3208C31.1842 58.3147 30.9601 58.3332 30.817 58.2838C30.7547 58.185 30.6303 58.3332 30.4871 58.3085C30.4062 58.29 30.4186 58.2591 30.3875 58.222C30.3191 58.2097 30.2506 58.222 30.1821 58.222C30.1012 58.2097 30.0452 58.1664 29.9394 58.1664L29.9145 58.1788ZM34.707 45.1415C34.707 45.1415 34.7133 45.1415 34.7133 45.1291C34.7319 45.1538 34.7008 45.2033 34.707 45.1415ZM34.7008 45.1168C34.7008 45.0303 34.6759 44.9068 34.7008 44.8389C34.7008 44.8203 34.6759 44.8512 34.6697 44.8265C34.6821 44.7895 34.6884 44.7462 34.6884 44.6783C34.7257 44.6783 34.7008 44.8018 34.7382 44.808C34.7382 44.8574 34.7382 44.8821 34.7506 44.9068C34.7382 45.0056 34.763 45.0303 34.7506 45.1106C34.7319 45.0921 34.7319 45.123 34.7133 45.1168H34.7008Z" fill="white"/>
<path fill-rule="evenodd" clip-rule="evenodd" d="M35.9835 59.8466C35.9835 59.8466 35.9711 59.8528 35.9648 59.8528C35.9648 59.8404 35.9773 59.8342 35.9835 59.8466Z" fill="white"/>
<path fill-rule="evenodd" clip-rule="evenodd" d="M35.6974 58.6094C35.6974 58.6094 35.6725 58.6279 35.6787 58.6094C35.6912 58.6094 35.6912 58.6094 35.6974 58.6094Z" fill="white"/>
<path fill-rule="evenodd" clip-rule="evenodd" d="M35.6652 58.5796C35.6652 58.5796 35.6527 58.5796 35.6465 58.5796C35.6465 58.5672 35.6652 58.5672 35.6652 58.5796Z" fill="white"/>
<path fill-rule="evenodd" clip-rule="evenodd" d="M35.5776 58.7711C35.5776 58.7711 35.559 58.7835 35.5527 58.7711C35.5527 58.7588 35.5652 58.7711 35.5776 58.7711Z" fill="white"/>
<path fill-rule="evenodd" clip-rule="evenodd" d="M35.5413 58.5742C35.5413 58.5742 35.5226 58.5866 35.5039 58.5866C35.5039 58.5742 35.5288 58.5742 35.5413 58.5742Z" fill="white"/>
<path fill-rule="evenodd" clip-rule="evenodd" d="M35.4282 59.5404C35.4282 59.5404 35.3722 59.5589 35.3535 59.5404C35.3784 59.5527 35.4033 59.5342 35.4282 59.5404Z" fill="white"/>
<path fill-rule="evenodd" clip-rule="evenodd" d="M35.3789 59.1156C35.3789 59.1156 35.3104 59.1156 35.2793 59.1279C35.2793 59.1032 35.3229 59.1279 35.3353 59.1094C35.3415 59.1094 35.3478 59.1094 35.354 59.1217C35.3602 59.1217 35.3727 59.1032 35.3789 59.1217V59.1156Z" fill="white"/>
<path fill-rule="evenodd" clip-rule="evenodd" d="M35.0867 59.0547C35.0867 59.0547 35.0867 59.0732 35.0742 59.0732C35.0742 59.0732 35.0742 59.0609 35.0742 59.0547C35.0742 59.0547 35.0804 59.0547 35.0867 59.0547Z" fill="white"/>
<path fill-rule="evenodd" clip-rule="evenodd" d="M34.968 59.2031C34.968 59.2031 34.9058 59.2217 34.8809 59.2031C34.8809 59.2031 34.8809 59.2155 34.8685 59.2093C34.856 59.2093 34.8187 59.2093 34.856 59.2093C34.8934 59.197 34.9245 59.2093 34.968 59.2031Z" fill="white"/>
<path fill-rule="evenodd" clip-rule="evenodd" d="M34.9487 58.9806C34.9487 58.9806 34.9363 58.9868 34.9238 58.9868C34.9238 58.9744 34.9425 58.9744 34.9487 58.9806Z" fill="white"/>
<path fill-rule="evenodd" clip-rule="evenodd" d="M34.9257 59.5602C34.9257 59.5602 34.907 59.5602 34.8945 59.5602C34.9008 59.5602 34.9132 59.5478 34.9257 59.5602Z" fill="white"/>
<path fill-rule="evenodd" clip-rule="evenodd" d="M34.9307 59.0547C34.9307 59.0547 34.9058 59.0609 34.8934 59.0732C34.8872 59.0547 34.9183 59.0609 34.9307 59.0547Z" fill="white"/>
<path fill-rule="evenodd" clip-rule="evenodd" d="M34.9123 58.9922C34.9123 58.9922 34.8874 59.0045 34.875 59.0045C34.8812 58.9922 34.8999 58.9984 34.9123 58.9922Z" fill="white"/>
<path fill-rule="evenodd" clip-rule="evenodd" d="M34.894 59.6641C34.894 59.6641 34.8816 59.6764 34.8691 59.6826C34.8691 59.6702 34.8816 59.6702 34.894 59.6641Z" fill="white"/>
<path fill-rule="evenodd" clip-rule="evenodd" d="M34.8806 59.5626C34.8806 59.5626 34.837 59.5688 34.8184 59.5688C34.8433 59.5565 34.8557 59.5565 34.8806 59.5626Z" fill="white"/>
<path fill-rule="evenodd" clip-rule="evenodd" d="M34.8685 59.0036C34.8685 59.0036 34.8312 59.0036 34.8125 59.0036C34.8249 58.9912 34.8498 59.0159 34.8685 59.0036Z" fill="white"/>
<path fill-rule="evenodd" clip-rule="evenodd" d="M34.8315 59.208C34.8315 59.208 34.8129 59.2142 34.8066 59.2204C34.8066 59.2018 34.8191 59.208 34.8315 59.208Z" fill="white"/>
<path fill-rule="evenodd" clip-rule="evenodd" d="M34.8003 59.1656C34.8003 59.1656 34.7878 59.1656 34.7754 59.1656C34.7754 59.1533 34.7941 59.1656 34.8003 59.1656Z" fill="white"/>
<path fill-rule="evenodd" clip-rule="evenodd" d="M34.7755 59.11C34.7755 59.11 34.7506 59.1224 34.7569 59.0977C34.7631 59.0977 34.7569 59.1038 34.7569 59.11C34.7631 59.11 34.7631 59.1038 34.7755 59.11Z" fill="white"/>
<path fill-rule="evenodd" clip-rule="evenodd" d="M34.6764 59.616C34.6764 59.616 34.6515 59.6222 34.6328 59.616C34.6453 59.616 34.6639 59.6099 34.6764 59.616Z" fill="white"/>
<path fill-rule="evenodd" clip-rule="evenodd" d="M34.6641 59.6406C34.6641 59.6406 34.6454 59.653 34.6517 59.6406H34.6641Z" fill="white"/>
<path fill-rule="evenodd" clip-rule="evenodd" d="M34.6382 59.8752C34.6382 59.8752 34.6257 59.8875 34.6133 59.8813C34.6133 59.869 34.632 59.869 34.6382 59.8752Z" fill="white"/>
<path fill-rule="evenodd" clip-rule="evenodd" d="M35.2474 59.8617C35.2474 59.8617 35.235 59.8679 35.2288 59.8802C35.2163 59.8617 35.2039 59.8802 35.1914 59.8679C35.2101 59.8493 35.2225 59.8679 35.2474 59.8617Z" fill="white"/>
<path fill-rule="evenodd" clip-rule="evenodd" d="M34.8999 59.4794C34.8999 59.4794 34.8936 59.4732 34.8874 59.4794C34.8874 59.4732 34.8874 59.4732 34.8874 59.467C34.8688 59.467 34.8625 59.467 34.8501 59.467C34.8501 59.467 34.8501 59.4609 34.8501 59.4547C34.8314 59.4794 34.8127 59.4423 34.7754 59.4547C34.8127 59.43 34.8874 59.4485 34.9185 59.4423C34.9185 59.4609 34.8874 59.4423 34.8812 59.4609C34.8812 59.4732 34.8999 59.4609 34.8936 59.4856L34.8999 59.4794Z" fill="white"/>
<path fill-rule="evenodd" clip-rule="evenodd" d="M34.8679 59.0602C34.8679 59.0725 34.8555 59.0602 34.8555 59.0602C34.8555 59.0478 34.899 59.0602 34.8741 59.0602H34.8679Z" fill="white"/>
<path fill-rule="evenodd" clip-rule="evenodd" d="M34.6384 59.1119C34.6384 59.1119 34.6384 59.0996 34.6384 59.0934C34.6197 59.0934 34.5886 59.0934 34.5762 59.081C34.6011 59.0687 34.6509 59.0996 34.6695 59.0687C34.6695 59.0687 34.682 59.0687 34.682 59.081C34.738 59.0501 34.794 59.081 34.8563 59.0625C34.8314 59.1119 34.7753 59.044 34.7442 59.0934C34.7193 59.0934 34.6758 59.081 34.6384 59.1119Z" fill="white"/>
<path fill-rule="evenodd" clip-rule="evenodd" d="M34.6573 59.6787C34.6573 59.6787 34.6449 59.691 34.6387 59.6972C34.6387 59.6972 34.6511 59.6663 34.6573 59.6787Z" fill="white"/>
<path fill-rule="evenodd" clip-rule="evenodd" d="M40.8935 59.9993C40.8935 59.9993 40.9246 59.9808 40.9371 59.9808C40.9744 59.9808 40.9993 59.9993 41.0366 59.987C41.0678 59.9808 41.0989 59.9561 41.13 59.9499C41.1549 59.9499 41.1611 59.9375 41.1798 59.9314C41.2234 59.9128 41.2607 59.9252 41.2856 59.8758C41.3167 59.8449 41.3603 59.8264 41.3852 59.8017C41.3852 59.8017 41.3976 59.8017 41.4039 59.8017C41.4786 59.7337 41.5221 59.6164 41.603 59.567C41.6093 59.5423 41.6155 59.5052 41.6279 59.4682C41.6342 59.4558 41.6466 59.4435 41.6528 59.4311C41.6715 59.3755 41.6528 59.3076 41.684 59.2644C41.684 59.252 41.684 59.2459 41.684 59.2397C41.684 59.1285 41.6715 59.0359 41.684 58.9494C41.6591 58.9 41.6653 58.8382 41.6466 58.795C41.6342 58.7641 41.6155 58.7394 41.603 58.7085C41.5844 58.6777 41.5719 58.653 41.5595 58.6159C41.5595 58.585 41.5408 58.5789 41.5346 58.548C41.5097 58.5294 41.491 58.4986 41.4661 58.48C41.4661 58.4677 41.4599 58.4615 41.4599 58.4492C41.4101 58.3936 41.3541 58.3195 41.2856 58.3009C41.2794 58.3009 41.2669 58.3009 41.2607 58.3009C41.2109 58.3009 41.13 58.2886 41.0989 58.2454C41.0864 58.2454 41.0927 58.2515 41.0802 58.2454C41.0802 58.2268 41.0491 58.1836 41.0242 58.1836C41.018 58.1836 40.9993 58.2145 40.9806 58.2207C40.9557 58.2268 40.9246 58.1898 40.9059 58.1959C40.8935 58.1959 40.881 58.2268 40.8686 58.233C40.8375 58.2454 40.7752 58.233 40.7503 58.233C40.7317 58.2268 40.7254 58.2021 40.7068 58.2083C40.6943 58.2083 40.6819 58.233 40.6819 58.2701C40.6445 58.3442 40.5387 58.2886 40.4765 58.3195C40.4329 58.2948 40.3893 58.338 40.3458 58.3318C40.3396 58.3318 40.3271 58.3195 40.3209 58.3195C40.3084 58.3195 40.2835 58.3318 40.2649 58.338C40.2337 58.3442 40.2026 58.3442 40.1777 58.3565C40.1342 58.3133 40.1093 58.3627 40.0719 58.3565C40.0595 58.3565 40.047 58.3442 40.0346 58.3442C40.0221 58.3442 40.0097 58.3565 39.9972 58.3565C39.9848 58.3565 39.9723 58.3442 39.9599 58.3442C39.9474 58.3442 39.9412 58.3503 39.935 58.3503C39.9225 58.3503 39.9163 58.338 39.9101 58.338C39.8976 58.338 39.8852 58.3565 39.8727 58.3565C39.8292 58.3627 39.7856 58.3442 39.742 58.3812C39.6674 58.3503 39.6051 58.3998 39.5242 58.3689C39.5055 58.375 39.4869 58.3812 39.462 58.375C39.462 58.375 39.462 58.3874 39.4495 58.3874C39.4059 58.375 39.3561 58.4121 39.3126 58.3936C39.3126 58.3936 39.3126 58.4059 39.3064 58.4059C39.2441 58.3874 39.1632 58.3812 39.1134 58.4059C39.0761 58.3812 39.0325 58.4059 38.9827 58.4059C38.9578 58.4059 38.9391 58.3936 38.9205 58.3998C38.8769 58.4121 38.8271 58.3998 38.7835 58.3998C38.7711 58.3998 38.7586 58.4121 38.7462 58.4183C38.7275 58.4183 38.7026 58.4121 38.684 58.4183C38.5968 58.443 38.4972 58.4245 38.4225 58.4245C38.3976 58.4245 38.379 58.4368 38.3541 58.443C38.3105 58.4492 38.2669 58.4306 38.2234 58.4306C38.2109 58.4306 38.2047 58.443 38.1922 58.443C38.1674 58.443 38.1425 58.443 38.1176 58.443C38.0491 58.443 37.9869 58.4677 37.9184 58.443C37.8375 58.4739 37.7192 58.4615 37.6259 58.4677C37.6072 58.4924 37.5823 58.4677 37.5636 58.4739C37.4952 58.4862 37.4142 58.5109 37.3396 58.4924C37.047 58.5356 36.742 58.5171 36.4495 58.5665C36.4246 58.548 36.3935 58.5603 36.3686 58.5665C36.3686 58.5541 36.3499 58.5542 36.3437 58.5542C36.3064 58.585 36.2628 58.5541 36.213 58.5665C36.2005 58.5974 36.1757 58.5727 36.157 58.5974C36.1508 58.5789 36.1694 58.585 36.157 58.5727C36.1259 58.6221 36.0263 58.6036 35.9827 58.6159V58.6221C35.9703 58.6097 35.964 58.6344 35.9516 58.6344C35.8707 58.6344 35.8084 58.69 35.74 58.7085C35.7337 58.7024 35.7088 58.6777 35.7026 58.6962C35.7151 58.6962 35.7337 58.6962 35.7275 58.7209C35.7088 58.7147 35.6777 58.7209 35.6653 58.7394C35.6404 58.7394 35.6279 58.7271 35.603 58.7456C35.603 58.7456 35.603 58.7703 35.5968 58.7703C35.5595 58.758 35.5408 58.7765 35.5097 58.7703C35.4972 58.7888 35.4599 58.795 35.4474 58.7888C35.435 58.795 35.4599 58.8074 35.4474 58.8135C35.4163 58.8197 35.3914 58.8259 35.3603 58.8135C35.3541 58.8259 35.3478 58.8382 35.3354 58.8382C35.3292 58.8382 35.3354 58.8197 35.3292 58.8259C35.3167 58.8382 35.3354 58.8444 35.3292 58.8629C35.3167 58.8691 35.3167 58.8815 35.3105 58.8938C35.2918 58.8815 35.2732 58.9062 35.2545 58.9123C35.2358 58.9185 35.2109 58.9124 35.1922 58.9185C35.1736 58.9185 35.1674 58.9371 35.1487 58.9371C35.1362 58.9371 35.1238 58.9185 35.1051 58.9247C35.0989 58.9247 35.1051 58.9432 35.0989 58.9432C35.0429 58.9432 34.9869 58.9556 34.9433 58.9803C35.0055 58.9432 35.0553 58.9803 35.1113 58.9494C35.1176 58.9679 35.1362 58.9371 35.1425 58.9618C35.1425 58.9494 35.1362 58.9432 35.1425 58.9432C35.1425 58.9432 35.1425 58.9494 35.1549 58.9432C35.1487 58.9679 35.1549 58.9679 35.1611 58.9865C35.2109 58.9865 35.2483 58.9741 35.2918 58.9741C35.2981 58.9741 35.2918 58.9618 35.2918 58.9556C35.3105 58.9556 35.323 58.9556 35.3416 58.9494C35.3416 58.9679 35.3603 58.9741 35.3541 58.9988C35.2981 58.9988 35.2234 59.0297 35.1549 59.0359C35.1362 59.0359 35.1113 59.0173 35.0989 59.0482C35.13 59.042 35.1549 59.0729 35.1798 59.0729C35.2109 59.0729 35.2483 59.0482 35.2856 59.0544C35.2918 59.0544 35.2981 59.0667 35.3043 59.0667C35.3105 59.0667 35.323 59.0544 35.3292 59.0544C35.3354 59.0544 35.3354 59.0667 35.3416 59.0667C35.3541 59.0667 35.3665 59.0482 35.3852 59.0482C35.4101 59.0482 35.435 59.0667 35.4661 59.0606C35.4661 59.0667 35.4661 59.0853 35.4661 59.0915C35.435 59.0915 35.4288 59.0915 35.3914 59.0915C35.3914 59.0915 35.3976 59.0915 35.3914 59.1038C35.379 59.1038 35.379 59.0976 35.3665 59.1038C35.3914 59.1038 35.3914 59.1347 35.379 59.1532C35.3167 59.1532 35.2358 59.1656 35.1798 59.1532C35.1798 59.1656 35.1674 59.1779 35.1611 59.1779C35.0989 59.1903 35.0366 59.1779 34.9682 59.1903C35.0429 59.215 35.1176 59.2026 35.2047 59.1903C35.2047 59.1903 35.2047 59.2088 35.2109 59.2026C35.2483 59.1903 35.2918 59.1964 35.3167 59.1903C35.3292 59.2088 35.3416 59.2273 35.3541 59.252C35.4412 59.2335 35.5097 59.3138 35.5906 59.3138C35.5906 59.3261 35.5968 59.3323 35.5968 59.3385C35.5906 59.3508 35.5844 59.3632 35.5781 59.3755C35.5657 59.3755 35.547 59.3817 35.5346 59.3755C35.4661 59.4126 35.3603 59.3879 35.2732 59.4126C35.2607 59.4373 35.2732 59.4497 35.2732 59.4682C35.3167 59.4805 35.3541 59.4497 35.3976 59.4805C35.4163 59.5299 35.3976 59.567 35.3603 59.5732C35.3043 59.5732 35.2047 59.5732 35.1611 59.567C34.9931 59.5979 34.8188 59.5855 34.6445 59.6102C34.7441 59.6226 34.8313 59.5917 34.9184 59.6102C34.9184 59.5979 34.9184 59.5979 34.9308 59.5979C35.018 59.5979 35.1113 59.5979 35.186 59.5855C35.2171 59.6164 35.2794 59.5855 35.3105 59.6102C35.3043 59.6596 35.2794 59.6843 35.242 59.6967C35.2732 59.6967 35.3043 59.709 35.3354 59.7152C35.3603 59.7152 35.3976 59.7029 35.4101 59.7152V59.7276C35.3976 59.7276 35.4288 59.7276 35.4288 59.7276C35.4412 59.7276 35.4412 59.7152 35.4537 59.7214C35.4723 59.7214 35.4723 59.7214 35.4848 59.7337C35.5532 59.7399 35.6155 59.7276 35.684 59.7337C35.6902 59.7337 35.7026 59.7337 35.7026 59.7337C35.7088 59.7337 35.7026 59.7461 35.7088 59.7461C35.7088 59.7461 35.7088 59.7337 35.7213 59.7399C35.7462 59.7399 35.7773 59.7461 35.8022 59.7461C35.8644 59.7461 35.9454 59.7584 35.9952 59.7523C36.0076 59.7523 35.9952 59.7708 36.0076 59.7708C36.101 59.7831 36.1943 59.7893 36.2877 59.7955C36.2939 59.7955 36.2877 59.814 36.3001 59.814C36.3126 59.814 36.3126 59.7955 36.325 59.7955C36.3313 59.7955 36.3375 59.8079 36.3437 59.8202C36.4557 59.8387 36.5678 59.8202 36.686 59.814C36.7918 59.8079 36.8976 59.8079 37.0035 59.8017C37.0844 59.8017 37.1591 59.777 37.2337 59.7955C37.3271 59.7831 37.4142 59.7832 37.5014 59.777C37.5636 59.777 37.6383 59.7832 37.6943 59.777C37.7068 59.777 37.713 59.7646 37.7254 59.7646C37.7441 59.7646 37.7566 59.777 37.7752 59.777C37.8188 59.777 37.8624 59.7584 37.9122 59.7584C37.962 59.7584 38.0118 59.7584 38.0615 59.7584C38.0864 59.7584 38.1176 59.7461 38.1425 59.7461C38.1611 59.7461 38.1798 59.7584 38.1985 59.7584C38.2483 59.7584 38.3043 59.7399 38.3541 59.7399C38.4225 59.7399 38.491 59.7646 38.5595 59.7399C38.6342 59.7523 38.7275 59.7523 38.796 59.7399C38.852 59.777 38.9142 59.7399 38.9827 59.7461C38.9889 59.7461 38.9952 59.7523 39.0014 59.7584C39.101 59.7832 39.213 59.7399 39.2939 59.7584C39.325 59.7337 39.3499 59.7584 39.381 59.7646C39.4122 59.7646 39.4371 59.7523 39.4682 59.7523C39.4806 59.7523 39.4869 59.7584 39.4931 59.7646C39.5242 59.7646 39.5491 59.7523 39.5864 59.7523C39.6362 59.7523 39.686 59.7893 39.742 59.7646C39.7856 59.7832 39.8479 59.8017 39.8976 59.777C39.9786 59.8079 40.0657 59.777 40.1528 59.7893C40.184 59.7893 40.2088 59.8202 40.24 59.7955C40.2711 59.8202 40.3084 59.8079 40.3396 59.8079C40.3769 59.8079 40.4142 59.8264 40.4516 59.8326C40.5076 59.8387 40.5698 59.8202 40.6134 59.8696C40.6321 59.9684 40.6694 59.8202 40.713 59.8449C40.7379 59.8634 40.7317 59.8943 40.7441 59.9314C40.7628 59.9437 40.7815 59.9314 40.8064 59.9314C40.8313 59.9437 40.8437 59.987 40.8748 59.987L40.8935 59.9993ZM35.4412 58.9123V58.9062C35.4474 58.8876 35.4599 58.9185 35.4412 58.9123ZM35.435 58.9185C35.435 58.9185 35.3727 58.9432 35.3541 58.9185C35.3541 58.9185 35.3541 58.9432 35.3541 58.9494C35.3416 58.9371 35.3292 58.9309 35.3105 58.9309C35.3105 58.8938 35.3479 58.9185 35.3479 58.8815C35.3603 58.8815 35.3665 58.8815 35.379 58.8691C35.4101 58.8815 35.4163 58.8568 35.4412 58.8691C35.4412 58.8876 35.4412 58.8876 35.4412 58.9062L35.435 58.9185Z" fill="white"/>
<path fill-rule="evenodd" clip-rule="evenodd" d="M42.8933 23.0742C42.8933 23.0742 42.8933 23.1113 42.8933 23.136C42.8871 23.1298 42.8871 23.0927 42.8933 23.0742Z" fill="white"/>
<path fill-rule="evenodd" clip-rule="evenodd" d="M41.4855 23.6836C41.4855 23.6836 41.4855 23.7577 41.4668 23.7515C41.4668 23.7206 41.4792 23.7083 41.4855 23.6836Z" fill="white"/>
<path fill-rule="evenodd" clip-rule="evenodd" d="M41.4356 23.7734C41.4356 23.7734 41.4293 23.8228 41.4231 23.8414C41.4107 23.8414 41.4231 23.7858 41.4356 23.7734Z" fill="white"/>
<path fill-rule="evenodd" clip-rule="evenodd" d="M41.561 24.082C41.561 24.082 41.561 24.1376 41.5486 24.15C41.5423 24.1438 41.5548 24.1006 41.561 24.082Z" fill="white"/>
<path fill-rule="evenodd" clip-rule="evenodd" d="M41.3423 24.1602C41.3423 24.1602 41.3423 24.2281 41.3298 24.2775C41.3236 24.259 41.336 24.2034 41.3423 24.1602Z" fill="white"/>
<path fill-rule="evenodd" clip-rule="evenodd" d="M42.2217 24.7031C42.2092 24.7587 42.203 24.8822 42.1719 24.9193C42.203 24.8513 42.1968 24.7649 42.2217 24.7031Z" fill="white"/>
<path fill-rule="evenodd" clip-rule="evenodd" d="M41.7717 24.7656C41.7841 24.8459 41.7219 24.9694 41.7219 25.0682C41.697 25.0744 41.7468 24.9324 41.7405 24.9015C41.7468 24.8768 41.753 24.8644 41.7654 24.8459C41.7654 24.8212 41.7654 24.7903 41.7779 24.7656H41.7717Z" fill="white"/>
<path fill-rule="evenodd" clip-rule="evenodd" d="M41.5121 25.6429C41.5121 25.6429 41.5308 25.6491 41.5245 25.6738C41.5245 25.6799 41.5121 25.6799 41.5059 25.6738V25.6367L41.5121 25.6429Z" fill="white"/>
<path fill-rule="evenodd" clip-rule="evenodd" d="M41.5741 26.0491C41.5803 26.1109 41.5492 26.2468 41.5181 26.3147C41.5181 26.3271 41.5243 26.3271 41.5181 26.3456C41.5118 26.3888 41.4807 26.4876 41.5056 26.3888C41.5181 26.2653 41.5554 26.1788 41.5741 26.043V26.0491Z" fill="white"/>
<path fill-rule="evenodd" clip-rule="evenodd" d="M41.3428 26.043C41.3428 26.043 41.3428 26.08 41.3366 26.1109C41.3303 26.0986 41.3366 26.0491 41.3428 26.043Z" fill="white"/>
<path fill-rule="evenodd" clip-rule="evenodd" d="M41.8976 26.2617C41.8976 26.2617 41.8851 26.3235 41.8789 26.3482C41.8789 26.3297 41.8789 26.2802 41.8976 26.2617Z" fill="white"/>
<path fill-rule="evenodd" clip-rule="evenodd" d="M41.4057 26.1328C41.4057 26.1328 41.3995 26.2131 41.3995 26.244C41.3746 26.2687 41.3995 26.1699 41.4057 26.1328Z" fill="white"/>
<path fill-rule="evenodd" clip-rule="evenodd" d="M41.3308 26.1602C41.3308 26.1602 41.3246 26.2343 41.3184 26.2775C41.3184 26.2528 41.3308 26.1972 41.3308 26.1602Z" fill="white"/>
<path fill-rule="evenodd" clip-rule="evenodd" d="M41.9782 26.3789C41.9782 26.3789 41.9782 26.4221 41.9782 26.453C41.9657 26.4468 41.9782 26.4036 41.9782 26.3789Z" fill="white"/>
<path fill-rule="evenodd" clip-rule="evenodd" d="M41.8655 26.3945C41.8655 26.4254 41.8406 26.5366 41.8281 26.586C41.8281 26.518 41.8468 26.4686 41.8655 26.3945Z" fill="white"/>
<path fill-rule="evenodd" clip-rule="evenodd" d="M41.3124 26.2969C41.3186 26.3525 41.2875 26.4204 41.2812 26.4574C41.2812 26.408 41.3186 26.3463 41.3124 26.2969Z" fill="white"/>
<path fill-rule="evenodd" clip-rule="evenodd" d="M41.4868 26.4688C41.4868 26.4688 41.4868 26.5182 41.4868 26.549C41.4681 26.549 41.4868 26.4996 41.4868 26.4688Z" fill="white"/>
<path fill-rule="evenodd" clip-rule="evenodd" d="M41.4239 26.543C41.4239 26.543 41.4239 26.5862 41.4114 26.6233C41.4052 26.6109 41.4239 26.5677 41.4239 26.543Z" fill="white"/>
<path fill-rule="evenodd" clip-rule="evenodd" d="M41.355 26.6172C41.355 26.6172 41.355 26.7037 41.3301 26.6789C41.3301 26.6604 41.3425 26.6604 41.3487 26.6666C41.355 26.6419 41.3488 26.6419 41.355 26.6172Z" fill="white"/>
<path fill-rule="evenodd" clip-rule="evenodd" d="M41.6412 26.8918C41.6786 26.7683 41.635 26.8424 41.6412 26.8918Z" fill="white"/>
<path fill-rule="evenodd" clip-rule="evenodd" d="M41.7788 27.0312C41.7788 27.0745 41.7664 27.1115 41.7539 27.1548C41.7539 27.1239 41.7726 27.0498 41.7788 27.0312Z" fill="white"/>
<path fill-rule="evenodd" clip-rule="evenodd" d="M41.7976 27.0625C41.7976 27.0625 41.7976 27.1304 41.7852 27.1119L41.7976 27.0625Z" fill="white"/>
<path fill-rule="evenodd" clip-rule="evenodd" d="M42.0088 27.207C42.0088 27.207 42.0088 27.2503 42.0026 27.275C41.9964 27.2626 42.0026 27.2132 42.0088 27.207Z" fill="white"/>
<path fill-rule="evenodd" clip-rule="evenodd" d="M41.929 27.4648C41.929 27.5513 41.9041 27.5698 41.929 27.4648Z" fill="white"/>
<path fill-rule="evenodd" clip-rule="evenodd" d="M42.419 25.3203C42.419 25.3203 42.419 25.3574 42.419 25.3697C42.3941 25.3944 42.4003 25.45 42.3817 25.4932C42.3755 25.4377 42.4066 25.3944 42.4128 25.3203H42.419Z" fill="white"/>
<path fill-rule="evenodd" clip-rule="evenodd" d="M41.8038 26.3029C41.8038 26.3029 41.7914 26.3215 41.7914 26.3462C41.7851 26.3462 41.7914 26.3338 41.7789 26.3338C41.7665 26.3832 41.7665 26.4079 41.754 26.4512C41.754 26.4512 41.754 26.4388 41.7416 26.4388C41.754 26.5006 41.7042 26.55 41.6855 26.6673C41.6855 26.5562 41.754 26.3215 41.7727 26.2227C41.7851 26.2412 41.754 26.3215 41.7727 26.3338C41.7851 26.3338 41.7851 26.2844 41.8038 26.3029Z" fill="white"/>
<path fill-rule="evenodd" clip-rule="evenodd" d="M41.3686 26.3157C41.381 26.3157 41.3623 26.3589 41.3561 26.3651C41.3437 26.3527 41.381 26.2292 41.3623 26.3157H41.3686Z" fill="white"/>
<path fill-rule="evenodd" clip-rule="evenodd" d="M41.2622 27.0319H41.2435C41.2311 27.0875 41.2124 27.1863 41.1875 27.2234C41.1875 27.1493 41.256 27.001 41.2373 26.9455C41.2497 26.9207 41.2497 26.9207 41.256 26.9022C41.2684 26.7293 41.3369 26.5502 41.3556 26.3711C41.3867 26.4576 41.2809 26.6243 41.312 26.7231C41.312 26.7355 41.312 26.7231 41.312 26.7108C41.2933 26.7911 41.256 26.9269 41.2622 27.0319Z" fill="white"/>
<path fill-rule="evenodd" clip-rule="evenodd" d="M41.8286 27.0938C41.8286 27.0938 41.8286 27.137 41.8286 27.1555C41.8286 27.1617 41.8099 27.1123 41.8286 27.0938Z" fill="white"/>
<path fill-rule="evenodd" clip-rule="evenodd" d="M49.2227 11.9881C49.2663 11.9757 49.3098 11.9449 49.3534 11.9325C49.4592 11.9016 49.5526 11.8955 49.6584 11.8522C49.7517 11.8213 49.8264 11.7719 49.926 11.7411C49.9945 11.7164 50.0194 11.704 50.0629 11.6855C50.1999 11.6299 50.3181 11.6052 50.3617 11.5434C50.4488 11.4878 50.5671 11.4323 50.648 11.3829C50.6604 11.3767 50.6916 11.3705 50.6916 11.3643C50.8907 11.2346 50.9903 11.0864 51.2331 10.9629C51.2455 10.932 51.2517 10.8888 51.2891 10.8456C51.3015 10.827 51.3451 10.8023 51.3575 10.7838C51.3949 10.7159 51.3264 10.6603 51.4136 10.5923C51.4136 10.58 51.3949 10.58 51.3887 10.5738C51.3575 10.4688 51.2953 10.3885 51.2953 10.3021C51.2144 10.2712 51.2144 10.2094 51.1459 10.1786C51.1024 10.16 51.0339 10.1477 50.9841 10.1353C50.9281 10.1168 50.8721 10.1106 50.8223 10.0859C50.816 10.055 50.7538 10.0674 50.7289 10.0427C50.6604 10.0427 50.5733 10.0427 50.5048 10.0365C50.4924 10.0303 50.4737 10.0242 50.4675 10.0118C50.2932 9.99946 50.119 9.98093 49.8949 10.018C49.87 10.018 49.8264 10.0303 49.8077 10.0365C49.6459 10.0859 49.397 10.1415 49.3036 10.123C49.2725 10.123 49.2787 10.1353 49.2476 10.1415C49.2227 10.1292 49.1293 10.1106 49.0546 10.1353C49.0297 10.1415 48.9924 10.1847 48.9364 10.2033C48.8555 10.2341 48.7683 10.2218 48.6936 10.2465C48.6625 10.2588 48.6314 10.2959 48.6003 10.3083C48.5131 10.3515 48.3202 10.3947 48.2393 10.4071C48.177 10.4194 48.1459 10.4071 48.1024 10.4194C48.0588 10.4379 48.0339 10.4688 48.0526 10.4997C47.953 10.6047 47.6231 10.6418 47.4488 10.722C47.3057 10.7344 47.1874 10.8147 47.0567 10.8456C47.0318 10.8517 46.9945 10.8517 46.9696 10.8579C46.926 10.8703 46.87 10.9011 46.814 10.9258C46.7206 10.9629 46.6335 10.9876 46.5526 11.0185C46.4156 11.0123 46.3347 11.0864 46.2289 11.1173C46.1916 11.1296 46.148 11.1235 46.1044 11.1358C46.0671 11.1482 46.036 11.1667 45.9924 11.1791C45.9488 11.1914 45.9053 11.1852 45.8679 11.1976C45.8368 11.2038 45.8181 11.2223 45.7932 11.2285C45.7621 11.2346 45.7372 11.2285 45.7061 11.2408C45.6687 11.2532 45.6438 11.2779 45.6065 11.2902C45.482 11.3334 45.3326 11.3582 45.2206 11.4199C44.9841 11.457 44.8845 11.5311 44.3368 11.6608C44.2248 11.704 44.1438 11.7287 44.0194 11.7596C43.9945 11.7719 44.0007 11.7781 43.9634 11.7905C43.926 11.7966 43.9011 11.8028 43.8824 11.809C43.8326 12.0251 43.8078 12.266 43.7455 12.4822C43.7455 12.4945 43.7455 12.5069 43.7455 12.5192C43.7206 12.618 43.6957 12.6983 43.677 12.7724C43.6584 12.8342 43.6521 12.8836 43.6397 12.933C43.6148 13.038 43.6024 13.1368 43.5961 13.2171C43.5463 13.3283 43.5401 13.4703 43.509 13.6185C43.4965 13.6865 43.4654 13.7544 43.4592 13.8162C43.4405 13.9459 43.3907 14.1064 43.3721 14.2299C43.3721 14.2485 43.3658 14.3226 43.3658 14.3411C43.3534 14.4029 43.3285 14.4708 43.316 14.5387C43.2849 14.8043 43.1978 15.1007 43.148 15.3354C43.1293 15.4034 43.1356 15.4713 43.1231 15.5516C43.1044 15.6875 43.0484 15.8171 43.0235 15.9468C43.0235 15.9654 43.0173 16.0271 43.0173 16.0457C43.0048 16.1259 42.9799 16.2001 42.9613 16.2803C42.9177 16.4841 42.899 16.6941 42.8306 16.8856C42.8057 17.1388 42.7185 17.4908 42.6563 17.7811C42.6687 17.849 42.6314 17.9046 42.619 17.9725C42.5816 18.1763 42.5505 18.4481 42.4882 18.6519C42.3326 19.5597 42.1024 20.4923 41.953 21.3878C41.9219 21.4557 41.9094 21.5669 41.9032 21.6287C41.8907 21.641 41.8783 21.6781 41.8721 21.7089C41.8721 21.8263 41.8223 21.9622 41.7974 22.1042C41.816 22.1474 41.7787 22.2277 41.7849 22.2833C41.7663 22.3018 41.7787 22.2524 41.76 22.2833C41.7912 22.3883 41.6978 22.6909 41.6853 22.8268C41.6853 22.8144 41.6978 22.8144 41.6916 22.8268C41.6729 22.8577 41.6916 22.8762 41.6853 22.9132C41.6356 23.1665 41.648 23.3579 41.6169 23.5741C41.6044 23.5988 41.5671 23.6667 41.5795 23.6976C41.592 23.6605 41.5982 23.6111 41.6231 23.6173C41.6044 23.6791 41.592 23.7655 41.5982 23.8149C41.5795 23.8952 41.5609 23.9323 41.5609 24.0064C41.5609 24.0249 41.5858 23.994 41.5795 24.0311C41.5422 24.1422 41.5484 24.1978 41.5173 24.2966C41.5297 24.3275 41.5111 24.451 41.4924 24.4819C41.4924 24.519 41.5173 24.451 41.5173 24.4819C41.5048 24.5746 41.4924 24.661 41.4613 24.7413C41.4613 24.766 41.4737 24.7784 41.4737 24.8154C41.4737 24.8401 41.4551 24.8031 41.4551 24.8401C41.4551 24.8772 41.4799 24.8216 41.4924 24.8278C41.4924 24.8772 41.5048 24.871 41.5111 24.8957C41.4862 24.9575 41.4986 25.0069 41.4924 25.0625C41.4924 25.1242 41.4675 25.186 41.4613 25.2477C41.4613 25.2971 41.4613 25.3218 41.4551 25.3774C41.4426 25.4207 41.4177 25.4577 41.4115 25.5071C41.4115 25.5318 41.4302 25.4948 41.4239 25.5318C41.3928 25.7109 41.3555 25.8838 41.3555 26.0197C41.3679 25.8159 41.4364 25.68 41.4426 25.4948C41.4675 25.4701 41.4426 25.4145 41.48 25.396C41.4737 25.3836 41.4551 25.4207 41.4675 25.3836C41.4675 25.3712 41.48 25.3651 41.48 25.3465C41.4986 25.3774 41.5048 25.3404 41.5235 25.328C41.5484 25.1983 41.5733 25.0501 41.5982 24.9328C41.5982 24.9081 41.5795 24.9451 41.5858 24.9204C41.592 24.871 41.6044 24.8339 41.6107 24.7784C41.6293 24.766 41.648 24.729 41.6667 24.7537C41.6293 24.9266 41.6107 25.1674 41.5671 25.3712C41.5546 25.433 41.5235 25.4948 41.5422 25.538C41.5546 25.4454 41.5982 25.3774 41.6231 25.2971C41.648 25.1921 41.648 25.0748 41.6729 24.976C41.6791 24.9451 41.6916 24.9389 41.6978 24.9142C41.6978 24.8957 41.6978 24.8586 41.6978 24.8339C41.704 24.8092 41.7165 24.8092 41.7165 24.7907C41.7227 24.7475 41.7165 24.7104 41.7289 24.661C41.7476 24.5807 41.7787 24.5066 41.7974 24.414C41.8098 24.4016 41.8285 24.414 41.8223 24.4325C41.7974 24.5375 41.7974 24.5499 41.7725 24.661C41.7725 24.6487 41.7849 24.6425 41.7912 24.6487C41.7849 24.6795 41.7725 24.6919 41.7787 24.7166C41.7974 24.6363 41.8285 24.6487 41.8347 24.6795C41.7849 24.8772 41.7476 25.118 41.6978 25.2786C41.6978 25.2971 41.7102 25.3157 41.7102 25.3404C41.6604 25.5812 41.6418 25.68 41.592 25.9271C41.6667 25.7109 41.704 25.4762 41.7538 25.2107C41.76 25.2045 41.7725 25.2107 41.7725 25.186C41.7849 25.0748 41.816 24.9451 41.8285 24.8586L41.9094 24.7598C41.953 24.4819 42.0775 24.3028 42.1335 24.0434C42.1459 24.0434 42.1521 24.0311 42.1646 24.0249C42.1708 24.0496 42.1833 24.0681 42.1833 24.0928C42.177 24.1361 42.1708 24.1793 42.1521 24.2164C42.1397 24.4449 42.0463 24.7475 42.009 25.0254C42.0214 25.0625 42.0463 25.0439 42.0712 25.0254C42.1148 24.8957 42.1086 24.7722 42.1646 24.6363C42.2268 24.5993 42.2517 24.661 42.2331 24.766C42.1957 24.9451 42.1273 25.2539 42.0899 25.3651C42.0028 25.8962 41.8783 26.4088 41.7787 26.9523C41.8534 26.6558 41.8907 26.3779 41.9654 26.1124C41.953 26.1124 41.953 26.1 41.9654 26.0815C42.0277 25.8221 42.0899 25.5318 42.1273 25.2971C42.177 25.2107 42.1833 25.013 42.2393 24.9204C42.2829 24.9575 42.2891 25.0377 42.2766 25.1427C42.2953 25.0377 42.3326 24.9451 42.3575 24.8586C42.3762 24.7907 42.3887 24.661 42.4073 24.6301C42.4073 24.624 42.4198 24.6425 42.4198 24.6301C42.4136 24.661 42.426 24.5807 42.426 24.5746C42.426 24.5375 42.426 24.5437 42.4322 24.4943C42.4447 24.4387 42.4447 24.4387 42.4696 24.4016C42.5194 24.1978 42.5505 24.0002 42.6065 23.8026C42.6127 23.7779 42.619 23.747 42.6252 23.7346C42.6314 23.7161 42.6376 23.7346 42.6439 23.7099C42.6439 23.6976 42.6376 23.6976 42.6439 23.6791C42.6625 23.5988 42.6874 23.5123 42.7061 23.432C42.7497 23.2344 42.8057 23.0059 42.843 22.8453C42.8555 22.8083 42.8617 22.8577 42.8679 22.8144C42.9426 22.518 43.0173 22.2277 43.0858 21.956C43.092 21.9313 43.1044 21.956 43.1107 21.9251C43.1231 21.888 43.0982 21.888 43.1107 21.851C43.1231 21.8325 43.1356 21.8078 43.148 21.8016C43.2414 21.4681 43.2974 21.1099 43.3721 20.7579C43.4468 20.4182 43.509 20.1032 43.5775 19.7944C43.6273 19.5474 43.6646 19.3127 43.7206 19.0965C43.7704 18.8001 43.8264 18.5469 43.8887 18.269C43.9322 18.0713 43.9882 17.8552 44.0194 17.6884C44.0194 17.6576 44.0194 17.6205 44.0318 17.5896C44.0443 17.5402 44.0692 17.4908 44.0816 17.4414C44.1003 17.3302 44.1376 17.1388 44.1563 17.0276L44.2621 16.583C44.2808 16.4965 44.287 16.4162 44.3057 16.3297C44.3181 16.2927 44.343 16.2001 44.3555 16.163C44.3928 16.0024 44.4053 15.8357 44.4488 15.6813C44.4986 15.4775 44.5671 15.2737 44.592 15.0637C44.6542 14.8352 44.7165 14.5634 44.76 14.3411C44.8347 14.1744 44.8409 13.9767 44.8907 13.7791C44.8907 13.7606 44.9032 13.7482 44.9156 13.7235C44.9654 13.5753 44.9903 13.4147 45.0214 13.2603C45.0339 13.1862 45.0463 13.1183 45.0588 13.0627C45.0588 13.0442 45.065 13.0256 45.0775 13.0133C45.0588 12.9762 45.0899 12.9701 45.0961 12.9577V12.9515C45.1148 12.9515 45.121 12.933 45.1397 12.9268C45.1459 12.9268 45.1584 12.9268 45.1646 12.9268C45.177 12.9268 45.1833 12.9207 45.1957 12.9145L45.2082 12.9021C45.2082 12.9021 45.258 12.8836 45.2766 12.8774C45.4198 12.8342 45.5878 12.8218 45.7497 12.7539C45.8866 12.7354 46.0858 12.6983 46.2289 12.6304C46.4903 12.5933 46.7331 12.4822 46.9945 12.4204C47.0816 12.4019 47.1687 12.4019 47.2497 12.3525C47.3492 12.3525 47.4551 12.3031 47.5671 12.2784C47.648 12.2598 47.8098 12.2228 47.9094 12.2043C48.0775 12.1672 48.2704 12.0869 48.4073 12.0993C48.4945 12.1795 48.5567 12.0066 48.6936 11.9881C48.7683 11.9881 48.7683 12.019 48.8057 12.0437C48.8741 12.0437 48.9302 12.0128 48.9862 11.9881C49.0609 11.9757 49.1231 12.0066 49.2165 11.9819L49.2227 11.9881ZM41.6107 24.5375C41.6107 24.5375 41.6044 24.5375 41.5982 24.5437C41.5795 24.519 41.6231 24.4819 41.6107 24.5375ZM41.6107 24.5622C41.592 24.6425 41.592 24.7598 41.5609 24.8092C41.5609 24.8278 41.5858 24.8031 41.5858 24.8278C41.5671 24.8586 41.5484 24.8957 41.536 24.9575C41.4986 24.9575 41.5484 24.8401 41.5173 24.8278C41.5297 24.7845 41.536 24.7598 41.5235 24.7413C41.5546 24.6548 41.536 24.6301 41.5671 24.5622C41.5858 24.5869 41.5858 24.556 41.6107 24.5622Z" fill="white"/>
<path fill-rule="evenodd" clip-rule="evenodd" d="M24.228 23.9297C24.228 23.9297 24.2156 23.9544 24.2031 23.9729C24.2031 23.9606 24.2093 23.9359 24.228 23.9297Z" fill="white"/>
<path fill-rule="evenodd" clip-rule="evenodd" d="M22.7272 23.875C22.7272 23.875 22.696 23.9429 22.6836 23.9306C22.696 23.8997 22.7085 23.8935 22.7272 23.875Z" fill="white"/>
<path fill-rule="evenodd" clip-rule="evenodd" d="M22.6531 23.9453C22.6531 23.9453 22.6282 23.9885 22.622 24.0071C22.6096 24.0009 22.6407 23.9515 22.6531 23.9453Z" fill="white"/>
<path fill-rule="evenodd" clip-rule="evenodd" d="M22.6765 24.2773C22.6765 24.2773 22.664 24.3267 22.6453 24.3391C22.6391 24.3329 22.6702 24.2959 22.6765 24.2773Z" fill="white"/>
<path fill-rule="evenodd" clip-rule="evenodd" d="M22.4404 24.2891C22.4404 24.2891 22.4217 24.3508 22.3906 24.4002C22.3906 24.3755 22.4217 24.3323 22.4404 24.2891Z" fill="white"/>
<path fill-rule="evenodd" clip-rule="evenodd" d="M23.1438 25.0312C23.1189 25.0807 23.0878 25.1856 23.0566 25.2104C23.094 25.1548 23.1127 25.0807 23.1438 25.0312Z" fill="white"/>
<path fill-rule="evenodd" clip-rule="evenodd" d="M22.6969 24.9766C22.6907 25.0507 22.6097 25.1557 22.5849 25.2421C22.56 25.2421 22.6409 25.1186 22.6346 25.0877C22.6471 25.0692 22.6533 25.0568 22.6658 25.0445C22.672 25.0198 22.672 24.9951 22.6969 24.9766Z" fill="white"/>
<path fill-rule="evenodd" clip-rule="evenodd" d="M22.2921 25.7484C22.2921 25.7484 22.3108 25.7607 22.2921 25.7792C22.2859 25.7792 22.2797 25.7792 22.2734 25.7792L22.2859 25.7422L22.2921 25.7484Z" fill="white"/>
<path fill-rule="evenodd" clip-rule="evenodd" d="M22.316 26.1367C22.316 26.1985 22.2787 26.322 22.2414 26.3838C22.2414 26.3961 22.2476 26.3961 22.2414 26.4146C22.2351 26.4579 22.204 26.5443 22.2227 26.4579C22.2414 26.3467 22.2849 26.2602 22.3098 26.1429L22.316 26.1367Z" fill="white"/>
<path fill-rule="evenodd" clip-rule="evenodd" d="M22.093 26.1055C22.093 26.1055 22.093 26.1425 22.0806 26.1734C22.0743 26.1611 22.0806 26.1178 22.093 26.1055Z" fill="white"/>
<path fill-rule="evenodd" clip-rule="evenodd" d="M22.6222 26.3633C22.6222 26.3633 22.6035 26.4189 22.6035 26.4374C22.6035 26.4189 22.6097 26.3756 22.6222 26.3633Z" fill="white"/>
<path fill-rule="evenodd" clip-rule="evenodd" d="M22.1413 26.1992C22.1413 26.1992 22.1289 26.2733 22.1227 26.3042C22.0978 26.3227 22.1289 26.2363 22.1413 26.1992Z" fill="white"/>
<path fill-rule="evenodd" clip-rule="evenodd" d="M22.0679 26.2148C22.0679 26.2148 22.0554 26.289 22.043 26.326C22.043 26.3013 22.0616 26.2519 22.0679 26.2148Z" fill="white"/>
<path fill-rule="evenodd" clip-rule="evenodd" d="M22.7028 26.4766C22.7028 26.4766 22.7028 26.5136 22.7028 26.5383C22.6903 26.5321 22.7028 26.4951 22.7028 26.4766Z" fill="white"/>
<path fill-rule="evenodd" clip-rule="evenodd" d="M22.5842 26.4805C22.5842 26.4805 22.5593 26.604 22.5469 26.6534C22.5531 26.5916 22.5655 26.5484 22.5842 26.4805Z" fill="white"/>
<path fill-rule="evenodd" clip-rule="evenodd" d="M22.0354 26.3477C22.0416 26.3971 22.0105 26.465 21.998 26.5021C21.998 26.4588 22.0354 26.3971 22.0354 26.3477Z" fill="white"/>
<path fill-rule="evenodd" clip-rule="evenodd" d="M22.2096 26.5273C22.2096 26.5273 22.2096 26.5768 22.2034 26.6015C22.1847 26.6015 22.2034 26.5582 22.2096 26.5273Z" fill="white"/>
<path fill-rule="evenodd" clip-rule="evenodd" d="M22.1426 26.5859C22.1426 26.5859 22.1426 26.6292 22.1302 26.66C22.124 26.6477 22.1426 26.6106 22.1426 26.5859Z" fill="white"/>
<path fill-rule="evenodd" clip-rule="evenodd" d="M22.0679 26.6562C22.0679 26.6562 22.0616 26.7365 22.043 26.718C22.043 26.6995 22.0554 26.7057 22.0616 26.7057C22.0679 26.6871 22.0616 26.681 22.0679 26.6624V26.6562Z" fill="white"/>
<path fill-rule="evenodd" clip-rule="evenodd" d="M22.36 26.9139C22.3973 26.8027 22.3538 26.8645 22.36 26.9139Z" fill="white"/>
<path fill-rule="evenodd" clip-rule="evenodd" d="M22.4972 27.043C22.4972 27.08 22.491 27.1109 22.4785 27.1541C22.4785 27.1294 22.491 27.0615 22.4972 27.043Z" fill="white"/>
<path fill-rule="evenodd" clip-rule="evenodd" d="M22.5164 27.0742C22.5164 27.0742 22.5164 27.1298 22.5039 27.1174L22.5164 27.0742Z" fill="white"/>
<path fill-rule="evenodd" clip-rule="evenodd" d="M22.734 27.1992C22.734 27.1992 22.734 27.2363 22.734 27.2548C22.7216 27.2486 22.734 27.2054 22.734 27.1992Z" fill="white"/>
<path fill-rule="evenodd" clip-rule="evenodd" d="M22.6716 27.4141C22.684 27.4635 22.6591 27.482 22.6716 27.4141Z" fill="white"/>
<path fill-rule="evenodd" clip-rule="evenodd" d="M23.2197 25.6172C23.2197 25.6172 23.2135 25.6481 23.2197 25.6604C23.1948 25.6789 23.1886 25.7284 23.1699 25.7592C23.1699 25.7098 23.2073 25.6789 23.2197 25.6172Z" fill="white"/>
<path fill-rule="evenodd" clip-rule="evenodd" d="M22.5288 26.3961C22.5288 26.3961 22.5163 26.4146 22.5101 26.4393C22.5039 26.4393 22.5101 26.4269 22.4977 26.4269C22.479 26.4702 22.479 26.4949 22.4728 26.5319C22.4728 26.5319 22.4728 26.5196 22.4603 26.5196C22.4728 26.5752 22.4167 26.6184 22.4043 26.7234C22.4043 26.6184 22.479 26.4084 22.5039 26.3281C22.5163 26.3467 22.479 26.4146 22.4914 26.4269C22.5039 26.4269 22.5101 26.3837 22.5226 26.4022L22.5288 26.3961Z" fill="white"/>
<path fill-rule="evenodd" clip-rule="evenodd" d="M22.0929 26.3636C22.0991 26.3636 22.0866 26.4068 22.0804 26.4068C22.068 26.3945 22.1115 26.2771 22.0866 26.3636H22.0929Z" fill="white"/>
<path fill-rule="evenodd" clip-rule="evenodd" d="M21.9802 27.0495H21.9615C21.9491 27.1051 21.9366 27.1978 21.918 27.2348C21.918 27.1607 21.974 27.0248 21.9615 26.9693C21.9678 26.9507 21.974 26.9446 21.9802 26.926C21.9802 26.7593 22.0611 26.5925 22.086 26.4258C22.1109 26.5122 22.0051 26.6605 22.03 26.7593C22.03 26.7716 22.03 26.7593 22.03 26.7469C22.0113 26.821 21.974 26.9507 21.9802 27.0495Z" fill="white"/>
<path fill-rule="evenodd" clip-rule="evenodd" d="M22.5474 27.1016C22.5474 27.1016 22.5474 27.1386 22.5474 27.1571C22.5474 27.1633 22.5287 27.1201 22.5474 27.1016Z" fill="white"/>
<path fill-rule="evenodd" clip-rule="evenodd" d="M34.9943 25.42C35.0067 25.457 35.0379 25.4879 35.0503 25.5188C35.0876 25.5991 35.0939 25.6855 35.1312 25.772C35.1623 25.8461 35.2059 25.914 35.237 25.9943C35.2619 26.0561 35.2744 26.0684 35.293 26.1117C35.3366 26.229 35.3553 26.3278 35.4113 26.371C35.4611 26.4513 35.5047 26.5501 35.542 26.6243C35.5482 26.6366 35.5482 26.6613 35.5545 26.6675C35.6603 26.8466 35.7972 26.9516 35.8719 27.1739C35.8968 27.1924 35.9403 27.1986 35.9777 27.2357C35.9964 27.2542 36.0088 27.2913 36.0213 27.3036C36.0835 27.3468 36.152 27.3036 36.1955 27.3839C36.208 27.3839 36.2142 27.3715 36.2204 27.3654C36.3325 27.3654 36.4258 27.3221 36.513 27.3407C36.5628 27.2666 36.6188 27.2789 36.6623 27.2233C36.6872 27.1863 36.7121 27.1183 36.737 27.0751C36.7619 27.0257 36.7806 26.9701 36.8117 26.9207C36.8428 26.9207 36.8428 26.8528 36.8677 26.8342C36.8802 26.754 36.8988 26.6922 36.9051 26.6119C36.9175 26.6057 36.9175 26.581 36.93 26.581C36.9549 26.4081 36.9984 26.229 36.9611 26.0005C36.9611 25.9758 36.9486 25.9264 36.9424 25.9079C36.9051 25.7411 36.8366 25.4879 36.8553 25.3829C36.8553 25.352 36.8366 25.3582 36.8304 25.3273C36.8428 25.3026 36.8553 25.2038 36.8304 25.1235C36.8242 25.0988 36.7806 25.0618 36.7557 25.0062C36.7184 24.9259 36.7184 24.8333 36.6872 24.7591C36.6686 24.7283 36.6312 24.6974 36.6125 24.6665C36.5628 24.58 36.4943 24.3824 36.4632 24.3021C36.4383 24.2404 36.4445 24.2095 36.4196 24.1601C36.3947 24.123 36.3574 24.0983 36.3325 24.1168C36.208 24.0304 36.1084 23.7031 35.959 23.5487C35.903 23.4066 35.7847 23.3078 35.7163 23.1843C35.7038 23.1596 35.6914 23.1225 35.6727 23.104C35.6416 23.0669 35.5856 23.0237 35.542 22.9743C35.4673 22.894 35.4113 22.8199 35.3428 22.7582C35.2868 22.6223 35.1872 22.5729 35.1125 22.4864C35.0814 22.4555 35.0627 22.4185 35.0254 22.3814C34.9943 22.3505 34.9569 22.332 34.9258 22.3011C34.8947 22.2703 34.8698 22.227 34.8387 22.1961C34.8138 22.1714 34.7889 22.1653 34.7702 22.1406C34.7453 22.1159 34.7391 22.0912 34.708 22.0665C34.6769 22.0417 34.6395 22.0294 34.6084 21.9985C34.5026 21.8997 34.3906 21.7947 34.2598 21.7453C34.0793 21.5847 33.8864 21.4859 33.6561 21.3068C33.5876 21.2821 33.5379 21.2636 33.4756 21.2204C33.4569 21.2204 33.4569 21.2204 33.432 21.2142C33.3076 21.1339 33.152 21.0968 33.0213 21.0104C33.015 21.0104 33.0088 21.0104 32.9964 21.0104C32.8221 20.8807 32.5669 20.8066 32.4051 20.7757C32.293 20.7139 32.1437 20.6892 31.9943 20.6398C31.9258 20.6151 31.8574 20.5781 31.7889 20.5657C31.6582 20.5472 31.4839 20.504 31.3594 20.4854C31.3408 20.4854 31.2661 20.4854 31.2474 20.4854C31.1789 20.4792 31.1105 20.4484 31.042 20.4422C30.7619 20.399 30.4507 20.3557 30.2142 20.3496C30.1395 20.3496 30.0773 20.3496 29.9901 20.3496C29.8532 20.3496 29.7101 20.3187 29.5731 20.3125C29.5545 20.3125 29.4922 20.3125 29.4735 20.3187C29.3926 20.3187 29.3117 20.3187 29.2246 20.3187C29.013 20.331 28.8013 20.3681 28.5959 20.3619C28.4715 20.3866 28.3159 20.399 28.154 20.4113C27.9922 20.436 27.8242 20.4731 27.681 20.4978C27.6188 20.5348 27.5503 20.5287 27.4818 20.541C27.2764 20.5966 27.0088 20.6522 26.791 20.7201C25.8885 21.0166 24.986 21.4736 24.2764 22.085C24.208 22.122 24.1333 22.2023 24.0897 22.2579C24.071 22.2579 24.0399 22.2888 24.015 22.3073C23.9466 22.4061 23.8221 22.4864 23.7163 22.5914C23.7038 22.6346 23.6354 22.684 23.6105 22.7458C23.5856 22.752 23.6229 22.7149 23.5856 22.7396C23.5607 22.8446 23.3304 23.0669 23.2432 23.1843C23.2495 23.1781 23.2557 23.1843 23.2495 23.1843C23.2184 23.2028 23.2246 23.2337 23.1997 23.2584C23.0441 23.4684 22.9881 23.6537 22.876 23.8389C22.8511 23.8575 22.7951 23.9069 22.7951 23.9377C22.82 23.9069 22.8511 23.8636 22.8636 23.8822C22.82 23.9316 22.7764 24.0057 22.7764 24.0551C22.7391 24.123 22.708 24.1539 22.6831 24.228C22.6769 24.2404 22.7142 24.228 22.6893 24.2589C22.6208 24.3515 22.6084 24.4071 22.5524 24.4874C22.5524 24.5245 22.5026 24.6233 22.4777 24.6541C22.4777 24.685 22.5088 24.6294 22.5026 24.6541C22.4715 24.7406 22.4403 24.8209 22.3906 24.8888C22.3906 24.9135 22.3906 24.9321 22.3906 24.9629C22.3843 24.9815 22.3719 24.9506 22.3657 24.9815C22.3657 25.0124 22.3968 24.9691 22.403 24.9815C22.3906 25.0247 22.403 25.0247 22.403 25.0494C22.3657 25.0988 22.3719 25.1482 22.3532 25.2038C22.3345 25.2594 22.3034 25.315 22.291 25.3706C22.2785 25.42 22.291 25.4447 22.2661 25.4941C22.2474 25.5373 22.2225 25.562 22.2038 25.6114C22.2038 25.6361 22.2287 25.5991 22.2101 25.6361C22.1478 25.7967 22.098 25.9634 22.0918 26.0931C22.1167 25.8955 22.1976 25.772 22.235 25.6052C22.2661 25.5867 22.2536 25.5311 22.2847 25.5126C22.2785 25.5002 22.2536 25.5311 22.2723 25.4941C22.2723 25.4817 22.2847 25.4817 22.291 25.4632C22.3034 25.4941 22.3159 25.4632 22.3408 25.457C22.3906 25.3211 22.4279 25.2162 22.4839 25.0988C22.4839 25.0741 22.4652 25.105 22.4715 25.0803C22.4901 25.0371 22.5088 25.0062 22.5275 24.9506C22.5524 24.9444 22.5773 24.9135 22.5897 24.9382C22.515 25.0926 22.4403 25.3088 22.3781 25.5002C22.3594 25.5558 22.3159 25.6114 22.3283 25.6546C22.3532 25.5682 22.4092 25.5126 22.4403 25.4385C22.4777 25.3458 22.5026 25.2347 22.5462 25.1482C22.5586 25.1235 22.571 25.1173 22.5835 25.0926C22.5897 25.0741 22.5959 25.0371 22.6022 25.0185C22.6146 25 22.6208 25 22.6333 24.9815C22.652 24.9444 22.652 24.9074 22.6706 24.8641C22.7018 24.7962 22.7515 24.7283 22.7951 24.6541C22.8076 24.6418 22.8262 24.6541 22.82 24.6789C22.764 24.7653 22.764 24.7838 22.7204 24.8765C22.7267 24.8641 22.7329 24.8641 22.7391 24.8641C22.7267 24.895 22.7142 24.9012 22.7142 24.9259C22.7453 24.858 22.7764 24.8765 22.7764 24.9074C22.6893 25.0926 22.6333 25.2038 22.5275 25.4323C22.5275 25.4508 22.5399 25.4694 22.5275 25.4941C22.4777 25.6608 22.3843 25.8399 22.3408 26.019C22.4279 25.8214 22.5088 25.6114 22.5835 25.3767C22.5897 25.3706 22.5959 25.3767 22.6084 25.3582C22.6395 25.2594 22.7018 25.1482 22.7329 25.0741L22.8325 25.0062C22.9196 24.7591 23.1063 24.6418 23.2246 24.4318C23.237 24.438 23.2495 24.4256 23.2619 24.4256C23.2619 24.4503 23.2619 24.4689 23.2619 24.4936C23.2432 24.5306 23.2308 24.5677 23.1997 24.5924C23.125 24.7838 22.9632 25.0309 22.8823 25.2717C22.8885 25.3088 22.9134 25.2964 22.9445 25.2841C23.0067 25.1791 23.0254 25.0679 23.1063 24.9629C23.1748 24.9444 23.1872 25.0062 23.1437 25.0988C23.0814 25.247 22.9445 25.5002 22.9071 25.5929C22.7515 26.0499 22.5897 26.4946 22.5088 26.9763C22.5773 26.7169 22.6208 26.4637 22.7142 26.2414C22.7018 26.2414 22.7018 26.229 22.7142 26.2105C22.7889 25.982 22.9009 25.7411 22.9569 25.5373C23.0254 25.4694 23.0628 25.3026 23.1312 25.2347C23.1686 25.2779 23.1561 25.352 23.1312 25.4385C23.1686 25.352 23.2184 25.2841 23.2557 25.2162C23.2868 25.1606 23.3179 25.0494 23.3428 25.0309C23.3491 25.0309 23.3491 25.0432 23.3615 25.0309C23.3491 25.0556 23.3802 24.9876 23.3864 24.9876C23.3989 24.9568 23.3864 24.9568 23.4113 24.9259C23.4424 24.8827 23.4424 24.8827 23.4673 24.858C23.5669 24.7097 23.6291 24.5368 23.7474 24.4009C23.7598 24.3824 23.7785 24.3577 23.7847 24.3515C23.7972 24.3392 23.7972 24.3515 23.8096 24.3392C23.8159 24.3268 23.8096 24.3268 23.8159 24.3145C23.8594 24.2589 23.9092 24.1971 23.9466 24.1416C24.0399 23.9933 24.1893 23.8513 24.2827 23.7401C24.3076 23.7216 24.2889 23.7586 24.32 23.7278C24.4071 23.6413 24.4881 23.5487 24.5814 23.4622C24.681 23.3757 24.7806 23.2955 24.874 23.2152C24.8926 23.2028 24.8926 23.2275 24.9113 23.209C24.9424 23.1905 24.9175 23.1781 24.9424 23.1596C24.9611 23.1534 24.9798 23.1411 24.9922 23.1472C25.2163 22.9558 25.4777 22.8014 25.7142 22.6161C25.9632 22.4741 26.2184 22.3567 26.4549 22.227C26.654 22.1529 26.847 22.0726 27.0337 22.0232C27.2702 21.9121 27.4943 21.8812 27.737 21.8318C27.9113 21.7947 28.1042 21.77 28.2474 21.733C28.2723 21.7268 28.3034 21.7144 28.3345 21.7144C28.3781 21.7144 28.4279 21.7268 28.4715 21.7206C28.571 21.7083 28.7453 21.6897 28.8449 21.6835L29.2495 21.665C29.3242 21.665 29.3989 21.6403 29.4735 21.6465C29.5047 21.6465 29.5918 21.665 29.6291 21.665C29.7723 21.6712 29.9279 21.665 30.0648 21.6774C30.2453 21.7021 30.4383 21.7083 30.625 21.7268C30.8242 21.7762 31.0669 21.8256 31.2598 21.8565C31.4092 21.9121 31.571 21.9306 31.7329 21.9985C31.7515 22.0047 31.7578 22.017 31.7764 22.0232C32.0192 22.1344 32.3242 22.1714 32.4922 22.3135C32.5731 22.332 32.6229 22.3814 32.6852 22.4247C32.7536 22.4679 32.8283 22.4864 32.8968 22.5235C32.9217 22.5358 32.9341 22.5543 32.959 22.5667C33.0213 22.6099 33.0897 22.647 33.1582 22.6964C33.264 22.7705 33.3511 22.8755 33.4818 22.9434C33.569 23.0114 33.6623 23.1596 33.7744 23.2275C33.9113 23.4004 34.098 23.524 34.2163 23.7154C34.2598 23.7772 34.2847 23.8451 34.347 23.8945C34.3781 23.9686 34.4466 24.0366 34.4964 24.123C34.5275 24.1848 34.5959 24.3083 34.6333 24.3824C34.708 24.4998 34.8076 24.6541 34.8076 24.7715C34.7391 24.858 34.9134 24.8765 34.9507 24.9876C34.9569 25.0494 34.932 25.0556 34.9071 25.0926C34.9196 25.1482 34.9383 25.1915 34.9694 25.2347C34.9818 25.2964 34.9569 25.352 34.9881 25.4261L34.9943 25.42ZM22.5835 24.7221C22.5835 24.7221 22.5773 24.7221 22.571 24.7221C22.5586 24.6912 22.6084 24.6665 22.5835 24.7221ZM22.5835 24.7468C22.5524 24.8209 22.5213 24.9259 22.4839 24.9691C22.4777 24.9815 22.515 24.9691 22.5088 24.9938C22.4839 25.0185 22.459 25.0494 22.4341 25.105C22.3968 25.0926 22.4652 25 22.4403 24.9815C22.4652 24.9444 22.4715 24.9259 22.4652 24.9012C22.515 24.8271 22.5026 24.7962 22.5462 24.7406C22.5586 24.7653 22.5648 24.7406 22.5835 24.753V24.7468Z" fill="white"/>
</g>
<defs>
<clipPath id="clip0_868_1997">
<rect width="36" height="50" fill="white" transform="translate(17 10)"/>
</clipPath>
</defs>
</svg>
