<svg width="70" height="70" viewBox="0 0 70 70" fill="none" xmlns="http://www.w3.org/2000/svg">
<g clip-path="url(#clip0_868_1371)">
<path fill-rule="evenodd" clip-rule="evenodd" d="M22.7757 47.6623C22.7757 47.6623 22.6844 47.6714 22.6113 47.6714C22.6296 47.6532 22.7209 47.6441 22.7757 47.6623Z" fill="white"/>
<path fill-rule="evenodd" clip-rule="evenodd" d="M20.0356 45.9688C19.9808 45.9869 19.8073 46.0233 19.8256 45.9869C19.926 45.9688 19.9625 45.9778 20.0356 45.9688Z" fill="white"/>
<path fill-rule="evenodd" clip-rule="evenodd" d="M19.7354 45.9595C19.7354 45.9595 19.5893 45.9776 19.5254 45.9867C19.5254 45.9685 19.6989 45.9504 19.7354 45.9595Z" fill="white"/>
<path fill-rule="evenodd" clip-rule="evenodd" d="M18.9307 46.3594C18.9307 46.3594 18.7755 46.4048 18.7207 46.3958C18.7298 46.3776 18.8668 46.3685 18.9307 46.3594Z" fill="white"/>
<path fill-rule="evenodd" clip-rule="evenodd" d="M18.4929 46.1445C18.4198 46.1718 18.3011 46.2082 18.1367 46.2355C18.1915 46.2082 18.365 46.1809 18.4929 46.1445Z" fill="white"/>
<path fill-rule="evenodd" clip-rule="evenodd" d="M17.7812 47.7539C17.6077 47.7903 17.2607 47.8994 17.1328 47.8994C17.3429 47.8631 17.5803 47.7812 17.7812 47.7539Z" fill="white"/>
<path fill-rule="evenodd" clip-rule="evenodd" d="M17.169 47.2539C16.959 47.3449 16.5572 47.3994 16.2923 47.5086C16.2467 47.4813 16.6942 47.3903 16.7763 47.354C16.822 47.354 16.8859 47.3358 16.9499 47.3267C17.0229 47.3085 17.096 47.263 17.1782 47.263L17.169 47.2539Z" fill="white"/>
<path fill-rule="evenodd" clip-rule="evenodd" d="M14.484 47.9453C14.484 47.9453 14.484 47.9726 14.4018 47.9999C14.3835 47.9999 14.3652 47.9999 14.3652 47.9817L14.4748 47.9453H14.484Z" fill="white"/>
<path fill-rule="evenodd" clip-rule="evenodd" d="M13.4787 48.5352C13.3234 48.6261 12.9307 48.7716 12.7116 48.8444C12.6842 48.8626 12.6842 48.8717 12.6294 48.8899C12.5015 48.9444 12.2184 49.0445 12.4924 48.9354C12.8211 48.7807 13.1043 48.6898 13.4696 48.5352H13.4787Z" fill="white"/>
<path fill-rule="evenodd" clip-rule="evenodd" d="M13.2328 48.2695C13.2328 48.2695 13.1323 48.3241 13.041 48.3514C13.0593 48.3332 13.1963 48.2695 13.2328 48.2695Z" fill="white"/>
<path fill-rule="evenodd" clip-rule="evenodd" d="M13.2882 49.1719C13.2882 49.1719 13.1147 49.2355 13.0508 49.2719C13.0964 49.2446 13.2243 49.181 13.2882 49.1719Z" fill="white"/>
<path fill-rule="evenodd" clip-rule="evenodd" d="M13.0691 48.4531C13.0052 48.4895 12.8499 48.5532 12.7769 48.5987C12.6947 48.5987 12.9687 48.4986 13.0691 48.4531Z" fill="white"/>
<path fill-rule="evenodd" clip-rule="evenodd" d="M12.9128 48.418C12.8671 48.4544 12.7027 48.518 12.584 48.5635C12.6479 48.518 12.8032 48.4634 12.9128 48.418Z" fill="white"/>
<path fill-rule="evenodd" clip-rule="evenodd" d="M13.0869 49.418C13.0869 49.418 12.9774 49.4816 12.9043 49.518C12.9043 49.4907 13.023 49.4544 13.0869 49.418Z" fill="white"/>
<path fill-rule="evenodd" clip-rule="evenodd" d="M12.9047 49.3164C12.8225 49.371 12.5211 49.4801 12.375 49.5438C12.5576 49.4528 12.7038 49.3892 12.9047 49.3164Z" fill="white"/>
<path fill-rule="evenodd" clip-rule="evenodd" d="M12.5302 48.5898C12.4024 48.6717 12.1832 48.7354 12.0645 48.7808C12.1832 48.7081 12.3841 48.6626 12.5302 48.5898Z" fill="white"/>
<path fill-rule="evenodd" clip-rule="evenodd" d="M12.2837 49.0156C12.2381 49.052 12.1467 49.0884 12.0737 49.1248C12.0463 49.1066 12.1924 49.052 12.2837 49.0156Z" fill="white"/>
<path fill-rule="evenodd" clip-rule="evenodd" d="M12.018 49.0547C11.9632 49.1002 11.8993 49.1093 11.7988 49.1547C11.8171 49.1275 11.9541 49.0911 12.018 49.0547Z" fill="white"/>
<path fill-rule="evenodd" clip-rule="evenodd" d="M11.7543 49.082C11.7543 49.082 11.526 49.2003 11.5626 49.1548C11.6173 49.1275 11.6173 49.1457 11.6265 49.1548C11.6904 49.1275 11.6813 49.1184 11.7635 49.0911L11.7543 49.082Z" fill="white"/>
<path fill-rule="evenodd" clip-rule="evenodd" d="M11.3965 49.79C11.7618 49.6445 11.5152 49.7081 11.3965 49.79Z" fill="white"/>
<path fill-rule="evenodd" clip-rule="evenodd" d="M11.2051 50.1367C11.1046 50.2004 10.995 50.2459 10.8672 50.3004C10.9402 50.255 11.1503 50.1549 11.2051 50.1367Z" fill="white"/>
<path fill-rule="evenodd" clip-rule="evenodd" d="M11.1419 50.2188C11.1876 50.2188 10.9775 50.3188 11.0141 50.2824L11.1419 50.2188Z" fill="white"/>
<path fill-rule="evenodd" clip-rule="evenodd" d="M11.0407 50.6367C11.0407 50.6367 10.9311 50.7095 10.8672 50.7368C10.8763 50.7095 11.0133 50.6458 11.0407 50.6367Z" fill="white"/>
<path fill-rule="evenodd" clip-rule="evenodd" d="M10.3196 50.9648C10.1369 51.0922 10.0548 51.1013 10.3196 50.9648Z" fill="white"/>
<path fill-rule="evenodd" clip-rule="evenodd" d="M16.292 48.625C16.292 48.625 16.1824 48.6705 16.155 48.6887C16.0637 48.6887 15.9175 48.7523 15.7988 48.7796C15.9267 48.7069 16.0911 48.6978 16.292 48.625Z" fill="white"/>
<path fill-rule="evenodd" clip-rule="evenodd" d="M13.0685 49.1351C13.0046 49.1624 13.0046 49.1442 12.9315 49.1806C12.9224 49.1806 12.9498 49.1624 12.9498 49.1533C12.8128 49.1988 12.7397 49.2443 12.6301 49.2898C12.6393 49.2807 12.6575 49.2716 12.6484 49.2625C12.5114 49.3534 12.3105 49.3807 12 49.5262C12.2831 49.3625 12.968 49.117 13.2329 49.0078C13.2055 49.0442 12.9589 49.117 12.9406 49.1533C12.9406 49.1715 13.0959 49.0988 13.0594 49.1442L13.0685 49.1351Z" fill="white"/>
<path fill-rule="evenodd" clip-rule="evenodd" d="M12.5471 48.6702C12.5471 48.6884 12.4284 48.7248 12.4102 48.7248C12.4376 48.6975 12.8029 48.5611 12.5471 48.6612V48.6702Z" fill="white"/>
<path fill-rule="evenodd" clip-rule="evenodd" d="M10.5753 49.618V49.5907C10.3927 49.6725 10.1279 49.809 10 49.8454C10.1918 49.7271 10.6393 49.5634 10.7671 49.4633C10.8311 49.4452 10.8402 49.4361 10.9041 49.4179C11.3607 49.1632 11.8995 48.9813 12.3836 48.7539C12.1826 48.9085 11.6438 49.0359 11.4155 49.2178C11.3699 49.236 11.4155 49.2178 11.4429 49.1996C11.2237 49.2996 10.8219 49.4633 10.5662 49.6271L10.5753 49.618Z" fill="white"/>
<path fill-rule="evenodd" clip-rule="evenodd" d="M11.1052 50.2891C11.1052 50.2891 10.9957 50.3527 10.9591 50.3891C10.9317 50.3982 11.0504 50.2982 11.1052 50.2891Z" fill="white"/>
<path fill-rule="evenodd" clip-rule="evenodd" d="M57.4336 30.3896C57.4702 30.3077 57.5706 30.0985 57.6163 30.0167C57.7715 29.7347 57.9359 29.4891 58.082 29.189C58.1825 28.9707 58.3469 28.6069 58.4473 28.3977C58.5204 28.234 58.5752 28.1248 58.6391 27.9884C58.8218 27.5882 59.0044 27.279 59.0318 27.0789C59.1597 26.7332 59.251 26.4877 59.3697 26.1693C59.3789 26.1329 59.4245 26.0511 59.4336 26.0329C59.6528 25.378 59.6894 24.9233 59.9725 24.1592C59.9725 24.0774 59.9359 24.0137 59.9542 23.8682C59.9542 23.8045 60.009 23.6681 60.009 23.6226C60.009 23.4407 59.8446 23.5226 59.9268 23.2224C59.9177 23.1951 59.8903 23.2497 59.8629 23.2588C59.7168 23.186 59.5432 23.2315 59.461 23.1133C59.3058 23.2679 59.2419 23.1951 59.114 23.3043C59.0318 23.377 58.9131 23.5317 58.8126 23.6317C58.7031 23.7409 58.6026 23.8682 58.5113 23.9501C58.4656 23.9319 58.3743 24.0956 58.3286 24.1047C58.2008 24.2957 58.0912 24.4321 57.9542 24.6231C57.9268 24.6322 57.8994 24.6777 57.872 24.6777C57.5798 25.0688 57.2601 25.4599 56.9314 26.0329C56.8948 26.0875 56.8309 26.2057 56.8035 26.2603C56.5752 26.6969 56.2008 27.3608 56.0181 27.5518C55.9725 27.6246 55.9907 27.6337 55.9359 27.7064C55.8811 27.7428 55.7076 27.9429 55.598 28.143C55.5615 28.2158 55.5341 28.3522 55.4519 28.5068C55.3423 28.7342 55.1688 28.9161 55.0683 29.1253C55.0227 29.2163 55.0044 29.3345 54.9588 29.4346C54.84 29.6983 54.5478 30.1986 54.4108 30.3987C54.3104 30.5624 54.2464 30.6079 54.1825 30.7352C54.1277 30.8534 54.1094 30.9535 54.1551 30.9717C54.0638 31.3537 53.525 32.1541 53.2693 32.6725C53.0227 33.0181 52.8766 33.4002 52.6665 33.7549C52.63 33.8094 52.5569 33.9277 52.5204 33.9732C52.4747 34.0641 52.3652 34.2824 52.2921 34.4188C52.1368 34.7099 52.0546 34.8554 51.8994 35.1465C51.6437 35.4466 51.5706 35.7286 51.3971 36.0105C51.3515 36.0833 51.2419 36.247 51.1871 36.3289C51.1323 36.4289 51.0866 36.5381 51.0227 36.6381C50.9679 36.7109 50.8583 36.8837 50.8126 36.9564C50.7852 37.0201 50.7304 37.1111 50.7031 37.1656C50.6483 37.2475 50.6026 37.293 50.5569 37.3839C50.5295 37.4385 50.4473 37.6204 50.4199 37.6841C50.2282 38.0297 49.9816 38.3935 49.8263 38.7391C49.4428 39.3031 49.1871 39.8488 48.7396 40.5127C48.6483 40.6946 48.5752 40.822 48.4565 40.9948C48.4382 41.0403 48.4565 41.0494 48.4108 41.1039C48.1734 41.4496 47.9999 41.8589 47.7533 42.2136C47.7533 42.2318 47.7533 42.25 47.735 42.2772C47.3971 42.7684 47.0044 43.4142 46.7852 43.8326C46.5661 44.1236 46.3743 44.5056 46.146 44.8876C46.0364 45.0695 45.9085 45.2332 45.8172 45.4061C45.5889 45.7881 45.3606 46.1519 45.1597 46.4884C45.1231 46.5521 45.041 46.7158 45.0044 46.7795C44.904 46.9523 44.7761 47.116 44.6757 47.2979C44.5569 47.498 44.4565 47.6708 44.3652 47.8345C44.283 47.9619 44.2099 48.0892 44.1368 48.2074C44.0273 48.2802 43.9177 48.353 43.8172 48.4166C43.6528 48.5167 43.5067 48.6076 43.3606 48.6986C43.1779 48.7986 43.041 48.9169 42.84 49.0351C42.5021 49.2261 42.1368 49.3898 41.7898 49.5535C41.7259 49.5899 41.6072 49.6536 41.5432 49.69C41.3332 49.7991 41.1231 49.8719 40.904 49.9628C40.356 50.2084 39.7898 50.4085 39.251 50.554C38.9131 50.6541 38.493 50.7814 38.0455 50.8633C37.6072 50.9179 37.1505 51.027 36.7396 51.027C36.5569 51.0725 36.3834 51.0452 36.2008 51.0543C35.9085 51.0907 35.5889 51.0543 35.251 51.0452C34.9222 51.027 34.5843 51.0088 34.3012 50.8997C33.0501 50.7178 31.8903 50.0993 30.8674 49.3171L30.1277 48.6804C29.872 48.4621 29.5706 48.162 29.2784 47.9346C28.6665 47.4707 28.0181 47.0523 27.3241 46.7704C27.1323 46.6339 26.7761 46.5339 26.5843 46.4702C26.5478 46.4429 26.4199 46.3884 26.3286 46.352C25.9633 46.2883 25.525 46.1064 25.0683 46.0427C24.9405 46.0609 24.6757 45.9609 24.5021 45.9791C24.4291 45.9427 24.6026 45.9791 24.4839 45.9427C24.1734 45.9609 23.1871 45.8244 22.7396 45.8426C22.767 45.8426 22.7761 45.8517 22.7396 45.8517C22.63 45.8335 22.5843 45.8699 22.4565 45.8608C21.6437 45.8608 21.0775 45.9791 20.4017 46.0609C20.3195 46.0609 20.082 46.0609 20.009 46.0882C20.1277 46.0791 20.283 46.0609 20.283 46.0882C20.082 46.1064 19.8172 46.1519 19.6802 46.1883C19.4336 46.2155 19.3058 46.2337 19.0866 46.2883C19.0318 46.2883 19.1414 46.3156 19.0318 46.3338C18.6848 46.3702 18.5113 46.4338 18.2008 46.4793C18.1186 46.5248 17.7533 46.6066 17.6437 46.6157C17.5432 46.6521 17.7624 46.6157 17.6802 46.643C17.4062 46.7158 17.1505 46.7795 16.8948 46.834C16.84 46.8613 16.8035 46.8977 16.6939 46.925C16.6209 46.9432 16.7031 46.8886 16.6026 46.925C16.5113 46.9705 16.6848 46.9341 16.6665 46.9614C16.5295 47.0068 16.5661 47.0159 16.5021 47.0523C16.3104 47.0796 16.1916 47.1615 16.0181 47.216C15.8446 47.2797 15.6437 47.3252 15.4793 47.3798C15.3332 47.4343 15.2784 47.4707 15.114 47.5253C14.977 47.5708 14.8583 47.5798 14.7122 47.6344C14.6391 47.6617 14.7761 47.6344 14.6574 47.6799C14.146 47.8618 13.6346 48.0528 13.2693 48.2347C13.8263 47.971 14.2738 47.8709 14.767 47.6617C14.8492 47.6617 14.9953 47.5708 15.0866 47.5799C15.114 47.5526 14.9953 47.5798 15.114 47.5435C15.1505 47.5344 15.1688 47.5435 15.2327 47.5162C15.1688 47.5708 15.2784 47.5344 15.3332 47.5526C15.7715 47.4161 16.1094 47.2979 16.493 47.1978C16.5661 47.1706 16.4382 47.1978 16.5204 47.1615C16.6848 47.116 16.7305 47.0978 16.9496 47.0432C17.0044 47.0523 17.1231 47.0432 17.0775 47.0887C16.5569 47.216 15.8629 47.4525 15.2601 47.6526C15.0775 47.7163 14.8766 47.7436 14.7852 47.8254C15.0501 47.7254 15.2875 47.6981 15.525 47.6344C15.8355 47.5435 16.1551 47.4161 16.4565 47.3343C16.5204 47.3252 16.6117 47.307 16.6574 47.2979C16.7213 47.2797 16.8126 47.2342 16.8857 47.216C16.9588 47.1978 16.9679 47.216 17.0318 47.1887C17.1597 47.1524 17.2601 47.1069 17.4062 47.0796C17.6254 47.0341 17.8903 46.9886 18.1551 46.9341C18.2099 46.9341 18.1916 46.9705 18.1277 46.9886C17.8081 47.0523 17.7624 47.0705 17.4336 47.1433C17.4702 47.1433 17.4976 47.1433 17.4976 47.1433C17.3971 47.1615 17.3606 47.1615 17.2967 47.1978C17.5341 47.1433 17.525 47.1978 17.4519 47.2342C16.8583 47.3616 16.146 47.5889 15.662 47.7072C15.6163 47.7345 15.5889 47.7618 15.4976 47.7981C14.9679 47.98 14.3652 48.162 13.7989 48.3802C14.6391 48.0983 15.1414 47.9346 15.8903 47.689C15.9177 47.689 15.8994 47.7072 15.9816 47.689C16.3012 47.5708 16.6848 47.4798 16.9405 47.407C17.0592 47.407 17.1688 47.407 17.2967 47.407C18.1003 47.1887 18.7213 47.1888 19.5067 47.0614C19.5067 47.0796 19.5706 47.0796 19.598 47.0887C19.5341 47.116 19.4976 47.1433 19.4245 47.1706C19.2967 47.1887 19.1688 47.2251 19.0501 47.2251C18.4017 47.3979 17.4702 47.5435 16.6757 47.7981C16.5843 47.8527 16.6757 47.8618 16.7487 47.8709C17.1414 47.789 17.4793 47.6526 17.8994 47.6071C18.0638 47.6526 17.9177 47.7345 17.6072 47.8163C17.0866 47.9346 16.1916 48.1801 15.8537 48.2711C14.356 48.7713 12.8766 49.3171 11.4062 50.0174C12.2282 49.6627 12.9862 49.308 13.7533 49.0533C13.7533 49.0442 13.7715 49.026 13.8263 49.0078C14.5752 48.735 15.4062 48.4621 16.0729 48.2438C16.3652 48.2074 16.8948 48.0073 17.1871 47.98C17.1323 48.071 16.9131 48.162 16.6209 48.262C16.9222 48.1801 17.2053 48.1256 17.4519 48.071C17.662 48.0255 18.009 47.9255 18.1186 47.9164C18.146 47.9164 18.1003 47.9437 18.146 47.9255C18.0638 47.9437 18.2921 47.8891 18.3104 47.8891C18.4199 47.8618 18.4017 47.8527 18.5295 47.8345C18.7031 47.8072 18.7031 47.8072 18.8126 47.7981C19.4062 47.6981 19.9816 47.598 20.5752 47.5526C20.6391 47.5526 20.7578 47.5435 20.767 47.5344C20.8218 47.5344 20.7761 47.5526 20.8492 47.5435C20.8948 47.5435 20.8674 47.5253 20.9314 47.5253C21.1597 47.5071 21.4245 47.498 21.6528 47.498C22.2282 47.4616 22.904 47.5071 23.3606 47.5435C23.461 47.5526 23.3241 47.5708 23.461 47.5799C24.2464 47.6708 25.0592 47.8436 25.8263 48.1074C25.8811 48.1347 25.8263 48.1438 25.9085 48.171C26.009 48.2165 25.9999 48.171 26.0912 48.2165C26.146 48.2438 26.2008 48.2802 26.219 48.2984C27.0684 48.6713 27.8811 49.1533 28.5569 49.7991C28.9679 50.1538 29.3789 50.5086 29.7807 50.8633C30.1916 51.2362 30.7031 51.4727 31.1505 51.7637C31.4976 52.0093 31.9085 52.1093 32.283 52.2731C32.6574 52.4277 33.0227 52.5641 33.3971 52.646C34.3834 52.8916 35.2601 52.9643 36.1916 52.9643C36.5295 52.9552 36.8766 52.937 37.2145 52.9279C37.5432 52.8825 37.8355 52.837 38.1368 52.7915C38.2099 52.7733 38.3743 52.746 38.4565 52.7278C38.6209 52.7005 38.7852 52.6733 38.9496 52.6369C39.388 52.5277 39.8355 52.4095 40.2556 52.2549C40.7396 52.1093 41.1871 51.9547 41.6346 51.7637C41.8903 51.6637 42.1277 51.5454 42.3743 51.4181C42.5204 51.3544 42.7304 51.2635 42.8857 51.1998C43.3515 50.9633 43.8081 50.6905 44.2373 50.4358C44.5295 50.2721 44.8126 50.0993 45.1049 49.9174L45.4062 49.7173L45.5798 49.599C45.6254 49.5535 45.6528 49.4808 45.6985 49.4262C45.872 49.1443 45.9268 49.0533 46.009 48.9078C46.4017 48.3166 46.8492 47.5889 47.1962 47.0068C47.525 46.5703 47.7807 46.0518 48.1186 45.5334C48.146 45.497 48.1916 45.4333 48.219 45.3879C48.7396 44.6057 49.2236 43.6779 49.6528 43.0504C49.7715 42.7866 49.9268 42.5956 50.0729 42.3773C50.2282 42.1408 50.3469 41.8952 50.493 41.6588C50.5295 41.6042 50.6026 41.495 50.6391 41.4405C50.7852 41.204 50.904 40.9584 51.0592 40.6946C51.2875 40.2945 51.5889 39.9124 51.8263 39.4395C52.0547 39.103 52.3834 38.6027 52.5935 38.1843C53.041 37.5386 53.388 36.82 53.8172 36.1288C53.9633 35.9014 54.1186 35.7013 54.2282 35.4466C54.4017 35.2192 54.5569 34.91 54.7304 34.6098C54.8948 34.3461 55.1049 34.0004 55.2875 33.7094C55.5524 33.2728 55.8446 32.7089 56.0912 32.4088C56.3104 32.3269 56.283 31.9267 56.5113 31.5902C56.6483 31.4174 56.6665 31.4628 56.7578 31.4083C56.8766 31.2536 56.9496 31.0899 57.0318 30.9171C57.1505 30.7352 57.2875 30.6261 57.4245 30.3714L57.4336 30.3896ZM17.6528 46.8249C17.6528 46.8249 17.6528 46.8158 17.6254 46.8249C17.6802 46.7795 17.8263 46.7976 17.6528 46.8249ZM17.598 46.8522C17.3606 46.9068 17.0227 47.0159 16.8492 47.0432C16.8035 47.0523 16.904 47.0705 16.8309 47.0978C16.7213 47.1069 16.6026 47.1251 16.4199 47.1706C16.3926 47.1251 16.7487 47.0614 16.7578 47.0068C16.8948 46.9796 16.9588 46.9614 17.0136 46.925C17.2967 46.8704 17.3515 46.834 17.5706 46.7976C17.525 46.8431 17.6163 46.8158 17.6072 46.8522H17.598Z" fill="white"/>
<path fill-rule="evenodd" clip-rule="evenodd" d="M23.1234 39.7169C23.1234 39.7169 23.032 39.7169 22.959 39.726C22.9772 39.7079 23.0686 39.6988 23.1234 39.7169Z" fill="white"/>
<path fill-rule="evenodd" clip-rule="evenodd" d="M20.2195 38.1992C20.1647 38.2174 19.9912 38.2629 20.0003 38.2356C20.1008 38.2083 20.1465 38.2174 20.2195 38.1992Z" fill="white"/>
<path fill-rule="evenodd" clip-rule="evenodd" d="M19.9093 38.2188C19.9093 38.2188 19.754 38.2551 19.6992 38.2733C19.6992 38.2551 19.8727 38.2188 19.9093 38.2188Z" fill="white"/>
<path fill-rule="evenodd" clip-rule="evenodd" d="M19.1065 38.6836C19.1065 38.6836 18.9513 38.7382 18.8965 38.7382C18.9056 38.72 19.0426 38.7018 19.1065 38.6836Z" fill="white"/>
<path fill-rule="evenodd" clip-rule="evenodd" d="M18.6491 38.4922C18.5761 38.5286 18.4574 38.565 18.293 38.6013C18.3478 38.565 18.5213 38.5195 18.6491 38.4922Z" fill="white"/>
<path fill-rule="evenodd" clip-rule="evenodd" d="M18.0013 40.1445C17.8278 40.1991 17.4716 40.3264 17.3438 40.3355C17.5629 40.2901 17.8004 40.19 18.0013 40.1445Z" fill="white"/>
<path fill-rule="evenodd" clip-rule="evenodd" d="M17.3428 39.6836C17.1328 39.7927 16.7218 39.8655 16.4478 39.9837C16.393 39.9656 16.8588 39.8473 16.9318 39.7927C16.9775 39.7836 17.0414 39.7655 17.1054 39.7564C17.1784 39.7291 17.2515 39.6836 17.3337 39.6836H17.3428Z" fill="white"/>
<path fill-rule="evenodd" clip-rule="evenodd" d="M14.6207 40.5091C14.6207 40.5091 14.6207 40.5364 14.5385 40.5637C14.5111 40.5637 14.502 40.5637 14.502 40.5455L14.6115 40.5L14.6207 40.5091Z" fill="white"/>
<path fill-rule="evenodd" clip-rule="evenodd" d="M13.5986 41.1484C13.4343 41.2394 13.0416 41.4122 12.8133 41.4759C12.7859 41.4941 12.7859 41.5032 12.7311 41.5213C12.6032 41.5759 12.311 41.6942 12.5941 41.5759C12.932 41.4122 13.2151 41.3122 13.5986 41.1484Z" fill="white"/>
<path fill-rule="evenodd" clip-rule="evenodd" d="M13.3422 40.8906C13.3422 40.8906 13.2326 40.9452 13.1504 40.9816C13.1687 40.9543 13.3056 40.8997 13.3422 40.8906Z" fill="white"/>
<path fill-rule="evenodd" clip-rule="evenodd" d="M13.397 41.793C13.397 41.793 13.2234 41.8657 13.1504 41.9021C13.2052 41.8748 13.333 41.8112 13.397 41.793Z" fill="white"/>
<path fill-rule="evenodd" clip-rule="evenodd" d="M13.1704 41.082C13.1064 41.1275 12.9512 41.1821 12.869 41.2367C12.7777 41.2367 13.0699 41.1366 13.1704 41.082Z" fill="white"/>
<path fill-rule="evenodd" clip-rule="evenodd" d="M13.0059 41.0469C12.9602 41.0924 12.7958 41.1469 12.668 41.2015C12.7319 41.156 12.8963 41.0924 13.0059 41.0469Z" fill="white"/>
<path fill-rule="evenodd" clip-rule="evenodd" d="M13.1963 42.0469C13.1963 42.0469 13.0867 42.1105 13.0137 42.156C13.0137 42.1287 13.1324 42.0833 13.1963 42.0469Z" fill="white"/>
<path fill-rule="evenodd" clip-rule="evenodd" d="M13.0147 41.957C12.9326 42.0116 12.622 42.1389 12.4668 42.2026C12.6586 42.1026 12.8047 42.048 13.0147 41.957Z" fill="white"/>
<path fill-rule="evenodd" clip-rule="evenodd" d="M12.6214 41.2305C12.4844 41.3214 12.2652 41.3851 12.1465 41.4397C12.2743 41.3669 12.4753 41.3123 12.6214 41.2305Z" fill="white"/>
<path fill-rule="evenodd" clip-rule="evenodd" d="M12.3669 41.6641C12.3212 41.7004 12.2208 41.7368 12.1477 41.7823C12.1203 41.7641 12.2756 41.7095 12.3669 41.6641Z" fill="white"/>
<path fill-rule="evenodd" clip-rule="evenodd" d="M12.102 41.7109C12.0381 41.7564 11.9833 41.7746 11.8828 41.811C11.9011 41.7837 12.0381 41.7382 12.102 41.7109Z" fill="white"/>
<path fill-rule="evenodd" clip-rule="evenodd" d="M11.8262 41.7461C11.8262 41.7461 11.5979 41.8734 11.6253 41.8189C11.6801 41.7916 11.6801 41.8007 11.6893 41.8189C11.7532 41.7916 11.7441 41.7825 11.8262 41.7552V41.7461Z" fill="white"/>
<path fill-rule="evenodd" clip-rule="evenodd" d="M11.4434 42.4657C11.8178 42.3111 11.5712 42.3838 11.4434 42.4657Z" fill="white"/>
<path fill-rule="evenodd" clip-rule="evenodd" d="M11.2526 42.8203C11.1431 42.884 11.0335 42.9295 10.8965 42.9931C10.9787 42.9476 11.1887 42.8476 11.2526 42.8203Z" fill="white"/>
<path fill-rule="evenodd" clip-rule="evenodd" d="M11.1782 42.8945C11.2239 42.8945 11.0047 42.9946 11.0412 42.9582L11.1782 42.8945Z" fill="white"/>
<path fill-rule="evenodd" clip-rule="evenodd" d="M11.0694 43.3203C11.0694 43.3203 10.9506 43.3931 10.8867 43.4204C10.8959 43.3931 11.0328 43.3294 11.0694 43.3203Z" fill="white"/>
<path fill-rule="evenodd" clip-rule="evenodd" d="M10.3193 43.6562C10.1184 43.7927 10.0271 43.8018 10.3193 43.6562Z" fill="white"/>
<path fill-rule="evenodd" clip-rule="evenodd" d="M16.4945 41.1094C16.4945 41.1094 16.3849 41.1549 16.3575 41.1821C16.2662 41.1821 16.1109 41.264 15.9922 41.2913C16.1292 41.2094 16.2936 41.1912 16.4945 41.1094Z" fill="white"/>
<path fill-rule="evenodd" clip-rule="evenodd" d="M13.1701 41.7575C13.1062 41.7848 13.1062 41.7666 13.0331 41.8121C13.024 41.8121 13.0605 41.7939 13.0514 41.7848C12.9144 41.8394 12.8413 41.8758 12.7226 41.9303C12.7318 41.9212 12.75 41.9121 12.7409 41.9031C12.5948 42.0031 12.3939 42.0304 12.0742 42.185C12.3665 42.0122 13.0697 41.7484 13.3436 41.6211C13.3162 41.6575 13.0605 41.7393 13.0423 41.7757C13.0423 41.7939 13.1975 41.712 13.161 41.7666L13.1701 41.7575Z" fill="white"/>
<path fill-rule="evenodd" clip-rule="evenodd" d="M12.6389 41.3124C12.6389 41.3306 12.5202 41.367 12.502 41.367C12.5294 41.3306 12.9038 41.185 12.6389 41.3033V41.3124Z" fill="white"/>
<path fill-rule="evenodd" clip-rule="evenodd" d="M10.6034 42.3002V42.2729C10.4207 42.3547 10.1376 42.5003 10.0098 42.5366C10.2107 42.4184 10.6673 42.2547 10.8043 42.1455C10.8682 42.1274 10.8865 42.1183 10.9504 42.091C11.4162 41.8272 11.9732 41.6362 12.4755 41.3906C12.2746 41.5543 11.7175 41.6908 11.4892 41.8727C11.4436 41.8909 11.4892 41.8727 11.5166 41.8545C11.2883 41.9545 10.8773 42.1274 10.6125 42.3002H10.6034Z" fill="white"/>
<path fill-rule="evenodd" clip-rule="evenodd" d="M11.1417 42.9648C11.1417 42.9648 11.0321 43.0376 10.9865 43.0649C10.9591 43.074 11.0778 42.9739 11.1417 42.9648Z" fill="white"/>
<path fill-rule="evenodd" clip-rule="evenodd" d="M37.5439 31.342C37.4982 31.4239 37.3886 31.624 37.343 31.715C37.1694 31.9969 36.9868 32.2425 36.8224 32.5335C36.7037 32.7518 36.5119 33.1066 36.4023 33.3157C36.311 33.4795 36.2562 33.5795 36.1831 33.7159C35.964 34.107 35.763 34.4163 35.7174 34.6164C35.553 34.962 35.4434 35.1985 35.2973 35.5168C35.279 35.5532 35.2334 35.6351 35.2242 35.6533C34.9411 36.3081 34.8681 36.7629 34.4936 37.4996C34.4936 37.5815 34.5119 37.6542 34.4754 37.7998C34.4571 37.8634 34.4023 37.9908 34.3932 38.0453C34.3749 38.2272 34.5393 38.1636 34.4297 38.4546C34.4297 38.4819 34.4754 38.4364 34.4936 38.4273C34.6306 38.5183 34.8133 38.4819 34.8772 38.6184C35.0507 38.4728 35.1055 38.5547 35.2516 38.4546C35.343 38.391 35.4891 38.2363 35.5895 38.1454C35.7083 38.0453 35.827 37.9271 35.9366 37.8452C35.9822 37.8725 36.0918 37.7088 36.1466 37.6997C36.2836 37.5451 36.448 37.345 36.5758 37.1995C36.6032 37.1904 36.6398 37.1449 36.658 37.154C36.9959 36.772 37.3521 36.39 37.7356 35.817C37.7722 35.7624 37.8452 35.6442 37.8818 35.5896C38.1466 35.153 38.5758 34.489 38.7767 34.298C38.8315 34.2253 38.8133 34.2162 38.8681 34.1434C38.9229 34.107 39.1146 33.9069 39.2425 33.7068C39.2882 33.6341 39.3247 33.4977 39.4069 33.343C39.5347 33.1156 39.7174 32.9246 39.8361 32.7245C39.8909 32.6336 39.9183 32.5063 39.9731 32.4062C40.1101 32.1424 40.4388 31.6331 40.585 31.4239C40.7037 31.242 40.7402 31.2784 40.8863 30.9691C40.932 30.8509 40.932 30.7872 40.8863 30.769C40.9137 30.4507 41.4617 29.8595 41.763 29.5957C42.0279 29.4502 42.2288 29.2683 42.4936 29.2137C42.5484 29.2046 42.6032 29.2046 42.658 29.1864C42.7219 29.1773 42.8772 29.1501 42.9868 29.1319C43.1968 29.1319 43.3795 29.141 43.5713 29.1864C43.7082 29.2683 43.827 29.2956 43.9548 29.3229C44.0827 29.3684 44.2014 29.4138 44.3201 29.4684C44.4114 29.5139 44.4936 29.5594 44.5941 29.6321C44.658 29.6685 44.795 29.7413 44.8681 29.7867C44.9594 29.8504 45.0507 29.9323 45.142 29.9868C45.2151 30.0232 45.2699 30.0596 45.3247 30.1051C45.3977 30.1596 45.4251 30.2142 45.5073 30.2688C45.5621 30.3052 45.7174 30.4052 45.763 30.4325C46.0461 30.6599 46.3201 30.9419 46.5576 31.1601C46.9137 31.624 47.2334 32.0151 47.3156 32.5608C47.343 32.6882 47.3886 32.7882 47.3612 32.9155C47.3612 32.9428 47.3795 32.9428 47.3795 32.9883C47.3521 33.243 47.3247 33.5431 47.1512 33.7796C47.1512 33.7887 47.1512 33.8069 47.1512 33.8251C47.1146 33.8797 47.0598 33.9433 47.0324 33.9706C46.9959 34.007 46.9685 34.0525 46.9411 34.0889L46.8498 34.2071C46.5484 34.6801 46.311 35.0712 46.1375 35.3986C45.9092 35.6896 45.7082 36.0807 45.4525 36.4627C45.3338 36.6265 45.2242 36.7993 45.0964 36.9812C44.8863 37.3177 44.585 37.7361 44.3749 38.0544C44.3384 38.1181 44.2471 38.2727 44.2014 38.3455C44.0918 38.5183 43.9548 38.682 43.8361 38.8639C43.3886 39.5643 42.8224 40.3283 42.3932 40.9104C42.2653 41.0923 42.1649 41.256 42.0279 41.4652C41.7904 41.8108 41.5073 42.1383 41.2608 42.4748C41.2151 42.5385 41.1329 42.6658 41.0964 42.7295C40.932 42.9478 40.795 43.1206 40.6398 43.3298C40.3201 43.739 39.9548 44.0847 39.5256 44.2484C39.279 44.403 38.9046 44.5031 38.5119 44.5576C38.1101 44.594 37.6717 44.594 37.2699 44.5303C37.0872 44.5485 36.9229 44.4849 36.7311 44.4485C36.1557 44.3393 35.4069 44.1392 34.8224 43.8573C32.2927 42.8477 29.8818 41.0923 27.7356 39.3642C27.6261 39.2459 27.5347 39.1732 27.343 39.0095C27.2516 38.9549 27.1603 38.9003 27.0598 38.8457C27.0233 38.8003 26.8955 38.7184 26.795 38.6456C26.4023 38.4819 25.9457 38.2454 25.4434 38.1272C25.3064 38.1454 25.0233 38.0272 24.8315 38.0362C24.7585 37.9999 24.9411 38.0362 24.8133 37.9999C24.4845 37.9999 23.4343 37.8907 22.9685 37.9362C23.0051 37.9362 23.0051 37.9453 22.9685 37.9453C22.8589 37.9271 22.8041 37.9726 22.6763 37.9726C21.8361 38.0181 21.2608 38.1727 20.5758 38.3182C20.4845 38.3182 20.2471 38.3273 20.174 38.3728C20.3019 38.3546 20.4571 38.3273 20.448 38.3546C20.2379 38.3819 19.9731 38.4455 19.8361 38.5001C19.5804 38.5547 19.4525 38.5638 19.2334 38.6365C19.1786 38.6456 19.2973 38.6547 19.1786 38.682C18.8224 38.7548 18.6489 38.8184 18.3384 38.8821C18.2562 38.9367 17.8909 39.0367 17.7722 39.0549C17.6717 39.1004 17.8909 39.0549 17.8087 39.0822C17.5347 39.1732 17.2699 39.255 17.0142 39.3187C16.9594 39.3551 16.9229 39.3824 16.8133 39.4187C16.7402 39.446 16.8224 39.3824 16.722 39.4187C16.6306 39.4642 16.8041 39.4187 16.7859 39.4551C16.6489 39.5097 16.6854 39.5188 16.6215 39.5552C16.4206 39.6007 16.3019 39.6825 16.1283 39.7462C15.9548 39.8189 15.7448 39.8735 15.5804 39.9463C15.4343 40.0099 15.3795 40.0463 15.2151 40.11C15.0781 40.1555 14.9594 40.1737 14.8041 40.2373C14.7311 40.2737 14.8681 40.2373 14.7493 40.2828C14.2288 40.4829 13.7083 40.7012 13.343 40.8922C13.9092 40.6102 14.3658 40.492 14.8681 40.2555C14.9594 40.2555 15.0964 40.1464 15.1877 40.1646C15.2151 40.1373 15.0964 40.1646 15.2151 40.1282C15.2516 40.1191 15.2699 40.1191 15.3338 40.0918C15.2699 40.1555 15.3795 40.11 15.4343 40.1191C15.8818 39.9554 16.2288 39.828 16.6124 39.7007C16.6854 39.6734 16.5576 39.7007 16.6398 39.6643C16.8041 39.6097 16.8589 39.5916 17.0781 39.5188C17.142 39.5188 17.2608 39.5006 17.206 39.5552C16.6763 39.7189 15.9822 39.9918 15.3612 40.2191C15.1694 40.2828 14.9685 40.3374 14.8772 40.4101C15.1512 40.2919 15.3886 40.2646 15.6352 40.1828C15.9457 40.0736 16.2745 39.9281 16.585 39.8371C16.6489 39.8189 16.7402 39.8007 16.795 39.7917C16.8589 39.7735 16.9594 39.7189 17.0233 39.7007C17.0964 39.6825 17.1055 39.6916 17.1694 39.6734C17.2973 39.6279 17.3978 39.5825 17.5439 39.537C17.7722 39.4824 18.037 39.4096 18.311 39.3369C18.3658 39.3369 18.3475 39.3733 18.2836 39.3915C17.964 39.4733 17.9092 39.4915 17.5804 39.5916C17.6169 39.5916 17.6443 39.5916 17.6443 39.5916C17.5439 39.6188 17.5073 39.6188 17.4434 39.6552C17.69 39.5825 17.6809 39.637 17.5987 39.6825C16.9959 39.8462 16.2745 40.11 15.7813 40.2646C15.7356 40.301 15.7083 40.3283 15.6169 40.3647C15.0781 40.5739 14.4571 40.7831 13.8909 41.0286C14.5667 40.8103 15.2516 40.5284 16.0279 40.2464C16.0553 40.2464 16.0462 40.2646 16.1192 40.2464C16.448 40.1191 16.8407 39.9918 17.0964 39.9099C17.2151 39.9099 17.3338 39.9008 17.4617 39.8917C18.2836 39.6188 18.9229 39.5825 19.7174 39.4006C19.7174 39.4187 19.7813 39.4096 19.8087 39.4187C19.7448 39.446 19.7083 39.4733 19.6352 39.5097C19.5073 39.537 19.3704 39.5825 19.2516 39.5916C18.5941 39.8008 17.6443 40.0281 16.8315 40.3192C16.7402 40.3829 16.8315 40.3829 16.9046 40.3829C17.3064 40.2737 17.6535 40.1282 18.0827 40.0463C18.2562 40.0736 18.1101 40.1737 17.7904 40.2737C17.2516 40.4374 16.3749 40.7194 15.9914 40.8376C14.4571 41.4197 12.9411 42.02 11.416 42.7477C12.2745 42.3747 13.0507 41.9927 13.8452 41.7108C13.8452 41.7017 13.8635 41.6835 13.9274 41.6562C14.6854 41.3652 15.4708 41.0741 16.2288 40.7831C16.5302 40.7285 17.069 40.5011 17.3704 40.4556C17.3156 40.5466 17.0872 40.6557 16.795 40.7649C17.0964 40.6648 17.3886 40.592 17.6535 40.5284C17.8635 40.4738 18.2197 40.3374 18.3384 40.3283C18.3658 40.3283 18.3201 40.3556 18.3658 40.3374C18.2745 40.3556 18.521 40.2919 18.5393 40.2828C18.6489 40.2464 18.6306 40.2464 18.7676 40.21C18.9411 40.1646 18.9411 40.1646 19.0598 40.1555C19.6717 40.019 20.2562 39.8644 20.8589 39.7826C20.9229 39.7735 21.0416 39.7553 21.0598 39.7462C21.1146 39.7462 21.069 39.7644 21.142 39.7462C21.1877 39.7462 21.1603 39.728 21.2242 39.7189C21.4708 39.6916 21.7356 39.6643 21.964 39.637C22.5576 39.5643 23.2334 39.5734 23.6991 39.5916C23.7996 39.6007 23.6626 39.6188 23.7996 39.6279C24.5758 39.7007 25.3704 39.8735 25.9548 40.2464C26.0005 40.2737 25.9548 40.2828 26.0096 40.3192C26.0827 40.3738 26.0918 40.3374 26.1466 40.3829C26.1557 40.3919 26.174 40.4101 26.1831 40.4192C26.1831 40.4374 26.174 40.4192 26.1923 40.4556C27.0233 41.2287 27.9366 41.9109 28.8681 42.5839C29.7448 43.2024 30.6398 43.8118 31.5256 44.3212C32.2288 44.7304 32.932 45.067 33.5987 45.3944C34.5119 45.7855 35.3338 46.0857 36.2836 46.2949C36.9685 46.4495 37.7722 46.5495 38.4114 46.4859C38.521 46.4859 38.6489 46.4586 38.7767 46.4404C38.9685 46.404 39.1694 46.404 39.3612 46.3585C39.8818 46.2221 40.4114 46.0038 40.8681 45.6946C41.3977 45.3762 41.8087 44.9487 42.174 44.5031C42.3201 44.303 42.4936 44.0483 42.6398 43.8482C42.7402 43.7209 42.8772 43.548 42.9777 43.4207C43.2608 43.0205 43.5895 42.5657 43.8635 42.1746C44.2562 41.6471 44.6672 41.1196 45.0233 40.5557C45.4617 39.9645 45.964 39.2368 46.3475 38.6456C46.7128 38.2 46.9959 37.6815 47.3521 37.1449C47.3795 37.1085 47.4343 37.0358 47.4617 36.9994C47.8361 36.4718 48.2288 35.8079 48.5119 35.3258V35.3076L48.5393 35.2894C48.7767 34.9984 48.9137 34.7528 49.0507 34.5072C49.1786 34.1252 49.3247 33.816 49.3795 33.4431C49.4525 33.0429 49.416 32.6609 49.343 32.288C49.3247 32.1606 49.3247 32.0515 49.279 31.9332C49.1877 31.5603 49.0233 31.242 48.8407 30.8964C48.5484 30.3961 48.2288 29.8868 47.7722 29.4684C47.6078 29.2956 47.416 29.0773 47.1877 28.8772C46.9594 28.6862 46.7219 28.5043 46.5119 28.3497C45.7904 27.7949 44.9685 27.3219 43.9274 27.0672C43.5713 27.0036 43.2425 26.9035 42.8681 26.949C42.4754 26.9126 41.9914 27.0126 41.5347 27.1673C41.0872 27.331 40.6306 27.5493 40.2653 27.8494C39.7082 28.2587 39.2425 28.9136 38.932 29.2774C38.8133 29.332 38.7402 29.4866 38.6763 29.6776C38.6489 29.7685 38.6032 29.905 38.6306 29.8868C38.6306 29.9232 38.5576 30.0505 38.5028 30.1233C38.3567 30.2961 38.3384 30.2506 38.2471 30.3052C38.1192 30.4598 38.037 30.6235 37.9457 30.7963C37.8178 30.9782 37.6717 31.0874 37.5165 31.342H37.5439ZM17.827 39.2277C17.827 39.2277 17.827 39.2186 17.7996 39.2277C17.8544 39.1823 18.0096 39.1823 17.827 39.2277ZM17.7722 39.255C17.5256 39.3278 17.1968 39.4551 17.0142 39.4915C16.9685 39.5097 17.069 39.5097 16.9959 39.5461C16.8863 39.5643 16.7585 39.5916 16.585 39.6461C16.5576 39.6007 16.9229 39.5188 16.9229 39.4642C17.0599 39.4278 17.1329 39.4096 17.1877 39.3642C17.4799 39.3005 17.5256 39.2459 17.7448 39.2005C17.6991 39.2459 17.7904 39.2095 17.7813 39.255H17.7722Z" fill="white"/>
<path fill-rule="evenodd" clip-rule="evenodd" d="M49.9629 16.1836C49.9629 16.1836 50.0177 16.1836 50.0542 16.2018C50.0451 16.2109 49.9903 16.2018 49.9629 16.1836Z" fill="white"/>
<path fill-rule="evenodd" clip-rule="evenodd" d="M50.2285 18.2852C50.2285 18.2852 50.3016 18.3033 50.2833 18.3306C50.2559 18.3215 50.2468 18.3033 50.2285 18.2852Z" fill="white"/>
<path fill-rule="evenodd" clip-rule="evenodd" d="M50.293 18.3672C50.293 18.3672 50.3295 18.3854 50.3569 18.3945C50.3478 18.4127 50.3021 18.3763 50.293 18.3672Z" fill="white"/>
<path fill-rule="evenodd" clip-rule="evenodd" d="M50.6758 18.293C50.6758 18.293 50.7306 18.3112 50.7397 18.3294C50.7306 18.3294 50.694 18.3021 50.6758 18.293Z" fill="white"/>
<path fill-rule="evenodd" clip-rule="evenodd" d="M50.5938 18.6016C50.5938 18.6016 50.6577 18.6198 50.6942 18.6652C50.6668 18.6652 50.6303 18.6198 50.5938 18.6016Z" fill="white"/>
<path fill-rule="evenodd" clip-rule="evenodd" d="M51.8457 17.8008C51.9096 17.8554 52.0375 17.9645 52.0557 18.0282C52.001 17.9463 51.9096 17.8735 51.8457 17.8008Z" fill="white"/>
<path fill-rule="evenodd" clip-rule="evenodd" d="M51.5352 18.3828C51.6173 18.4283 51.6995 18.5647 51.7817 18.6466C51.7635 18.6739 51.6813 18.5192 51.6356 18.5101C51.6173 18.492 51.6082 18.4738 51.5991 18.4465C51.5808 18.4283 51.5443 18.4192 51.5352 18.3828Z" fill="white"/>
<path fill-rule="evenodd" clip-rule="evenodd" d="M52.082 19.3047C52.082 19.3047 52.1094 19.3047 52.1186 19.3229C52.1186 19.332 52.1186 19.3411 52.1003 19.3411L52.082 19.3047Z" fill="white"/>
<path fill-rule="evenodd" clip-rule="evenodd" d="M52.4759 19.6133C52.5307 19.6679 52.5855 19.8316 52.5947 19.9225C52.5947 19.9316 52.6129 19.9225 52.622 19.9498C52.6403 20.0044 52.6586 20.1226 52.622 20.0135C52.5581 19.877 52.5307 19.7588 52.4668 19.6133H52.4759Z" fill="white"/>
<path fill-rule="evenodd" clip-rule="evenodd" d="M52.1914 19.7852C52.1914 19.7852 52.2188 19.8215 52.2279 19.8579C52.2097 19.8579 52.1914 19.8033 52.1914 19.7852Z" fill="white"/>
<path fill-rule="evenodd" clip-rule="evenodd" d="M53.0312 19.5938C53.0312 19.5938 53.0586 19.6756 53.0769 19.7029C53.0586 19.6847 53.0312 19.621 53.0312 19.5938Z" fill="white"/>
<path fill-rule="evenodd" clip-rule="evenodd" d="M52.3203 19.832C52.3203 19.832 52.366 19.9139 52.3842 19.9412C52.366 19.9776 52.3386 19.8684 52.3203 19.832Z" fill="white"/>
<path fill-rule="evenodd" clip-rule="evenodd" d="M52.2559 19.9023C52.2559 19.9023 52.3015 19.9751 52.3198 20.0206C52.2924 20.0024 52.2741 19.9387 52.2559 19.9023Z" fill="white"/>
<path fill-rule="evenodd" clip-rule="evenodd" d="M53.2246 19.668C53.2246 19.668 53.2611 19.7134 53.2794 19.7498C53.2611 19.7498 53.2429 19.6953 53.2246 19.668Z" fill="white"/>
<path fill-rule="evenodd" clip-rule="evenodd" d="M53.0957 19.7656C53.0957 19.7656 53.1596 19.9475 53.1779 20.0203C53.1414 19.9293 53.1231 19.8657 53.0957 19.7656Z" fill="white"/>
<path fill-rule="evenodd" clip-rule="evenodd" d="M52.3203 20.0469C52.366 20.0924 52.366 20.1833 52.3751 20.2288C52.3477 20.1833 52.3568 20.1014 52.3203 20.0469Z" fill="white"/>
<path fill-rule="evenodd" clip-rule="evenodd" d="M52.6582 20.1133C52.6582 20.1133 52.6856 20.1679 52.7039 20.2042C52.6765 20.2133 52.6765 20.1497 52.6582 20.1133Z" fill="white"/>
<path fill-rule="evenodd" clip-rule="evenodd" d="M52.6113 20.2305C52.6113 20.2305 52.6296 20.2759 52.6387 20.3214C52.6205 20.3214 52.6205 20.2578 52.6113 20.2305Z" fill="white"/>
<path fill-rule="evenodd" clip-rule="evenodd" d="M52.5664 20.3398C52.5664 20.3398 52.6121 20.4308 52.5664 20.4217C52.5664 20.3944 52.5664 20.3944 52.5847 20.3944C52.5847 20.3671 52.5664 20.3762 52.5664 20.3398Z" fill="white"/>
<path fill-rule="evenodd" clip-rule="evenodd" d="M53.1044 20.5045C53.0953 20.3317 53.0679 20.4499 53.1044 20.5045Z" fill="white"/>
<path fill-rule="evenodd" clip-rule="evenodd" d="M53.3613 20.6133C53.3796 20.6679 53.3887 20.7224 53.3887 20.7861C53.3887 20.7497 53.3613 20.6406 53.3613 20.6133Z" fill="white"/>
<path fill-rule="evenodd" clip-rule="evenodd" d="M53.4062 20.6484C53.4062 20.6484 53.4428 20.7394 53.4154 20.7121V20.6484H53.4062Z" fill="white"/>
<path fill-rule="evenodd" clip-rule="evenodd" d="M53.7712 20.7383C53.7712 20.7383 53.7894 20.8019 53.7894 20.8383C53.7712 20.8292 53.762 20.7565 53.7712 20.7383Z" fill="white"/>
<path fill-rule="evenodd" clip-rule="evenodd" d="M53.7617 21.1484C53.7982 21.2667 53.7617 21.3122 53.7617 21.1484Z" fill="white"/>
<path fill-rule="evenodd" clip-rule="evenodd" d="M52.7305 18.0938C52.7305 18.0938 52.7761 18.1301 52.7944 18.1392C52.7944 18.1938 52.8675 18.2393 52.8949 18.3029C52.8309 18.2575 52.8127 18.1756 52.7305 18.0938Z" fill="white"/>
<path fill-rule="evenodd" clip-rule="evenodd" d="M52.9494 19.7108C52.9494 19.7108 52.9494 19.7381 52.9676 19.7745C52.9585 19.7745 52.9494 19.7745 52.9402 19.7745C52.9585 19.8382 52.9768 19.8654 52.995 19.92C52.995 19.92 52.9859 19.9109 52.9768 19.92C53.0316 19.9837 52.995 20.0746 53.0498 20.2202C52.9768 20.0837 52.922 19.7745 52.8672 19.6562C52.8946 19.6562 52.9128 19.7745 52.9494 19.7836C52.9676 19.7836 52.9311 19.7108 52.9676 19.729L52.9494 19.7108Z" fill="white"/>
<path fill-rule="evenodd" clip-rule="evenodd" d="M52.4017 20.0232C52.42 20.0232 52.42 20.0687 52.4108 20.0778C52.3926 20.0687 52.3561 19.9232 52.3926 20.0232H52.4017Z" fill="white"/>
<path fill-rule="evenodd" clip-rule="evenodd" d="M52.6391 20.8396H52.6117C52.6117 20.9123 52.63 21.0306 52.6117 21.0851C52.5843 21.0033 52.63 20.8123 52.5752 20.7577C52.5752 20.7304 52.5752 20.7304 52.5752 20.7031C52.5112 20.5121 52.5021 20.2938 52.4199 20.0938C52.5112 20.1665 52.4747 20.3939 52.5569 20.4849C52.5569 20.503 52.5569 20.4849 52.5569 20.4758C52.5752 20.5667 52.5843 20.7304 52.6391 20.8487V20.8396Z" fill="white"/>
<path fill-rule="evenodd" clip-rule="evenodd" d="M53.4621 20.6758C53.4621 20.6758 53.4895 20.7304 53.4987 20.7576C53.4987 20.7667 53.453 20.7031 53.4621 20.6758Z" fill="white"/>
<path fill-rule="evenodd" clip-rule="evenodd" d="M52.6941 24.7874C52.7398 24.7328 52.7581 24.6601 52.8037 24.6055C52.9042 24.4691 53.0229 24.369 53.096 24.2235C53.1599 24.0871 53.2056 23.9597 53.2695 23.8233C53.3151 23.7233 53.3243 23.6778 53.3517 23.6141C53.4339 23.4049 53.5069 23.2412 53.4704 23.1321C53.4795 22.9774 53.5161 22.7864 53.5069 22.65C53.5069 22.6318 53.5161 22.5863 53.5161 22.5772C53.4978 22.2316 53.3608 22.0042 53.3151 21.6404C53.2786 21.604 53.2238 21.5768 53.1782 21.5222C53.1599 21.4949 53.1508 21.4312 53.1234 21.413C53.0412 21.3403 52.9407 21.3948 52.8859 21.2766C52.8677 21.2766 52.8585 21.2948 52.8494 21.2948C52.685 21.2948 52.548 21.3403 52.4202 21.3039C52.338 21.3767 52.2558 21.3585 52.1827 21.413C52.1371 21.4494 52.0914 21.5131 52.0457 21.5495C52.0001 21.5949 51.9544 21.6404 51.8996 21.6768C51.854 21.6768 51.8357 21.7314 51.79 21.7314C51.7535 21.7859 51.6987 21.8587 51.6622 21.9133C51.6439 21.9133 51.6348 21.9315 51.6165 21.9315C51.4887 22.0588 51.3699 22.1679 51.2695 22.3317C51.2695 22.3499 51.2421 22.3771 51.233 22.3953C51.1782 22.5227 51.0777 22.7137 50.9772 22.7319C50.959 22.7501 50.9772 22.7591 50.959 22.7773C50.9224 22.7773 50.8403 22.8046 50.8129 22.8592C50.8037 22.8774 50.8129 22.932 50.7946 22.9683C50.7581 23.032 50.6759 23.0502 50.6485 23.1048C50.6302 23.1321 50.6485 23.1775 50.6302 23.2048C50.5937 23.2776 50.475 23.3867 50.411 23.414C50.3654 23.4413 50.3288 23.4322 50.3106 23.4595C50.2923 23.4868 50.2923 23.5323 50.3197 23.5686C50.3106 23.7233 50.0366 23.8051 49.9179 23.9325C49.79 23.9506 49.717 24.0598 49.6074 24.0962C49.5891 24.0962 49.5526 24.0962 49.5343 24.1053C49.4978 24.1235 49.4521 24.1598 49.4065 24.1871C49.3334 24.2326 49.2512 24.2417 49.1873 24.2781C49.0686 24.2508 49.0046 24.3236 48.9042 24.3417C48.8677 24.3417 48.8311 24.3326 48.7946 24.3417C48.7581 24.3417 48.7307 24.369 48.6941 24.369C48.6576 24.369 48.6211 24.3508 48.5845 24.3508C48.5571 24.3508 48.5389 24.369 48.5206 24.369C48.4932 24.369 48.475 24.3599 48.4476 24.3599C48.4202 24.3599 48.3836 24.3872 48.3562 24.3872C48.2375 24.3872 48.1188 24.3599 48.0001 24.3872C47.8083 24.3236 47.6256 24.3417 47.4156 24.2235C47.3608 24.2235 47.3151 24.2144 47.2603 24.178C47.2421 24.178 47.2421 24.1962 47.2238 24.178C47.1234 24.1053 46.9772 24.1053 46.8768 24.0143C46.8768 24.0143 46.8585 24.0143 46.8494 24.0143C46.7124 23.9052 46.5389 23.7687 46.4019 23.7051C46.3471 23.605 46.2192 23.5595 46.1371 23.4595C46.0914 23.414 46.064 23.3594 46.0183 23.314C45.9361 23.2321 45.854 23.1048 45.79 23.0138C45.7718 22.9865 45.7352 22.9683 45.717 22.9411C45.6804 22.8956 45.6622 22.8319 45.6256 22.7864C45.4887 22.5863 45.3973 22.3226 45.3517 22.1134C45.3334 22.0497 45.2969 22.0042 45.2786 21.9315C45.2512 21.8132 45.2603 21.6859 45.2421 21.5586C45.2421 21.5313 45.2238 21.4949 45.2238 21.4676C45.2147 21.3948 45.2238 21.3221 45.2238 21.2493C45.2238 21.0583 45.2056 20.8673 45.2695 20.6945C45.2695 20.458 45.3699 20.1397 45.4887 19.8941C45.4887 19.8213 45.5343 19.785 45.5617 19.7304C45.6439 19.5576 45.7444 19.3211 45.8905 19.1756C46.3836 18.457 47.2421 18.0114 48.1005 17.8567C48.1736 17.8749 48.274 17.8567 48.338 17.8385C48.3562 17.8567 48.3928 17.8476 48.4202 17.8567C48.5298 17.8113 48.6667 17.8567 48.8037 17.8567C48.8403 17.8113 48.9224 17.8567 48.9772 17.8385C48.9955 17.8658 48.9407 17.8567 48.9772 17.8749C49.0777 17.8022 49.3791 17.9113 49.5161 17.9295C49.5069 17.9295 49.5161 17.9113 49.5161 17.9204C49.5435 17.9477 49.5708 17.9204 49.6074 17.9295C49.854 18.0023 50.0457 18.0114 50.2558 18.0932C50.274 18.1205 50.3197 18.1842 50.3562 18.1751C50.3197 18.1478 50.2832 18.1296 50.3014 18.1023C50.3562 18.1478 50.4384 18.1842 50.4932 18.1842C50.5663 18.2206 50.5845 18.266 50.6667 18.2933C50.685 18.3024 50.6667 18.2569 50.7033 18.2842C50.7855 18.3661 50.8585 18.3752 50.9224 18.4661C50.9681 18.4661 51.0686 18.5389 51.0868 18.5844C51.1234 18.6026 51.0777 18.5389 51.1051 18.5571C51.1873 18.6117 51.2512 18.6753 51.2969 18.7572C51.3243 18.7572 51.3517 18.7572 51.3791 18.7845C51.3973 18.8027 51.3517 18.8027 51.3791 18.8209C51.4156 18.839 51.3791 18.7845 51.4065 18.7754C51.4521 18.8027 51.4521 18.7845 51.4887 18.7936C51.5161 18.8572 51.5709 18.8754 51.6256 18.9209C51.6713 18.9664 51.7078 19.03 51.7535 19.0755C51.79 19.121 51.8174 19.1301 51.854 19.1847C51.8814 19.2301 51.8814 19.2756 51.9179 19.3211C51.9361 19.3484 51.927 19.2938 51.9544 19.3211C52.0549 19.4939 52.1553 19.6667 52.2466 19.7941C52.1097 19.6031 52.0914 19.4302 51.9453 19.2756C51.9544 19.2392 51.8814 19.212 51.8996 19.1665C51.8814 19.1665 51.8996 19.212 51.8722 19.1665C51.8722 19.1483 51.8722 19.1483 51.854 19.121C51.8996 19.121 51.8722 19.0937 51.8905 19.0664C51.7992 18.9209 51.6987 18.8299 51.6074 18.7117C51.58 18.6935 51.6074 18.739 51.58 18.7117C51.5343 18.6753 51.5161 18.6389 51.4613 18.5935C51.4613 18.5571 51.443 18.5207 51.4887 18.5116C51.6256 18.6571 51.8357 18.8481 51.9727 19.0482C52.0092 19.1119 52.0275 19.1847 52.0914 19.2029C52.0275 19.1119 52.0183 19.0209 51.9727 18.93C51.8996 18.8299 51.79 18.7481 51.7261 18.6389C51.7078 18.6117 51.7078 18.5935 51.6896 18.5662C51.6713 18.548 51.6348 18.5298 51.6165 18.5116C51.5982 18.4934 51.6074 18.4752 51.5891 18.457C51.5526 18.4207 51.5069 18.4025 51.4704 18.3661C51.4065 18.2933 51.3517 18.2206 51.2695 18.1478C51.2695 18.1296 51.2877 18.1114 51.306 18.1205C51.3973 18.2115 51.4156 18.2206 51.5069 18.3115C51.5069 18.3024 51.4978 18.2842 51.5069 18.2842C51.5343 18.3115 51.5343 18.3297 51.5617 18.3388C51.4978 18.266 51.5343 18.2387 51.58 18.2478C51.7444 18.4297 51.9453 18.648 52.0457 18.8209C52.0731 18.8299 52.0914 18.8299 52.1188 18.8572C52.2558 19.0391 52.3654 19.2665 52.4841 19.4848C52.4019 19.212 52.2375 18.9664 52.0366 18.7117C52.0366 18.7026 52.0549 18.6935 52.0366 18.6753C51.9361 18.5753 51.8448 18.4388 51.7626 18.3752C51.7535 18.3206 51.7444 18.266 51.7352 18.2115C51.4795 17.975 51.3608 17.7294 51.0868 17.5293C51.096 17.5111 51.0868 17.4929 51.0868 17.4747C51.1142 17.4747 51.1416 17.4747 51.1782 17.4747C51.2238 17.5111 51.2786 17.5293 51.306 17.5748C51.58 17.7021 51.854 18.0205 52.1188 18.2751C52.1736 18.2933 52.1736 18.2478 52.1736 18.2024C52.064 18.0568 51.927 17.9568 51.8174 17.8022C51.8174 17.7021 51.9179 17.7021 52.0183 17.8113C52.201 17.9841 52.4658 18.3297 52.548 18.4661C53.0046 19.0482 53.2695 19.7577 53.4156 20.5035C53.3791 20.076 53.2147 19.7122 53.1051 19.3575C53.096 19.3575 53.0777 19.3575 53.0686 19.3302C52.9224 18.9846 52.7215 18.6208 52.5024 18.3752C52.4567 18.2387 52.2558 18.0568 52.1919 17.9295C52.2649 17.9113 52.3836 17.9659 52.4841 18.075C52.4202 17.9932 52.2832 17.8204 52.2284 17.7476C52.1645 17.6657 52.0183 17.5566 51.9909 17.5111C51.9909 17.502 52.0092 17.5111 51.9909 17.4838C52.0183 17.5111 51.9361 17.4384 51.927 17.4293C51.8814 17.402 51.8814 17.4111 51.8357 17.3656C51.7718 17.3019 51.7809 17.3019 51.7444 17.2564C51.5161 17.0563 51.2603 16.9199 51.0138 16.7562C50.9864 16.738 50.9316 16.7107 50.9316 16.7107C50.9042 16.6925 50.9316 16.6925 50.9042 16.6743C50.8859 16.6652 50.8859 16.6743 50.8585 16.6743C50.7581 16.6198 50.6393 16.5561 50.5298 16.5015C50.2558 16.3924 49.9361 16.265 49.6987 16.2196C49.6439 16.2014 49.717 16.2014 49.653 16.1832C49.2512 16.074 48.8129 16.0195 48.3654 16.0195C48.3288 16.0195 48.3654 15.9922 48.3106 15.9922C48.2466 15.9922 48.2649 16.0195 48.2101 16.0195C48.1736 16.0195 48.1462 16.0013 48.1279 15.9922C47.6165 16.0104 47.0868 16.1377 46.5937 16.3469C46.1371 16.5379 45.6987 16.7744 45.3334 17.0654C45.0412 17.2837 44.8037 17.5475 44.5754 17.784C44.3014 18.1205 44.0914 18.4388 43.8905 18.8027C43.7535 19.0664 43.6165 19.3575 43.5526 19.6031C43.5526 19.6303 43.5252 19.7304 43.5252 19.7486C43.5069 19.8213 43.4613 19.885 43.443 19.9578C43.3882 20.1579 43.3791 20.3671 43.3517 20.5672C43.306 20.7945 43.3151 21.0037 43.2969 21.2311C43.2969 21.3585 43.3243 21.4767 43.3334 21.5949C43.3334 21.6768 43.3243 21.7678 43.3334 21.8496C43.3699 22.0861 43.4339 22.3226 43.4887 22.5409C43.5526 22.8319 43.6348 23.1412 43.79 23.4049C43.9179 23.7233 44.1188 24.078 44.3288 24.3326C44.4384 24.5782 44.6667 24.751 44.8677 24.9693C44.8859 24.9875 44.8951 25.0148 44.9224 25.033C45.2238 25.3877 45.6896 25.5969 45.9909 25.8152C46.1279 25.8516 46.2192 25.9334 46.3288 25.9971C46.4476 26.0699 46.5845 26.0881 46.7033 26.1335C46.7398 26.1517 46.7763 26.1699 46.822 26.1881C46.9498 26.2427 47.0868 26.2518 47.2238 26.2791C47.4339 26.3336 47.6622 26.4155 47.9179 26.4246C48.1097 26.461 48.4019 26.5155 48.6302 26.4701C49.0138 26.5064 49.3973 26.4064 49.7809 26.3245C49.9087 26.2973 50.0457 26.3063 50.1553 26.2245C50.3014 26.2063 50.4476 26.1426 50.6028 26.0699C50.7581 25.9971 50.9224 25.9516 51.0868 25.8698C51.3151 25.7515 51.5617 25.5605 51.7444 25.4969C51.9087 25.5605 51.9087 25.2877 52.064 25.1785C52.1645 25.133 52.1827 25.1694 52.2558 25.1785C52.3471 25.133 52.4019 25.0512 52.4567 24.9784C52.5389 24.9057 52.6485 24.8966 52.7489 24.7783L52.6941 24.7874ZM51.169 18.4388C51.169 18.4388 51.169 18.4479 51.169 18.457C51.1325 18.457 51.1234 18.3934 51.169 18.4388ZM51.1964 18.4388C51.2603 18.4934 51.3699 18.5753 51.3973 18.6389C51.4065 18.648 51.4156 18.6026 51.443 18.6208C51.4521 18.6571 51.4795 18.7026 51.5252 18.7481C51.4887 18.7845 51.4247 18.6662 51.3882 18.6935C51.3608 18.6571 51.3425 18.6298 51.306 18.6298C51.2512 18.5389 51.2147 18.548 51.169 18.4843C51.2056 18.4843 51.169 18.457 51.2056 18.4388H51.1964Z" fill="white"/>
</g>
<defs>
<clipPath id="clip0_868_1371">
<rect width="50" height="37" fill="white" transform="translate(10 16)"/>
</clipPath>
</defs>
</svg>
