<svg width="70" height="70" viewBox="0 0 70 70" fill="none" xmlns="http://www.w3.org/2000/svg">
<g clip-path="url(#clip0_868_17267)">
<path fill-rule="evenodd" clip-rule="evenodd" d="M36.6562 41.1848C36.704 41.1848 36.7888 41.1797 36.8842 41.1797C36.863 41.1899 36.7305 41.195 36.6562 41.1848Z" fill="white"/>
<path fill-rule="evenodd" clip-rule="evenodd" d="M40.125 42.1334C40.1939 42.1334 40.4113 42.1232 40.3901 42.1334C40.2681 42.1334 40.2098 42.1334 40.125 42.1334Z" fill="white"/>
<path fill-rule="evenodd" clip-rule="evenodd" d="M40.5 42.1523C40.5 42.1523 40.6856 42.1523 40.7651 42.1523C40.7651 42.1625 40.5477 42.1574 40.5 42.1523Z" fill="white"/>
<path fill-rule="evenodd" clip-rule="evenodd" d="M41.5664 42.0098C41.6194 42.0047 41.7679 41.9996 41.8315 42.0098C41.8156 42.0149 41.6459 42.0098 41.5664 42.0098Z" fill="white"/>
<path fill-rule="evenodd" clip-rule="evenodd" d="M42.0547 42.1625C42.1448 42.1523 42.2986 42.1523 42.5106 42.1523C42.4364 42.1625 42.219 42.1574 42.0547 42.1625Z" fill="white"/>
<path fill-rule="evenodd" clip-rule="evenodd" d="M43.375 41.4209C43.6083 41.4209 44.0801 41.4056 44.2444 41.4209C43.9635 41.4107 43.6348 41.426 43.375 41.4209Z" fill="white"/>
<path fill-rule="evenodd" clip-rule="evenodd" d="M43.9941 41.7446C44.2857 41.7242 44.8 41.7446 45.1711 41.7344C45.2241 41.7497 44.6303 41.7344 44.519 41.7497C44.4395 41.7497 44.3705 41.7497 44.2963 41.7446C44.1956 41.7446 44.1002 41.7548 43.9941 41.7446Z" fill="white"/>
<path fill-rule="evenodd" clip-rule="evenodd" d="M47.5463 41.7926C47.5463 41.7926 47.5622 41.7773 47.663 41.7773C47.6895 41.7773 47.7001 41.7875 47.6948 41.7926H47.541H47.5463Z" fill="white"/>
<path fill-rule="evenodd" clip-rule="evenodd" d="M49.0209 41.6794C49.2542 41.6641 49.7896 41.6641 50.0812 41.6794C50.1183 41.6794 50.1236 41.6692 50.1979 41.6743C50.3728 41.6743 50.7704 41.6743 50.3834 41.6743C49.8745 41.6743 49.5458 41.6743 49.0156 41.6794H49.0209Z" fill="white"/>
<path fill-rule="evenodd" clip-rule="evenodd" d="M49.1953 41.8488C49.2536 41.8437 49.3438 41.8438 49.4604 41.8438C49.4339 41.8539 49.2377 41.8539 49.1953 41.8488Z" fill="white"/>
<path fill-rule="evenodd" clip-rule="evenodd" d="M49.5547 41.403C49.5971 41.3928 49.7933 41.403 49.894 41.403C49.8198 41.403 49.6342 41.4132 49.5547 41.403Z" fill="white"/>
<path fill-rule="evenodd" clip-rule="evenodd" d="M49.4805 41.7914C49.5759 41.7812 49.7827 41.7863 49.8993 41.7812C50.0053 41.7965 49.6236 41.7914 49.4805 41.7914Z" fill="white"/>
<path fill-rule="evenodd" clip-rule="evenodd" d="M49.6562 41.8383C49.7305 41.8281 49.9531 41.8332 50.1122 41.8281C50.0168 41.8383 49.8047 41.8332 49.6562 41.8383Z" fill="white"/>
<path fill-rule="evenodd" clip-rule="evenodd" d="M49.9219 41.3239C49.9219 41.3239 50.0862 41.3137 50.1922 41.3086C50.171 41.3188 50.0173 41.3188 49.9219 41.3239Z" fill="white"/>
<path fill-rule="evenodd" clip-rule="evenodd" d="M50.0859 41.4043C50.2079 41.3941 50.6373 41.3992 50.8441 41.4043C50.579 41.4145 50.3775 41.4094 50.0859 41.4043Z" fill="white"/>
<path fill-rule="evenodd" clip-rule="evenodd" d="M50.1855 41.831C50.3817 41.8157 50.668 41.831 50.8323 41.831C50.6521 41.8412 50.3923 41.8259 50.1855 41.831Z" fill="white"/>
<path fill-rule="evenodd" clip-rule="evenodd" d="M50.6895 41.6703C50.8008 41.6703 50.8962 41.6653 50.9969 41.6602C51.0181 41.6754 50.8167 41.6703 50.6895 41.6703Z" fill="white"/>
<path fill-rule="evenodd" clip-rule="evenodd" d="M51.0234 41.7037C51.1136 41.6936 51.1931 41.7037 51.3256 41.7037C51.2938 41.7139 51.1136 41.7037 51.0234 41.7037Z" fill="white"/>
<path fill-rule="evenodd" clip-rule="evenodd" d="M51.3535 41.7454C51.3959 41.7352 51.6822 41.7352 51.6186 41.7505C51.5391 41.7505 51.5497 41.7505 51.5444 41.7403C51.4542 41.7403 51.4595 41.7454 51.3535 41.7403V41.7454Z" fill="white"/>
<path fill-rule="evenodd" clip-rule="evenodd" d="M52.1483 41.4852C51.6394 41.4801 51.9628 41.5005 52.1483 41.4852V41.4852Z" fill="white"/>
<path fill-rule="evenodd" clip-rule="evenodd" d="M52.5664 41.3616C52.7202 41.3565 52.8792 41.3616 53.0594 41.3616C52.9428 41.3616 52.6406 41.3667 52.5664 41.3616Z" fill="white"/>
<path fill-rule="evenodd" clip-rule="evenodd" d="M52.684 41.3436C52.631 41.3334 52.9332 41.3334 52.8749 41.3436H52.684Z" fill="white"/>
<path fill-rule="evenodd" clip-rule="evenodd" d="M53.0449 41.1595C53.0979 41.1545 53.2199 41.1494 53.31 41.1545C53.2835 41.1646 53.0873 41.1646 53.0449 41.1595Z" fill="white"/>
<path fill-rule="evenodd" clip-rule="evenodd" d="M54.0996 41.1787C54.4177 41.1634 54.529 41.1787 54.0996 41.1787V41.1787Z" fill="white"/>
<path fill-rule="evenodd" clip-rule="evenodd" d="M45.5684 41.1715C45.632 41.1715 45.7221 41.1664 45.7645 41.1562C45.8811 41.1715 46.0985 41.1563 46.2523 41.1664C46.0561 41.1817 45.8493 41.1664 45.5684 41.1715Z" fill="white"/>
<path fill-rule="evenodd" clip-rule="evenodd" d="M49.805 41.4648C49.8951 41.4648 49.8845 41.4699 49.9905 41.4648C50.0011 41.4699 49.9534 41.4699 49.9481 41.475C50.139 41.475 50.245 41.475 50.404 41.475C50.3828 41.475 50.3616 41.4801 50.3616 41.4852C50.5737 41.4648 50.8229 41.4954 51.2735 41.4852C50.8441 41.5056 49.9004 41.4852 49.5293 41.4954C49.5823 41.4801 49.911 41.4954 49.9481 41.4801C49.9587 41.4699 49.7361 41.4801 49.7997 41.4648H49.805Z" fill="white"/>
<path fill-rule="evenodd" clip-rule="evenodd" d="M50.2031 41.7858C50.2243 41.7858 50.2455 41.7858 50.2031 41.7858C50.2137 41.7756 50.3727 41.7858 50.3939 41.7858C50.3462 41.796 49.8479 41.7858 50.2031 41.7858Z" fill="white"/>
<path fill-rule="evenodd" clip-rule="evenodd" d="M53.0168 41.7512V41.7665C53.2554 41.7665 53.6424 41.7665 53.8068 41.7767C53.5205 41.7869 52.9108 41.7614 52.704 41.7818C52.6351 41.7818 52.5821 41.7818 52.5185 41.7767C51.8505 41.797 51.1242 41.7767 50.4297 41.7869C50.7425 41.7512 51.4476 41.8021 51.8028 41.7614C51.8611 41.7614 51.8028 41.7614 51.7657 41.7614C52.0732 41.7614 52.6245 41.7716 53.0221 41.7461L53.0168 41.7512Z" fill="white"/>
<path fill-rule="evenodd" clip-rule="evenodd" d="M52.7676 41.3122C52.8577 41.3122 52.916 41.302 53.0008 41.2969C53.038 41.2969 52.8471 41.3173 52.7676 41.3122Z" fill="white"/>
<path fill-rule="evenodd" clip-rule="evenodd" d="M49.4867 46.9963C49.6404 46.9963 49.8578 46.9861 50.0221 46.9861C50.441 46.9861 50.8121 47.0014 51.2362 46.9912C51.5861 46.981 51.989 46.9708 52.3442 46.9658C52.6146 46.9607 52.7259 46.9556 52.9168 46.9556C53.2137 46.9556 53.4575 46.9454 53.6802 46.9454C54.0937 46.9454 54.4277 46.9352 54.6398 46.9148C54.7617 46.9148 54.8836 46.9097 55.0056 46.9046C54.9897 46.2983 54.9738 45.4628 54.9579 45.3151C54.9579 45.2386 54.9579 45.1622 54.9579 45.1316C54.8996 44.291 54.8094 43.7764 54.767 42.783C54.7458 42.6963 54.714 42.6403 54.6875 42.4722C54.6769 42.3958 54.6663 42.2276 54.6557 42.1716C54.6133 41.9678 54.555 42.1461 54.5231 41.7691C54.5125 41.7487 54.5072 41.8149 54.5019 41.8353C54.4118 41.8251 54.3376 41.9729 54.2687 41.8812C54.2263 42.141 54.1838 42.085 54.1414 42.2837C54.1202 42.4059 54.0937 42.6505 54.0725 42.8135C54.046 43.002 54.0248 43.1549 53.9983 43.3383C53.9718 43.3383 53.9665 43.5675 53.9453 43.6134C53.9294 43.8681 53.9082 44.1484 53.8923 44.398C53.8817 44.4235 53.8764 44.4948 53.8658 44.4999C53.8445 44.7699 53.8233 45.0603 53.8021 45.3354C53.8021 45.4119 53.7915 45.4883 53.7862 45.5596C53.7862 45.6105 53.7862 45.6004 53.7809 45.6105V45.6309L53.7544 45.6921H53.7173C53.7173 45.6921 53.6855 45.6819 53.6749 45.6819C53.3939 45.6819 53.0387 45.6768 52.6941 45.6717C52.3283 45.6666 51.9943 45.6564 51.83 45.636C51.7133 45.636 51.7186 45.636 51.602 45.636C51.5278 45.6207 51.1885 45.5902 50.8969 45.5902C50.7962 45.5902 50.6159 45.6105 50.3986 45.6156C50.0699 45.6207 49.7571 45.5902 49.4549 45.5953C49.317 45.5953 49.1739 45.6156 49.0308 45.6207C48.6597 45.6309 47.9015 45.6207 47.5887 45.6207C47.3449 45.6156 47.2495 45.6004 47.0639 45.6004C46.8942 45.6004 46.767 45.6207 46.7829 45.6462C46.3005 45.7023 45.0546 45.6615 44.3071 45.687C43.761 45.6666 43.2362 45.7023 42.7113 45.6972C42.6159 45.6972 42.4728 45.6921 42.372 45.6921C42.2077 45.6921 41.9426 45.7023 41.72 45.7073C41.317 45.7124 41.0096 45.7175 40.6544 45.7226C40.1507 45.687 39.7849 45.7277 39.3661 45.7226C39.2229 45.7226 39.0374 45.7124 38.8783 45.7124C38.7405 45.7124 38.5762 45.7175 38.4224 45.7226C38.274 45.7226 38.0778 45.7124 37.9347 45.7124C37.8233 45.7124 37.7173 45.7124 37.6272 45.7175C37.5106 45.7175 37.4098 45.7175 37.2879 45.7073C37.1713 45.7073 36.9804 45.7175 36.8638 45.7226C36.3495 45.7277 35.7929 45.7124 35.3051 45.7379C34.4251 45.7175 33.6563 45.7532 32.6172 45.7277C32.3575 45.7328 32.1666 45.7379 31.8962 45.7328C31.8379 45.7328 31.8379 45.743 31.7425 45.743C31.2017 45.7328 30.6292 45.7634 30.0725 45.7481C30.0513 45.7481 30.0301 45.7532 29.993 45.7583C29.2243 45.743 28.2488 45.7379 27.6444 45.7583C27.1726 45.743 26.6265 45.7583 26.0487 45.7583C25.7783 45.7583 25.5132 45.7583 25.2534 45.7532C24.7392 45.7532 24.1083 45.7532 23.6206 45.7532C23.4933 45.7532 23.3237 45.7634 23.2017 45.7634C22.9473 45.7634 22.6875 45.7634 22.4065 45.7634C21.3674 45.7838 20.1693 45.7685 19.2574 45.7685C18.9923 45.7685 18.7273 45.7787 18.4198 45.7838C17.8896 45.7838 17.3542 45.7838 16.8293 45.7787C16.7074 45.7787 16.5589 45.7838 16.4476 45.7889C16.3628 45.7889 16.2886 45.7889 16.2037 45.7889C16.1613 45.7889 16.1189 45.7889 16.0712 45.7889V45.7736C16.0712 45.5341 16.0659 45.2947 16.0606 45.0603C16.0606 44.6731 16.0606 44.2961 16.0606 43.9293C16.0553 43.4198 16.05 42.8186 16.0447 42.2174C16.3098 42.2174 16.5748 42.2174 16.8187 42.2174C17.0732 42.1971 17.317 42.2174 17.5768 42.2174C18.388 42.2123 19.4218 42.1869 20.2753 42.2022C23.8803 42.1818 27.5172 42.1665 31.0957 42.1461C31.3714 42.1614 31.8008 42.1512 32.0447 42.1461C32.0977 42.1563 32.2567 42.1563 32.384 42.1563C32.8293 42.1359 33.386 42.1563 33.9426 42.1461C34.0858 42.1257 34.4198 42.141 34.6318 42.1257C34.7219 42.1359 34.5099 42.1359 34.6636 42.141C35.0241 42.1003 36.2488 42.1206 36.7948 42.1104C36.7577 42.1104 36.7471 42.1054 36.7948 42.1054C36.9274 42.1155 36.991 42.0952 37.1394 42.0952C38.1361 42.0952 38.8465 42.0493 39.6948 42.034C39.8008 42.0391 40.0871 42.0544 40.1825 42.0442C40.0288 42.0442 39.8326 42.0442 39.8485 42.0238C40.103 42.0289 40.4423 42.0238 40.6119 42.0086C40.93 42.0086 41.0891 42.0136 41.3701 42.0086C41.439 42.0086 41.3011 41.9933 41.4496 41.9933C41.9161 41.9933 42.0911 41.9933 42.5099 41.9933C42.6265 41.978 43.0931 41.9729 43.2362 41.9831C43.3634 41.978 43.0931 41.9678 43.2044 41.9678C43.5649 41.9678 43.8989 41.9576 44.2276 41.9678C44.3071 41.9627 44.3654 41.9525 44.498 41.9474C44.5881 41.9474 44.4715 41.9627 44.6093 41.9576C44.7365 41.9474 44.5086 41.9423 44.5404 41.9321C44.7206 41.927 44.6835 41.9168 44.7736 41.9067C45.0228 41.9168 45.1978 41.8965 45.4257 41.8914C45.6802 41.8914 45.9082 41.8914 46.1467 41.8863C46.3429 41.8863 46.4224 41.871 46.6451 41.871C46.8094 41.871 46.9897 41.8761 47.1699 41.8812C47.276 41.8812 47.101 41.871 47.2495 41.8659C47.944 41.8659 48.6385 41.8557 49.1527 41.8353C48.3628 41.8608 47.7902 41.8353 47.101 41.8557C46.995 41.8404 46.7882 41.8659 46.6875 41.8455C46.6398 41.8557 46.7988 41.8608 46.6451 41.8608C46.5921 41.8608 46.5762 41.8557 46.4966 41.8608C46.5974 41.8404 46.4489 41.8404 46.3906 41.8302C45.8074 41.8302 45.3409 41.8353 44.832 41.8404C44.7365 41.8404 44.8956 41.8506 44.7895 41.8557C44.5934 41.8557 44.4608 41.8557 44.217 41.8608C44.1481 41.8455 43.9943 41.8404 44.0791 41.8251C44.7471 41.8149 45.7173 41.8048 46.5125 41.7946C46.7617 41.7946 47.0162 41.8099 47.1593 41.7844C46.7935 41.7895 46.4966 41.7691 46.1785 41.764C45.7756 41.764 45.3197 41.7742 44.9221 41.7793C44.8214 41.7793 44.7471 41.7793 44.657 41.7742C44.5881 41.7742 44.429 41.7793 44.3495 41.7844C44.27 41.7844 44.2276 41.7844 44.164 41.7793C44.0102 41.7793 43.8406 41.7895 43.6656 41.7895C43.3528 41.7895 43.0347 41.7844 42.6848 41.7793C42.6212 41.7742 42.6477 41.7589 42.7273 41.7538C43.1408 41.7538 43.215 41.7538 43.6391 41.7538C43.5914 41.7538 43.5649 41.7538 43.5649 41.7436C43.6974 41.7436 43.7398 41.7487 43.83 41.7436C43.5172 41.7436 43.5437 41.7181 43.6497 41.708C44.4343 41.708 45.3674 41.708 46.0407 41.708C46.1096 41.7029 46.1573 41.6927 46.274 41.6876C47.0162 41.6876 47.8008 41.6825 48.5907 41.6774C47.7054 41.657 46.7776 41.6672 45.7491 41.6774C45.712 41.6774 45.7438 41.6672 45.6378 41.6672C45.1713 41.6672 44.6888 41.6774 44.3442 41.6774C44.2011 41.6621 44.0526 41.6468 43.9042 41.6315C42.8227 41.6417 42.0328 41.5857 40.999 41.5857C40.999 41.5755 40.9247 41.5704 40.8929 41.5653C40.9671 41.5551 41.0573 41.5449 41.1262 41.5398C41.2958 41.5398 41.4708 41.5347 41.6192 41.5398C42.4887 41.5093 43.7292 41.5296 44.8108 41.5144C44.9433 41.4991 44.8373 41.4838 44.7471 41.4685C44.2223 41.4583 43.7451 41.4838 43.1938 41.4634C42.9976 41.4227 43.2044 41.3972 43.6338 41.3921C44.3442 41.3921 45.553 41.3921 46.0195 41.3972C48.1348 41.387 50.1388 41.3768 52.2859 41.3666C51.0984 41.3666 50.0434 41.3666 48.9512 41.3666C48.9512 41.3717 48.9141 41.3768 48.8346 41.3768C47.7902 41.3768 46.6345 41.3768 45.7226 41.387C45.3409 41.3615 44.5987 41.387 44.2117 41.3666C44.3071 41.3259 44.6252 41.3106 45.0281 41.3004C44.6305 41.3004 44.2329 41.2902 43.8936 41.2851C43.6126 41.2851 43.1249 41.2953 42.9817 41.2851C42.9499 41.2851 43.0135 41.2749 42.9499 41.2749C43.0665 41.2749 42.7432 41.2749 42.722 41.2749C42.5682 41.2749 42.5947 41.28 42.4198 41.28C42.1865 41.28 42.1918 41.28 42.0434 41.2698C41.2322 41.2698 40.4688 41.2698 39.6577 41.2698C39.5728 41.2698 39.4085 41.2698 39.3926 41.2698C39.3184 41.2698 39.382 41.2596 39.2813 41.2596C39.2229 41.2596 39.2495 41.2647 39.1646 41.2647C38.8465 41.2647 38.4913 41.2647 38.1785 41.2596C37.3939 41.2596 36.4662 41.2596 35.83 41.2545C35.6868 41.2545 35.8724 41.2392 35.6815 41.2392C34.5735 41.2341 33.4125 41.2291 32.2355 41.2189C32.1454 41.2189 32.2196 41.2036 32.0871 41.2036C31.9227 41.2036 31.9652 41.2189 31.8167 41.2189C31.7266 41.2189 31.6418 41.2087 31.5941 41.2036C30.2422 41.1934 28.8532 41.2036 27.4589 41.2087C26.16 41.2087 24.8611 41.2138 23.6259 41.2189C22.6557 41.2189 21.7279 41.2341 20.8585 41.224C19.6762 41.224 18.6795 41.2341 17.5927 41.2341C16.718 41.2341 15.769 41.2341 14.9844 41.2341C14.9844 41.3921 14.9844 41.5347 14.9844 41.6774C14.9844 41.8557 14.9897 42.1206 14.995 42.3244C14.995 42.5231 14.9844 42.7677 14.9844 42.9664C14.9844 43.4809 14.995 44.0261 15.0003 44.5356C15.0003 45.2794 15.0003 45.9978 15.0003 46.7263V46.8282C15.4827 46.8282 15.9917 46.8231 16.4741 46.818C16.6862 46.818 16.93 46.8231 17.1527 46.8282C17.7889 46.8282 18.4463 46.818 19.0506 46.818C19.8618 46.818 20.6941 46.8384 21.5159 46.818C22.4383 46.818 23.5198 46.818 24.3946 46.818C25.0997 46.8435 25.8313 46.818 26.6318 46.8231C26.706 46.8231 26.7803 46.8231 26.8545 46.8282C28.0632 46.8486 29.3992 46.8129 30.38 46.8282C30.7458 46.8078 31.0586 46.8282 31.4032 46.8333C31.7743 46.8333 32.1189 46.8282 32.4688 46.8231C32.5748 46.8231 32.6968 46.8282 32.8081 46.8282C33.1633 46.8282 33.5238 46.8231 33.9108 46.818C34.4993 46.818 35.1302 46.8435 35.8035 46.8282C36.323 46.8384 37.097 46.8537 37.6961 46.8384C38.7034 46.8639 39.7266 46.8384 40.7657 46.8435C41.1156 46.8435 41.4337 46.8639 41.7889 46.8486C42.1547 46.869 42.5894 46.8588 43.04 46.8588C43.4695 46.8639 43.9466 46.869 44.3972 46.8741C45.0546 46.8791 45.8711 46.8639 46.3588 46.9046C46.5815 46.981 47.0162 46.869 47.541 46.8842C47.8167 46.8995 47.7796 46.9199 47.9015 46.9505C48.1507 46.9607 48.384 46.9505 48.6225 46.9505C48.9035 46.9556 49.1103 46.9912 49.4814 46.9912L49.4867 46.9963ZM43.2627 41.8965C43.2627 41.8965 43.268 41.9016 43.2998 41.9016C43.2203 41.9168 43.04 41.8965 43.2627 41.8965ZM43.3422 41.8914C43.655 41.8914 44.1003 41.8761 44.3283 41.8914C44.3919 41.8914 44.2753 41.871 44.3707 41.8659C44.5033 41.8761 44.6623 41.8812 44.8956 41.8812C44.9115 41.9117 44.4502 41.8914 44.429 41.9168C44.2488 41.9168 44.164 41.9168 44.0844 41.927C43.7186 41.9168 43.6391 41.9372 43.3634 41.927C43.4377 41.9117 43.3157 41.9168 43.3369 41.8965L43.3422 41.8914Z" fill="white"/>
<path fill-rule="evenodd" clip-rule="evenodd" d="M19.2453 34.0056C19.2135 34.0056 19.1657 34.0106 19.1074 34.0106C19.1233 34.0005 19.1975 33.9954 19.2453 34.0056Z" fill="white"/>
<path fill-rule="evenodd" clip-rule="evenodd" d="M16.9928 33.5352C16.9609 33.5708 16.8496 33.6778 16.8496 33.6574C16.9132 33.5963 16.945 33.5759 16.9928 33.5352Z" fill="white"/>
<path fill-rule="evenodd" clip-rule="evenodd" d="M16.7804 33.6953C16.7804 33.6953 16.6955 33.7921 16.6584 33.8329C16.6531 33.8227 16.7485 33.7157 16.7804 33.6953Z" fill="white"/>
<path fill-rule="evenodd" clip-rule="evenodd" d="M16.4682 34.3359C16.4576 34.3665 16.4152 34.448 16.3887 34.4837C16.3887 34.4684 16.447 34.3818 16.4682 34.3359Z" fill="white"/>
<path fill-rule="evenodd" clip-rule="evenodd" d="M16.1772 34.5312C16.156 34.5873 16.1189 34.679 16.0605 34.7962C16.0711 34.7503 16.1295 34.623 16.1772 34.5312Z" fill="white"/>
<path fill-rule="evenodd" clip-rule="evenodd" d="M16.5742 35.5352C16.5318 35.6574 16.4629 35.9122 16.4258 35.9988C16.4788 35.8459 16.5212 35.6727 16.5742 35.5352Z" fill="white"/>
<path fill-rule="evenodd" clip-rule="evenodd" d="M16.1395 35.7734C16.1077 35.9416 16.007 36.2269 15.9751 36.4409C15.9486 36.4663 16.0494 36.1352 16.0494 36.0689C16.0653 36.0333 16.0759 35.9874 16.0918 35.9467C16.1077 35.8906 16.113 35.8346 16.1395 35.7734Z" fill="white"/>
<path fill-rule="evenodd" clip-rule="evenodd" d="M15.678 37.7891C15.678 37.7891 15.6939 37.7993 15.678 37.8604C15.678 37.8757 15.6674 37.8808 15.6621 37.8757L15.6727 37.7891H15.678Z" fill="white"/>
<path fill-rule="evenodd" clip-rule="evenodd" d="M15.7089 38.6574C15.7089 38.795 15.693 39.1058 15.6718 39.2739C15.6718 39.2994 15.6771 39.2994 15.6718 39.3401C15.6718 39.442 15.6506 39.6713 15.6612 39.4471C15.6612 39.172 15.6877 38.958 15.7089 38.6523V38.6574Z" fill="white"/>
<path fill-rule="evenodd" clip-rule="evenodd" d="M15.5238 38.7422C15.5238 38.7728 15.5238 38.8288 15.5238 38.9001C15.5185 38.8848 15.5238 38.7677 15.5238 38.7422Z" fill="white"/>
<path fill-rule="evenodd" clip-rule="evenodd" d="M15.9696 38.9844C15.9696 38.9844 15.959 39.1219 15.959 39.178C15.959 39.1321 15.959 39.0302 15.9696 38.9844Z" fill="white"/>
<path fill-rule="evenodd" clip-rule="evenodd" d="M15.5715 38.9102C15.5768 38.9662 15.5662 39.0885 15.5715 39.1547C15.5556 39.2158 15.5715 38.9917 15.5715 38.9102Z" fill="white"/>
<path fill-rule="evenodd" clip-rule="evenodd" d="M15.5134 39.0117C15.5187 39.0576 15.5134 39.1849 15.5081 39.2817C15.5028 39.2257 15.5081 39.0983 15.5134 39.0117Z" fill="white"/>
<path fill-rule="evenodd" clip-rule="evenodd" d="M16.0379 39.1953C16.0379 39.1953 16.0432 39.287 16.0379 39.3482C16.0273 39.3329 16.0379 39.2463 16.0379 39.1953Z" fill="white"/>
<path fill-rule="evenodd" clip-rule="evenodd" d="M15.9475 39.2891C15.9528 39.3604 15.9369 39.6049 15.9316 39.7272C15.9316 39.5744 15.9316 39.4572 15.9475 39.2891Z" fill="white"/>
<path fill-rule="evenodd" clip-rule="evenodd" d="M15.5031 39.3242C15.5137 39.4414 15.4925 39.6044 15.4872 39.7012C15.4819 39.5942 15.5031 39.4465 15.5031 39.3242Z" fill="white"/>
<path fill-rule="evenodd" clip-rule="evenodd" d="M15.6575 39.625C15.6575 39.6658 15.6575 39.7422 15.6575 39.8033C15.6416 39.8135 15.6575 39.7014 15.6575 39.625Z" fill="white"/>
<path fill-rule="evenodd" clip-rule="evenodd" d="M15.6098 39.8125C15.6151 39.8634 15.6098 39.9093 15.6098 39.9908C15.6045 39.9704 15.6098 39.8685 15.6098 39.8125Z" fill="white"/>
<path fill-rule="evenodd" clip-rule="evenodd" d="M15.5614 40C15.5614 40 15.5667 40.1885 15.5508 40.1528C15.5508 40.107 15.5561 40.1121 15.5614 40.1121C15.5614 40.0611 15.5614 40.0611 15.5614 40Z" fill="white"/>
<path fill-rule="evenodd" clip-rule="evenodd" d="M15.8214 40.471C15.8108 40.364 15.832 40.1755 15.8214 40.471V40.471Z" fill="white"/>
<path fill-rule="evenodd" clip-rule="evenodd" d="M15.9535 40.7109C15.9588 40.8026 15.9588 40.8893 15.9535 40.9962C15.9535 40.93 15.9482 40.7568 15.9535 40.7109Z" fill="white"/>
<path fill-rule="evenodd" clip-rule="evenodd" d="M15.9746 40.781C15.9852 40.7504 15.9852 40.9236 15.9746 40.888V40.781Z" fill="white"/>
<path fill-rule="evenodd" clip-rule="evenodd" d="M16.1602 40.9844C16.1655 41.0149 16.1708 41.0812 16.1708 41.1372C16.1602 41.1219 16.1602 41.0098 16.1602 40.9844Z" fill="white"/>
<path fill-rule="evenodd" clip-rule="evenodd" d="M16.1543 41.5859C16.1649 41.8203 16.1755 41.7592 16.1543 41.5859V41.5859Z" fill="white"/>
<path fill-rule="evenodd" clip-rule="evenodd" d="M16.5006 36.7734C16.5006 36.8091 16.49 36.855 16.49 36.8804C16.4634 36.9416 16.4528 37.0638 16.4316 37.1504C16.4316 37.0435 16.4741 36.9314 16.5006 36.7734Z" fill="white"/>
<path fill-rule="evenodd" clip-rule="evenodd" d="M15.8953 39.1189C15.8953 39.1698 15.8846 39.1647 15.8846 39.2259C15.8793 39.2259 15.8846 39.2055 15.874 39.2004C15.874 39.3176 15.8687 39.3736 15.8634 39.4653C15.8634 39.4551 15.8634 39.4398 15.8528 39.4398C15.8634 39.5621 15.8263 39.7048 15.8316 39.9646C15.8157 39.7201 15.8581 39.1749 15.874 38.9609C15.8846 38.9915 15.8581 39.18 15.874 39.2055C15.8846 39.2106 15.8846 39.0832 15.8953 39.124V39.1189Z" fill="white"/>
<path fill-rule="evenodd" clip-rule="evenodd" d="M15.5513 39.336C15.5566 39.3411 15.5513 39.4328 15.546 39.4481C15.5354 39.4226 15.5566 39.1271 15.546 39.336H15.5513Z" fill="white"/>
<path fill-rule="evenodd" clip-rule="evenodd" d="M15.5513 40.9729H15.5354C15.5354 41.1105 15.546 41.3397 15.5354 41.4314C15.5195 41.2633 15.5407 40.9067 15.5195 40.7895C15.5195 40.7436 15.5195 40.7232 15.5248 40.6825C15.5036 40.2902 15.5354 39.8724 15.5407 39.4648C15.5672 39.6483 15.5036 40.0558 15.5407 40.2647C15.5407 40.3004 15.5407 40.2647 15.5407 40.2443C15.5407 40.4227 15.5248 40.7436 15.5513 40.978V40.9729Z" fill="white"/>
<path fill-rule="evenodd" clip-rule="evenodd" d="M16.0009 40.8281C16.0062 40.8842 16.0115 40.9096 16.0168 40.9606C16.0168 40.981 15.9955 40.874 16.0009 40.8281Z" fill="white"/>
<path fill-rule="evenodd" clip-rule="evenodd" d="M53.0959 36.3895C53.1171 36.4608 53.1595 36.5932 53.186 36.6697C53.2496 36.8887 53.2602 37.1027 53.3133 37.3269C53.3557 37.5307 53.4193 37.7141 53.4458 37.9332C53.467 38.0707 53.4829 38.1421 53.4988 38.2541C53.5465 38.57 53.5836 38.8248 53.626 38.9572C53.6685 39.217 53.695 39.4157 53.7321 39.6552C53.7374 39.7112 53.7427 39.7418 53.7427 39.7622C53.8434 40.2564 53.9282 40.5621 53.9813 41.1582C54.0025 41.2091 54.0343 41.2448 54.0608 41.3467C54.0714 41.3925 54.082 41.4944 54.0979 41.525C54.1456 41.6473 54.1986 41.5403 54.2357 41.7644C54.2463 41.7746 54.2516 41.7339 54.2569 41.7237C54.3471 41.7288 54.416 41.6371 54.4849 41.6931C54.522 41.5352 54.5697 41.5708 54.6068 41.4486C54.628 41.3721 54.6492 41.2244 54.6704 41.1276C54.6917 41.0155 54.7129 40.8983 54.7341 40.8015C54.7606 40.8015 54.7606 40.6589 54.7871 40.6283C54.803 40.4755 54.8189 40.292 54.8295 40.1443C54.8348 40.129 54.8401 40.0832 54.8507 40.0781C54.8719 39.7061 54.8984 39.324 54.8825 38.8095C54.8825 38.7636 54.8719 38.6668 54.8666 38.6057C54.8136 38.2236 54.7606 37.6377 54.7606 37.4339C54.7447 37.3626 54.7447 37.3676 54.7341 37.2963C54.7447 37.2505 54.7341 37.0416 54.7023 36.8633C54.6917 36.8021 54.6492 36.7002 54.6174 36.5678C54.5697 36.3691 54.5379 36.1755 54.4902 35.9972C54.4637 35.9156 54.4213 35.8341 54.3948 35.7475C54.3258 35.5284 54.1456 35.075 54.0873 34.8865C54.0237 34.7388 54.0078 34.6776 53.9494 34.5655C53.8964 34.4687 53.8434 34.3974 53.8222 34.4229C53.7374 34.2904 53.5571 34.0459 53.3716 33.786C53.2549 33.6587 53.1489 33.5262 53.0217 33.409C52.8785 33.2969 52.7619 33.1848 52.6188 33.1186C52.5339 33.0677 52.4491 33.0167 52.359 32.9709C52.2636 32.9352 52.1628 32.8995 52.0621 32.869C51.8394 32.8231 51.6804 32.7875 51.3676 32.8231H51.3623H51.357C51.3093 32.8231 51.2139 32.818 51.1608 32.8129C51.076 32.8129 50.8958 32.8231 50.7685 32.8282C50.5194 32.8333 50.3603 32.8384 50.1217 32.8435C49.8196 32.8078 49.5969 32.8486 49.3371 32.8435C49.2576 32.8435 49.1251 32.8333 49.0402 32.8333C48.966 32.8333 48.8494 32.8384 48.7645 32.8435C48.685 32.8435 48.5419 32.8333 48.4677 32.8333C48.4093 32.8333 48.3298 32.8333 48.2821 32.8384C48.2079 32.8384 48.1602 32.8282 48.0754 32.8282C48.017 32.8282 47.8792 32.8384 47.8209 32.8435C47.5081 32.8486 47.1688 32.8333 46.8772 32.8588C46.3418 32.8384 45.8805 32.8741 45.2496 32.8486C45.0906 32.8537 44.974 32.8588 44.8096 32.8486C44.7725 32.8486 44.7725 32.8588 44.7142 32.8588C44.3855 32.8486 44.0409 32.8792 43.7016 32.8639C43.691 32.8639 43.6751 32.8741 43.6539 32.8741C43.1873 32.8588 42.5936 32.8537 42.2278 32.8741C41.9415 32.8588 41.6128 32.8741 41.2629 32.8741C41.1038 32.8741 40.9448 32.8741 40.7805 32.869C40.4518 32.869 40.0913 32.869 39.7891 32.869C39.7254 32.869 39.5982 32.8792 39.5346 32.8792C39.3755 32.8792 39.2377 32.8792 39.0522 32.8792C38.4213 32.8995 37.695 32.8843 37.1436 32.8843C36.9952 32.8843 36.8149 32.8944 36.6347 32.8995C36.3007 32.8995 35.9932 32.8995 35.6698 32.8944C35.6062 32.8944 35.5001 32.8995 35.4365 32.9046C35.2351 32.9046 35.0601 32.9046 34.864 32.9046C34.3709 32.9046 33.8779 32.925 33.4166 32.9046C32.8229 32.925 31.964 32.9199 31.2748 32.925C31.1211 32.9454 30.9726 32.925 30.8136 32.925C30.3205 32.9301 29.695 32.9556 29.1807 32.9403C26.9594 32.9607 24.8388 32.976 22.6174 32.9963C22.4478 32.9811 22.188 32.9912 22.0449 32.9963C22.0131 32.9862 21.9123 32.9862 21.8381 32.9862C21.5677 33.0065 21.2337 32.9862 20.8944 32.9963C20.8096 33.0167 20.6029 33.0014 20.4756 33.0167C20.4226 33.0065 20.5498 33.0065 20.4544 33.0014C20.2371 33.0422 19.4948 33.0218 19.1608 33.032C19.182 33.032 19.1873 33.0371 19.1608 33.0371C19.0813 33.0269 19.0442 33.0473 18.9541 33.0473C18.8109 33.0473 18.6731 33.0524 18.53 33.0575C18.4027 33.0575 18.2702 33.0677 18.1111 33.088C17.8143 33.1237 17.5439 33.2358 17.2947 33.3937C17.2311 33.4294 17.0508 33.5262 17.0137 33.5873C17.0879 33.516 17.2099 33.4447 17.2099 33.4651C17.0508 33.5517 16.8971 33.7198 16.8335 33.8115C16.6956 33.9643 16.6214 34.0408 16.5366 34.1987C16.5101 34.2344 16.5737 34.1732 16.5207 34.2497C16.3669 34.4789 16.3139 34.6114 16.2026 34.8254C16.1814 34.8967 16.086 35.1616 16.0435 35.238C16.0223 35.3145 16.086 35.1616 16.0701 35.2278C16.0011 35.4367 15.9587 35.5641 15.8792 35.8137C15.8739 35.8647 15.8792 35.8953 15.8527 35.9768C15.8421 36.0277 15.8421 35.9564 15.8262 36.0379C15.8156 36.1143 15.858 35.987 15.8633 36.0073C15.8421 36.1143 15.858 36.094 15.8527 36.15C15.8103 36.2927 15.7997 36.3945 15.7838 36.527C15.7626 36.6646 15.7255 36.8123 15.7042 36.9448C15.6936 37.0416 15.683 37.1435 15.6724 37.2352C15.6565 37.3167 15.63 37.4441 15.6141 37.5409C15.6088 37.602 15.63 37.5001 15.6194 37.5867C15.5664 37.9892 15.5346 38.3968 15.5293 38.6974C15.5399 38.2338 15.6088 37.9026 15.6353 37.5001C15.6618 37.4441 15.6512 37.3167 15.683 37.2607C15.683 37.2301 15.6565 37.3218 15.6724 37.2352C15.6777 37.2046 15.683 37.1944 15.6883 37.1486C15.6989 37.2097 15.7095 37.1231 15.7308 37.0925C15.7891 36.7512 15.8315 36.4863 15.9057 36.1959C15.9163 36.1398 15.8845 36.2315 15.9004 36.1704C15.9216 36.0583 15.9481 35.9768 15.9799 35.8443C16.0064 35.8087 16.0382 35.722 16.0382 35.773C15.9163 36.1602 15.8262 36.7002 15.752 37.169C15.7308 37.3116 15.6936 37.4594 15.7042 37.546C15.7308 37.332 15.7785 37.1639 15.8156 36.9855C15.858 36.7512 15.8898 36.4914 15.9534 36.2672C15.9693 36.2162 15.9852 36.1602 15.9958 36.1194C16.0064 36.0736 16.017 35.9921 16.0329 35.9462C16.0488 35.8902 16.0594 35.8902 16.0701 35.8443C16.0966 35.7475 16.1072 35.6711 16.1443 35.5641C16.2026 35.3858 16.2821 35.2177 16.3563 35.0292C16.3775 34.9986 16.3828 35.019 16.3669 35.0648C16.2768 35.289 16.2556 35.3297 16.1814 35.5641C16.192 35.5386 16.2026 35.5233 16.2079 35.5284C16.1814 35.5998 16.1708 35.6252 16.1602 35.6762C16.2185 35.503 16.2397 35.5284 16.2291 35.5896C16.0807 36.0175 15.9693 36.5678 15.8898 36.9346C15.8898 36.9754 15.8951 37.0059 15.8898 37.0722C15.8262 37.4899 15.7573 37.9535 15.7202 38.407C15.7891 37.8975 15.8421 37.3626 15.9534 36.7767C15.964 36.7563 15.9693 36.7767 15.9799 36.7155C16.0223 36.4659 16.0913 36.1755 16.1443 35.987C16.1814 35.9105 16.2185 35.8341 16.2609 35.7526C16.4412 35.1565 16.6797 34.7591 17.019 34.2955C17.0243 34.3057 17.0561 34.27 17.0773 34.2649C17.0561 34.3057 17.0455 34.3312 17.019 34.3821C16.9713 34.4534 16.9448 34.4942 16.8653 34.6063C16.6373 35.0292 16.3669 35.6762 16.245 36.2876C16.245 36.364 16.2715 36.3079 16.298 36.2621C16.3775 35.9768 16.4359 35.7119 16.5631 35.4265C16.6426 35.3399 16.6214 35.452 16.5525 35.6813C16.4253 36.0532 16.2662 36.7257 16.2185 36.9804C16.0329 38.1471 15.9428 39.3291 15.9481 40.5519C15.964 39.8743 15.9693 39.2425 16.0329 38.6413C16.0223 38.6413 16.0223 38.621 16.0329 38.5751C16.086 37.979 16.1761 37.3269 16.2662 36.8174C16.3351 36.6085 16.3934 36.1959 16.4889 35.9972C16.5101 36.0583 16.4836 36.2315 16.4412 36.4557C16.4889 36.2315 16.5631 36.0328 16.6161 35.8494C16.6638 35.7017 16.7433 35.4469 16.7805 35.3807C16.7911 35.3654 16.7805 35.4011 16.7964 35.3654C16.7752 35.4214 16.8335 35.2635 16.8388 35.2482C16.8653 35.1718 16.86 35.1871 16.9024 35.1005C16.9554 34.9884 16.9554 34.9884 16.9978 34.9273C17.1993 34.5604 17.4378 34.2446 17.7294 34.0764C17.7559 34.051 17.8249 34.0306 17.8249 34.0255C17.8567 34.0153 17.8355 34.0306 17.8726 34.0153C17.8938 34.0051 17.8832 34.0051 17.9097 33.9898C17.968 33.9694 18.0369 33.9593 18.1005 33.9389C18.1695 33.9389 18.2384 33.9338 18.302 33.9236C18.7791 33.9236 19.3411 33.9236 19.7281 33.9287C19.8129 33.9287 19.7016 33.944 19.8182 33.944C20.4915 33.9491 21.1966 33.9542 21.907 33.9643C21.96 33.9643 21.9176 33.9796 21.9972 33.9796C22.0979 33.9796 22.0714 33.9643 22.1615 33.9643C22.2145 33.9643 22.2675 33.9745 22.294 33.9796C23.1105 33.9898 23.9587 33.9796 24.8017 33.9745C25.5916 33.9745 26.3762 33.9694 27.1237 33.9643C27.7122 33.9643 28.2742 33.9491 28.8043 33.9593C29.5359 33.9593 30.1244 33.9491 30.7818 33.9491C31.2589 33.9491 31.7626 33.9491 32.1867 33.9491C32.245 33.9491 32.3563 33.944 32.42 33.9389C32.5207 33.9389 32.685 33.9491 32.7858 33.9491C33.1038 33.9491 33.459 33.9389 33.7771 33.9338C34.1429 33.9338 34.4981 33.9338 34.8587 33.9338C35.0495 33.9338 35.2669 33.9236 35.4577 33.9236C35.5797 33.9236 35.744 33.9287 35.8712 33.9338C36.2477 33.9338 36.6612 33.9236 37.0217 33.9236C37.5147 33.9236 38.0184 33.944 38.5167 33.9236C39.0681 33.9338 39.7361 33.9338 40.2609 33.9236C40.6903 33.9491 41.1304 33.9236 41.6181 33.9287C41.6552 33.9287 41.7135 33.9338 41.7559 33.9338C42.4875 33.9542 43.2987 33.9185 43.8924 33.9338C44.1151 33.9134 44.306 33.9338 44.5127 33.9389C44.7354 33.9389 44.9422 33.9338 45.1595 33.9287C45.2178 33.9287 45.308 33.9338 45.3663 33.9338C45.5783 33.9338 45.8063 33.9287 46.0343 33.9236C46.3895 33.9236 46.7712 33.9491 47.1794 33.9338C47.4975 33.944 47.964 33.9593 48.3245 33.944C48.9342 33.9694 49.5545 33.944 50.1854 33.9491C50.3974 33.9491 50.5883 33.9694 50.8056 33.9542C50.9859 33.9694 51.1449 33.9643 51.3941 33.9643L51.4736 33.9542L51.5532 33.944C51.5532 33.944 51.5319 33.9491 51.5532 33.9491C51.6698 33.9491 51.8288 34.0204 51.9826 34.1172C52.2052 34.2649 52.4597 34.5757 52.5551 34.805C52.5551 34.9273 52.746 35.0852 52.8573 35.3348C52.8944 35.4826 52.8679 35.4724 52.8573 35.5386C52.8944 35.666 52.9422 35.7781 52.9952 35.9004C53.0429 36.043 53.027 36.1653 53.08 36.3589L53.0959 36.3895ZM16.1178 35.3145C16.1178 35.3145 16.1125 35.3145 16.1019 35.3348C16.1019 35.2839 16.1655 35.1922 16.1178 35.3145ZM16.1072 35.3603C16.0435 35.5386 15.9799 35.7934 15.9322 35.9207C15.9216 35.9564 15.9587 35.8953 15.9481 35.9513C15.9163 36.0277 15.8898 36.1143 15.8527 36.2468C15.8209 36.2468 15.9004 35.987 15.8845 35.9717C15.9163 35.8698 15.9322 35.8239 15.9322 35.773C16.0011 35.5692 16.0064 35.5183 16.0648 35.3654C16.0648 35.4113 16.086 35.3399 16.1019 35.3603H16.1072Z" fill="white"/>
<path fill-rule="evenodd" clip-rule="evenodd" d="M19.9732 23.4844C19.9732 23.4844 19.9621 23.4954 19.9732 23.4954C19.9621 23.4954 19.9621 23.4844 19.9732 23.4844Z" fill="white"/>
<path fill-rule="evenodd" clip-rule="evenodd" d="M19.0293 25.0977C19.0293 25.1384 19.0399 25.2658 19.0293 25.2505C19.0293 25.1792 19.0293 25.1486 19.0293 25.0977Z" fill="white"/>
<path fill-rule="evenodd" clip-rule="evenodd" d="M19.0081 25.3164C19.0081 25.3164 19.0081 25.4234 19.0081 25.4692C18.9975 25.4692 19.0028 25.3419 19.0081 25.3164Z" fill="white"/>
<path fill-rule="evenodd" clip-rule="evenodd" d="M19.1567 25.9414C19.162 25.972 19.1673 26.0586 19.1567 26.0993C19.1514 26.0892 19.1567 25.9924 19.1567 25.9414Z" fill="white"/>
<path fill-rule="evenodd" clip-rule="evenodd" d="M19.002 26.2188C19.0126 26.2697 19.0126 26.3614 19.0126 26.4837C19.002 26.4429 19.0073 26.3105 19.002 26.2188Z" fill="white"/>
<path fill-rule="evenodd" clip-rule="evenodd" d="M19.7765 26.9961C19.7765 27.1337 19.7924 27.4088 19.7765 27.5056C19.7871 27.3425 19.7712 27.1489 19.7765 26.9961Z" fill="white"/>
<path fill-rule="evenodd" clip-rule="evenodd" d="M19.4369 27.3555C19.4581 27.5236 19.4369 27.8293 19.4475 28.0433C19.4316 28.0738 19.4475 27.7274 19.4316 27.6662C19.4316 27.6255 19.4316 27.5796 19.4369 27.5338C19.4369 27.4726 19.4263 27.4166 19.4369 27.3555Z" fill="white"/>
<path fill-rule="evenodd" clip-rule="evenodd" d="M19.3848 29.4297C19.3848 29.4297 19.4007 29.4399 19.4007 29.501C19.4007 29.5163 19.3901 29.5214 19.3848 29.5214V29.4348V29.4297Z" fill="white"/>
<path fill-rule="evenodd" clip-rule="evenodd" d="M19.5059 30.2852C19.5218 30.4227 19.5218 30.7335 19.5059 30.9067C19.5059 30.9322 19.5165 30.9322 19.5112 30.9729C19.5112 31.0748 19.5112 31.3041 19.5112 31.085C19.5006 30.8099 19.5112 30.5908 19.5059 30.2852Z" fill="white"/>
<path fill-rule="evenodd" clip-rule="evenodd" d="M19.3257 30.3906C19.331 30.4212 19.331 30.4772 19.331 30.5486C19.3204 30.5333 19.3204 30.4161 19.3257 30.3906Z" fill="white"/>
<path fill-rule="evenodd" clip-rule="evenodd" d="M19.7918 30.6016C19.7918 30.6016 19.7918 30.7391 19.7918 30.8003C19.7918 30.7544 19.7812 30.6525 19.7918 30.6016Z" fill="white"/>
<path fill-rule="evenodd" clip-rule="evenodd" d="M19.3837 30.5547C19.3943 30.6107 19.389 30.733 19.3943 30.7992C19.3784 30.8604 19.3837 30.6362 19.3837 30.5547Z" fill="white"/>
<path fill-rule="evenodd" clip-rule="evenodd" d="M19.3359 30.6562C19.3465 30.7021 19.3412 30.8295 19.3465 30.9212C19.3359 30.8651 19.3412 30.7429 19.3359 30.6562Z" fill="white"/>
<path fill-rule="evenodd" clip-rule="evenodd" d="M19.877 30.8164C19.877 30.8164 19.8876 30.9132 19.8929 30.9743C19.8823 30.9591 19.8823 30.8724 19.877 30.8164Z" fill="white"/>
<path fill-rule="evenodd" clip-rule="evenodd" d="M19.7874 30.9102C19.798 30.9815 19.7927 31.2311 19.7874 31.3534C19.7768 31.1955 19.7821 31.0783 19.7874 30.9102Z" fill="white"/>
<path fill-rule="evenodd" clip-rule="evenodd" d="M19.3475 30.9688C19.3634 31.0808 19.3475 31.249 19.3475 31.3458C19.3369 31.2388 19.3528 31.091 19.3475 30.9688Z" fill="white"/>
<path fill-rule="evenodd" clip-rule="evenodd" d="M19.5126 31.2617C19.5179 31.3025 19.5179 31.3789 19.5232 31.44C19.5073 31.4502 19.5126 31.3381 19.5126 31.2617Z" fill="white"/>
<path fill-rule="evenodd" clip-rule="evenodd" d="M19.4754 31.457C19.486 31.508 19.4754 31.5538 19.4754 31.6353C19.4648 31.615 19.4754 31.5131 19.4754 31.457Z" fill="white"/>
<path fill-rule="evenodd" clip-rule="evenodd" d="M19.433 31.6445C19.433 31.6445 19.4436 31.833 19.4277 31.7974C19.4277 31.7515 19.4277 31.7566 19.4383 31.7566C19.4383 31.7057 19.433 31.7057 19.4383 31.6445H19.433Z" fill="white"/>
<path fill-rule="evenodd" clip-rule="evenodd" d="M19.7033 32.1155C19.6874 32.0085 19.7086 31.82 19.7033 32.1155V32.1155Z" fill="white"/>
<path fill-rule="evenodd" clip-rule="evenodd" d="M19.8344 32.3555C19.8397 32.4472 19.8344 32.5389 19.8344 32.6459C19.8344 32.5796 19.8291 32.4013 19.8344 32.3555Z" fill="white"/>
<path fill-rule="evenodd" clip-rule="evenodd" d="M19.8555 32.4254C19.8661 32.3948 19.8661 32.5732 19.8555 32.5375V32.4254Z" fill="white"/>
<path fill-rule="evenodd" clip-rule="evenodd" d="M20.0425 32.6328C20.0478 32.6634 20.0531 32.7347 20.0478 32.7907C20.0372 32.7755 20.0372 32.6583 20.0425 32.6328Z" fill="white"/>
<path fill-rule="evenodd" clip-rule="evenodd" d="M20.0254 33.25C20.0254 33.4996 20.0413 33.4334 20.0254 33.25V33.25Z" fill="white"/>
<path fill-rule="evenodd" clip-rule="evenodd" d="M20.0313 28.2734C20.0313 28.3091 20.0366 28.36 20.0472 28.3855C20.0313 28.4518 20.0472 28.5791 20.0366 28.6708C20.0207 28.5587 20.0366 28.4365 20.0313 28.2734Z" fill="white"/>
<path fill-rule="evenodd" clip-rule="evenodd" d="M19.7291 30.7451C19.7291 30.8011 19.7238 30.7909 19.7291 30.8571C19.7238 30.8622 19.7238 30.8368 19.7185 30.8317C19.7185 30.9489 19.7185 31.0049 19.7185 31.0966C19.7185 31.0864 19.7132 31.0711 19.7079 31.0711C19.7291 31.1934 19.6973 31.3412 19.7079 31.601C19.6867 31.3513 19.7079 30.8011 19.6973 30.582C19.7132 30.6126 19.6973 30.8062 19.7132 30.8266C19.7238 30.8317 19.7132 30.7043 19.7291 30.74V30.7451Z" fill="white"/>
<path fill-rule="evenodd" clip-rule="evenodd" d="M19.3895 30.9766C19.4001 30.9817 19.3895 31.0734 19.3895 31.0887C19.3789 31.0632 19.3895 30.7677 19.3895 30.9766Z" fill="white"/>
<path fill-rule="evenodd" clip-rule="evenodd" d="M19.4316 32.6174H19.4157C19.4157 32.755 19.4157 32.9842 19.4051 33.076C19.3945 32.9078 19.421 32.5512 19.3998 32.434C19.3998 32.3882 19.3998 32.3678 19.4051 32.327C19.3839 31.9347 19.4051 31.5119 19.3945 31.1094C19.4316 31.2928 19.3786 31.7055 19.421 31.9093C19.421 31.9449 19.421 31.9093 19.421 31.8889C19.421 32.0672 19.4104 32.3882 19.4369 32.6225L19.4316 32.6174Z" fill="white"/>
<path fill-rule="evenodd" clip-rule="evenodd" d="M19.8837 32.4766C19.889 32.5326 19.8943 32.5581 19.8996 32.609C19.8996 32.6294 19.8784 32.5173 19.8837 32.4766Z" fill="white"/>
<path fill-rule="evenodd" clip-rule="evenodd" d="M50.0111 27.8195C50.0111 27.901 50.0217 28.0488 50.0217 28.1303C50.0217 28.3748 50.0058 28.5939 50.0164 28.8385C50.027 29.027 50.0376 29.297 50.0482 29.4855C50.0535 29.6332 50.0588 29.7046 50.0588 29.8217C50.0694 30.1478 50.0641 30.4178 50.1013 30.5605C50.1225 30.8305 50.1437 31.0343 50.1596 31.2788C50.1596 31.34 50.1596 31.3655 50.1596 31.3909C50.2179 31.9004 50.308 32.2163 50.3504 32.8175C50.3716 32.8684 50.4034 32.9041 50.43 33.006C50.4406 33.0518 50.4512 33.1537 50.4618 33.1894C50.5042 33.3117 50.5625 33.2047 50.5943 33.4339C50.6049 33.4441 50.6102 33.4034 50.6155 33.3932C50.7056 33.3983 50.7799 33.3117 50.8488 33.3677C50.8912 33.2098 50.9336 33.2454 50.976 33.1232C50.9972 33.0467 51.0237 32.899 51.0449 32.8022C51.0714 32.6901 51.0926 32.5729 51.1191 32.4812C51.1457 32.4812 51.151 32.3386 51.1722 32.3131C51.1881 32.1653 51.2093 31.9819 51.2252 31.8342C51.2358 31.8189 51.2411 31.7781 51.2517 31.773C51.2994 31.4062 51.3524 31.0343 51.3683 30.5299C51.3683 30.479 51.3683 30.3822 51.3683 30.3312C51.3683 29.9593 51.3789 29.3836 51.4107 29.19C51.4107 29.1238 51.4107 29.1238 51.4107 29.0575C51.4266 29.0168 51.4584 28.8181 51.4584 28.6449C51.4584 28.5837 51.4372 28.4818 51.4319 28.3545C51.4266 28.1609 51.4585 27.9774 51.4531 27.8042C51.4531 27.7227 51.4319 27.6412 51.4266 27.5546C51.416 27.3355 51.4266 26.8974 51.4266 26.7139C51.4319 26.5713 51.4478 26.5152 51.4478 26.4083C51.4478 26.3115 51.4266 26.235 51.4001 26.2452C51.3418 25.965 51.3842 25.2365 51.3577 24.7983C51.3789 24.4824 51.3365 24.1309 51.2941 23.7946C51.2941 23.7284 51.2835 23.6418 51.2676 23.5654C51.2411 23.4431 51.1987 23.2852 51.1351 23.1221C51.0343 22.8521 50.8965 22.5821 50.6473 22.363C50.4724 22.1745 50.2338 22.0624 50.0111 22.0268C49.7779 21.9911 49.5817 22.0064 49.3484 22.0675H49.3325C49.3325 22.0675 49.3325 22.0675 49.3166 22.0726C49.3166 22.0726 49.306 22.0726 49.3007 22.0726H49.2901C49.2901 22.0726 49.2477 22.0726 49.2265 22.0726C49.1523 22.0726 49.0357 22.0777 48.9508 22.0828C48.8713 22.0828 48.7282 22.0726 48.6539 22.0726C48.5956 22.0726 48.5161 22.0726 48.4684 22.0777C48.3942 22.0777 48.3412 22.0675 48.2616 22.0675C48.2033 22.0675 48.0655 22.0777 48.0072 22.0828C47.6944 22.0879 47.3551 22.0726 47.0582 22.0981C46.5227 22.0777 46.0562 22.1134 45.4253 22.0879C45.2663 22.093 45.1496 22.0981 44.9853 22.0879C44.9482 22.0879 44.9482 22.0981 44.8899 22.0981C44.5612 22.0879 44.2166 22.1185 43.8773 22.1032C43.8667 22.1032 43.8508 22.1083 43.8296 22.1134C43.363 22.0981 42.7692 22.093 42.4034 22.1134C42.1172 22.0981 41.7885 22.1134 41.4386 22.1134C41.2795 22.1134 41.1205 22.1134 40.9561 22.1083C40.6274 22.1083 40.2669 22.1083 39.9647 22.1083C39.9011 22.1083 39.7739 22.1185 39.7103 22.1185C39.5512 22.1185 39.4134 22.1185 39.2278 22.1185C38.597 22.1388 37.8706 22.1236 37.314 22.1236C37.1655 22.1236 36.9853 22.1338 36.805 22.1388C36.471 22.1388 36.1635 22.1388 35.8402 22.1338C35.7765 22.1338 35.6705 22.1388 35.6069 22.1439C35.4054 22.1439 35.2305 22.1439 35.0343 22.1439C34.5413 22.1439 34.0482 22.1643 33.5817 22.1439C32.9879 22.1643 32.1238 22.1592 31.4399 22.1643C31.2861 22.1847 31.1377 22.1643 30.9787 22.1643C30.4856 22.1694 29.8547 22.1949 29.3405 22.1796C27.1191 22.2 24.9932 22.2153 22.7719 22.2356C22.6023 22.2204 22.3425 22.2306 22.194 22.2356C22.1622 22.2255 22.0615 22.2255 21.9873 22.2255C21.7169 22.2509 21.3882 22.2255 21.0224 22.2458C20.9323 22.2662 20.7096 22.2764 20.5771 22.3019C20.5188 22.2968 20.6566 22.2815 20.5559 22.2866C20.4392 22.3223 20.1795 22.3681 19.8932 22.4598C19.6122 22.5515 19.2888 22.7502 19.151 22.9795C19.1722 22.954 19.1828 22.9489 19.151 22.9795C19.082 23.0814 19.0661 23.1425 19.0343 23.275C18.9866 23.4941 19.0078 23.6673 19.1032 23.8711L19.0714 23.7284C19.0873 24.0901 19.1085 24.5079 19.1245 24.8391C19.1191 24.9002 19.1032 25.0683 19.1138 25.1244C19.1138 25.0327 19.1138 24.9206 19.1351 24.9308C19.1298 25.0785 19.1351 25.2772 19.151 25.374C19.151 25.5574 19.1457 25.6542 19.151 25.8173C19.151 25.858 19.1669 25.7765 19.1669 25.8631C19.1669 26.1535 19.1669 26.2147 19.1669 26.4796C19.1828 26.5458 19.1881 26.8209 19.1775 26.9024C19.1828 26.9789 19.1934 26.8209 19.1934 26.8821C19.1934 27.091 19.204 27.2846 19.1934 27.4782C19.1987 27.524 19.2093 27.5597 19.2146 27.6361C19.2146 27.687 19.1987 27.6208 19.204 27.7023C19.2146 27.7787 19.2199 27.6463 19.2305 27.6616C19.2358 27.7686 19.2464 27.7482 19.257 27.7991C19.2464 27.9469 19.2676 28.0437 19.2729 28.1761C19.2729 28.3443 19.2729 28.4411 19.2729 28.599C19.2729 28.7111 19.2888 28.762 19.2888 28.8894C19.2888 28.976 19.2782 29.1034 19.2782 29.1951C19.2782 29.2562 19.2941 29.1543 19.2941 29.2409C19.2941 29.6485 19.3047 30.051 19.3259 30.3516C19.2994 29.8931 19.3259 29.5568 19.3047 29.1543C19.3206 29.0932 19.2941 28.9709 19.3153 28.9149C19.3047 28.8894 19.2994 28.9811 19.2994 28.8894C19.2994 28.8588 19.2994 28.8486 19.2994 28.8028C19.3206 28.8588 19.3206 28.7722 19.3312 28.7417C19.3312 28.4054 19.3259 28.1252 19.3206 27.8348C19.3206 27.7787 19.31 27.8705 19.3047 27.8093C19.3047 27.687 19.3047 27.631 19.2994 27.4782C19.3153 27.4374 19.3206 27.3508 19.3365 27.3966C19.3418 27.7737 19.3577 28.3697 19.3683 28.8181C19.3683 28.9607 19.3524 29.1136 19.3789 29.1951C19.3736 28.9811 19.3948 28.8079 19.4001 28.6245C19.4001 28.385 19.3789 28.1252 19.3842 27.8908C19.3842 27.8399 19.3895 27.7838 19.3895 27.738C19.3895 27.7023 19.3842 27.5953 19.3789 27.5597C19.3789 27.5036 19.3895 27.4985 19.3842 27.4527C19.3842 27.3508 19.3683 27.2744 19.3736 27.1623C19.3736 26.9738 19.3895 26.7955 19.3842 26.5866C19.3895 26.5509 19.4054 26.5662 19.4107 26.612C19.4107 26.8566 19.4107 26.8974 19.4107 27.1419C19.4107 27.1164 19.4107 27.096 19.4213 27.1011C19.4213 27.1776 19.416 27.203 19.4213 27.2591C19.4213 27.0757 19.4478 27.091 19.4584 27.1572C19.4584 27.6208 19.4584 28.1405 19.4584 28.5532C19.4637 28.5939 19.4744 28.6194 19.4797 28.6907C19.4797 29.139 19.485 29.567 19.4903 30.0408C19.5115 29.5212 19.5009 28.9811 19.4903 28.3799C19.4903 28.3545 19.5009 28.3799 19.5009 28.3137C19.5009 28.0182 19.4903 27.7584 19.4903 27.5597C19.5062 27.4782 19.5221 27.3915 19.538 27.2998C19.5274 26.6681 19.5857 26.2096 19.5857 25.6033C19.5963 25.6033 19.6016 25.5574 19.6069 25.5421C19.6175 25.5931 19.6281 25.6237 19.6334 25.6797C19.6334 25.7765 19.6387 25.8784 19.6334 25.965C19.6652 26.4745 19.644 27.1979 19.6599 27.8297C19.6758 27.9061 19.6917 27.845 19.7076 27.794C19.7182 27.4883 19.6917 27.2132 19.7129 26.8872C19.7553 26.77 19.7818 26.8923 19.7871 27.1419C19.7871 27.5597 19.7871 28.2526 19.7818 28.5328C19.7924 29.8014 19.803 30.9222 19.8136 32.1908C19.8243 31.503 19.7977 30.8611 19.8136 30.2446C19.8083 30.2446 19.803 30.2242 19.803 30.1784C19.803 29.5721 19.803 28.8945 19.7924 28.3646C19.8189 28.1405 19.7924 27.7074 19.8136 27.4833C19.8561 27.5393 19.872 27.7278 19.8826 27.9571C19.8826 27.7176 19.8932 27.4985 19.8985 27.2947C19.8985 27.1317 19.8879 26.8464 19.8985 26.7649C19.8985 26.7445 19.9091 26.7853 19.9091 26.7445C19.9091 26.8107 19.9091 26.6222 19.9091 26.612C19.9091 26.5203 19.9038 26.5407 19.9038 26.4337C19.9038 26.2962 19.9038 26.3013 19.9144 26.2147C19.9144 25.7357 19.9144 25.3078 19.9144 24.8238C19.9144 24.7728 19.9144 24.6811 19.9144 24.6709C19.9144 24.6251 19.925 24.6658 19.925 24.6047C19.925 24.569 19.9197 24.5843 19.9197 24.5385C19.9197 24.35 19.9197 24.1462 19.925 23.9628C19.925 23.8914 19.925 23.815 19.925 23.7335L19.872 23.5144C19.8879 23.5501 19.872 23.4839 19.872 23.4839C19.872 23.4686 19.8773 23.4635 19.8879 23.4482C19.9144 23.4176 19.9939 23.3514 20.1052 23.3157C20.1582 23.2954 20.0946 23.3361 20.1635 23.3055C20.646 23.1527 21.3193 23.168 22.0456 23.1782C22.0986 23.1782 22.0562 23.1935 22.1357 23.1935C22.2364 23.1935 22.2099 23.1782 22.3001 23.1782C22.3531 23.1782 22.4061 23.1884 22.4326 23.1935C23.2543 23.2037 24.0973 23.1935 24.9402 23.1884C25.7355 23.1884 26.5201 23.1833 27.2676 23.1782C27.8561 23.1782 28.4233 23.1629 28.9482 23.1731C29.6798 23.1731 30.2736 23.1629 30.9309 23.1629C31.4081 23.1629 31.9117 23.1629 32.3358 23.1629C32.3942 23.1629 32.5055 23.1578 32.5691 23.1527C32.6698 23.1527 32.8342 23.1629 32.9349 23.1629C33.253 23.1629 33.6082 23.1527 33.9263 23.1476C34.2921 23.1476 34.6473 23.1476 35.0078 23.1476C35.1987 23.1476 35.4213 23.1374 35.6069 23.1374C35.7288 23.1374 35.8932 23.1425 36.0204 23.1476C36.4021 23.1476 36.8103 23.1374 37.1708 23.1374C37.6639 23.1374 38.1675 23.1578 38.6659 23.1374C39.2172 23.1476 39.8852 23.1476 40.4154 23.1374C40.8448 23.1629 41.2901 23.1374 41.7726 23.1425C41.8097 23.1425 41.868 23.1476 41.9104 23.1476C42.642 23.168 43.4584 23.1323 44.0522 23.1476C44.2749 23.1272 44.4657 23.1476 44.6725 23.1527C44.8952 23.1527 45.1019 23.1476 45.3193 23.1425C45.3776 23.1425 45.4677 23.1476 45.526 23.1476C45.7381 23.1476 45.9661 23.1425 46.194 23.1374C46.5545 23.1374 46.9309 23.1629 47.3445 23.1476C47.6626 23.1578 48.1291 23.1731 48.4949 23.1578C48.6539 23.1578 48.7865 23.1629 48.9137 23.168C49.0728 23.168 49.2212 23.168 49.3802 23.168C49.428 23.1578 49.4757 23.1527 49.5234 23.1374C49.5605 23.1221 49.6294 23.1221 49.6665 23.1018C49.7408 23.0916 49.7832 23.0916 49.8521 23.168C49.8998 23.2444 49.9528 23.3412 50.0111 23.4941C50.0429 23.6469 50.0907 23.8609 50.1119 24.0901C50.1278 24.3194 50.1225 24.5538 50.1119 24.834C50.1066 25.2161 50.1225 25.695 50.0801 25.9803C50.0005 26.1128 50.1172 26.3624 50.1013 26.6681C50.0854 26.8311 50.0641 26.8107 50.0323 26.877C50.0217 27.0196 50.0323 27.1572 50.0323 27.2998C50.027 27.4629 49.9899 27.5851 49.9899 27.7991L50.0111 27.8195ZM19.2676 26.9279C19.2676 26.9279 19.2623 26.9279 19.2623 26.9483C19.2464 26.9024 19.2676 26.7955 19.2676 26.9279ZM19.2729 26.9738C19.2729 27.1572 19.2888 27.417 19.2729 27.5495C19.2729 27.5851 19.2941 27.5189 19.2994 27.575C19.2888 27.6514 19.2835 27.7482 19.2835 27.8806C19.2517 27.8908 19.2729 27.6208 19.2464 27.6106C19.2464 27.5087 19.2464 27.4578 19.2358 27.4119C19.2464 27.1979 19.2252 27.1521 19.2358 26.9942C19.2517 27.0349 19.2464 26.9636 19.2676 26.9789L19.2729 26.9738Z" fill="white"/>
<path fill-rule="evenodd" clip-rule="evenodd" d="M23.4355 28.9258C23.4355 28.9258 23.4408 28.9614 23.4408 28.9818C23.4302 28.9767 23.4249 28.9411 23.4355 28.9258Z" fill="white"/>
<path fill-rule="evenodd" clip-rule="evenodd" d="M22.4492 29.8086C22.4492 29.8086 22.4598 29.8799 22.4492 29.8748C22.4492 29.8443 22.4492 29.829 22.4492 29.8086Z" fill="white"/>
<path fill-rule="evenodd" clip-rule="evenodd" d="M22.428 29.9023C22.428 29.9023 22.428 29.9482 22.428 29.9686C22.4174 29.9686 22.4227 29.9125 22.428 29.9023Z" fill="white"/>
<path fill-rule="evenodd" clip-rule="evenodd" d="M22.5766 30.1719C22.5766 30.1719 22.5872 30.2228 22.5766 30.2381C22.5713 30.2381 22.5766 30.1923 22.5766 30.1719Z" fill="white"/>
<path fill-rule="evenodd" clip-rule="evenodd" d="M22.4238 30.2969C22.4238 30.2969 22.4344 30.358 22.4344 30.4141C22.4238 30.3937 22.4291 30.3376 22.4238 30.2969Z" fill="white"/>
<path fill-rule="evenodd" clip-rule="evenodd" d="M23.1964 30.6328C23.1964 30.6939 23.2123 30.8111 23.1964 30.8519C23.207 30.7806 23.1911 30.699 23.1964 30.6328Z" fill="white"/>
<path fill-rule="evenodd" clip-rule="evenodd" d="M22.8569 30.793C22.8781 30.8643 22.8569 30.9968 22.8675 31.0936C22.8516 31.1088 22.8675 30.956 22.8516 30.9305C22.8516 30.9152 22.8516 30.8949 22.8569 30.8745C22.8569 30.849 22.8463 30.8235 22.8569 30.7981V30.793Z" fill="white"/>
<path fill-rule="evenodd" clip-rule="evenodd" d="M22.8047 31.6875C22.8047 31.6875 22.8206 31.6875 22.8206 31.7181C22.8206 31.7232 22.81 31.7283 22.8047 31.7283V31.6875Z" fill="white"/>
<path fill-rule="evenodd" clip-rule="evenodd" d="M22.9258 32.0664C22.9417 32.1275 22.9417 32.26 22.9258 32.3364C22.9258 32.3466 22.9364 32.3466 22.9311 32.367C22.9311 32.4129 22.9311 32.5097 22.9311 32.4129C22.9205 32.2906 22.9311 32.1989 22.9258 32.0664Z" fill="white"/>
<path fill-rule="evenodd" clip-rule="evenodd" d="M22.7457 32.1133C22.7457 32.1133 22.751 32.1489 22.751 32.1795C22.7404 32.1744 22.7404 32.1235 22.7457 32.1133Z" fill="white"/>
<path fill-rule="evenodd" clip-rule="evenodd" d="M23.2137 32.2031C23.2137 32.2031 23.2137 32.2643 23.2137 32.2897C23.2137 32.2694 23.2031 32.2235 23.2137 32.2031Z" fill="white"/>
<path fill-rule="evenodd" clip-rule="evenodd" d="M22.8055 32.1836C22.8055 32.1836 22.8108 32.26 22.8161 32.2906C22.8002 32.3161 22.8055 32.2193 22.8055 32.1836Z" fill="white"/>
<path fill-rule="evenodd" clip-rule="evenodd" d="M22.7578 32.2227C22.7578 32.2227 22.7631 32.2991 22.7684 32.3398C22.7578 32.3144 22.7631 32.2634 22.7578 32.2227Z" fill="white"/>
<path fill-rule="evenodd" clip-rule="evenodd" d="M23.2969 32.2969C23.2969 32.2969 23.3075 32.3376 23.3128 32.3631C23.3022 32.358 23.3022 32.3173 23.2969 32.2969Z" fill="white"/>
<path fill-rule="evenodd" clip-rule="evenodd" d="M23.2073 32.3359C23.2179 32.3665 23.2126 32.4735 23.2073 32.5295C23.1967 32.4633 23.202 32.4124 23.2073 32.3359Z" fill="white"/>
<path fill-rule="evenodd" clip-rule="evenodd" d="M22.7674 32.3633C22.7833 32.4142 22.7674 32.4856 22.7674 32.5263C22.7568 32.4805 22.7727 32.4142 22.7674 32.3633Z" fill="white"/>
<path fill-rule="evenodd" clip-rule="evenodd" d="M22.9325 32.4883C22.9325 32.4883 22.9378 32.5392 22.9431 32.5647C22.9272 32.5698 22.9325 32.5188 22.9325 32.4883Z" fill="white"/>
<path fill-rule="evenodd" clip-rule="evenodd" d="M22.8949 32.5742C22.8949 32.5742 22.8949 32.615 22.8949 32.6506C22.8896 32.6405 22.8949 32.5946 22.8949 32.5742Z" fill="white"/>
<path fill-rule="evenodd" clip-rule="evenodd" d="M22.853 32.6562C22.853 32.6562 22.8636 32.7378 22.8477 32.7225C22.8477 32.7021 22.8477 32.7021 22.8583 32.7021C22.8583 32.6766 22.853 32.6817 22.8583 32.6562H22.853Z" fill="white"/>
<path fill-rule="evenodd" clip-rule="evenodd" d="M23.1232 32.8612C23.1073 32.8153 23.1285 32.7338 23.1232 32.8612V32.8612Z" fill="white"/>
<path fill-rule="evenodd" clip-rule="evenodd" d="M23.2563 32.9609C23.2616 33.0017 23.2563 33.0374 23.2563 33.0883C23.2563 33.0577 23.251 32.9813 23.2563 32.9609Z" fill="white"/>
<path fill-rule="evenodd" clip-rule="evenodd" d="M23.2773 32.9922C23.2773 32.9922 23.2879 33.0533 23.2773 33.038V32.9922Z" fill="white"/>
<path fill-rule="evenodd" clip-rule="evenodd" d="M23.4625 33.0859C23.4625 33.0859 23.4731 33.1318 23.4678 33.1522C23.4572 33.1471 23.4572 33.0961 23.4625 33.0859Z" fill="white"/>
<path fill-rule="evenodd" clip-rule="evenodd" d="M23.4453 33.3555C23.4453 33.4625 23.4612 33.437 23.4453 33.3555V33.3555Z" fill="white"/>
<path fill-rule="evenodd" clip-rule="evenodd" d="M23.4512 31.1914C23.4512 31.1914 23.4565 31.2322 23.4671 31.2424C23.4512 31.2729 23.4671 31.329 23.4565 31.3646C23.4406 31.3137 23.4565 31.2627 23.4512 31.1914Z" fill="white"/>
<path fill-rule="evenodd" clip-rule="evenodd" d="M23.149 32.2666C23.149 32.2666 23.1437 32.287 23.149 32.3125C23.1437 32.3125 23.1437 32.3023 23.1384 32.3023C23.1384 32.3482 23.1384 32.3787 23.1384 32.4195C23.1384 32.4144 23.1331 32.4093 23.1278 32.4093C23.149 32.4653 23.1172 32.5265 23.1278 32.6386C23.1066 32.5316 23.1278 32.2921 23.1172 32.1953C23.1331 32.2106 23.1172 32.2921 23.1331 32.3023C23.1437 32.3023 23.1331 32.2514 23.149 32.2666Z" fill="white"/>
<path fill-rule="evenodd" clip-rule="evenodd" d="M22.8094 32.365C22.82 32.365 22.8094 32.4058 22.8094 32.4109C22.7988 32.4007 22.8094 32.2733 22.8094 32.365Z" fill="white"/>
<path fill-rule="evenodd" clip-rule="evenodd" d="M22.8516 33.0791H22.8357C22.8357 33.1402 22.8357 33.237 22.8251 33.2778C22.8145 33.2065 22.841 33.0485 22.8198 32.9976C22.8198 32.9772 22.8198 32.9721 22.8251 32.9517C22.8039 32.7836 22.8251 32.6002 22.8145 32.4219C22.8516 32.5034 22.7985 32.6817 22.841 32.7683C22.841 32.7836 22.841 32.7683 22.841 32.7581C22.841 32.8346 22.8304 32.9772 22.8569 33.0791H22.8516Z" fill="white"/>
<path fill-rule="evenodd" clip-rule="evenodd" d="M23.3036 33.0195C23.3036 33.0195 23.3089 33.0603 23.3195 33.0807C23.3195 33.0909 23.2983 33.0399 23.3036 33.0195Z" fill="white"/>
<path fill-rule="evenodd" clip-rule="evenodd" d="M32.6973 30.9859C32.6973 31.0267 32.7079 31.0776 32.7079 31.1235C32.7079 31.2305 32.692 31.3222 32.7026 31.4292C32.7079 31.5209 32.7292 31.6126 32.7345 31.7094C32.7345 31.7807 32.7451 31.8062 32.7451 31.8571C32.7557 31.9998 32.7504 32.117 32.7875 32.1781C32.8087 32.3004 32.8246 32.3768 32.8458 32.4889C32.8458 32.5042 32.8458 32.5296 32.8458 32.5347C32.9041 32.7589 32.9942 32.8914 33.0366 33.1563C33.0578 33.1767 33.0897 33.192 33.1162 33.2378C33.1268 33.2582 33.1374 33.3041 33.148 33.3193C33.1904 33.3703 33.2487 33.3244 33.2805 33.4263C33.2911 33.4314 33.2964 33.4161 33.3017 33.411C33.3918 33.411 33.4661 33.3754 33.535 33.4009C33.5774 33.3346 33.6198 33.3499 33.6622 33.2939C33.6834 33.2633 33.7099 33.1971 33.7311 33.1563C33.7577 33.1104 33.7789 33.0595 33.8054 33.0187C33.8319 33.0187 33.8372 32.9576 33.8584 32.9474C33.8743 32.8863 33.8955 32.7997 33.9114 32.7385C33.922 32.7334 33.9273 32.7131 33.9379 32.7131C33.9856 32.5551 34.0386 32.3921 34.0545 32.173C34.0545 32.1475 34.0545 32.1068 34.0545 32.0864C34.0545 31.9234 34.0651 31.6737 34.0969 31.5871C34.0969 31.5565 34.0916 31.5565 34.0969 31.5311C34.1129 31.5107 34.1447 31.4241 34.1447 31.3528C34.1447 31.3273 34.1235 31.2814 34.1182 31.2254C34.1129 31.1439 34.1447 31.0624 34.1394 30.9859C34.1394 30.9503 34.1182 30.9146 34.1129 30.8789C34.1022 30.7821 34.1129 30.5936 34.1129 30.5121C34.1182 30.451 34.1341 30.4255 34.1341 30.3797C34.1341 30.3389 34.1129 30.3032 34.0863 30.3083C34.028 30.1861 34.0704 29.8702 34.0439 29.6817C34.0651 29.5441 34.028 29.4117 34.0333 29.2792C34.0333 29.2639 34.0386 29.2079 34.0439 29.1926C34.0439 29.1467 34.0333 29.0856 34.028 29.0295C34.0227 28.9277 34.0227 28.841 34.0121 28.7595C34.0492 28.6372 34.0015 28.5201 34.0015 28.408C34.0015 28.3621 34.0121 28.3214 34.0068 28.2704C34.0068 28.2246 33.9856 28.1838 33.9803 28.138C33.9803 28.0921 33.9803 28.0412 33.9803 27.9953C33.9803 27.9596 33.9644 27.9342 33.9591 27.9036C33.9538 27.8628 33.9591 27.8374 33.9432 27.7966C33.9326 27.7559 33.9114 27.7151 33.9008 27.6743C33.8531 27.5164 33.8054 27.333 33.6993 27.1852C33.5668 26.8999 33.3017 26.6044 32.7981 26.4618C32.6708 26.4414 32.5807 26.4414 32.4482 26.4414C32.4164 26.4414 32.4217 26.4516 32.374 26.4567C32.3262 26.4567 32.2997 26.4618 32.2149 26.4873L32.3793 26.4618C32.2573 26.4618 32.1301 26.4822 32.0081 26.472C32.0081 26.472 31.9975 26.4822 31.9869 26.4822C31.7855 26.4669 31.5257 26.4618 31.3667 26.4822C31.2447 26.4669 31.0963 26.4822 30.9478 26.4822C30.8736 26.4822 30.8047 26.472 30.7358 26.4771C30.6032 26.4822 30.4336 26.4771 30.3064 26.4771C30.2852 26.4771 30.2162 26.4873 30.195 26.4873C30.1261 26.4873 30.0572 26.4822 29.983 26.4873C29.7073 26.5076 29.3945 26.4924 29.1506 26.4924C29.0764 26.4924 29.0128 26.5025 28.928 26.5076C28.7901 26.5127 28.647 26.4974 28.5091 26.5025C28.4879 26.5025 28.4296 26.5076 28.4084 26.5127C28.3236 26.5127 28.2441 26.5127 28.1592 26.5127C27.9472 26.5127 27.7298 26.5331 27.5284 26.5127C27.2686 26.5331 26.8975 26.528 26.5953 26.5331C26.5264 26.5535 26.4628 26.5331 26.3938 26.5331C26.1818 26.5382 25.9061 26.5637 25.6834 26.5484C25.148 26.5586 24.6973 26.5688 24.2308 26.5841C23.9604 26.5841 23.6688 26.6503 23.3826 26.7573C23.1016 26.8694 22.8259 27.0833 22.6616 27.3534C22.5979 27.4298 22.5343 27.5673 22.5184 27.6489C22.5025 27.6641 22.4813 27.7151 22.4707 27.7559C22.4495 27.9036 22.4071 28.0819 22.4177 28.2602C22.4336 28.2908 22.4336 28.3468 22.4442 28.4131V28.4284C22.4442 28.4284 22.4548 28.4335 22.4548 28.4386C22.4442 28.4487 22.4442 28.4233 22.4389 28.4386C22.4813 28.5048 22.4601 28.8359 22.4707 28.9684C22.4707 28.9582 22.476 28.9582 22.476 28.9684C22.4654 29.0041 22.4866 29.0194 22.4866 29.055C22.4866 29.3098 22.5343 29.4881 22.5502 29.7021C22.5449 29.7275 22.529 29.8039 22.5396 29.8243C22.5396 29.7836 22.5396 29.7377 22.5608 29.7377C22.5555 29.8039 22.5608 29.8855 22.5767 29.9313C22.5767 30.0128 22.5714 30.0536 22.5767 30.1249C22.5767 30.1402 22.5926 30.1096 22.5926 30.1453C22.582 30.2574 22.5979 30.3134 22.5926 30.4153C22.6085 30.4459 22.6138 30.5631 22.6032 30.5987C22.6085 30.6293 22.6191 30.5631 22.6191 30.5885C22.6191 30.6802 22.6298 30.7669 22.6191 30.8484C22.6244 30.8688 22.6351 30.884 22.6404 30.9197C22.6404 30.9452 22.6244 30.9146 22.6298 30.9503C22.6404 30.9808 22.6457 30.9248 22.6563 30.935C22.6616 30.9808 22.6722 30.9706 22.6828 30.9961C22.6722 31.0573 22.6934 31.1031 22.6987 31.1592C22.6987 31.2611 22.6987 31.2509 22.704 31.3426C22.704 31.3935 22.7199 31.4139 22.7199 31.4699C22.7199 31.5158 22.7093 31.5515 22.7093 31.6024C22.7093 31.6279 22.7199 31.582 22.7252 31.6228C22.7252 31.8011 22.7358 31.9743 22.757 32.1068C22.7305 31.9081 22.757 31.7603 22.7358 31.5871C22.7517 31.5616 22.7252 31.5107 22.7464 31.4801C22.7358 31.4699 22.7305 31.5107 22.7305 31.4699C22.7305 31.4547 22.7305 31.4496 22.7305 31.4292C22.7517 31.4547 22.7517 31.419 22.7623 31.4037C22.7623 31.2661 22.757 31.1286 22.7517 31.0063C22.7517 30.9808 22.7411 31.0216 22.7358 30.9961C22.7358 30.935 22.7358 30.9401 22.7305 30.8535C22.7464 30.8382 22.7517 30.7974 22.7676 30.8178C22.7676 30.991 22.7941 31.2305 22.7994 31.4343C22.7994 31.4954 22.7835 31.5616 22.81 31.5973C22.8047 31.5056 22.8259 31.4292 22.8312 31.3477C22.8312 31.2407 22.81 31.1337 22.8153 31.0267C22.8153 30.9961 22.8206 30.9859 22.8206 30.9605C22.8206 30.9401 22.81 30.9044 22.81 30.884C22.81 30.8586 22.8206 30.8586 22.8153 30.8382C22.8153 30.7923 22.7994 30.7618 22.8047 30.7108C22.8047 30.6293 22.8206 30.5478 22.8153 30.4612C22.8206 30.4459 22.8365 30.451 22.8418 30.4714C22.8418 30.5784 22.8418 30.5936 22.8418 30.7006C22.8418 30.6904 22.8418 30.6802 22.8524 30.6802C22.8524 30.7159 22.8471 30.7261 22.8524 30.7465C22.8524 30.665 22.8789 30.6752 22.8895 30.7006C22.8895 30.8993 22.8948 31.1439 22.8895 31.3069C22.8948 31.3273 22.9054 31.3375 22.9107 31.368C22.9107 31.5973 22.9107 31.7196 22.9213 31.9539C22.9425 31.7298 22.9319 31.4954 22.9213 31.2305C22.9213 31.2203 22.9319 31.2305 22.9319 31.1999C22.9213 31.0878 22.9266 30.9605 22.9213 30.8738C22.9372 30.8382 22.9531 30.8025 22.969 30.7618C22.9584 30.4866 23.0168 30.288 23.0168 30.023C23.0274 30.023 23.0327 30.0026 23.038 29.9976C23.0486 30.0179 23.0592 30.0332 23.0645 30.0587C23.0645 30.0994 23.0698 30.1453 23.0645 30.1861C23.0963 30.4051 23.0751 30.721 23.091 30.9961C23.1069 31.0318 23.1228 31.0012 23.1387 30.9808C23.1493 30.8484 23.1228 30.7261 23.144 30.5885C23.1864 30.5376 23.2129 30.5885 23.2182 30.7006C23.2182 30.8789 23.2182 31.1897 23.2129 31.3069C23.2394 31.8317 23.2288 32.3564 23.2447 32.8965C23.2553 32.5959 23.2288 32.3208 23.2447 32.0507C23.2394 32.0507 23.2341 32.0406 23.2341 32.0202C23.2341 31.7552 23.2341 31.4648 23.2235 31.2305C23.25 31.1337 23.2235 30.9452 23.2447 30.8484C23.2871 30.8738 23.303 30.9554 23.3136 31.0573C23.3136 30.9554 23.3243 30.8586 23.3296 30.772C23.3296 30.7006 23.3189 30.5784 23.3296 30.5427C23.3296 30.5325 23.3402 30.5529 23.3402 30.5325C23.3402 30.5631 23.3402 30.4816 23.3402 30.4765C23.3402 30.4357 23.3349 30.4459 23.3349 30.4C23.3349 30.3389 23.3349 30.344 23.3455 30.3032C23.3455 30.0791 23.3455 29.9415 23.3455 29.697C23.3455 29.6715 23.3455 29.6358 23.3455 29.6307C23.3455 29.6103 23.3561 29.6307 23.3561 29.6002C23.3561 29.5849 23.3508 29.59 23.3508 29.5696C23.3508 29.483 23.3508 29.3913 23.3561 29.3199C23.3561 29.1213 23.3561 28.8869 23.3614 28.7239C23.3614 28.6882 23.3773 28.734 23.3773 28.6882C23.3773 28.5965 23.3773 28.5048 23.3826 28.408C23.3826 28.3876 23.3826 28.3723 23.3826 28.3519C23.3826 28.3316 23.3826 28.3163 23.3826 28.2959C23.3826 28.2093 23.3826 28.0717 23.425 27.98C23.4303 27.9698 23.4409 27.98 23.4462 27.9647C23.4568 27.9444 23.4409 27.9444 23.4462 27.9291C23.4515 27.9189 23.4621 27.9138 23.4727 27.9087C23.5522 27.7711 23.6688 27.6743 23.918 27.5979C24.0347 27.5724 24.1619 27.5521 24.305 27.5521C24.4376 27.5419 24.6337 27.5521 24.7875 27.547C25.0419 27.547 25.2911 27.5317 25.5191 27.5419C25.8266 27.5317 26.0916 27.5317 26.3832 27.5317C26.59 27.5317 26.818 27.5368 26.9929 27.5317C27.0247 27.5317 27.0565 27.5215 27.0936 27.5215C27.1254 27.5215 27.2209 27.5317 27.2527 27.5317C27.3746 27.5317 27.5602 27.5215 27.6821 27.5164C27.8411 27.5164 27.9949 27.5164 28.1539 27.5164C28.2229 27.5164 28.3448 27.5062 28.4137 27.5062C28.4561 27.5062 28.5463 27.5113 28.594 27.5164C28.7636 27.5164 28.9333 27.5011 29.0976 27.5062C29.3097 27.5062 29.5323 27.5266 29.7497 27.5062C29.9883 27.5164 30.2799 27.5164 30.5078 27.5062C30.6934 27.5317 30.8895 27.5062 31.0963 27.5113C31.1069 27.5113 31.144 27.5164 31.1546 27.5164C31.4727 27.5368 31.8279 27.5011 32.0877 27.5164C32.1831 27.496 32.2679 27.5164 32.358 27.5215H32.374L32.5383 27.5011C32.4853 27.5164 32.5436 27.496 32.5489 27.5011L32.5595 27.5113C32.5595 27.5113 32.5913 27.5113 32.6178 27.5317C32.6549 27.5623 32.6761 27.6387 32.7398 27.7355C32.761 27.8221 32.7822 27.9647 32.8246 28.087C32.8246 28.3061 32.8723 28.515 32.8564 28.7799C32.8564 28.8665 32.8352 28.948 32.8511 29.0397C32.8299 29.1314 32.8405 29.2435 32.8405 29.3556C32.8405 29.4422 32.8299 29.5951 32.8246 29.7021C32.8193 29.8702 32.8352 30.074 32.7928 30.2013C32.7133 30.2574 32.8299 30.3695 32.814 30.5019C32.7981 30.5733 32.7769 30.5631 32.7451 30.5936C32.7345 30.6548 32.7451 30.7159 32.7451 30.777C32.7398 30.8484 32.7026 30.8993 32.7026 30.9961L32.6973 30.9859ZM22.6934 30.6038C22.6934 30.6038 22.6881 30.6038 22.6881 30.614C22.6722 30.5936 22.6934 30.5478 22.6934 30.6038ZM22.6987 30.6242C22.6987 30.7057 22.7146 30.8178 22.6987 30.8738C22.6987 30.8891 22.7199 30.8586 22.7252 30.884C22.7146 30.9197 22.7093 30.9605 22.7093 31.0165C22.6775 31.0165 22.6987 30.9044 22.6722 30.8993C22.6722 30.8535 22.6722 30.8331 22.6616 30.8127C22.6722 30.721 22.651 30.7006 22.6616 30.6293C22.6775 30.6497 22.6722 30.6191 22.6934 30.6242H22.6987Z" fill="white"/>
<path fill-rule="evenodd" clip-rule="evenodd" d="M37.1659 28.9258C37.1659 28.9258 37.1712 28.9614 37.1712 28.9818C37.1606 28.9767 37.1553 28.9411 37.1659 28.9258Z" fill="white"/>
<path fill-rule="evenodd" clip-rule="evenodd" d="M36.1797 29.8086C36.1797 29.8086 36.1903 29.8799 36.1797 29.8748C36.1797 29.8443 36.1797 29.829 36.1797 29.8086Z" fill="white"/>
<path fill-rule="evenodd" clip-rule="evenodd" d="M36.1585 29.9023C36.1585 29.9023 36.1585 29.9482 36.1585 29.9686C36.1479 29.9686 36.1532 29.9125 36.1585 29.9023Z" fill="white"/>
<path fill-rule="evenodd" clip-rule="evenodd" d="M36.307 30.1719C36.307 30.1719 36.3176 30.2228 36.307 30.2381C36.3017 30.2381 36.307 30.1923 36.307 30.1719Z" fill="white"/>
<path fill-rule="evenodd" clip-rule="evenodd" d="M36.1543 30.2969C36.1543 30.2969 36.1649 30.358 36.1649 30.4141C36.1543 30.3937 36.1596 30.3376 36.1543 30.2969Z" fill="white"/>
<path fill-rule="evenodd" clip-rule="evenodd" d="M36.9269 30.6328C36.9269 30.6939 36.9428 30.8111 36.9269 30.8519C36.9375 30.7806 36.9216 30.699 36.9269 30.6328Z" fill="white"/>
<path fill-rule="evenodd" clip-rule="evenodd" d="M36.5873 30.793C36.6085 30.8643 36.5873 30.9968 36.5979 31.0936C36.582 31.1088 36.5979 30.956 36.582 30.9305C36.582 30.9152 36.582 30.8949 36.5873 30.8745C36.5873 30.849 36.5767 30.8235 36.5873 30.7981V30.793Z" fill="white"/>
<path fill-rule="evenodd" clip-rule="evenodd" d="M36.5352 31.6875C36.5352 31.6875 36.5511 31.6875 36.5511 31.7181C36.5511 31.7232 36.5405 31.7283 36.5352 31.7283V31.6875Z" fill="white"/>
<path fill-rule="evenodd" clip-rule="evenodd" d="M36.6562 32.0664C36.6722 32.1275 36.6722 32.26 36.6562 32.3364C36.6562 32.3466 36.6669 32.3466 36.6616 32.367C36.6616 32.4129 36.6616 32.5097 36.6616 32.4129C36.6509 32.2906 36.6616 32.1989 36.6562 32.0664Z" fill="white"/>
<path fill-rule="evenodd" clip-rule="evenodd" d="M36.4761 32.1133C36.4761 32.1133 36.4814 32.1489 36.4814 32.1795C36.4708 32.1744 36.4708 32.1235 36.4761 32.1133Z" fill="white"/>
<path fill-rule="evenodd" clip-rule="evenodd" d="M36.9442 32.2031C36.9442 32.2031 36.9442 32.2643 36.9442 32.2897C36.9442 32.2694 36.9336 32.2235 36.9442 32.2031Z" fill="white"/>
<path fill-rule="evenodd" clip-rule="evenodd" d="M36.5399 32.1836C36.5399 32.1836 36.5452 32.26 36.5505 32.2906C36.5346 32.3161 36.5399 32.2193 36.5399 32.1836Z" fill="white"/>
<path fill-rule="evenodd" clip-rule="evenodd" d="M36.4883 32.2227C36.4883 32.2227 36.4936 32.2991 36.4989 32.3398C36.4883 32.3144 36.4936 32.2634 36.4883 32.2227Z" fill="white"/>
<path fill-rule="evenodd" clip-rule="evenodd" d="M37.0273 32.2969C37.0273 32.2969 37.0379 32.3376 37.0432 32.3631C37.0326 32.358 37.0326 32.3173 37.0273 32.2969Z" fill="white"/>
<path fill-rule="evenodd" clip-rule="evenodd" d="M36.9436 32.3359C36.9542 32.3665 36.9489 32.4735 36.9436 32.5295C36.933 32.4633 36.9383 32.4124 36.9436 32.3359Z" fill="white"/>
<path fill-rule="evenodd" clip-rule="evenodd" d="M36.4979 32.3633C36.5138 32.4142 36.4979 32.4856 36.4979 32.5263C36.4873 32.4805 36.5032 32.4142 36.4979 32.3633Z" fill="white"/>
<path fill-rule="evenodd" clip-rule="evenodd" d="M36.663 32.4883C36.663 32.4883 36.6683 32.5392 36.6736 32.5647C36.6577 32.5698 36.663 32.5188 36.663 32.4883Z" fill="white"/>
<path fill-rule="evenodd" clip-rule="evenodd" d="M36.6254 32.5742C36.6254 32.5742 36.6254 32.615 36.6254 32.6506C36.6201 32.6405 36.6254 32.5946 36.6254 32.5742Z" fill="white"/>
<path fill-rule="evenodd" clip-rule="evenodd" d="M36.5834 32.6562C36.5834 32.6562 36.594 32.7378 36.5781 32.7225C36.5781 32.7021 36.5781 32.7021 36.5887 32.7021C36.5887 32.6766 36.5834 32.6817 36.5887 32.6562H36.5834Z" fill="white"/>
<path fill-rule="evenodd" clip-rule="evenodd" d="M36.8537 32.8612C36.8378 32.8153 36.859 32.7338 36.8537 32.8612V32.8612Z" fill="white"/>
<path fill-rule="evenodd" clip-rule="evenodd" d="M36.9867 32.9609C36.992 33.0017 36.9867 33.0374 36.9867 33.0883C36.9867 33.0577 36.9814 32.9813 36.9867 32.9609Z" fill="white"/>
<path fill-rule="evenodd" clip-rule="evenodd" d="M37.0078 32.9922C37.0078 32.9922 37.0184 33.0533 37.0078 33.038V32.9922Z" fill="white"/>
<path fill-rule="evenodd" clip-rule="evenodd" d="M37.1929 33.0859C37.1929 33.0859 37.2035 33.1318 37.1982 33.1522C37.1876 33.1471 37.1876 33.0961 37.1929 33.0859Z" fill="white"/>
<path fill-rule="evenodd" clip-rule="evenodd" d="M37.1758 33.3555C37.1758 33.4625 37.1917 33.437 37.1758 33.3555V33.3555Z" fill="white"/>
<path fill-rule="evenodd" clip-rule="evenodd" d="M37.1817 31.1914C37.1817 31.1914 37.187 31.2322 37.1976 31.2424C37.1817 31.2729 37.1976 31.329 37.187 31.3646C37.1711 31.3137 37.187 31.2627 37.1817 31.1914Z" fill="white"/>
<path fill-rule="evenodd" clip-rule="evenodd" d="M36.8795 32.2666C36.8795 32.2666 36.8742 32.287 36.8795 32.3125C36.8742 32.3125 36.8742 32.3023 36.8689 32.3023C36.8689 32.3482 36.8689 32.3787 36.8689 32.4195C36.8689 32.4144 36.8636 32.4093 36.8583 32.4093C36.8795 32.4653 36.8477 32.5265 36.8583 32.6386C36.8371 32.5316 36.8583 32.2921 36.8477 32.1953C36.8636 32.2106 36.8477 32.2921 36.8636 32.3023C36.8742 32.3023 36.8636 32.2514 36.8795 32.2666Z" fill="white"/>
<path fill-rule="evenodd" clip-rule="evenodd" d="M36.5457 32.365C36.5563 32.365 36.5457 32.4058 36.5457 32.4109C36.5351 32.4007 36.5457 32.2733 36.5457 32.365Z" fill="white"/>
<path fill-rule="evenodd" clip-rule="evenodd" d="M36.582 33.0791H36.5661C36.5661 33.1402 36.5661 33.237 36.5555 33.2778C36.5449 33.2065 36.5714 33.0485 36.5502 32.9976C36.5502 32.9772 36.5502 32.9721 36.5555 32.9517C36.5343 32.7836 36.5555 32.6002 36.5449 32.4219C36.582 32.5034 36.529 32.6817 36.5714 32.7683C36.5714 32.7836 36.5714 32.7683 36.5714 32.7581C36.5714 32.8346 36.5608 32.9772 36.5873 33.0791H36.582Z" fill="white"/>
<path fill-rule="evenodd" clip-rule="evenodd" d="M37.0341 33.0195C37.0341 33.0195 37.0394 33.0603 37.05 33.0807C37.05 33.0909 37.0288 33.0399 37.0341 33.0195Z" fill="white"/>
<path fill-rule="evenodd" clip-rule="evenodd" d="M46.4278 30.9859C46.4278 31.0267 46.4384 31.0776 46.4384 31.1235C46.4384 31.2305 46.4225 31.3222 46.4331 31.4292C46.4384 31.5209 46.4596 31.6126 46.4649 31.7094C46.4649 31.7807 46.4755 31.8062 46.4755 31.8571C46.4861 31.9998 46.4808 32.117 46.5179 32.1781C46.5391 32.3004 46.5551 32.3768 46.5763 32.4889C46.5763 32.5042 46.5763 32.5296 46.5763 32.5347C46.6346 32.7589 46.7247 32.8914 46.7671 33.1563C46.7883 33.1767 46.8201 33.192 46.8466 33.2378C46.8572 33.2582 46.8678 33.3041 46.8784 33.3193C46.9209 33.3703 46.9792 33.3244 47.011 33.4263C47.0216 33.4314 47.0269 33.4161 47.0322 33.411C47.1223 33.411 47.1965 33.3754 47.2655 33.4009C47.3079 33.3346 47.3503 33.3499 47.3927 33.2939C47.4139 33.2633 47.4404 33.1971 47.4616 33.1563C47.4881 33.1104 47.5093 33.0595 47.5358 33.0187C47.5623 33.0187 47.5676 32.9576 47.5888 32.9474C47.6048 32.8863 47.626 32.7997 47.6419 32.7385C47.6525 32.7334 47.6578 32.7131 47.6684 32.7131C47.7161 32.5551 47.7691 32.3921 47.785 32.173C47.785 32.1475 47.785 32.1068 47.785 32.0864C47.785 31.9234 47.7956 31.6737 47.8274 31.5871C47.8274 31.5565 47.8221 31.5565 47.8274 31.5311C47.8433 31.5107 47.8751 31.4241 47.8751 31.3528C47.8751 31.3273 47.8539 31.2814 47.8486 31.2254C47.8433 31.1439 47.8751 31.0624 47.8698 30.9859C47.8698 30.9503 47.8486 30.9146 47.8433 30.8789C47.8327 30.7821 47.8433 30.5936 47.8433 30.5121C47.8486 30.451 47.8645 30.4255 47.8645 30.3797C47.8645 30.3389 47.8433 30.3032 47.8168 30.3083C47.7585 30.1861 47.8009 29.8702 47.7744 29.6817C47.7956 29.5441 47.7585 29.4117 47.7638 29.2792C47.7638 29.2639 47.7691 29.2079 47.7744 29.1926C47.7744 29.1467 47.7638 29.0856 47.7585 29.0295C47.7532 28.9277 47.7532 28.841 47.7426 28.7595C47.7797 28.6372 47.732 28.5201 47.732 28.408C47.732 28.3621 47.7426 28.3214 47.7373 28.2704C47.7373 28.2246 47.7161 28.1838 47.7108 28.138C47.7108 28.0921 47.7108 28.0412 47.7108 27.9953C47.7108 27.9596 47.6949 27.9342 47.6896 27.9036C47.6843 27.8628 47.6896 27.8374 47.6737 27.7966C47.6631 27.7559 47.6419 27.7151 47.6313 27.6743C47.5835 27.5164 47.5358 27.333 47.4298 27.1852C47.2973 26.8999 47.0322 26.6044 46.5285 26.4618C46.4013 26.4414 46.3112 26.4414 46.1786 26.4414C46.1468 26.4414 46.1521 26.4516 46.1044 26.4567C46.0567 26.4567 46.0302 26.4618 45.9454 26.4873L46.1097 26.4618C45.9878 26.4618 45.8606 26.4822 45.7386 26.472C45.7386 26.472 45.728 26.4822 45.7174 26.4822C45.516 26.4669 45.2562 26.4618 45.0971 26.4822C44.9752 26.4669 44.8268 26.4822 44.6783 26.4822C44.6041 26.4822 44.5352 26.472 44.4663 26.4771C44.3337 26.4822 44.1641 26.4771 44.0368 26.4771C44.0156 26.4771 43.9467 26.4873 43.9255 26.4873C43.8566 26.4873 43.7877 26.4822 43.7134 26.4873C43.4378 26.5076 43.125 26.4924 42.8811 26.4924C42.8069 26.4924 42.7433 26.5025 42.6584 26.5076C42.5206 26.5127 42.3774 26.4974 42.2396 26.5025C42.2184 26.5025 42.1601 26.5076 42.1389 26.5127C42.0541 26.5127 41.9745 26.5127 41.8897 26.5127C41.6776 26.5127 41.4603 26.5331 41.2588 26.5127C40.9991 26.5331 40.6279 26.528 40.3258 26.5331C40.2568 26.5535 40.1932 26.5331 40.1243 26.5331C39.9122 26.5382 39.6366 26.5637 39.4139 26.5484C38.8784 26.5586 38.4278 26.5688 37.9613 26.5841C37.6909 26.5841 37.3993 26.6503 37.113 26.7573C36.8321 26.8694 36.5564 27.0833 36.392 27.3534C36.3284 27.4298 36.2648 27.5673 36.2489 27.6489C36.233 27.6641 36.2118 27.7151 36.2012 27.7559C36.18 27.9036 36.1376 28.0819 36.1482 28.2602C36.1641 28.2908 36.1641 28.3468 36.1747 28.4131V28.4284C36.1747 28.4284 36.1853 28.4335 36.1853 28.4386C36.1747 28.4487 36.1747 28.4233 36.1694 28.4386C36.2118 28.5048 36.1906 28.8359 36.2012 28.9684C36.2012 28.9582 36.2065 28.9582 36.2065 28.9684C36.1959 29.0041 36.2171 29.0194 36.2171 29.055C36.2171 29.3098 36.2648 29.4881 36.2807 29.7021C36.2754 29.7275 36.2595 29.8039 36.2701 29.8243C36.2701 29.7836 36.2701 29.7377 36.2913 29.7377C36.286 29.8039 36.2913 29.8855 36.3072 29.9313C36.3072 30.0128 36.3019 30.0536 36.3072 30.1249C36.3072 30.1402 36.3231 30.1096 36.3231 30.1453C36.3125 30.2574 36.3284 30.3134 36.3231 30.4153C36.339 30.4459 36.3443 30.5631 36.3337 30.5987C36.339 30.6293 36.3496 30.5631 36.3496 30.5885C36.3496 30.6802 36.3602 30.7669 36.3496 30.8484C36.3549 30.8688 36.3655 30.884 36.3708 30.9197C36.3708 30.9452 36.3549 30.9146 36.3602 30.9503C36.3708 30.9808 36.3761 30.9248 36.3867 30.935C36.392 30.9808 36.4026 30.9706 36.4132 30.9961C36.4026 31.0573 36.4238 31.1031 36.4291 31.1592C36.4291 31.2611 36.4291 31.2509 36.4344 31.3426C36.4344 31.3935 36.4503 31.4139 36.4503 31.4699C36.4503 31.5158 36.4397 31.5515 36.4397 31.6024C36.4397 31.6279 36.4556 31.582 36.4556 31.6228C36.4556 31.8011 36.4662 31.9743 36.4875 32.1068C36.4609 31.9081 36.4875 31.7603 36.4663 31.5871C36.4822 31.5616 36.4556 31.5107 36.4769 31.4801C36.4662 31.4699 36.4609 31.5107 36.4609 31.4699C36.4609 31.4547 36.4609 31.4496 36.4609 31.4292C36.4822 31.4547 36.4822 31.419 36.4928 31.4037C36.4928 31.2661 36.4875 31.1286 36.4822 31.0063C36.4822 30.9808 36.4716 31.0216 36.4663 30.9961C36.4663 30.935 36.4662 30.9401 36.4609 30.8535C36.4769 30.8382 36.4822 30.7974 36.4981 30.8178C36.4981 30.991 36.5246 31.2305 36.5299 31.4343C36.5299 31.4954 36.514 31.5616 36.5405 31.5973C36.5352 31.5056 36.5564 31.4292 36.5617 31.3477C36.5617 31.2407 36.5405 31.1337 36.5458 31.0267C36.5458 30.9961 36.5511 30.9859 36.5511 30.9605C36.5511 30.9401 36.5405 30.9044 36.5405 30.884C36.5405 30.8586 36.5511 30.8586 36.5458 30.8382C36.5458 30.7923 36.5299 30.7618 36.5352 30.7108C36.5352 30.6293 36.5511 30.5478 36.5458 30.4612C36.5511 30.4459 36.567 30.451 36.5723 30.4714C36.5723 30.5784 36.5723 30.5936 36.5723 30.7006C36.5723 30.6904 36.5723 30.6802 36.5829 30.6802C36.5829 30.7159 36.5776 30.7261 36.5829 30.7465C36.5829 30.665 36.6094 30.6752 36.62 30.7006C36.62 30.8993 36.6253 31.1439 36.62 31.3069C36.6253 31.3273 36.6359 31.3375 36.6412 31.368C36.6412 31.5973 36.6412 31.7196 36.6518 31.9539C36.673 31.7298 36.6624 31.4954 36.6518 31.2305C36.6518 31.2203 36.6624 31.2305 36.6624 31.1999C36.6518 31.0878 36.6571 30.9605 36.6518 30.8738C36.6677 30.8382 36.6836 30.8025 36.6995 30.7618C36.6889 30.4866 36.7472 30.288 36.7472 30.023C36.7578 30.023 36.7631 30.0026 36.7684 29.9976C36.779 30.0179 36.7896 30.0332 36.7949 30.0587C36.7949 30.0994 36.8002 30.1453 36.7949 30.1861C36.8268 30.4051 36.8055 30.721 36.8215 30.9961C36.8374 31.0318 36.8533 31.0012 36.8692 30.9808C36.8798 30.8484 36.8533 30.7261 36.8745 30.5885C36.9169 30.5376 36.9434 30.5885 36.9487 30.7006C36.9487 30.8789 36.9487 31.1897 36.9434 31.3069C36.9699 31.8317 36.9593 32.3564 36.9752 32.8965C36.9858 32.5959 36.9593 32.3208 36.9752 32.0507C36.9699 32.0507 36.9646 32.0406 36.9646 32.0202C36.9646 31.7552 36.9646 31.4648 36.954 31.2305C36.9805 31.1337 36.954 30.9452 36.9752 30.8484C37.0176 30.8738 37.0335 30.9554 37.0441 31.0573C37.0441 30.9554 37.0547 30.8586 37.06 30.772C37.06 30.7006 37.0494 30.5784 37.06 30.5427C37.06 30.5325 37.0706 30.5529 37.0706 30.5325C37.0706 30.5631 37.0706 30.4816 37.0706 30.4765C37.0706 30.4357 37.0653 30.4459 37.0653 30.4C37.0653 30.3389 37.0653 30.344 37.0759 30.3032C37.0759 30.0791 37.0759 29.9415 37.0759 29.697C37.0759 29.6715 37.0759 29.6358 37.0759 29.6307C37.0759 29.6103 37.0865 29.6307 37.0865 29.6002C37.0865 29.5849 37.0812 29.59 37.0812 29.5696C37.0812 29.483 37.0812 29.3913 37.0865 29.3199C37.0865 29.1213 37.0865 28.8869 37.0918 28.7239C37.0918 28.6882 37.1077 28.734 37.1077 28.6882C37.1077 28.5965 37.1077 28.5048 37.113 28.408C37.113 28.3876 37.113 28.3723 37.113 28.3519C37.113 28.3316 37.113 28.3163 37.113 28.2959C37.113 28.2093 37.113 28.0717 37.1554 27.98C37.1608 27.9698 37.1714 27.98 37.1767 27.9647C37.1873 27.9444 37.1714 27.9444 37.1767 27.9291C37.182 27.9189 37.1926 27.9138 37.2032 27.9087C37.2827 27.7711 37.3993 27.6743 37.6485 27.5979C37.7651 27.5724 37.8924 27.5521 38.0355 27.5521C38.168 27.5419 38.3642 27.5521 38.5179 27.547C38.7724 27.547 39.0216 27.5317 39.2496 27.5419C39.557 27.5317 39.8221 27.5317 40.1137 27.5317C40.3205 27.5317 40.5484 27.5368 40.7234 27.5317C40.7552 27.5317 40.787 27.5215 40.8241 27.5215C40.8559 27.5215 40.9513 27.5317 40.9831 27.5317C41.1051 27.5317 41.2906 27.5215 41.4126 27.5164C41.5716 27.5164 41.7254 27.5164 41.8844 27.5164C41.9533 27.5164 42.0753 27.5062 42.1442 27.5062C42.1866 27.5062 42.2767 27.5113 42.3244 27.5164C42.4941 27.5164 42.6637 27.5011 42.8281 27.5062C43.0401 27.5062 43.2628 27.5266 43.4802 27.5062C43.7187 27.5164 44.0103 27.5164 44.2383 27.5062C44.4238 27.5317 44.62 27.5062 44.8268 27.5113C44.8374 27.5113 44.8745 27.5164 44.8851 27.5164C45.2032 27.5368 45.5584 27.5011 45.8181 27.5164C45.9136 27.496 45.9984 27.5164 46.0885 27.5215H46.1044L46.2688 27.5011C46.2158 27.5164 46.2741 27.496 46.2794 27.5011L46.29 27.5113C46.29 27.5113 46.3218 27.5113 46.3483 27.5317C46.3854 27.5623 46.4066 27.6387 46.4702 27.7355C46.4914 27.8221 46.5126 27.9647 46.5551 28.087C46.5551 28.3061 46.6028 28.515 46.5869 28.7799C46.5869 28.8665 46.5657 28.948 46.5816 29.0397C46.5604 29.1314 46.571 29.2435 46.571 29.3556C46.571 29.4422 46.5604 29.5951 46.5551 29.7021C46.5497 29.8702 46.5657 30.074 46.5232 30.2013C46.4437 30.2574 46.5604 30.3695 46.5444 30.5019C46.5285 30.5733 46.5073 30.5631 46.4755 30.5936C46.4649 30.6548 46.4755 30.7159 46.4755 30.777C46.4702 30.8484 46.4331 30.8993 46.4331 30.9961L46.4278 30.9859ZM36.4238 30.6038C36.4238 30.6038 36.4185 30.6038 36.4185 30.614C36.4026 30.5936 36.4238 30.5478 36.4238 30.6038ZM36.4291 30.6242C36.4291 30.7057 36.445 30.8178 36.4291 30.8738C36.4291 30.8891 36.4503 30.8586 36.4556 30.884C36.445 30.9197 36.4397 30.9605 36.4397 31.0165C36.4079 31.0165 36.4291 30.9044 36.4026 30.8993C36.4026 30.8535 36.4026 30.8331 36.392 30.8127C36.4026 30.721 36.3814 30.7006 36.392 30.6293C36.4079 30.6497 36.4026 30.6191 36.4238 30.6242H36.4291Z" fill="white"/>
</g>
<defs>
<clipPath id="clip0_868_17267">
<rect width="40" height="25" fill="white" transform="translate(15 22)"/>
</clipPath>
</defs>
</svg>
