<svg width="70" height="70" viewBox="0 0 70 70" fill="none" xmlns="http://www.w3.org/2000/svg">
<g clip-path="url(#clip0_868_15854)">
<path fill-rule="evenodd" clip-rule="evenodd" d="M36.9498 40.0829C36.8978 40.0886 36.8111 40.0829 36.707 40.0829C36.7302 40.0713 36.8631 40.0713 36.9498 40.0829Z" fill="white"/>
<path fill-rule="evenodd" clip-rule="evenodd" d="M33.9091 38.4069C33.8455 38.3954 33.6605 38.3435 33.6836 38.332C33.7819 38.3666 33.8339 38.3839 33.9091 38.4069Z" fill="white"/>
<path fill-rule="evenodd" clip-rule="evenodd" d="M33.5966 38.2754C33.5966 38.2754 33.4405 38.2235 33.3711 38.2005C33.3769 38.189 33.5561 38.2581 33.5966 38.2754Z" fill="white"/>
<path fill-rule="evenodd" clip-rule="evenodd" d="M32.6434 38.0784C32.5972 38.0611 32.47 38.015 32.418 37.9805C32.4353 37.9805 32.5741 38.0496 32.6434 38.0784Z" fill="white"/>
<path fill-rule="evenodd" clip-rule="evenodd" d="M32.3132 37.7392C32.2323 37.7104 32.1051 37.6585 31.9316 37.5664C31.9952 37.5837 32.1745 37.6758 32.3132 37.7392Z" fill="white"/>
<path fill-rule="evenodd" clip-rule="evenodd" d="M30.8282 37.9582C30.6374 37.8603 30.2385 37.6645 30.1113 37.5781C30.3368 37.7106 30.6143 37.8372 30.8282 37.9582Z" fill="white"/>
<path fill-rule="evenodd" clip-rule="evenodd" d="M30.4866 37.3545C30.238 37.2508 29.8218 36.9975 29.5096 36.8478C29.4749 36.8074 29.9548 37.0838 30.053 37.1184C30.1109 37.1529 30.1745 37.1875 30.2323 37.222C30.319 37.2681 30.3999 37.2969 30.4866 37.3545Z" fill="white"/>
<path fill-rule="evenodd" clip-rule="evenodd" d="M27.6247 35.7077C27.6247 35.7077 27.6016 35.7077 27.5264 35.6616C27.5033 35.6443 27.5033 35.6328 27.5091 35.6328L27.6305 35.7077H27.6247Z" fill="white"/>
<path fill-rule="evenodd" clip-rule="evenodd" d="M26.4159 35.0379C26.2309 34.9228 25.8436 34.6003 25.647 34.4045C25.6181 34.3815 25.6123 34.3872 25.5603 34.3354C25.4389 34.226 25.1672 33.9727 25.4331 34.2145C25.7684 34.5024 26.0228 34.7443 26.4159 35.0379Z" fill="white"/>
<path fill-rule="evenodd" clip-rule="evenodd" d="M26.4114 34.7864C26.3652 34.7576 26.2958 34.7058 26.2148 34.6367C26.238 34.6482 26.3825 34.7576 26.4114 34.7864Z" fill="white"/>
<path fill-rule="evenodd" clip-rule="evenodd" d="M25.815 34.9709C25.7745 34.9536 25.6416 34.8269 25.5664 34.7578C25.6242 34.8039 25.7572 34.9133 25.815 34.9709Z" fill="white"/>
<path fill-rule="evenodd" clip-rule="evenodd" d="M26.1618 34.6704C26.0867 34.6243 25.9421 34.4976 25.8554 34.4285C25.7918 34.3537 26.0578 34.5898 26.1618 34.6704Z" fill="white"/>
<path fill-rule="evenodd" clip-rule="evenodd" d="M26.0757 34.5245C26.0121 34.49 25.8676 34.3518 25.752 34.2539C25.8271 34.3057 25.9716 34.4382 26.0757 34.5245Z" fill="white"/>
<path fill-rule="evenodd" clip-rule="evenodd" d="M25.4855 34.8097C25.4855 34.8097 25.3584 34.7175 25.2832 34.6484C25.3063 34.6484 25.4104 34.7521 25.4855 34.8097Z" fill="white"/>
<path fill-rule="evenodd" clip-rule="evenodd" d="M25.4342 34.6342C25.3417 34.5651 25.0469 34.2944 24.9023 34.1562C25.1163 34.3463 25.2377 34.4557 25.4342 34.6342Z" fill="white"/>
<path fill-rule="evenodd" clip-rule="evenodd" d="M25.6952 34.2039C25.5448 34.0944 25.3598 33.9044 25.25 33.8008C25.3772 33.9102 25.5448 34.0829 25.6952 34.2039Z" fill="white"/>
<path fill-rule="evenodd" clip-rule="evenodd" d="M25.2256 34.0247C25.1678 33.9844 25.0811 33.9038 25.0117 33.8347C25.0117 33.8116 25.1389 33.9441 25.2256 34.0247Z" fill="white"/>
<path fill-rule="evenodd" clip-rule="evenodd" d="M25.0285 33.7817C24.9591 33.7299 24.9071 33.6781 24.8262 33.5859C24.8551 33.6032 24.9649 33.7241 25.0285 33.7817Z" fill="white"/>
<path fill-rule="evenodd" clip-rule="evenodd" d="M24.8449 33.5348C24.8102 33.5175 24.6252 33.3218 24.683 33.3505C24.735 33.4024 24.7235 33.4024 24.7177 33.4081C24.7755 33.4715 24.7755 33.4599 24.8449 33.5348Z" fill="white"/>
<path fill-rule="evenodd" clip-rule="evenodd" d="M24.1094 33.168C24.2366 33.3004 24.4216 33.5538 24.1094 33.168V33.168Z" fill="white"/>
<path fill-rule="evenodd" clip-rule="evenodd" d="M23.7464 32.9181C23.6481 32.7857 23.5672 32.6532 23.4805 32.4805C23.5383 32.5899 23.7059 32.8547 23.7464 32.9181Z" fill="white"/>
<path fill-rule="evenodd" clip-rule="evenodd" d="M23.659 32.8324C23.6764 32.89 23.5087 32.6194 23.555 32.6655C23.5839 32.723 23.6244 32.7749 23.659 32.8324Z" fill="white"/>
<path fill-rule="evenodd" clip-rule="evenodd" d="M23.2833 32.6027C23.2428 32.5566 23.1908 32.4299 23.1445 32.332C23.1677 32.3551 23.2602 32.5624 23.2833 32.6027Z" fill="white"/>
<path fill-rule="evenodd" clip-rule="evenodd" d="M22.925 31.4338C22.8788 31.0595 22.8903 30.9271 22.925 31.4338V31.4338Z" fill="white"/>
<path fill-rule="evenodd" clip-rule="evenodd" d="M28.8791 37.2505C28.827 37.2275 28.7519 37.1929 28.7114 37.1756C28.6247 37.1065 28.4397 37.0259 28.3125 36.9453C28.4802 37.0202 28.642 37.1353 28.8791 37.2505Z" fill="white"/>
<path fill-rule="evenodd" clip-rule="evenodd" d="M25.6817 34.7624C25.6124 34.7048 25.6297 34.7048 25.5488 34.6415C25.5488 34.63 25.5777 34.6587 25.5834 34.6587C25.4447 34.5378 25.3753 34.4745 25.2655 34.3766C25.2828 34.3881 25.3002 34.3996 25.3002 34.3939C25.1383 34.273 24.9822 34.0944 24.6758 33.8008C24.9822 34.0829 25.6239 34.6818 25.9072 34.9063C25.8552 34.8833 25.6297 34.6703 25.5892 34.6587C25.5719 34.6587 25.7395 34.7912 25.6817 34.7682V34.7624Z" fill="white"/>
<path fill-rule="evenodd" clip-rule="evenodd" d="M25.6545 34.2381C25.6255 34.2093 25.6371 34.2266 25.6545 34.2381C25.6371 34.2381 25.5388 34.1345 25.5215 34.1172C25.562 34.1402 25.9031 34.4512 25.6545 34.2323V34.2381Z" fill="white"/>
<path fill-rule="evenodd" clip-rule="evenodd" d="M23.8972 32.3082H23.9145C23.8047 32.1066 23.6717 31.7669 23.6602 31.6172C23.7122 31.8763 23.9434 32.4003 24.0764 32.5442C24.1111 32.6018 24.1342 32.6364 24.1631 32.694C24.5389 33.1892 25.0072 33.6786 25.4928 34.099C25.25 33.9377 24.8106 33.4425 24.5678 33.2237C24.5331 33.1834 24.5678 33.2237 24.5967 33.2467C24.4002 33.0395 24.0938 32.6249 23.903 32.3082H23.8972Z" fill="white"/>
<path fill-rule="evenodd" clip-rule="evenodd" d="M23.5839 32.7744C23.5434 32.7284 23.4856 32.6247 23.4451 32.5671C23.4278 32.5326 23.5434 32.6996 23.5839 32.7744Z" fill="white"/>
<path fill-rule="evenodd" clip-rule="evenodd" d="M22.3873 22.6704C22.4278 22.8029 22.4856 22.9986 22.526 23.1368C22.6128 23.4996 22.6879 23.822 22.7804 24.2078C22.8671 24.5361 22.9307 24.8009 23.0232 25.2098C23.0926 25.4919 23.1215 25.5725 23.1793 25.751C23.3354 26.2635 23.4568 26.6839 23.5609 26.8796C23.6245 27.0466 23.6881 27.2251 23.7228 27.3691C23.7632 27.513 23.769 27.6224 23.7748 27.7376C23.7748 27.7721 23.7632 27.847 23.7632 27.8643C23.7517 28.0255 23.7343 28.1176 23.6881 28.2616C23.6418 28.4055 23.5609 28.6013 23.5147 28.7913C23.4106 29.1714 23.3412 29.5514 23.2718 30.0524C23.2776 30.1445 23.3007 30.2078 23.3065 30.3806C23.3065 30.4554 23.295 30.6282 23.3065 30.6858C23.3412 30.8931 23.4106 30.7203 23.4337 31.1004C23.4453 31.1234 23.4511 31.0485 23.4568 31.0313C23.5551 31.0428 23.6418 30.9046 23.717 30.991C23.7748 30.7549 23.8268 30.8067 23.8847 30.6282C23.9251 30.5188 23.9829 30.2942 24.035 30.156C24.0928 29.9948 24.1564 29.8278 24.22 29.7011C24.2489 29.7069 24.3067 29.5111 24.3472 29.4766C24.4397 29.2405 24.5206 29.0965 24.6536 28.872C24.6709 28.8547 24.7114 28.7971 24.7229 28.7913C24.8039 28.6589 24.8964 28.4689 24.96 28.2789C25.0178 28.0946 25.064 27.9103 25.0872 27.6915C25.1334 27.2424 25.0236 26.8048 24.9195 26.4247C24.8964 26.3499 24.8559 26.2059 24.8328 26.1196C24.7461 25.8374 24.6478 25.4862 24.5726 25.1637C24.4917 24.847 24.4628 24.5936 24.4512 24.4151C24.4339 24.3057 24.4223 24.3057 24.405 24.1963C24.405 24.1215 24.3761 23.7933 24.3067 23.5226C24.2893 23.465 24.2084 23.2117 24.1622 23.0735C24.0812 22.7741 24.035 22.4746 23.9598 22.204C23.9251 22.0773 23.8673 21.9564 23.8211 21.824C23.717 21.4958 23.5147 20.7933 23.4973 20.6148C23.4857 20.4766 23.5147 20.4996 23.5147 20.4593C23.5204 20.419 23.532 20.3384 23.5031 20.3384C23.5031 20.2462 23.6997 19.9756 23.9887 19.7107C24.272 19.4458 24.6247 19.1752 24.879 18.9622C25.2837 18.6858 25.648 18.3863 26.0469 18.1387C26.122 18.0984 26.2376 18.0293 26.307 17.989C26.4284 17.9142 26.6366 17.7817 26.8042 17.6781C27.128 17.4938 27.365 17.3556 27.6541 17.1887C27.7639 17.1426 27.8622 17.0908 27.9547 17.0389C28.053 16.9871 28.157 16.918 28.238 16.872C28.3999 16.7625 28.5502 16.6589 28.7178 16.561C28.8334 16.4977 28.9895 16.4055 29.111 16.3364C29.215 16.2673 29.3538 16.181 29.4694 16.1061C29.585 16.0428 29.7527 15.9449 29.8683 15.8816C29.9492 15.8297 30.0417 15.7721 30.1053 15.7261C30.1978 15.6743 30.2846 15.6282 30.3771 15.5706C30.4638 15.513 30.6199 15.4094 30.7008 15.3518C31.1113 15.0984 31.5622 14.8451 31.9322 14.586C32.6491 14.1887 33.2388 13.7798 34.0829 13.3134C34.2852 13.1867 34.4355 13.0888 34.6494 12.9737C34.6957 12.9449 34.6899 12.9391 34.7651 12.8931C34.979 12.7779 35.1929 12.657 35.3894 12.5649C35.5802 12.4785 35.771 12.4209 36.0254 12.3748C36.0427 12.3691 36.0601 12.3576 36.089 12.3518C36.7423 12.2251 37.5806 12.1963 38.0893 12.2251C38.4824 12.2769 38.9392 12.3345 39.3901 12.4958C39.604 12.5706 39.8006 12.6685 39.9856 12.7606C40.3556 12.9334 40.7603 13.2558 41.0204 13.5437C41.1014 13.6244 41.1765 13.7107 41.2517 13.7971C41.3789 13.9641 41.5003 14.1541 41.6275 14.3556C41.8703 14.7357 42.1015 15.1848 42.3212 15.6339C42.5467 16.0946 42.7433 16.5034 42.8762 16.872C42.9629 17.1023 43.0381 17.2981 43.1248 17.5687C43.2694 18.0178 43.3792 18.513 43.5122 18.9794C43.5469 19.0831 43.5873 19.2213 43.6162 19.3192C43.6972 19.6071 43.7723 19.872 43.8533 20.1656C44.0614 20.8911 44.2926 21.6167 44.4777 22.3019C44.7552 23.1714 45.1541 24.4267 45.3448 25.4113C45.4142 25.6301 45.4316 25.8489 45.472 26.085C45.5992 26.8105 45.7438 27.7434 45.7148 28.4804C45.7148 28.8662 45.6802 29.2347 45.5877 29.5917C45.5009 29.9315 45.3333 30.3 45.1598 30.6685C44.8014 31.4055 44.3967 32.1599 44.0094 32.9027C43.6162 33.6512 43.2289 34.3652 42.7548 35.0044C42.275 35.6493 41.7431 36.2597 41.165 36.8009C40.9106 37.0197 40.714 37.1925 40.5175 37.3595C40.4712 37.3825 40.3556 37.4746 40.2689 37.5437C39.9682 37.8144 39.5635 38.1023 39.1473 38.3384C39.0548 38.4247 38.7888 38.5341 38.6328 38.6205C38.5576 38.6378 38.7253 38.5687 38.5981 38.6148C38.4651 38.6954 38.1471 38.8163 37.7945 38.8854C37.4418 38.9602 37.066 38.9775 36.829 38.9775C36.8637 38.9775 36.8695 38.9833 36.829 38.9833C36.7134 38.9718 36.6613 38.9833 36.5341 38.9833C35.6727 38.9084 35.0194 38.7645 34.2563 38.586C34.1638 38.5514 33.921 38.465 33.8343 38.4535C33.9672 38.4996 34.1349 38.5457 34.1176 38.5629C33.8979 38.4938 33.603 38.4075 33.4527 38.3672C33.1983 38.2693 33.1232 38.2405 32.8052 38.1196C32.7474 38.0965 32.8515 38.1599 32.73 38.108C32.3658 37.9353 32.175 37.8662 31.8513 37.6935C31.7472 37.6647 31.3599 37.4746 31.25 37.3998C31.1402 37.3537 31.3599 37.4746 31.2674 37.4286C30.9667 37.2789 30.6892 37.1407 30.4233 36.9852C30.3539 36.9564 30.3019 36.9449 30.1921 36.8873C30.1169 36.847 30.221 36.8873 30.1053 36.8297C29.9955 36.7837 30.1805 36.8873 30.1458 36.8873C29.9955 36.8125 30.0186 36.8412 29.9377 36.8067C29.7353 36.6858 29.585 36.6339 29.3942 36.5361C29.1803 36.4209 29.0069 36.3288 28.8045 36.2194C28.6427 36.1387 28.5675 36.11 28.3941 36.0121C28.2669 35.9372 28.1166 35.8451 27.9778 35.7587C27.8911 35.7126 28.0241 35.8048 27.9084 35.7357C27.3534 35.4132 26.8216 35.0505 26.4342 34.7741C27.0239 35.1944 27.4575 35.5111 28.0241 35.8105C28.0992 35.8739 28.2784 35.9487 28.3478 36.0121C28.3883 36.0236 28.2669 35.943 28.3883 36.0121C28.4288 36.0351 28.4403 36.0524 28.5097 36.0869C28.4172 36.0639 28.5386 36.1272 28.5791 36.1675C29.0589 36.4209 29.4463 36.6282 29.8567 36.847C29.9377 36.8815 29.8105 36.8067 29.8972 36.847C30.0649 36.9334 30.1631 36.9852 30.3713 37.0888C30.4175 37.1349 30.5447 37.204 30.4638 37.1867C29.903 36.8873 29.1167 36.5073 28.4519 36.1387C28.2495 36.0293 28.053 35.8911 27.9258 35.8451C28.2033 36.0121 28.4808 36.1791 28.7063 36.3173C29.0416 36.5073 29.4116 36.6743 29.7411 36.8585C29.8221 36.9046 29.8856 36.9391 29.955 36.9794C30.0071 37.0082 30.1516 37.0716 30.2094 37.1061C30.2903 37.1522 30.2903 37.1579 30.3597 37.1982C30.4869 37.2616 30.6372 37.3307 30.776 37.3998C31.0361 37.538 31.2905 37.6877 31.5853 37.8316C31.6374 37.8662 31.6027 37.8662 31.5333 37.8316C31.1922 37.6531 31.1286 37.6244 30.7817 37.4458C30.8222 37.4689 30.8396 37.4862 30.8338 37.4862C30.7239 37.4286 30.6892 37.4055 30.6141 37.371C30.8742 37.5092 30.8396 37.5207 30.7413 37.4862C30.0996 37.1407 29.3017 36.7376 28.7814 36.4382C28.7178 36.4151 28.6774 36.4036 28.5791 36.3518C27.9836 36.0351 27.3303 35.6378 26.7348 35.2232C27.3997 35.7299 28.1628 36.1503 29.0069 36.5994C29.0358 36.6224 29.0069 36.6167 29.0936 36.657C29.4867 36.8643 29.8799 37.0658 30.1631 37.2155C30.273 37.2961 30.3886 37.371 30.5042 37.4574C31.4003 37.9123 32.0247 38.3268 32.9382 38.6896C32.9266 38.7011 33.0018 38.7299 33.0249 38.7472C32.9497 38.7299 32.8919 38.7184 32.8052 38.6954C32.6549 38.6378 32.4988 38.5744 32.3774 38.5111C31.6027 38.2117 30.5967 37.6416 29.6949 37.1867C29.5792 37.1464 29.6544 37.204 29.7238 37.2616C30.1458 37.4977 30.5505 37.6819 31.0014 37.9468C31.146 38.0735 30.9552 38.0159 30.6025 37.8316C30.0128 37.5265 29.0127 36.991 28.6369 36.7779C27.7755 36.323 26.9141 35.8278 26.122 35.2059C25.7231 34.895 25.3531 34.5668 24.9889 34.227C24.6189 33.8873 24.2547 33.5245 23.9193 33.1042C24.2836 33.5821 24.6825 33.9622 25.0698 34.3192C25.4514 34.6647 25.8445 35.0101 26.2492 35.3268C26.2492 35.3153 26.2839 35.3384 26.3475 35.3844C27.1511 35.9948 28.1166 36.5303 28.8739 36.9219C29.1745 37.1176 29.7989 37.4113 30.1053 37.6071C30.0071 37.6071 29.7353 37.4862 29.4 37.3192C29.7238 37.4977 30.0533 37.6762 30.325 37.8259C30.5563 37.9526 30.9667 38.1483 31.0824 38.2174C31.1113 38.2347 31.0477 38.2174 31.1055 38.2405C31.0072 38.1887 31.2789 38.3268 31.3021 38.3384C31.435 38.4017 31.4119 38.3844 31.5622 38.4593C31.7588 38.5572 31.7588 38.5572 31.8802 38.6263C32.574 38.966 33.3024 39.2309 34.054 39.4439C34.1349 39.467 34.2852 39.5073 34.3026 39.513C34.3719 39.5361 34.3083 39.5245 34.4008 39.5533C34.4529 39.5649 34.4297 39.5533 34.5049 39.5706C34.7882 39.6455 35.1235 39.7318 35.4241 39.7894C36.1641 39.9564 37.1527 40.0255 37.8118 39.8931C37.9621 39.87 37.7656 39.9161 37.9679 39.8815C38.5287 39.7779 39.1068 39.5764 39.6271 39.2885C40.1532 39.0006 40.6215 38.6493 41.0551 38.2981C41.1245 38.2462 41.0782 38.2981 41.1765 38.2232C41.2979 38.1311 41.2575 38.1368 41.3615 38.0505C41.4309 38.0044 41.4945 37.9526 41.5408 37.9295C42.5698 37.0658 43.4486 36.0524 44.1828 34.8835C44.8361 33.7894 45.3564 32.7357 45.8999 31.705C46.108 31.2961 46.3103 30.8931 46.4838 30.4554C46.6688 30.0178 46.7844 29.5226 46.8364 29.0792C46.9289 27.8758 46.7786 26.9257 46.6225 25.9007C46.5069 25.1637 46.3219 24.3345 46.1427 23.7414C46.1138 23.6493 46.0675 23.5054 46.0328 23.3959C45.9866 23.229 45.9288 23.0159 45.8883 22.8547C45.7438 22.3825 45.5877 21.8758 45.4431 21.4036C45.287 20.8681 45.1425 20.3499 44.9922 19.8201C44.9055 19.5322 44.8187 19.227 44.732 18.9391C44.68 18.7491 44.6222 18.5245 44.5702 18.3288C44.4083 17.753 44.2348 17.1714 44.0441 16.6071C43.9169 16.227 43.755 15.847 43.5815 15.49C43.4139 15.1445 43.2462 14.799 43.0555 14.4535C42.8589 14.0677 42.6276 13.6301 42.327 13.2155C42.0322 12.8009 41.6622 12.4094 41.2922 12.1387C40.714 11.6608 39.9914 11.3499 39.1935 11.1541C39.1242 11.1368 39.0432 11.1138 38.9681 11.0908C37.7482 10.8144 36.3896 10.9756 35.4357 11.2117C35.0483 11.3268 34.713 11.4708 34.4182 11.6205C34.0944 11.7875 33.8285 11.9602 33.5394 12.1272C33.4527 12.1733 33.3486 12.2309 33.2619 12.2827C32.9729 12.4497 32.7011 12.6282 32.3832 12.824C31.9149 13.1119 31.3946 13.3825 30.8685 13.7222C30.4464 13.9583 29.8163 14.3153 29.3538 14.6205C28.9433 14.8508 28.5386 15.0984 28.1339 15.346L27.5269 15.7261C27.3534 15.8355 27.1337 15.9506 26.9198 16.0658C26.6308 16.2213 26.3591 16.348 26.0758 16.5322C25.7636 16.6877 25.4051 16.918 25.0467 17.1483C24.6883 17.3787 24.324 17.6263 23.9656 17.8911C23.4511 18.2712 22.8556 18.7952 22.474 19.2213C22.3642 19.2961 22.237 19.4689 22.1387 19.7453C22.0404 19.9814 21.9826 20.4535 22.0462 20.7702C22.0867 21.1042 22.0578 21.0466 22.0578 21.1848C22.1098 21.4324 22.1792 21.6397 22.2485 21.8528C22.3121 22.1061 22.3237 22.2961 22.4104 22.6244L22.3873 22.6704ZM31.1749 37.5092C31.1749 37.5092 31.1749 37.4977 31.146 37.4862C31.2211 37.5034 31.3541 37.6071 31.1749 37.5092ZM31.1055 37.4804C30.8453 37.348 30.4753 37.1695 30.2903 37.0543C30.2383 37.0255 30.325 37.1004 30.2383 37.0543C30.1342 36.9852 30.0071 36.9103 29.8163 36.8067C29.8163 36.7721 30.1863 36.991 30.221 36.9737C30.3655 37.0543 30.4349 37.0946 30.51 37.1119C30.8049 37.2789 30.88 37.2961 31.0997 37.4228C31.0303 37.4055 31.1344 37.4574 31.1055 37.4689V37.4804Z" fill="white"/>
<path fill-rule="evenodd" clip-rule="evenodd" d="M38.2344 42.5117C38.2806 42.5117 38.3558 42.5175 38.4483 42.529C38.4252 42.5348 38.3038 42.529 38.2344 42.5117Z" fill="white"/>
<path fill-rule="evenodd" clip-rule="evenodd" d="M41.2285 44.0703C41.2921 44.0761 41.4887 44.1106 41.4598 44.1221C41.3499 44.0991 41.3037 44.0876 41.2285 44.0703Z" fill="white"/>
<path fill-rule="evenodd" clip-rule="evenodd" d="M41.5527 44.1641C41.5527 44.1641 41.7204 44.1986 41.7898 44.2101C41.7898 44.2216 41.599 44.1756 41.5527 44.1641Z" fill="white"/>
<path fill-rule="evenodd" clip-rule="evenodd" d="M42.5293 44.2227C42.5813 44.2284 42.7085 44.2572 42.7663 44.2802C42.749 44.2802 42.6045 44.2399 42.5293 44.2227Z" fill="white"/>
<path fill-rule="evenodd" clip-rule="evenodd" d="M42.9121 44.5039C42.993 44.5154 43.1318 44.55 43.311 44.6076C43.2416 44.6018 43.0566 44.5385 42.9121 44.5039Z" fill="white"/>
<path fill-rule="evenodd" clip-rule="evenodd" d="M44.3164 44.0234C44.5245 44.0868 44.9466 44.2192 45.0853 44.2883C44.8425 44.1847 44.5477 44.1041 44.3164 44.0234Z" fill="white"/>
<path fill-rule="evenodd" clip-rule="evenodd" d="M44.7441 44.5664C45.0043 44.6297 45.4379 44.8255 45.7616 44.9407C45.7963 44.9752 45.2991 44.7622 45.2009 44.7392C45.1373 44.7104 45.0737 44.6873 45.0101 44.6585C44.9234 44.6297 44.8366 44.6125 44.7441 44.5664Z" fill="white"/>
<path fill-rule="evenodd" clip-rule="evenodd" d="M47.6757 45.9534C47.6757 45.9534 47.6988 45.9476 47.774 45.9937C47.7971 46.0109 47.7971 46.0167 47.7913 46.0225L47.6699 45.9534H47.6757Z" fill="white"/>
<path fill-rule="evenodd" clip-rule="evenodd" d="M48.8887 46.582C49.0737 46.6972 49.461 47.0081 49.6518 47.2039C49.6807 47.2269 49.6865 47.2212 49.7385 47.273C49.8541 47.3882 50.1085 47.653 49.8599 47.3997C49.542 47.1003 49.2818 46.8699 48.8945 46.582H48.8887Z" fill="white"/>
<path fill-rule="evenodd" clip-rule="evenodd" d="M48.8945 46.8359C48.9408 46.8647 49.0044 46.9166 49.0911 46.9799C49.0622 46.9741 48.9234 46.8647 48.8945 46.8359Z" fill="white"/>
<path fill-rule="evenodd" clip-rule="evenodd" d="M49.4844 46.6406C49.5248 46.6579 49.6578 46.7903 49.733 46.8537C49.6752 46.8134 49.5422 46.6924 49.4844 46.6406Z" fill="white"/>
<path fill-rule="evenodd" clip-rule="evenodd" d="M49.1387 46.9453C49.2138 46.9856 49.3584 47.1181 49.4393 47.1814C49.4971 47.2563 49.2485 47.0202 49.1387 46.9453Z" fill="white"/>
<path fill-rule="evenodd" clip-rule="evenodd" d="M49.2246 47.082C49.2824 47.1166 49.427 47.2548 49.5426 47.3527C49.4674 47.3008 49.3287 47.1684 49.2246 47.082Z" fill="white"/>
<path fill-rule="evenodd" clip-rule="evenodd" d="M49.8086 46.8008C49.8086 46.8008 49.9358 46.8987 50.0167 46.962C49.9936 46.9563 49.8838 46.8584 49.8086 46.8008Z" fill="white"/>
<path fill-rule="evenodd" clip-rule="evenodd" d="M49.8672 46.9805C49.9655 47.0496 50.2545 47.3432 50.3875 47.4987C50.2083 47.3087 50.0695 47.1762 49.8672 46.9805Z" fill="white"/>
<path fill-rule="evenodd" clip-rule="evenodd" d="M49.5957 47.3984C49.7287 47.5136 49.9079 47.6979 50.0004 47.8188C49.8905 47.6979 49.7287 47.5251 49.5957 47.3984Z" fill="white"/>
<path fill-rule="evenodd" clip-rule="evenodd" d="M50.0508 47.5938C50.1028 47.6398 50.178 47.7262 50.2473 47.801C50.2473 47.8298 50.1317 47.6801 50.0508 47.5938Z" fill="white"/>
<path fill-rule="evenodd" clip-rule="evenodd" d="M50.2246 47.8555C50.2824 47.9131 50.3345 47.9706 50.4038 48.0685C50.3171 47.9649 50.2766 47.9131 50.2246 47.8555Z" fill="white"/>
<path fill-rule="evenodd" clip-rule="evenodd" d="M50.375 48.1172C50.4039 48.1402 50.5658 48.3533 50.5138 48.3187C50.4675 48.2611 50.4791 48.2611 50.4848 48.2554C50.4386 48.1863 50.4328 48.1978 50.375 48.1172Z" fill="white"/>
<path fill-rule="evenodd" clip-rule="evenodd" d="M51.0459 48.5811C50.7915 48.155 50.9361 48.4371 51.0459 48.5811V48.5811Z" fill="white"/>
<path fill-rule="evenodd" clip-rule="evenodd" d="M51.3633 48.8789C51.4384 49.0171 51.4905 49.1668 51.5541 49.3453C51.5078 49.2359 51.398 48.948 51.3633 48.8789Z" fill="white"/>
<path fill-rule="evenodd" clip-rule="evenodd" d="M51.4383 48.9841C51.4268 48.9265 51.5424 49.2202 51.5077 49.1626L51.4383 48.9841Z" fill="white"/>
<path fill-rule="evenodd" clip-rule="evenodd" d="M51.7695 49.2539C51.7984 49.3057 51.8331 49.4324 51.8563 49.5303C51.8389 49.5015 51.7811 49.3 51.7695 49.2539Z" fill="white"/>
<path fill-rule="evenodd" clip-rule="evenodd" d="M51.9766 50.375C51.9997 50.8357 52.0113 50.7147 51.9766 50.375V50.375Z" fill="white"/>
<path fill-rule="evenodd" clip-rule="evenodd" d="M46.3516 44.4805C46.4094 44.4977 46.4845 44.5323 46.525 44.5381C46.6233 44.5956 46.8141 44.6705 46.947 44.7453C46.7736 44.682 46.6002 44.5726 46.3516 44.4805Z" fill="white"/>
<path fill-rule="evenodd" clip-rule="evenodd" d="M49.6182 46.8473C49.6818 46.9049 49.6702 46.9049 49.7512 46.9682C49.7512 46.9797 49.7223 46.9509 49.7165 46.9509C49.8495 47.0718 49.9246 47.1352 50.0345 47.2504C50.0171 47.2388 49.9998 47.2273 49.9998 47.2331C50.1616 47.3598 50.3062 47.5555 50.5837 47.8838C50.3235 47.5613 49.6876 46.9221 49.4043 46.7148C49.4563 46.7321 49.6818 46.9509 49.7165 46.9624C49.7338 46.9624 49.5662 46.83 49.624 46.853L49.6182 46.8473Z" fill="white"/>
<path fill-rule="evenodd" clip-rule="evenodd" d="M49.6417 47.3705C49.6533 47.3705 49.7515 47.4799 49.7631 47.4914C49.7284 47.4626 49.3989 47.1517 49.6359 47.3705H49.6417Z" fill="white"/>
<path fill-rule="evenodd" clip-rule="evenodd" d="M51.1149 49.4561H51.0975C51.1727 49.6692 51.2594 50.0147 51.2594 50.1644C51.2305 49.9053 51.0802 49.364 50.9761 49.2028C50.9645 49.1567 50.9299 49.0876 50.9125 49.0415C50.6292 48.5003 50.2477 47.9532 49.7852 47.5156C50.0338 47.6769 50.3922 48.2181 50.6003 48.4657C50.6292 48.5118 50.6003 48.4657 50.5772 48.4369C50.7333 48.673 50.9703 49.1164 51.1091 49.4561H51.1149Z" fill="white"/>
<path fill-rule="evenodd" clip-rule="evenodd" d="M51.4961 49.0469C51.5366 49.1332 51.5597 49.1851 51.5944 49.2657C51.6059 49.3002 51.5134 49.1275 51.4961 49.0469Z" fill="white"/>
<path fill-rule="evenodd" clip-rule="evenodd" d="M45.6924 57.2802C45.8254 57.2226 46.022 57.1363 46.1607 57.0787C46.525 56.9232 46.8603 56.7908 47.2187 56.6007C47.5367 56.4338 47.8257 56.261 48.1437 56.0652C48.3808 55.927 48.4559 55.8695 48.612 55.7601C49.0629 55.4549 49.4272 55.1842 49.589 55C49.8781 54.7409 50.2192 54.3896 50.4389 54.1247C50.4967 54.0614 50.543 54.0038 50.5603 53.9808C50.832 53.6353 51.0055 53.3128 51.1673 52.9731C51.3234 52.6276 51.4737 52.2591 51.5894 51.7466C51.5894 51.6545 51.5836 51.5278 51.5778 51.4069C51.5778 51.3263 51.6009 51.1535 51.5952 51.0959C51.5605 50.8829 51.4853 51.0556 51.468 50.6814C51.4564 50.6583 51.4506 50.7274 51.4391 50.7447C51.3408 50.7332 51.2483 50.8714 51.1789 50.7792C51.1153 51.0153 51.0806 50.9578 51.0112 51.1305C50.9708 51.2341 50.913 51.4414 50.8436 51.5681C50.78 51.7121 50.6933 51.8618 50.6181 51.9712C50.595 51.9597 50.5083 52.1382 50.462 52.1612C50.3406 52.3685 50.2192 52.5125 50.0689 52.7082C50.0458 52.7197 50.0053 52.7658 49.9937 52.7601C49.6469 53.1458 49.2422 53.4913 48.6583 53.9347C48.6062 53.975 48.4906 54.0614 48.427 54.1075C47.9992 54.4414 47.2534 54.8675 46.9759 54.9654C46.8892 55.0115 46.8892 55.0115 46.8025 55.0633C46.7389 55.0806 46.4614 55.1785 46.2243 55.2879C46.1434 55.3282 46.0162 55.4146 45.837 55.4952C45.5768 55.6219 45.3051 55.691 45.0623 55.7888C44.9524 55.8349 44.8426 55.904 44.7212 55.9501C44.4206 56.0768 43.7788 56.2783 43.5129 56.3474C43.299 56.405 43.2181 56.405 43.062 56.4568C42.9174 56.5029 42.8134 56.5489 42.8365 56.572C42.4376 56.7562 41.3391 56.9577 40.6916 57.1017C40.206 57.1708 39.7493 57.2802 39.281 57.3435C39.1943 57.3493 39.0613 57.3666 38.9804 57.3723C38.8185 57.3896 38.6103 57.4357 38.4022 57.4587C38.038 57.499 37.7778 57.5278 37.4483 57.5681C36.9974 57.5681 36.6678 57.6315 36.292 57.6487C36.1475 57.6602 36.0088 57.6487 35.8527 57.6487C35.7313 57.6545 35.5752 57.666 35.4422 57.6718C35.2977 57.6775 35.1416 57.666 35.0028 57.6718C34.9103 57.6718 34.8063 57.6775 34.7253 57.6833C34.627 57.6833 34.5288 57.6833 34.4189 57.6775C34.3206 57.6775 34.1356 57.689 34.0373 57.689C33.5691 57.689 33.0719 57.6545 32.6325 57.666C31.8404 57.6027 31.1525 57.5854 30.2217 57.453C29.9904 57.4299 29.817 57.4126 29.58 57.3781C29.5279 57.3781 29.5221 57.3781 29.4412 57.3666C28.9614 57.286 28.4526 57.2341 27.9612 57.1247C27.9438 57.1247 27.9207 57.1247 27.8918 57.1247C27.1807 56.9578 26.4638 56.785 25.8395 56.6411C25.4405 56.5086 24.9665 56.3877 24.4808 56.2207C24.2612 56.1343 24.0357 56.0537 23.816 55.9731C23.3997 55.8234 22.8679 55.5873 22.4863 55.403C22.3707 55.3512 22.255 55.3109 22.1452 55.2533C21.9486 55.1497 21.7405 55.0345 21.5324 54.9194C20.723 54.4933 19.9021 53.8483 19.3817 53.284C19.2256 53.1055 19.0811 52.9673 18.925 52.7601C18.6649 52.4146 18.4741 52.023 18.3411 51.6315C18.3122 51.5451 18.2775 51.4299 18.2486 51.3493C18.1966 51.1132 18.1734 50.8829 18.1792 50.6238C18.185 50.0019 18.3816 49.3743 18.7342 48.856C18.9308 48.5105 19.243 48.1132 19.6246 47.7505C20.0061 47.3877 20.4513 47.0537 20.8618 46.7773C21.041 46.6391 21.226 46.5355 21.4225 46.4203C22.0296 46.0518 22.8563 45.6315 23.5674 45.3666C26.5274 44.1459 29.9037 43.6334 33.0892 43.4664C33.3378 43.4721 33.7252 43.4491 33.9506 43.4376C33.9969 43.4491 34.1472 43.4434 34.257 43.4491C34.6559 43.4203 35.1647 43.4491 35.6677 43.4549C35.7949 43.4376 36.1013 43.4549 36.292 43.4549C36.373 43.4721 36.1822 43.4549 36.321 43.4779C36.6505 43.4491 37.7547 43.5412 38.2519 43.5931C38.2172 43.5931 38.2114 43.5816 38.2519 43.5873C38.3675 43.6103 38.4311 43.5931 38.5641 43.6103C39.4602 43.714 40.1077 43.7658 40.8651 43.8925C40.9576 43.9155 41.2062 43.9904 41.2987 43.9904C41.1599 43.9616 40.9922 43.927 41.0038 43.9098C41.2293 43.9616 41.5299 44.0134 41.686 44.0307C41.9635 44.094 42.108 44.1401 42.3566 44.1804C42.4202 44.1977 42.3046 44.1459 42.4318 44.1804C42.8191 44.2956 43.0215 44.3186 43.3626 44.4338C43.4666 44.4453 43.8771 44.5547 43.9927 44.6123C44.1084 44.6411 43.8771 44.5604 43.9696 44.5835C44.2818 44.6756 44.5709 44.7677 44.8484 44.8829C44.9235 44.9002 44.9698 44.9059 45.0854 44.9462C45.1606 44.975 45.0565 44.952 45.1721 44.9923C45.282 45.0268 45.097 44.9405 45.1259 44.9405C45.282 44.9923 45.2531 44.975 45.334 44.9923C45.5421 45.0844 45.6982 45.119 45.889 45.1996C46.0856 45.2802 46.3053 45.3781 46.4903 45.4645C46.6521 45.5393 46.7273 45.5566 46.9065 45.643C47.0337 45.7121 47.184 45.7984 47.3228 45.8791C47.4095 45.9194 47.2707 45.8387 47.3921 45.9021C47.9472 46.2073 48.4733 46.5528 48.8606 46.8119C48.2709 46.4088 47.8373 46.1094 47.2765 45.833C47.2014 45.7754 47.0221 45.7121 46.947 45.6487C46.9065 45.6372 47.0279 45.7121 46.9065 45.6487C46.8661 45.6257 46.8545 45.6142 46.7851 45.5854C46.8776 45.6027 46.7562 45.5451 46.7157 45.5105C46.2301 45.2802 45.8428 45.119 45.4092 44.952C45.3282 44.9232 45.4612 44.9865 45.3687 44.952C45.201 44.8887 45.0796 44.8368 44.8773 44.7735C44.8253 44.7389 44.6923 44.6814 44.7732 44.6871C45.3629 44.8944 46.1665 45.1823 46.8371 45.5163C47.0395 45.6142 47.2361 45.7409 47.369 45.7812C47.0684 45.6315 46.8429 45.4817 46.577 45.3551C46.2359 45.1881 45.8601 45.0499 45.5132 44.9117C45.4323 44.8771 45.3629 44.8483 45.2935 44.8138C45.2357 44.7965 45.0912 44.7447 45.0276 44.7274C44.9409 44.6986 44.9409 44.6871 44.8715 44.6641C44.7385 44.6238 44.5824 44.572 44.4379 44.5259C44.1604 44.4338 43.8945 44.3301 43.5823 44.2437C43.5302 44.2207 43.5591 44.2092 43.6285 44.2265C43.9927 44.3301 44.0563 44.3589 44.4263 44.4741C44.3859 44.4568 44.3627 44.4453 44.3685 44.4395C44.4842 44.4798 44.5188 44.4913 44.5998 44.5144C44.3281 44.4222 44.357 44.405 44.461 44.4222C45.1432 44.6526 45.9699 44.9693 46.5018 45.2341C46.5654 45.2572 46.6059 45.2629 46.7042 45.3032C47.3112 45.5854 47.9645 45.9539 48.56 46.357C47.9009 45.8733 47.1378 45.4702 46.2648 45.0902C46.2301 45.0729 46.2648 45.0729 46.1781 45.0384C45.8023 44.8829 45.3629 44.7102 45.0681 44.6065C44.9467 44.5432 44.8253 44.4856 44.7038 44.4222C43.7557 44.1113 43.0735 43.8522 42.1427 43.6276C42.1485 43.6161 42.0791 43.5988 42.0502 43.5816C42.1254 43.5873 42.1832 43.5873 42.2699 43.5988C42.4202 43.6334 42.5821 43.6622 42.7151 43.7082C43.5071 43.8695 44.5998 44.2265 45.5479 44.5777C45.6693 44.6065 45.5826 44.5547 45.5132 44.5086C45.0623 44.3186 44.6345 44.1977 44.1546 44.0192C43.9927 43.9155 44.1893 43.9443 44.5709 44.0652C45.201 44.261 46.259 44.6986 46.6464 44.8944C47.5367 45.2975 48.3981 45.7697 49.1901 46.3685C49.9822 46.9731 50.728 47.6929 51.2425 48.6372C50.6759 47.5835 49.855 46.8637 49.0572 46.2476C49.0572 46.2591 49.0225 46.2361 48.9589 46.19C48.1553 45.5969 47.184 45.0902 46.392 44.7562C46.074 44.5835 45.4207 44.3531 45.0854 44.2092C45.1895 44.1977 45.4728 44.2783 45.8312 44.4107C45.4728 44.2668 45.1432 44.1286 44.8368 44.0192C44.5882 43.927 44.1488 43.8061 44.0217 43.7543C43.9927 43.7428 44.0563 43.7543 43.9927 43.7313C44.0968 43.7601 43.8077 43.6794 43.7846 43.6737C43.6459 43.6391 43.669 43.6506 43.5071 43.5988C43.299 43.5355 43.299 43.5355 43.1718 43.4894C42.4434 43.2821 41.7265 43.1439 40.9922 42.9885C40.9113 42.9769 40.761 42.9482 40.7494 42.9424C40.6801 42.9251 40.7437 42.9309 40.6511 42.9136C40.5991 42.9021 40.6222 42.9136 40.5413 42.9021C40.2522 42.8445 39.9227 42.7984 39.6336 42.7524C38.911 42.6545 38.0496 42.5393 37.4541 42.5048C37.3211 42.4933 37.4946 42.4933 37.3211 42.476C36.2978 42.3896 35.2109 42.3435 34.1125 42.3493C34.0316 42.3493 34.0952 42.332 33.9737 42.332C33.8234 42.332 33.8581 42.3493 33.7252 42.3493C33.6384 42.3493 33.5633 42.3378 33.517 42.332C32.2567 42.3493 30.9559 42.4645 29.6667 42.6372C28.4642 42.8042 27.2617 43.023 26.1459 43.3109C25.2613 43.5355 24.4288 43.8119 23.6599 44.0825C22.6308 44.4741 21.7579 44.8714 20.856 45.4011C20.2027 45.7812 19.5147 46.2591 19.0349 46.7025C18.9539 46.7773 18.8556 46.8695 18.7631 46.9673C18.6244 47.1113 18.4683 47.238 18.3411 47.3935C17.9827 47.7965 17.6647 48.2687 17.4277 48.7812C17.1559 49.3455 16.9998 49.9616 16.9883 50.595C16.9883 50.7735 17.0056 50.9462 17.0172 51.1247C17.0519 51.2975 17.075 51.4702 17.1155 51.6372C17.1733 51.8618 17.2311 52.0979 17.3294 52.3167C17.5838 52.9386 17.9827 53.4798 18.3816 53.929C18.9135 54.5393 19.5378 55.0691 20.2085 55.4894C20.9311 55.9846 21.8677 56.4683 22.6251 56.785C23.2263 57.0787 23.8854 57.2975 24.5965 57.5278C24.6543 57.5508 24.7294 57.5796 24.793 57.6027C25.8684 57.9654 27.1056 58.2015 28.0017 58.3858C28.3428 58.4261 28.626 58.5009 28.944 58.5528C29.2851 58.6161 29.6031 58.6391 29.9326 58.6794C30.0251 58.6967 30.1465 58.714 30.2448 58.7255C30.5801 58.7601 30.9039 58.7888 31.2681 58.8119C31.8173 58.8579 32.4012 58.927 33.0314 58.927C33.517 58.9616 34.2397 58.9904 34.7947 58.9674C35.737 58.9904 36.691 58.9155 37.6564 58.8407C37.986 58.8234 38.2808 58.8061 38.6104 58.7543C38.9514 58.737 39.3561 58.6737 39.7666 58.6161C40.1771 58.5585 40.5991 58.5009 41.0269 58.4261C41.634 58.3167 42.374 58.1324 42.8365 58.0576C43.062 58.0921 43.4262 57.8618 43.9002 57.7351C44.1546 57.6775 44.1315 57.7121 44.2471 57.7063C44.4726 57.643 44.6807 57.5739 44.8946 57.4875C45.149 57.4011 45.3456 57.3839 45.6809 57.2514L45.6924 57.2802ZM44.0506 44.5259C44.0506 44.5259 44.0506 44.5316 44.0795 44.5432C44.0043 44.5432 43.8598 44.4626 44.0506 44.5259ZM44.1199 44.5432C44.3974 44.6238 44.779 44.7447 44.9698 44.8311C45.0218 44.8483 44.9293 44.7908 45.016 44.8196C45.1317 44.8656 45.2589 44.929 45.4554 45.0096C45.4554 45.0441 45.0738 44.8714 45.0449 44.8944C44.8946 44.8368 44.8195 44.808 44.7443 44.7965C44.4379 44.6698 44.357 44.6698 44.1257 44.5835C44.1951 44.5835 44.0852 44.5547 44.1142 44.5432H44.1199Z" fill="white"/>
<path fill-rule="evenodd" clip-rule="evenodd" d="M36.0039 51.6445C36.0039 51.6445 36.0559 51.6445 36.0906 51.6445C36.0791 51.6503 36.0328 51.656 36.0039 51.6445Z" fill="white"/>
<path fill-rule="evenodd" clip-rule="evenodd" d="M37.1016 52.918C37.1016 52.918 37.2056 52.9237 37.1941 52.941C37.1536 52.9352 37.1363 52.9237 37.1016 52.918Z" fill="white"/>
<path fill-rule="evenodd" clip-rule="evenodd" d="M37.2285 52.9688C37.2285 52.9688 37.2921 52.9803 37.321 52.986C37.321 52.9975 37.2459 52.9803 37.2285 52.9688Z" fill="white"/>
<path fill-rule="evenodd" clip-rule="evenodd" d="M37.6328 52.8945C37.6328 52.8945 37.7022 52.906 37.7253 52.9176C37.7195 52.9233 37.6617 52.9003 37.6328 52.8945Z" fill="white"/>
<path fill-rule="evenodd" clip-rule="evenodd" d="M37.7539 53.1094C37.7886 53.1094 37.8406 53.1209 37.91 53.1439C37.8811 53.1439 37.8117 53.1266 37.7539 53.1094Z" fill="white"/>
<path fill-rule="evenodd" clip-rule="evenodd" d="M38.4609 52.418C38.5477 52.4468 38.7211 52.4871 38.7731 52.5274C38.6748 52.4813 38.5534 52.4583 38.4609 52.418Z" fill="white"/>
<path fill-rule="evenodd" clip-rule="evenodd" d="M38.5586 52.8477C38.6684 52.8592 38.8361 52.9513 38.9691 52.9916C38.9806 53.0146 38.7841 52.9168 38.7436 52.9168C38.7263 52.911 38.6973 52.8937 38.6684 52.8822C38.6337 52.8707 38.5933 52.8707 38.5644 52.8477H38.5586Z" fill="white"/>
<path fill-rule="evenodd" clip-rule="evenodd" d="M39.7148 53.4365C39.7148 53.4365 39.7264 53.425 39.7611 53.448C39.7669 53.4537 39.7669 53.4653 39.7611 53.4653L39.7148 53.4365Z" fill="white"/>
<path fill-rule="evenodd" clip-rule="evenodd" d="M40.2402 53.619C40.3212 53.6536 40.483 53.7745 40.5524 53.8666C40.564 53.8724 40.5698 53.8666 40.5871 53.8897C40.6391 53.9357 40.7374 54.0394 40.6334 53.9415C40.4946 53.8263 40.4021 53.7227 40.2402 53.6133V53.619Z" fill="white"/>
<path fill-rule="evenodd" clip-rule="evenodd" d="M40.1719 53.8164C40.1719 53.8164 40.2181 53.8394 40.2528 53.8682C40.2413 53.8682 40.1834 53.8279 40.1719 53.8164Z" fill="white"/>
<path fill-rule="evenodd" clip-rule="evenodd" d="M40.6055 53.4922C40.6055 53.4922 40.6806 53.5555 40.7153 53.5843C40.6864 53.567 40.6344 53.5152 40.6055 53.4922Z" fill="white"/>
<path fill-rule="evenodd" clip-rule="evenodd" d="M40.293 53.8281C40.3277 53.8396 40.3855 53.8915 40.4202 53.9145C40.4375 53.9548 40.3392 53.8512 40.293 53.8281Z" fill="white"/>
<path fill-rule="evenodd" clip-rule="evenodd" d="M40.3105 53.9102C40.3105 53.9102 40.3915 53.9735 40.4377 54.0138C40.403 53.9965 40.351 53.9447 40.3105 53.9102Z" fill="white"/>
<path fill-rule="evenodd" clip-rule="evenodd" d="M40.7852 53.5234C40.7852 53.5234 40.843 53.5637 40.8777 53.5925C40.8603 53.5925 40.8141 53.5465 40.7852 53.5234Z" fill="white"/>
<path fill-rule="evenodd" clip-rule="evenodd" d="M40.7676 53.6445C40.8138 53.6733 40.941 53.7885 40.993 53.8633C40.8659 53.7424 40.8427 53.7194 40.7676 53.6445Z" fill="white"/>
<path fill-rule="evenodd" clip-rule="evenodd" d="M40.4551 54.0273C40.5187 54.0619 40.588 54.1367 40.617 54.1886C40.5707 54.1425 40.5129 54.0734 40.4551 54.0273Z" fill="white"/>
<path fill-rule="evenodd" clip-rule="evenodd" d="M40.7207 54.0234C40.7207 54.0234 40.7727 54.0753 40.8016 54.1041C40.7959 54.1213 40.7496 54.058 40.7207 54.0234Z" fill="white"/>
<path fill-rule="evenodd" clip-rule="evenodd" d="M40.7676 54.1484C40.7676 54.1484 40.8138 54.1945 40.8427 54.2348C40.8312 54.2348 40.7907 54.1715 40.7676 54.1484Z" fill="white"/>
<path fill-rule="evenodd" clip-rule="evenodd" d="M40.8066 54.2773C40.8066 54.2773 40.8934 54.3637 40.8587 54.358C40.8413 54.3349 40.8471 54.3349 40.8529 54.3292C40.8355 54.3004 40.8298 54.3119 40.8066 54.2773Z" fill="white"/>
<path fill-rule="evenodd" clip-rule="evenodd" d="M41.2354 54.3699C41.1371 54.1799 41.1833 54.3066 41.2354 54.3699V54.3699Z" fill="white"/>
<path fill-rule="evenodd" clip-rule="evenodd" d="M41.4492 54.4688C41.4897 54.5263 41.507 54.6012 41.5302 54.6818C41.507 54.6357 41.4666 54.4975 41.4492 54.4688Z" fill="white"/>
<path fill-rule="evenodd" clip-rule="evenodd" d="M41.4961 54.5079C41.4961 54.4791 41.5481 54.6173 41.525 54.5942L41.4961 54.5079Z" fill="white"/>
<path fill-rule="evenodd" clip-rule="evenodd" d="M41.75 54.5977C41.75 54.5977 41.7905 54.684 41.802 54.7301C41.7905 54.7186 41.7558 54.6207 41.75 54.5977Z" fill="white"/>
<path fill-rule="evenodd" clip-rule="evenodd" d="M41.8418 55.1523C41.8591 55.3827 41.8765 55.3193 41.8418 55.1523V55.1523Z" fill="white"/>
<path fill-rule="evenodd" clip-rule="evenodd" d="M39.3613 52.4531C39.3613 52.4531 39.4191 52.4704 39.4364 52.4704C39.4711 52.4992 39.5578 52.528 39.6098 52.5625C39.5347 52.5395 39.4653 52.4877 39.3555 52.4531H39.3613Z" fill="white"/>
<path fill-rule="evenodd" clip-rule="evenodd" d="M40.6332 53.6127C40.6332 53.6127 40.6505 53.6415 40.6852 53.6703C40.6852 53.676 40.6679 53.6703 40.6679 53.6703C40.7199 53.7221 40.7546 53.7509 40.8009 53.7969C40.7951 53.7969 40.7835 53.7912 40.7777 53.7969C40.8587 53.8372 40.9049 53.9351 41.0206 54.0733C40.9049 53.9351 40.639 53.6703 40.5176 53.5781C40.5465 53.5781 40.6332 53.676 40.6563 53.676C40.6679 53.6703 40.5985 53.6184 40.6274 53.6184L40.6332 53.6127Z" fill="white"/>
<path fill-rule="evenodd" clip-rule="evenodd" d="M40.4943 53.9941C40.5059 53.9941 40.5406 54.0344 40.5464 54.0402C40.529 54.0402 40.4018 53.9077 40.4943 53.9941Z" fill="white"/>
<path fill-rule="evenodd" clip-rule="evenodd" d="M41.102 54.807H41.0846C41.1193 54.8933 41.1598 55.0315 41.1424 55.0891C41.1424 54.9855 41.0673 54.7724 41.0326 54.7091C41.0326 54.6918 41.0152 54.663 41.0095 54.6457C40.8765 54.4442 40.7493 54.2139 40.5527 54.0469C40.6741 54.0872 40.784 54.3348 40.8938 54.4096C40.8996 54.4269 40.8938 54.4096 40.8823 54.3981C40.9343 54.496 41.0441 54.6688 41.0962 54.8012L41.102 54.807Z" fill="white"/>
<path fill-rule="evenodd" clip-rule="evenodd" d="M41.541 54.5312C41.541 54.5312 41.5757 54.6061 41.593 54.6349C41.593 54.6522 41.5468 54.5716 41.541 54.5312Z" fill="white"/>
<path fill-rule="evenodd" clip-rule="evenodd" d="M39.1134 58.3824C39.1481 58.3651 39.2695 58.3075 39.31 58.2845C39.466 58.2211 39.6106 58.1751 39.7609 58.0887C39.8939 58.0139 40.0153 57.939 40.1482 57.8411C40.2523 57.7778 40.2812 57.749 40.3448 57.7029C40.5356 57.5705 40.6975 57.438 40.7553 57.3517C40.8709 57.2307 41.0154 57.0522 41.1079 56.9371C41.1484 56.8853 41.1484 56.8853 41.16 56.868C41.2583 56.6895 41.3392 56.5513 41.3854 56.3728C41.4143 56.2806 41.4433 56.1943 41.4664 56.1137C41.4895 55.9927 41.5126 55.8833 41.53 55.7912C41.5184 55.7451 41.4953 55.6818 41.4779 55.63C41.4722 55.5954 41.4722 55.5148 41.4606 55.486C41.4201 55.3939 41.3508 55.463 41.3276 55.3018C41.3161 55.2902 41.3103 55.319 41.2987 55.3305C41.2004 55.3305 41.1137 55.3766 41.0386 55.3421C40.9807 55.4284 40.9345 55.4054 40.8825 55.463C40.8536 55.4975 40.8247 55.5666 40.7784 55.6012C40.7322 55.6472 40.6917 55.6876 40.657 55.7163C40.6339 55.7048 40.5992 55.7624 40.5703 55.7624C40.5182 55.8085 40.4547 55.8718 40.4084 55.9236C40.3968 55.9236 40.3795 55.9352 40.3679 55.9294C40.2234 56.0388 40.0615 56.1252 39.8476 56.2691C39.8245 56.2864 39.784 56.3152 39.7609 56.3267C39.6164 56.4476 39.3331 56.5916 39.2232 56.6089C39.1885 56.6204 39.1943 56.6319 39.1596 56.6434C39.1307 56.6377 39.0151 56.6549 38.9342 56.6952C38.9053 56.7125 38.8648 56.7586 38.8012 56.7874C38.7029 56.8334 38.5931 56.8449 38.5064 56.8853C38.4659 56.9083 38.4312 56.9428 38.3849 56.9659C38.2693 57.0177 38.0323 57.0925 37.9282 57.1156C37.8473 57.1329 37.8126 57.1213 37.749 57.1444C37.697 57.1616 37.6565 57.1962 37.6738 57.225C37.5351 57.3401 37.1015 57.3805 36.8587 57.4553C36.6679 57.4611 36.5002 57.5359 36.3152 57.5532C36.2921 57.5532 36.2227 57.5532 36.1996 57.5532C36.136 57.559 36.0551 57.582 35.9799 57.5993C35.8296 57.6223 35.7776 57.6281 35.6157 57.6511C35.4365 57.6223 35.3151 57.6799 35.1648 57.6856C35.1127 57.6856 35.0549 57.6799 34.9913 57.6799C34.9393 57.6799 34.8873 57.6914 34.8294 57.6914C34.7716 57.6914 34.7138 57.6799 34.656 57.6799C34.6271 57.6799 34.5751 57.6856 34.5519 57.6914C34.5057 57.6914 34.4826 57.6856 34.4363 57.6856C34.3901 57.6856 34.338 57.7029 34.2918 57.7029C34.1126 57.7029 33.916 57.6856 33.7483 57.7029C33.4419 57.6568 33.1702 57.6856 32.8176 57.6108C32.725 57.6108 32.6615 57.6108 32.569 57.5877C32.5458 57.5877 32.5458 57.5993 32.5169 57.5877C32.3319 57.5417 32.1296 57.5474 31.9446 57.4956C31.9388 57.4956 31.9272 57.4956 31.9157 57.4956C31.6613 57.4208 31.3318 57.3459 31.1294 57.3056C30.9791 57.248 30.7941 57.2135 30.6091 57.1444C30.5339 57.1156 30.4472 57.081 30.3547 57.0465C30.1986 56.9889 29.9905 56.9025 29.8517 56.8334C29.8286 56.8219 29.7477 56.7931 29.7188 56.7816C29.6436 56.7471 29.5627 56.701 29.4933 56.6549C29.1811 56.511 28.9036 56.2634 28.7128 56.0734C28.6608 56.01 28.6145 55.9697 28.5509 55.9006C28.47 55.7912 28.4064 55.6588 28.3775 55.5436C28.3659 55.5148 28.3486 55.4918 28.337 55.463C28.3313 55.3824 28.3255 55.3248 28.3197 55.2557C28.3313 55.0829 28.3602 54.8872 28.4874 54.7259C28.5972 54.4899 28.921 54.1962 29.2216 53.9889C29.2794 53.9256 29.3603 53.9025 29.4297 53.8565C29.6494 53.7125 29.9616 53.5398 30.2333 53.4476C31.3549 52.9639 32.6788 52.7624 33.9218 52.676C34.0201 52.6876 34.1704 52.676 34.2571 52.6645C34.2744 52.676 34.3323 52.6703 34.3785 52.676C34.5346 52.6472 34.7312 52.676 34.9277 52.676C34.9798 52.653 35.0954 52.676 35.1705 52.6588C35.1994 52.676 35.1243 52.6703 35.1821 52.6818C35.3093 52.6472 35.7429 52.6876 35.9395 52.7048C35.9279 52.7048 35.9221 52.6933 35.9395 52.6991C35.9857 52.7163 36.0088 52.6991 36.0609 52.6991C36.4135 52.7279 36.6679 52.7336 36.9685 52.7624C37.0032 52.7739 37.1015 52.82 37.1362 52.8085C37.0842 52.7912 37.0148 52.7797 37.0263 52.7624C37.1131 52.7854 37.2345 52.8027 37.2923 52.8027C37.4021 52.8258 37.4542 52.8488 37.5582 52.8545C37.5813 52.8545 37.5409 52.8315 37.5929 52.843C37.7432 52.8948 37.8242 52.9006 37.9571 52.9467C38.0034 52.9409 38.1653 52.9755 38.2057 53.0043C38.252 53.01 38.1653 52.9755 38.2057 52.9812C38.3271 53.0158 38.4428 53.0503 38.5526 53.0964C38.5815 53.0964 38.6046 53.0964 38.6509 53.1079C38.6798 53.1194 38.6335 53.1194 38.6856 53.1367C38.7318 53.1425 38.6624 53.1079 38.674 53.0964C38.7376 53.1137 38.726 53.0964 38.7607 53.1021C38.8417 53.1482 38.9053 53.1482 38.9804 53.177C39.0614 53.2058 39.1481 53.2403 39.2175 53.2749C39.281 53.3037 39.3157 53.3037 39.3851 53.3382C39.4429 53.367 39.4834 53.4016 39.547 53.4361C39.5817 53.4476 39.5296 53.4131 39.5817 53.4361C39.7956 53.5628 40.0095 53.6837 40.1656 53.7816C39.9286 53.6319 39.7609 53.5052 39.5354 53.4073C39.5123 53.3728 39.4314 53.367 39.4082 53.3267C39.3909 53.3267 39.4371 53.3613 39.3851 53.3325C39.3678 53.321 39.3678 53.3152 39.3389 53.3037C39.3793 53.3037 39.3331 53.2749 39.3215 53.2519C39.1365 53.154 38.9689 53.1079 38.8012 53.0388C38.7665 53.033 38.8185 53.0618 38.7839 53.0503C38.7203 53.0273 38.6682 53.0043 38.5873 52.9812C38.5699 52.9582 38.5179 52.9352 38.5526 52.9236C38.7839 53.01 39.1134 53.1021 39.3793 53.2346C39.4603 53.2749 39.5354 53.3325 39.5932 53.3325C39.4718 53.2806 39.3851 53.2058 39.2868 53.154C39.1539 53.0791 38.992 53.0503 38.859 52.987C38.8185 52.9697 38.807 52.9582 38.7723 52.9409C38.7434 52.9294 38.6971 52.9236 38.6624 52.9121C38.6278 52.9006 38.6278 52.8891 38.5989 52.8833C38.541 52.8661 38.489 52.8603 38.4254 52.8373C38.3156 52.8027 38.2115 52.7451 38.0901 52.7163C38.067 52.7048 38.0901 52.6876 38.1132 52.6933C38.2578 52.7336 38.2809 52.7451 38.4312 52.7912C38.4138 52.7854 38.4081 52.7797 38.4081 52.7739C38.4543 52.7912 38.4659 52.8027 38.5006 52.8027C38.3907 52.7682 38.4081 52.7394 38.4543 52.7394C38.726 52.8315 39.0614 52.9582 39.2695 53.0618C39.2984 53.0618 39.3157 53.0618 39.3562 53.0791C39.6048 53.1828 39.8592 53.344 40.1078 53.4995C39.8476 53.2922 39.5354 53.1367 39.1828 52.987C39.1712 52.9755 39.1828 52.9697 39.1481 52.9582C38.992 52.9064 38.8185 52.8258 38.7029 52.7912C38.6567 52.7567 38.6104 52.7221 38.5642 52.6876C38.1826 52.5666 37.9167 52.4284 37.5409 52.3363C37.5409 52.3248 37.5177 52.3133 37.5062 52.3018C37.5409 52.3018 37.564 52.2902 37.5987 52.2902C37.6623 52.3018 37.7259 52.3075 37.7779 52.3363C38.1017 52.3824 38.541 52.5378 38.9284 52.676C38.9804 52.676 38.9515 52.6472 38.9284 52.6185C38.7492 52.5321 38.5642 52.5091 38.3734 52.4169C38.3156 52.3478 38.4023 52.3421 38.5584 52.3939C38.8185 52.4687 39.2521 52.6588 39.414 52.7336C39.784 52.9006 40.1482 53.0849 40.4836 53.344C40.8189 53.5916 41.1484 53.9025 41.3854 54.3344C41.1368 53.8507 40.7726 53.5513 40.4373 53.2864C40.4373 53.2922 40.42 53.2864 40.3911 53.2691C40.0557 53.0158 39.6453 52.8027 39.3157 52.676C39.1885 52.5954 38.9168 52.5091 38.7839 52.4342C38.8359 52.3996 38.9573 52.4227 39.1076 52.4745C38.9573 52.4112 38.8243 52.3478 38.6971 52.3075C38.5931 52.273 38.4139 52.2211 38.3618 52.1981C38.3503 52.1924 38.3792 52.1924 38.3503 52.1808C38.3907 52.1924 38.2751 52.1636 38.2635 52.1578C38.2057 52.1463 38.2173 52.1578 38.1479 52.1348C38.0612 52.1117 38.0612 52.106 38.0092 52.0829C37.7143 51.9851 37.4137 51.9505 37.1188 51.8757C37.0842 51.8699 37.0263 51.8584 37.0206 51.8584C36.9917 51.8526 37.0206 51.8469 36.9801 51.8411C36.957 51.8411 36.9685 51.8469 36.9338 51.8411C36.8066 51.8181 36.6737 51.795 36.5638 51.772C36.269 51.7375 35.9163 51.6799 35.6735 51.6684C35.6215 51.6626 35.6909 51.6511 35.6215 51.6453C35.2052 51.5993 34.7601 51.582 34.3091 51.5762C34.2744 51.5762 34.3033 51.559 34.2513 51.559C34.1877 51.559 34.2051 51.5762 34.1472 51.5762C34.1126 51.5762 34.0779 51.5647 34.0605 51.559C33.546 51.5532 33.0141 51.6165 32.488 51.6856C31.9966 51.7547 31.5052 51.8526 31.0427 51.9678C30.6785 52.0657 30.3374 52.1866 30.0136 52.2902C29.5916 52.463 29.2216 52.6242 28.84 52.8545C28.5625 53.0158 28.2619 53.2173 28.0538 53.4188C28.0306 53.4419 27.9613 53.5167 27.9381 53.5398C27.8745 53.6031 27.7994 53.6492 27.7416 53.724C27.6606 53.8219 27.5855 53.9198 27.5161 54.0234C27.4467 54.1501 27.3831 54.2653 27.3311 54.3689C27.2675 54.5014 27.227 54.6511 27.1808 54.7893C27.1461 54.9332 27.1345 55.0887 27.1172 55.2384C27.1172 55.4112 27.1519 55.5781 27.1866 55.7394C27.2213 55.843 27.2444 55.9582 27.2848 56.0676C27.4063 56.3613 27.597 56.6031 27.7763 56.8104C27.8919 56.9486 28.0249 57.0638 28.152 57.1904C28.2908 57.2941 28.4238 57.4035 28.5741 57.4899C28.8805 57.7029 29.2736 57.9102 29.5916 58.0369C29.8344 58.1808 30.1177 58.2499 30.4067 58.3478C30.4241 58.3536 30.4646 58.3766 30.4877 58.3824C30.9328 58.5378 31.4416 58.6185 31.8116 58.7048C31.9561 58.7048 32.066 58.7509 32.199 58.7739C32.3377 58.8027 32.4707 58.8027 32.6036 58.82C32.6325 58.82 32.7019 58.8373 32.7308 58.843C32.8638 58.8603 33.0026 58.8718 33.1529 58.8718C33.3783 58.8833 33.6154 58.9409 33.8697 58.9236C34.0663 58.9409 34.3612 58.9755 34.5924 58.9467C34.9798 58.9755 35.3671 58.9179 35.7602 58.9006C35.8932 58.9006 36.0146 58.9006 36.1476 58.8661C36.2863 58.8661 36.454 58.843 36.6216 58.82C36.7662 58.8027 36.9801 58.7739 37.142 58.7509C37.3906 58.7048 37.697 58.6242 37.8935 58.6185C38.0034 58.6818 38.1306 58.5091 38.3329 58.4745C38.4428 58.463 38.437 58.4918 38.489 58.5033C38.5873 58.486 38.674 58.4457 38.7607 58.4112C38.8706 58.3824 38.9631 58.3996 39.1018 58.3421L39.1134 58.3824ZM38.252 52.9409C38.252 52.9409 38.252 52.9467 38.2635 52.9524C38.2288 52.9639 38.1768 52.9121 38.252 52.9409ZM38.2809 52.9409C38.3907 52.9755 38.5468 53.01 38.6162 53.0503C38.6393 53.0561 38.6046 53.0215 38.6393 53.0273C38.6798 53.0503 38.7318 53.0791 38.807 53.1137C38.8012 53.1482 38.6567 53.0618 38.6393 53.0906C38.5815 53.0676 38.5526 53.0561 38.5179 53.0618C38.3965 53.01 38.3618 53.0215 38.2751 52.9755C38.304 52.9639 38.2635 52.9582 38.2751 52.9409H38.2809Z" fill="white"/>
<path fill-rule="evenodd" clip-rule="evenodd" d="M37.3789 46.0234C37.4136 46.0234 37.4772 46.0234 37.5466 46.035C37.5292 46.0407 37.4367 46.035 37.3789 46.0234Z" fill="white"/>
<path fill-rule="evenodd" clip-rule="evenodd" d="M39.6406 47.4766C39.6869 47.4766 39.8372 47.5054 39.8198 47.5226C39.7331 47.5054 39.7042 47.4938 39.6406 47.4766Z" fill="white"/>
<path fill-rule="evenodd" clip-rule="evenodd" d="M39.8887 47.5586C39.8887 47.5586 40.0159 47.5874 40.0679 47.5931C40.0679 47.6047 39.9176 47.5701 39.8887 47.5586Z" fill="white"/>
<path fill-rule="evenodd" clip-rule="evenodd" d="M40.6465 47.5586C40.687 47.5586 40.7852 47.5874 40.8257 47.6047C40.8084 47.6047 40.6985 47.5701 40.6465 47.5586Z" fill="white"/>
<path fill-rule="evenodd" clip-rule="evenodd" d="M40.9238 47.8164C40.9874 47.8222 41.0915 47.851 41.2302 47.8913C41.1782 47.8913 41.0337 47.8452 40.9238 47.8164Z" fill="white"/>
<path fill-rule="evenodd" clip-rule="evenodd" d="M42.0625 47.25C42.2186 47.3018 42.5481 47.3997 42.658 47.4573C42.4672 47.3824 42.2417 47.3249 42.0625 47.25Z" fill="white"/>
<path fill-rule="evenodd" clip-rule="evenodd" d="M42.3633 47.7519C42.5656 47.7922 42.9009 47.9476 43.1438 48.034C43.1727 48.0686 42.7911 47.89 42.7159 47.8728C42.6697 47.8555 42.6177 47.8325 42.5714 47.8152C42.502 47.7922 42.4327 47.7806 42.3691 47.7461L42.3633 47.7519Z" fill="white"/>
<path fill-rule="evenodd" clip-rule="evenodd" d="M44.6113 48.83C44.6113 48.83 44.6287 48.8242 44.6923 48.8588C44.7096 48.8703 44.7096 48.8818 44.7038 48.8818L44.6113 48.8242V48.83Z" fill="white"/>
<path fill-rule="evenodd" clip-rule="evenodd" d="M45.5547 49.2891C45.6992 49.3697 46.0056 49.6 46.1444 49.767C46.1675 49.7843 46.1733 49.7785 46.208 49.8188C46.3005 49.9052 46.5028 50.101 46.3005 49.9167C46.0519 49.6864 45.8611 49.4964 45.5547 49.2891Z" fill="white"/>
<path fill-rule="evenodd" clip-rule="evenodd" d="M45.5371 49.5195C45.5718 49.5368 45.6238 49.5771 45.6874 49.6232C45.6643 49.6232 45.5545 49.5368 45.5371 49.5195Z" fill="white"/>
<path fill-rule="evenodd" clip-rule="evenodd" d="M46.0684 49.2734C46.103 49.2792 46.2013 49.3886 46.2591 49.4404C46.2129 49.4059 46.1146 49.3137 46.0684 49.2734Z" fill="white"/>
<path fill-rule="evenodd" clip-rule="evenodd" d="M45.7324 49.5898C45.796 49.6186 45.9001 49.7165 45.9637 49.7683C46.0041 49.8317 45.8191 49.6359 45.7324 49.5898Z" fill="white"/>
<path fill-rule="evenodd" clip-rule="evenodd" d="M45.7969 49.7031C45.8431 49.7319 45.953 49.8356 46.0339 49.9162C45.9761 49.8759 45.872 49.7722 45.7969 49.7031Z" fill="white"/>
<path fill-rule="evenodd" clip-rule="evenodd" d="M46.334 49.3867C46.334 49.3867 46.4323 49.4616 46.4959 49.5192C46.4727 49.5192 46.3918 49.4328 46.334 49.3867Z" fill="white"/>
<path fill-rule="evenodd" clip-rule="evenodd" d="M46.3574 49.543C46.4268 49.6006 46.6696 49.8136 46.7679 49.9403C46.6349 49.7906 46.5135 49.6984 46.3574 49.543Z" fill="white"/>
<path fill-rule="evenodd" clip-rule="evenodd" d="M46.0684 49.9531C46.1782 50.0395 46.3227 50.1719 46.3863 50.2698C46.3054 50.1777 46.1724 50.051 46.0684 49.9531Z" fill="white"/>
<path fill-rule="evenodd" clip-rule="evenodd" d="M46.4609 50.0664C46.5014 50.101 46.5592 50.1701 46.6113 50.2276C46.6113 50.2507 46.5245 50.1297 46.4609 50.0664Z" fill="white"/>
<path fill-rule="evenodd" clip-rule="evenodd" d="M46.5781 50.2734C46.6244 50.3195 46.6591 50.3656 46.7169 50.4404C46.6938 50.4289 46.6186 50.3253 46.5781 50.2734Z" fill="white"/>
<path fill-rule="evenodd" clip-rule="evenodd" d="M46.6875 50.4883C46.6875 50.4883 46.8436 50.661 46.7973 50.638C46.7627 50.5919 46.7684 50.5977 46.7742 50.5919C46.7338 50.5401 46.7338 50.5516 46.6875 50.4883Z" fill="white"/>
<path fill-rule="evenodd" clip-rule="evenodd" d="M47.2652 50.8089C47.0802 50.4691 47.1785 50.6937 47.2652 50.8089V50.8089Z" fill="white"/>
<path fill-rule="evenodd" clip-rule="evenodd" d="M47.5488 51.0273C47.6124 51.131 47.6413 51.2577 47.6876 51.4016C47.6471 51.3153 47.5835 51.0792 47.5488 51.0273Z" fill="white"/>
<path fill-rule="evenodd" clip-rule="evenodd" d="M47.6113 51.1036C47.6113 51.0576 47.6865 51.2937 47.6634 51.2476L47.6113 51.1036Z" fill="white"/>
<path fill-rule="evenodd" clip-rule="evenodd" d="M47.9004 51.3125C47.9235 51.3528 47.9582 51.4507 47.9813 51.5313C47.964 51.5083 47.912 51.3528 47.9004 51.3125Z" fill="white"/>
<path fill-rule="evenodd" clip-rule="evenodd" d="M48.0684 52.2109C48.103 52.5795 48.1146 52.4873 48.0684 52.2109V52.2109Z" fill="white"/>
<path fill-rule="evenodd" clip-rule="evenodd" d="M43.6641 47.5526C43.7103 47.5641 43.7681 47.5872 43.8028 47.5929C43.878 47.639 44.0283 47.6966 44.1266 47.7542C43.9936 47.7023 43.8606 47.616 43.6641 47.5469V47.5526Z" fill="white"/>
<path fill-rule="evenodd" clip-rule="evenodd" d="M46.1558 49.4513C46.2078 49.4974 46.1963 49.4974 46.2541 49.5492C46.2541 49.5607 46.2309 49.5377 46.2252 49.5377C46.335 49.6356 46.387 49.6874 46.4738 49.768C46.4622 49.7622 46.4448 49.7507 46.4448 49.7565C46.5084 49.8026 46.572 49.8659 46.6414 49.9407C46.705 50.0271 46.7859 50.1365 46.89 50.2632C46.6934 50.0041 46.1905 49.5204 45.9766 49.3477C46.0228 49.3477 46.1905 49.5319 46.2194 49.5377C46.2309 49.5377 46.1095 49.4283 46.1558 49.4455V49.4513Z" fill="white"/>
<path fill-rule="evenodd" clip-rule="evenodd" d="M46.1157 49.9249C46.1273 49.9249 46.2024 50.0055 46.214 50.017C46.1851 50.0055 45.9307 49.7579 46.1157 49.9249Z" fill="white"/>
<path fill-rule="evenodd" clip-rule="evenodd" d="M47.2538 51.5129H47.2365C47.2654 51.5993 47.3001 51.703 47.3348 51.8009C47.3637 51.8987 47.3579 52.0024 47.3637 52.0542C47.3637 51.8527 47.2076 51.4496 47.1556 51.3172C47.1556 51.2826 47.1209 51.225 47.1093 51.1962C46.8781 50.7932 46.6006 50.3613 46.2363 50.0273C46.3346 50.0849 46.456 50.2174 46.5601 50.3671C46.6699 50.5168 46.7913 50.6492 46.8723 50.7471C46.8896 50.7817 46.8723 50.7471 46.8549 50.7241C46.9532 50.9199 47.1729 51.2423 47.2538 51.5072V51.5129Z" fill="white"/>
<path fill-rule="evenodd" clip-rule="evenodd" d="M47.6641 51.1562C47.693 51.2311 47.7103 51.2657 47.7392 51.329C47.745 51.3578 47.6756 51.2196 47.6641 51.1562Z" fill="white"/>
<path fill-rule="evenodd" clip-rule="evenodd" d="M43.1606 57.697C43.2531 57.6567 43.4207 57.5761 43.5248 57.53C43.8139 57.4149 44.074 57.317 44.3515 57.1615C44.5944 57.0291 44.8256 56.9024 45.0684 56.7412C45.2303 56.6375 45.3112 56.5857 45.4326 56.5051C45.7911 56.2748 46.0628 56.0387 46.19 55.9005C46.4155 55.699 46.6698 55.3995 46.8491 55.2037C46.9011 55.1404 46.9242 55.1116 46.9416 55.0886C47.1323 54.7892 47.2942 54.5704 47.3925 54.2767C47.4561 54.127 47.5139 53.9773 47.5717 53.8448C47.6238 53.6433 47.67 53.4648 47.7105 53.3036C47.7105 53.2287 47.7105 53.1769 47.6874 53.0329C47.6874 52.9696 47.6873 52.8314 47.6816 52.7853C47.6469 52.6183 47.5717 52.7508 47.5659 52.4629C47.5544 52.4456 47.5486 52.4974 47.537 52.5147C47.4388 52.5089 47.3463 52.6126 47.2769 52.5435C47.2133 52.722 47.1613 52.6759 47.1092 52.8026C47.0745 52.8832 47.0398 53.0329 46.9647 53.1251C46.9011 53.2287 46.8375 53.3381 46.7797 53.4187C46.7623 53.4072 46.693 53.5396 46.6525 53.5512C46.5427 53.6951 46.4675 53.8103 46.3519 53.9485C46.3345 53.9542 46.2998 53.9888 46.2883 53.983C46.0166 54.2594 45.7044 54.507 45.2708 54.8352C45.2303 54.864 45.1436 54.9274 45.0915 54.9619C44.9355 55.0886 44.7215 55.2383 44.5019 55.3535C44.2879 55.4686 44.1087 55.578 43.9931 55.6068C43.9237 55.6356 43.9295 55.6471 43.8601 55.6759C43.8081 55.6759 43.5942 55.7508 43.4207 55.8372C43.3629 55.8659 43.2704 55.9466 43.1317 56.0041C42.9293 56.0963 42.727 56.1423 42.542 56.2229C42.4611 56.2633 42.3801 56.3151 42.2876 56.3496C42.0564 56.4418 41.5707 56.603 41.3684 56.6548C41.2065 56.6951 41.1429 56.6894 41.0215 56.7297C40.9117 56.7642 40.8365 56.8045 40.8539 56.8333C40.559 57.0003 39.7149 57.127 39.2235 57.2537C38.8477 57.2882 38.5066 57.3919 38.1482 57.4437C38.0846 57.4437 37.9748 57.4552 37.9169 57.461C37.8187 57.4782 37.6221 57.507 37.4776 57.53C37.2116 57.5704 36.9746 57.5991 36.7491 57.6222C36.4022 57.6049 36.1537 57.6682 35.8646 57.6855C35.7547 57.697 35.6507 57.6855 35.5293 57.6855C35.4426 57.6855 35.3096 57.697 35.2171 57.7028C35.1246 57.7028 34.9685 57.7028 34.8818 57.7028C34.8124 57.7028 34.7315 57.7143 34.6736 57.7143C34.6043 57.7143 34.5175 57.7143 34.4424 57.7143C34.373 57.7143 34.2169 57.7258 34.1533 57.7258C33.7949 57.7258 33.4133 57.7028 33.078 57.7143C32.4767 57.6452 31.9449 57.6625 31.2395 57.5416C31.0603 57.53 30.9331 57.5185 30.7481 57.4897C30.7077 57.4897 30.7077 57.4955 30.6441 57.4897C30.2798 57.4149 29.8867 57.3861 29.5109 57.3055C29.4994 57.3055 29.482 57.3055 29.4531 57.3055C28.8923 57.173 28.4067 57.0521 27.8922 56.9312C27.5858 56.8333 27.2273 56.7412 26.8573 56.6087C26.6839 56.5454 26.5104 56.4878 26.3543 56.4245C26.0422 56.2978 25.6259 56.1423 25.3484 55.9869C25.279 55.9581 25.1576 55.9005 25.0882 55.8717C24.9379 55.7968 24.776 55.7105 24.6257 55.6183C24.0071 55.3016 23.4059 54.8007 23.0012 54.3919C22.9029 54.2767 22.7815 54.1385 22.6601 54.0003C22.5445 53.8794 22.4982 53.7297 22.4173 53.5915C22.3306 53.4533 22.2901 53.3093 22.2438 53.1654C22.2207 53.1078 22.186 53.0157 22.1629 52.9638C22.1456 52.7911 22.1224 52.6241 22.1109 52.4398C22.134 51.9907 22.2496 51.53 22.5213 51.15C22.7988 50.6318 23.4868 50.0041 24.1054 49.5838C24.2384 49.4801 24.3887 49.411 24.5332 49.3189C24.99 49.031 25.6143 48.7086 26.1578 48.5128C28.4125 47.58 30.9909 47.1769 33.4307 47.0444C33.6214 47.056 33.9221 47.0444 34.0897 47.0214C34.1244 47.0329 34.24 47.0272 34.3268 47.0272C34.6332 46.9926 35.0205 47.0329 35.4079 47.0329C35.5061 47.0099 35.7374 47.0329 35.8877 47.0214C35.9513 47.0387 35.801 47.0272 35.9108 47.0444C36.1652 47.0214 37.0093 47.079 37.3909 47.1251C37.3619 47.1251 37.3619 47.1135 37.3909 47.1193C37.4834 47.1423 37.5296 47.1193 37.6279 47.1366C38.3159 47.1999 38.8073 47.2517 39.397 47.3324C39.4721 47.3496 39.6571 47.413 39.7265 47.413C39.6224 47.3899 39.4895 47.3611 39.501 47.3439C39.6745 47.3899 39.8999 47.4302 40.0213 47.4418C40.2353 47.4878 40.3451 47.5224 40.5417 47.5512C40.5879 47.5627 40.5012 47.5224 40.5995 47.5454C40.929 47.6375 41.0099 47.6606 41.3106 47.7469C41.3915 47.7469 41.7095 47.8276 41.7962 47.8794C41.8829 47.9024 41.7095 47.8333 41.7789 47.8506C42.0159 47.9254 42.2414 47.9945 42.4553 48.0809C42.5131 48.0924 42.5536 48.0924 42.6403 48.1212C42.6981 48.1443 42.6171 48.1327 42.7097 48.1615C42.7964 48.1846 42.6518 48.1155 42.675 48.1155C42.7906 48.1558 42.7732 48.1385 42.8368 48.15C42.9929 48.2249 43.1143 48.2537 43.2589 48.3055C43.4092 48.3631 43.5826 48.4322 43.7214 48.5013C43.8428 48.5588 43.9006 48.5704 44.0393 48.6395C44.1318 48.6913 44.259 48.7604 44.3631 48.818C44.4325 48.8467 44.3284 48.7834 44.4209 48.8295C44.8372 49.0771 45.2534 49.3189 45.5483 49.5262C45.1031 49.2095 44.762 48.9965 44.3342 48.7719C44.2764 48.7258 44.1376 48.6855 44.0798 48.6337C44.0451 48.6337 44.1434 48.6855 44.0451 48.6337C44.0162 48.6164 44.0047 48.6049 43.9526 48.5819C44.022 48.5934 43.9295 48.5473 43.9006 48.5185C43.5364 48.3228 43.2242 48.2306 42.9004 48.0924C42.8368 48.0694 42.9409 48.1212 42.8657 48.0924C42.7386 48.0406 42.6461 48.0003 42.49 47.96C42.4495 47.9312 42.3512 47.8851 42.4148 47.8851C42.6461 47.9542 42.9062 48.0636 43.1837 48.1673C43.4612 48.2652 43.7445 48.3861 43.9989 48.5185C44.155 48.5934 44.3053 48.6913 44.4094 48.7143C44.1781 48.6049 44.0047 48.4897 43.8023 48.3861C43.5479 48.2479 43.2415 48.1673 42.9872 48.0521C42.9293 48.0233 42.8715 47.9945 42.8195 47.9715C42.7675 47.9485 42.675 47.9254 42.6114 47.9082C42.5478 47.8851 42.5478 47.8736 42.49 47.8563C42.3743 47.816 42.2818 47.7988 42.1546 47.7585C41.9407 47.6894 41.7384 47.5915 41.5014 47.5396C41.4609 47.5224 41.484 47.5109 41.5418 47.5224C41.8251 47.5972 41.8656 47.626 42.1546 47.7181C42.1257 47.7066 42.1026 47.6951 42.1084 47.6894C42.1951 47.7181 42.224 47.7354 42.2876 47.7469C42.0795 47.6778 42.1026 47.6548 42.1836 47.6663C42.7097 47.8333 43.3398 48.0924 43.7561 48.2882C43.8023 48.3055 43.837 48.3055 43.9122 48.34C44.3862 48.5473 44.8776 48.8467 45.3459 49.1462C45.0915 48.9619 44.814 48.7949 44.525 48.6222C44.2243 48.4782 43.9122 48.317 43.5768 48.173C43.5537 48.1615 43.5768 48.1558 43.5075 48.1327C43.2126 48.0291 42.8831 47.8736 42.6518 47.7988C42.5593 47.7469 42.4668 47.7009 42.3743 47.6491C41.6459 47.4072 41.1198 47.1999 40.4029 47.0272C40.4087 47.0157 40.3509 46.9984 40.3335 46.9869C40.3913 46.9869 40.4376 46.9869 40.507 46.9926C40.6226 47.0157 40.7498 47.0387 40.8481 47.079C41.1545 47.1481 41.5187 47.2402 41.8945 47.3554C42.2703 47.4878 42.6692 47.603 43.0276 47.7469C43.1201 47.7642 43.0623 47.7239 43.0045 47.6836C42.6576 47.5281 42.3223 47.459 41.9523 47.3036C41.8309 47.2114 41.9812 47.2287 42.2761 47.3266C42.7675 47.4705 43.5826 47.8218 43.8833 47.96C44.5654 48.2824 45.2476 48.6279 45.8605 49.1059C46.1842 49.3189 46.4559 49.6126 46.745 49.8832C46.9994 50.1942 47.2711 50.4993 47.4677 50.8851C47.0283 50.0502 46.3866 49.4801 45.7622 49.0137C45.7622 49.0252 45.7333 49.0137 45.687 48.9734C45.3806 48.7258 45.0222 48.5473 44.6926 48.3343C44.34 48.1615 44.0047 47.983 43.6983 47.8621C43.4497 47.7354 42.9467 47.5396 42.6923 47.4302C42.7732 47.4072 42.9987 47.4648 43.2704 47.5742C42.9929 47.4533 42.7386 47.3496 42.5015 47.269C42.3107 47.1999 41.9696 47.0963 41.8714 47.056C41.8482 47.0444 41.8945 47.056 41.8482 47.0387C41.9292 47.0617 41.7037 46.9984 41.6864 46.9984C41.5765 46.9753 41.5939 46.9811 41.4725 46.9466C41.3106 46.9005 41.3106 46.9005 41.2123 46.8602C40.6515 46.6874 40.0965 46.6011 39.5299 46.4686C39.4663 46.4571 39.3565 46.4398 39.3391 46.4341C39.2871 46.4226 39.3334 46.4226 39.264 46.411C39.2235 46.4053 39.2409 46.411 39.1831 46.4053C38.9576 46.365 38.7032 46.3189 38.4835 46.2844C37.9227 46.221 37.2637 46.1116 36.8012 46.0943C36.6971 46.0828 36.8358 46.0828 36.6971 46.0713C35.9051 45.9965 35.0668 45.9677 34.2169 45.9619C34.1533 45.9619 34.2054 45.9446 34.1129 45.9504C33.9972 45.9504 34.0261 45.9677 33.9221 45.9677C33.8585 45.9677 33.7949 45.9619 33.7602 45.9504C32.7832 45.9504 31.783 46.054 30.7886 46.1865C30.3261 46.2441 29.8636 46.3362 29.4011 46.411C28.9444 46.5032 28.4992 46.6011 28.0598 46.7105C27.7245 46.8084 27.3892 46.9005 27.0654 46.9984C26.7417 47.1078 26.4468 47.2057 26.1347 47.3151C25.7357 47.4705 25.3715 47.6318 25.0131 47.7872C24.6662 47.9715 24.3078 48.1212 23.9609 48.34C23.4521 48.6337 22.9145 49.008 22.5387 49.3592C22.4867 49.411 22.3884 49.5089 22.3306 49.5723C22.2207 49.6817 22.0877 49.7681 21.9952 49.9005C21.8623 50.0675 21.7235 50.2402 21.5963 50.413C21.4865 50.6145 21.3766 50.8103 21.2726 51.0003C21.1627 51.2249 21.0991 51.4725 21.0182 51.7028C20.9604 51.9446 20.9488 52.198 20.9199 52.4514C20.9315 52.7335 20.972 53.0099 21.024 53.2863C21.076 53.4533 21.1396 53.6606 21.1974 53.8333C21.2899 54.0867 21.446 54.2997 21.5732 54.5243C21.7177 54.7373 21.8854 54.9158 22.0299 55.1116C22.2381 55.3535 22.4751 55.5608 22.7006 55.7853C22.9492 55.9753 23.1978 56.1711 23.4579 56.3381C24.0245 56.7181 24.7471 57.1039 25.3368 57.34C25.5681 57.4494 25.8109 57.5588 26.0653 57.651C26.3254 57.7373 26.5856 57.8237 26.8631 57.9158C26.9036 57.9331 26.9672 57.9561 27.0134 57.9792C27.8459 58.2556 28.8056 58.4398 29.4936 58.5838C29.7595 58.6068 29.9792 58.6644 30.222 58.7105C30.4822 58.7623 30.7308 58.7796 30.9852 58.8084C31.0545 58.8199 31.1586 58.8371 31.228 58.8429C31.4824 58.8717 31.7367 58.9005 32.02 58.912C32.4421 58.935 32.893 59.0157 33.3786 59.0041C33.7544 59.0214 34.3094 59.0675 34.743 59.0387C35.1072 59.0444 35.4715 59.0387 35.8415 59.0214C36.2115 58.9926 36.5641 58.9696 36.9515 58.9408C37.2058 58.935 37.4313 58.9178 37.6857 58.8717C37.9516 58.8602 38.2638 58.8199 38.5818 58.7681C38.8824 58.722 39.2351 58.6702 39.5588 58.6241C40.0271 58.532 40.5995 58.3938 40.9579 58.3477C41.1371 58.3938 41.4089 58.1807 41.7846 58.0943C41.987 58.0598 41.9639 58.0828 42.0564 58.0943C42.2356 58.0483 42.3917 57.9849 42.5593 57.9216C42.7559 57.8583 42.9178 57.864 43.1722 57.7546L43.1606 57.697ZM41.8193 47.7585C41.8193 47.7585 41.8193 47.7642 41.8425 47.7757C41.7846 47.7757 41.6748 47.7066 41.8193 47.7585ZM41.8714 47.77C42.0795 47.8391 42.3801 47.9254 42.5246 47.9888C42.5651 48.0003 42.4957 47.9542 42.5651 47.9715C42.6981 48.0291 42.7906 48.0752 42.9004 48.1212C42.9004 48.1558 42.6114 48.0118 42.5825 48.0406C42.4668 48.0003 42.409 47.9773 42.3512 47.9715C42.1142 47.8794 42.0564 47.8794 41.8771 47.8103C41.9292 47.8103 41.8482 47.7872 41.8714 47.77Z" fill="white"/>
</g>
<defs>
<clipPath id="clip0_868_15854">
<rect width="35" height="48" fill="white" transform="translate(17 11)"/>
</clipPath>
</defs>
</svg>
