<svg width="70" height="70" viewBox="0 0 70 70" fill="none" xmlns="http://www.w3.org/2000/svg">
<g clip-path="url(#clip0_868_9987)">
<path fill-rule="evenodd" clip-rule="evenodd" d="M25.2188 28.2742C25.3273 28.1596 25.5383 28.0148 25.7794 27.8398C25.7252 27.8881 25.4117 28.1173 25.2188 28.2742Z" fill="white"/>
<path fill-rule="evenodd" clip-rule="evenodd" d="M34.5938 26.9366C34.7806 26.9185 35.3534 26.8823 35.2931 26.9065C34.9675 26.9185 34.8289 26.9246 34.5938 26.9366Z" fill="white"/>
<path fill-rule="evenodd" clip-rule="evenodd" d="M35.582 26.9187C35.6303 26.9066 36.0764 26.9006 36.2874 26.8945C36.2753 26.9066 35.7147 26.9187 35.582 26.9187Z" fill="white"/>
<path fill-rule="evenodd" clip-rule="evenodd" d="M38.4824 26.4519C38.6512 26.3976 38.9708 26.289 39.1818 26.2227C39.1396 26.2528 38.6934 26.3916 38.4824 26.4519Z" fill="white"/>
<path fill-rule="evenodd" clip-rule="evenodd" d="M39.8262 26.1828C40.0613 26.0621 40.4652 25.8872 40.9837 25.5312C40.8209 25.6881 40.2542 25.9897 39.8262 26.1828Z" fill="white"/>
<path fill-rule="evenodd" clip-rule="evenodd" d="M41.5682 23.2173C41.6044 22.9881 41.6104 22.5356 41.526 22.1435C41.4477 21.7514 41.315 21.3955 41.2246 21.2266C41.3753 21.5222 41.4899 21.866 41.5441 22.2219C41.6104 22.5718 41.6165 22.9579 41.5682 23.2234V23.2173Z" fill="white"/>
<path fill-rule="evenodd" clip-rule="evenodd" d="M41.8398 21.6451C41.7193 21.2831 41.4962 20.7885 41.1224 20.3662C40.7547 19.9499 40.2483 19.594 39.7901 19.4492H39.778C39.778 19.4492 39.772 19.4492 39.7961 19.4492C39.8745 19.4613 40.2181 19.6061 40.5256 19.8232C40.833 20.0344 41.0983 20.3179 41.1827 20.4144C41.3334 20.5954 41.4239 20.7462 41.5203 20.9091C41.653 21.1444 41.7735 21.3736 41.8398 21.6511V21.6451Z" fill="white"/>
<path fill-rule="evenodd" clip-rule="evenodd" d="M33.6159 17.9693C33.6159 17.9693 33.5617 17.9693 33.3145 17.8668C33.2482 17.8306 33.2241 17.8185 33.2421 17.8125C33.3627 17.8668 33.4893 17.9151 33.6159 17.9693Z" fill="white"/>
<path fill-rule="evenodd" clip-rule="evenodd" d="M30.3139 15.8306C30.1331 15.5652 29.8678 15.0826 29.7955 14.5215C29.7171 13.9665 29.8136 13.3814 29.9643 13.0013C29.9944 12.8987 30.0005 12.8927 30.0849 12.6997C30.2838 12.2351 31.0434 11.4388 30.3561 12.2532C29.9824 12.7962 29.8015 13.3874 29.7774 13.9906C29.7533 14.5939 29.904 15.2334 30.3079 15.8366L30.3139 15.8306Z" fill="white"/>
<path fill-rule="evenodd" clip-rule="evenodd" d="M30.2701 15.3039C30.2339 15.2254 30.1978 15.141 30.1495 15.0445C30.1134 14.9359 30.0832 14.8032 30.041 14.6523C30.0531 14.6885 30.0953 14.8273 30.1375 14.966C30.1857 15.1108 30.252 15.2435 30.2701 15.2978V15.3039Z" fill="white"/>
<path fill-rule="evenodd" clip-rule="evenodd" d="M29.4569 14.4794C29.4087 14.3466 29.4268 13.7434 29.4931 13.4297C29.4509 13.6589 29.4147 14.2139 29.4569 14.4794Z" fill="white"/>
<path fill-rule="evenodd" clip-rule="evenodd" d="M29.976 14.6294C29.9158 14.3881 29.8977 13.821 29.976 13.5133C30.0062 13.3806 29.976 13.5616 29.9399 13.827C29.9399 13.9597 29.9399 14.1166 29.9338 14.2553C29.9519 14.4001 29.97 14.5328 29.9821 14.6294H29.976Z" fill="white"/>
<path fill-rule="evenodd" clip-rule="evenodd" d="M29.9938 14.1625C29.9697 13.9695 30.0239 13.3903 30.1867 12.9922C30.1083 13.2335 29.9576 13.7704 29.9938 14.1625Z" fill="white"/>
<path fill-rule="evenodd" clip-rule="evenodd" d="M29.4084 13.3361C29.4024 13.2938 29.5109 12.8233 29.6737 12.5156C29.6677 12.5518 29.6014 12.6785 29.5471 12.8354C29.4989 12.9982 29.4326 13.1852 29.4084 13.33V13.3361Z" fill="white"/>
<path fill-rule="evenodd" clip-rule="evenodd" d="M29.6562 12.8677C29.7165 12.6867 29.8914 12.2886 30.1747 11.9326C30.446 11.5646 30.8198 11.269 31.067 11.082C30.452 11.5646 29.9999 12.0292 29.6562 12.8677Z" fill="white"/>
<path fill-rule="evenodd" clip-rule="evenodd" d="M30.2715 12.8198C30.4584 12.3372 30.9949 11.7882 31.3567 11.5469C30.9768 11.8244 30.4825 12.3191 30.2715 12.8198Z" fill="white"/>
<path fill-rule="evenodd" clip-rule="evenodd" d="M30.9277 11.6287C31.0785 11.4899 31.3497 11.2788 31.5969 11.1219C31.6572 11.1038 31.187 11.3874 30.9277 11.6287Z" fill="white"/>
<path fill-rule="evenodd" clip-rule="evenodd" d="M31.6875 11.134C31.8985 11.0073 32.0854 10.8987 32.423 10.7539C32.3507 10.7901 31.8985 11.0012 31.6875 11.134Z" fill="white"/>
<path fill-rule="evenodd" clip-rule="evenodd" d="M32.5021 10.7812C32.5986 10.7209 33.316 10.4554 33.1653 10.5399C32.9603 10.6123 32.9844 10.5942 32.9724 10.5881C32.7493 10.6786 32.7614 10.6726 32.4961 10.7812H32.5021Z" fill="white"/>
<path fill-rule="evenodd" clip-rule="evenodd" d="M34.4847 9.82812C33.9843 9.96084 33.1222 10.1418 34.4847 9.82812Z" fill="white"/>
<path fill-rule="evenodd" clip-rule="evenodd" d="M35.582 9.46935C36.004 9.39696 36.4261 9.35473 36.9264 9.3125C36.6129 9.34266 35.793 9.43315 35.582 9.46935Z" fill="white"/>
<path fill-rule="evenodd" clip-rule="evenodd" d="M35.907 9.39657C35.7563 9.39657 36.5883 9.30005 36.4255 9.33625C36.2507 9.35434 36.0819 9.37848 35.907 9.39657Z" fill="white"/>
<path fill-rule="evenodd" clip-rule="evenodd" d="M36.8594 9.06814C37.0041 9.04401 37.3356 9.01988 37.5949 9.00781C37.5165 9.01988 36.98 9.06211 36.8594 9.06814Z" fill="white"/>
<path fill-rule="evenodd" clip-rule="evenodd" d="M39.7773 9C40.2114 9 40.5129 9.0181 40.5611 9.02413C40.5973 9.02413 40.3682 9.01207 39.7773 9Z" fill="white"/>
<path fill-rule="evenodd" clip-rule="evenodd" d="M38.6322 20.0324C38.4574 20.0143 38.2645 19.9902 38.1017 19.9721C37.7882 19.9058 37.2034 19.8153 36.7754 19.7188C37.2999 19.8092 37.8606 19.9359 38.6322 20.0324Z" fill="white"/>
<path fill-rule="evenodd" clip-rule="evenodd" d="M29.5345 13.7236C29.5828 13.4521 29.5587 13.4823 29.6491 13.1686C29.6611 13.1445 29.625 13.2772 29.625 13.2893C29.7757 12.7403 29.9324 12.4507 30.1977 12.0526C30.1615 12.1069 30.1374 12.1612 30.1374 12.1612C30.4811 11.6242 31.0538 11.1054 32.1812 10.5625C31.6506 10.8159 30.7644 11.3105 30.1736 12.131C29.5647 12.9575 29.4923 14.0011 29.5828 14.544C29.5707 14.5018 29.5587 14.4113 29.5466 14.2967C29.5466 14.1821 29.5466 14.0373 29.5466 13.8986C29.5647 13.6211 29.6189 13.3496 29.6189 13.2953C29.6009 13.2651 29.5165 13.9167 29.5285 13.7236H29.5345Z" fill="white"/>
<path fill-rule="evenodd" clip-rule="evenodd" d="M30.234 12.7586C30.2823 12.656 30.2521 12.7043 30.234 12.7586C30.222 12.7163 30.4571 12.3725 30.4933 12.3242C30.4631 12.3785 30.2581 12.6801 30.1798 12.8973C30.1255 12.9999 30.1074 13.0783 30.1074 13.0723C30.1074 13.0662 30.1376 12.9757 30.2401 12.7646L30.234 12.7586Z" fill="white"/>
<path fill-rule="evenodd" clip-rule="evenodd" d="M36.8611 9.81277V9.83087C37.5001 9.77055 38.5431 9.72832 38.9772 9.74641C38.2055 9.74641 36.5717 9.83087 36.0291 9.93946C35.8965 9.95152 35.6614 9.98169 35.5287 9.99979C34.6425 10.1446 33.7262 10.3497 32.846 10.6815C31.9718 11.0133 31.1036 11.4959 30.543 12.2379C30.766 11.882 31.2905 11.4235 31.9055 11.0977C32.5144 10.7659 33.1956 10.5367 33.6417 10.3859C33.7925 10.3436 33.6417 10.3859 33.5453 10.416C34.3351 10.1627 35.794 9.91533 36.8551 9.80674L36.8611 9.81277Z" fill="white"/>
<path fill-rule="evenodd" clip-rule="evenodd" d="M36.1309 9.33872C36.2936 9.30856 36.583 9.28443 36.7639 9.25426C36.8603 9.24823 36.3419 9.32062 36.1309 9.33872Z" fill="white"/>
<path fill-rule="evenodd" clip-rule="evenodd" d="M31.0132 58.1775C30.561 58.1654 30.0666 58.1413 29.5964 58.1172C28.4871 58.0568 27.4984 57.9543 26.3831 57.8638C25.4004 57.7914 24.472 57.6888 23.4471 57.5863C22.6935 57.4898 22.4523 57.4656 21.9519 57.3932C20.499 57.1821 19.3536 56.8805 18.7688 56.7176C17.8223 56.4642 16.6949 55.867 16.4718 55.3663C16.4176 55.2939 16.3934 55.131 16.3814 55.1008C16.297 54.6001 16.6949 53.9365 17.1651 53.4238C17.4063 53.1583 17.6715 52.905 17.973 52.6576C18.1237 52.5309 18.2804 52.4103 18.4432 52.2896L18.6964 52.1086L18.9195 51.9578C18.9496 51.9397 19.1003 51.8854 19.2028 51.8492C19.3174 51.807 19.438 51.7708 19.5525 51.7286C19.7937 51.6502 20.0469 51.5717 20.3182 51.4933C20.5412 51.4089 20.6859 51.3304 21.126 51.2037C21.325 51.1434 21.7771 51.0529 21.9218 51.0107C22.4584 50.884 21.964 50.8599 22.9889 50.7211C23.0432 50.703 22.8563 50.7151 22.802 50.7091C22.8261 50.6005 22.3981 50.5462 22.6513 50.4376C21.9218 50.4678 22.0665 50.3954 21.4998 50.4436C21.1441 50.4738 20.4628 50.6005 20.0167 50.691C19.7635 50.7453 19.5043 50.7996 19.2511 50.8659L18.8893 50.9564C18.7627 50.9926 18.6844 51.0107 18.5156 51.059C18.5156 51.059 18.5156 51.059 18.4975 51.059C18.4854 51.059 18.395 51.1012 18.3347 51.1313C18.2624 51.1675 18.196 51.2098 18.1237 51.246C17.973 51.3365 17.8162 51.433 17.7559 51.4571C17.0687 51.9216 16.5562 52.2896 15.9533 52.9532C15.887 53.0075 15.7484 53.1764 15.7303 53.1885C15.4349 53.5685 15.1515 54.015 15.037 54.6001C14.9043 55.1853 15.0731 55.9032 15.453 56.3979C16.2186 57.3872 17.2736 57.8336 18.4251 58.2257C18.6361 58.3042 19.0823 58.4309 19.3475 58.4972C21.0838 58.9738 23.7545 59.2573 24.6347 59.3961C24.9422 59.4262 24.9422 59.4262 25.2497 59.4624C25.4426 59.5107 26.3529 59.6253 27.1487 59.6977C27.4019 59.7098 27.9445 59.7399 28.4992 59.7701C29.3914 59.8123 30.2355 59.927 31.0433 59.939C31.3749 59.939 31.8391 59.945 32.1948 59.9511C33.2016 59.9752 35.2514 60.0054 36.0954 59.9873C36.7646 59.9873 37.0118 60.0054 37.5182 59.9752C37.9764 59.9511 38.32 59.9149 38.2718 59.8847C38.9289 59.8304 40.0985 59.746 41.3585 59.6314C41.9855 59.571 42.6426 59.5107 43.2576 59.4202C43.8785 59.3478 44.4633 59.2513 44.9637 59.1608C46.4468 58.9436 47.8394 58.5998 49.226 58.1715C49.5033 58.0991 49.841 57.9844 50.1243 57.8819C50.6006 57.725 51.2095 57.4536 51.8124 57.164C52.3248 56.8986 52.8071 56.609 53.2412 56.1867C53.4522 55.9635 53.6572 55.7101 53.7958 55.3723C53.9345 55.0345 53.9586 54.6182 53.8682 54.2744C53.7295 53.7375 53.4401 53.3876 53.1809 53.1282C52.9156 52.8627 52.6443 52.6697 52.3791 52.5068C52.1138 52.3439 51.8485 52.2052 51.5712 52.0785L51.3481 51.982C51.2095 51.9277 51.1552 51.9216 51.0949 51.9035C50.9683 51.8673 50.8417 51.8311 50.7091 51.7889C50.3293 51.6743 49.9314 51.5476 49.5094 51.4149C49.1477 51.3123 48.7799 51.2037 48.382 51.0891C47.9901 50.9685 47.5621 50.8358 47.1823 50.7211C46.8989 50.6367 46.6578 50.5703 46.4287 50.504C46.278 50.4557 46.1514 50.4195 46.0248 50.3773C45.9645 50.3592 45.9102 50.3411 45.8499 50.323C45.8379 50.323 45.8258 50.3169 45.8138 50.3109C45.7535 50.2988 45.6691 50.2265 45.7293 50.1661C45.7474 50.142 45.7715 50.1179 45.8017 50.0937C45.8439 50.0636 45.8077 50.0817 45.9886 49.9731C46.1212 49.8886 46.2659 49.8102 46.4106 49.7378L46.6276 49.6292L46.8929 49.5086C47.2064 49.3095 47.5199 49.1164 47.8334 48.9174C48.1167 48.7364 48.4001 48.5554 48.6895 48.3684C49.7324 47.7229 50.679 47.1317 51.6858 46.5103C51.8968 46.3113 51.957 46.2087 52.0656 46.0881L52.373 45.7261C52.584 45.4908 52.7528 45.1952 52.9518 44.9238C53.1507 44.6523 53.2954 44.3205 53.4703 44.0068C53.5486 43.8439 53.6089 43.6629 53.6813 43.488C53.7536 43.313 53.8199 43.126 53.8621 42.933C54.049 42.1608 54.0731 41.5334 53.9164 40.6949C53.8802 40.5079 53.8561 40.5139 53.7777 40.2243C53.6511 39.8201 53.4642 39.428 53.2171 39.0661C53.0965 38.8851 52.9639 38.7101 52.8131 38.5472C52.777 38.505 52.7408 38.4628 52.6926 38.4206C52.6323 38.3602 52.572 38.2999 52.5057 38.2516C52.3489 38.1551 52.2464 38.1008 52.156 38.0586C51.3723 37.6846 50.4921 37.4915 49.5877 37.582C49.5033 37.6001 49.431 37.6182 49.3406 37.6363C49.0271 37.6725 48.7317 37.7871 48.4182 37.9018C48.2675 37.9621 48.1288 38.0526 47.9841 38.131C47.8394 38.2094 47.6947 38.2939 47.5741 38.4025C47.3209 38.6076 47.0557 38.8127 46.8567 39.0661L46.5432 39.428C46.4468 39.5547 46.3684 39.6874 46.284 39.8141C45.9223 40.3208 45.7052 40.8578 45.4701 41.3464C45.2953 41.8411 45.1144 42.3237 44.9938 42.7037C44.602 43.8741 44.1197 45.2314 43.4806 46.6069C43.1732 47.2463 42.8416 47.8677 42.51 48.4348C42.2387 48.9234 41.889 49.4482 41.5213 49.955C41.1596 50.4497 40.7195 50.9685 40.3758 51.2882H40.3698L40.3155 51.3485C40.2552 51.4088 40.0985 51.5355 39.9839 51.614C39.7127 51.801 39.4233 51.9699 39.1098 52.1086C38.5431 52.362 37.8859 52.549 37.2107 52.6757C34.6184 53.2126 31.3749 52.8024 29.1322 52.2655C28.469 52.0543 27.9023 51.8613 27.2331 51.4451C26.1238 50.7694 25.1773 49.7438 24.4479 48.6278C24.2549 48.3563 24.0922 48.0668 23.9294 47.8013C23.5375 47.0955 23.224 46.3837 22.9226 45.5753C22.1871 43.5966 21.7289 41.4851 21.5179 39.4823C21.4395 38.8428 21.3672 38.131 21.331 37.3769C21.3129 36.9969 21.3008 36.6108 21.3008 36.2186C21.3008 36.0256 21.3008 35.8265 21.3129 35.6335L21.3551 35.4223C21.3551 35.3499 21.3792 35.2836 21.4154 35.2172C21.6324 34.6562 22.2232 34.1314 22.8743 33.7453C23.5315 33.3471 24.2429 33.0394 24.9302 32.7861C25.2376 32.6654 25.5451 32.5629 25.8526 32.4784L26.0816 32.4181C26.1359 32.406 26.1238 32.406 26.16 32.4L26.2806 32.3819C26.4494 32.3517 26.6122 32.3276 26.787 32.2974C28.9091 31.9415 31.6582 31.5976 33.907 31.5071C36.2702 31.3805 38.6757 31.3744 41.0088 31.7485L41.8709 31.9294L42.299 32.0199L42.7089 32.1526C42.9802 32.2492 43.2696 32.3155 43.5289 32.4301L44.2885 32.7981C44.7949 33.0696 45.2772 33.4074 45.6871 33.7694C46.0911 34.1314 46.4227 34.5657 46.4528 34.9458C46.495 35.3077 46.2539 35.6998 45.8379 36.0377C45.6389 36.2005 45.4038 36.3514 45.1626 36.4841C45.0421 36.5504 44.9155 36.6108 44.7889 36.6711L44.602 36.7495C44.5718 36.7616 44.5598 36.7676 44.4935 36.7737C43.2998 36.9546 42.1121 37.1175 40.9184 37.214C38.537 37.4252 36.1557 37.4674 33.8467 37.214C33.1112 37.1175 32.0441 36.9426 31.405 36.7676C31.2784 36.7314 30.8745 36.6168 30.5731 36.5203C29.4758 36.2005 28.1374 35.5913 27.0402 34.7165C26.7508 34.5114 26.1359 33.9262 25.8646 33.4859C25.7561 33.2928 26.0394 33.7272 25.8405 33.4074C25.6837 33.2446 25.5391 32.9248 25.3522 32.5448C25.2858 32.3457 25.2316 32.1225 25.1653 31.8932C25.105 31.664 25.111 31.4046 25.0809 31.1512C24.9784 30.1558 25.7079 29.3475 26.2625 28.9674C26.1902 29.0217 26.166 29.0277 26.2625 28.9553C26.5338 28.7744 26.6544 28.6718 26.986 28.4969C28.1133 27.9238 29.2166 27.6342 30.2596 27.3989C31.3086 27.1636 32.3395 27.0128 33.4608 26.9042C33.7442 26.8861 34.4978 26.8499 34.763 26.8198C34.3531 26.8379 33.8406 26.8801 33.8708 26.856C34.54 26.8137 35.378 26.7595 35.8965 26.7293C36.4933 26.7112 36.843 26.7112 37.3313 26.7172C37.5785 26.675 37.7413 26.6388 37.9824 26.5785C38.1693 26.5362 37.7955 26.6026 38.1934 26.5061C38.7842 26.3553 39.2183 26.2105 39.6283 26.0355C40.0382 25.8606 40.4301 25.6736 40.8943 25.3538C41.0209 25.2573 41.3585 25.004 41.6358 24.6661C41.7021 24.5817 41.7745 24.4972 41.8408 24.4128C41.8951 24.3162 41.9493 24.2257 41.9976 24.1413C42.1061 23.9784 42.1543 23.8155 42.1905 23.713C42.305 23.3389 42.0398 24.1111 42.1362 23.7974C42.1784 23.6707 42.2266 23.5441 42.2508 23.4174C42.2628 23.2846 42.2749 23.158 42.293 23.0252C42.3171 22.7658 42.2869 22.5366 42.2628 22.2893C42.2086 21.8127 42.0699 21.3482 41.8649 20.9198C41.7504 20.7147 41.6599 20.582 41.4188 20.2804C41.25 20.0813 41.4911 20.3166 41.2198 20.0331C40.9546 19.7797 41.4067 20.2502 41.3284 20.1959C40.9727 19.8279 41.0269 19.9184 40.828 19.7616C40.4904 19.5022 40.2191 19.3393 39.8453 19.2247C39.58 19.2066 39.3871 19.1885 39.1279 19.1583C38.5069 19.0859 37.8196 18.9713 37.2288 18.8567C36.7224 18.7602 36.4993 18.73 35.9266 18.5852C35.4624 18.4706 35.0826 18.3439 34.5822 18.181C34.3169 18.0966 34.757 18.2534 34.3772 18.1328C33.503 17.8311 32.647 17.4692 31.9295 16.9986C31.2001 16.5462 30.6334 15.967 30.3078 15.3819C30.8142 16.2868 31.5859 16.8237 32.3274 17.258C33.081 17.6924 33.8768 18 34.751 18.2715C35.0102 18.3741 35.5468 18.4947 35.8121 18.5852C35.9387 18.6033 35.5227 18.4947 35.9266 18.5973C36.0592 18.6335 36.1075 18.6516 36.3185 18.6998C36.0592 18.6636 36.439 18.7541 36.5837 18.8024C37.7895 19.0618 38.7782 19.2066 39.8332 19.3091C40.1407 19.4117 40.3879 19.5565 40.6471 19.7374C40.8581 19.8883 40.5084 19.6168 40.7496 19.7917C41.1716 20.1235 41.455 20.4433 41.7564 20.9983C41.8348 21.1732 41.9614 21.5774 41.8649 21.3723C41.5695 20.5519 40.8581 19.7073 39.8272 19.3453C38.6275 19.2428 37.3856 19.0377 36.2461 18.7722C35.601 18.6214 34.9439 18.4103 34.5762 18.3137C35.5106 18.6093 36.2763 18.8205 37.1143 18.9954C37.9884 19.1704 38.9229 19.3031 39.8212 19.3815C40.0322 19.4479 40.2191 19.5504 40.3939 19.659C40.6531 19.8219 40.7436 19.9124 40.9485 20.0934C41.0993 20.2442 41.3645 20.5096 41.4851 20.7208C41.6298 20.944 41.6117 20.9681 41.7202 21.1672C41.9071 21.5895 42.0036 21.9394 42.0639 22.4521C42.0639 22.6693 42.1 22.8805 42.0639 23.0976C42.0518 23.2062 42.0458 23.3148 42.0217 23.4174L41.9131 23.725C41.7504 24.1292 41.4791 24.5032 41.1174 24.8109C40.9847 24.9195 41.0269 24.8531 41.1897 24.7084C41.5876 24.3223 41.7564 24.0327 41.877 23.7311C41.9855 23.4234 42.0759 23.0976 42.0277 22.5245C42.0277 22.6512 42.0277 22.7296 42.0277 22.7176C42.0217 22.3677 41.9976 22.247 41.9493 22.0118C42.0277 22.428 42.0096 22.6211 42.0036 22.6693C41.9976 22.7176 41.9795 22.6271 41.9614 22.4883C41.9192 21.867 41.7202 21.2094 41.3344 20.6604C40.9546 20.1175 40.3818 19.6771 39.8031 19.472C38.941 19.3936 38.1211 19.2609 37.4519 19.1342C37.265 19.104 37.1384 19.098 36.8309 19.0377C35.8723 18.8446 34.8716 18.5792 33.8768 18.2052C32.8941 17.8311 31.9054 17.3606 31.0976 16.6608C32.0139 17.4692 33.1594 17.982 34.3591 18.3922C35.5649 18.7964 36.8611 19.0859 38.2296 19.3031C38.3321 19.3212 38.2477 19.3212 38.519 19.3634C38.9289 19.4177 39.3871 19.478 39.791 19.5082C40.4964 19.7555 41.0872 20.3226 41.3826 20.7992C41.5755 21.1431 41.7082 21.505 41.7685 21.867C41.9192 22.5125 41.9493 23.17 41.7202 23.6949C41.4972 24.2318 41.0691 24.636 40.5989 24.9557C39.6524 25.5771 38.5009 25.933 37.2951 26.1502C37.1866 26.1502 37.066 26.1502 36.9515 26.1502C36.9635 26.1381 36.7465 26.1321 36.6621 26.126C36.8731 26.114 37.06 26.1019 37.277 26.0898H37.2891C37.6629 26.0295 38.1391 25.9089 38.4948 25.8063C39.0374 25.6313 39.6222 25.4081 40.1889 25.0763C40.7436 24.7506 41.2862 24.3042 41.5635 23.719C41.6117 23.5682 41.678 23.4174 41.7021 23.2605C41.7021 23.0916 41.7564 22.9468 41.7383 22.7658C41.7263 22.4099 41.6841 22.06 41.5816 21.7282C41.3886 21.0586 40.9666 20.4855 40.4361 20.0994C40.1588 19.9305 40.3638 20.0873 40.5205 20.2382C40.9968 20.6363 41.3404 21.1491 41.5153 21.7343C41.678 22.3134 41.7564 23.0132 41.5394 23.5621C41.4972 23.6647 41.461 23.7069 41.4489 23.7009C41.4369 23.7009 41.455 23.6587 41.473 23.5682C41.5153 23.3872 41.6177 23.1037 41.5695 22.5728C41.5333 22.06 41.3886 21.4387 41.033 20.9319C40.8581 20.6785 40.6471 20.4493 40.406 20.2623C40.2854 20.1718 40.1588 20.0873 40.0322 20.015C39.9116 19.9426 39.7609 19.8762 39.7127 19.8641C39.4715 19.834 39.2424 19.8098 39.0314 19.7857C38.8023 19.7555 38.5853 19.7254 38.3924 19.6952C38.0005 19.6349 37.681 19.5746 37.4398 19.5323C36.0472 19.279 34.6666 18.9351 33.3282 18.3922C32.659 18.1207 32.0079 17.7949 31.393 17.3666C30.7841 16.9383 30.2113 16.3954 29.8195 15.6835C29.4336 14.9656 29.3372 14.0969 29.4999 13.3066C29.6688 12.5043 30.1571 11.7804 30.7539 11.2736C31.9778 10.2722 33.4488 9.84994 34.8836 9.56641C34.0818 9.71119 33.292 9.92233 32.5384 10.224C31.7848 10.5196 31.0614 10.9358 30.4645 11.5391C29.8677 12.1363 29.4758 12.9809 29.4216 13.8134C29.3613 14.6519 29.6145 15.5327 30.1089 16.1722C30.1089 16.1541 30.1812 16.2506 30.3379 16.4436C31.393 17.62 32.8459 18.2655 34.2265 18.7421C35.6252 19.2126 37.0118 19.4961 38.2477 19.6832C38.4466 19.7194 38.6817 19.7616 38.941 19.7917C39.0736 19.8098 39.2062 19.8279 39.3449 19.846C39.4655 19.8581 39.5921 19.8702 39.7127 19.8822C39.7368 19.8822 39.7549 19.9003 39.785 19.9064L39.9116 19.9667C39.996 20.0089 40.0864 20.0572 40.1648 20.1115C40.3336 20.214 40.4843 20.3407 40.623 20.4674C40.8943 20.7328 41.0932 21.0164 41.1957 21.2697C41.0631 21.1008 40.6773 20.4493 39.8694 20.0511C40.6893 20.4674 41.1897 21.2215 41.3464 21.9816C41.3826 22.1384 41.4128 22.3255 41.4308 22.5306C41.4308 22.6331 41.4429 22.7357 41.4489 22.8443C41.4489 22.9408 41.4308 23.0252 41.4248 23.1097C41.4308 23.2846 41.3344 23.4294 41.3103 23.5682C41.2379 23.6888 41.1837 23.7854 41.1415 23.8517C41.1053 23.912 41.1656 23.7914 41.0932 23.9C41.244 23.7069 40.834 24.2438 40.7617 24.268C40.5145 24.5032 40.5506 24.461 40.213 24.7023C39.7307 24.9859 39.7247 24.9678 39.3992 25.1125C39.0495 25.2573 38.6938 25.39 38.326 25.4926C38.1452 25.5469 37.9583 25.5952 37.7714 25.6374L37.4941 25.6977L37.277 25.7399H36.3185L35.3117 25.7761C34.6425 25.8063 33.9673 25.8485 33.292 25.9088C33.0629 25.933 32.6048 25.9812 32.5686 25.9812C32.3636 26.0054 32.5384 25.9752 32.2671 26.0054C32.1345 26.0235 32.1526 26.0235 31.9536 26.0536C31.1036 26.1622 30.133 26.3251 29.2889 26.5362C28.2339 26.8017 27.0764 27.1576 26.0394 27.785C25.521 28.0987 25.0326 28.4848 24.6589 28.9734C24.2851 29.4621 24.062 30.0533 24.0017 30.5842C23.9656 31.0547 23.9776 30.4394 23.9595 31.0668C24.0078 31.483 23.9836 31.9113 24.1283 32.3216C24.1886 32.5267 24.2308 32.7378 24.3092 32.9429L24.5805 33.5281C24.9904 34.2822 25.533 34.9699 26.1841 35.5008C27.4743 36.5927 29.0116 37.2864 30.5912 37.763C30.8323 37.8354 30.6334 37.7992 30.989 37.8897C31.3809 37.9802 31.3568 37.9741 31.7065 38.0526C31.9295 38.1069 32.1345 38.1551 32.3154 38.2034C36.0231 38.8609 39.8453 38.6558 43.5952 38.1491L44.2523 38.0526L44.5779 38.0043L44.7467 37.9802C44.8311 37.9741 44.9336 37.95 45.024 37.9138C45.5304 37.7147 45.9162 37.5036 46.3443 37.214C46.7482 36.9245 47.1642 36.5746 47.4536 36.0377C47.5983 35.7722 47.7008 35.4525 47.7188 35.1267C47.7309 34.7949 47.6706 34.4812 47.5621 34.1977C47.333 33.6427 46.9833 33.2506 46.6337 32.9128C46.278 32.5749 45.9042 32.3095 45.5244 32.0561C45.1566 31.8027 44.7346 31.6037 44.3186 31.4106C43.9087 31.1874 43.4806 31.0849 43.0646 30.9461C42.9019 30.8979 42.7331 30.8375 42.5703 30.7953L42.0759 30.6927C41.7443 30.6264 41.4188 30.548 41.0932 30.4937C40.4421 30.4213 39.7971 30.3006 39.164 30.2765C38.531 30.2282 37.904 30.192 37.2951 30.186C36.6802 30.1619 36.0773 30.1739 35.4865 30.186C32.3154 30.2765 29.6024 30.5781 26.6785 31.0306L26.2806 31.0969L25.8405 31.1754C25.5391 31.2538 25.2858 31.3322 25.0146 31.4167C24.478 31.5916 23.9475 31.7907 23.435 32.0199C22.4101 32.4724 21.4455 33.0636 20.7522 33.8719C20.6377 34.0228 20.5292 34.1977 20.4086 34.3787C20.3182 34.5838 20.2096 34.7949 20.1494 35.0242C20.1132 35.1991 20.083 35.3801 20.0529 35.5611C20.0469 35.7059 20.0408 35.8446 20.0348 35.9894C20.0227 36.2729 20.0227 36.5504 20.0348 36.8279C20.071 38.318 20.2398 39.8262 20.4809 41.2861C20.7583 42.9209 21.1381 44.4834 21.7108 46.0277C22.0364 46.8964 22.4162 47.7108 22.8743 48.5252C23.1878 49.0561 23.5194 49.6232 23.9234 50.1299C24.484 50.8478 25.1351 51.5114 25.8767 52.0664C26.6122 52.6214 27.4381 53.0437 28.258 53.3333C28.5353 53.4358 28.8127 53.5263 29.102 53.5866C29.3914 53.6651 29.6688 53.7254 29.9461 53.7676C30.5007 53.8581 31.0493 53.9788 31.616 54.0331C32.7374 54.1959 33.8828 54.2382 35.0223 54.214C36.0291 54.1778 37.1323 54.0753 38.2236 53.7857C38.7722 53.659 39.3087 53.4479 39.8212 53.2186C40.0744 53.092 40.3276 52.9592 40.5687 52.8084C40.8219 52.6395 41.0209 52.5128 41.2922 52.2353L41.2319 52.2957C41.7443 51.8251 42.0337 51.445 42.3472 51.0469C43.5711 49.4905 44.5055 47.6807 45.3375 45.6597C45.4279 45.4426 45.4942 45.3099 45.5726 45.0927C45.8801 44.3326 46.1393 43.5001 46.4106 42.7279C46.6698 41.9798 46.9592 41.2438 47.3692 40.6345C47.749 40.0011 48.2494 39.5004 48.792 39.2229C49.3285 38.9333 49.9193 38.8609 50.4559 38.9394C50.8598 38.9816 51.2396 39.1083 51.5772 39.2772C51.6194 39.2953 51.6677 39.3255 51.6858 39.3375C51.6978 39.3436 51.7099 39.3496 51.7219 39.3617L51.8726 39.5306C51.9872 39.6754 52.0957 39.8322 52.1861 39.9951C52.6021 40.713 52.7287 41.4972 52.5961 42.2935C52.5298 42.5529 52.4876 42.7882 52.373 43.0476C52.0656 43.8318 51.6134 44.5799 50.9322 45.3159C50.8538 45.4003 50.8478 45.4184 50.8297 45.4305L50.6187 45.5632C50.4499 45.6658 50.275 45.7744 50.1002 45.883C49.7505 46.0941 49.3948 46.3113 49.0391 46.5345C48.3157 46.9749 47.5741 47.4333 46.8085 47.922C46.6337 48.0245 46.4468 48.1392 46.2539 48.2598C46.1875 48.29 46.1152 48.3262 46.0428 48.3563C45.9584 48.3986 45.874 48.4408 45.7896 48.483C45.6208 48.5675 45.452 48.664 45.2772 48.7666C45.1506 48.8389 44.8009 49.0682 44.5718 49.2733C44.3246 49.4905 44.1438 49.7378 44.0473 50.0032C43.9448 50.2566 43.9509 50.5763 44.0775 50.8297C44.2041 51.0771 44.4151 51.2641 44.6743 51.4149L44.8853 51.5114L44.9878 51.5597L45.0541 51.5778L45.3254 51.6562C45.5063 51.7045 45.6751 51.7587 45.8499 51.807C47.2184 52.2172 48.5568 52.6214 49.9193 53.0316L50.4318 53.1825L50.691 53.2609L50.8176 53.2971C50.8176 53.2971 50.8176 53.2971 50.8658 53.3152C51.1432 53.4358 51.4205 53.5866 51.6737 53.7495C51.9269 53.9124 52.156 54.0994 52.3127 54.2864C52.4755 54.4795 52.5298 54.6363 52.5177 54.7328C52.5177 54.8656 52.3429 55.1189 52.0475 55.3361C51.7581 55.5593 51.4084 55.7584 51.0166 55.9575C50.1665 56.3255 49.0994 56.7116 47.9781 57.0192C46.8567 57.2967 45.6811 57.5501 44.4754 57.725C42.7632 57.9965 40.617 58.2257 39.3087 58.2438C38.7119 58.1895 37.5664 58.3886 36.1738 58.3886C35.4383 58.3766 35.5347 58.3464 35.2152 58.3162C34.5219 58.3162 33.9431 58.3042 33.2981 58.3042C32.5505 58.2921 32.0079 58.2076 31.0192 58.1775H31.0132ZM42.1061 23.6164C42.1061 23.6164 42.1181 23.5983 42.1483 23.5199C42.094 23.7552 41.9011 24.2318 42.1061 23.6164ZM42.1603 23.3993C42.2327 22.9408 42.2086 22.422 42.1061 21.9333C41.9976 21.4447 41.7986 21.0164 41.6419 20.7328C41.5454 20.5881 41.7082 20.8716 41.5454 20.6423C41.3464 20.3286 41.0631 19.9607 40.5205 19.6047C40.5145 19.5806 40.7797 19.7435 41.0209 19.9607C41.262 20.1778 41.467 20.4493 41.5032 20.4614C41.7926 20.8776 41.877 21.1129 41.9734 21.312C42.1543 21.8006 42.1844 22.1143 42.2266 22.3918C42.2447 22.6693 42.2749 22.9167 42.2086 23.3208C42.2086 23.1097 42.1784 23.4596 42.1603 23.3932V23.3993Z" fill="white"/>
</g>
<defs>
<clipPath id="clip0_868_9987">
<rect width="39" height="51" fill="white" transform="translate(15 9)"/>
</clipPath>
</defs>
</svg>
