<svg width="70" height="70" viewBox="0 0 70 70" fill="none" xmlns="http://www.w3.org/2000/svg">
<g clip-path="url(#clip0_868_9710)">
<path fill-rule="evenodd" clip-rule="evenodd" d="M28.6707 42.4206C28.5963 42.4151 28.4667 42.3954 28.3164 42.3711C28.3562 42.3669 28.5537 42.3929 28.6707 42.4206Z" fill="white"/>
<path fill-rule="evenodd" clip-rule="evenodd" d="M23.3193 40.6998C23.2078 40.7248 22.8548 40.8154 22.8852 40.7855C23.0883 40.7374 23.1746 40.7283 23.3193 40.6998Z" fill="white"/>
<path fill-rule="evenodd" clip-rule="evenodd" d="M22.7 40.8055C22.7 40.8055 22.4001 40.8904 22.2701 40.9308C22.268 40.911 22.6137 40.8145 22.7 40.8055Z" fill="white"/>
<path fill-rule="evenodd" clip-rule="evenodd" d="M21.1211 41.6182C21.0456 41.6663 20.8362 41.7818 20.7407 41.8319C20.7579 41.8034 21.0064 41.677 21.1211 41.6182Z" fill="white"/>
<path fill-rule="evenodd" clip-rule="evenodd" d="M20.3117 41.8449C20.1872 41.9381 19.9747 42.0874 19.6953 42.3038C19.7799 42.2147 20.0785 41.9896 20.3117 41.8449Z" fill="white"/>
<path fill-rule="evenodd" clip-rule="evenodd" d="M19.4277 43.9795C19.199 44.2306 18.8104 44.8124 18.6638 45.0148C18.8954 44.6632 19.1619 44.2612 19.4277 43.9795Z" fill="white"/>
<path fill-rule="evenodd" clip-rule="evenodd" d="M18.4906 44.4515C18.2559 44.8368 17.8319 45.5292 17.5991 46.0612C17.5383 46.1211 17.9756 45.3004 18.0474 45.1526C18.1166 45.0451 18.174 44.9523 18.2307 44.8528C18.3104 44.7175 18.3769 44.5837 18.4839 44.4522L18.4906 44.4515Z" fill="white"/>
<path fill-rule="evenodd" clip-rule="evenodd" d="M16.4504 49.5679C16.4504 49.5679 16.4671 49.5996 16.4433 49.7557C16.4342 49.7967 16.4223 49.8113 16.4149 49.8054L16.4511 49.5745L16.4504 49.5679Z" fill="white"/>
<path fill-rule="evenodd" clip-rule="evenodd" d="M16.2988 51.8763C16.2765 52.2392 16.1827 53.0705 16.1297 53.5235C16.1293 53.5837 16.1366 53.5896 16.1219 53.7047C16.1039 53.9804 16.0403 54.5881 16.092 53.995C16.1424 53.2617 16.2155 52.6797 16.3054 51.8756L16.2988 51.8763Z" fill="white"/>
<path fill-rule="evenodd" clip-rule="evenodd" d="M16.0289 52.1166C16.0247 52.2039 16.0134 52.352 15.9923 52.5345C15.9874 52.4883 16.0159 52.1848 16.0289 52.1166Z" fill="white"/>
<path fill-rule="evenodd" clip-rule="evenodd" d="M16.5848 52.7466C16.5917 52.8127 16.5492 53.111 16.5327 53.273C16.5408 53.1586 16.5581 52.8763 16.5848 52.7466Z" fill="white"/>
<path fill-rule="evenodd" clip-rule="evenodd" d="M16.0547 52.5681C16.0378 52.7902 16.0209 53.0124 16.0026 53.2213C15.9654 53.3788 16.0245 52.7916 16.0547 52.5681Z" fill="white"/>
<path fill-rule="evenodd" clip-rule="evenodd" d="M15.9629 52.8337C15.9688 52.9533 15.9305 53.2912 15.9037 53.5478C15.9077 53.3938 15.9467 53.0624 15.9629 52.8337Z" fill="white"/>
<path fill-rule="evenodd" clip-rule="evenodd" d="M16.6452 53.3211C16.6452 53.3211 16.6317 53.5763 16.6219 53.7376C16.611 53.6986 16.6339 53.4692 16.6452 53.3211Z" fill="white"/>
<path fill-rule="evenodd" clip-rule="evenodd" d="M16.5016 53.5636C16.4951 53.7579 16.4364 54.4119 16.41 54.7352C16.434 54.3253 16.4611 54.0086 16.5016 53.5636Z" fill="white"/>
<path fill-rule="evenodd" clip-rule="evenodd" d="M15.8891 53.664C15.8812 53.9721 15.8267 54.4119 15.8067 54.6677C15.8173 54.3861 15.8752 53.9794 15.8891 53.664Z" fill="white"/>
<path fill-rule="evenodd" clip-rule="evenodd" d="M16.0477 54.465L16.0239 54.9416C16.0239 54.9416 16.028 54.6607 16.0477 54.465Z" fill="white"/>
<path fill-rule="evenodd" clip-rule="evenodd" d="M15.9586 54.976C15.9599 55.1161 15.9465 55.2444 15.9275 55.4467C15.9227 55.4005 15.9466 55.1175 15.9586 54.976Z" fill="white"/>
<path fill-rule="evenodd" clip-rule="evenodd" d="M15.8648 55.4799C15.8718 55.5459 15.8512 55.9889 15.8275 55.8912C15.8343 55.7636 15.843 55.7827 15.8489 55.7754C15.8609 55.6339 15.8483 55.6419 15.8648 55.4799Z" fill="white"/>
<path fill-rule="evenodd" clip-rule="evenodd" d="M16.165 56.7457C16.2099 55.9596 16.161 56.4523 16.165 56.7457Z" fill="white"/>
<path fill-rule="evenodd" clip-rule="evenodd" d="M16.3144 57.3958C16.3129 57.6363 16.3047 57.8776 16.2941 58.1592C16.2886 57.9795 16.3004 57.5175 16.3144 57.3958Z" fill="white"/>
<path fill-rule="evenodd" clip-rule="evenodd" d="M16.3338 57.5831C16.352 57.5011 16.3342 57.9704 16.3245 57.8779L16.3338 57.5831Z" fill="white"/>
<path fill-rule="evenodd" clip-rule="evenodd" d="M16.5739 58.1363C16.5829 58.2222 16.5818 58.4026 16.5772 58.55C16.5657 58.5045 16.5676 58.2038 16.5739 58.1363Z" fill="white"/>
<path fill-rule="evenodd" clip-rule="evenodd" d="M16.5437 59.7575C16.5576 60.0165 16.5659 60.0958 16.5574 60.2703C16.5519 60.2175 16.554 60.1104 16.5437 59.7575Z" fill="white"/>
<path fill-rule="evenodd" clip-rule="evenodd" d="M18.0793 46.9279C18.0485 47.018 18.0005 47.1366 17.9935 47.1974C17.9085 47.3466 17.8262 47.6491 17.7481 47.8643C17.8133 47.5904 17.9382 47.3101 18.0866 46.9339L18.0793 46.9279Z" fill="white"/>
<path fill-rule="evenodd" clip-rule="evenodd" d="M16.4616 53.1206C16.4497 53.2621 16.441 53.243 16.4251 53.4116C16.4132 53.4262 16.4189 53.3522 16.4182 53.3456C16.3816 53.6366 16.3784 53.7972 16.3583 54.0531C16.3549 54.02 16.3514 53.987 16.3514 53.987C16.3463 54.3215 16.2723 54.7032 16.2376 55.3947C16.2485 54.7324 16.4032 53.267 16.4637 52.693C16.4727 52.7789 16.4053 53.2868 16.4182 53.3456C16.4335 53.364 16.4512 53.0215 16.4616 53.1206Z" fill="white"/>
<path fill-rule="evenodd" clip-rule="evenodd" d="M15.9512 53.6872C15.9547 53.7203 15.9449 53.7547 15.9512 53.6872C15.9599 53.7063 15.9318 53.9497 15.922 53.9841C15.9144 53.9115 15.9938 53.1351 15.9446 53.6879L15.9512 53.6872Z" fill="white"/>
<path fill-rule="evenodd" clip-rule="evenodd" d="M15.7492 58.0831L15.7293 58.0852C15.721 58.4533 15.7178 59.0614 15.7044 59.3166C15.6844 58.8712 15.7384 57.9173 15.7177 57.5922L15.7409 57.3026C15.7454 56.2603 15.8478 55.1276 15.9285 54.044C15.9327 54.531 15.7863 55.6283 15.8115 56.1866C15.8006 56.2746 15.8115 56.1866 15.8052 56.1272C15.7749 56.6045 15.7317 57.4705 15.7499 58.0897L15.7492 58.0831Z" fill="white"/>
<path fill-rule="evenodd" clip-rule="evenodd" d="M16.3688 57.7118C16.3754 57.838 16.3732 57.9451 16.3798 58.0713C16.3787 58.1248 16.3547 57.8335 16.3688 57.7118Z" fill="white"/>
<path fill-rule="evenodd" clip-rule="evenodd" d="M49.1895 10.5952C48.6611 10.6775 48.2499 10.9812 47.9562 11.2526C47.2935 11.9099 46.9915 12.5494 46.7559 13.3088C46.6638 13.6457 46.6048 13.9792 46.5739 14.323C46.5654 14.4975 46.5502 14.6728 46.5557 14.8525L46.5643 15.1254L46.6144 15.4741C46.6904 15.8133 46.7884 16.0434 46.8855 16.2002C46.984 16.3701 47.0723 16.5078 47.2025 16.661C47.5926 17.1142 47.9559 17.3765 48.2399 17.587C48.5305 17.7968 48.7398 17.9351 48.8904 18.0261C49.1083 18.1835 49.3357 18.3666 49.4593 18.5205C49.5149 18.6015 49.569 18.6693 49.5899 18.7405C49.6133 18.7715 49.6168 18.8045 49.6209 18.8441C49.6223 18.8573 49.6356 18.8559 49.6377 18.8757C49.6398 18.8956 49.6433 18.9286 49.6447 18.9418C49.6537 19.0277 49.6009 19.1 49.5306 19.1341L49.4722 19.1536C49.4722 19.1536 49.4198 19.1658 49.3461 19.1669L48.8991 19.1939C48.5803 19.2274 48.1473 19.2596 47.7082 19.5529C47.5023 19.7014 47.3033 19.916 47.2001 20.1473L47.1462 20.2732L47.1476 20.2864C47.1476 20.2864 47.1196 20.276 47.1916 20.3218L47.2929 20.3913L47.3376 20.4333C47.3763 20.4827 47.3215 20.4083 47.316 20.3555C47.3146 20.3423 47.3146 20.3423 47.3132 20.3291C47.3104 20.3026 47.3083 20.2828 47.3188 20.255L47.3146 20.2154C47.3146 20.2154 47.3153 20.222 47.3021 20.2234C47.2888 20.2248 47.2835 20.2387 47.2556 20.2283C47.2157 20.2325 47.1539 20.2189 47.0547 20.1693C46.9694 20.1248 46.784 19.9573 46.7186 19.9108C46.4699 19.7166 46.5854 19.9849 46.1835 19.5464C46.1482 19.53 46.2177 19.6162 46.2278 19.6485C46.1198 19.7067 46.1933 19.9594 46.0256 19.8969C46.2592 20.2663 46.1415 20.2319 46.3534 20.5235C46.4976 20.682 46.7665 21.0677 47.3102 21.1307C47.4584 21.1352 47.6311 21.117 47.7992 20.9925C47.9667 20.8613 48.0206 20.7355 48.0615 20.6777C48.136 20.5564 48.1752 20.5456 48.2381 20.5055C48.2608 20.5299 48.3986 20.4352 48.4552 20.4627C48.5733 20.4369 48.7274 20.434 48.9035 20.4489L49.1946 20.4717C49.3163 20.4789 49.3914 20.4911 49.606 20.4885C49.6811 20.5007 49.8677 20.4877 49.8883 20.4922C50.3074 20.4548 50.6884 20.2478 50.9479 19.9066C51.1928 19.5536 51.2591 19.0992 51.193 18.5986C51.1492 18.1825 50.9639 17.7612 50.7167 17.4533C50.474 17.1249 50.1852 16.8681 49.9064 16.6437C49.8044 16.5676 49.5917 16.3963 49.4677 16.3025C49.0751 16.0166 48.6203 15.6504 48.4974 15.3761C48.4157 15.2378 48.4113 15.1314 48.4047 15.0052C48.4059 14.8248 48.4238 14.676 48.4465 14.5734C48.4652 14.4312 48.4519 14.4326 48.4771 14.2897C48.5153 14.2056 48.6462 13.7911 48.7862 13.4625C48.8349 13.3505 48.8996 13.1367 49.0389 12.9284C49.2393 12.6001 49.5312 12.5026 49.5126 12.5179C49.5126 12.5179 49.5218 12.4769 49.6136 12.5207C49.8471 12.5696 50.5814 13.4873 50.8443 13.8804C51.0724 14.197 51.1086 14.2867 51.2525 14.5053C51.3803 14.6989 51.4899 14.8476 51.5123 14.8052C51.9254 15.3494 52.7144 17.1697 53.252 18.195C53.4272 18.5839 53.6076 18.9589 53.7874 19.3274C53.9518 19.6774 54.1843 20.1003 54.2132 20.311C54.2484 20.4542 54.2717 20.6121 54.2842 20.7309C54.3176 20.9211 54.3185 21.2482 54.3182 21.6289C54.3178 22.2634 54.3304 22.8297 54.3714 23.3463C54.3684 24.148 54.4701 24.7316 54.5256 25.3869C54.5433 25.6188 54.5652 25.8903 54.579 26.1493C54.6033 26.3805 54.6329 26.5978 54.6512 26.8362C54.663 27.0754 54.6614 27.316 54.6477 27.5044C54.6424 27.6452 54.6322 27.7398 54.6139 27.8219C54.5779 27.9258 54.5555 27.9682 54.5034 28.0472C54.4512 28.1261 54.382 28.2336 54.2747 28.2983C54.0932 28.4243 53.8125 28.5005 53.4155 28.5557C52.994 28.6334 52.5645 28.6986 52.1744 28.8198C50.748 29.1101 49.5276 29.6993 48.08 30.4259C47.7308 30.6162 47.4763 30.7499 47.1089 30.8954C47.032 30.9302 47.0334 30.9434 46.9041 30.9904C46.1819 31.2734 45.4056 31.4886 44.5958 31.5137C44.5693 31.5165 44.5361 31.52 44.4829 31.5256C43.9402 31.5359 43.2273 31.5241 42.651 31.4712C42.0549 31.4204 41.5314 31.2952 41.1475 31.1553C40.8732 31.0372 40.513 30.8681 40.273 30.693C40.0044 30.5009 39.7061 30.2184 39.4183 29.908C39.1452 29.6095 38.89 29.2891 38.6368 28.9885C38.1391 28.4065 37.5102 27.5978 37.0332 27.0202C36.8956 26.8611 36.7273 26.6651 36.5904 26.5125C36.3225 26.2001 36.0453 25.862 35.7302 25.5479C35.1222 24.9374 34.4351 24.3418 33.6879 23.8127C33.4927 23.6797 33.2981 23.5532 33.0776 23.4362C32.9851 23.3858 32.7947 23.299 32.635 23.249C32.4673 23.1865 32.2964 23.1577 32.1283 23.1554C31.4325 23.1151 30.8842 23.6469 30.6756 24.2165C30.5968 24.4251 30.5741 24.5277 30.5415 24.6646C30.5148 24.7943 30.4948 24.9233 30.4815 25.0516C30.4621 25.3141 30.4539 25.5554 30.504 25.904C30.7323 26.9886 31.3196 27.7215 31.9 28.3884C32.0516 28.5527 32.2011 28.6973 32.3499 28.8352C32.7236 29.1966 33.0806 29.5264 33.4994 29.8696C34.0062 30.2838 34.5581 30.6798 35.1244 31.0209C35.4042 31.1918 35.6827 31.3495 35.8992 31.4937C36.1092 31.6386 36.2367 31.7654 36.3644 31.959C36.7168 32.4361 37.0056 33.2672 37.0121 34.0946C37.0147 34.5017 36.9522 34.929 36.8087 35.2246C36.7443 35.3783 36.6471 35.4754 36.5796 35.5359C36.5121 35.5964 36.4272 35.6187 36.3077 35.6313C36.0899 35.6675 35.7971 35.5648 35.5267 35.4196C35.0852 35.1789 34.7719 34.8178 34.6775 34.2401C34.5779 33.6762 34.7024 33.0087 34.8985 32.4471C34.9948 32.1498 35.119 31.863 35.2712 31.5865C35.4286 31.2961 35.5948 31.0249 35.7784 30.7919C35.9613 30.5522 36.1764 30.3627 36.3553 30.277C36.5357 30.2046 36.6161 30.2029 36.7873 30.2984C36.9585 30.3939 37.1509 30.6274 37.3122 30.8843C37.4801 31.1404 37.625 31.4324 37.7513 31.7396C38.0106 32.3534 38.2136 33.0066 38.3847 33.6764C38.7638 35.0456 39.0062 36.3291 38.7164 37.595C38.4354 38.8801 37.865 40.0954 36.9119 40.8635C36.6073 41.0959 36.1004 41.3829 35.7834 41.4964C35.711 41.5107 35.4968 41.58 35.3321 41.6107C34.7397 41.7866 33.9125 41.7734 33.0546 41.7234C32.8354 41.7465 32.3116 41.6814 31.9887 41.6753C31.8584 41.6489 32.1701 41.6762 31.9387 41.6472C31.6511 41.6574 31.12 41.5864 30.4589 41.4289C29.8065 41.2905 29.115 41.1629 28.6848 41.0946C28.7467 41.1081 28.754 41.114 28.6855 41.1012C28.4786 41.0495 28.379 41.06 28.147 41.0243C27.3685 40.8992 26.7017 40.8157 26.0504 40.7507C25.4004 40.6989 24.763 40.6391 24.0399 40.7218C23.8592 40.7275 23.401 40.7757 23.2458 40.8321C23.496 40.7857 23.8134 40.739 23.7903 40.7748C23.3786 40.8181 22.8351 40.9487 22.5698 41.0434C22.0755 41.1956 21.8155 41.2764 21.4005 41.4803C21.2985 41.5311 21.512 41.4552 21.288 41.5589C20.6357 41.868 20.3371 42.0931 19.8207 42.4813C19.679 42.603 19.1234 43.129 18.9674 43.3057C18.83 43.467 19.1388 43.1474 19.0185 43.2803C18.6279 43.7154 18.3117 44.156 18.0161 44.6011C17.9549 44.7211 17.9227 44.798 17.8153 44.9896C17.7481 45.1168 17.8104 44.9433 17.7163 45.1335C17.6281 45.3165 17.81 45.0035 17.8023 45.0577C17.6679 45.3123 17.7102 45.2677 17.6504 45.4009C17.4587 45.7483 17.3575 45.9994 17.2182 46.3346C17.073 46.6771 16.9186 47.0606 16.8073 47.4063C16.7176 47.7029 16.6976 47.8318 16.6055 48.1688C16.5337 48.4434 16.4637 48.6712 16.4086 48.9775C16.3855 49.1402 16.4447 48.8735 16.4019 49.1051C16.2335 50.1846 16.0917 51.2614 16.029 52.0694C16.1408 50.8355 16.2969 49.9576 16.452 48.8794C16.5024 48.7205 16.5421 48.3958 16.6132 48.2414C16.6188 48.1674 16.5502 48.4083 16.6062 48.1754C16.6251 48.0999 16.6409 48.0582 16.6763 47.9476C16.659 48.103 16.7231 47.8826 16.7613 47.7984C17.0236 46.9094 17.3154 46.2375 17.6842 45.5309C17.7507 45.3971 17.6262 45.6172 17.6972 45.4628C17.8361 45.1877 17.9561 44.9881 18.138 44.6751C18.21 44.5941 18.3573 44.3983 18.3027 44.5176C17.7129 45.4211 17.082 46.763 16.7563 48.006C16.6543 48.3773 16.5479 48.7692 16.5383 48.9973C16.64 48.4323 16.7881 47.9893 16.9467 47.5185C17.1445 46.91 17.3986 46.2622 17.6956 45.7034C17.7747 45.5615 17.8254 45.4693 17.8926 45.3421C17.9545 45.2287 18.042 45.0392 18.1165 44.9178C18.197 44.7891 18.2103 44.7877 18.2788 44.6737C18.4226 44.4448 18.5248 44.2671 18.7077 44.0275C19.0148 43.6279 19.3606 43.2777 19.7715 42.9072C19.8522 42.8453 19.8305 42.8943 19.7386 42.9774C19.2616 43.4216 19.1829 43.5034 18.7675 44.0212C18.815 43.9628 18.8454 43.9329 18.8461 43.9395C18.722 44.0995 18.6671 44.152 18.5992 44.2727C18.893 43.8745 18.9 43.9405 18.8076 44.0838C18.0626 45.0437 17.4146 46.4141 17.0834 47.3505C17.0547 47.4604 17.0484 47.5278 16.9993 47.6999C16.6621 48.7705 16.5125 50.0284 16.3506 51.2342C16.5762 49.8681 16.6858 48.4208 17.2808 46.929C17.3084 46.8727 17.3007 46.927 17.3584 46.774C17.6007 46.1408 17.9761 45.4334 18.2437 44.9779C18.385 44.7894 18.527 44.6075 18.6638 44.4395C19.6221 43.0832 20.6825 42.3773 22.1335 41.8106C22.1349 41.8238 22.2457 41.7921 22.2981 41.7799C22.1961 41.8307 22.0814 41.8895 21.9793 41.9403C21.7413 42.0388 21.5113 42.1498 21.3071 42.2515C20.7366 42.5719 20.0936 43.0336 19.5191 43.635C18.9445 44.2363 18.4649 44.9746 18.0996 45.7143C18.0261 45.909 18.1192 45.7723 18.201 45.6569C18.5852 44.9687 18.949 44.3427 19.5256 43.7612C19.7693 43.5886 19.5724 43.823 19.188 44.3176C18.5333 45.1144 17.718 46.8096 17.517 47.4518C17.266 48.1928 17.102 48.9313 16.9907 49.7243C16.8728 50.5181 16.7623 51.3177 16.6716 52.1153C16.491 53.717 16.359 55.3337 16.3041 56.9823C16.3874 55.1571 16.5111 53.4611 16.7294 51.8354C16.7162 51.8368 16.7239 51.7826 16.7372 51.6543C16.8412 50.8553 16.9661 50.0007 17.0907 49.2063C17.2299 48.4236 17.4404 47.6802 17.6885 47.0397C17.9167 46.5282 18.3989 45.4958 18.7329 45.0333C18.7017 45.1835 18.4831 45.5938 18.2252 46.1418C18.5016 45.5785 18.7944 45.1069 19.0809 44.7028C19.3072 44.3651 19.7611 43.8299 19.916 43.7067C19.9531 43.6761 19.8936 43.7492 19.9604 43.682C19.838 43.7951 20.1674 43.4799 20.1985 43.4566C20.3573 43.3064 20.3269 43.3363 20.5248 43.1752C20.7929 42.98 20.7863 42.9807 20.9705 42.8812C21.933 42.2657 23.0155 41.8981 24.1664 41.797C24.2793 41.7852 24.5065 41.7746 24.5271 41.7791C24.6281 41.7819 24.5417 41.7909 24.6833 41.7961C24.7637 41.7943 24.7298 41.7912 24.844 41.7925C25.2893 41.8125 25.8337 41.8821 26.3103 41.9455C27.5089 42.1065 28.9391 42.3634 29.8934 42.5635C30.1069 42.6145 29.8204 42.5712 30.1083 42.6277C30.5067 42.7127 30.9696 42.8377 31.4655 42.8923C31.9547 42.9477 32.3741 42.9771 32.8479 43.014C33.767 43.0709 34.7797 43.1247 35.8315 42.847C35.9881 42.8039 35.8668 42.8634 36.101 42.792C36.3862 42.6952 36.3131 42.7029 36.5571 42.5971C36.719 42.54 36.8522 42.4659 36.9364 42.437C38.0505 41.859 38.9102 40.8402 39.4127 39.7456C39.6758 39.1836 39.8474 38.6447 39.9942 38.0616C40.1329 37.466 40.2025 36.851 40.1857 36.245C40.1658 35.0985 39.868 34.0546 39.6177 33.0792C39.3373 32.0736 39.0252 31.0847 38.4275 30.1258C38.1806 29.7578 37.8904 29.3609 37.3563 29.0698C37.0932 28.9306 36.7546 28.8393 36.4272 28.8537C36.0931 28.8688 35.7959 28.9802 35.5687 29.1177C35.1009 29.3939 34.8142 29.7313 34.5658 30.0513C34.3182 30.3778 34.1185 30.7127 33.9498 31.0243C33.4838 31.9549 33.2169 32.8644 33.2163 33.8796C33.2219 34.3799 33.3187 34.9173 33.5795 35.4174C33.8343 35.9249 34.274 36.3394 34.7383 36.6044C35.0814 36.8021 35.4601 36.9559 35.9028 37.0162C36.3323 37.0778 36.8967 37.0185 37.3331 36.6987C37.7642 36.3929 37.9902 35.9885 38.1274 35.6335C38.2705 35.2712 38.3228 34.9384 38.3579 34.6342C38.3762 34.4253 38.3771 34.1781 38.372 33.9382C38.361 33.5787 38.3228 33.2155 38.2455 32.863C38.135 32.3871 37.9654 31.9241 37.7102 31.4768C37.4896 31.0392 37.0363 30.5593 36.6132 30.3033C36.1521 30.0046 35.7898 29.8156 35.4272 29.5599C35.066 29.3175 34.716 29.0538 34.3772 28.7689C33.9877 28.4492 33.613 28.1414 33.2738 27.7897C33.0416 27.5604 32.8331 27.3018 32.6253 27.0499C32.3466 26.6986 32.0918 26.318 31.9613 25.9711C31.8946 25.7845 31.8615 25.6611 31.8567 25.4879C31.8506 25.3016 31.8702 25.1059 31.9133 24.941C31.9459 24.8041 31.9571 24.7828 31.9802 24.747C32.0033 24.7112 32.0264 24.6754 32.0641 24.6514C32.1396 24.6034 32.2368 24.6332 32.3074 24.6659C32.7182 24.8697 33.2516 25.2811 33.7144 25.6598C34.7515 26.519 35.7613 27.8219 36.64 28.8981C37.3237 29.7812 38.014 30.6635 39.0336 31.6114C39.145 31.7132 39.219 31.7789 39.3504 31.8786C40.2803 32.5487 41.3813 32.867 42.4314 32.9569C42.9465 33.0028 43.4368 33.0047 43.8806 33.0114C44.3562 33.0014 44.8053 32.9943 45.2229 32.9436C45.8437 32.8449 46.3781 32.7553 46.9359 32.5698C47.5403 32.3793 48.0566 32.1179 48.5597 31.858C48.7194 31.7811 48.8858 31.7035 49.0456 31.6266C49.5493 31.3732 50.0125 31.1175 50.5529 30.8937C51.3559 30.5487 52.2517 30.3209 53.2454 30.1296C53.5932 30.0529 54.1852 30.0641 54.856 29.7397C55.1881 29.5779 55.4979 29.3316 55.7277 29.027C55.97 28.7143 56.1045 28.3329 56.1529 28.0272C56.2521 27.5026 56.2269 27.0712 56.203 26.653C56.1725 26.2354 56.1308 25.8391 56.0958 25.4421C56.0131 24.6561 55.9437 23.8687 55.9207 23.0764C55.9043 22.5372 55.922 22.0679 55.9056 21.5287C55.9236 21.253 55.9465 20.8966 55.8895 20.4819C55.8679 20.2772 55.8205 20.0818 55.7745 19.8997L55.74 19.763C55.7278 19.7109 55.6901 19.608 55.6793 19.5691L55.5624 19.2875C55.271 18.6237 54.975 17.9803 54.6644 17.3251C54.2243 16.3964 53.6623 15.2668 53.3434 14.5324C53.2786 14.1719 52.7914 13.562 52.2747 12.8618C52.0278 12.4937 52.0844 12.5212 51.9985 12.3432C51.7552 12.0082 51.502 11.7076 51.1597 11.3897C50.9728 11.209 50.7874 11.0415 50.5282 10.8751C50.2703 10.7219 49.8881 10.5351 49.3408 10.5659C49.2877 10.5715 49.2346 10.5771 49.1755 10.59L49.1895 10.5952ZM19.025 43.4065C19.025 43.4065 19.0118 43.4078 18.9754 43.4451C19.044 43.331 19.2663 43.1473 19.025 43.4065ZM18.9484 43.508C18.6127 43.8906 18.2248 44.479 18.0289 44.7868C17.9775 44.8723 18.0964 44.7263 18.024 44.8674C17.9019 45.0472 17.77 45.2615 17.6028 45.5862C17.5496 45.5918 17.9194 44.9586 17.9079 44.913C18.0503 44.671 18.1321 44.5555 18.1867 44.4363C18.526 43.9598 18.5879 43.8464 18.882 43.515C18.8261 43.6211 18.9443 43.4684 18.9418 43.5087L18.9484 43.508Z" fill="white"/>
<path fill-rule="evenodd" clip-rule="evenodd" d="M48.5777 23.0081C48.5777 23.0081 48.5667 23.0371 48.5473 23.0531C48.5459 23.0393 48.5576 23.0172 48.5777 23.0081Z" fill="white"/>
<path fill-rule="evenodd" clip-rule="evenodd" d="M47.0641 22.6826C47.0641 22.6826 47.0298 22.7396 47.0211 22.7205C47.0389 22.6986 47.0515 22.6906 47.0641 22.6826Z" fill="white"/>
<path fill-rule="evenodd" clip-rule="evenodd" d="M46.9879 22.7223C46.9879 22.7223 46.9574 22.7522 46.9529 22.7727C46.9448 22.7602 46.9819 22.7296 46.9879 22.7223Z" fill="white"/>
<path fill-rule="evenodd" clip-rule="evenodd" d="M46.9734 23.0388C46.9734 23.0388 46.951 23.0812 46.9385 23.0892C46.9371 23.076 46.9689 23.0593 46.9734 23.0388Z" fill="white"/>
<path fill-rule="evenodd" clip-rule="evenodd" d="M46.7402 22.9813C46.7402 22.9813 46.7126 23.0376 46.6822 23.0675C46.6801 23.0477 46.7164 23.0105 46.7402 22.9813Z" fill="white"/>
<path fill-rule="evenodd" clip-rule="evenodd" d="M47.3328 23.8877C47.3031 23.9242 47.2457 24.017 47.2066 24.0278C47.2562 23.9892 47.2891 23.919 47.3328 23.8877Z" fill="white"/>
<path fill-rule="evenodd" clip-rule="evenodd" d="M46.8891 23.7022C46.8695 23.771 46.7695 23.8416 46.73 23.9126C46.7027 23.9088 46.8073 23.8176 46.8104 23.7839C46.8223 23.7693 46.8349 23.7613 46.8541 23.7526C46.8653 23.7314 46.8692 23.7043 46.895 23.6949L46.8891 23.7022Z" fill="white"/>
<path fill-rule="evenodd" clip-rule="evenodd" d="M46.3333 24.283C46.3333 24.283 46.3494 24.3022 46.337 24.3175C46.33 24.3182 46.3231 24.3189 46.3154 24.3128L46.3403 24.2822L46.3333 24.283Z" fill="white"/>
<path fill-rule="evenodd" clip-rule="evenodd" d="M46.2703 24.6475C46.2626 24.7018 46.1926 24.8026 46.1503 24.8472C46.151 24.8538 46.1517 24.8604 46.1464 24.8743C46.13 24.9094 46.0765 24.9751 46.1227 24.9035C46.1594 24.8061 46.2203 24.7463 46.2769 24.6468L46.2703 24.6475Z" fill="white"/>
<path fill-rule="evenodd" clip-rule="evenodd" d="M46.0527 24.5434C46.0527 24.5434 46.0429 24.5778 46.0251 24.5997C46.0237 24.5865 46.0401 24.5514 46.0527 24.5434Z" fill="white"/>
<path fill-rule="evenodd" clip-rule="evenodd" d="M46.532 24.9567C46.532 24.9567 46.503 24.9999 46.4977 25.0138C46.4964 25.0006 46.5128 24.9654 46.532 24.9567Z" fill="white"/>
<path fill-rule="evenodd" clip-rule="evenodd" d="M46.0831 24.6428C46.0831 24.6428 46.0495 24.7064 46.0456 24.7335C46.0191 24.7363 46.0659 24.6713 46.0831 24.6428Z" fill="white"/>
<path fill-rule="evenodd" clip-rule="evenodd" d="M46.0004 24.635C46.0004 24.635 45.9734 24.698 45.957 24.7331C45.9542 24.7067 45.9839 24.6702 46.0004 24.635Z" fill="white"/>
<path fill-rule="evenodd" clip-rule="evenodd" d="M46.5913 25.0765C46.5913 25.0765 46.5881 25.1103 46.5835 25.1308C46.5755 25.1183 46.5867 25.0971 46.5913 25.0765Z" fill="white"/>
<path fill-rule="evenodd" clip-rule="evenodd" d="M46.473 25.0417C46.473 25.0417 46.4296 25.1398 46.3999 25.1763C46.415 25.1279 46.4381 25.0921 46.473 25.0417Z" fill="white"/>
<path fill-rule="evenodd" clip-rule="evenodd" d="M45.9457 24.7487C45.9439 24.7957 45.8957 24.8475 45.8719 24.8767C45.881 24.8357 45.9306 24.7971 45.9457 24.7487Z" fill="white"/>
<path fill-rule="evenodd" clip-rule="evenodd" d="M46.0824 24.9613C46.0824 24.9613 46.0667 25.003 46.0621 25.0235C46.0415 25.019 46.0646 24.9832 46.0824 24.9613Z" fill="white"/>
<path fill-rule="evenodd" clip-rule="evenodd" d="M46.0059 24.9965C46.0059 24.9965 45.9961 25.0309 45.9789 25.0594C45.9775 25.0462 46.0013 25.017 46.0059 24.9965Z" fill="white"/>
<path fill-rule="evenodd" clip-rule="evenodd" d="M45.9227 25.0388C45.9227 25.0388 45.903 25.1076 45.8877 25.0892C45.8929 25.0753 45.9003 25.0812 45.9076 25.0871C45.9195 25.0725 45.9055 25.0673 45.9234 25.0454L45.9227 25.0388Z" fill="white"/>
<path fill-rule="evenodd" clip-rule="evenodd" d="M46.1961 25.334C46.2367 25.253 46.1918 25.2926 46.1961 25.334Z" fill="white"/>
<path fill-rule="evenodd" clip-rule="evenodd" d="M46.3351 25.4446C46.3351 25.4446 46.338 25.4722 46.3318 25.4798C46.331 25.4729 46.3289 25.4522 46.3351 25.4446Z" fill="white"/>
<path fill-rule="evenodd" clip-rule="evenodd" d="M46.3633 25.4609C46.3633 25.4609 46.3786 25.4794 46.3647 25.4741L46.3633 25.4609Z" fill="white"/>
<path fill-rule="evenodd" clip-rule="evenodd" d="M46.5424 25.5155C46.5079 25.5057 46.4002 25.5037 46.3457 25.4961C46.3457 25.4961 46.5145 25.505 46.5424 25.5155Z" fill="white"/>
<path fill-rule="evenodd" clip-rule="evenodd" d="M46.0515 25.5067C46.0005 25.5321 45.9812 25.5408 46.0515 25.5067Z" fill="white"/>
<path fill-rule="evenodd" clip-rule="evenodd" d="M47.2863 24.4746C47.2863 24.4746 47.2758 24.5024 47.2772 24.5156C47.244 24.5191 47.229 24.5674 47.2045 24.5901C47.2129 24.5424 47.2653 24.5302 47.293 24.4739L47.2863 24.4746Z" fill="white"/>
<path fill-rule="evenodd" clip-rule="evenodd" d="M46.4299 24.9437C46.4299 24.9437 46.4107 24.9524 46.4061 24.9729C46.3995 24.9736 46.4047 24.9597 46.4047 24.9597C46.381 24.9889 46.3771 25.0161 46.3593 25.038L46.3579 25.0248C46.3627 25.071 46.2918 25.0985 46.2669 25.1812C46.2712 25.094 46.396 24.9406 46.4355 24.8697C46.4443 24.8888 46.3887 24.9347 46.404 24.9531C46.4187 24.9649 46.4271 24.9173 46.4432 24.9423L46.4299 24.9437Z" fill="white"/>
<path fill-rule="evenodd" clip-rule="evenodd" d="M45.9965 24.7852C46.0039 24.7911 45.9801 24.8203 45.9734 24.821C45.9721 24.8078 46.0287 24.7083 45.9892 24.7793L45.9965 24.7852Z" fill="white"/>
<path fill-rule="evenodd" clip-rule="evenodd" d="M45.791 25.385L45.7711 25.3871C45.7494 25.4361 45.765 25.5213 45.7486 25.5564C45.721 25.4859 45.7742 25.3534 45.762 25.3012C45.768 25.2939 45.7725 25.2734 45.7851 25.2654C45.809 25.1093 45.9086 24.9719 45.9744 24.8314C45.9835 24.9173 45.8471 25.0252 45.8575 25.1242C45.8523 25.1381 45.8575 25.1242 45.8568 25.1176C45.8365 25.1799 45.768 25.2939 45.7917 25.3916L45.791 25.385Z" fill="white"/>
<path fill-rule="evenodd" clip-rule="evenodd" d="M46.3984 25.4762C46.3984 25.4762 46.4061 25.4823 46.4137 25.4885C46.4137 25.4885 46.3845 25.4776 46.3984 25.4762Z" fill="white"/>
<path fill-rule="evenodd" clip-rule="evenodd" d="M47.72 24.3824C47.6801 24.3866 47.6364 24.4179 47.5973 24.4287C47.4984 24.4458 47.4047 24.4489 47.3079 24.4858C47.2236 24.5147 47.1474 24.5561 47.0566 24.5857C46.9915 24.6059 46.9723 24.6146 46.9272 24.6327C46.8045 24.679 46.693 24.7041 46.6521 24.7619C46.5706 24.8172 46.4679 24.8614 46.4063 24.9146C46.3931 24.916 46.3738 24.9247 46.3679 24.932C46.2256 25.0471 46.1014 25.2071 46.0399 25.2603C46.0465 25.2597 46.0213 25.4025 46.0195 25.4495C46.0104 25.4905 45.9834 25.5534 45.9887 25.5395C45.9834 25.5534 45.9768 25.5541 45.9768 25.5541C45.9768 25.5541 45.9953 25.5388 45.9576 25.5628C45.945 25.5709 45.9457 25.5775 45.9397 25.5848C45.8397 25.6554 45.8037 25.7593 45.7142 25.8022C45.7533 25.9183 45.7096 25.9496 45.7804 26.049C45.8265 26.1042 45.9464 26.1584 46.0096 26.1851C46.0802 26.2178 46.1361 26.2386 46.2133 26.2705C46.2168 26.3036 46.2905 26.3025 46.3132 26.3268C46.4009 26.3309 46.4701 26.3504 46.5512 26.3552C46.5592 26.3677 46.5791 26.3656 46.5879 26.3847C46.758 26.4069 46.9156 26.4371 47.1082 26.4168C47.1281 26.4147 47.168 26.4105 47.1813 26.4091C47.3186 26.3746 47.5224 26.3332 47.6062 26.3644C47.6328 26.3616 47.6248 26.3491 47.6513 26.3463C47.6733 26.364 47.7499 26.3894 47.8089 26.3765C47.8288 26.3744 47.8579 26.3313 47.9037 26.3198C47.9687 26.2996 48.0452 26.3249 48.1036 26.3054C48.1301 26.3026 48.1532 26.2668 48.185 26.2501C48.2619 26.2153 48.4213 26.1985 48.4884 26.1981C48.5415 26.1926 48.5642 26.2169 48.6034 26.2061C48.6366 26.2026 48.6597 26.1668 48.6495 26.1344C48.7401 26.0381 49.0113 26.063 49.1599 26.0073C49.2755 26.0218 49.3835 25.9637 49.4971 25.9585C49.517 25.9564 49.545 25.9668 49.5716 25.964C49.6114 25.9598 49.6565 25.9417 49.7089 25.9295C49.7946 25.9138 49.8683 25.9127 49.9333 25.8925C50.0451 25.9342 50.1192 25.873 50.2136 25.8764C50.2468 25.8729 50.2821 25.8892 50.3219 25.885C50.3551 25.8815 50.3876 25.8714 50.4282 25.8739C50.468 25.8697 50.5033 25.886 50.5372 25.8891C50.5638 25.8863 50.5903 25.8835 50.6102 25.8814C50.6368 25.8786 50.6581 25.8897 50.6913 25.8862C50.7245 25.8827 50.7563 25.866 50.7895 25.8626C50.9157 25.8493 51.0639 25.8537 51.1932 25.8067C51.441 25.8007 51.6738 25.7161 52.0174 25.5998C52.0929 25.5518 52.1499 25.5191 52.2327 25.477C52.2513 25.4617 52.2439 25.4558 52.2684 25.4332C52.4334 25.3423 52.5516 25.1897 52.682 25.0891C52.6813 25.0825 52.6807 25.0759 52.6859 25.062C52.8653 24.9162 53.037 24.6978 53.1073 24.5368C53.1979 24.4405 53.263 24.2934 53.334 24.139C53.3736 24.0681 53.4131 23.9971 53.4387 23.921C53.4831 23.7694 53.5573 23.5813 53.577 23.3855C53.5781 23.332 53.5652 23.2732 53.5729 23.219C53.5758 23.1185 53.5846 23.0108 53.5602 22.9065C53.5199 22.5234 53.1176 22.0181 53.1637 22.0733C53.0491 22.1322 52.9701 22.1471 52.9966 22.1443C52.9966 22.1443 53.0298 22.1409 53.0564 22.1381C53.063 22.1374 53.0092 22.1363 53.0092 22.1363L53.1602 22.1672L53.2171 22.1345C53.2483 22.1112 53.2521 22.0841 53.2766 22.0615C53.3116 22.011 53.3333 21.962 53.3557 21.9196C53.3774 21.8706 53.3865 21.8295 53.3956 21.7885C53.425 21.6852 53.4638 21.6077 53.4747 21.5197C53.4849 21.4252 53.5196 21.308 53.4393 21.1829C53.4055 21.0529 53.3332 20.9403 53.2623 20.8409C53.0367 20.6108 52.5885 20.3708 52.1688 20.2747C52.0685 20.2786 51.9899 20.2335 51.8875 20.2175C51.5944 20.1749 51.3745 20.1913 51.1366 20.163C50.6689 20.1854 50.1922 20.2489 49.7193 20.4122C49.2464 20.5755 48.8258 20.8535 48.5023 21.1613C48.438 21.1881 48.3593 21.2699 48.331 21.3196C48.3111 21.3217 48.2866 21.3443 48.2614 21.3603C48.2047 21.4598 48.0848 21.5325 48.0009 21.6281C48.0058 21.6744 47.9229 21.7165 47.9078 21.7648C47.8813 21.7676 47.9184 21.737 47.8865 21.7537C47.8704 21.8556 47.648 22.0392 47.5781 22.1401C47.5847 22.1394 47.5913 22.1387 47.5788 22.1467C47.5463 22.1568 47.5564 22.1891 47.5319 22.2117C47.3819 22.3811 47.3108 22.5355 47.1933 22.6948C47.1681 22.7108 47.1105 22.7369 47.1073 22.7706C47.1318 22.748 47.1615 22.7115 47.1769 22.7299C47.1339 22.7678 47.087 22.8329 47.0779 22.8739C47.0296 22.9257 46.9985 22.949 46.9642 23.0061C46.9523 23.0207 46.9915 23.0099 46.967 23.0325C46.8869 23.101 46.8719 23.1493 46.8044 23.2099C46.8079 23.2429 46.7365 23.3305 46.7047 23.3472C46.6942 23.375 46.7372 23.3371 46.726 23.3583C46.6791 23.4234 46.6323 23.4884 46.57 23.535C46.5721 23.5548 46.5742 23.5747 46.5504 23.6039C46.5385 23.6185 46.5351 23.5855 46.5246 23.6133C46.5141 23.6411 46.5578 23.6098 46.5665 23.6289C46.5434 23.6647 46.5574 23.6699 46.5595 23.6897C46.5098 23.7284 46.508 23.7753 46.479 23.8184C46.4507 23.8681 46.4077 23.9061 46.3786 23.9492C46.3555 23.985 46.3583 24.0114 46.3226 24.0552C46.2989 24.0845 46.2604 24.1019 46.238 24.1443C46.2268 24.1655 46.2646 24.1415 46.2408 24.1707C46.1471 24.3008 46.0607 24.4367 46.0186 24.548C46.0876 24.3738 46.2002 24.2952 46.2719 24.1474C46.3051 24.1439 46.3055 24.0838 46.3453 24.0796C46.344 24.0664 46.3121 24.0831 46.3366 24.0605C46.3426 24.0531 46.3492 24.0524 46.3611 24.0378C46.3646 24.0709 46.3884 24.0417 46.409 24.0462C46.4922 23.9439 46.5496 23.8511 46.6209 23.7634C46.6321 23.7422 46.601 23.7655 46.6188 23.7436C46.6419 23.7078 46.6664 23.6852 46.6954 23.642C46.722 23.6393 46.7472 23.6232 46.7566 23.649C46.6548 23.7665 46.5467 23.9515 46.4351 24.1035C46.3995 24.1473 46.3498 24.1859 46.354 24.2256C46.4002 24.1539 46.4638 24.1205 46.512 24.0687C46.5722 24.0023 46.6156 23.9042 46.6757 23.8378C46.6943 23.8225 46.7069 23.8145 46.7187 23.7999C46.7306 23.7853 46.7404 23.7508 46.7523 23.7362C46.7642 23.7216 46.7782 23.7268 46.7901 23.7122C46.8139 23.683 46.8237 23.6486 46.8468 23.6128C46.895 23.5609 46.9573 23.5143 47.0048 23.4559C47.0181 23.4545 47.0328 23.4663 47.0216 23.4875C46.9621 23.5606 46.9495 23.5686 46.8901 23.6416C46.8967 23.6409 46.9093 23.6329 46.91 23.6395C46.8922 23.6614 46.8789 23.6628 46.875 23.6899C46.9233 23.6381 46.946 23.6624 46.9428 23.6962C46.8218 23.8224 46.6998 24.0022 46.5966 24.1066C46.5987 24.1264 46.6001 24.1396 46.5829 24.1681C46.4899 24.3048 46.3696 24.4376 46.2846 24.5868C46.4241 24.4453 46.5329 24.2669 46.6676 24.0791C46.6742 24.0784 46.6822 24.0909 46.6934 24.0697C46.7448 23.9841 46.8228 23.8958 46.8638 23.838L46.9746 23.8063C47.1218 23.6105 47.3015 23.5315 47.4582 23.3615C47.4662 23.374 47.4847 23.3587 47.498 23.3573C47.5001 23.3771 47.5022 23.3969 47.491 23.4181C47.4672 23.4473 47.4441 23.4831 47.4189 23.4991C47.3227 23.6695 47.1143 23.8584 46.981 24.0594C46.9852 24.0991 47.0111 24.0897 47.0376 24.0869C47.123 24.0044 47.1664 23.9064 47.2664 23.8358C47.3408 23.8413 47.3404 23.9014 47.2809 23.9745C47.1732 24.0993 47.0351 24.2541 46.94 24.371C46.6958 24.7305 46.394 25.1162 46.3057 25.426C46.3708 25.279 46.4622 25.0623 46.6062 24.9002C46.5996 24.9009 46.5982 24.8877 46.6035 24.8738C46.7329 24.6999 46.8801 24.5041 46.9903 24.3389C47.0665 24.2975 47.1383 24.1497 47.2211 24.1076C47.2466 24.1584 47.227 24.2272 47.1815 24.3055C47.2343 24.2331 47.3032 24.1858 47.3507 24.1274C47.3931 24.0829 47.4504 23.99 47.4822 23.9733C47.4889 23.9726 47.4836 23.9865 47.4955 23.9719C47.477 23.9872 47.5252 23.9354 47.5246 23.9288C47.5417 23.9003 47.5351 23.901 47.5655 23.8711C47.6018 23.8338 47.6018 23.8338 47.6337 23.8171C47.7547 23.6909 47.861 23.5528 47.9893 23.4325C48.0071 23.4106 48.0257 23.3952 48.0316 23.3879C48.0442 23.3799 48.0456 23.3931 48.0582 23.3851C48.0708 23.3771 48.0568 23.3719 48.0687 23.3573C48.1176 23.3121 48.1785 23.2523 48.2267 23.2005C48.3477 23.0742 48.4932 22.9253 48.5904 22.8283C48.6149 22.8057 48.5925 22.8481 48.6303 22.8241C48.8075 22.6585 48.9841 22.4863 49.1628 22.334C49.1754 22.326 49.1775 22.3458 49.196 22.3305C49.2212 22.3145 49.1992 22.2968 49.2243 22.2808C49.2443 22.2787 49.2568 22.2707 49.2708 22.2759C49.4827 22.12 49.6673 21.9604 49.8701 21.8455C50.061 21.7453 50.2619 21.6774 50.479 21.6345C50.6503 21.6032 50.8135 21.5593 50.9763 21.5755C51.1689 21.5553 51.4195 21.5757 51.5292 21.5975C51.5704 21.6065 51.6123 21.6222 51.6529 21.6246C51.6595 21.6239 51.6794 21.6218 51.6861 21.6211C51.6994 21.6197 51.6882 21.6409 51.7021 21.6461C51.7234 21.6572 51.7773 21.6582 51.7933 21.6833C51.8167 21.7142 51.801 21.7559 51.7758 21.7719C51.7639 21.7865 51.7653 21.7997 51.76 21.8136C51.7548 21.8276 51.7356 21.8363 51.7303 21.8502C51.7258 21.8707 51.7219 21.8978 51.7114 21.9256C51.6998 22.007 51.6949 22.0876 51.7039 22.1735C51.708 22.34 51.7593 22.5083 51.8137 22.6428C51.8863 22.8221 51.9799 22.9458 52.0207 23.015C52.0528 23.0651 52.0528 23.0651 52.0755 23.0894C52.0825 23.1554 52.0846 23.1752 52.0691 23.2837C52.0097 23.3568 52.0082 23.4704 51.933 23.5852C51.9277 23.5991 51.9145 23.6005 51.9092 23.6144C51.791 23.7671 51.6731 23.9865 51.5539 24.0658C51.5322 24.1149 51.4798 24.1271 51.4479 24.1438C51.4095 24.1612 51.3864 24.197 51.3479 24.2144C51.3347 24.2158 51.3214 24.2172 51.3081 24.2186C51.2683 24.2228 51.2385 24.2593 51.1861 24.2715C51.1085 24.2997 50.9981 24.2712 50.8806 24.3036C50.779 24.2943 50.6234 24.2839 50.492 24.3111C50.2673 24.2813 50.0311 24.3329 49.7826 24.3323C49.7022 24.3341 49.6257 24.3088 49.5415 24.3377C49.4523 24.3203 49.3475 24.3447 49.2406 24.3493C49.1675 24.357 49.0061 24.3539 48.9124 24.3571C48.753 24.3739 48.5625 24.4139 48.4381 24.3803C48.3673 24.2809 48.2917 24.4558 48.1641 24.4559C48.0956 24.443 48.0995 24.4159 48.0621 24.3798C48.001 24.3729 47.9492 24.3917 47.8909 24.4112C47.8244 24.4181 47.7658 24.3709 47.6742 24.3939L47.72 24.3824ZM46.834 23.4271C46.834 23.4271 46.8273 23.4278 46.8207 23.4285C46.8179 23.4021 46.8703 23.3899 46.834 23.4271ZM46.8294 23.4476C46.7818 23.5061 46.7304 23.5916 46.6867 23.6229C46.6741 23.6309 46.7147 23.6333 46.7035 23.6546C46.6716 23.6713 46.6472 23.6939 46.6108 23.7311C46.5748 23.7082 46.6622 23.6455 46.6388 23.6146C46.6693 23.5847 46.6811 23.5701 46.6784 23.5437C46.7399 23.4904 46.7364 23.4574 46.7861 23.4188C46.7889 23.4452 46.806 23.4167 46.8221 23.4417L46.8294 23.4476Z" fill="white"/>
<path fill-rule="evenodd" clip-rule="evenodd" d="M51.1414 21.6827C51.1414 21.6827 51.1545 21.6743 51.1684 21.6729C51.1698 21.6867 51.1567 21.695 51.1414 21.6827Z" fill="white"/>
<path fill-rule="evenodd" clip-rule="evenodd" d="M51.6118 22.9693C51.6118 22.9693 51.6312 22.9534 51.6333 22.974C51.6264 22.9748 51.6195 22.9755 51.6118 22.9693Z" fill="white"/>
<path fill-rule="evenodd" clip-rule="evenodd" d="M51.6348 23C51.6348 23 51.6486 22.9985 51.6556 22.9978C51.657 23.0116 51.6424 23.0062 51.6348 23Z" fill="white"/>
<path fill-rule="evenodd" clip-rule="evenodd" d="M51.7155 22.7991C51.7155 22.7991 51.7348 22.7831 51.7363 22.7969C51.7377 22.8107 51.7224 22.7984 51.7155 22.7991Z" fill="white"/>
<path fill-rule="evenodd" clip-rule="evenodd" d="M51.7509 23.0088C51.7509 23.0088 51.7703 22.9928 51.7849 22.9983C51.7794 23.0128 51.7648 23.0074 51.7509 23.0088Z" fill="white"/>
<path fill-rule="evenodd" clip-rule="evenodd" d="M51.9219 21.9688C51.9219 21.9688 52.0082 21.9597 52.0243 21.9847C51.9956 21.9677 51.9572 21.9851 51.9219 21.9688Z" fill="white"/>
<path fill-rule="evenodd" clip-rule="evenodd" d="M51.9453 22.4336C51.9453 22.4336 52.0204 22.4457 52.0596 22.4349C52.0624 22.4613 52.0058 22.4339 51.9939 22.4485C51.9872 22.4492 51.9799 22.4433 51.9726 22.4374C51.9659 22.4381 51.954 22.4527 51.946 22.4402L51.9453 22.4336Z" fill="white"/>
<path fill-rule="evenodd" clip-rule="evenodd" d="M52.2477 22.5621C52.2477 22.5621 52.2525 22.5407 52.2671 22.5461C52.2671 22.5461 52.2685 22.5599 52.2692 22.5668L52.2554 22.5682L52.2477 22.5621Z" fill="white"/>
<path fill-rule="evenodd" clip-rule="evenodd" d="M52.4363 22.4563C52.4363 22.4563 52.5181 22.4678 52.5342 22.4928C52.5342 22.4928 52.5401 22.4855 52.5474 22.4914C52.5674 22.4893 52.5981 22.5261 52.5621 22.5032C52.5142 22.4949 52.4849 22.4713 52.4297 22.457L52.4363 22.4563Z" fill="white"/>
<path fill-rule="evenodd" clip-rule="evenodd" d="M52.3613 22.6836C52.3613 22.6836 52.3752 22.6821 52.3891 22.6807C52.3829 22.6883 52.3613 22.6836 52.3613 22.6836Z" fill="white"/>
<path fill-rule="evenodd" clip-rule="evenodd" d="M52.6426 22.1211C52.6426 22.1211 52.6718 22.132 52.6864 22.1374C52.6725 22.1389 52.6517 22.1411 52.6426 22.1211Z" fill="white"/>
<path fill-rule="evenodd" clip-rule="evenodd" d="M52.4141 22.6172C52.4141 22.6172 52.4418 22.6143 52.4557 22.6128C52.4579 22.6335 52.4279 22.6157 52.4141 22.6172Z" fill="white"/>
<path fill-rule="evenodd" clip-rule="evenodd" d="M52.4004 22.6875C52.4004 22.6875 52.4282 22.6846 52.4428 22.69C52.4289 22.6915 52.415 22.6929 52.4004 22.6875Z" fill="white"/>
<path fill-rule="evenodd" clip-rule="evenodd" d="M52.7363 22.0352C52.7363 22.0352 52.7641 22.0322 52.778 22.0308C52.7656 22.046 52.7502 22.0337 52.7363 22.0352Z" fill="white"/>
<path fill-rule="evenodd" clip-rule="evenodd" d="M52.7012 22.1523C52.7012 22.1523 52.7637 22.1725 52.7857 22.1902C52.7518 22.1871 52.7298 22.1694 52.7012 22.1523Z" fill="white"/>
<path fill-rule="evenodd" clip-rule="evenodd" d="M52.4493 22.6962C52.4493 22.6962 52.4846 22.7125 52.4986 22.7177C52.4787 22.7198 52.4685 22.6875 52.4493 22.6962Z" fill="white"/>
<path fill-rule="evenodd" clip-rule="evenodd" d="M52.5918 22.5117C52.5918 22.5117 52.6126 22.5095 52.6272 22.515C52.6155 22.5371 52.6064 22.5172 52.5918 22.5117Z" fill="white"/>
<path fill-rule="evenodd" clip-rule="evenodd" d="M52.5977 22.5742C52.5977 22.5742 52.6185 22.572 52.6269 22.5851C52.6207 22.5927 52.6046 22.5735 52.5977 22.5742Z" fill="white"/>
<path fill-rule="evenodd" clip-rule="evenodd" d="M52.5909 22.6399C52.5909 22.6399 52.6256 22.6362 52.607 22.6591C52.6 22.6599 52.6063 22.6522 52.6055 22.6453C52.6048 22.6384 52.5917 22.6468 52.584 22.6406L52.5909 22.6399Z" fill="white"/>
<path fill-rule="evenodd" clip-rule="evenodd" d="M53 22.2578C53 22.2578 53.0353 22.2741 53.0507 22.2926C53.0374 22.2939 53.008 22.2703 53 22.2578Z" fill="white"/>
<path fill-rule="evenodd" clip-rule="evenodd" d="M53.0254 22.2461C53.0254 22.2461 53.0616 22.2562 53.0477 22.2577L53.0254 22.2461Z" fill="white"/>
<path fill-rule="evenodd" clip-rule="evenodd" d="M53.2148 22.0664C53.2148 22.0664 53.2433 22.0704 53.2517 22.0835C53.2378 22.0849 53.2156 22.0733 53.2148 22.0664Z" fill="white"/>
<path fill-rule="evenodd" clip-rule="evenodd" d="M53.291 22.1523C53.3257 22.1487 53.3217 22.177 53.291 22.1523Z" fill="white"/>
<path fill-rule="evenodd" clip-rule="evenodd" d="M52.2397 21.6616C52.2397 21.6616 52.2596 21.6596 52.2715 21.6449C52.2802 21.6641 52.3134 21.6606 52.3347 21.6717C52.3029 21.6884 52.2788 21.6508 52.2397 21.6616Z" fill="white"/>
<path fill-rule="evenodd" clip-rule="evenodd" d="M52.6327 22.2152C52.6327 22.2152 52.6341 22.2284 52.6474 22.227C52.6481 22.2336 52.6408 22.2277 52.6348 22.235C52.6561 22.2461 52.6694 22.2447 52.6841 22.2565C52.6841 22.2565 52.6774 22.2572 52.6715 22.2645C52.704 22.2544 52.7096 22.3073 52.7648 22.3215C52.7109 22.3205 52.6229 22.2496 52.575 22.2413C52.5869 22.2267 52.617 22.2569 52.6282 22.2357C52.6334 22.2218 52.6069 22.2246 52.6254 22.2093L52.6327 22.2152Z" fill="white"/>
<path fill-rule="evenodd" clip-rule="evenodd" d="M52.4776 22.6379C52.4838 22.6302 52.4915 22.6364 52.4922 22.6433C52.486 22.6509 52.4415 22.6277 52.4714 22.6455L52.4776 22.6379Z" fill="white"/>
<path fill-rule="evenodd" clip-rule="evenodd" d="M52.7214 22.7255L52.7095 22.7401C52.7095 22.7401 52.7594 22.7683 52.7622 22.7947C52.735 22.7909 52.7081 22.7269 52.6763 22.7436C52.6756 22.737 52.6749 22.7304 52.6742 22.7238C52.6124 22.7103 52.5663 22.655 52.5044 22.6415C52.5548 22.6095 52.5711 22.7013 52.6288 22.6752C52.6568 22.6856 52.6882 22.729 52.7347 22.7241L52.7214 22.7255Z" fill="white"/>
<path fill-rule="evenodd" clip-rule="evenodd" d="M53.0566 22.2188C53.0566 22.2188 53.0775 22.2166 53.0914 22.2151C53.0914 22.2151 53.0581 22.2325 53.0566 22.2188Z" fill="white"/>
<path fill-rule="evenodd" clip-rule="evenodd" d="M45.8885 24.3516C45.8885 24.3516 45.8721 24.3867 45.8595 24.3947C45.8284 24.418 45.7892 24.4288 45.7655 24.458C45.7417 24.4872 45.7326 24.5283 45.7088 24.5575C45.6909 24.5794 45.685 24.5867 45.6804 24.6072C45.6521 24.6569 45.6137 24.6743 45.6259 24.7265C45.6174 24.7741 45.595 24.8165 45.5866 24.8642C45.5873 24.8708 45.5747 24.8788 45.5747 24.8788C45.5593 24.9872 45.5998 25.1165 45.5571 25.2212C45.5665 25.2469 45.5906 25.2845 45.6014 25.3234C45.6035 25.3432 45.6048 25.3564 45.6069 25.3762C45.6331 25.4336 45.6918 25.4808 45.6914 25.541C45.6994 25.5535 45.7061 25.5528 45.7134 25.5587C45.7902 25.6508 45.8643 25.7165 45.9198 25.7974C45.9764 25.8249 46.0085 25.8749 46.0585 25.9031C46.0871 25.9201 46.1284 25.9291 46.157 25.9461C46.1923 25.9624 46.2269 25.9722 46.2555 25.9892C46.2789 26.0201 46.2981 26.0114 46.3201 26.0291C46.3534 26.0256 46.3886 26.042 46.4285 26.0378C46.4358 26.0437 46.4498 26.0489 46.4571 26.0548C46.5389 26.0662 46.6353 26.0895 46.7063 26.062C46.7129 26.0613 46.7255 26.0533 46.7315 26.046C46.7745 26.008 46.8507 25.9666 46.9059 25.9809C46.9192 25.9795 46.9045 25.9676 46.9178 25.9663C46.9391 25.9774 46.9877 25.9923 47.0062 25.977C47.0128 25.9763 47.002 25.9374 47.0206 25.922C47.0384 25.9001 47.087 25.9151 47.1048 25.8932C47.1107 25.8858 47.1006 25.8535 47.1125 25.8389C47.129 25.8038 47.1859 25.7711 47.2185 25.761C47.2384 25.7589 47.259 25.7634 47.2716 25.7554C47.2835 25.7408 47.274 25.7151 47.2513 25.6907C47.235 25.599 47.3605 25.5791 47.394 25.5155C47.4538 25.5092 47.4601 25.4417 47.4979 25.4177C47.5045 25.417 47.5245 25.4149 47.5311 25.4142C47.5437 25.4062 47.5542 25.3784 47.5661 25.3638C47.5899 25.3346 47.615 25.3186 47.6322 25.2901C47.694 25.3036 47.6871 25.2375 47.7189 25.2208C47.7322 25.2194 47.7521 25.2173 47.7647 25.2093C47.7773 25.2013 47.7752 25.1815 47.7878 25.1735C47.801 25.1721 47.821 25.17 47.8335 25.162C47.8402 25.1613 47.8447 25.1408 47.8514 25.1401C47.8647 25.1387 47.8713 25.138 47.8846 25.1366C47.8905 25.1293 47.8944 25.1022 47.9003 25.0949C47.9301 25.0584 47.9825 25.0462 47.9969 24.9912C48.0751 24.9696 48.1073 24.8928 48.1982 24.8632C48.2094 24.842 48.2213 24.8274 48.2479 24.8246C48.2479 24.8246 48.2465 24.8114 48.2458 24.8048C48.2909 24.7867 48.3119 24.731 48.3636 24.7122L48.3622 24.699C48.4339 24.6781 48.5035 24.6374 48.5311 24.5811C48.5776 24.5762 48.6059 24.5265 48.643 24.4959C48.6615 24.4806 48.6881 24.4778 48.7066 24.4625C48.737 24.4325 48.7947 24.4064 48.8258 24.3831C48.8384 24.3751 48.8363 24.3553 48.8489 24.3473C48.8674 24.332 48.894 24.3292 48.9125 24.3139C48.9793 24.2468 49.0755 24.2033 49.145 24.1626C49.1636 24.1473 49.1748 24.126 49.1992 24.1034C49.2363 24.0728 49.2894 24.0672 49.3272 24.0432C49.3338 24.0425 49.3384 24.022 49.351 24.014C49.3695 23.9987 49.402 23.9886 49.4205 23.9733C49.4835 23.9333 49.5317 23.8815 49.5981 23.8745C49.6583 23.808 49.7743 23.7624 49.8558 23.7071C49.8656 23.6727 49.8935 23.6831 49.9121 23.6678C49.9677 23.6219 50.0351 23.5614 50.1148 23.553C50.3718 23.379 50.671 23.2875 50.9321 23.1531C50.9608 23.1701 50.9919 23.1468 51.0038 23.1322C51.0052 23.1454 51.0244 23.1367 51.0317 23.1426C51.0615 23.1061 51.11 23.1211 51.1485 23.1037C51.1517 23.0699 51.1869 23.0863 51.1974 23.0584C51.2055 23.0709 51.1922 23.0723 51.2002 23.0849C51.2205 23.0226 51.3215 23.0253 51.36 23.0079L51.3593 23.0013C51.374 23.0132 51.3712 22.9867 51.3845 22.9853C51.4634 22.9703 51.5103 22.9053 51.5746 22.8785C51.582 22.8844 51.6047 22.9087 51.6159 22.8875C51.6026 22.8889 51.5893 22.8903 51.5865 22.8639C51.6071 22.8684 51.633 22.859 51.6449 22.8444C51.6715 22.8416 51.6795 22.8541 51.7047 22.8381C51.7047 22.8381 51.7019 22.8117 51.7092 22.8176C51.7438 22.8273 51.7623 22.812 51.7903 22.8224C51.8015 22.8012 51.8406 22.7904 51.8494 22.8095C51.862 22.8015 51.8406 22.7904 51.8466 22.7831C51.8731 22.7803 51.8997 22.7775 51.9284 22.7945C51.9343 22.7872 51.9396 22.7733 51.9528 22.7719C51.9595 22.7712 51.9483 22.7925 51.9542 22.7852C51.9668 22.7771 51.9521 22.7653 51.9501 22.7455C51.9633 22.7441 51.9619 22.7309 51.9738 22.7163C51.9958 22.734 52.0137 22.7121 52.0329 22.7034C52.0528 22.7013 52.0734 22.7058 52.0941 22.7103C52.114 22.7082 52.1192 22.6943 52.1405 22.7054C52.1538 22.704 52.1632 22.7298 52.1772 22.735C52.1839 22.7343 52.1751 22.7152 52.1891 22.7204C52.2503 22.7273 52.3055 22.7415 52.3513 22.73C52.2782 22.7377 52.2461 22.6877 52.1737 22.702C52.1717 22.6821 52.1472 22.7047 52.1444 22.6783C52.1391 22.6922 52.1465 22.6981 52.1391 22.6922C52.1391 22.6922 52.1385 22.6856 52.1318 22.6863C52.143 22.6651 52.129 22.6599 52.1269 22.6401C52.0784 22.6252 52.0326 22.6367 51.9914 22.6276C51.9847 22.6283 51.9928 22.6409 51.9868 22.6482C51.9669 22.6503 51.9602 22.651 51.9403 22.653C51.9382 22.6332 51.9236 22.6214 51.9348 22.6002C51.9966 22.6137 52.0868 22.5775 52.156 22.597C52.1766 22.6015 52.1927 22.6265 52.2164 22.5973C52.1832 22.6008 52.1651 22.5559 52.1371 22.5455C52.1019 22.5292 52.0575 22.5539 52.0229 22.5442C52.0162 22.5449 52.0082 22.5324 52.0016 22.5331C51.9949 22.5338 51.9823 22.5418 51.9684 22.5366C51.9617 22.5373 51.9603 22.5241 51.9537 22.5248C51.9404 22.5262 51.9219 22.5415 51.9079 22.5363C51.8806 22.5324 51.8513 22.5088 51.8188 22.5189C51.8181 22.5123 51.816 22.4925 51.822 22.4852C51.8618 22.481 51.8691 22.4869 51.903 22.49C51.903 22.49 51.9023 22.4834 51.9016 22.4768C51.9149 22.4754 51.9163 22.4886 51.9282 22.474C51.9016 22.4768 51.9041 22.4365 51.9226 22.4212C51.9985 22.4399 52.0914 22.4301 52.148 22.4576C52.154 22.4503 52.1659 22.4357 52.1791 22.4343C52.2536 22.4398 52.3242 22.4724 52.3993 22.4846C52.3259 22.4255 52.2316 22.4221 52.1292 22.4061L52.1271 22.3863C52.0806 22.3912 52.0327 22.3829 51.9995 22.3864L51.9653 22.3165C51.8577 22.3145 51.783 22.2422 51.6753 22.2402C51.6739 22.227 51.6732 22.2204 51.6652 22.2078C51.6705 22.1939 51.6824 22.1793 51.6883 22.172C51.7082 22.1699 51.7215 22.1685 51.7421 22.173C51.8309 22.1236 51.9626 22.1632 52.0829 22.1572C52.1007 22.1353 52.092 22.1162 52.0832 22.0971C52.0273 22.0762 51.9704 22.109 51.9124 22.0683C51.8928 22.0103 51.9226 21.9737 51.9697 21.9755C52.0508 21.9803 52.1944 22.0052 52.2496 22.0195C52.5002 22.0399 52.7532 22.1468 52.989 22.2823C52.8716 22.1878 52.7266 22.1496 52.612 22.0815C52.6127 22.0881 52.6001 22.0961 52.5921 22.0836C52.4722 22.0294 52.3279 21.9979 52.2196 21.9892C52.1815 21.9465 52.084 21.9768 52.046 21.9341C52.0603 21.8791 52.1054 21.861 52.1585 21.8554C52.1114 21.8537 52.0614 21.8256 52.0202 21.8166C51.9856 21.8068 51.9265 21.8197 51.9052 21.8086L51.9038 21.7954C51.9171 21.794 51.8772 21.7982 51.8772 21.7982C51.8573 21.8003 51.8647 21.8062 51.8374 21.8024C51.8108 21.8052 51.8108 21.8052 51.7955 21.7868C51.7004 21.7767 51.6082 21.7931 51.5131 21.7831C51.4932 21.7852 51.4932 21.7852 51.4865 21.7859C51.4799 21.7866 51.4852 21.7727 51.4719 21.7741C51.4719 21.7741 51.4733 21.7873 51.4593 21.7821C51.4261 21.7856 51.3855 21.7832 51.3464 21.7939C51.2534 21.8037 51.1538 21.8142 51.0808 21.8219C51.0675 21.8233 51.0787 21.8021 51.0588 21.8042C50.9392 21.8167 50.8138 21.8366 50.689 21.8631C50.6824 21.8638 50.6869 21.8433 50.667 21.8454C50.6471 21.8475 50.6558 21.8666 50.6425 21.868C50.6292 21.8694 50.6212 21.8569 50.6139 21.851C50.4678 21.8663 50.3412 21.9398 50.1993 21.9948C50.07 22.0418 49.9473 22.0881 49.8326 22.1469C49.7431 22.1897 49.6683 22.2443 49.5767 22.2673C49.476 22.3313 49.3792 22.3682 49.2911 22.4242C49.2215 22.4649 49.144 22.4931 49.0877 22.5324C49.081 22.5331 49.0698 22.5544 49.0572 22.5624C49.038 22.5711 49.0174 22.5665 48.9975 22.5686C48.9531 22.5934 48.9108 22.6379 48.8657 22.656C48.8213 22.6807 48.757 22.7075 48.7059 22.7329C48.6807 22.7489 48.657 22.7781 48.6318 22.7941C48.6126 22.8028 48.586 22.8056 48.5675 22.8209C48.5171 22.8529 48.4689 22.9047 48.4178 22.9301C48.3476 22.9643 48.2693 22.9858 48.2091 23.0523C48.1256 23.0878 48.0368 23.1372 47.9686 23.1911C47.8956 23.1988 47.856 23.2697 47.7858 23.3038C47.7791 23.3045 47.7725 23.3052 47.7592 23.3066C47.6491 23.3449 47.5672 23.4604 47.4764 23.49C47.4606 23.5317 47.4194 23.5227 47.3876 23.5394C47.3558 23.5561 47.3386 23.5846 47.3075 23.6079C47.3009 23.6086 47.2876 23.61 47.2743 23.6114C47.2425 23.6281 47.2253 23.6566 47.1942 23.6799C47.1512 23.7179 47.0775 23.7189 47.0432 23.776C46.9908 23.7882 46.9198 23.8157 46.8922 23.872C46.7946 23.9023 46.7432 23.9878 46.6544 24.0373C46.6226 24.054 46.5814 24.0449 46.5723 24.086C46.5324 24.0902 46.502 24.1201 46.4709 24.1434C46.4331 24.1674 46.394 24.1782 46.3496 24.2029C46.2926 24.2356 46.245 24.294 46.1765 24.2812C46.0952 24.2096 46.1583 24.3633 46.1059 24.3754C46.0727 24.3789 46.0559 24.3473 46.0199 24.3244C45.9934 24.3272 45.9822 24.3484 45.971 24.3696C45.9444 24.3724 45.8952 24.3509 45.8707 24.3735L45.8885 24.3516ZM51.8586 22.6416L51.8599 22.6548C51.8487 22.676 51.8386 22.6437 51.8586 22.6416ZM51.8645 22.6343C51.8645 22.6343 51.9302 22.6207 51.9456 22.6391C51.9456 22.6391 51.9428 22.6127 51.9554 22.6047C51.9634 22.6172 51.9781 22.629 51.9987 22.6336C51.9962 22.6739 51.9596 22.6443 51.9564 22.6781C51.9431 22.6795 51.9358 22.6736 51.9232 22.6816C51.8945 22.6645 51.8833 22.6858 51.8687 22.6739C51.8732 22.6534 51.8666 22.6541 51.8645 22.6343Z" fill="white"/>
</g>
<defs>
<clipPath id="clip0_868_9710">
<rect width="44.0417" height="45.9991" fill="white" transform="translate(11 14.6094) rotate(-6.00582)"/>
</clipPath>
</defs>
</svg>
