<svg width="70" height="70" viewBox="0 0 70 70" fill="none" xmlns="http://www.w3.org/2000/svg">
<g clip-path="url(#clip0_868_9307)">
<path fill-rule="evenodd" clip-rule="evenodd" d="M37.4707 14.3047C37.4962 14.3047 37.5422 14.315 37.5932 14.3355C37.5779 14.3355 37.5115 14.3201 37.4707 14.3047Z" fill="white"/>
<path fill-rule="evenodd" clip-rule="evenodd" d="M38.7051 15.9727C38.7357 15.9881 38.8327 16.0343 38.8123 16.0445C38.7612 16.0137 38.7408 15.9983 38.7051 15.9727Z" fill="white"/>
<path fill-rule="evenodd" clip-rule="evenodd" d="M38.8496 16.0859C38.8496 16.0859 38.9262 16.1322 38.9619 16.1527C38.9568 16.163 38.87 16.1065 38.8496 16.0859Z" fill="white"/>
<path fill-rule="evenodd" clip-rule="evenodd" d="M39.3652 16.2578C39.3652 16.2578 39.452 16.3092 39.4724 16.3348C39.4622 16.3348 39.3959 16.2784 39.3652 16.2578Z" fill="white"/>
<path fill-rule="evenodd" clip-rule="evenodd" d="M39.4512 16.5312C39.492 16.5467 39.5481 16.598 39.6247 16.6699C39.589 16.6545 39.5175 16.5775 39.4512 16.5312Z" fill="white"/>
<path fill-rule="evenodd" clip-rule="evenodd" d="M40.4863 16.3828C40.5782 16.465 40.7568 16.655 40.8079 16.732C40.7109 16.6139 40.5884 16.4906 40.4863 16.3828Z" fill="white"/>
<path fill-rule="evenodd" clip-rule="evenodd" d="M40.4609 16.8711C40.5732 16.9687 40.7467 17.1741 40.8641 17.3281C40.8641 17.3589 40.6957 17.1073 40.6396 17.0765C40.6192 17.0508 40.5936 17.02 40.5681 16.9841C40.5324 16.9481 40.4916 16.9173 40.4609 16.8711Z" fill="white"/>
<path fill-rule="evenodd" clip-rule="evenodd" d="M41.4824 18.3801C41.4824 18.3801 41.5028 18.3801 41.5233 18.4264C41.5233 18.4418 41.5233 18.4469 41.5181 18.4469L41.4875 18.375L41.4824 18.3801Z" fill="white"/>
<path fill-rule="evenodd" clip-rule="evenodd" d="M41.916 19.0156C41.9722 19.1235 42.0691 19.3853 42.11 19.5343C42.1202 19.5548 42.1253 19.5548 42.1355 19.5908C42.161 19.678 42.2069 19.8834 42.1559 19.6883C42.0793 19.4521 42.0079 19.2724 41.916 19.0156Z" fill="white"/>
<path fill-rule="evenodd" clip-rule="evenodd" d="M41.7734 19.1719C41.7734 19.1719 41.8041 19.2386 41.8245 19.2951C41.8092 19.2848 41.7734 19.1924 41.7734 19.1719Z" fill="white"/>
<path fill-rule="evenodd" clip-rule="evenodd" d="M42.2891 19.1797C42.2891 19.1797 42.335 19.3029 42.3554 19.3543C42.335 19.3183 42.2993 19.2259 42.2891 19.1797Z" fill="white"/>
<path fill-rule="evenodd" clip-rule="evenodd" d="M41.8809 19.2852C41.9064 19.3262 41.9421 19.4289 41.9676 19.4854C41.9676 19.5419 41.9064 19.357 41.8809 19.2852Z" fill="white"/>
<path fill-rule="evenodd" clip-rule="evenodd" d="M41.8652 19.3867C41.8908 19.4175 41.9214 19.5254 41.9571 19.6024C41.9316 19.5562 41.8959 19.4535 41.8652 19.3867Z" fill="white"/>
<path fill-rule="evenodd" clip-rule="evenodd" d="M42.4414 19.3398C42.4414 19.3398 42.4822 19.422 42.5027 19.4734C42.4873 19.4631 42.4618 19.3861 42.4414 19.3398Z" fill="white"/>
<path fill-rule="evenodd" clip-rule="evenodd" d="M42.3867 19.4531C42.4224 19.5096 42.4735 19.7407 42.499 19.8485C42.448 19.6637 42.4275 19.5969 42.3867 19.4531Z" fill="white"/>
<path fill-rule="evenodd" clip-rule="evenodd" d="M41.9668 19.6367C42.0076 19.7291 42.0331 19.8729 42.0485 19.9551C42.0178 19.8678 42.0025 19.7343 41.9668 19.6367Z" fill="white"/>
<path fill-rule="evenodd" clip-rule="evenodd" d="M42.1973 19.8438C42.2126 19.8797 42.2279 19.9413 42.2483 19.9978C42.233 20.0132 42.2177 19.9105 42.1973 19.8438Z" fill="white"/>
<path fill-rule="evenodd" clip-rule="evenodd" d="M42.2012 20.0195C42.2216 20.0606 42.2267 20.1068 42.242 20.1736C42.2318 20.1582 42.2114 20.0657 42.2012 20.0195Z" fill="white"/>
<path fill-rule="evenodd" clip-rule="evenodd" d="M42.2012 20.1992C42.2012 20.1992 42.2522 20.3584 42.2267 20.3327C42.2216 20.2916 42.2267 20.2968 42.2267 20.2916C42.2165 20.2454 42.2114 20.2506 42.2012 20.1992Z" fill="white"/>
<path fill-rule="evenodd" clip-rule="evenodd" d="M42.5484 20.5558C42.5177 20.4583 42.5126 20.2837 42.5484 20.5558Z" fill="white"/>
<path fill-rule="evenodd" clip-rule="evenodd" d="M42.7168 20.7617C42.7372 20.8439 42.7525 20.9312 42.7525 21.0287C42.7525 20.9671 42.7168 20.8028 42.7168 20.7617Z" fill="white"/>
<path fill-rule="evenodd" clip-rule="evenodd" d="M42.748 20.8242C42.7532 20.7934 42.7787 20.9577 42.7634 20.9269L42.748 20.8242Z" fill="white"/>
<path fill-rule="evenodd" clip-rule="evenodd" d="M42.9668 21C42.977 21.0308 42.9821 21.0976 42.9821 21.1489C42.9719 21.1335 42.9668 21.0257 42.9668 21Z" fill="white"/>
<path fill-rule="evenodd" clip-rule="evenodd" d="M42.9785 21.5938C43.004 21.7683 42.9887 21.8351 42.9785 21.5938Z" fill="white"/>
<path fill-rule="evenodd" clip-rule="evenodd" d="M41.4766 17.1289C41.4766 17.1289 41.5327 17.1905 41.5531 17.2059C41.5786 17.2676 41.6654 17.3548 41.7062 17.437C41.6348 17.3548 41.5786 17.2521 41.4766 17.1289Z" fill="white"/>
<path fill-rule="evenodd" clip-rule="evenodd" d="M42.2743 19.3315C42.2947 19.3777 42.2845 19.3726 42.3049 19.4291C42.3049 19.4342 42.2947 19.4137 42.2845 19.4137C42.3202 19.5112 42.3406 19.5626 42.361 19.6447C42.3559 19.6345 42.3508 19.6242 42.3457 19.6242C42.3916 19.732 42.3968 19.8707 42.4631 20.0966C42.3916 19.8758 42.2743 19.3829 42.1875 19.2031C42.213 19.2237 42.259 19.3983 42.2794 19.4085C42.2896 19.4085 42.2436 19.3007 42.2692 19.3264L42.2743 19.3315Z" fill="white"/>
<path fill-rule="evenodd" clip-rule="evenodd" d="M42.0138 19.6325C42.024 19.6325 42.0342 19.7146 42.0393 19.7249C42.0291 19.7044 41.9525 19.4579 42.0138 19.6325Z" fill="white"/>
<path fill-rule="evenodd" clip-rule="evenodd" d="M42.3339 21.0453H42.3186C42.3237 21.1685 42.339 21.3688 42.3288 21.4561C42.3084 21.3072 42.3288 20.9939 42.2777 20.8912C42.2777 20.8501 42.2777 20.8347 42.2726 20.7936C42.2318 20.6242 42.2114 20.4445 42.1808 20.2699C42.1399 20.0953 42.094 19.9156 42.043 19.7461C42.1144 19.895 42.1706 20.2545 42.2318 20.4291C42.2318 20.4599 42.2318 20.4291 42.2267 20.4085C42.2522 20.5677 42.2879 20.845 42.3339 21.0504V21.0453Z" fill="white"/>
<path fill-rule="evenodd" clip-rule="evenodd" d="M42.7837 20.8672C42.7939 20.898 42.8092 20.9545 42.8143 20.9904C42.8143 21.011 42.7786 20.9083 42.7837 20.8672Z" fill="white"/>
<path fill-rule="evenodd" clip-rule="evenodd" d="M41.2885 26.8066C41.3498 26.7347 41.4008 26.6372 41.462 26.555C41.5998 26.3599 41.753 26.211 41.8601 25.9953C41.9622 25.8104 42.0541 25.6358 42.151 25.4356C42.2072 25.3072 42.2378 25.2404 42.2786 25.1377C42.4113 24.8502 42.5032 24.6037 42.5134 24.4651C42.5696 24.2494 42.6461 23.9824 42.6614 23.7872C42.6767 23.7256 42.6818 23.7051 42.6869 23.6845C42.7227 23.438 42.7329 23.2429 42.7176 23.0324C42.7023 22.8218 42.7278 22.6113 42.7125 22.3237C42.692 22.2724 42.6614 22.2364 42.641 22.144C42.6308 22.1029 42.6257 22.0054 42.6155 21.9746C42.5747 21.8616 42.5134 21.9591 42.4879 21.7486C42.4777 21.7383 42.4726 21.7743 42.4624 21.7846C42.3705 21.7794 42.2889 21.8564 42.2225 21.8051C42.1715 21.9386 42.1255 21.9078 42.0796 22.0105C42.0541 22.0721 42.0235 22.2005 41.9928 22.2775C41.9622 22.37 41.9367 22.4675 41.8959 22.5394C41.8703 22.5394 41.8448 22.6524 41.8193 22.6678C41.7836 22.7859 41.7376 22.9348 41.7019 23.0478C41.6917 23.0581 41.6815 23.094 41.6662 23.094C41.5386 23.3764 41.4314 23.6537 41.263 24.0234C41.2477 24.0594 41.2222 24.1313 41.2068 24.1724C41.0895 24.4445 40.8904 24.8656 40.7679 24.9683C40.7373 25.0145 40.7475 25.0145 40.7169 25.0607C40.6863 25.0813 40.574 25.1994 40.5076 25.3123C40.4821 25.3483 40.4515 25.4304 40.3902 25.5126C40.3035 25.6358 40.1963 25.7385 40.1095 25.8464C40.0687 25.8926 40.0381 25.9594 39.9973 26.0107C39.9462 26.0775 39.8595 26.175 39.7727 26.2726C39.6808 26.3599 39.5838 26.4369 39.5277 26.4831C39.4409 26.555 39.395 26.5704 39.3338 26.632C39.2827 26.6885 39.2419 26.7399 39.2674 26.7553C39.196 26.8477 39.0377 26.971 38.8642 27.0993C38.6805 27.2174 38.4763 27.3304 38.3385 27.4331C38.0986 27.5255 37.8996 27.6745 37.6699 27.7618C37.6342 27.772 37.5576 27.7977 37.5168 27.808C37.4403 27.8388 37.3382 27.885 37.2361 27.9312C37.0677 28.0031 36.9044 28.0288 36.7615 28.0801C36.5267 28.1109 36.3634 28.1726 36.1694 28.1982C36.1133 28.2034 36.0061 28.2136 35.9398 28.2188C35.8734 28.2342 35.8019 28.2393 35.7254 28.2445C35.6641 28.2445 35.5519 28.2445 35.4957 28.2445C35.4498 28.2445 35.3885 28.2547 35.3528 28.2599C35.3069 28.2599 35.2456 28.2599 35.1946 28.2599C35.1538 28.2599 35.0364 28.265 34.9956 28.265C34.7506 28.265 34.4954 28.2342 34.2657 28.2188C34.0616 28.1777 33.8727 28.1572 33.6737 28.1007C33.4746 28.0493 33.2654 28.0134 33.0459 27.9055C32.9285 27.8696 32.8418 27.8439 32.7244 27.7926C32.6989 27.7823 32.6937 27.7926 32.6529 27.7772C32.4335 27.6488 32.163 27.582 31.9486 27.4228C31.9384 27.4228 31.9282 27.4228 31.9129 27.4126C31.6015 27.2226 31.2392 26.9401 31.0044 26.7758C30.8615 26.6064 30.6369 26.4677 30.4583 26.2572C30.3715 26.1596 30.295 26.0621 30.2082 25.9748C30.0551 25.795 29.8765 25.5434 29.7438 25.3534C29.7182 25.3123 29.657 25.2302 29.6315 25.1891C29.5651 25.0813 29.5141 24.994 29.4375 24.8656C29.1977 24.4342 28.9884 23.9002 28.8863 23.4791C28.8557 23.3507 28.8149 23.2429 28.7689 23.094C28.723 22.8475 28.6975 22.5908 28.6669 22.3443C28.6618 22.2929 28.6516 22.2108 28.6465 22.1646C28.6362 22.0156 28.6311 21.8719 28.6311 21.7127C28.6362 21.5227 28.6465 21.3224 28.6516 21.1324C28.6618 20.9424 28.7026 20.7575 28.7332 20.5778C28.7434 20.3416 28.8404 20.0695 28.9016 19.7819C29.0088 19.5046 29.0854 19.2068 29.2181 18.9705C29.2538 18.8524 29.3202 18.7549 29.3712 18.6419C29.458 18.4673 29.5753 18.2773 29.6825 18.0822C29.7999 17.8922 29.9428 17.7176 30.0704 17.5533C31.1116 16.1822 32.7958 15.263 34.4903 15.0628C34.623 15.0628 34.8322 15.0474 34.9445 15.032C34.97 15.0422 35.0466 15.032 35.1078 15.032C35.3222 14.996 35.5876 15.0474 35.8581 15.0474C35.9295 15.0268 36.0878 15.073 36.1898 15.0679C36.2307 15.0885 36.1286 15.0679 36.2051 15.0885C36.2919 15.0885 36.4859 15.0885 36.6849 15.1449C36.8788 15.1912 37.0677 15.2374 37.2208 15.2784C37.2004 15.2784 37.2004 15.2682 37.2208 15.2733C37.2769 15.3041 37.3127 15.2939 37.379 15.3195C37.8384 15.4684 38.1701 15.5866 38.5427 15.7714C38.5835 15.8022 38.6958 15.8947 38.7417 15.9049C38.6805 15.8638 38.5988 15.8125 38.609 15.8022C38.7111 15.8741 38.8591 15.9511 38.9408 15.9819C39.0786 16.059 39.1296 16.1257 39.2521 16.1976C39.2776 16.2182 39.2368 16.1617 39.2929 16.2079C39.4614 16.3465 39.5634 16.3928 39.7012 16.5417C39.7523 16.5673 39.9309 16.7214 39.9768 16.7727C40.0279 16.8087 39.936 16.7163 39.9768 16.7471C40.1197 16.86 40.2218 16.9884 40.329 17.1168C40.3647 17.1425 40.3902 17.1527 40.4362 17.2041C40.4668 17.2349 40.4158 17.2041 40.4668 17.2503C40.5178 17.2914 40.4464 17.2041 40.4668 17.2041C40.5331 17.2657 40.528 17.2503 40.5638 17.276C40.6352 17.3787 40.7016 17.4403 40.773 17.5276C40.8649 17.6457 40.9108 17.7073 40.9976 17.8152C41.0537 17.8973 41.0844 17.9281 41.1405 18.0206C41.1864 18.0976 41.2171 18.1695 41.2681 18.2568C41.2987 18.303 41.263 18.2208 41.3038 18.2825C41.4722 18.5906 41.6356 18.9038 41.7479 19.14C41.6713 18.9551 41.5845 18.8062 41.5182 18.6522C41.4467 18.5033 41.3804 18.3543 41.2732 18.2106C41.2579 18.1592 41.1813 18.0822 41.1762 18.0257C41.1558 18.0103 41.1915 18.0822 41.1507 18.0154C41.1405 17.9949 41.1354 17.9795 41.115 17.9487C41.1558 17.9795 41.115 17.9179 41.115 17.8871C40.9568 17.6354 40.7934 17.4608 40.6454 17.2503C40.6097 17.2144 40.6607 17.2811 40.6199 17.2452C40.5485 17.1681 40.5178 17.1373 40.4209 17.0346C40.4107 16.9987 40.3596 16.9371 40.4056 16.9525C40.6454 17.2041 40.9568 17.5687 41.1864 17.923C41.2528 18.0308 41.3089 18.1489 41.3651 18.2003C41.263 18.0411 41.2068 17.8973 41.1201 17.7587C40.9976 17.5841 40.8445 17.4198 40.722 17.2503C40.6914 17.2041 40.6761 17.1784 40.6403 17.1425C40.6199 17.1219 40.5485 17.0552 40.528 17.0346C40.4974 16.9987 40.4974 16.9884 40.4719 16.9576C40.4107 16.8909 40.3545 16.8498 40.2933 16.7779C40.1861 16.6546 40.0687 16.5468 39.936 16.4236C39.9156 16.3979 39.936 16.3928 39.9717 16.4236C40.1248 16.5725 40.1606 16.5879 40.3137 16.7471C40.2984 16.7265 40.2933 16.7163 40.2984 16.7111C40.3443 16.7625 40.3545 16.783 40.3902 16.8087C40.2831 16.6906 40.3086 16.6803 40.3596 16.7111C40.4923 16.8652 40.6505 17.0295 40.7883 17.1938C40.9159 17.3684 41.0282 17.5225 41.1405 17.6714C41.1711 17.6971 41.1915 17.7073 41.2273 17.7587C41.3344 17.9281 41.4314 18.0925 41.5386 18.267C41.6254 18.4468 41.7172 18.6265 41.8091 18.8165C41.6356 18.3852 41.3957 17.9589 41.0742 17.5276C41.0639 17.5071 41.0844 17.5173 41.0486 17.4762C40.9057 17.2965 40.7475 17.0809 40.6199 16.9576C40.5791 16.8909 40.5434 16.8241 40.5025 16.7522C40.1044 16.3465 39.8288 16.0333 39.3848 15.7098C39.395 15.7047 39.3593 15.6738 39.3542 15.6584C39.395 15.679 39.4256 15.6841 39.4716 15.7098C39.543 15.7611 39.6196 15.8125 39.6808 15.869C40.0789 16.1103 40.5332 16.5982 40.9261 17.0244C40.9823 17.0706 40.9619 17.0141 40.9415 16.9679C40.7577 16.7573 40.5791 16.5673 40.3749 16.3517C40.3239 16.249 40.4362 16.2952 40.5995 16.4646C40.7271 16.6084 40.9108 16.7984 41.0639 16.9884C41.2068 17.1836 41.3395 17.3633 41.4161 17.4711C42.0796 18.3903 42.4879 19.4686 42.6818 20.6189C42.6104 19.9719 42.396 19.407 42.2072 18.8627C42.2021 18.8678 42.1919 18.8473 42.1766 18.8062C41.9469 18.2876 41.6458 17.7279 41.3344 17.3376C41.2324 17.1527 40.967 16.8498 40.8343 16.6803C40.8955 16.6957 41.0384 16.8036 41.1813 16.973C41.0435 16.7933 40.9057 16.6392 40.7832 16.4903C40.6863 16.3671 40.4821 16.1925 40.426 16.136C40.4158 16.1206 40.4464 16.136 40.4209 16.1155C40.4668 16.1565 40.3341 16.0384 40.3239 16.0333C40.2575 15.9819 40.2678 15.9922 40.1963 15.9255C40.1351 15.8638 40.1402 15.869 40.0483 15.7817C39.8646 15.643 39.6961 15.5147 39.5226 15.3863C39.3389 15.2733 39.1602 15.1603 38.9612 15.0371C38.9255 15.0114 38.8438 14.9652 38.8336 14.9652C38.7979 14.9447 38.8336 14.9549 38.7826 14.9293C38.757 14.9139 38.7621 14.9293 38.7213 14.9087C38.5631 14.8266 38.3845 14.7393 38.2365 14.6674C38.0323 14.5904 37.8128 14.5082 37.5985 14.426C37.3841 14.349 37.1749 14.3028 37.0013 14.2566C36.9248 14.236 37.0269 14.2463 36.9248 14.2206C36.6288 14.1436 36.3174 14.1077 36.001 14.0512C35.6846 14.0409 35.3579 13.9947 35.0313 14.0152C34.9802 14.0152 35.0211 13.9998 34.9496 14.005C34.8578 14.005 34.8833 14.0255 34.8016 14.0255C34.7506 14.0255 34.7046 14.0204 34.6791 14.0152C33.9289 14.0614 33.1582 14.2258 32.4437 14.5287C31.7751 14.8009 31.132 15.1501 30.5961 15.5763C30.3766 15.7303 30.1827 15.9152 29.999 16.0949C29.805 16.2644 29.6417 16.4544 29.4784 16.629C29.0548 17.1219 28.7485 17.5944 28.4525 18.1233C28.3555 18.3184 28.2586 18.5289 28.1616 18.7292C28.0799 18.9346 28.0085 19.1349 27.9523 19.3095C27.9319 19.3711 27.9115 19.443 27.8962 19.5149C27.8707 19.6022 27.8247 19.7511 27.7992 19.8384C27.7125 20.1311 27.6818 20.4392 27.641 20.7319C27.5798 21.0657 27.59 21.3892 27.5645 21.7178C27.5645 21.9027 27.59 22.0824 27.6002 22.2673C27.6104 22.3905 27.6002 22.5189 27.6206 22.6421C27.6716 22.9964 27.738 23.3507 27.8298 23.6743C27.8809 23.8951 27.937 24.1159 28.0187 24.3315C28.0952 24.5472 28.1667 24.768 28.2841 24.9683C28.3913 25.1994 28.4984 25.4561 28.6516 25.6872C28.7894 25.9285 28.9374 26.1596 29.0905 26.3445C29.2895 26.6834 29.5907 26.9658 29.8969 27.2842C29.9173 27.3047 29.9581 27.351 29.9836 27.3766C30.443 27.8747 31.1014 28.2445 31.5556 28.532C31.7444 28.609 31.8925 28.7015 32.0609 28.7888C32.2395 28.8915 32.4284 28.9325 32.6121 29.0044C32.658 29.025 32.7397 29.0558 32.7856 29.0763C32.9694 29.1534 33.1633 29.179 33.3777 29.2355C33.689 29.3279 34.036 29.3947 34.4086 29.4358C34.6944 29.4666 35.1231 29.5231 35.4549 29.4871C36.0163 29.4974 36.5828 29.3998 37.1391 29.2612C37.328 29.2098 37.5117 29.1996 37.6852 29.1071C37.8792 29.0507 38.114 28.9685 38.3385 28.8658C38.558 28.758 38.803 28.6707 39.0224 28.5423C39.1858 28.4447 39.3542 28.342 39.5226 28.2393C39.6859 28.1315 39.8288 28.0236 39.9564 27.9569C40.1095 27.9518 40.2269 27.7053 40.4464 27.5153C40.574 27.4228 40.574 27.4537 40.6454 27.4331C40.7628 27.351 40.8445 27.2483 40.9312 27.1404C41.0435 27.0274 41.1507 26.9658 41.2936 26.8118L41.2885 26.8066ZM40.084 16.7214C40.084 16.7214 40.084 16.7265 40.0942 16.7368C40.0534 16.7214 40.0024 16.6444 40.084 16.7214ZM40.1197 16.7419C40.2371 16.8498 40.3902 17.009 40.4617 17.1014C40.4821 17.1271 40.4617 17.0654 40.4974 17.1014C40.5332 17.1579 40.5893 17.2195 40.6607 17.3119C40.6454 17.3325 40.5025 17.1527 40.477 17.163C40.4209 17.0963 40.3902 17.0603 40.3545 17.0398C40.2371 16.9011 40.2014 16.8754 40.1095 16.7727C40.1504 16.783 40.0993 16.7471 40.1197 16.7419Z" fill="white"/>
<path fill-rule="evenodd" clip-rule="evenodd" d="M35.8375 29.529C35.8068 29.5342 35.7558 29.5342 35.6895 29.5342C35.7048 29.5239 35.7864 29.5188 35.8375 29.529Z" fill="white"/>
<path fill-rule="evenodd" clip-rule="evenodd" d="M33.6227 28.5078C33.5768 28.5078 33.439 28.5232 33.4543 28.5078C33.536 28.5078 33.5666 28.5078 33.6227 28.5078Z" fill="white"/>
<path fill-rule="evenodd" clip-rule="evenodd" d="M33.3833 28.4804C33.3833 28.4804 33.2659 28.4804 33.2148 28.4804C33.2148 28.4701 33.3526 28.4701 33.3833 28.4804Z" fill="white"/>
<path fill-rule="evenodd" clip-rule="evenodd" d="M32.7036 28.6335C32.6679 28.6386 32.576 28.6437 32.5352 28.6335C32.5454 28.6232 32.6525 28.6335 32.7036 28.6335Z" fill="white"/>
<path fill-rule="evenodd" clip-rule="evenodd" d="M32.3925 28.4727C32.3363 28.4829 32.2343 28.4829 32.1016 28.4829C32.1475 28.4727 32.2904 28.4727 32.3925 28.4727Z" fill="white"/>
<path fill-rule="evenodd" clip-rule="evenodd" d="M31.5505 29.2823C31.4024 29.2823 31.1013 29.2977 30.9941 29.2823C31.1728 29.2926 31.382 29.2772 31.5505 29.2823Z" fill="white"/>
<path fill-rule="evenodd" clip-rule="evenodd" d="M31.153 28.927C30.9693 28.9476 30.6375 28.927 30.4027 28.9373C30.367 28.9167 30.7498 28.9373 30.8161 28.9219C30.8621 28.9219 30.908 28.927 30.9591 28.9321C31.0254 28.9321 31.0866 28.9167 31.153 28.9321V28.927Z" fill="white"/>
<path fill-rule="evenodd" clip-rule="evenodd" d="M28.8918 28.8711C28.8918 28.8711 28.8816 28.8865 28.8152 28.8865C28.7948 28.8865 28.7897 28.8762 28.7948 28.8711H28.8918Z" fill="white"/>
<path fill-rule="evenodd" clip-rule="evenodd" d="M27.9472 29C27.7992 29.0154 27.4572 29.0154 27.2684 29C27.2428 29 27.2428 29.0103 27.1918 29.0051C27.0795 29.0051 26.8294 29.0051 27.0693 29.0051C27.3704 28.9949 27.6103 29.0051 27.9421 29H27.9472Z" fill="white"/>
<path fill-rule="evenodd" clip-rule="evenodd" d="M27.8344 28.8159C27.7987 28.821 27.7375 28.821 27.666 28.821C27.6864 28.8107 27.8089 28.8107 27.8344 28.8159Z" fill="white"/>
<path fill-rule="evenodd" clip-rule="evenodd" d="M27.6062 29.2975C27.5807 29.3078 27.4531 29.2975 27.3867 29.2975C27.4327 29.2975 27.55 29.2873 27.6062 29.2975Z" fill="white"/>
<path fill-rule="evenodd" clip-rule="evenodd" d="M27.6567 28.875C27.5955 28.8853 27.4628 28.8801 27.3862 28.8904C27.3199 28.875 27.5649 28.8801 27.6567 28.875Z" fill="white"/>
<path fill-rule="evenodd" clip-rule="evenodd" d="M27.5448 28.8242C27.4989 28.8345 27.356 28.8345 27.2539 28.8345C27.3152 28.8242 27.453 28.8294 27.5448 28.8242Z" fill="white"/>
<path fill-rule="evenodd" clip-rule="evenodd" d="M27.3767 29.3867C27.3767 29.3867 27.2746 29.397 27.2031 29.4021C27.2184 29.3919 27.3154 29.3919 27.3767 29.3867Z" fill="white"/>
<path fill-rule="evenodd" clip-rule="evenodd" d="M27.2681 29.2963C27.1915 29.3066 26.9159 29.3015 26.7832 29.3015C26.9516 29.2912 27.0843 29.2912 27.2681 29.2963Z" fill="white"/>
<path fill-rule="evenodd" clip-rule="evenodd" d="M27.2025 28.835C27.08 28.8504 26.8962 28.835 26.7891 28.835C26.9064 28.8247 27.0698 28.8453 27.2025 28.835Z" fill="white"/>
<path fill-rule="evenodd" clip-rule="evenodd" d="M26.8866 29.0047C26.8407 29.0099 26.759 29.0099 26.6927 29.015C26.6774 28.9996 26.805 29.0047 26.8866 29.0047Z" fill="white"/>
<path fill-rule="evenodd" clip-rule="evenodd" d="M26.6705 28.9694C26.6144 28.9797 26.5633 28.9694 26.4766 28.9694C26.497 28.9591 26.6144 28.9694 26.6705 28.9694Z" fill="white"/>
<path fill-rule="evenodd" clip-rule="evenodd" d="M26.4614 28.9243C26.4359 28.9346 26.2522 28.9346 26.293 28.9141C26.344 28.9141 26.3389 28.9192 26.3389 28.9243C26.3951 28.9243 26.3951 28.9192 26.4614 28.9243Z" fill="white"/>
<path fill-rule="evenodd" clip-rule="evenodd" d="M25.9512 29.2043C26.2778 29.2145 26.0686 29.1889 25.9512 29.2043Z" fill="white"/>
<path fill-rule="evenodd" clip-rule="evenodd" d="M25.6856 29.3382C25.5835 29.3434 25.4865 29.3434 25.3691 29.3382C25.4406 29.3382 25.6345 29.3331 25.6856 29.3382Z" fill="white"/>
<path fill-rule="evenodd" clip-rule="evenodd" d="M25.6093 29.3633C25.6451 29.3736 25.4511 29.3736 25.4868 29.3633H25.6093Z" fill="white"/>
<path fill-rule="evenodd" clip-rule="evenodd" d="M25.3852 29.5581C25.3495 29.5632 25.2729 29.5683 25.2168 29.5632C25.2321 29.5529 25.3597 29.5529 25.3852 29.5581Z" fill="white"/>
<path fill-rule="evenodd" clip-rule="evenodd" d="M24.7122 29.5391C24.5132 29.5545 24.4417 29.5391 24.7122 29.5391Z" fill="white"/>
<path fill-rule="evenodd" clip-rule="evenodd" d="M30.1526 29.5488C30.1117 29.5488 30.0556 29.5539 30.0301 29.5642C29.9535 29.5488 29.8208 29.5642 29.7188 29.5539C29.8412 29.5385 29.9739 29.5539 30.1526 29.5488Z" fill="white"/>
<path fill-rule="evenodd" clip-rule="evenodd" d="M27.4481 29.2308C27.392 29.2308 27.3971 29.2257 27.3256 29.2308C27.3205 29.2257 27.3511 29.2257 27.3511 29.2205C27.2235 29.2205 27.1623 29.2205 27.0602 29.2205C27.0755 29.2205 27.0857 29.2154 27.0857 29.2103C26.9479 29.2308 26.7897 29.2 26.5039 29.2103C26.7744 29.1897 27.3818 29.2051 27.6165 29.2C27.5808 29.2154 27.3715 29.2 27.346 29.2154C27.3409 29.2257 27.4787 29.2154 27.4379 29.2359L27.4481 29.2308Z" fill="white"/>
<path fill-rule="evenodd" clip-rule="evenodd" d="M27.1967 28.8835C27.1814 28.8835 27.1712 28.8835 27.1967 28.8835C27.1865 28.8937 27.0895 28.8835 27.0742 28.8835C27.1048 28.8732 27.4213 28.8835 27.1967 28.8835Z" fill="white"/>
<path fill-rule="evenodd" clip-rule="evenodd" d="M25.3998 28.9239V28.9085C25.2467 28.9085 25.0017 28.9085 24.8945 28.8982C25.0783 28.8879 25.4662 28.9136 25.5989 28.8879C25.6448 28.8879 25.6703 28.8879 25.7162 28.8982C26.145 28.8725 26.6043 28.8982 27.0483 28.8828C26.8493 28.9239 26.4001 28.8674 26.1756 28.9085C26.1399 28.9085 26.1756 28.9085 26.2011 28.9085C26.0072 28.9085 25.655 28.8982 25.3998 28.9239Z" fill="white"/>
<path fill-rule="evenodd" clip-rule="evenodd" d="M25.5586 29.3891C25.4973 29.3943 25.4667 29.3994 25.4106 29.4045C25.3901 29.4045 25.5075 29.3789 25.5586 29.3891Z" fill="white"/>
<path fill-rule="evenodd" clip-rule="evenodd" d="M26.6664 34.5866C26.6306 34.5096 26.5745 34.3709 26.5388 34.2888C26.452 34.0474 26.3652 33.842 26.2887 33.5904C26.2223 33.4004 26.1254 33.1385 26.059 32.9485C26.0029 32.7842 25.9824 32.7277 25.9518 32.6096C25.8549 32.2758 25.7936 31.9985 25.7171 31.8599C25.6354 31.6288 25.5639 31.3259 25.4976 31.1205C25.4823 31.0588 25.4772 31.028 25.4721 31.0023C25.3087 30.4734 25.1607 30.1551 25.0178 29.5132C24.9872 29.4618 24.9515 29.4259 24.9107 29.3181C24.8902 29.2718 24.8698 29.1589 24.8494 29.1229C24.7831 28.9945 24.7422 29.1229 24.6759 28.8764C24.6606 28.8662 24.6657 28.9124 24.6606 28.9227C24.5687 28.9278 24.5075 29.0356 24.4258 28.9843C24.4105 29.1589 24.3543 29.1332 24.3339 29.2718C24.3237 29.3591 24.3237 29.5235 24.3135 29.6313C24.3033 29.7597 24.2982 29.8624 24.2931 29.9959C24.2676 29.9959 24.288 30.1551 24.2676 30.191C24.2778 30.3605 24.288 30.5607 24.2982 30.7251C24.2931 30.7456 24.2982 30.7918 24.2829 30.7969C24.3084 31.2077 24.339 31.6288 24.4411 32.1885C24.4513 32.2399 24.4768 32.3477 24.4921 32.4094C24.5381 32.6096 24.5993 32.8561 24.6606 33.1129C24.7218 33.3491 24.778 33.5596 24.7933 33.6726C24.8137 33.7445 24.8239 33.7445 24.8392 33.8164C24.8392 33.8677 24.8698 34.0936 24.9362 34.2836C24.9617 34.3453 25.028 34.4531 25.0842 34.5866C25.1709 34.792 25.2169 35.0026 25.2934 35.1874C25.3241 35.2747 25.3853 35.3569 25.4312 35.439C25.5537 35.6598 25.763 36.1271 25.8497 36.3223C25.9263 36.4712 25.9467 36.5328 26.0131 36.6406C26.0743 36.7382 26.1356 36.805 26.156 36.7793C26.2734 36.9025 26.4112 37.1593 26.6 37.416C26.7939 37.6728 26.993 37.9449 27.1614 38.1401C27.386 38.443 27.6769 38.6638 27.9219 38.9257C27.9729 38.9771 28.024 39.049 28.0801 39.0952C28.1618 39.1568 28.3251 39.2749 28.4425 39.3571C28.667 39.5265 28.8201 39.6395 29.0294 39.7936C29.305 39.999 29.5449 40.0914 29.795 40.2352C29.8715 40.2814 29.994 40.3584 30.0808 40.4149C30.1675 40.4662 30.2696 40.4868 30.3717 40.533C30.4534 40.5689 30.5963 40.6357 30.6779 40.6717C30.7443 40.6973 30.8208 40.723 30.8719 40.7435C30.9535 40.7744 30.9995 40.8052 31.0811 40.836C31.1475 40.8565 31.2904 40.9079 31.3516 40.9284C31.6885 41.0157 32.0508 41.1184 32.3775 41.1749C32.5204 41.216 32.6582 41.257 32.796 41.2827C32.9338 41.2981 33.0767 41.3187 33.2196 41.3341C33.5054 41.3649 33.8065 41.4008 34.1485 41.4573C34.322 41.4779 34.4496 41.4573 34.6282 41.4727C34.6691 41.4727 34.6691 41.4624 34.7303 41.4624C35.0876 41.4779 35.4653 41.4522 35.8378 41.4676C35.8532 41.4676 35.8634 41.4573 35.8889 41.4573C36.4044 41.4573 37.0627 41.3957 37.4608 41.293C37.7773 41.2725 38.1345 41.1338 38.5122 41.0414C38.6857 40.9798 38.8644 40.9284 39.0277 40.8668C39.191 40.8103 39.3645 40.723 39.5432 40.646C39.7218 40.5638 39.9004 40.4868 40.0382 40.3995C40.1046 40.3584 40.2169 40.2865 40.2832 40.2454C40.4363 40.1633 40.5946 40.0657 40.7426 39.9527C41.3244 39.5368 41.9369 38.9874 42.3349 38.5098C42.4625 38.366 42.5595 38.2325 42.682 38.0579C42.8964 37.7755 43.1107 37.4776 43.2945 37.1747C43.3302 37.1079 43.3812 37.0104 43.4118 36.9487C43.519 36.7639 43.6211 36.5893 43.713 36.389C43.9631 35.9012 44.1417 35.3877 44.3356 34.9204C44.5347 34.3042 44.8001 33.3953 44.9379 32.661C44.9481 32.4915 44.9991 32.3375 45.0246 32.168C45.1114 31.6391 45.1726 30.9613 45.2339 30.4067L45.2594 29.9651L45.2747 29.4105C45.2849 29.1743 45.2747 28.9432 45.2747 28.7173V28.5478L45.2696 28.4605C45.2696 28.4246 45.2237 28.4502 45.1982 28.44L44.8562 28.4297H42.8096C41.6612 28.4451 40.5282 28.4554 39.3697 28.4656C39.191 28.4502 38.9205 28.4605 38.7623 28.4656C38.7266 28.4554 38.6245 28.4554 38.5479 28.4554C38.2672 28.481 37.91 28.4554 37.5527 28.4656C37.4608 28.4913 37.2465 28.4708 37.1138 28.4913C37.0576 28.4759 37.1903 28.481 37.0934 28.4708C36.8637 28.5118 36.0828 28.4964 35.7307 28.5067C35.7562 28.5067 35.7613 28.5118 35.7307 28.5118C35.6439 28.5016 35.6082 28.5221 35.5112 28.5221C34.8732 28.5221 34.4241 28.5683 33.878 28.5837C33.8116 28.5786 33.6279 28.5581 33.5667 28.5735C33.6636 28.5735 33.7912 28.5735 33.781 28.594C33.6177 28.5889 33.4033 28.594 33.2962 28.6094C33.0971 28.6094 32.9899 28.5991 32.8113 28.6145C32.7654 28.6145 32.8521 28.6351 32.7603 28.6351C32.4438 28.6351 32.3724 28.6351 32.0815 28.6351C32.01 28.6505 31.7089 28.6556 31.617 28.6505C31.5354 28.6556 31.7089 28.6659 31.6374 28.671C31.4078 28.6762 31.1934 28.6813 30.9841 28.671C30.9331 28.6813 30.8974 28.6916 30.8106 28.6916C30.7545 28.6916 30.8259 28.6762 30.7392 28.6813C30.6575 28.6916 30.8004 28.6967 30.78 28.7121C30.6677 28.7173 30.6881 28.7275 30.632 28.7378C30.4738 28.7275 30.3615 28.7481 30.2186 28.7532C30.0399 28.7532 29.9226 28.7532 29.7592 28.7583C29.6368 28.7583 29.5806 28.7737 29.4428 28.7737C29.3305 28.7737 29.2336 28.7583 29.106 28.7635C29.0396 28.7635 29.1519 28.7789 29.0549 28.7789C28.6109 28.7789 28.1669 28.7891 27.8402 28.8097C28.3455 28.7789 28.7079 28.8097 29.1519 28.784C29.2182 28.7994 29.3509 28.7737 29.4173 28.7943C29.4479 28.784 29.3458 28.7789 29.4428 28.7789C29.4734 28.7789 29.4887 28.784 29.5398 28.7789C29.4785 28.7994 29.5704 28.7994 29.6061 28.8148C29.9736 28.8148 30.2798 28.8097 30.6014 28.8045C30.6626 28.8045 30.5605 28.7943 30.6269 28.7891C30.7596 28.7891 30.8259 28.7891 30.9893 28.784C31.0352 28.7994 31.1322 28.8045 31.076 28.8251C30.6626 28.8354 30.0195 28.8456 29.5245 28.8559C29.3663 28.8559 29.2029 28.8405 29.1111 28.8662C29.3458 28.861 29.5347 28.8867 29.7388 28.8867C29.9991 28.8867 30.2849 28.8662 30.5401 28.8713C30.5963 28.8713 30.6575 28.8764 30.7085 28.8816C30.7443 28.8816 30.8617 28.8713 30.9025 28.8713C30.9637 28.8713 30.9688 28.8816 31.0199 28.8816C31.1322 28.8816 31.2138 28.8662 31.3363 28.8662C31.5405 28.8662 31.7395 28.8816 31.9641 28.8764C32.0049 28.8816 31.9845 28.897 31.9335 28.9021C31.6681 28.9021 31.6221 28.9021 31.3516 28.9021C31.3822 28.9021 31.4027 28.9021 31.3976 28.9124C31.3159 28.9124 31.2853 28.9072 31.2291 28.9124C31.4282 28.9124 31.4129 28.9381 31.3414 28.9535C30.8361 28.9535 30.2645 28.9535 29.8205 28.9535C29.7746 28.9637 29.7439 28.974 29.6725 28.974C29.1876 28.974 28.7079 28.9791 28.1975 28.9843C28.764 29.0048 29.356 28.9945 30.0093 28.9843C30.0348 28.9843 30.0093 28.9997 30.0808 28.9945C30.3972 28.9945 30.6881 28.9843 30.9025 28.9843C30.9944 28.9997 31.0862 29.0151 31.1832 29.0356C31.8722 29.0202 32.3775 29.087 33.0359 29.087C33.0359 29.0972 33.0818 29.1024 33.1022 29.1075C33.0512 29.1178 33.0155 29.1281 32.9542 29.1383C32.847 29.1383 32.7347 29.1435 32.6378 29.1383C32.0815 29.1691 31.2904 29.1486 30.6014 29.1691C30.5146 29.1897 30.5809 29.1999 30.6422 29.2153C30.9739 29.2256 31.2802 29.1999 31.6323 29.2256C31.7599 29.2667 31.6272 29.2975 31.3516 29.3026C30.8974 29.3026 30.1369 29.3026 29.8307 29.2975C28.4578 29.3078 27.2176 29.3232 25.8344 29.3335C26.5898 29.3437 27.289 29.3181 27.9627 29.3335C27.9627 29.3232 27.9831 29.3232 28.0393 29.3232C28.7028 29.3232 29.4428 29.3232 30.0246 29.3129C30.2696 29.3386 30.7392 29.3129 30.9893 29.3335C30.928 29.3745 30.7239 29.3951 30.4687 29.4053C30.729 29.4053 30.9739 29.4156 31.1934 29.4208C31.372 29.4208 31.6834 29.4105 31.7752 29.4208C31.7956 29.4208 31.7548 29.431 31.7956 29.431C31.7242 29.431 31.9283 29.431 31.9437 29.431C32.0406 29.431 32.0253 29.4208 32.1376 29.4259C32.2856 29.4259 32.2856 29.4259 32.3775 29.4362C32.8981 29.4362 33.3727 29.4362 33.8984 29.4362C33.9545 29.4362 34.0566 29.4362 34.0668 29.4362C34.1128 29.4362 34.0719 29.4464 34.1383 29.4464C34.174 29.4464 34.1587 29.4362 34.2097 29.4413C34.4139 29.4413 34.6385 29.4413 34.8375 29.4464C35.3377 29.4464 35.9297 29.4464 36.338 29.4516C36.4299 29.4516 36.3074 29.467 36.4299 29.467C37.1393 29.4721 37.8794 29.4824 38.6245 29.4875C38.6806 29.4875 38.6347 29.5029 38.7164 29.5029C38.8184 29.5029 38.7929 29.4875 38.8899 29.4875C38.946 29.4875 39.0022 29.4978 39.0328 29.508C39.8953 29.5235 40.7834 29.508 41.6715 29.5029C42.483 29.5029 43.2894 29.4978 44.0549 29.4926H44.1519L44.2029 29.4875V29.5337V29.6313C44.1978 29.734 44.1876 29.8367 44.1825 29.9445C44.1468 30.6686 44.0702 31.295 43.9579 31.9626C43.8712 32.4453 43.7538 32.9691 43.6517 33.3645C43.6364 33.4312 43.6262 33.5185 43.6007 33.5955C43.565 33.6983 43.519 33.8472 43.4833 33.9499C43.3812 34.2682 43.2894 34.5969 43.1669 34.905C43.0291 35.249 42.8862 35.5777 42.7228 35.8961C42.6361 36.0809 42.5493 36.2555 42.4472 36.4301C42.3809 36.5482 42.3043 36.6663 42.2278 36.7793C42.0236 37.1079 41.8042 37.4314 41.5643 37.7087C41.2478 38.0784 40.8906 38.4174 40.518 38.7357C40.0944 39.0644 39.5432 39.4187 39.0685 39.6241C38.8746 39.7011 38.6806 39.7884 38.4714 39.8552C38.2672 39.9373 38.0529 40.0144 37.8181 40.0606C37.7824 40.0657 37.7262 40.076 37.6854 40.0863C36.9811 40.23 36.1849 40.3584 35.5827 40.3225C35.3581 40.3379 35.1641 40.3122 34.9549 40.3071C34.7303 40.2968 34.516 40.3173 34.3016 40.3071C34.2455 40.2968 34.1587 40.2814 34.0975 40.2711C33.8831 40.2403 33.6687 40.2249 33.4289 40.1992C33.2502 40.1736 33.0665 40.1581 32.8828 40.1119C32.699 40.0606 32.5102 40.0092 32.3111 39.9681C32.1478 39.9219 31.959 39.8654 31.7803 39.8141C31.5915 39.7525 31.4078 39.66 31.2393 39.6087C30.6779 39.3879 30.1471 39.0901 29.6316 38.7563C29.4683 38.6228 29.3356 38.4893 29.157 38.3763C29.0753 38.2993 28.9835 38.2274 28.8865 38.1503C28.7997 38.063 28.7079 37.9655 28.616 37.873C28.4425 37.6779 28.2383 37.4982 28.0801 37.2671C27.8555 36.9487 27.5238 36.5841 27.4217 36.2966C27.4217 36.1374 27.1818 35.9782 27.0338 35.7009C26.9777 35.5417 27.0083 35.552 27.0032 35.4698C26.9522 35.3312 26.8807 35.208 26.8144 35.0796C26.7531 34.9204 26.7174 34.8023 26.6408 34.5866H26.6664ZM31.617 28.7532C31.617 28.7532 31.617 28.7481 31.5915 28.7481C31.6425 28.7327 31.7548 28.7583 31.617 28.7532ZM31.566 28.7583C31.3669 28.7583 31.0811 28.7789 30.9382 28.7583C30.8974 28.7583 30.9739 28.7789 30.9076 28.784C30.8208 28.7737 30.7188 28.7686 30.5707 28.7686C30.5605 28.7378 30.8566 28.7583 30.8668 28.7275C30.979 28.7275 31.0352 28.7275 31.0862 28.7173C31.3159 28.7275 31.372 28.707 31.5456 28.7173C31.4996 28.7327 31.5762 28.7327 31.566 28.7481V28.7583Z" fill="white"/>
<path fill-rule="evenodd" clip-rule="evenodd" d="M35.7147 41.5447C35.6738 41.5498 35.5973 41.5498 35.5156 41.5498C35.536 41.5395 35.6483 41.5344 35.7147 41.5447Z" fill="white"/>
<path fill-rule="evenodd" clip-rule="evenodd" d="M32.6765 40.5234C32.6153 40.5234 32.4264 40.5388 32.4468 40.5234C32.554 40.5234 32.6 40.5234 32.6765 40.5234Z" fill="white"/>
<path fill-rule="evenodd" clip-rule="evenodd" d="M32.35 40.496C32.35 40.496 32.1867 40.496 32.1152 40.496C32.1152 40.4857 32.3041 40.4857 32.35 40.496Z" fill="white"/>
<path fill-rule="evenodd" clip-rule="evenodd" d="M31.4164 40.6569C31.3705 40.662 31.2429 40.6672 31.1816 40.6569C31.197 40.6466 31.345 40.6569 31.4164 40.6569Z" fill="white"/>
<path fill-rule="evenodd" clip-rule="evenodd" d="M30.9872 40.4922C30.9055 40.5025 30.7728 40.5025 30.584 40.5025C30.6503 40.4922 30.8392 40.4922 30.9872 40.4922Z" fill="white"/>
<path fill-rule="evenodd" clip-rule="evenodd" d="M29.8339 41.298C29.6298 41.298 29.2164 41.3134 29.0684 41.298C29.3133 41.3082 29.5992 41.2928 29.8339 41.298Z" fill="white"/>
<path fill-rule="evenodd" clip-rule="evenodd" d="M29.2877 40.9426C29.0325 40.9632 28.5783 40.9426 28.2568 40.9529C28.2108 40.9324 28.7314 40.9529 28.8233 40.9375C28.8896 40.9375 28.956 40.9426 29.0223 40.9478C29.1142 40.9478 29.1959 40.9324 29.2877 40.9478V40.9426Z" fill="white"/>
<path fill-rule="evenodd" clip-rule="evenodd" d="M26.1808 40.8945C26.1808 40.8945 26.1655 40.9099 26.0788 40.9099C26.0533 40.9099 26.043 40.8997 26.0482 40.8945H26.1808Z" fill="white"/>
<path fill-rule="evenodd" clip-rule="evenodd" d="M24.8893 41.0156C24.6851 41.031 24.2156 41.031 23.9604 41.0156C23.9247 41.0156 23.9247 41.0259 23.8583 41.0208C23.7052 41.0208 23.3582 41.0208 23.695 41.0208C24.1441 41.0208 24.4248 41.0208 24.8944 41.0156H24.8893Z" fill="white"/>
<path fill-rule="evenodd" clip-rule="evenodd" d="M24.7309 40.8315C24.6798 40.8366 24.5982 40.8366 24.4961 40.8366C24.5216 40.8264 24.69 40.8264 24.7309 40.8315Z" fill="white"/>
<path fill-rule="evenodd" clip-rule="evenodd" d="M24.4144 41.3132C24.3787 41.3234 24.2051 41.3132 24.1133 41.3132C24.1796 41.3132 24.3378 41.3029 24.4144 41.3132Z" fill="white"/>
<path fill-rule="evenodd" clip-rule="evenodd" d="M24.4849 40.8945C24.4032 40.9048 24.2195 40.8997 24.1174 40.9099C24.0256 40.8945 24.3573 40.8997 24.4849 40.8945Z" fill="white"/>
<path fill-rule="evenodd" clip-rule="evenodd" d="M24.3329 40.8438C24.2665 40.854 24.0777 40.854 23.9297 40.854C24.0165 40.8438 24.2002 40.8489 24.3329 40.8438Z" fill="white"/>
<path fill-rule="evenodd" clip-rule="evenodd" d="M24.0981 41.4023C24.0981 41.4023 23.9551 41.4126 23.8633 41.4177C23.8837 41.4075 24.0164 41.4075 24.0981 41.4023Z" fill="white"/>
<path fill-rule="evenodd" clip-rule="evenodd" d="M23.9506 41.3159C23.8434 41.3261 23.4708 41.321 23.2871 41.321C23.5219 41.3107 23.6954 41.3107 23.9506 41.3159Z" fill="white"/>
<path fill-rule="evenodd" clip-rule="evenodd" d="M23.8634 40.8506C23.6899 40.866 23.4449 40.8506 23.2969 40.8506C23.4551 40.8404 23.6848 40.8609 23.8634 40.8506Z" fill="white"/>
<path fill-rule="evenodd" clip-rule="evenodd" d="M23.4245 41.0204C23.3581 41.0255 23.2509 41.0255 23.154 41.0306C23.1335 41.0152 23.3122 41.0204 23.4245 41.0204Z" fill="white"/>
<path fill-rule="evenodd" clip-rule="evenodd" d="M23.1326 40.985C23.056 40.9953 22.9846 40.985 22.8672 40.985C22.8927 40.9748 23.056 40.985 23.1326 40.985Z" fill="white"/>
<path fill-rule="evenodd" clip-rule="evenodd" d="M22.8472 40.94C22.8115 40.9502 22.5614 40.9502 22.6176 40.9297C22.689 40.9297 22.6788 40.9348 22.6788 40.94C22.7605 40.94 22.7554 40.9348 22.8472 40.94Z" fill="white"/>
<path fill-rule="evenodd" clip-rule="evenodd" d="M22.1484 41.2238C22.5925 41.2341 22.3118 41.2084 22.1484 41.2238Z" fill="white"/>
<path fill-rule="evenodd" clip-rule="evenodd" d="M21.7815 41.3617C21.6437 41.3668 21.511 41.3668 21.3477 41.3617C21.4497 41.3617 21.71 41.3565 21.7815 41.3617Z" fill="white"/>
<path fill-rule="evenodd" clip-rule="evenodd" d="M21.679 41.3828C21.7249 41.3931 21.4595 41.3931 21.5157 41.3828H21.679Z" fill="white"/>
<path fill-rule="evenodd" clip-rule="evenodd" d="M21.3676 41.5776C21.3217 41.5827 21.2145 41.5879 21.1328 41.5827C21.1583 41.5725 21.3268 41.5725 21.3676 41.5776Z" fill="white"/>
<path fill-rule="evenodd" clip-rule="evenodd" d="M20.4378 41.5547C20.1622 41.5701 20.0652 41.5547 20.4378 41.5547Z" fill="white"/>
<path fill-rule="evenodd" clip-rule="evenodd" d="M27.9096 41.5644C27.8535 41.5644 27.7769 41.5696 27.7412 41.5798C27.6391 41.5644 27.4503 41.5798 27.3125 41.5696C27.4809 41.5541 27.6647 41.5696 27.9096 41.5644Z" fill="white"/>
<path fill-rule="evenodd" clip-rule="evenodd" d="M24.2002 41.2464C24.1186 41.2464 24.1288 41.2413 24.0369 41.2464C24.0267 41.2413 24.0675 41.2413 24.0726 41.2362C23.9042 41.2362 23.8123 41.2362 23.6745 41.2362C23.6949 41.2362 23.7103 41.231 23.7103 41.2259C23.5214 41.2464 23.3071 41.2156 22.9141 41.2259C23.2866 41.2054 24.1186 41.2208 24.4452 41.2156C24.3993 41.231 24.1083 41.2156 24.0777 41.231C24.0675 41.2413 24.2615 41.231 24.2053 41.2516L24.2002 41.2464Z" fill="white"/>
<path fill-rule="evenodd" clip-rule="evenodd" d="M23.852 40.8991C23.8316 40.8991 23.8163 40.8991 23.852 40.8991C23.8418 40.9094 23.704 40.8991 23.6836 40.8991C23.7244 40.8888 24.1633 40.8991 23.852 40.8991Z" fill="white"/>
<path fill-rule="evenodd" clip-rule="evenodd" d="M21.3882 40.9395V40.9241C21.179 40.9241 20.837 40.9241 20.6992 40.9138C20.9493 40.9036 21.4852 40.9292 21.6638 40.9036C21.7251 40.9036 21.7659 40.9036 21.8272 40.9138C22.4141 40.8882 23.047 40.9138 23.6543 40.8984C23.3838 40.9395 22.7611 40.883 22.4549 40.9241C22.4039 40.9241 22.4549 40.9241 22.4906 40.9241C22.2201 40.9241 21.7404 40.9138 21.3933 40.9395H21.3882Z" fill="white"/>
<path fill-rule="evenodd" clip-rule="evenodd" d="M21.6025 41.4126C21.5259 41.4177 21.4749 41.4229 21.3983 41.428C21.3677 41.428 21.531 41.4023 21.6025 41.4126Z" fill="white"/>
<path fill-rule="evenodd" clip-rule="evenodd" d="M23.3832 48.5701C23.3169 48.4469 23.2199 48.3185 23.1536 48.1799C22.9953 47.8615 22.8575 47.5791 22.7095 47.2556C22.5717 46.9731 22.439 46.7061 22.3114 46.4032C22.2247 46.1926 22.189 46.1053 22.1226 45.9513C21.9389 45.5097 21.8317 45.1297 21.7296 44.9499C21.6071 44.6367 21.4693 44.2362 21.3775 43.9537C21.357 43.887 21.3417 43.8254 21.3315 43.7945C21.0916 43.0808 20.8977 42.6494 20.7089 41.7765C20.6782 41.7046 20.6374 41.6584 20.5864 41.5094C20.566 41.4427 20.5353 41.2938 20.52 41.2476C20.4537 41.073 20.4128 41.2373 20.3414 40.9035C20.3261 40.8881 20.3312 40.9446 20.3261 40.9651C20.2342 40.9651 20.173 41.1089 20.0913 41.0319C20.076 41.2732 20.0198 41.227 20.0045 41.417C19.9943 41.5351 20.0045 41.7611 20.0045 41.9151C20.0045 42.0948 20.0096 42.2335 20.0147 42.4132C19.9892 42.4132 20.025 42.6289 20.0096 42.6751C20.0403 42.9113 20.076 43.1732 20.1066 43.4094C20.1066 43.4351 20.1117 43.5018 20.1066 43.507C20.1883 44.0718 20.2801 44.6418 20.4996 45.3915C20.52 45.4634 20.566 45.6021 20.5915 45.6842C20.765 46.2388 21.0916 47.0707 21.1784 47.3634C21.2141 47.461 21.2243 47.4558 21.2652 47.5534C21.2754 47.6202 21.3723 47.918 21.4846 48.1593C21.5255 48.2415 21.6173 48.375 21.7143 48.5547C21.8521 48.8218 21.9593 49.0888 22.1022 49.325C22.1634 49.4328 22.2502 49.5407 22.3165 49.6485C22.5054 49.9309 22.8627 50.5266 23.0311 50.7577C23.1587 50.9477 23.1893 51.0298 23.2914 51.1633C23.3883 51.2866 23.4751 51.3636 23.4904 51.3328C23.8017 51.6512 24.5061 52.5549 25.0318 53.0068C25.1951 53.1968 25.3941 53.3509 25.5779 53.5049C25.7667 53.659 25.9504 53.813 26.1444 53.9568C26.2158 54.0133 26.3179 54.0955 26.3894 54.1519C26.5221 54.2495 26.7007 54.3779 26.8844 54.4857C27.1958 54.6706 27.4561 54.8606 27.7266 54.989C28.1144 55.2354 28.4258 55.3792 28.783 55.523C28.9004 55.5795 29.0586 55.6565 29.1913 55.7181C29.3189 55.7746 29.4414 55.8208 29.5843 55.8671C29.7119 55.9133 29.8854 55.98 30.0028 56.0262C30.0947 56.057 30.1917 56.0879 30.2682 56.1135C30.3754 56.1546 30.4418 56.1906 30.5591 56.2162C30.6612 56.2368 30.8348 56.2779 30.9368 56.2984C31.1665 56.3549 31.4013 56.4268 31.636 56.4781C31.8708 56.5243 32.1056 56.5603 32.3251 56.5911C32.718 56.6887 33.0906 56.7092 33.4785 56.7503C33.8664 56.8016 34.2798 56.8068 34.7493 56.8324C34.9841 56.8324 35.1577 56.8427 35.4026 56.8376C35.4588 56.8376 35.4588 56.8222 35.5404 56.8222C36.0304 56.8119 36.5459 56.7811 37.0512 56.7246C37.0665 56.7195 37.0869 56.7143 37.1226 56.7041C37.4697 56.6784 37.8678 56.6424 38.2352 56.5603C38.6078 56.4884 38.96 56.4268 39.2254 56.3343C39.4346 56.2881 39.6592 56.2265 39.894 56.1597C40.1287 56.093 40.3635 55.9852 40.6136 55.903C40.8484 55.8208 41.0831 55.7438 41.2924 55.6411C41.5068 55.5435 41.7415 55.4357 41.9763 55.3227C42.206 55.1944 42.4305 55.0711 42.6245 54.9633C42.7368 54.8965 42.8439 54.8298 42.9511 54.7527C43.1502 54.6244 43.339 54.496 43.5585 54.3522C44.324 53.7771 45.1406 53.0428 45.697 52.4163C45.845 52.2263 46.0032 52.0363 46.1767 51.8155C46.4625 51.4355 46.7738 51.0504 47.0239 50.6396C47.0801 50.5471 47.1515 50.429 47.2026 50.3417C47.3506 50.0901 47.4833 49.859 47.6364 49.5972C47.9783 48.945 48.2846 48.2672 48.5449 47.6304C48.8562 46.8037 49.2492 45.5815 49.4737 44.5853C49.5044 44.3543 49.5656 44.1489 49.6115 43.9178C49.6779 43.5583 49.7442 43.1475 49.8004 42.7316C49.8259 42.5211 49.8514 42.3105 49.8769 42.1102C49.8872 42.0075 49.9025 41.9048 49.9127 41.8073L49.9586 41.3451L49.9841 40.8676L49.9943 40.6314V40.5132L49.9994 40.4516C49.9994 40.4311 49.9688 40.4465 49.9535 40.4414C49.6371 40.4362 49.3308 40.426 49.0042 40.4311H47.6976L45.3091 40.4465C43.7269 40.4568 42.1549 40.467 40.583 40.4773C40.3431 40.4619 39.9654 40.4722 39.7511 40.4773C39.7051 40.467 39.5622 40.467 39.455 40.467C39.0671 40.4927 38.5823 40.467 38.0923 40.4773C37.9698 40.503 37.6738 40.4824 37.4901 40.503C37.4135 40.4876 37.5973 40.4927 37.4595 40.4824C37.143 40.5235 36.0712 40.5081 35.5915 40.5184C35.6272 40.5184 35.6323 40.5235 35.5915 40.5235C35.4741 40.5132 35.4179 40.5338 35.2903 40.5338C34.4176 40.5338 33.7949 40.58 33.0498 40.5954C32.9579 40.5903 32.7078 40.5697 32.6211 40.5851C32.7538 40.5851 32.9273 40.5851 32.9171 40.6057C32.6925 40.6005 32.3965 40.6057 32.2485 40.6211C31.9729 40.6211 31.83 40.6108 31.585 40.6262C31.5238 40.6262 31.6463 40.6468 31.5136 40.6468C31.1001 40.6468 30.9572 40.6468 30.5847 40.6468C30.4826 40.6622 30.0743 40.6673 29.9518 40.6622C29.8395 40.6673 30.0743 40.6776 29.9824 40.6827C29.666 40.6878 29.3751 40.693 29.0842 40.6827C29.0127 40.693 28.9668 40.7032 28.8443 40.7032C28.7626 40.7032 28.8647 40.6878 28.7473 40.693C28.635 40.7032 28.8341 40.7084 28.8086 40.7238C28.6503 40.7289 28.681 40.7392 28.6044 40.7495C28.3849 40.7392 28.2369 40.7597 28.0379 40.7649C27.8133 40.7649 27.6194 40.7649 27.405 40.77C27.2366 40.77 27.16 40.7854 26.9712 40.7854C26.8283 40.7854 26.665 40.7751 26.5119 40.7751C26.42 40.7751 26.5731 40.7905 26.4404 40.7905C25.8331 40.7905 25.2206 40.8008 24.7715 40.8214C25.4605 40.7905 25.9657 40.8214 26.568 40.7957C26.6599 40.8111 26.8385 40.7854 26.9304 40.8059C26.9712 40.7957 26.8334 40.7905 26.9661 40.7905C27.012 40.7905 27.0273 40.7957 27.0988 40.7905C27.012 40.8111 27.1396 40.8111 27.1907 40.8265C27.701 40.8265 28.1144 40.8214 28.5534 40.8162C28.635 40.8162 28.4972 40.8059 28.5891 40.8008C28.7626 40.8008 28.8749 40.8008 29.0893 40.7957C29.1505 40.8111 29.2832 40.8162 29.2118 40.8368C28.6299 40.847 27.7725 40.8573 27.0784 40.8676C26.864 40.8676 26.6394 40.8522 26.5119 40.8778C26.8334 40.8727 27.0937 40.8984 27.3693 40.8984C27.7214 40.8984 28.1195 40.8881 28.4666 40.883C28.5534 40.883 28.6197 40.8881 28.6963 40.8932C28.7524 40.8932 28.9004 40.883 28.9668 40.883C29.0535 40.883 29.0586 40.8932 29.1301 40.8932C29.2628 40.8932 29.4159 40.883 29.5639 40.8778C29.8446 40.8778 30.1202 40.8932 30.4264 40.8881C30.4826 40.8932 30.4571 40.9086 30.3856 40.9138C30.0233 40.9138 29.962 40.9138 29.5894 40.9138C29.6303 40.9138 29.6558 40.9138 29.6507 40.9241C29.5384 40.9241 29.4976 40.9189 29.4159 40.9241C29.6915 40.9241 29.666 40.9497 29.5741 40.9651C28.8851 40.9651 28.0736 40.9651 27.4816 40.9651C27.4203 40.9754 27.3795 40.9857 27.2774 40.9857C26.6241 40.9857 25.9453 40.9908 25.2512 40.9959C26.027 41.0165 26.8385 41.0062 27.7419 40.9959C27.7776 40.9959 27.747 41.0113 27.8388 41.0062C28.2522 41.0062 28.6707 40.9959 28.9719 40.9959C29.0995 41.0113 29.2271 41.0268 29.3598 41.0473C30.304 41.0319 30.9981 41.0986 31.9014 41.0986C31.9014 41.1089 31.9678 41.114 31.9933 41.1192C31.9219 41.1295 31.8708 41.1397 31.7892 41.15C31.6411 41.15 31.488 41.1551 31.3553 41.15C30.5898 41.1808 29.5078 41.1603 28.5585 41.1808C28.4411 41.2013 28.5329 41.2116 28.6146 41.227C29.0739 41.2373 29.4874 41.2116 29.9722 41.2373C30.1457 41.2784 29.962 41.3092 29.5894 41.3143C28.9668 41.3143 27.9103 41.3143 27.4969 41.3092C25.6391 41.3195 23.8936 41.3349 22.0103 41.3451C23.0464 41.3554 24.0059 41.3297 24.9297 41.3451C24.9297 41.3349 24.9603 41.3349 25.0318 41.3349C25.9453 41.3349 26.9559 41.3349 27.7572 41.3246C28.094 41.3503 28.7422 41.3246 29.0791 41.3451C28.9923 41.3862 28.7167 41.4067 28.3645 41.417C28.7116 41.417 29.0637 41.4273 29.3547 41.4324C29.5996 41.4324 30.0284 41.4222 30.1508 41.4324C30.1815 41.4324 30.1253 41.4427 30.1815 41.4427C30.0794 41.4427 30.3601 41.4427 30.3805 41.4427C30.5132 41.4427 30.4877 41.4324 30.6459 41.4376C30.8501 41.4376 30.845 41.4376 30.9726 41.4478C31.682 41.4478 32.3455 41.4478 33.0651 41.4478C33.1417 41.4478 33.2846 41.4478 33.2999 41.4478C33.3662 41.4478 33.3101 41.4581 33.3968 41.4581C33.4479 41.4581 33.4224 41.4478 33.4989 41.453C33.7745 41.453 34.0859 41.453 34.3615 41.4581C35.0454 41.4581 35.8569 41.4581 36.4183 41.4632C36.5408 41.4632 36.3775 41.4786 36.5459 41.4786C37.5156 41.4838 38.5364 41.494 39.5622 41.4992C39.6388 41.4992 39.5775 41.5146 39.6898 41.5146C39.8327 41.5146 39.797 41.4992 39.9246 41.4992C40.0062 41.4992 40.0777 41.5094 40.1185 41.5197C41.3026 41.5351 42.5173 41.5197 43.7371 41.5146C44.8752 41.5146 46.0134 41.5094 47.0903 41.5043C47.5139 41.5043 47.9324 41.4992 48.3356 41.494C48.4683 41.494 48.601 41.494 48.7286 41.494C48.7694 41.494 48.8256 41.4889 48.846 41.5043C48.846 41.5557 48.846 41.6121 48.8409 41.6686C48.8307 41.7713 48.8205 41.874 48.8103 41.9767C48.7949 42.0897 48.7847 42.2078 48.7694 42.3208C48.7082 42.7727 48.6316 43.2194 48.5449 43.6764C48.4122 44.3389 48.2182 45.0578 48.0702 45.6021C48.0447 45.6894 48.009 45.8178 47.9783 45.9153C47.9273 46.0796 47.8661 46.244 47.8048 46.4032C47.6568 46.8396 47.4935 47.2864 47.3148 47.7126C47.1107 48.185 46.8861 48.6318 46.6514 49.0734C46.5085 49.3199 46.3911 49.5663 46.238 49.8077C46.1359 49.9566 46.0236 50.1312 45.9164 50.2853C45.6153 50.732 45.2938 51.1839 44.9569 51.5639C44.7374 51.8258 44.4823 52.062 44.2475 52.3085C43.9872 52.5344 43.7473 52.786 43.4768 53.0017C42.8899 53.4895 42.0988 53.9671 41.4659 54.3163C41.1954 54.4292 40.9198 54.5525 40.6391 54.686C40.3533 54.8041 40.0471 54.9119 39.7357 55.0249C39.6694 55.0506 39.6235 55.0608 39.552 55.0763C38.5772 55.3535 37.4697 55.5692 36.6429 55.6206C36.3366 55.6822 36.0661 55.6462 35.7803 55.6616C35.469 55.6668 35.1781 55.6976 34.8769 55.6771C34.7902 55.6719 34.683 55.6668 34.5911 55.6565C34.29 55.6411 33.9889 55.6565 33.6571 55.6103C33.4173 55.5795 33.157 55.5487 32.8916 55.5179C32.6313 55.4717 32.3608 55.4152 32.0801 55.3741C31.8657 55.333 31.6003 55.2611 31.3349 55.179C31.0644 55.1019 30.7837 55.0403 30.5489 54.9581C29.7528 54.6706 28.9617 54.3419 28.2114 53.9055C27.9613 53.7565 27.7521 53.5871 27.4918 53.4433C27.16 53.1917 26.9457 53.0274 26.6599 52.8117C26.3894 52.5601 26.0882 52.3187 25.8279 52.0363C25.435 51.6512 24.9705 51.1479 24.7459 50.7988C24.7 50.5985 24.3632 50.3931 24.1335 50.0182C24.011 49.818 24.0518 49.8282 24.0161 49.7307C23.9038 49.5561 23.8017 49.3866 23.6895 49.2223C23.567 49.0169 23.5159 48.8526 23.3628 48.5753L23.3832 48.5701ZM29.9263 40.77C29.9263 40.77 29.9212 40.7649 29.8957 40.7649C29.9671 40.7495 30.1253 40.7751 29.9263 40.77ZM29.8599 40.7751C29.5843 40.7751 29.1964 40.7957 28.9974 40.7751C28.9412 40.7751 29.0433 40.7957 28.9566 40.8008C28.8392 40.7905 28.7014 40.7854 28.4972 40.7854C28.4819 40.7546 28.8851 40.7751 28.9055 40.7443C29.0586 40.7443 29.1352 40.7443 29.2066 40.7341C29.5231 40.7443 29.5945 40.7238 29.8395 40.7341C29.7783 40.7495 29.8803 40.7495 29.865 40.7649L29.8599 40.7751Z" fill="white"/>
</g>
<defs>
<clipPath id="clip0_868_9307">
<rect width="30" height="42.8571" fill="white" transform="translate(20 14)"/>
</clipPath>
</defs>
</svg>
