<svg width="70" height="70" viewBox="0 0 70 70" fill="none" xmlns="http://www.w3.org/2000/svg">
<g clip-path="url(#clip0_868_10112)">
<path fill-rule="evenodd" clip-rule="evenodd" d="M46.8848 17.6758C47.0252 17.7186 47.2195 17.7775 47.4517 17.8524C47.3923 17.8417 47.0737 17.7454 46.8848 17.6758Z" fill="white"/>
<path fill-rule="evenodd" clip-rule="evenodd" d="M52.6236 21.3008C52.494 21.4293 52.0945 21.8254 52.1269 21.7665C52.359 21.547 52.4616 21.456 52.6236 21.3008Z" fill="white"/>
<path fill-rule="evenodd" clip-rule="evenodd" d="M51.9108 21.9492C51.8838 21.9867 51.5598 22.2811 51.4141 22.4257C51.4141 22.4096 51.8136 22.0349 51.9108 21.9492Z" fill="white"/>
<path fill-rule="evenodd" clip-rule="evenodd" d="M50.028 23.9609C49.9308 24.0627 49.6608 24.325 49.5312 24.4374C49.5582 24.3999 49.8822 24.1055 50.028 23.9609Z" fill="white"/>
<path fill-rule="evenodd" clip-rule="evenodd" d="M48.9957 24.707C48.8337 24.8783 48.5421 25.1567 48.1426 25.5314C48.2722 25.3923 48.6879 25.0015 48.9957 24.707Z" fill="white"/>
<path fill-rule="evenodd" clip-rule="evenodd" d="M47.1067 27.6641C46.6748 28.0763 45.7947 28.9328 45.4707 29.2112C46.016 28.6973 46.5992 28.1405 47.1067 27.6641Z" fill="white"/>
<path fill-rule="evenodd" clip-rule="evenodd" d="M45.6797 28.5078C45.1506 29.0378 44.1625 29.9425 43.4767 30.617C43.3633 30.6973 44.4918 29.6481 44.6808 29.45C44.8428 29.3001 44.9724 29.1823 45.1074 29.0539C45.2963 28.8718 45.4691 28.6898 45.6743 28.5078H45.6797Z" fill="white"/>
<path fill-rule="evenodd" clip-rule="evenodd" d="M38.9856 34.7852C38.9856 34.7852 38.964 34.828 38.7804 34.9993C38.7264 35.0475 38.7048 35.0582 38.7156 35.0421L38.9856 34.7852Z" fill="white"/>
<path fill-rule="evenodd" clip-rule="evenodd" d="M35.5021 34.0737C34.9297 33.8756 33.6285 33.3885 32.9211 33.1101C32.824 33.078 32.8186 33.078 32.635 33.0137C32.2084 32.8531 31.2527 32.4891 32.1814 32.8371C33.3423 33.2707 34.2332 33.6026 35.5021 34.079V34.0737Z" fill="white"/>
<path fill-rule="evenodd" clip-rule="evenodd" d="M35.1416 33.7316C35.0012 33.6835 34.7745 33.6032 34.4883 33.4961C34.5585 33.5122 35.0336 33.6888 35.1416 33.7316Z" fill="white"/>
<path fill-rule="evenodd" clip-rule="evenodd" d="M34.0874 33.8769C33.9794 33.8448 33.5096 33.6628 33.2559 33.5664C33.4394 33.6306 33.8822 33.7912 34.0874 33.8769Z" fill="white"/>
<path fill-rule="evenodd" clip-rule="evenodd" d="M34.433 33.538C34.1684 33.4416 33.7041 33.2757 33.4071 33.1686C33.1587 33.0615 34.082 33.4095 34.433 33.538Z" fill="white"/>
<path fill-rule="evenodd" clip-rule="evenodd" d="M34.0278 33.3248C33.8443 33.2659 33.3097 33.0625 32.9102 32.918C33.1855 33.0197 33.6661 33.1963 34.0278 33.3248Z" fill="white"/>
<path fill-rule="evenodd" clip-rule="evenodd" d="M33.1646 33.6286C33.1268 33.6286 32.765 33.4894 32.5059 33.3984C32.5653 33.4091 32.9378 33.5483 33.1646 33.6286Z" fill="white"/>
<path fill-rule="evenodd" clip-rule="evenodd" d="M32.7978 33.3883C32.4954 33.2866 31.4641 32.8958 30.9512 32.7031C31.6099 32.9494 32.0904 33.126 32.7978 33.3883Z" fill="white"/>
<path fill-rule="evenodd" clip-rule="evenodd" d="M32.7279 32.8467C32.2474 32.6861 31.5617 32.4131 31.1621 32.2578C31.6265 32.4291 32.2096 32.6486 32.7279 32.8467Z" fill="white"/>
<path fill-rule="evenodd" clip-rule="evenodd" d="M31.4432 32.5576C31.2434 32.4826 30.9518 32.3809 30.698 32.2899C30.6548 32.2524 31.1354 32.4452 31.4432 32.5576Z" fill="white"/>
<path fill-rule="evenodd" clip-rule="evenodd" d="M30.6538 32.2222C30.4324 32.1473 30.238 32.0723 29.9141 31.9492C29.9897 31.9706 30.4324 32.1419 30.6538 32.2222Z" fill="white"/>
<path fill-rule="evenodd" clip-rule="evenodd" d="M29.8771 31.8721C29.7691 31.8453 29.0833 31.583 29.2399 31.6258C29.4397 31.7008 29.4073 31.6954 29.4127 31.7008C29.6341 31.7811 29.6179 31.7757 29.8771 31.8721Z" fill="white"/>
<path fill-rule="evenodd" clip-rule="evenodd" d="M27.8301 31.4258C29.0611 31.8969 28.289 31.581 27.8301 31.4258Z" fill="white"/>
<path fill-rule="evenodd" clip-rule="evenodd" d="M26.7709 31.1723C26.3876 31.0385 26.015 30.894 25.5723 30.7227C25.8638 30.8297 26.5766 31.0974 26.7709 31.1723Z" fill="white"/>
<path fill-rule="evenodd" clip-rule="evenodd" d="M26.4755 31.0871C26.6051 31.146 25.8654 30.8676 26.0166 30.9158C26.1678 30.9747 26.3243 31.0336 26.4755 31.0871Z" fill="white"/>
<path fill-rule="evenodd" clip-rule="evenodd" d="M25.5303 30.9543C25.3953 30.9115 25.1037 30.8044 24.877 30.7188C24.9471 30.7348 25.4223 30.9115 25.5303 30.9543Z" fill="white"/>
<path fill-rule="evenodd" clip-rule="evenodd" d="M22.9768 29.9696C22.2047 29.6966 21.9401 29.5788 22.9768 29.9696Z" fill="white"/>
<path fill-rule="evenodd" clip-rule="evenodd" d="M43.1805 31.7773C43.0671 31.8951 42.9321 32.0289 42.8295 32.1307C42.5974 32.3287 42.2086 32.7195 41.9062 32.9979C42.2572 32.6392 42.6622 32.2859 43.1859 31.7773H43.1805Z" fill="white"/>
<path fill-rule="evenodd" clip-rule="evenodd" d="M33.5109 33.5878C33.2949 33.5021 33.3111 33.5128 33.0573 33.4111C33.0357 33.395 33.1491 33.4379 33.1599 33.4379C32.701 33.2666 32.4418 33.1702 32.053 33.0257C32.107 33.0417 32.1556 33.0578 32.1556 33.0524C31.6265 32.8758 31.0379 32.6188 29.9473 32.2227C30.9894 32.592 33.2841 33.47 34.1912 33.8072C34.0508 33.7698 33.2625 33.4593 33.1599 33.4379C33.1329 33.4379 33.6675 33.6306 33.5055 33.5878H33.5109Z" fill="white"/>
<path fill-rule="evenodd" clip-rule="evenodd" d="M32.6797 32.8861C32.6257 32.8701 32.5771 32.8487 32.6797 32.8861C32.6473 32.8861 32.2747 32.7363 32.2207 32.7148C32.3395 32.747 33.549 33.2073 32.6851 32.8861H32.6797Z" fill="white"/>
<path fill-rule="evenodd" clip-rule="evenodd" d="M25.8279 30.3535L25.8441 30.3428C25.2555 30.1233 24.3106 29.77 23.9219 29.6094C24.6238 29.861 26.0924 30.4445 26.6 30.6051C26.7296 30.6533 26.924 30.7336 27.0535 30.7818C28.7166 31.4027 30.4282 32.0398 32.129 32.6768C31.3569 32.4306 29.6669 31.7346 28.7922 31.4509C28.6518 31.3974 28.7922 31.4509 28.8893 31.483C28.1442 31.2047 26.8052 30.6907 25.8387 30.3535H25.8279Z" fill="white"/>
<path fill-rule="evenodd" clip-rule="evenodd" d="M26.258 31.0385C26.0906 30.9796 25.8638 30.8993 25.691 30.8404C25.61 30.8083 26.0744 30.9582 26.258 31.0385Z" fill="white"/>
<path fill-rule="evenodd" clip-rule="evenodd" d="M35.7736 54.6103C35.9518 54.6746 36.1354 54.7495 36.3297 54.8191C36.5457 54.9155 36.7023 54.9529 36.9075 54.9851C37.1072 55.0118 37.3232 55.0118 37.55 54.9636C37.7984 54.9101 38.0521 54.7977 38.2411 54.6371C38.2951 54.5996 38.3329 54.5568 38.3761 54.514L38.4787 54.4069L38.6137 54.2624C38.7919 54.075 38.9646 53.8876 39.1374 53.7003C39.483 53.3255 39.8286 52.9508 40.2011 52.5493C40.8382 51.848 41.4592 51.1574 42.1179 50.424C42.6092 49.878 42.7766 49.696 43.1114 49.3266C44.0833 48.2506 44.8932 47.3834 45.2874 46.8962C45.9785 46.1146 46.7776 45.2099 47.3931 44.514C47.4957 44.4016 47.6847 44.1928 47.7225 44.1499C49.2073 42.4476 50.0712 41.3609 51.8423 39.3748C51.9826 39.1874 52.0636 39.0536 52.3498 38.7003C52.5064 38.5183 52.7332 38.2452 52.8735 38.0846C53.2029 37.6564 52.8358 37.9615 53.4945 37.196C53.5215 37.1478 53.3973 37.2816 53.3541 37.3138C53.3055 37.2281 52.9707 37.469 53.0841 37.2335C52.582 37.7153 52.6468 37.5707 52.2472 37.9401C51.9556 38.2238 51.5507 38.62 51.2321 38.9305C50.8758 39.2784 50.5464 39.5996 50.2116 39.9208C50.1954 39.8994 49.7635 40.3544 49.6663 40.4294C49.1479 40.9594 48.7106 41.409 48.1869 41.9444C48.1275 41.9926 47.9979 42.1264 47.9817 42.1264C46.8424 43.2881 45.6815 44.4551 44.1589 46.0825C44.0239 46.2324 43.7269 46.5429 43.5595 46.7249C42.4419 47.9401 40.7033 49.8084 40.0931 50.4187C39.8933 50.6382 39.8933 50.6382 39.6936 50.8523C39.5532 50.9808 38.9322 51.6018 38.4139 52.1639C38.2519 52.3459 37.9118 52.7313 37.5608 53.1328C37.4744 53.2292 37.3448 53.3684 37.2908 53.4272C37.2692 53.454 37.2638 53.4487 37.253 53.454C37.2422 53.454 37.2152 53.4594 37.1666 53.454C37.1288 53.454 37.0371 53.4165 37.0263 53.4112L36.9885 53.3951L36.9507 53.3791C36.7185 53.2881 36.4971 53.1971 36.2757 53.1114C35.9734 53.0043 35.563 52.8544 35.239 52.742C34.3319 52.4048 32.5177 51.6821 31.7618 51.3823C31.1679 51.1414 30.9519 51.0397 30.5038 50.8684C30.0934 50.7131 29.7802 50.6114 29.8072 50.6542C28.614 50.2581 25.6281 49.0268 23.8247 48.3362C22.5234 47.7849 21.2384 47.3191 20.0235 46.7838C19.7967 46.6767 19.5267 46.5375 19.3054 46.409C18.9382 46.2003 18.4631 45.8951 18.1175 45.5311C17.9879 45.3973 17.8745 45.2581 17.7881 45.1243C17.7449 45.0547 17.7071 44.9904 17.6747 44.9262C17.6477 44.878 17.6153 44.7709 17.6207 44.803L17.6045 44.7335C17.4804 44.2945 17.3886 43.8234 17.3346 43.3951C17.313 43.0953 17.3022 42.8223 17.3076 42.5707C17.3076 42.4422 17.3184 42.3191 17.3292 42.2013L17.3508 42.03C17.3508 42.03 17.367 42.0086 17.3616 41.9926C17.367 41.9711 17.3994 41.923 17.5506 41.8587C17.7017 41.8052 17.9177 41.7784 18.1445 41.7677C18.4955 41.7624 18.8626 41.8052 19.2838 41.8801C19.4619 41.9069 19.6347 41.9444 19.8129 41.9765L19.8777 41.9926L20.0181 42.0407C20.1153 42.0729 20.2125 42.1103 20.3097 42.1478C20.6984 42.2977 21.1196 42.4583 21.4975 42.5975C21.7783 42.6992 22.0105 42.7795 22.2426 42.8651C22.545 42.9776 22.7448 43.0579 23.0634 43.1756C23.3927 43.2934 23.7653 43.4219 24.0946 43.5343C25.3527 43.9893 26.7026 44.5033 27.8958 44.9101C30.0664 45.7131 31.8752 46.3823 34.4345 47.3245C35.0717 47.5493 35.536 47.7153 36.1947 47.9669C36.3405 48.0204 36.3459 48.0097 36.5781 48.0953C37.0317 48.2613 37.4798 48.4272 37.9388 48.5986C38.7757 47.726 39.6288 46.832 40.4819 45.938C40.5251 45.8898 40.5629 45.8416 40.6169 45.7827C42.0099 44.3587 43.7593 42.544 44.823 41.3983C45.6761 40.5365 46.6372 39.5033 47.6739 38.4272C48.1599 37.924 48.6404 37.4262 49.0993 36.9497C49.9957 36.0129 51.1565 34.8031 52.015 33.909C52.2634 33.6467 52.5172 33.3737 52.7602 33.1114C52.8735 32.9936 52.9869 32.8759 53.1057 32.7527L53.3919 32.4529L53.5485 32.2923L53.6241 32.212C53.6241 32.212 53.6511 32.1853 53.6619 32.1692L53.6457 32.1157C53.5755 31.8587 53.5107 31.5964 53.4405 31.3395C53.4081 31.1789 53.3757 31.0183 53.3379 30.8577C53.2191 30.2313 53.1651 29.5675 53.1813 28.8983C53.1813 28.7859 53.1975 28.4433 53.2353 28.1328L53.3109 27.6457L53.3487 27.4048L53.4297 27.1103L53.5971 26.5108L53.84 25.7774C54.0236 25.2313 54.2072 24.6853 54.3962 24.1392L54.2288 24.2838L54.0938 24.3962C54.029 24.4497 53.9696 24.4926 53.9372 24.514C53.7375 24.7174 53.5431 24.9155 53.3433 25.1189C52.9329 25.5365 52.5334 25.954 52.1392 26.3555C51.4859 27.0247 50.865 27.6617 50.2872 28.2559C49.7905 28.7752 49.3531 29.2356 48.7916 29.8191C47.8467 30.7881 46.8694 31.7891 45.9191 32.7581C45.6869 33.0043 45.4547 33.2452 45.2388 33.4701C44.6718 34.0536 44.1319 34.605 43.5326 35.2206C42.0693 36.7249 40.6169 38.2506 39.2292 39.6478C39.0564 39.8298 38.8729 40.0172 38.6893 40.2153C38.6029 40.3063 38.4841 40.4347 38.4139 40.4936C38.3437 40.5632 38.2681 40.6168 38.1871 40.6596C37.8578 40.8255 37.442 40.8202 36.9075 40.5311L36.8211 40.4936C34.9907 39.969 33.1495 39.2677 31.508 38.6307C30.8871 38.4112 30.3148 38.1596 29.683 37.9133C27.7393 37.1371 25.2555 36.1146 23.2469 35.2206C22.7178 34.9904 22.1887 34.7602 21.6541 34.53L20.855 34.1767C20.6012 34.0536 20.2773 33.9465 20.1585 33.8448C19.7643 33.5611 19.4188 33.1489 19.1542 32.6992C19.0192 32.4744 18.9112 32.2281 18.8086 31.9819C18.7114 31.7195 18.6304 31.484 18.6034 31.2538C18.5386 30.7774 18.625 30.2848 18.8464 29.8191C18.9544 29.5889 19.084 29.3587 19.246 29.1499C19.3918 28.9465 19.5969 28.7163 19.7427 28.5878L22.5018 26.393C26.1896 23.4754 29.8612 20.5579 33.4626 17.7527C33.765 17.5279 34.116 17.2656 34.4669 16.9979C34.6397 16.8694 34.8125 16.741 34.9745 16.6178C35.1257 16.5268 35.2498 16.4305 35.3794 16.3823C35.4874 16.3395 35.8276 16.2056 36.1192 16.1628C37.1342 15.9326 38.5543 16.0771 39.8663 16.5429C40.2227 16.6339 41.0488 16.9176 41.5726 17.0729C41.7885 17.1585 41.2702 16.9872 41.6482 17.1157C42.5553 17.3619 45.5627 18.363 46.9234 18.7859C46.8316 18.7538 46.81 18.7431 46.9288 18.7806C47.2528 18.8983 47.4147 18.9251 47.7819 19.0482C48.9482 19.4176 49.9633 19.7388 50.9514 20.0493C51.7559 20.2956 52.5226 20.5365 53.3379 20.7827C53.3001 20.8202 53.2623 20.8577 53.2191 20.8951C53.1543 20.954 53.0355 21.0557 52.9275 21.1574C52.8735 21.2056 52.8196 21.2592 52.7764 21.302C52.7116 21.3662 52.6576 21.4198 52.5982 21.4786C52.7062 21.3769 52.8303 21.2645 52.9221 21.1735C52.9977 21.1039 53.0571 21.0557 53.0625 21.0664C52.8789 21.2431 52.6684 21.4412 52.4686 21.6339C52.2256 21.8748 51.9988 22.0996 51.8261 22.2656C51.2375 22.8277 50.9244 23.1114 50.406 23.62C50.2764 23.7431 50.5464 23.5129 50.2656 23.7752C49.4287 24.5675 49.0238 24.9529 48.2732 25.6596C48.0681 25.8791 47.1988 26.7088 46.9234 26.9604C46.6858 27.196 47.1988 26.7195 46.999 26.9176C46.3294 27.56 45.7085 28.1596 45.0822 28.7431C44.9364 28.893 44.8392 29.0001 44.5908 29.241C44.4181 29.4069 44.6286 29.1821 44.3749 29.4283C44.1427 29.6639 44.5746 29.2624 44.526 29.332C44.1913 29.6585 44.2669 29.5996 44.1049 29.7656C43.6297 30.2045 43.322 30.5257 42.9008 30.9326C42.4581 31.3555 41.9775 31.8105 41.551 32.2227C41.2 32.5654 41.0272 32.7367 40.6277 33.1221C40.2929 33.4326 40.0013 33.7056 39.6288 34.0536C39.4344 34.241 39.7692 33.9412 39.4884 34.2088C39.2022 34.4819 38.9214 34.7549 38.6407 35.0172C37.3988 34.5622 36.2217 34.1285 35.2498 33.7752C35.9194 34.0215 36.5025 34.2356 37.064 34.4444C37.6094 34.6478 38.1223 34.8459 38.6461 35.0386C39.0132 34.6853 39.375 34.332 39.7746 33.9465C39.9851 33.7752 40.3469 33.3844 40.5575 33.2185C40.6385 33.1275 40.3361 33.4058 40.6277 33.1328C40.7249 33.0418 40.7626 33.0043 40.9138 32.8705C40.7465 33.0579 41.0164 32.8009 41.1352 32.7099C42.2313 31.6607 43.0952 30.8362 44.0455 29.9315C44.2183 29.7602 43.9159 30.0386 44.1157 29.8459C44.4774 29.4979 44.7474 29.241 45.1794 28.8234C45.3198 28.711 45.6113 28.4433 45.4709 28.6039C44.1967 29.8245 42.4473 31.5054 40.93 32.9615C40.4657 33.4005 39.9743 33.8502 39.726 34.1178C40.4063 33.4594 40.9786 32.9562 41.578 32.3887C42.3447 31.6553 43.1708 30.863 43.9213 30.1403C44.1319 29.9476 44.2291 29.8566 44.4181 29.6799C44.5638 29.5407 44.823 29.2838 44.985 29.1285C45.1632 28.9626 45.1902 28.9412 45.3414 28.802C45.6545 28.4968 45.9137 28.2452 46.2593 27.908C46.8586 27.3459 47.4525 26.7891 48.1113 26.1628C48.2354 26.0557 48.1976 26.1146 48.0465 26.2645C47.2689 27.0033 47.134 27.1317 46.3402 27.8866C46.432 27.8009 46.486 27.7527 46.486 27.7634C46.2377 27.9936 46.1513 28.0739 45.9893 28.2399C46.5778 27.6778 46.5454 27.7527 46.3564 27.9508C44.8878 29.3427 43.0952 31.045 41.8749 32.2013C41.7453 32.3352 41.6698 32.4208 41.4538 32.635C40.5791 33.4701 39.6396 34.3587 38.6947 35.2634C37.9765 34.9958 37.253 34.7228 36.5403 34.4551C37.253 34.7281 37.9712 35.0011 38.7001 35.2795C39.8825 34.1499 41.1244 32.9669 42.4527 31.6981C42.5283 31.6285 42.4797 31.6981 42.6686 31.5108C43.5002 30.7185 44.4451 29.8138 45.0822 29.2035C45.3738 28.9519 45.6599 28.7003 45.9461 28.454C47.9601 26.5215 49.4881 25.1617 51.4319 23.3255C51.4319 23.3416 51.5831 23.2024 51.6479 23.1489C51.5075 23.2988 51.3779 23.4326 51.2267 23.5878C50.9082 23.8876 50.5896 24.2035 50.3034 24.4658C48.6944 26.0397 46.3564 28.2292 44.3371 30.1724C44.1049 30.4187 44.3101 30.2474 44.4882 30.0975C45.4763 29.1767 46.351 28.3095 47.4039 27.3405C47.8089 27.0193 47.4417 27.4155 46.6372 28.1756C45.309 29.4337 43.0196 31.6018 42.1557 32.4208C41.0218 33.5022 39.8987 34.5782 38.7703 35.6542C35.0285 34.257 31.2813 32.8544 27.4369 31.4144C30.3094 32.4958 32.9497 33.4915 35.5306 34.4604C35.5252 34.4497 35.617 34.4819 35.8168 34.5568C36.7779 34.9208 37.7768 35.2956 38.7703 35.6703C40.1633 34.3427 41.5402 33.0257 42.728 31.8962C43.4678 31.2324 44.8284 29.8941 45.5735 29.2249C45.4223 29.4283 44.8392 30.0118 44.0995 30.7292C44.8662 30.0065 45.5897 29.3266 46.2323 28.7217C46.756 28.2238 47.6469 27.378 47.9385 27.0996C48.0033 27.0407 47.8845 27.1639 48.0087 27.0461C47.7927 27.2495 48.392 26.6767 48.4352 26.6339C48.7214 26.3555 48.6728 26.4037 49.0022 26.0878C49.4395 25.6756 49.4341 25.681 49.7149 25.4294C51.4265 23.8073 53.0733 22.2442 54.7795 20.6275C54.8551 20.5579 54.9523 20.4615 55.0225 20.3973C54.6338 20.2741 54.2612 20.151 54.218 20.135C53.8994 20.0279 54.1856 20.1135 53.7591 19.9744C53.5431 19.9101 53.5809 19.9208 53.2623 19.8191C52.4362 19.5514 51.4913 19.241 50.6706 18.9733C48.7376 18.3416 46.4536 17.5975 44.877 17.0889C44.526 16.9711 44.9958 17.1103 44.5206 16.9551C43.1654 16.5108 41.7669 16.0557 40.3469 15.59L39.8124 15.4133L39.6774 15.3705L39.5154 15.3223L39.2184 15.2474C38.8243 15.1564 38.4301 15.0868 38.0251 15.044C37.2206 14.9583 36.3729 14.9583 35.5144 15.2045C35.2606 15.2902 35.455 15.1885 35.0825 15.3384C34.6235 15.5311 34.7423 15.5204 34.3535 15.7452C34.17 15.8684 34.008 15.9808 33.8622 16.0771C31.0545 18.1917 28.2468 20.4347 25.4175 22.6671C24.1 23.711 22.7826 24.7549 21.4813 25.7827C20.8334 26.2966 20.1855 26.8105 19.5429 27.3191L19.0624 27.6992C18.8248 27.8919 18.706 28.0418 18.5494 28.2238C18.2579 28.5718 18.0095 28.9572 17.8205 29.3748C17.5128 30.0279 17.3886 30.8095 17.5236 31.5482C17.6099 31.9283 17.7125 32.2335 17.8421 32.5386C17.9717 32.8437 18.1283 33.1435 18.3065 33.4272C18.4847 33.711 18.6898 33.9786 18.922 34.2249C19.0408 34.348 19.165 34.4658 19.2946 34.5729C19.4349 34.6853 19.5483 34.7763 19.7589 34.8941C20.3043 35.1403 20.8334 35.3759 21.3625 35.6168C24.1378 36.8266 26.546 37.8544 29.1755 38.9198C31.0707 39.6853 33.1711 40.5043 34.8233 41.0504C35.1095 41.1414 35.4442 41.2538 35.7844 41.3502C36.0004 41.4144 36.2217 41.484 36.4431 41.5536H36.4539C36.4539 41.5536 36.5565 41.6125 36.6213 41.6446C36.6969 41.6767 36.7725 41.7142 36.8535 41.741C37.0101 41.7998 37.172 41.8427 37.3448 41.8694C37.793 41.9497 38.3167 41.8855 38.7595 41.6446C38.97 41.5322 39.1752 41.3609 39.3156 41.2163L39.6828 40.8362C40.1741 40.3277 40.6655 39.8191 41.1514 39.3159C42.2421 38.1971 43.295 37.121 44.3641 36.0183C44.9634 35.3973 45.5465 34.7923 46.1405 34.1767C46.54 33.7752 46.9612 33.3416 47.3715 32.924C48.5216 31.7356 49.6987 30.5204 50.784 29.3962C51.1349 29.0375 51.4859 28.6789 51.8423 28.3148L52.042 28.1168L52.1392 28.015C52.1284 28.0579 52.1122 28.106 52.1014 28.1489C52.0582 28.3255 52.042 28.4433 52.0366 28.6789C52.0042 29.2945 52.0312 29.9476 52.1176 30.606C52.1554 30.938 52.2256 31.2699 52.3012 31.5964L52.3552 31.7998C52.3552 31.8373 52.3066 31.8641 52.285 31.8908C51.3995 32.817 50.5194 33.7324 49.7473 34.5407C48.4622 35.8309 47.1718 37.2228 45.7409 38.7056C45.5897 38.8555 45.4817 38.9679 45.3306 39.1178C43.1546 41.3823 40.7842 43.8502 39.0186 45.6863C38.7217 46.0075 38.4409 46.302 38.1655 46.5857L37.7498 47.0086L37.6094 47.1478L37.5608 47.1317C36.7401 46.832 35.9788 46.5589 35.1905 46.2699C34.9151 46.1628 34.6505 46.0664 34.3697 45.9594C33.5004 45.6435 32.6419 45.333 31.6808 44.9851C30.2446 44.4604 28.7273 43.8716 27.0751 43.2827C25.8117 42.8009 23.9327 42.0943 22.4748 41.5804C21.8539 41.3502 21.2438 41.12 20.6282 40.8898L20.396 40.8041C20.3583 40.7827 20.1423 40.7185 20.0829 40.7078C19.9101 40.6703 19.7373 40.6328 19.5645 40.6061C19.219 40.5472 18.8626 40.5043 18.4955 40.4829C18.1283 40.4722 17.7449 40.4829 17.3238 40.5793C17.1132 40.6328 16.8864 40.7131 16.6596 40.8737C16.4383 41.0236 16.2115 41.2859 16.1359 41.5696C16.1143 41.6392 16.0927 41.7142 16.0765 41.7838C16.0657 41.848 16.0603 41.8801 16.0549 41.9337C16.0441 42.03 16.0333 42.121 16.0279 42.212C16.0117 42.3994 16.0117 42.5814 16.0117 42.7634C16.0171 43.1275 16.0495 43.4861 16.1035 43.8395C16.1683 44.2677 16.2385 44.6532 16.3573 45.0761L16.3411 45.0065C16.3735 45.1564 16.3951 45.2099 16.4275 45.2956C16.4545 45.3759 16.4923 45.4401 16.5247 45.515C16.5949 45.6542 16.6704 45.7774 16.7514 45.9005C16.9188 46.1414 17.1132 46.3502 17.3238 46.5536C18.0743 47.3191 19.2298 47.8866 20.2935 48.3041C21.3463 48.7377 22.4586 49.1981 23.5601 49.6532C25.1421 50.2902 27.1129 51.0504 28.2846 51.5589C28.7921 51.8534 29.8882 52.1478 31.1463 52.6564C31.8104 52.9347 31.7132 52.924 31.9886 53.0632C32.5825 53.3095 33.1495 53.5236 33.7326 53.7431C34.4075 54.0161 34.8881 54.2463 35.7898 54.5943L35.7736 54.6103ZM46.9234 27.0782C46.9234 27.0782 46.9072 27.0836 46.8478 27.1371C46.9882 26.9765 47.3391 26.6821 46.9234 27.0782ZM46.783 27.2228C46.1945 27.7849 45.3738 28.5878 44.9364 28.984C44.823 29.0911 45.0552 28.9037 44.8716 29.0857C44.6124 29.3159 44.3101 29.5943 43.8727 30.0118C43.8241 30.0118 44.6988 29.2088 44.715 29.1553C45.0498 28.8395 45.2118 28.6896 45.3522 28.5343C46.0433 27.8812 46.1729 27.7581 46.702 27.2549C46.5778 27.3994 46.8046 27.1746 46.7776 27.2281L46.783 27.2228Z" fill="white"/>
</g>
<defs>
<clipPath id="clip0_868_10112">
<rect width="39" height="40" fill="white" transform="translate(16 15)"/>
</clipPath>
</defs>
</svg>
